<?xml version="1.0" encoding="utf-8"?>
<!-- Generator: Adobe Illustrator 16.0.0, SVG Export Plug-In . SVG Version: 6.00 Build 0)  -->
<!DOCTYPE svg PUBLIC "-//W3C//DTD SVG 1.1//EN" "http://www.w3.org/Graphics/SVG/1.1/DTD/svg11.dtd">
<svg version="1.1" id="Capa_1" xmlns="http://www.w3.org/2000/svg" xmlns:xlink="http://www.w3.org/1999/xlink" x="0px" y="0px"
	 width="337.484px" height="217.489px" viewBox="244.102 153.597 337.484 217.489"
	 enable-background="new 244.102 153.597 337.484 217.489" xml:space="preserve">
<title>Canvas 1</title>
<title>Layer 1</title>
<g>
	<path opacity="0.6" fill="#E6E6E6" d="M285.494,292.277c-5.831-0.891-11.414-3.57-15.823-7.977
		c-6.687-6.687-9.318-15.896-7.961-24.595c-1.102-1.286-1.706-2.57-0.422-3.856c0.339,0.34,0.668,0.689,1.005,1.03
		c1.239-4.731,3.679-9.214,7.381-12.915c8.864-8.864,19.643-12.654,32.057-11.249c1.879,0.209,3.768,0.547,5.647,0.983
		l-17.325,17.326c-7.229,7.228-7.224,18.98,0,26.203l12.465,12.465c-2.486,1.228-5.112,2.048-7.783,2.504
		c2.265,2.47,4.552,4.916,6.867,7.336c2.556-0.839,5.046-1.934,7.41-3.347l59.662,59.663c4.39,4.389,10.214,6.811,16.428,6.812
		h170.809c10.217-0.007,18.525-8.314,18.529-18.531l-0.016-159.997c0.007-5.109-2.067-9.742-5.42-13.095
		c-3.356-3.353-7.994-5.436-13.103-5.43L385.1,165.6c-6.203,0.01-12.047,2.424-16.43,6.808l-54.132,54.131
		c-3.878-1.247-7.843-2.139-11.818-2.586c-15.006-1.7-28.58,3.06-39.289,13.769c-6.377,6.376-9.959,14.504-10.751,22.847
		c2.814-0.47,5.672-0.884,8.608-1.211c-2.936,0.327-5.794,0.741-8.608,1.211c-1.02,10.712,2.565,21.785,10.751,29.971
		c10.152,10.153,25.089,13.294,38.169,8.993c-2.315-2.42-4.602-4.866-6.867-7.336C291.675,292.721,288.549,292.743,285.494,292.277
		 M316.778,236.773c7.688,3.199,14.972,7.906,21.202,13.206c-7.017,9.098-6.355,22.246,1.982,30.582
		c9.056,9.059,23.8,9.057,32.857-0.001c9.061-9.062,9.061-23.804,0.004-32.862c-7.618-7.618-19.256-8.822-28.149-3.634
		c-6.232-5.442-13.445-10.349-21.191-13.994l51.424-51.424c2.722-2.724,6.339-4.213,10.19-4.221l170.799,0.008
		c5.363-0.003,9.713,4.347,9.709,9.707l0.004,159.985c0,5.354-4.355,9.712-9.706,9.705l-170.797,0.005
		c-3.851,0-7.475-1.498-10.199-4.223l-78.621-78.621c-3.781-3.781-3.783-9.943,0.002-13.728L316.778,236.773z M360.129,261.783
		c-2.33-3.707-5.28-7.496-8.708-11.173c5.112-1.872,11.073-0.769,15.166,3.325c5.62,5.619,5.615,14.766-0.004,20.385
		c-5.612,5.614-14.759,5.617-20.378-0.003c-4.949-4.949-5.543-12.633-1.767-18.235c3.279,3.444,6.08,6.982,8.216,10.389
		c1.297,2.067,4.017,2.689,6.086,1.404C360.803,266.576,361.427,263.855,360.129,261.783z"/>
	<g>
		<g>
			<title>Canvas 1</title>
			<g>
				<title>Layer 1</title>
				<path fill="#E6E6E6" stroke="#E6E6E6" stroke-miterlimit="10" d="M481.801,263.755l8.162,23.397
					c0.131,0.38,0.461,0.677,0.859,0.759c0.384,0.085,0.818-0.036,1.099-0.327l17.765-18.3v9.92l-27.885,29.994V263.755z
					 M518.62,256.69l-27.061,27.88l-9.861-28.263l28.595-24.595L518.62,256.69z M508.024,230.549l-27.377,23.554l-15.289-4.76
					v-31.294L508.024,230.549z M479.409,256.435l-5.169,28.691l-49.105-19.776l3.478-24.964l50.865,15.818
					C479.448,256.281,479.424,256.359,479.409,256.435 M474.699,287.855c0.329,0.129,0.705,0.112,1.013-0.06
					c0.312-0.177,0.526-0.472,0.589-0.821l3.147-17.435v40.423l-46.229-21.239l-0.005-17.572L474.699,287.855z M430.04,238.357
					l32.958-20.62v30.873L430.04,238.357z M521.086,256.624l-8.934-26.792c-0.122-0.367-0.414-0.653-0.788-0.761l-47.793-14.002
					c-0.323-0.101-0.677-0.048-0.961,0.133l-35.544,22.236c-0.295,0.185-0.491,0.492-0.542,0.834l-3.852,27.667
					c-0.073,0.535,0.226,1.052,0.729,1.255l7.455,3.007l0.005,19.274c0,0.458,0.266,0.877,0.681,1.073l48.243,22.163h0.001
					c0.042,0.071,0.087,0.143,0.157,0.209c0.222,0.203,0.506,0.325,0.806,0.325c0.326,0,0.64-0.147,0.864-0.376l30.113-32.397
					c0.205-0.216,0.314-0.504,0.314-0.803v-12.815l8.776-9.04C521.117,257.499,521.221,257.045,521.086,256.624"/>
			</g>
		</g>
		<circle fill="none" stroke="#E6E6E6" stroke-width="3" stroke-miterlimit="10" cx="471.904" cy="264.131" r="67.561"/>
	</g>
</g>
</svg>
