<?xml version="1.0"?>
<!DOCTYPE svg PUBLIC "-//W3C//DTD SVG 1.1//EN" "http://www.w3.org/Graphics/SVG/1.1/DTD/svg11.dtd">
<svg xmlns="http://www.w3.org/2000/svg" xmlns:xl="http://www.w3.org/1999/xlink" version="1.1" viewBox="229 321 88 83" width="88pt" height="83pt"><metadata xmlns:dc="http://purl.org/dc/elements/1.1/"><dc:date>2016-12-06 04:45Z</dc:date><!-- Produced by OmniGraffle Professional 5.4.2 --></metadata><defs></defs><g stroke="none" stroke-opacity="1" stroke-dasharray="none" fill="none" fill-opacity="1"><title>19</title><g><title>Layer 1</title><path d="M 255.79535 328.6232 L 290.32818 328.6232 C 298.61245 328.6232 305.32818 335.33892 305.32818 343.6232 L 305.32818 373.61146 C 305.32818 381.89573 298.61245 388.61146 290.32818 388.61146 L 255.79535 388.61146 C 247.51107 388.61146 240.79535 381.89573 240.79535 373.61146 C 240.79535 373.61146 240.79535 373.61145 240.79535 373.61145 L 240.79535 343.6232 C 240.79535 335.33892 247.51107 328.6232 255.79535 328.6232 C 255.79535 328.6232 255.79535 328.6232 255.79535 328.6232 Z" fill="#4fca98"/><path d="M 255.79535 328.6232 L 290.32818 328.6232 C 298.61245 328.6232 305.32818 335.33892 305.32818 343.6232 L 305.32818 373.61146 C 305.32818 381.89573 298.61245 388.61146 290.32818 388.61146 L 255.79535 388.61146 C 247.51107 388.61146 240.79535 381.89573 240.79535 373.61146 C 240.79535 373.61146 240.79535 373.61145 240.79535 373.61145 L 240.79535 343.6232 C 240.79535 335.33892 247.51107 328.6232 255.79535 328.6232 C 255.79535 328.6232 255.79535 328.6232 255.79535 328.6232 Z" stroke="black" stroke-linecap="round" stroke-linejoin="round" stroke-width=".5"/><path d="M 295.81898 377.9742 L 251.82235 377.9742 L 251.82235 339.08025" stroke="#4e4e4e" stroke-linecap="round" stroke-linejoin="round" stroke-width="1"/><path d="M 290.94112 338.41873 L 295.04427 338.79625 L 294.6671 342.8994" stroke="#4e4e4e" stroke-linecap="round" stroke-linejoin="round" stroke-width="1"/><path d="M 251.99148 360.72765 L 268.17719 348.78711 L 275.34583 355.118 L 294.43307 339.2976" stroke="#4e4e4e" stroke-linecap="round" stroke-linejoin="round" stroke-width="1"/><line x1="255.65217" y1="377.9742" x2="255.65217" y2="358.07797" stroke="#4e4e4e" stroke-linecap="round" stroke-linejoin="round" stroke-width="1"/><line x1="260.5972" y1="377.9742" x2="260.5972" y2="354.37896" stroke="#4e4e4e" stroke-linecap="round" stroke-linejoin="round" stroke-width="1"/><line x1="265.54218" y1="377.9742" x2="265.54218" y2="350.763" stroke="#4e4e4e" stroke-linecap="round" stroke-linejoin="round" stroke-width="1"/><line x1="270.48717" y1="377.9742" x2="270.48717" y2="351.29693" stroke="#4e4e4e" stroke-linecap="round" stroke-linejoin="round" stroke-width="1"/><line x1="275.43219" y1="377.9742" x2="275.43219" y2="355.11819" stroke="#4e4e4e" stroke-linecap="round" stroke-linejoin="round" stroke-width="1"/><line x1="280.37718" y1="377.9742" x2="280.37718" y2="351.29693" stroke="#4e4e4e" stroke-linecap="round" stroke-linejoin="round" stroke-width="1"/><line x1="285.32216" y1="377.9742" x2="285.32216" y2="347.0284" stroke="#4e4e4e" stroke-linecap="round" stroke-linejoin="round" stroke-width="1"/><line x1="290.26719" y1="377.9742" x2="290.26719" y2="342.99392" stroke="#4e4e4e" stroke-linecap="round" stroke-linejoin="round" stroke-width="1"/></g></g></svg>
