<?xml version="1.0"?>
<!DOCTYPE svg PUBLIC "-//W3C//DTD SVG 1.1//EN" "http://www.w3.org/Graphics/SVG/1.1/DTD/svg11.dtd">
<svg xmlns="http://www.w3.org/2000/svg" xmlns:xl="http://www.w3.org/1999/xlink" version="1.1" viewBox="19 23 426 857" width="426pt" height="857pt"><metadata xmlns:dc="http://purl.org/dc/elements/1.1/"><dc:date>2016-12-17 05:22Z</dc:date><!-- Produced by OmniGraffle Professional 5.4.2 --></metadata><defs></defs><g stroke="none" stroke-opacity="1" stroke-dasharray="none" fill="none" fill-opacity="1"><title>Canvas 2</title><g><title>Layer 1</title><path d="M 444.40225 831.9833 C 444.40225 858.096 423.23763 879.2653 397.12898 879.2653 L 66.271587 879.2653 C 40.162945 879.2653 19 858.096 19 831.9833 L 19 70.283704 C 19 44.169298 40.162945 23 66.271587 23 L 397.12898 23 C 423.23763 23 444.40225 44.169298 444.40225 70.283704 Z" fill="#666"/><path d="M 166.18913 73.635313 C 166.18913 77.161288 163.333 80.01637 159.8078 80.01637 C 156.282605 80.01637 153.42647 77.161288 153.42647 73.635313 C 153.42647 70.10934 156.282605 67.254258 159.8078 67.254258 C 163.333 67.254258 166.18913 70.10934 166.18913 73.635313 Z" fill="#c7c7c7"/><path d="M 280.19468 73.635313 C 280.19468 77.157925 277.34023 80.01637 273.81503 80.01637 L 189.5852 80.01637 C 186.06169 80.01637 183.20556 77.157925 183.20556 73.635313 C 183.20556 70.11102 186.06169 67.254258 189.5852 67.254258 L 273.81503 67.254258 C 277.34023 67.254258 280.19468 70.11102 280.19468 73.635313 Z" fill="#d9d8d7"/><path d="M 238.91324 44.062359 C 238.91324 48.047366 235.68391 51.275726 231.69978 51.275726 C 227.71733 51.275726 224.488 48.047366 224.488 44.062359 C 224.488 40.077352 227.71733 36.848992 231.69978 36.848992 C 235.68391 36.848992 238.91324 40.077352 238.91324 44.062359 Z" fill="#d9d8d7"/><path d="M 266.22082 828.5039 C 266.22082 847.57813 250.76677 863.02717 231.70012 863.02717 C 212.63682 863.02717 197.17942 847.57813 197.17942 828.5039 C 197.17942 809.43135 212.63682 793.9823 231.70012 793.9823 C 250.76677 793.9823 266.22082 809.43135 266.22082 828.5039 Z" fill="#c7c7c7"/><path d="M 260.37642 828.5039 C 260.37642 844.3481 247.53475 857.1825 231.69911 857.1825 C 215.86514 857.1825 203.02516 844.3481 203.02516 828.5039 C 203.02516 812.6631 215.86514 799.827 231.69911 799.827 C 247.53475 799.827 260.37642 812.6631 260.37642 828.5039 Z" fill="#666"/><rect x="44.201127" y="109.63264" width="375" height="667" fill="#e6e6e6"/><rect x="44.201127" y="109.63264" width="375" height="667" stroke="#b3b3b3" stroke-linecap="round" stroke-linejoin="round" stroke-width="2"/></g></g></svg>
