<?xml version="1.0" encoding="UTF-8" standalone="no"?>
<!DOCTYPE svg PUBLIC "-//W3C//DTD SVG 1.1//EN" "http://www.w3.org/Graphics/SVG/1.1/DTD/svg11.dtd">
<svg xmlns:dc="http://purl.org/dc/elements/1.1/" xmlns:xl="http://www.w3.org/1999/xlink" version="1.1" xmlns="http://www.w3.org/2000/svg" viewBox="548 482 227.96434 216.35668" width="227.96434" height="216.35668">
  <defs/>
  <metadata> Produced by OmniGraffle 7.7.1 
    <dc:date>2018-03-10 18:13:00 +0000</dc:date>
  </metadata>
  <g id="Canvas_1" fill-opacity="1" stroke-dasharray="none" stroke="none" stroke-opacity="1" fill="none">
    <title>Canvas 1</title>
    <g id="Canvas_1: Layer 1">
      <title>Layer 1</title>
      <g id="Group_1461">
        <g id="Group_1446">
          <g id="Graphic_1460">
            <path d="M 743.2688 642.4944 C 747.1488 640.1434 751.0298 637.7924 754.9098 635.4414 C 756.3678 635.8484 758.5038 634.6194 758.9528 637.4604 C 755.5498 636.7534 753.1638 638.9594 750.5788 640.8124 C 748.7818 642.1004 747.1848 643.8754 744.9188 644.2694 C 745.8108 642.0604 743.8008 643.1054 743.2688 642.4944 Z" fill="#2e2f2d"/>
          </g>
          <g id="Graphic_1459">
            <path d="M 766.7419 636.5023 C 770.2299 634.8313 773.7089 633.1683 773.7689 628.0443 C 773.8469 621.4103 769.2819 614.9273 763.3759 613.2683 C 758.9329 612.0203 754.6529 612.8793 750.4089 614.3603 C 749.3829 614.7093 748.2159 615.4853 747.9919 613.3993 C 755.3369 609.1763 762.7709 608.0683 769.9729 613.4953 C 777.6759 619.2973 777.9829 632.8453 770.7109 637.4723 C 769.5369 638.0383 768.1939 638.4423 767.0399 638.4863 C 765.0279 638.5603 765.9199 637.3653 766.7419 636.5023 Z" fill="#181817"/>
          </g>
          <g id="Graphic_1458">
            <path d="M 766.7419 636.5023 C 766.6939 637.1293 765.8249 638.1993 767.4069 637.9383 C 768.5039 637.7563 769.6089 637.6253 770.7109 637.4723 C 766.7889 640.7373 762.8719 637.8983 758.9529 637.4603 C 758.0079 635.8153 755.7289 637.3913 754.9099 635.4413 C 755.6689 634.2313 757.0479 632.9963 754.5129 632.1833 C 753.5489 631.8733 752.6949 631.1433 751.7909 630.6063 C 750.9179 630.0873 750.9049 629.1833 751.2989 628.4603 C 751.7399 627.6513 752.3029 628.2333 752.8949 628.5693 C 754.9739 629.7513 757.2469 630.0503 759.4949 629.8303 C 760.0669 631.2073 757.6679 632.7363 759.7209 633.5613 C 762.8319 634.8113 765.5649 633.4693 767.8429 631.0293 C 769.0889 633.5533 764.7979 634.0623 766.7419 636.5023 Z" fill="#252625"/>
          </g>
          <g id="Graphic_1457">
            <path d="M 743.2688 642.4944 C 736.9428 642.0324 731.9278 637.1824 731.5388 631.1484 C 731.2208 626.2254 733.0128 623.5334 737.4108 622.2134 C 738.1288 621.9964 738.7828 621.5214 739.4668 621.1654 C 740.0878 620.7544 740.6368 620.2464 741.1188 619.6484 C 744.1098 617.1424 747.2268 614.8684 750.7558 613.3464 C 754.9538 611.4634 759.2168 610.9394 763.6538 612.2914 C 770.9548 614.5154 773.6968 619.6474 774.6148 627.5404 C 775.1298 631.9544 772.3848 635.1774 767.3038 637.0864 C 764.6478 636.5844 765.7518 634.9094 766.3598 633.3894 C 762.0178 635.8584 761.3378 635.7314 758.0728 631.7634 C 756.8338 630.2574 755.0178 630.5984 753.0318 629.6804 C 754.9118 631.7704 758.7728 632.6304 755.4788 636.2234 C 751.6568 638.8944 747.7298 641.3214 743.2688 642.4944 Z" fill="#fcfcfc"/>
          </g>
          <g id="Graphic_1456">
            <path d="M 741.0953 620.506 C 740.6903 621.137 740.2103 621.544 739.4663 621.166 C 739.6373 620.407 740.1083 619.349 738.7043 619.722 C 737.1123 620.146 735.5643 620.781 733.8963 620.234 C 735.7633 618.96 737.9053 618.841 739.9903 618.484 C 740.6153 618.216 741.3683 618.028 741.7423 618.694 C 742.1273 619.382 741.5153 619.979 741.0953 620.506 Z" fill="#2f302f"/>
          </g>
          <g id="Graphic_1455">
            <path d="M 744.9146 644.272 C 743.3996 645.99 741.5486 647.058 739.4636 647.673 C 740.8196 645.649 742.5566 644.361 744.9146 644.272 Z" fill="#2e2f2d"/>
          </g>
          <g id="Graphic_1454">
            <path d="M 747.9921 613.3993 C 748.4841 614.6733 749.6021 614.0433 750.4091 614.3603 C 747.3051 616.4093 744.2001 618.4573 741.0951 620.5063 C 741.5531 619.2883 741.3031 618.5363 739.9901 618.4853 C 742.6581 616.7893 745.3251 615.0953 747.9921 613.3993 Z" fill="#3f4140"/>
          </g>
          <g id="Group_1447">
            <g id="Graphic_1453">
              <path d="M 556.8921 668.1014 C 556.18527 668.4076 555.45495 668.8576 554.7166 669.4577 C 550.3895 672.9744 547.42467 680.3126 548.0944 685.8481 C 548.4787 689.0243 549.9761 690.9169 552.00013 691.2889 C 552.00233 691.8208 552.0332 692.342 552.0944 692.8481 C 552.7066 697.9082 556.1439 699.7103 560.0349 697.29655 C 561.7372 698.8659 564.3137 698.7383 567.0101 696.6092 C 568.442 696.7514 570.10865 696.1665 571.81844 694.7769 C 576.1455 691.2602 579.11036 683.922 578.4406 678.38646 C 578.1138 675.6854 576.982 673.9126 575.4059 673.21394 C 575.48646 672.21415 575.47606 671.23846 575.3641 670.3131 C 574.85225 666.0825 572.3655 664.12924 569.2899 665.0134 C 567.9501 661.2193 564.4354 660.4353 560.7166 663.4577 C 559.25795 664.64315 557.9541 666.26286 556.8921 668.1014 Z" fill="white"/>
            </g>
            <g id="Graphic_1452">
              <path d="M 550.8993 671.6464 C 550.8303 673.1414 551.0703 674.7554 550.6323 676.1044 C 549.6363 679.1684 551.6973 677.3554 552.4393 677.6304 C 550.6183 679.7184 549.9843 682.2174 550.5873 684.9894 C 550.8413 686.1584 550.5833 688.8444 552.9653 686.5374 C 553.5823 685.9404 554.1183 686.5554 554.2303 687.4054 C 554.2673 687.6854 554.4043 688.0414 554.2993 688.2354 C 553.1613 690.3504 556.6953 692.6494 554.2893 694.4184 C 552.9733 695.3854 547.9573 690.0034 548.0003 687.1804 C 548.0813 681.8564 548.7233 676.5504 550.8993 671.6464 Z" fill="#2b2c2b"/>
            </g>
            <g id="Graphic_1451">
              <path d="M 573.397 692.0324 C 573.573 693.8684 574.806 693.7154 575.985 693.7144 C 587.004 693.7114 598.024 693.6934 609.044 693.7504 C 610.677 693.7584 611.864 693.5494 611.681 691.3374 C 613.337 693.1644 613.664 694.5984 610.675 694.5664 C 597.288 694.4224 583.897 695.0394 570.511 694.2704 C 569.658 694.2214 568.904 694.4154 568.845 693.3274 C 568.811 692.7074 569.127 691.7794 569.566 691.4674 C 570.815 690.5804 570.417 692.2054 570.801 692.6494 C 572.012 694.0534 572.483 691.9654 573.397 692.0324 Z" fill="#383835"/>
            </g>
            <g id="Graphic_1450">
              <path d="M 560.2481 691.5294 C 561.3671 691.4824 561.6931 692.0544 561.7601 692.7954 C 561.8621 693.9374 561.4351 694.6864 560.2961 694.7224 C 559.5791 694.7444 558.9691 694.4144 559.0141 693.5854 C 559.0691 692.5724 559.5671 691.7694 560.2481 691.5294 Z" fill="#9e9e9d"/>
            </g>
            <g id="Graphic_1449">
              <path d="M 678.4443 615.4111 C 678.4113 615.3791 678.3803 615.3441 678.3473 615.3121 C 678.3873 615.1521 678.4073 614.9851 678.4443 614.8241 C 678.4893 614.8991 678.5273 614.9641 678.5773 615.0491 C 678.5293 615.1691 678.4903 615.2911 678.4443 615.4111 M 676.5081 693.41336 C 676.86886 693.41455 677.2296 693.4155 677.5903 693.4161 C 684.7193 693.4291 684.7193 693.4061 686.3623 686.0541 C 687.9733 684.4861 687.3263 682.3481 687.5043 680.4361 C 687.7403 677.9191 688.2773 675.7081 690.6413 674.5351 C 700.1733 669.8031 709.6483 665.0031 718.7803 659.3101 C 725.2823 655.2561 732.0533 651.6591 738.6003 647.6371 C 740.3183 646.1651 742.0733 644.7661 744.0963 643.8391 C 744.4013 643.5921 744.6553 643.2921 744.8493 642.9351 C 745.2753 640.5461 743.5213 640.8911 742.3333 640.5361 C 737.8873 640.3811 734.8033 637.9031 732.8233 633.6751 C 730.5323 628.7821 731.9143 624.5591 736.4853 622.3051 C 737.5483 621.7811 738.6453 621.3431 739.3043 620.1941 C 740.0983 618.0681 738.7893 617.7451 737.4453 617.8721 C 735.9553 618.0131 734.4753 618.2431 732.9763 618.1891 C 728.3853 618.8501 723.7903 619.6811 719.2923 620.7381 C 713.0363 622.2081 706.8273 622.6521 700.4803 622.4431 C 692.6073 622.1831 686.5673 618.7161 682.5673 611.1381 C 682.0443 610.1471 681.7553 609.0951 682.4003 608.3961 C 684.4903 606.1271 684.6173 603.0421 685.5793 600.2921 C 686.0043 599.0761 686.3443 597.8431 686.6393 596.6021 C 655.7443 597.4661 624.8493 598.3041 593.9383 598.3211 C 593.2783 598.3221 592.6263 598.2861 591.9813 598.2211 C 591.6083 598.9441 591.1803 599.6711 590.7053 600.4171 C 583.6613 611.4681 576.8713 622.7171 572.0083 635.1871 C 571.4073 636.7271 570.3643 637.6591 569.3093 638.7061 C 560.4033 647.5481 554.0113 658.2211 550.1123 670.6901 C 549.3943 672.1081 549.7443 673.7321 549.3503 675.2461 C 548.4583 678.6801 550.0933 677.7181 551.6533 676.6751 C 553.1713 675.8211 553.6163 674.1151 554.2813 672.6061 C 555.6023 669.6071 557.5123 667.1611 559.9763 665.2581 C 564.2373 661.9661 567.1513 662.7031 570.7643 666.8061 C 576.1413 672.9121 575.7373 683.3201 572.6103 691.0761 C 571.9923 692.9071 572.8953 693.3501 574.3163 693.3521 C 575.5256 693.3533 576.73484 693.3543 577.9441 693.35515 L 577.9441 694.5332 L 676.5081 694.5332 Z" fill="black"/>
            </g>
            <g id="Graphic_1448">
              <path d="M 634.7149 629.5452 C 635.6629 629.2322 636.5899 628.8322 637.4779 628.3492 C 637.5949 628.1322 637.7209 627.9182 637.8639 627.7102 C 639.2799 625.6422 640.6419 623.5332 641.9339 621.3832 C 641.0749 621.0952 640.2819 620.6802 639.5749 620.1592 C 640.2729 623.9802 638.1659 627.8782 634.7149 629.5452 Z" fill="#444241"/>
            </g>
          </g>
        </g>
        <g id="Graphic_1445">
          <path d="M 663.1752 507.7803 C 668.51624 494.69446 677.3293 487.4831 677.3293 487.4831 C 686.1436 480.273 690.6825 480.5391 692.8202 486.14753 C 694.9566 491.75594 701.0997 516.0586 684.5406 531.8169 Z" fill="#030303"/>
        </g>
        <g id="Graphic_1444">
          <path d="M 664.4246 511.84584 C 668.7139 501.33737 675.79095 495.54776 675.79095 495.54776 C 682.868 489.7569 686.5136 489.97103 688.2293 494.4745 C 689.9463 498.97793 694.878 518.4933 681.5818 531.1458 Z" fill="#f4c9d7"/>
        </g>
        <g id="Graphic_1443">
          <path d="M 616.1861 507.7803 C 610.8451 494.69446 602.03204 487.4831 602.03204 487.4831 C 593.21774 480.273 588.6788 480.5391 586.5411 486.14753 C 584.4047 491.75594 578.2616 516.0586 594.8207 531.8169 Z" fill="#030303"/>
        </g>
        <g id="Graphic_1442">
          <path d="M 614.9367 511.84584 C 610.6474 501.33737 603.57036 495.54776 603.57036 495.54776 C 596.4933 489.7569 592.8477 489.97103 591.132 494.4745 C 589.415 498.97793 584.4833 518.4933 597.7795 531.1458 Z" fill="#f4c9d7"/>
        </g>
        <g id="Graphic_1441">
          <path d="M 682.3043 589.1241 C 682.051 587.4972 681.3094 585.90225 680.5071 584.3625 C 679.7291 582.23094 679.2371 579.9697 678.52694 577.8392 C 677.8071 575.68315 677.0545 573.53456 676.3068 571.386 C 678.1561 569.502 679.5328 567.2524 680.2005 564.7107 C 681.61355 559.3413 682.4219 553.701 681.6196 548.21476 C 681.8244 546.5178 682.0171 544.8229 682.1189 543.1355 C 682.69574 533.639 680.249 524.95853 673.116 517.668 C 666.35744 510.76 655.4289 509.0311 645.7631 507.9696 C 644.90025 507.875 644.0362 507.80805 643.1709 507.7528 C 637.4497 505.8709 631.222 505.0474 625.2136 504.94964 C 619.17246 504.8519 613.68516 507.33307 609.9611 511.16164 C 607.13505 512.2285 604.49805 513.77884 602.2343 515.8127 C 593.71855 523.46345 592.0971 534.726 590.63316 544.9855 C 589.471 551.71605 587.4266 558.3531 585.9093 565.0231 C 583.55226 575.392 581.61934 586.0808 582.0641 596.68134 C 582.46764 606.31706 590.9373 614.3748 602.24156 614.3748 C 606.2286 614.3748 610.1041 613.2548 613.3749 611.3506 C 616.0919 612.5567 619.1458 613.2527 622.356 613.28564 C 631.1638 613.37596 639.9377 614.78285 648.76245 614.9656 C 654.3358 615.0804 660.5405 614.989 665.8182 613.39615 C 671.7502 611.6046 676.445 608.82694 679.86605 604.1228 C 683.2956 599.4069 683.1235 594.3861 682.3043 589.1241 Z" fill="#333"/>
        </g>
        <g id="Graphic_1440">
          <path d="M 691.3797 551.4543 C 689.4739 539.6115 685.6243 527.0781 678.3242 517.40724 C 673.8867 511.52766 668.9613 506.4603 662.4456 502.81474 C 655.4826 498.9195 647.9228 497.36726 640.1133 496.389 C 634.1907 495.64647 628.1058 496.11405 622.3149 497.5662 C 615.79164 499.2021 610.5304 502.5664 605.33005 506.62886 C 596.77045 513.31434 591.6562 524.24605 588.3388 534.29075 C 584.8111 544.9703 583.4996 556.4684 582.6671 567.632 C 581.922 577.6311 581.9207 587.6745 582.0943 597.69514 C 582.20076 603.83575 582.4263 609.97636 582.41744 616.1195 C 582.4035 624.78935 589.66174 632.0248 598.3227 632.0248 C 604.2124 632.0248 609.4217 628.6909 612.1701 623.8415 C 613.3777 624.1545 614.5752 624.5093 615.7498 624.9566 C 619.0609 626.2149 622.8636 623.58935 623.7354 620.4215 C 624.7415 616.7645 622.505 613.6929 619.20154 612.4359 C 617.56945 611.815 615.89555 611.3639 614.20644 610.97234 C 614.06705 594.2181 613.289 577.5082 615.0998 560.7856 C 615.13906 560.4295 615.2062 559.8758 615.2759 559.32457 C 615.3874 558.57315 615.4951 557.8192 615.61804 557.06904 C 616.0375 554.5018 616.5532 551.951 617.1475 549.41925 C 617.6759 547.1713 618.3057 544.9462 619.01274 542.7477 C 619.3549 541.6846 619.73375 540.6341 620.12656 539.5887 C 620.1405 539.5494 620.157 539.51014 620.1722 539.47086 C 620.18485 539.44425 620.1975 539.4164 620.2089 539.391 C 621.0807 537.5017 622.09065 535.6808 623.2045 533.92454 C 623.34006 533.7104 623.48705 533.50385 623.6277 533.2935 C 624.0598 532.7651 624.6161 532.0935 624.9823 531.7083 C 625.4955 531.1685 626.04035 530.6629 626.5954 530.1687 C 627.3582 529.6593 628.1565 529.20694 628.9662 528.7799 C 629.88615 528.46566 630.82765 528.21856 631.77294 527.99935 C 631.9047 527.96894 632.0365 527.9436 632.1683 527.917 C 634.1894 527.77 636.2206 527.827 638.23794 528.0006 C 638.5446 528.05764 638.8525 528.1159 639.15916 528.1755 C 640.553 528.4441 641.9317 528.7926 643.30274 529.16006 C 643.8083 529.29564 644.3063 529.4515 644.8043 529.6099 C 645.5519 529.9482 646.8026 530.51084 647.4172 530.8707 C 647.8087 531.10006 648.4233 531.52836 648.94916 531.90344 C 649.3749 532.2899 649.7918 532.6878 650.2024 533.09076 C 650.8423 533.718 651.43784 534.3883 652.0207 535.0688 C 652.3388 535.53 652.64924 535.99506 652.9521 536.4652 C 654.16475 538.34436 655.1975 540.3338 656.1377 542.3612 C 656.3024 542.7933 656.4684 543.2254 656.6268 543.6588 C 657.1704 545.1464 657.6431 546.6594 658.0929 548.1787 C 658.8887 550.8727 659.5172 553.6148 660.0684 556.3683 C 660.351 557.78244 660.5917 559.2029 660.8211 560.6272 C 660.8553 560.84515 660.8857 561.0631 660.9187 561.28105 C 660.963 561.6232 661.0061 561.9552 661.034 562.1972 C 661.74104 568.3226 662.0173 574.4949 662.068 580.6583 C 662.1415 589.8768 661.6029 599.1042 660.62595 608.2733 C 659.47664 609.3149 658.4591 610.5529 657.619 611.98606 C 653.3652 619.2494 655.6879 629.66534 663.325 633.7481 C 668.59 636.5624 673.2303 637.5863 679.1162 636.2659 C 683.9897 635.17364 689.427 630.2647 690.22404 625.1581 C 694.0458 600.7084 695.3256 575.9749 691.3797 551.4543 Z" fill="#000302"/>
        </g>
        <g id="Graphic_1439">
          <path d="M 649.4096 612.8108 L 649.7755 602.62184 L 619.7985 600.0026 L 619.423 610.4597 C 619.4258 610.4601 619.4286 610.4604 619.4314 610.4608 C 619.4059 616.11274 625.4133 621.2043 633.3133 622.0346 C 641.4589 622.8907 648.5783 618.8971 649.3886 613.07844 C 649.3924 613.0786 649.3962 613.0788 649.4 613.079 L 649.4043 612.95936 C 649.41035 612.91036 649.416 612.86124 649.42116 612.812 Z" fill="#d2b9a4"/>
        </g>
        <g id="Group_1405">
          <g id="Graphic_1438">
            <path d="M 673.8032 565.14395 C 673.7664 586.1419 663.50124 604.65496 637.1255 606.1958 C 610.1872 607.7734 597.8654 586.0101 597.9009 565.0122 C 597.9376 544.0142 614.958 527.0205 635.9179 527.0572 C 656.87785 527.09397 673.8399 544.146 673.8032 565.14395 Z" fill="#ffddaf"/>
          </g>
          <g id="Graphic_1437">
            <path d="M 668.8552 577.68304 C 676.7698 578.8311 676.1008 568.35555 676.1008 568.35555 L 672.5147 563.8635 Z" fill="#ffddaf"/>
          </g>
          <g id="Graphic_1436">
            <path d="M 602.80614 577.5686 C 594.8877 578.6888 595.5935 568.2158 595.5935 568.2158 L 599.1935 563.7364 Z" fill="#ffddaf"/>
          </g>
          <g id="Graphic_1435">
            <path d="M 633.39515 542.6485 C 623.09195 564.4625 595.5479 569.9898 595.5479 569.9898 C 584.5579 517.8846 635.9345 517.9733 635.9345 517.9733 C 682.31855 518.0544 680.47484 567.5467 677.09916 570.13044 C 652.19965 565.39384 633.39515 542.6485 633.39515 542.6485 Z" fill="#ff6530"/>
          </g>
          <g id="Graphic_1434">
            <path d="M 662.3726 577.43265 C 662.3726 577.7634 662.1521 578.032 661.8809 578.03074 C 661.6085 578.0295 661.3893 577.7621 661.3893 577.4314 C 661.39055 577.10066 661.611 576.832 661.8822 576.8333 C 662.1534 576.8333 662.3726 577.1019 662.3726 577.43265 Z" fill="#dca380"/>
          </g>
          <g id="Graphic_1433">
            <path d="M 610.7897 577.3432 C 610.7897 577.6739 611.0089 577.94255 611.2801 577.94255 C 611.55125 577.9438 611.7717 577.6752 611.773 577.34446 C 611.773 577.0137 611.5538 576.74636 611.28135 576.7451 C 611.0102 576.7451 610.7897 577.01246 610.7897 577.3432 Z" fill="#dca380"/>
          </g>
          <g id="Group_1426">
            <g id="Graphic_1432">
              <path d="M 596.1716 568.0863 C 593.66644 577.12106 596.1716 584.02576 596.1716 584.02576 C 592.73 590.9292 596.2261 597.6261 596.2261 597.6261 C 593.43075 603.5335 596.2413 609.185 596.2413 609.185 L 599.83366 609.44986 C 604.9251 600.5228 601.48856 597.79715 601.48856 597.79715 C 606.0655 588.3784 601.5139 582.5318 601.5139 582.5318 C 605.95146 568.5526 603.5401 568.474 603.5401 568.474 Z" fill="#ff6530"/>
            </g>
            <g id="Graphic_1431">
              <path d="M 595.3411 609.1829 L 600.50474 609.19174 L 600.5022 610.4804 L 595.3386 610.47156 Z" fill="#722645"/>
            </g>
            <g id="Graphic_1430">
              <path d="M 600.08874 611.0732 C 602.6623 616.0176 599.815 620.2474 599.815 620.2474 C 596.96775 624.4771 598.259 624.244 597.99794 625.4199 C 597.7382 626.5958 590.00856 617.35954 595.9578 611.0656 Z" fill="#ff6530"/>
            </g>
            <g id="Graphic_1429">
              <path d="M 596.1716 568.0863 C 593.66644 577.12106 596.1716 584.02576 596.1716 584.02576 C 592.73 590.9292 596.2261 597.6261 596.2261 597.6261 C 593.43075 603.5335 596.2413 609.185 596.2413 609.185 L 599.83366 609.44986 C 604.9251 600.5228 601.48856 597.79715 601.48856 597.79715 C 606.0655 588.3784 601.5139 582.5318 601.5139 582.5318 C 605.95146 568.5526 603.5401 568.474 603.5401 568.474 Z" fill="#ff6530"/>
            </g>
            <g id="Graphic_1428">
              <path d="M 595.3411 609.1829 L 600.50474 609.19174 L 600.5022 610.4804 L 595.3386 610.47156 Z" fill="#722645"/>
            </g>
            <g id="Graphic_1427">
              <path d="M 600.08874 611.0732 C 602.6623 616.0176 599.815 620.2474 599.815 620.2474 C 596.96775 624.4771 598.259 624.244 597.99794 625.4199 C 597.7382 626.5958 590.00856 617.35954 595.9578 611.0656 Z" fill="#ff6530"/>
            </g>
          </g>
          <g id="Group_1419">
            <g id="Graphic_1425">
              <path d="M 669.70255 570.5907 C 667.1974 579.62545 669.70255 586.53015 669.70255 586.53015 C 666.261 593.4336 669.757 600.1305 669.757 600.1305 C 666.963 606.0379 669.7722 611.6894 669.7722 611.6894 L 673.3646 611.95425 C 678.456 603.0272 675.0195 600.30154 675.0195 600.30154 C 679.59645 590.8828 675.04485 585.0362 675.04485 585.0362 C 679.4824 571.057 677.071 570.9784 677.071 570.9784 Z" fill="#ff6530"/>
            </g>
            <g id="Graphic_1424">
              <path d="M 668.87206 611.6873 L 674.0357 611.6961 L 674.03316 612.9848 L 668.8695 612.97596 Z" fill="#722645"/>
            </g>
            <g id="Graphic_1423">
              <path d="M 673.6197 613.5776 C 676.1933 618.522 673.346 622.7518 673.346 622.7518 C 670.4987 626.9815 671.7899 626.74836 671.5289 627.9243 C 671.2691 629.1002 663.5395 619.8639 669.4888 613.57 Z" fill="#ff6530"/>
            </g>
            <g id="Graphic_1422">
              <path d="M 669.70255 570.5907 C 667.1974 579.62545 669.70255 586.53015 669.70255 586.53015 C 666.261 593.4336 669.757 600.1305 669.757 600.1305 C 666.963 606.0379 669.7722 611.6894 669.7722 611.6894 L 673.3646 611.95425 C 678.456 603.0272 675.0195 600.30154 675.0195 600.30154 C 679.59645 590.8828 675.04485 585.0362 675.04485 585.0362 C 679.4824 571.057 677.071 570.9784 677.071 570.9784 Z" fill="#ff6530"/>
            </g>
            <g id="Graphic_1421">
              <path d="M 668.87206 611.6873 L 674.0357 611.6961 L 674.03316 612.9848 L 668.8695 612.97596 Z" fill="#722645"/>
            </g>
            <g id="Graphic_1420">
              <path d="M 673.6197 613.5776 C 676.1933 618.522 673.346 622.7518 673.346 622.7518 C 670.4987 626.9815 671.7899 626.74836 671.5289 627.9243 C 671.2691 629.1002 663.5395 619.8639 669.4888 613.57 Z" fill="#ff6530"/>
            </g>
          </g>
          <g id="Graphic_1418">
            <path d="M 673.8032 565.14395 C 673.7664 586.1419 663.50124 604.65496 637.1255 606.1958 C 610.1872 607.7734 597.8654 586.0101 597.9009 565.0122 C 597.9376 544.0142 614.958 527.0205 635.9179 527.0572 C 656.87785 527.09397 673.8399 544.146 673.8032 565.14395 Z" fill="#fcdec3"/>
          </g>
          <g id="Graphic_1417">
            <path d="M 668.8552 577.68304 C 676.7698 578.8311 676.1008 568.35555 676.1008 568.35555 L 672.5147 563.8635 Z" fill="#fcdec3"/>
          </g>
          <g id="Graphic_1416">
            <path d="M 602.80614 577.5686 C 594.8877 578.6888 595.5935 568.2158 595.5935 568.2158 L 599.1935 563.7364 Z" fill="#fcdec3"/>
          </g>
          <g id="Graphic_1415">
            <path d="M 633.4984 532.28574 C 623.1952 552.05835 595.5473 565.1239 595.5473 565.1239 C 584.55854 517.89344 635.9339 517.9733 635.9339 517.9733 C 682.3192 518.04677 680.4755 562.90895 677.0998 565.2519 C 652.2003 560.95754 633.4984 532.28574 633.4984 532.28574 Z" fill="#ff6530"/>
          </g>
          <g id="Graphic_1414">
            <path d="M 610.7897 577.3432 C 610.7897 577.6739 611.0089 577.94255 611.2801 577.94255 C 611.55125 577.9438 611.7717 577.6752 611.773 577.34446 C 611.773 577.0137 611.5538 576.74636 611.28135 576.7451 C 611.0102 576.7451 610.7897 577.01246 610.7897 577.3432 Z" fill="#dca380"/>
          </g>
          <g id="Graphic_1413">
            <path d="M 663.2093 565.053 L 659.76264 565.16955 L 659.6486 561.97506 C 659.54596 561.31615 658.9504 560.8663 658.3181 560.9702 C 657.79476 561.0564 657.3956 561.5024 657.35 562.05236 L 657.464 565.2481 L 654.0174 565.3647 C 653.4497 565.31654 652.95424 565.7575 652.91116 566.348 C 652.8681 566.9385 653.2926 567.45676 653.86025 567.5049 C 653.93755 567.51124 654.0161 567.5087 654.0934 567.49604 L 657.54006 567.37946 L 657.6554 570.5752 C 657.75674 571.23286 658.3523 571.684 658.98334 571.58006 C 659.50794 571.4939 659.9071 571.04786 659.9527 570.4979 L 659.8387 567.30216 L 663.2853 567.1843 C 663.853 567.2325 664.34846 566.7928 664.39154 566.201 C 664.4346 565.6105 664.0101 565.0935 663.44244 565.0454 C 663.36515 565.039 663.2866 565.0416 663.2093 565.053 Z" fill="#000100"/>
          </g>
          <g id="Graphic_1412">
            <path d="M 658.669 553.5944 C 659.556 552.3779 661.994 552.75933 664.1139 554.44464 C 666.23385 556.1312 666.7052 557.32614 666.3466 559.6995 C 665.9893 562.07416 664.6284 558.33226 662.5072 556.64695 C 660.3872 554.96164 657.78196 554.81085 658.669 553.5944 Z" fill="#212121"/>
          </g>
          <g id="Graphic_1411">
            <path d="M 609.8495 557.5502 C 612.4243 557.46274 614.671 561.8724 614.86865 567.3985 C 615.0663 572.9258 613.14026 577.4761 610.5654 577.56355 C 607.99056 577.651 605.7426 573.2413 605.54496 567.71525 C 605.3473 562.18795 607.2746 557.6376 609.8495 557.5502 Z" fill="#222929"/>
          </g>
          <g id="Graphic_1410">
            <path d="M 615.4106 565.10176 C 615.43975 566.40185 614.7327 567.4713 613.833 567.4878 C 612.9333 567.50554 612.18064 566.46394 612.1528 565.16385 C 612.1236 563.8625 612.8294 562.7943 613.7291 562.7778 C 614.63005 562.76006 615.3815 563.80166 615.4106 565.10176 Z" fill="white"/>
          </g>
          <g id="Graphic_1409">
            <path d="M 602.6778 549.8529 C 602.9439 548.2753 605.24756 546.5874 607.82494 546.08183 C 610.40106 545.57624 612.2739 546.4455 612.0091 548.0231 C 611.743 549.6007 609.91954 548.4324 607.3434 548.938 C 604.76604 549.4436 602.4117 551.4305 602.6778 549.8529 Z" fill="#212121"/>
          </g>
          <g id="Graphic_1408">
            <path d="M 651.93216 591.27436 C 654.4386 588.25474 656.01365 585.1059 656.61935 581.90506 L 615.66886 581.5566 C 616.00085 584.9855 617.6266 588.3789 620.4853 591.6076 C 623.7609 590.6142 627.5801 589.9806 631.6033 589.76645 C 638.54725 589.2216 645.7662 589.7563 651.93216 591.27436 Z" fill="#252525"/>
          </g>
          <g id="Graphic_1407">
            <path d="M 636.68555 597.3557 C 644.2821 597.4203 648.963 594.5515 652.0054 591.2746 C 645.8369 589.7604 638.61796 589.2282 631.6765 589.7781 C 627.67105 589.99606 623.8683 590.6284 620.60795 591.6193 C 623.5718 594.68705 628.5492 597.28724 636.68555 597.3557 Z" fill="#c54d3f"/>
          </g>
          <g id="Graphic_1406">
            <path d="M 653.2709 582.04964 L 653.2646 582.8619 L 653.262 582.87455 C 653.21515 584.6828 645.5996 586.0792 636.2239 585.99934 C 626.84955 585.9195 619.26186 584.3913 619.2454 582.58564 L 619.2441 582.573 L 619.25046 581.7607 Z" fill="white"/>
          </g>
        </g>
      </g>
    </g>
  </g>
</svg>
