<?xml version="1.0" encoding="UTF-8" standalone="no"?>
<!DOCTYPE svg PUBLIC "-//W3C//DTD SVG 1.1//EN" "http://www.w3.org/Graphics/SVG/1.1/DTD/svg11.dtd">
<svg xmlns:dc="http://purl.org/dc/elements/1.1/" xmlns:xl="http://www.w3.org/1999/xlink" version="1.1" xmlns="http://www.w3.org/2000/svg" viewBox="303 468 227.96434 216.35668" width="227.96434" height="216.35668">
  <defs/>
  <metadata> Produced by OmniGraffle 7.7.1 
    <dc:date>2018-03-10 18:13:22 +0000</dc:date>
  </metadata>
  <g id="Canvas_1" fill-opacity="1" stroke-dasharray="none" stroke="none" stroke-opacity="1" fill="none">
    <title>Canvas 1</title>
    <g id="Canvas_1: Layer 1">
      <title>Layer 1</title>
      <g id="Group_965">
        <g id="Graphic_979">
          <path d="M 498.2688 628.4944 C 502.1488 626.1434 506.0298 623.7924 509.9098 621.4414 C 511.3678 621.8484 513.5038 620.6194 513.9528 623.4604 C 510.5498 622.7534 508.1638 624.9594 505.5788 626.8124 C 503.7818 628.1004 502.1848 629.8754 499.9188 630.2694 C 500.8108 628.0604 498.8008 629.1054 498.2688 628.4944 Z" fill="#2e2f2d"/>
        </g>
        <g id="Graphic_978">
          <path d="M 521.7419 622.5023 C 525.2299 620.8313 528.7089 619.1683 528.7689 614.0443 C 528.8469 607.4103 524.2819 600.9273 518.3759 599.2683 C 513.9329 598.0203 509.6529 598.8793 505.4089 600.3603 C 504.3829 600.7093 503.2159 601.4853 502.9919 599.3993 C 510.3369 595.1763 517.7709 594.0683 524.9729 599.4953 C 532.6759 605.2973 532.9829 618.8453 525.7109 623.4723 C 524.5369 624.0383 523.1939 624.4423 522.0399 624.4863 C 520.0279 624.5603 520.9199 623.3653 521.7419 622.5023 Z" fill="#181817"/>
        </g>
        <g id="Graphic_977">
          <path d="M 521.7419 622.5023 C 521.6939 623.1293 520.8249 624.1993 522.4069 623.9383 C 523.5039 623.7563 524.6089 623.6253 525.7109 623.4723 C 521.7889 626.7373 517.8719 623.8983 513.9529 623.4603 C 513.0079 621.8153 510.7289 623.3913 509.9099 621.4413 C 510.6689 620.2313 512.0479 618.9963 509.5129 618.1833 C 508.5489 617.8733 507.6949 617.1433 506.7909 616.6063 C 505.9179 616.0873 505.9049 615.1833 506.2989 614.4603 C 506.7399 613.6513 507.3029 614.2333 507.8949 614.5693 C 509.9739 615.7513 512.2469 616.0503 514.4949 615.8303 C 515.0669 617.2073 512.6679 618.7363 514.7209 619.5613 C 517.8319 620.8113 520.5649 619.4693 522.8429 617.0293 C 524.0889 619.5533 519.7979 620.0623 521.7419 622.5023 Z" fill="#252625"/>
        </g>
        <g id="Graphic_976">
          <path d="M 498.2688 628.4944 C 491.9428 628.0324 486.9278 623.1824 486.5388 617.1484 C 486.2208 612.2254 488.0128 609.5334 492.4108 608.2134 C 493.1288 607.9964 493.7828 607.5214 494.4668 607.1654 C 495.0878 606.7544 495.6368 606.2464 496.1188 605.6484 C 499.1098 603.1424 502.2268 600.8684 505.7558 599.3464 C 509.9538 597.4634 514.2168 596.9394 518.6538 598.2914 C 525.9548 600.5154 528.6968 605.6474 529.6148 613.5404 C 530.1298 617.9544 527.3848 621.1774 522.3038 623.0864 C 519.6478 622.5844 520.7518 620.9094 521.3598 619.3894 C 517.0178 621.8584 516.3378 621.7314 513.0728 617.7634 C 511.8338 616.2574 510.0178 616.5984 508.0318 615.6804 C 509.9118 617.7704 513.7728 618.6304 510.4788 622.2234 C 506.6568 624.8944 502.7298 627.3214 498.2688 628.4944 Z" fill="#fcfcfc"/>
        </g>
        <g id="Graphic_975">
          <path d="M 496.0953 606.506 C 495.6903 607.137 495.2103 607.544 494.4663 607.166 C 494.6373 606.407 495.1083 605.349 493.7043 605.722 C 492.1123 606.146 490.5643 606.781 488.8963 606.234 C 490.7633 604.96 492.9053 604.841 494.9903 604.484 C 495.6153 604.216 496.3683 604.028 496.7423 604.694 C 497.1273 605.382 496.5153 605.979 496.0953 606.506 Z" fill="#2f302f"/>
        </g>
        <g id="Graphic_974">
          <path d="M 499.9146 630.272 C 498.3996 631.99 496.5486 633.058 494.4636 633.673 C 495.8196 631.649 497.5566 630.361 499.9146 630.272 Z" fill="#2e2f2d"/>
        </g>
        <g id="Graphic_973">
          <path d="M 502.9921 599.3993 C 503.4841 600.6733 504.6021 600.0433 505.4091 600.3603 C 502.3051 602.4093 499.2001 604.4573 496.0951 606.5063 C 496.5531 605.2883 496.3031 604.5363 494.9901 604.4853 C 497.6581 602.7893 500.3251 601.0953 502.9921 599.3993 Z" fill="#3f4140"/>
        </g>
        <g id="Group_966">
          <g id="Graphic_972">
            <path d="M 311.8921 654.1014 C 311.18527 654.4076 310.45495 654.8576 309.7166 655.4577 C 305.3895 658.9744 302.42467 666.3126 303.09442 671.8481 C 303.4787 675.0243 304.9761 676.9169 307.00013 677.2889 C 307.00233 677.8208 307.0332 678.342 307.09442 678.8481 C 307.70663 683.9082 311.1439 685.7103 315.03492 683.29655 C 316.7372 684.8659 319.3137 684.73834 322.01007 682.6092 C 323.44202 682.7514 325.10865 682.1665 326.81844 680.7769 C 331.1455 677.2602 334.11036 669.922 333.4406 664.38646 C 333.1138 661.6854 331.982 659.91264 330.4059 659.21394 C 330.48646 658.21415 330.47606 657.23846 330.3641 656.3131 C 329.85225 652.0825 327.3655 650.12924 324.2899 651.0134 C 322.9501 647.2193 319.4354 646.4353 315.7166 649.4577 C 314.25795 650.64315 312.9541 652.26286 311.8921 654.1014 Z" fill="white"/>
          </g>
          <g id="Graphic_971">
            <path d="M 305.89927 657.6464 C 305.83027 659.1414 306.07027 660.7554 305.63227 662.1044 C 304.63627 665.1684 306.69727 663.3554 307.43927 663.6304 C 305.61827 665.7184 304.98427 668.2174 305.58727 670.9894 C 305.84127 672.1584 305.58327 674.8444 307.96527 672.5374 C 308.58227 671.9404 309.11827 672.5554 309.23027 673.4054 C 309.26727 673.6854 309.40427 674.0414 309.29927 674.2354 C 308.16127 676.3504 311.69527 678.6494 309.28927 680.4184 C 307.97327 681.3854 302.95727 676.0034 303.00027 673.1804 C 303.08127 667.8564 303.72327 662.5504 305.89927 657.6464 Z" fill="#2b2c2b"/>
          </g>
          <g id="Graphic_970">
            <path d="M 328.39697 678.0324 C 328.57297 679.8684 329.80597 679.7154 330.98497 679.7144 C 342.00397 679.7114 353.02397 679.6934 364.04397 679.7504 C 365.67697 679.7584 366.86397 679.5494 366.68097 677.3374 C 368.33697 679.1644 368.66397 680.5984 365.67497 680.5664 C 352.28797 680.4224 338.89697 681.0394 325.51097 680.2704 C 324.65797 680.2214 323.90397 680.4154 323.84497 679.3274 C 323.81097 678.7074 324.12697 677.7794 324.56597 677.4674 C 325.81497 676.5804 325.41697 678.2054 325.80097 678.6494 C 327.01197 680.0534 327.48297 677.9654 328.39697 678.0324 Z" fill="#383835"/>
          </g>
          <g id="Graphic_969">
            <path d="M 315.24807 677.5294 C 316.36707 677.4824 316.69307 678.0544 316.76007 678.7954 C 316.86207 679.9374 316.43507 680.6864 315.29607 680.7224 C 314.57907 680.7444 313.96907 680.4144 314.01407 679.5854 C 314.06907 678.5724 314.56707 677.7694 315.24807 677.5294 Z" fill="#9e9e9d"/>
          </g>
          <g id="Graphic_968">
            <path d="M 433.4443 601.4111 C 433.4113 601.3791 433.3803 601.3441 433.3473 601.3121 C 433.3873 601.1521 433.4073 600.9851 433.4443 600.8241 C 433.4893 600.8991 433.5273 600.9641 433.5773 601.0491 C 433.5293 601.1691 433.4903 601.2911 433.4443 601.4111 M 431.50813 679.41336 C 431.86886 679.41455 432.2296 679.4155 432.5903 679.4161 C 439.7193 679.4291 439.7193 679.4061 441.3623 672.0541 C 442.9733 670.4861 442.3263 668.3481 442.5043 666.4361 C 442.7403 663.9191 443.2773 661.7081 445.6413 660.5351 C 455.1733 655.8031 464.6483 651.0031 473.7803 645.3101 C 480.2823 641.2561 487.0533 637.6591 493.6003 633.6371 C 495.3183 632.1651 497.0733 630.7661 499.0963 629.8391 C 499.4013 629.5921 499.6553 629.2921 499.8493 628.9351 C 500.2753 626.5461 498.5213 626.8911 497.3333 626.5361 C 492.8873 626.3811 489.8033 623.9031 487.8233 619.6751 C 485.5323 614.7821 486.9143 610.5591 491.4853 608.3051 C 492.5483 607.7811 493.6453 607.3431 494.3043 606.1941 C 495.0983 604.0681 493.7893 603.7451 492.4453 603.8721 C 490.9553 604.0131 489.4753 604.2431 487.9763 604.1891 C 483.3853 604.8501 478.7903 605.6811 474.2923 606.7381 C 468.0363 608.2081 461.8273 608.6521 455.4803 608.4431 C 447.6073 608.1831 441.5673 604.7161 437.5673 597.1381 C 437.0443 596.1471 436.7553 595.0951 437.4003 594.3961 C 439.4903 592.1271 439.6173 589.0421 440.5793 586.2921 C 441.0043 585.0761 441.3443 583.8431 441.6393 582.6021 C 410.7443 583.4661 379.8493 584.3041 348.9383 584.3211 C 348.2783 584.3221 347.6263 584.2861 346.9813 584.2211 C 346.6083 584.9441 346.1803 585.6711 345.7053 586.4171 C 338.6613 597.4681 331.8713 608.7171 327.0083 621.1871 C 326.4073 622.7271 325.3643 623.6591 324.3093 624.7061 C 315.4033 633.5481 309.0113 644.2211 305.1123 656.6901 C 304.3943 658.1081 304.7443 659.7321 304.3503 661.2461 C 303.4583 664.6801 305.0933 663.7181 306.6533 662.6751 C 308.1713 661.8211 308.6163 660.1151 309.2813 658.6061 C 310.6023 655.6071 312.5123 653.1611 314.9763 651.2581 C 319.2373 647.9661 322.1513 648.7031 325.7643 652.8061 C 331.1413 658.9121 330.7373 669.3201 327.6103 677.0761 C 326.9923 678.9071 327.8953 679.3501 329.3163 679.3521 C 330.52557 679.3533 331.73484 679.3543 332.9441 679.35515 L 332.9441 680.5332 L 431.5081 680.5332 Z" fill="black"/>
          </g>
          <g id="Graphic_967">
            <path d="M 389.71487 615.5452 C 390.66287 615.2322 391.58987 614.8322 392.47787 614.3492 C 392.59487 614.1322 392.72087 613.9182 392.86387 613.7102 C 394.27987 611.6422 395.64187 609.5332 396.93387 607.3832 C 396.07487 607.0952 395.28187 606.6802 394.57487 606.1592 C 395.27287 609.9802 393.16587 613.8782 389.71487 615.5452 Z" fill="#444241"/>
          </g>
        </g>
      </g>
      <g id="Graphic_964">
        <path d="M 418.1752 493.7803 C 423.51624 480.69446 432.32927 473.4831 432.32927 473.4831 C 441.14357 466.273 445.6825 466.5391 447.8202 472.14753 C 449.9566 477.75594 456.09974 502.0586 439.5406 517.8169 Z" fill="#030303"/>
      </g>
      <g id="Graphic_963">
        <path d="M 419.4246 497.84584 C 423.7139 487.33737 430.79095 481.54776 430.79095 481.54776 C 437.868 475.7569 441.5136 475.97103 443.2293 480.4745 C 444.9463 484.97793 449.87803 504.4933 436.5818 517.1458 Z" fill="#f4c9d7"/>
      </g>
      <g id="Graphic_962">
        <path d="M 371.1861 493.7803 C 365.84507 480.69446 357.03204 473.4831 357.03204 473.4831 C 348.21774 466.273 343.6788 466.5391 341.54113 472.14753 C 339.4047 477.75594 333.26157 502.0586 349.8207 517.8169 Z" fill="#030303"/>
      </g>
      <g id="Graphic_961">
        <path d="M 369.9367 497.84584 C 365.6474 487.33737 358.57036 481.54776 358.57036 481.54776 C 351.49333 475.7569 347.84773 475.97103 346.132 480.4745 C 344.41502 484.97793 339.48328 504.4933 352.7795 517.1458 Z" fill="#f4c9d7"/>
      </g>
      <g id="Graphic_960">
        <path d="M 437.3043 575.1241 C 437.05103 573.4972 436.30937 571.90225 435.5071 570.3625 C 434.7291 568.23094 434.2371 565.9697 433.52694 563.8392 C 432.8071 561.68315 432.05453 559.53456 431.3068 557.386 C 433.1561 555.502 434.5328 553.2524 435.2005 550.7107 C 436.61355 545.3413 437.42186 539.701 436.6196 534.21476 C 436.8244 532.5178 437.0171 530.8229 437.1189 529.1355 C 437.69574 519.639 435.249 510.95853 428.116 503.668 C 421.35744 496.76 410.4289 495.0311 400.7631 493.96957 C 399.90025 493.875 399.0362 493.80805 398.17092 493.7528 C 392.44973 491.8709 386.222 491.0474 380.2136 490.94964 C 374.17246 490.8519 368.68516 493.33307 364.9611 497.16164 C 362.13505 498.2285 359.49805 499.77884 357.2343 501.8127 C 348.71855 509.46345 347.0971 520.726 345.63316 530.9855 C 344.471 537.71605 342.42657 544.3531 340.90932 551.0231 C 338.55226 561.392 336.61934 572.0808 337.0641 582.68134 C 337.46764 592.31706 345.93733 600.3748 357.24156 600.3748 C 361.2286 600.3748 365.1041 599.2548 368.3749 597.3506 C 371.0919 598.5567 374.1458 599.2527 377.356 599.28564 C 386.1638 599.37596 394.9377 600.78285 403.76245 600.9656 C 409.3358 601.0804 415.5405 600.989 420.81817 599.39615 C 426.7502 597.6046 431.44497 594.82694 434.86605 590.1228 C 438.2956 585.4069 438.12353 580.3861 437.3043 575.1241 Z" fill="#333"/>
      </g>
      <g id="Graphic_959">
        <path d="M 446.3797 537.4543 C 444.4739 525.6115 440.6243 513.0781 433.32424 503.40724 C 428.8867 497.52766 423.96126 492.4603 417.4456 488.81474 C 410.4826 484.9195 402.92277 483.36726 395.1133 482.389 C 389.19066 481.64647 383.1058 482.11405 377.31493 483.5662 C 370.79164 485.2021 365.53043 488.5664 360.33005 492.62886 C 351.77045 499.31434 346.65623 510.24605 343.33883 520.29075 C 339.8111 530.9703 338.4996 542.4684 337.66707 553.632 C 336.922 563.6311 336.9207 573.6745 337.0943 583.69514 C 337.20076 589.83575 337.4263 595.97636 337.41744 602.1195 C 337.4035 610.78935 344.66174 618.0248 353.3227 618.0248 C 359.21242 618.0248 364.4217 614.6909 367.17013 609.8415 C 368.3777 610.1545 369.5752 610.5093 370.74983 610.9566 C 374.0609 612.2149 377.8636 609.58935 378.7354 606.4215 C 379.74152 602.7645 377.505 599.6929 374.20154 598.4359 C 372.56945 597.815 370.89555 597.3639 369.20644 596.97234 C 369.06705 580.2181 368.289 563.5082 370.0998 546.7856 C 370.13906 546.4295 370.2062 545.8758 370.2759 545.32457 C 370.3874 544.57315 370.49513 543.8192 370.61804 543.06904 C 371.03747 540.5018 371.5532 537.951 372.1475 535.41925 C 372.6759 533.1713 373.30567 530.9462 374.01274 528.7477 C 374.35487 527.68457 374.73375 526.6341 375.12656 525.5887 C 375.1405 525.5494 375.15697 525.51014 375.1722 525.47086 C 375.18485 525.44425 375.19752 525.4164 375.20893 525.391 C 376.08073 523.5017 377.09065 521.6808 378.20447 519.92454 C 378.34006 519.7104 378.48705 519.50385 378.6277 519.2935 C 379.0598 518.7651 379.61608 518.0935 379.9823 517.7083 C 380.4955 517.1685 381.04035 516.6629 381.59536 516.1687 C 382.3582 515.6593 383.1565 515.20694 383.9662 514.7799 C 384.88615 514.46566 385.82765 514.21856 386.77294 513.99935 C 386.90472 513.96894 387.0365 513.9436 387.1683 513.917 C 389.1894 513.77 391.22064 513.827 393.23794 514.0006 C 393.5446 514.05764 393.8525 514.1159 394.15916 514.1755 C 395.55302 514.4441 396.9317 514.7926 398.30274 515.16006 C 398.80833 515.29564 399.3063 515.4515 399.8043 515.6099 C 400.55193 515.9482 401.8026 516.51084 402.4172 516.8707 C 402.80873 517.10006 403.4233 517.52836 403.94916 517.90344 C 404.3749 518.2899 404.7918 518.6878 405.20237 519.09076 C 405.8423 519.718 406.43784 520.3883 407.02073 521.0688 C 407.3388 521.53 407.64924 521.99506 407.9521 522.4652 C 409.16475 524.34436 410.1975 526.3338 411.1377 528.3612 C 411.30243 528.7933 411.46843 529.2254 411.6268 529.6588 C 412.17043 531.1464 412.6431 532.6594 413.0929 534.1787 C 413.8887 536.8727 414.5172 539.6148 415.0684 542.3683 C 415.351 543.78244 415.59174 545.2029 415.8211 546.6272 C 415.8553 546.84515 415.8857 547.0631 415.91866 547.28105 C 415.963 547.6232 416.0061 547.9552 416.03397 548.1972 C 416.74104 554.3226 417.0173 560.4949 417.06797 566.6583 C 417.14146 575.8768 416.6029 585.1042 415.62595 594.2733 C 414.47664 595.3149 413.4591 596.5529 412.619 597.98606 C 408.3652 605.2494 410.68787 615.66534 418.325 619.7481 C 423.59 622.56244 428.2303 623.5863 434.1162 622.2659 C 438.98966 621.17364 444.427 616.2647 445.22404 611.1581 C 449.04577 586.7084 450.3256 561.9749 446.3797 537.4543 Z" fill="#000302"/>
      </g>
      <g id="Graphic_958">
        <path d="M 404.4096 598.8108 L 404.7755 588.62184 L 374.79853 586.0026 L 374.423 596.4597 C 374.4258 596.4601 374.4286 596.4604 374.4314 596.4608 C 374.4059 602.11274 380.41327 607.2043 388.31327 608.0346 C 396.4589 608.8907 403.57834 604.8971 404.3886 599.07844 C 404.3924 599.0786 404.3962 599.0788 404.4 599.079 L 404.4043 598.95936 C 404.41035 598.91036 404.416 598.86124 404.42116 598.812 Z" fill="#d2b9a4"/>
      </g>
      <g id="Graphic_957">
        <path d="M 428.80317 551.14395 C 428.7664 572.1419 418.50124 590.65496 392.1255 592.1958 C 365.18716 593.7734 352.8654 572.0101 352.90088 551.0122 C 352.93762 530.0142 369.958 513.0205 390.9179 513.0572 C 411.87785 513.09397 428.8399 530.146 428.80317 551.14395 Z" fill="#ffddaf"/>
      </g>
      <g id="Graphic_956">
        <path d="M 423.8552 563.68304 C 431.7698 564.8311 431.10077 554.35555 431.10077 554.35555 L 427.51473 549.8635 Z" fill="#ffddaf"/>
      </g>
      <g id="Graphic_955">
        <path d="M 357.80614 563.5686 C 349.8877 564.6888 350.59352 554.2158 350.59352 554.2158 L 354.1935 549.7364 Z" fill="#ffddaf"/>
      </g>
      <g id="Graphic_954">
        <path d="M 388.39515 528.6485 C 378.09195 550.4625 350.5479 555.9898 350.5479 555.9898 C 339.5579 503.8846 390.9345 503.9733 390.9345 503.9733 C 437.31855 504.0544 435.47484 553.5467 432.09916 556.13044 C 407.19965 551.39384 388.39515 528.6485 388.39515 528.6485 Z" fill="#ff6530"/>
      </g>
      <g id="Graphic_953">
        <path d="M 417.3726 563.43265 C 417.3726 563.7634 417.1521 564.032 416.88094 564.03074 C 416.6085 564.0295 416.3893 563.7621 416.3893 563.4314 C 416.39055 563.10066 416.61103 562.832 416.8822 562.8333 C 417.15337 562.8333 417.3726 563.1019 417.3726 563.43265 Z" fill="#dca380"/>
      </g>
      <g id="Graphic_952">
        <path d="M 365.7897 563.3432 C 365.7897 563.6739 366.0089 563.94255 366.2801 563.94255 C 366.55125 563.9438 366.77174 563.6752 366.773 563.34446 C 366.773 563.0137 366.5538 562.74636 366.28135 562.7451 C 366.01018 562.7451 365.7897 563.01246 365.7897 563.3432 Z" fill="#dca380"/>
      </g>
      <g id="Group_945">
        <g id="Graphic_951">
          <path d="M 351.1716 554.0863 C 348.66644 563.12106 351.1716 570.02576 351.1716 570.02576 C 347.73 576.9292 351.2261 583.6261 351.2261 583.6261 C 348.43075 589.5335 351.2413 595.185 351.2413 595.185 L 354.83366 595.44986 C 359.92507 586.5228 356.48856 583.79715 356.48856 583.79715 C 361.0655 574.3784 356.5139 568.5318 356.5139 568.5318 C 360.95146 554.5526 358.54007 554.474 358.54007 554.474 Z" fill="#ff6530"/>
        </g>
        <g id="Graphic_950">
          <path d="M 350.3411 595.1829 L 355.50474 595.19174 L 355.5022 596.4804 L 350.33857 596.47156 Z" fill="#722645"/>
        </g>
        <g id="Graphic_949">
          <path d="M 355.08874 597.0732 C 357.6623 602.0176 354.81503 606.2474 354.81503 606.2474 C 351.96775 610.4771 353.25897 610.244 352.99794 611.4199 C 352.73817 612.5958 345.00856 603.35954 350.95783 597.0656 Z" fill="#ff6530"/>
        </g>
        <g id="Graphic_948">
          <path d="M 351.1716 554.0863 C 348.66644 563.12106 351.1716 570.02576 351.1716 570.02576 C 347.73 576.9292 351.2261 583.6261 351.2261 583.6261 C 348.43075 589.5335 351.2413 595.185 351.2413 595.185 L 354.83366 595.44986 C 359.92507 586.5228 356.48856 583.79715 356.48856 583.79715 C 361.0655 574.3784 356.5139 568.5318 356.5139 568.5318 C 360.95146 554.5526 358.54007 554.474 358.54007 554.474 Z" fill="#ff6530"/>
        </g>
        <g id="Graphic_947">
          <path d="M 350.3411 595.1829 L 355.50474 595.19174 L 355.5022 596.4804 L 350.33857 596.47156 Z" fill="#722645"/>
        </g>
        <g id="Graphic_946">
          <path d="M 355.08874 597.0732 C 357.6623 602.0176 354.81503 606.2474 354.81503 606.2474 C 351.96775 610.4771 353.25897 610.244 352.99794 611.4199 C 352.73817 612.5958 345.00856 603.35954 350.95783 597.0656 Z" fill="#ff6530"/>
        </g>
      </g>
      <g id="Group_938">
        <g id="Graphic_944">
          <path d="M 424.70255 556.5907 C 422.1974 565.62545 424.70255 572.53015 424.70255 572.53015 C 421.26097 579.4336 424.75703 586.1305 424.75703 586.1305 C 421.96297 592.0379 424.77224 597.6894 424.77224 597.6894 L 428.3646 597.95425 C 433.456 589.0272 430.0195 586.30154 430.0195 586.30154 C 434.59645 576.8828 430.04485 571.0362 430.04485 571.0362 C 434.4824 557.057 432.071 556.9784 432.071 556.9784 Z" fill="#ff6530"/>
        </g>
        <g id="Graphic_943">
          <path d="M 423.87206 597.6873 L 429.0357 597.69614 L 429.03316 598.9848 L 423.8695 598.97596 Z" fill="#722645"/>
        </g>
        <g id="Graphic_942">
          <path d="M 428.6197 599.5776 C 431.19327 604.522 428.346 608.7518 428.346 608.7518 C 425.4987 612.9815 426.7899 612.74836 426.5289 613.9243 C 426.2691 615.1002 418.5395 605.8639 424.4888 599.57 Z" fill="#ff6530"/>
        </g>
        <g id="Graphic_941">
          <path d="M 424.70255 556.5907 C 422.1974 565.62545 424.70255 572.53015 424.70255 572.53015 C 421.26097 579.4336 424.75703 586.1305 424.75703 586.1305 C 421.96297 592.0379 424.77224 597.6894 424.77224 597.6894 L 428.3646 597.95425 C 433.456 589.0272 430.0195 586.30154 430.0195 586.30154 C 434.59645 576.8828 430.04485 571.0362 430.04485 571.0362 C 434.4824 557.057 432.071 556.9784 432.071 556.9784 Z" fill="#ff6530"/>
        </g>
        <g id="Graphic_940">
          <path d="M 423.87206 597.6873 L 429.0357 597.69614 L 429.03316 598.9848 L 423.8695 598.97596 Z" fill="#722645"/>
        </g>
        <g id="Graphic_939">
          <path d="M 428.6197 599.5776 C 431.19327 604.522 428.346 608.7518 428.346 608.7518 C 425.4987 612.9815 426.7899 612.74836 426.5289 613.9243 C 426.2691 615.1002 418.5395 605.8639 424.4888 599.57 Z" fill="#ff6530"/>
        </g>
      </g>
      <g id="Graphic_937">
        <path d="M 428.80317 551.14395 C 428.7664 572.1419 418.50124 590.65496 392.1255 592.1958 C 365.18716 593.7734 352.8654 572.0101 352.90088 551.0122 C 352.93762 530.0142 369.958 513.0205 390.9179 513.0572 C 411.87785 513.09397 428.8399 530.146 428.80317 551.14395 Z" fill="#fcdec3"/>
      </g>
      <g id="Graphic_936">
        <path d="M 423.8552 563.68304 C 431.7698 564.8311 431.10077 554.35555 431.10077 554.35555 L 427.51473 549.8635 Z" fill="#fcdec3"/>
      </g>
      <g id="Graphic_935">
        <path d="M 357.80614 563.5686 C 349.8877 564.6888 350.59352 554.2158 350.59352 554.2158 L 354.1935 549.7364 Z" fill="#fcdec3"/>
      </g>
      <g id="Graphic_934">
        <path d="M 388.4984 518.28574 C 378.1952 538.05835 350.54727 551.1239 350.54727 551.1239 C 339.55854 503.89344 390.9339 503.9733 390.9339 503.9733 C 437.3192 504.04677 435.4755 548.90895 432.0998 551.2519 C 407.2003 546.95754 388.4984 518.28574 388.4984 518.28574 Z" fill="#ff6530"/>
      </g>
      <g id="Graphic_933">
        <path d="M 365.7897 563.3432 C 365.7897 563.6739 366.0089 563.94255 366.2801 563.94255 C 366.55125 563.9438 366.77174 563.6752 366.773 563.34446 C 366.773 563.0137 366.5538 562.74636 366.28135 562.7451 C 366.01018 562.7451 365.7897 563.01246 365.7897 563.3432 Z" fill="#dca380"/>
      </g>
      <g id="Graphic_932">
        <path d="M 418.2093 551.053 L 414.76264 551.16955 L 414.6486 547.97506 C 414.54596 547.31615 413.9504 546.8663 413.3181 546.9702 C 412.79476 547.0564 412.3956 547.5024 412.35 548.05236 L 412.46403 551.2481 L 409.0174 551.3647 C 408.4497 551.31654 407.95424 551.7575 407.91116 552.348 C 407.8681 552.9385 408.29257 553.45676 408.86025 553.5049 C 408.93755 553.51124 409.0161 553.5087 409.0934 553.49604 L 412.54006 553.37946 L 412.65537 556.5752 C 412.75674 557.23286 413.3523 557.684 413.98334 557.58006 C 414.50794 557.4939 414.9071 557.04786 414.9527 556.4979 L 414.83867 553.30216 L 418.2853 553.1843 C 418.853 553.2325 419.34846 552.7928 419.39154 552.201 C 419.4346 551.6105 419.01013 551.0935 418.44244 551.0454 C 418.36515 551.03903 418.2866 551.0416 418.2093 551.053 Z" fill="#000100"/>
      </g>
      <g id="Graphic_931">
        <path d="M 413.66896 539.5944 C 414.55597 538.3779 416.99396 538.75933 419.1139 540.44464 C 421.23385 542.1312 421.70523 543.32614 421.34663 545.6995 C 420.9893 548.07416 419.62837 544.33226 417.50716 542.64695 C 415.3872 540.96164 412.78196 540.81085 413.66896 539.5944 Z" fill="#212121"/>
      </g>
      <g id="Graphic_930">
        <path d="M 364.84947 543.5502 C 367.4243 543.46274 369.67097 547.8724 369.86865 553.39847 C 370.06633 558.9258 368.14026 563.4761 365.5654 563.56355 C 362.99056 563.651 360.74263 559.2413 360.54496 553.71525 C 360.3473 548.18795 362.2746 543.6376 364.84947 543.5502 Z" fill="#222929"/>
      </g>
      <g id="Graphic_929">
        <path d="M 370.4106 551.10176 C 370.43975 552.40185 369.7327 553.4713 368.833 553.4878 C 367.93333 553.50554 367.18064 552.46394 367.15277 551.16385 C 367.12362 549.8625 367.82943 548.7943 368.7291 548.7778 C 369.63005 548.76006 370.38147 549.80166 370.4106 551.10176 Z" fill="white"/>
      </g>
      <g id="Graphic_928">
        <path d="M 357.67778 535.8529 C 357.9439 534.2753 360.24756 532.5874 362.82494 532.08183 C 365.40106 531.57624 367.2739 532.4455 367.00907 534.0231 C 366.74297 535.6007 364.91954 534.4324 362.34343 534.938 C 359.76604 535.4436 357.41168 537.4305 357.67778 535.8529 Z" fill="#212121"/>
      </g>
      <g id="Group_925">
        <g id="Graphic_927">
          <path d="M 369.9173 571.27955 C 377.76225 572.994 399.8196 573.3633 408.1213 571.51066 C 405.9859 580.64086 373.81155 580.11714 369.9173 571.27955 Z" fill="#2b2a29"/>
        </g>
        <g id="Graphic_926">
          <path d="M 376.7946 579.0207 C 382.41102 579.84744 398.3346 580.098 404.3872 579.264 C 402.57224 583.5109 379.34426 583.15244 376.7946 579.0207 Z" fill="#2b2a29"/>
        </g>
      </g>
    </g>
  </g>
</svg>
