<?xml version="1.0" encoding="UTF-8" standalone="no"?>
<!DOCTYPE svg PUBLIC "-//W3C//DTD SVG 1.1//EN" "http://www.w3.org/Graphics/SVG/1.1/DTD/svg11.dtd">
<svg xmlns:dc="http://purl.org/dc/elements/1.1/" xmlns:xl="http://www.w3.org/1999/xlink" version="1.1" xmlns="http://www.w3.org/2000/svg" viewBox="292 228 227.96434 216.35668" width="227.96434" height="216.35668">
  <defs/>
  <metadata> Produced by OmniGraffle 7.7.1 
    <dc:date>2018-03-10 18:14:06 +0000</dc:date>
  </metadata>
  <g id="Canvas_1" fill-opacity="1" stroke-dasharray="none" stroke="none" stroke-opacity="1" fill="none">
    <title>Canvas 1</title>
    <g id="Canvas_1: Layer 1">
      <title>Layer 1</title>
      <g id="Group_1343">
        <g id="Group_1328">
          <g id="Graphic_1342">
            <path d="M 487.2688 388.49443 C 491.1488 386.14343 495.0298 383.79243 498.9098 381.44143 C 500.3678 381.84843 502.5038 380.61943 502.9528 383.46043 C 499.5498 382.75343 497.1638 384.95943 494.5788 386.81243 C 492.7818 388.10043 491.1848 389.87543 488.9188 390.26943 C 489.8108 388.06043 487.8008 389.10543 487.2688 388.49443 Z" fill="#2e2f2d"/>
          </g>
          <g id="Graphic_1341">
            <path d="M 510.7419 382.50233 C 514.2299 380.83133 517.7089 379.16833 517.7689 374.04433 C 517.8469 367.41033 513.2819 360.92733 507.3759 359.26833 C 502.9329 358.02033 498.6529 358.87933 494.4089 360.36033 C 493.3829 360.70933 492.2159 361.48533 491.9919 359.39933 C 499.3369 355.17633 506.7709 354.06833 513.9729 359.49533 C 521.6759 365.29733 521.9829 378.84533 514.7109 383.47233 C 513.5369 384.03833 512.1939 384.44233 511.0399 384.48633 C 509.0279 384.56033 509.9199 383.36533 510.7419 382.50233 Z" fill="#181817"/>
          </g>
          <g id="Graphic_1340">
            <path d="M 510.7419 382.50233 C 510.6939 383.12933 509.8249 384.19933 511.4069 383.93833 C 512.5039 383.75633 513.6089 383.62533 514.7109 383.47233 C 510.7889 386.73733 506.8719 383.89833 502.9529 383.46033 C 502.0079 381.81533 499.7289 383.39133 498.9099 381.44133 C 499.6689 380.23133 501.0479 378.99633 498.5129 378.18333 C 497.5489 377.87333 496.6949 377.14333 495.7909 376.60633 C 494.9179 376.08733 494.9049 375.18333 495.2989 374.46033 C 495.7399 373.65133 496.3029 374.23333 496.8949 374.56933 C 498.9739 375.75133 501.2469 376.05033 503.4949 375.83033 C 504.0669 377.20733 501.6679 378.73633 503.7209 379.56133 C 506.8319 380.81133 509.5649 379.46933 511.8429 377.02933 C 513.0889 379.55333 508.7979 380.06233 510.7419 382.50233 Z" fill="#252625"/>
          </g>
          <g id="Graphic_1339">
            <path d="M 487.2688 388.49443 C 480.9428 388.03243 475.9278 383.18243 475.5388 377.14843 C 475.2208 372.22543 477.0128 369.53343 481.4108 368.21343 C 482.1288 367.99643 482.7828 367.52143 483.4668 367.16543 C 484.0878 366.75443 484.6368 366.24643 485.1188 365.64843 C 488.1098 363.14243 491.2268 360.86843 494.7558 359.34643 C 498.9538 357.46343 503.2168 356.93943 507.6538 358.29143 C 514.9548 360.51543 517.6968 365.64743 518.6148 373.54043 C 519.1298 377.95443 516.3848 381.17743 511.3038 383.08643 C 508.6478 382.58443 509.7518 380.90943 510.3598 379.38943 C 506.0178 381.85843 505.3378 381.73143 502.0728 377.76343 C 500.8338 376.25743 499.0178 376.59843 497.0318 375.68043 C 498.9118 377.77043 502.7728 378.63043 499.4788 382.22343 C 495.6568 384.89443 491.7298 387.32143 487.2688 388.49443 Z" fill="#fcfcfc"/>
          </g>
          <g id="Graphic_1338">
            <path d="M 485.0953 366.50603 C 484.6903 367.13703 484.2103 367.54403 483.4663 367.16603 C 483.6373 366.40703 484.1083 365.34903 482.7043 365.72203 C 481.1123 366.14603 479.5643 366.78103 477.8963 366.23403 C 479.7633 364.96003 481.9053 364.84103 483.9903 364.48403 C 484.6153 364.21603 485.3683 364.02803 485.7423 364.69403 C 486.1273 365.38203 485.5153 365.97903 485.0953 366.50603 Z" fill="#2f302f"/>
          </g>
          <g id="Graphic_1337">
            <path d="M 488.9146 390.27203 C 487.3996 391.99003 485.5486 393.05803 483.4636 393.67303 C 484.8196 391.64903 486.5566 390.36103 488.9146 390.27203 Z" fill="#2e2f2d"/>
          </g>
          <g id="Graphic_1336">
            <path d="M 491.9921 359.39933 C 492.4841 360.67333 493.6021 360.04333 494.4091 360.36033 C 491.3051 362.40933 488.2001 364.45733 485.0951 366.50633 C 485.5531 365.28833 485.3031 364.53633 483.9901 364.48533 C 486.6581 362.78933 489.3251 361.09533 491.9921 359.39933 Z" fill="#3f4140"/>
          </g>
          <g id="Group_1329">
            <g id="Graphic_1335">
              <path d="M 300.8921 414.10137 C 300.18527 414.4076 299.45495 414.8576 298.7166 415.4577 C 294.3895 418.97437 291.42467 426.3126 292.09442 431.84813 C 292.4787 435.02434 293.9761 436.9169 296.00013 437.28886 C 296.00233 437.8208 296.0332 438.342 296.09442 438.84813 C 296.70663 443.90816 300.1439 445.7103 304.03492 443.29655 C 305.7372 444.86586 308.3137 444.73834 311.01007 442.6092 C 312.44202 442.75144 314.10865 442.16646 315.81844 440.7769 C 320.1455 437.2602 323.11036 429.922 322.4406 424.38646 C 322.1138 421.6854 320.982 419.91264 319.4059 419.21394 C 319.48646 418.21415 319.47606 417.23846 319.3641 416.31313 C 318.85225 412.0825 316.3655 410.12924 313.2899 411.0134 C 311.9501 407.2193 308.4354 406.43534 304.7166 409.4577 C 303.25795 410.64315 301.9541 412.26286 300.8921 414.1014 Z" fill="white"/>
            </g>
            <g id="Graphic_1334">
              <path d="M 294.89927 417.64643 C 294.83027 419.14143 295.07027 420.75543 294.63227 422.10443 C 293.63627 425.16843 295.69727 423.35543 296.43927 423.63043 C 294.61827 425.71843 293.98427 428.21743 294.58727 430.98943 C 294.84127 432.15843 294.58327 434.84443 296.96527 432.53743 C 297.58227 431.94043 298.11827 432.55543 298.23027 433.40543 C 298.26727 433.68543 298.40427 434.04143 298.29927 434.23543 C 297.16127 436.35043 300.69527 438.64943 298.28927 440.41843 C 296.97327 441.38543 291.95727 436.00343 292.00027 433.18043 C 292.08127 427.85643 292.72327 422.55043 294.89927 417.64643 Z" fill="#2b2c2b"/>
            </g>
            <g id="Graphic_1333">
              <path d="M 317.39697 438.03243 C 317.57297 439.86843 318.80597 439.71543 319.98497 439.71443 C 331.00397 439.71143 342.02397 439.69343 353.04397 439.75043 C 354.67697 439.75843 355.86397 439.54943 355.68097 437.33743 C 357.33697 439.16443 357.66397 440.59843 354.67497 440.56643 C 341.28797 440.42243 327.89697 441.03943 314.51097 440.27043 C 313.65797 440.22143 312.90397 440.41543 312.84497 439.32743 C 312.81097 438.70743 313.12697 437.77943 313.56597 437.46743 C 314.81497 436.58043 314.41697 438.20543 314.80097 438.64943 C 316.01197 440.05343 316.48297 437.96543 317.39697 438.03243 Z" fill="#383835"/>
            </g>
            <g id="Graphic_1332">
              <path d="M 304.24807 437.52943 C 305.36707 437.48243 305.69307 438.05443 305.76007 438.79543 C 305.86207 439.93743 305.43507 440.68643 304.29607 440.72243 C 303.57907 440.74443 302.96907 440.41443 303.01407 439.58543 C 303.06907 438.57243 303.56707 437.76943 304.24807 437.52943 Z" fill="#9e9e9d"/>
            </g>
            <g id="Graphic_1331">
              <path d="M 422.4443 361.4111 C 422.4113 361.3791 422.3803 361.3441 422.3473 361.3121 C 422.3873 361.1521 422.4073 360.9851 422.4443 360.8241 C 422.4893 360.8991 422.5273 360.9641 422.5773 361.0491 C 422.5293 361.1691 422.4903 361.2911 422.4443 361.4111 M 420.50813 439.41336 C 420.86886 439.41455 421.2296 439.41547 421.5903 439.4161 C 428.7193 439.4291 428.7193 439.4061 430.3623 432.0541 C 431.9733 430.4861 431.3263 428.3481 431.5043 426.4361 C 431.7403 423.9191 432.2773 421.7081 434.6413 420.5351 C 444.1733 415.8031 453.6483 411.0031 462.7803 405.3101 C 469.2823 401.2561 476.0533 397.6591 482.6003 393.6371 C 484.3183 392.1651 486.0733 390.7661 488.0963 389.8391 C 488.4013 389.5921 488.6553 389.2921 488.8493 388.9351 C 489.2753 386.5461 487.5213 386.8911 486.3333 386.5361 C 481.8873 386.3811 478.8033 383.9031 476.8233 379.6751 C 474.5323 374.7821 475.9143 370.5591 480.4853 368.3051 C 481.5483 367.7811 482.6453 367.3431 483.3043 366.1941 C 484.0983 364.0681 482.7893 363.7451 481.4453 363.8721 C 479.9553 364.0131 478.4753 364.2431 476.9763 364.1891 C 472.3853 364.8501 467.7903 365.6811 463.2923 366.7381 C 457.0363 368.2081 450.8273 368.6521 444.4803 368.4431 C 436.6073 368.1831 430.5673 364.7161 426.5673 357.1381 C 426.0443 356.1471 425.7553 355.0951 426.4003 354.3961 C 428.4903 352.1271 428.6173 349.0421 429.5793 346.29208 C 430.0043 345.07608 430.3443 343.84308 430.6393 342.60208 C 399.7443 343.46608 368.8493 344.30408 337.9383 344.32108 C 337.2783 344.32208 336.6263 344.28608 335.9813 344.22108 C 335.6083 344.94408 335.1803 345.67108 334.7053 346.41708 C 327.6613 357.4681 320.8713 368.7171 316.0083 381.1871 C 315.4073 382.7271 314.3643 383.6591 313.3093 384.7061 C 304.4033 393.5481 298.0113 404.2211 294.1123 416.6901 C 293.3943 418.1081 293.7443 419.7321 293.3503 421.2461 C 292.4583 424.6801 294.0933 423.7181 295.6533 422.6751 C 297.1713 421.8211 297.6163 420.1151 298.2813 418.6061 C 299.6023 415.6071 301.5123 413.1611 303.9763 411.2581 C 308.2373 407.9661 311.1513 408.7031 314.7643 412.8061 C 320.1413 418.9121 319.7373 429.3201 316.6103 437.0761 C 315.9923 438.9071 316.8953 439.3501 318.3163 439.3521 C 319.52557 439.35333 320.73484 439.35434 321.9441 439.35515 L 321.9441 440.5332 L 420.5081 440.5332 Z" fill="black"/>
            </g>
            <g id="Graphic_1330">
              <path d="M 378.71487 375.54523 C 379.66287 375.23223 380.58987 374.83223 381.47787 374.34923 C 381.59487 374.13223 381.72087 373.91823 381.86387 373.71023 C 383.27987 371.64223 384.64187 369.53323 385.93387 367.38323 C 385.07487 367.09523 384.28187 366.68023 383.57487 366.15923 C 384.27287 369.98023 382.16587 373.87823 378.71487 375.54523 Z" fill="#444241"/>
            </g>
          </g>
        </g>
        <g id="Graphic_1327">
          <path d="M 407.1752 253.78032 C 412.51624 240.69446 421.32927 233.4831 421.32927 233.4831 C 430.14357 226.27302 434.6825 226.53912 436.8202 232.14753 C 438.9566 237.75594 445.09974 262.0586 428.5406 277.8169 Z" fill="#030303"/>
        </g>
        <g id="Graphic_1326">
          <path d="M 408.4246 257.84584 C 412.7139 247.33737 419.79095 241.54776 419.79095 241.54776 C 426.868 235.75688 430.51357 235.97103 432.2293 240.47448 C 433.9463 244.97793 438.87803 264.4933 425.58183 277.1458 Z" fill="#f4c9d7"/>
        </g>
        <g id="Graphic_1325">
          <path d="M 360.1861 253.78032 C 354.84507 240.69446 346.03204 233.4831 346.03204 233.4831 C 337.21774 226.27302 332.6788 226.53912 330.54113 232.14753 C 328.4047 237.75594 322.26157 262.0586 338.8207 277.8169 Z" fill="#030303"/>
        </g>
        <g id="Graphic_1324">
          <path d="M 358.9367 257.84584 C 354.6474 247.33737 347.57036 241.54776 347.57036 241.54776 C 340.49333 235.75688 336.84773 235.97103 335.132 240.47448 C 333.41502 244.97793 328.48328 264.4933 341.7795 277.1458 Z" fill="#f4c9d7"/>
        </g>
        <g id="Graphic_1323">
          <path d="M 426.3043 335.12407 C 426.05103 333.49722 425.30937 331.90225 424.5071 330.36253 C 423.7291 328.23094 423.2371 325.9697 422.52694 323.8392 C 421.8071 321.68315 421.05453 319.53456 420.3068 317.38597 C 422.1561 315.50197 423.5328 313.25243 424.2005 310.71067 C 425.61355 305.3413 426.42186 299.701 425.6196 294.21476 C 425.8244 292.51777 426.0171 290.8229 426.1189 289.1355 C 426.69574 279.63897 424.249 270.95853 417.116 263.668 C 410.35744 256.75998 399.4289 255.0311 389.7631 253.96957 C 388.90025 253.875 388.0362 253.80805 387.17092 253.7528 C 381.44973 251.87092 375.222 251.0474 369.2136 250.94964 C 363.17246 250.85188 357.68516 253.33307 353.9611 257.16164 C 351.13505 258.2285 348.49805 259.77884 346.2343 261.81267 C 337.71855 269.46345 336.0971 280.72602 334.63316 290.9855 C 333.471 297.71605 331.42657 304.3531 329.90932 311.02308 C 327.55226 321.392 325.61934 332.08077 326.0641 342.68134 C 326.46764 352.31706 334.93733 360.3748 346.24156 360.3748 C 350.2286 360.3748 354.1041 359.2548 357.3749 357.35063 C 360.0919 358.5567 363.1458 359.2527 366.356 359.28564 C 375.1638 359.37596 383.9377 360.78285 392.76245 360.9656 C 398.3358 361.0804 404.5405 360.989 409.81817 359.39615 C 415.7502 357.6046 420.44497 354.82694 423.86605 350.12277 C 427.2956 345.40692 427.12353 340.3861 426.3043 335.12407 Z" fill="#333"/>
        </g>
        <g id="Graphic_1322">
          <path d="M 435.3797 297.4543 C 433.4739 285.6115 429.6243 273.07813 422.32424 263.40724 C 417.8867 257.52766 412.96126 252.46033 406.4456 248.81474 C 399.4826 244.91952 391.92277 243.36726 384.1133 242.38902 C 378.19066 241.64647 372.1058 242.11405 366.31493 243.5662 C 359.79164 245.2021 354.53043 248.56638 349.33005 252.62886 C 340.77045 259.31434 335.65623 270.24605 332.33883 280.29075 C 328.8111 290.9703 327.4996 302.4684 326.66707 313.632 C 325.922 323.6311 325.9207 333.6745 326.0943 343.69514 C 326.20076 349.83575 326.4263 355.97636 326.41744 362.1195 C 326.4035 370.78935 333.66174 378.02477 342.3227 378.02477 C 348.21242 378.02477 353.42168 374.6909 356.17013 369.8415 C 357.3777 370.1545 358.57518 370.5093 359.74983 370.9566 C 363.0609 372.2149 366.8636 369.58935 367.7354 366.4215 C 368.74152 362.7645 366.505 359.6929 363.20154 358.4359 C 361.56945 357.815 359.89555 357.3639 358.20644 356.97234 C 358.06705 340.2181 357.289 323.50817 359.09978 306.7856 C 359.13906 306.42952 359.2062 305.87578 359.2759 305.32457 C 359.3874 304.57315 359.49513 303.8192 359.61804 303.06904 C 360.03747 300.5018 360.5532 297.95102 361.1475 295.41925 C 361.6759 293.17133 362.30567 290.9462 363.01274 288.7477 C 363.35487 287.68457 363.73375 286.6341 364.12656 285.5887 C 364.1405 285.54942 364.15697 285.51014 364.1722 285.47086 C 364.18485 285.44425 364.19752 285.41637 364.20893 285.39103 C 365.08073 283.5017 366.09065 281.6808 367.20447 279.92454 C 367.34006 279.7104 367.48705 279.50385 367.6277 279.2935 C 368.0598 278.7651 368.61608 278.0935 368.9823 277.7083 C 369.4955 277.1685 370.04035 276.6629 370.59536 276.1687 C 371.3582 275.6593 372.1565 275.20694 372.9662 274.7799 C 373.88615 274.46566 374.82765 274.21856 375.77294 273.99935 C 375.90472 273.96894 376.0365 273.9436 376.1683 273.91698 C 378.1894 273.77 380.22064 273.827 382.23794 274.0006 C 382.5446 274.05764 382.8525 274.11592 383.15916 274.17548 C 384.55302 274.4441 385.9317 274.79258 387.30274 275.16006 C 387.80833 275.29564 388.3063 275.4515 388.8043 275.6099 C 389.55193 275.94822 390.8026 276.51084 391.41718 276.8707 C 391.80873 277.10006 392.4233 277.52836 392.94916 277.90344 C 393.3749 278.28992 393.7918 278.6878 394.20237 279.09076 C 394.8423 279.718 395.43784 280.38832 396.02073 281.06878 C 396.3388 281.53002 396.64924 281.99506 396.9521 282.46518 C 398.16475 284.34436 399.1975 286.3338 400.1377 288.36123 C 400.30243 288.79332 400.46843 289.22542 400.6268 289.6588 C 401.17043 291.14642 401.6431 292.6594 402.0929 294.1787 C 402.8887 296.87267 403.5172 299.6148 404.0684 302.3683 C 404.351 303.78244 404.59174 305.20292 404.8211 306.6272 C 404.8553 306.84515 404.8857 307.0631 404.91866 307.28105 C 404.963 307.62318 405.0061 307.95517 405.03397 308.1972 C 405.74104 314.3226 406.0173 320.4949 406.06797 326.6583 C 406.14146 335.87682 405.6029 345.1042 404.62595 354.2733 C 403.47664 355.3149 402.4591 356.5529 401.619 357.98606 C 397.3652 365.24936 399.68787 375.66534 407.325 379.7481 C 412.59 382.56244 417.2303 383.5863 423.1162 382.26592 C 427.98966 381.17364 433.427 376.2647 434.22404 371.1581 C 438.04577 346.70842 439.3256 321.97492 435.3797 297.4543 Z" fill="#000302"/>
        </g>
        <g id="Graphic_1321">
          <path d="M 393.4096 358.81077 L 393.7755 348.62184 L 363.79853 346.00257 L 363.423 356.4597 C 363.4258 356.46007 363.4286 356.46042 363.4314 356.4608 C 363.4059 362.11274 369.41327 367.2043 377.31327 368.0346 C 385.4589 368.8907 392.57834 364.89708 393.3886 359.07844 C 393.3924 359.07862 393.3962 359.0788 393.4 359.079 L 393.4043 358.95936 C 393.41035 358.91036 393.416 358.86124 393.42116 358.812 Z" fill="#d2b9a4"/>
        </g>
        <g id="Graphic_1320">
          <path d="M 417.80317 311.14395 C 417.7664 332.1419 407.50124 350.65496 381.1255 352.1958 C 354.18716 353.7734 341.8654 332.0101 341.90088 311.01217 C 341.93762 290.01422 358.958 273.02047 379.9179 273.05722 C 400.87785 273.09397 417.8399 290.146 417.80317 311.14395 Z" fill="#ffddaf"/>
        </g>
        <g id="Graphic_1319">
          <path d="M 412.8552 323.68304 C 420.7698 324.83108 420.10077 314.35555 420.10077 314.35555 L 416.51473 309.8635 Z" fill="#ffddaf"/>
        </g>
        <g id="Graphic_1318">
          <path d="M 346.80614 323.5686 C 338.8877 324.68877 339.59352 314.21578 339.59352 314.21578 L 343.1935 309.7364 Z" fill="#ffddaf"/>
        </g>
        <g id="Graphic_1317">
          <path d="M 377.39515 288.6485 C 367.09195 310.46248 339.5479 315.9898 339.5479 315.9898 C 328.5579 263.88457 379.9345 263.97327 379.9345 263.97327 C 426.31855 264.05437 424.47484 313.54672 421.09916 316.13044 C 396.19965 311.39384 377.39515 288.6485 377.39515 288.6485 Z" fill="#ff6530"/>
        </g>
        <g id="Graphic_1316">
          <path d="M 406.3726 323.43265 C 406.3726 323.76337 406.1521 324.032 405.88094 324.03074 C 405.6085 324.02948 405.3893 323.7621 405.3893 323.4314 C 405.39055 323.10066 405.61103 322.83202 405.8822 322.8333 C 406.15337 322.8333 406.3726 323.10192 406.3726 323.43265 Z" fill="#dca380"/>
        </g>
        <g id="Graphic_1315">
          <path d="M 354.7897 323.3432 C 354.7897 323.6739 355.0089 323.94255 355.2801 323.94255 C 355.55125 323.9438 355.77174 323.6752 355.773 323.34446 C 355.773 323.01373 355.5538 322.74636 355.28135 322.7451 C 355.01018 322.7451 354.7897 323.01246 354.7897 323.3432 Z" fill="#dca380"/>
        </g>
        <g id="Group_1308">
          <g id="Graphic_1314">
            <path d="M 340.1716 314.08628 C 337.66644 323.12106 340.1716 330.02576 340.1716 330.02576 C 336.73 336.9292 340.2261 343.6261 340.2261 343.6261 C 337.43075 349.53353 340.2413 355.18502 340.2413 355.18502 L 343.83366 355.44986 C 348.92507 346.5228 345.48856 343.79715 345.48856 343.79715 C 350.0655 334.3784 345.5139 328.5318 345.5139 328.5318 C 349.95146 314.5526 347.54007 314.47402 347.54007 314.47402 Z" fill="#ff6530"/>
          </g>
          <g id="Graphic_1313">
            <path d="M 339.3411 355.18287 L 344.50474 355.19174 L 344.5022 356.48043 L 339.33857 356.47156 Z" fill="#722645"/>
          </g>
          <g id="Graphic_1312">
            <path d="M 344.08874 357.0732 C 346.6623 362.01762 343.81503 366.24737 343.81503 366.24737 C 340.96775 370.4771 342.25897 370.24396 341.99794 371.4199 C 341.73817 372.5958 334.00856 363.35954 339.95783 357.0656 Z" fill="#ff6530"/>
          </g>
          <g id="Graphic_1311">
            <path d="M 340.1716 314.08628 C 337.66644 323.12106 340.1716 330.02576 340.1716 330.02576 C 336.73 336.9292 340.2261 343.6261 340.2261 343.6261 C 337.43075 349.53353 340.2413 355.18502 340.2413 355.18502 L 343.83366 355.44986 C 348.92507 346.5228 345.48856 343.79715 345.48856 343.79715 C 350.0655 334.3784 345.5139 328.5318 345.5139 328.5318 C 349.95146 314.5526 347.54007 314.47402 347.54007 314.47402 Z" fill="#ff6530"/>
          </g>
          <g id="Graphic_1310">
            <path d="M 339.3411 355.18287 L 344.50474 355.19174 L 344.5022 356.48043 L 339.33857 356.47156 Z" fill="#722645"/>
          </g>
          <g id="Graphic_1309">
            <path d="M 344.08874 357.0732 C 346.6623 362.01762 343.81503 366.24737 343.81503 366.24737 C 340.96775 370.4771 342.25897 370.24396 341.99794 371.4199 C 341.73817 372.5958 334.00856 363.35954 339.95783 357.0656 Z" fill="#ff6530"/>
          </g>
        </g>
        <g id="Group_1301">
          <g id="Graphic_1307">
            <path d="M 413.70255 316.59067 C 411.1974 325.62545 413.70255 332.53015 413.70255 332.53015 C 410.26097 339.4336 413.75703 346.13048 413.75703 346.13048 C 410.96297 352.03793 413.77224 357.6894 413.77224 357.6894 L 417.3646 357.95425 C 422.456 349.0272 419.0195 346.30154 419.0195 346.30154 C 423.59645 336.8828 419.04485 331.0362 419.04485 331.0362 C 423.4824 317.057 421.071 316.97842 421.071 316.97842 Z" fill="#ff6530"/>
          </g>
          <g id="Graphic_1306">
            <path d="M 412.87206 357.68727 L 418.0357 357.69614 L 418.03316 358.98483 L 412.8695 358.97596 Z" fill="#722645"/>
          </g>
          <g id="Graphic_1305">
            <path d="M 417.6197 359.5776 C 420.19327 364.522 417.346 368.75177 417.346 368.75177 C 414.4987 372.9815 415.7899 372.74836 415.5289 373.92427 C 415.2691 375.1002 407.5395 365.86393 413.4888 359.57 Z" fill="#ff6530"/>
          </g>
          <g id="Graphic_1304">
            <path d="M 413.70255 316.59067 C 411.1974 325.62545 413.70255 332.53015 413.70255 332.53015 C 410.26097 339.4336 413.75703 346.13048 413.75703 346.13048 C 410.96297 352.03793 413.77224 357.6894 413.77224 357.6894 L 417.3646 357.95425 C 422.456 349.0272 419.0195 346.30154 419.0195 346.30154 C 423.59645 336.8828 419.04485 331.0362 419.04485 331.0362 C 423.4824 317.057 421.071 316.97842 421.071 316.97842 Z" fill="#ff6530"/>
          </g>
          <g id="Graphic_1303">
            <path d="M 412.87206 357.68727 L 418.0357 357.69614 L 418.03316 358.98483 L 412.8695 358.97596 Z" fill="#722645"/>
          </g>
          <g id="Graphic_1302">
            <path d="M 417.6197 359.5776 C 420.19327 364.522 417.346 368.75177 417.346 368.75177 C 414.4987 372.9815 415.7899 372.74836 415.5289 373.92427 C 415.2691 375.1002 407.5395 365.86393 413.4888 359.57 Z" fill="#ff6530"/>
          </g>
        </g>
        <g id="Graphic_1300">
          <path d="M 417.80317 311.14395 C 417.7664 332.1419 407.50124 350.65496 381.1255 352.1958 C 354.18716 353.7734 341.8654 332.0101 341.90088 311.01217 C 341.93762 290.01422 358.958 273.02047 379.9179 273.05722 C 400.87785 273.09397 417.8399 290.146 417.80317 311.14395 Z" fill="#fcdec3"/>
        </g>
        <g id="Graphic_1299">
          <path d="M 412.8552 323.68304 C 420.7698 324.83108 420.10077 314.35555 420.10077 314.35555 L 416.51473 309.8635 Z" fill="#fcdec3"/>
        </g>
        <g id="Graphic_1298">
          <path d="M 346.80614 323.5686 C 338.8877 324.68877 339.59352 314.21578 339.59352 314.21578 L 343.1935 309.7364 Z" fill="#fcdec3"/>
        </g>
        <g id="Graphic_1297">
          <path d="M 377.4984 278.28574 C 367.1952 298.05835 339.54727 311.12393 339.54727 311.12393 C 328.55854 263.89344 379.9339 263.97327 379.9339 263.97327 C 426.3192 264.04677 424.4755 308.90895 421.0998 311.2519 C 396.2003 306.95754 377.4984 278.28574 377.4984 278.28574 Z" fill="#ff6530"/>
        </g>
        <g id="Graphic_1296">
          <path d="M 354.7897 323.3432 C 354.7897 323.6739 355.0089 323.94255 355.2801 323.94255 C 355.55125 323.9438 355.77174 323.6752 355.773 323.34446 C 355.773 323.01373 355.5538 322.74636 355.28135 322.7451 C 355.01018 322.7451 354.7897 323.01246 354.7897 323.3432 Z" fill="#dca380"/>
        </g>
        <g id="Graphic_1295">
          <path d="M 407.2093 311.05297 L 403.76264 311.16955 L 403.6486 307.97506 C 403.54596 307.31615 402.9504 306.8663 402.3181 306.9702 C 401.79476 307.05638 401.3956 307.5024 401.35 308.05236 L 401.46403 311.2481 L 398.0174 311.3647 C 397.4497 311.31654 396.95424 311.7575 396.91116 312.348 C 396.86808 312.9385 397.29257 313.45676 397.86025 313.5049 C 397.93755 313.51124 398.0161 313.5087 398.0934 313.49604 L 401.54006 313.37946 L 401.65537 316.5752 C 401.75674 317.23286 402.3523 317.68397 402.98334 317.58006 C 403.50794 317.4939 403.9071 317.04786 403.9527 316.4979 L 403.83867 313.30216 L 407.2853 313.1843 C 407.853 313.23247 408.34846 312.79277 408.39154 312.201 C 408.4346 311.6105 408.01013 311.09352 407.44244 311.04537 C 407.36515 311.03903 407.2866 311.04157 407.2093 311.05297 Z" fill="#000100"/>
        </g>
        <g id="Graphic_1294">
          <path d="M 402.66896 299.5944 C 403.55597 298.37792 405.99396 298.75933 408.1139 300.44464 C 410.23385 302.13122 410.70523 303.32614 410.34663 305.6995 C 409.9893 308.07416 408.62837 304.33226 406.50716 302.64695 C 404.3872 300.96164 401.78196 300.81085 402.66896 299.5944 Z" fill="#212121"/>
        </g>
        <g id="Graphic_1293">
          <path d="M 353.84947 303.55018 C 356.4243 303.46274 358.67097 307.87242 358.86865 313.39847 C 359.06633 318.92578 357.14026 323.4761 354.5654 323.56355 C 351.99056 323.65098 349.74263 319.2413 349.54496 313.71525 C 349.3473 308.18795 351.2746 303.6376 353.84947 303.55018 Z" fill="#222929"/>
        </g>
        <g id="Graphic_1292">
          <path d="M 359.4106 311.10176 C 359.43975 312.40185 358.7327 313.47133 357.833 313.4878 C 356.93333 313.50554 356.18064 312.46394 356.15277 311.16385 C 356.12362 309.8625 356.82943 308.79428 357.7291 308.7778 C 358.63005 308.76006 359.38147 309.80166 359.4106 311.10176 Z" fill="white"/>
        </g>
        <g id="Graphic_1291">
          <path d="M 346.67778 295.85287 C 346.9439 294.27527 349.24756 292.58743 351.82494 292.08183 C 354.40106 291.57624 356.2739 292.4455 356.00907 294.0231 C 355.74297 295.6007 353.91954 294.4324 351.34343 294.938 C 348.76604 295.4436 346.41168 297.43047 346.67778 295.85287 Z" fill="#212121"/>
        </g>
        <g id="Group_1288">
          <g id="Graphic_1290">
            <path d="M 375.723 344.64425 C 378.447 346.3131 381.5579 346.18674 384.0967 344.41906 C 387.02273 342.38078 388.30875 339.82984 388.21224 336.8305 C 388.2054 335.7354 388.124 334.65183 387.6468 333.60353 C 386.61615 331.34214 384.48652 329.94176 381.5246 329.55843 C 378.7778 329.2024 376.1081 329.5825 374.2249 331.4732 C 372.7068 332.9965 371.8906 334.7548 371.6277 336.6251 C 371.17905 339.8243 372.378 342.5952 375.723 344.64425 Z" fill="#050505"/>
          </g>
          <g id="Graphic_1289">
            <path d="M 387.47747 345.38776 C 386.146 345.443 385.0035 345.9801 383.84634 346.5275 C 380.3108 348.20075 376.7992 348.30387 373.36564 346.24237 C 372.88725 345.9552 372.4393 345.62152 371.80233 345.19094 C 372.6665 348.06345 375.31925 349.9168 378.38802 349.98734 C 383.1775 350.096 386.38867 348.48146 387.47747 345.38776 Z" fill="#050805"/>
          </g>
        </g>
      </g>
    </g>
  </g>
</svg>
