<?xml version="1.0" encoding="UTF-8" standalone="no"?>
<!DOCTYPE svg PUBLIC "-//W3C//DTD SVG 1.1//EN" "http://www.w3.org/Graphics/SVG/1.1/DTD/svg11.dtd">
<svg xmlns:dc="http://purl.org/dc/elements/1.1/" xmlns:xl="http://www.w3.org/1999/xlink" version="1.1" xmlns="http://www.w3.org/2000/svg" viewBox="53 699 227.96434 216.35668" width="227.96434" height="216.35668">
  <defs/>
  <metadata> Produced by OmniGraffle 7.7.1 
    <dc:date>2018-03-10 18:13:22 +0000</dc:date>
  </metadata>
  <g id="Canvas_1" fill-opacity="1" stroke-dasharray="none" stroke="none" stroke-opacity="1" fill="none">
    <title>Canvas 1</title>
    <g id="Canvas_1: Layer 1">
      <title>Layer 1</title>
      <g id="Group_1189">
        <g id="Graphic_1203">
          <path d="M 248.26877 859.4944 C 252.14877 857.1434 256.02977 854.7924 259.90977 852.4414 C 261.36777 852.8484 263.50377 851.6194 263.95277 854.4604 C 260.54977 853.7534 258.16377 855.9594 255.57877 857.8124 C 253.78177 859.1004 252.18477 860.8754 249.91877 861.2694 C 250.81077 859.0604 248.80077 860.1054 248.26877 859.4944 Z" fill="#2e2f2d"/>
        </g>
        <g id="Graphic_1202">
          <path d="M 271.74187 853.5023 C 275.22987 851.8313 278.70887 850.1683 278.76887 845.0443 C 278.84687 838.4103 274.28187 831.9273 268.37587 830.2683 C 263.93287 829.0203 259.65287 829.8793 255.40887 831.3603 C 254.38287 831.7093 253.21587 832.4853 252.99187 830.3993 C 260.33687 826.1763 267.77087 825.0683 274.97287 830.4953 C 282.67587 836.2973 282.98287 849.8453 275.71087 854.4723 C 274.53687 855.0383 273.19387 855.4423 272.03987 855.4863 C 270.02787 855.5603 270.91987 854.3653 271.74187 853.5023 Z" fill="#181817"/>
        </g>
        <g id="Graphic_1201">
          <path d="M 271.74187 853.5023 C 271.69387 854.1293 270.82487 855.1993 272.40687 854.9383 C 273.50387 854.7563 274.60887 854.6253 275.71087 854.4723 C 271.78887 857.7373 267.87187 854.8983 263.95287 854.4603 C 263.00787 852.8153 260.72887 854.3913 259.90987 852.4413 C 260.66887 851.2313 262.04787 849.9963 259.51287 849.1833 C 258.54887 848.8733 257.69487 848.1433 256.79087 847.6063 C 255.91787 847.0873 255.90487 846.1833 256.29887 845.4603 C 256.73987 844.6513 257.30287 845.2333 257.89487 845.5693 C 259.97387 846.7513 262.24687 847.0503 264.49487 846.8303 C 265.06687 848.2073 262.66787 849.7363 264.72087 850.5613 C 267.83187 851.8113 270.56487 850.4693 272.84287 848.0293 C 274.08887 850.5533 269.79787 851.0623 271.74187 853.5023 Z" fill="#252625"/>
        </g>
        <g id="Graphic_1200">
          <path d="M 248.26877 859.4944 C 241.94277 859.0324 236.92777 854.1824 236.53877 848.1484 C 236.22077 843.2254 238.01277 840.5334 242.41077 839.2134 C 243.12877 838.9964 243.78277 838.5214 244.46677 838.1654 C 245.08777 837.7544 245.63677 837.2464 246.11877 836.6484 C 249.10977 834.1424 252.22677 831.8684 255.75577 830.3464 C 259.95377 828.4634 264.21677 827.9394 268.65377 829.2914 C 275.95477 831.5154 278.69677 836.6474 279.61477 844.5404 C 280.12977 848.9544 277.38477 852.1774 272.30377 854.0864 C 269.64777 853.5844 270.75177 851.9094 271.35977 850.3894 C 267.01777 852.8584 266.33777 852.7314 263.07277 848.7634 C 261.83377 847.2574 260.01777 847.5984 258.03177 846.6804 C 259.91177 848.7704 263.77277 849.6304 260.47877 853.2234 C 256.65677 855.8944 252.72977 858.3214 248.26877 859.4944 Z" fill="#fcfcfc"/>
        </g>
        <g id="Graphic_1199">
          <path d="M 246.09527 837.506 C 245.69027 838.137 245.21027 838.544 244.46627 838.166 C 244.63727 837.407 245.10827 836.349 243.70427 836.722 C 242.11227 837.146 240.56427 837.781 238.89627 837.234 C 240.76327 835.96 242.90527 835.841 244.99027 835.484 C 245.61527 835.216 246.36827 835.028 246.74227 835.694 C 247.12727 836.382 246.51527 836.979 246.09527 837.506 Z" fill="#2f302f"/>
        </g>
        <g id="Graphic_1198">
          <path d="M 249.91457 861.272 C 248.39957 862.99 246.54857 864.058 244.46357 864.673 C 245.81957 862.649 247.55657 861.361 249.91457 861.272 Z" fill="#2e2f2d"/>
        </g>
        <g id="Graphic_1197">
          <path d="M 252.99207 830.3993 C 253.48407 831.6733 254.60207 831.0433 255.40907 831.3603 C 252.30507 833.4093 249.20007 835.4573 246.09507 837.5063 C 246.55307 836.2883 246.30307 835.5363 244.99007 835.4853 C 247.65807 833.7893 250.32507 832.0953 252.99207 830.3993 Z" fill="#3f4140"/>
        </g>
        <g id="Group_1190">
          <g id="Graphic_1196">
            <path d="M 61.89211 885.1014 C 61.18527 885.4076 60.45495 885.8576 59.716586 886.4577 C 55.38951 889.9744 52.424666 897.3126 53.09442 902.8481 C 53.478705 906.0243 54.9761 907.9169 57.00013 908.2889 C 57.00233 908.8208 57.033186 909.342 57.09442 909.8481 C 57.706625 914.9082 61.14389 916.7103 65.034924 914.2965 C 66.73719 915.8659 69.31368 915.7383 72.010075 913.6092 C 73.44202 913.7514 75.108655 913.1665 76.818435 911.7769 C 81.14551 908.2602 84.11036 900.922 83.4406 895.3865 C 83.1138 892.6854 81.98201 890.9126 80.40591 890.2139 C 80.48646 889.2142 80.47606 888.2385 80.364105 887.3131 C 79.85225 883.0825 77.36552 881.1292 74.289885 882.0134 C 72.950115 878.2193 69.435416 877.4353 65.71659 880.4577 C 64.25795 881.6431 62.95411 883.2629 61.89211 885.1014 Z" fill="white"/>
          </g>
          <g id="Graphic_1195">
            <path d="M 55.899275 888.6464 C 55.830275 890.1414 56.070275 891.7554 55.632275 893.1044 C 54.636275 896.1684 56.697275 894.3554 57.439275 894.6304 C 55.618275 896.7184 54.984275 899.2174 55.587275 901.9894 C 55.841275 903.1584 55.583275 905.8444 57.965275 903.5374 C 58.582275 902.9404 59.118275 903.5554 59.230275 904.4054 C 59.267275 904.6854 59.404275 905.0414 59.299275 905.2354 C 58.161275 907.3504 61.695275 909.6494 59.289275 911.4184 C 57.973275 912.3854 52.957275 907.0034 53.000275 904.1804 C 53.081275 898.8564 53.723275 893.5504 55.899275 888.6464 Z" fill="#2b2c2b"/>
          </g>
          <g id="Graphic_1194">
            <path d="M 78.396975 909.0324 C 78.572975 910.8684 79.805975 910.7154 80.98497 910.7144 C 92.00397 910.7114 103.02397 910.6934 114.04397 910.7504 C 115.67697 910.7584 116.86397 910.5494 116.68097 908.3374 C 118.33697 910.1644 118.66397 911.5984 115.67497 911.5664 C 102.28797 911.4224 88.89697 912.0394 75.510975 911.2704 C 74.657975 911.2214 73.903975 911.4154 73.844975 910.3274 C 73.810975 909.7074 74.126975 908.7794 74.565975 908.4674 C 75.814975 907.5804 75.416975 909.2054 75.800975 909.6494 C 77.011975 911.0534 77.482975 908.9654 78.396975 909.0324 Z" fill="#383835"/>
          </g>
          <g id="Graphic_1193">
            <path d="M 65.248075 908.5294 C 66.367075 908.4824 66.693075 909.0544 66.760075 909.7954 C 66.862075 910.9374 66.435075 911.6864 65.296075 911.7224 C 64.579075 911.7444 63.969075 911.4144 64.014075 910.5854 C 64.069075 909.5724 64.567075 908.7694 65.248075 908.5294 Z" fill="#9e9e9d"/>
          </g>
          <g id="Graphic_1192">
            <path d="M 183.4443 832.4111 C 183.4113 832.3791 183.3803 832.3441 183.3473 832.3121 C 183.3873 832.1521 183.4073 831.9851 183.4443 831.8241 C 183.4893 831.8991 183.5273 831.9641 183.5773 832.0491 C 183.5293 832.1691 183.4903 832.2911 183.4443 832.4111 M 181.50813 910.4134 C 181.86886 910.4146 182.22958 910.4155 182.5903 910.4161 C 189.7193 910.4291 189.7193 910.4061 191.3623 903.0541 C 192.9733 901.4861 192.3263 899.3481 192.5043 897.4361 C 192.7403 894.9191 193.2773 892.7081 195.6413 891.5351 C 205.1733 886.8031 214.6483 882.0031 223.7803 876.3101 C 230.2823 872.2561 237.0533 868.6591 243.6003 864.6371 C 245.3183 863.1651 247.0733 861.7661 249.0963 860.8391 C 249.4013 860.5921 249.6553 860.2921 249.8493 859.9351 C 250.2753 857.5461 248.5213 857.8911 247.3333 857.5361 C 242.8873 857.3811 239.8033 854.9031 237.8233 850.6751 C 235.5323 845.7821 236.9143 841.5591 241.4853 839.3051 C 242.5483 838.7811 243.6453 838.3431 244.3043 837.1941 C 245.0983 835.0681 243.7893 834.7451 242.4453 834.8721 C 240.9553 835.0131 239.4753 835.2431 237.9763 835.1891 C 233.3853 835.8501 228.7903 836.6811 224.2923 837.7381 C 218.0363 839.2081 211.8273 839.6521 205.4803 839.4431 C 197.6073 839.1831 191.5673 835.7161 187.5673 828.1381 C 187.0443 827.1471 186.7553 826.0951 187.4003 825.3961 C 189.4903 823.1271 189.6173 820.0421 190.5793 817.2921 C 191.0043 816.0761 191.3443 814.8431 191.6393 813.6021 C 160.7443 814.4661 129.84931 815.3041 98.93831 815.3211 C 98.27831 815.3221 97.62631 815.2861 96.98131 815.2211 C 96.60831 815.9441 96.18031 816.6711 95.70531 817.4171 C 88.66131 828.4681 81.87131 839.7171 77.00831 852.1871 C 76.40731 853.7271 75.36431 854.6591 74.30931 855.7061 C 65.40331 864.5481 59.01131 875.2211 55.11231 887.6901 C 54.39431 889.1081 54.74431 890.7321 54.35031 892.2461 C 53.45831 895.6801 55.09331 894.7181 56.65331 893.6751 C 58.17131 892.8211 58.61631 891.1151 59.28131 889.6061 C 60.60231 886.6071 62.51231 884.1611 64.97631 882.2581 C 69.23731 878.9661 72.15131 879.7031 75.76431 883.8061 C 81.14131 889.9121 80.73731 900.3201 77.61031 908.0761 C 76.99231 909.9071 77.89531 910.3501 79.31631 910.3521 C 80.525575 910.3533 81.73484 910.3543 82.94411 910.3552 L 82.94411 911.5332 L 181.5081 911.5332 Z" fill="black"/>
          </g>
          <g id="Graphic_1191">
            <path d="M 139.71487 846.5452 C 140.66287 846.2322 141.58987 845.8322 142.47787 845.3492 C 142.59487 845.1322 142.72087 844.9182 142.86387 844.7102 C 144.27987 842.6422 145.64187 840.5332 146.93387 838.3832 C 146.07487 838.0952 145.28187 837.6802 144.57487 837.1592 C 145.27287 840.9802 143.16587 844.8782 139.71487 846.5452 Z" fill="#444241"/>
          </g>
        </g>
      </g>
      <g id="Graphic_1188">
        <path d="M 168.1752 724.7803 C 173.51624 711.6945 182.32927 704.4831 182.32927 704.4831 C 191.14357 697.273 195.6825 697.5391 197.82018 703.1475 C 199.9566 708.7559 206.09974 733.0586 189.54062 748.8169 Z" fill="#030303"/>
      </g>
      <g id="Graphic_1187">
        <path d="M 169.42461 728.8458 C 173.71392 718.3374 180.79095 712.54776 180.79095 712.54776 C 187.86798 706.7569 191.51357 706.971 193.2293 711.4745 C 194.94628 715.9779 199.87803 735.4933 186.58183 748.1458 Z" fill="#f4c9d7"/>
      </g>
      <g id="Graphic_1186">
        <path d="M 121.1861 724.7803 C 115.84507 711.6945 107.03204 704.4831 107.03204 704.4831 C 98.21774 697.273 93.67881 697.5391 91.54113 703.1475 C 89.40471 708.7559 83.26157 733.0586 99.82069 748.8169 Z" fill="#030303"/>
      </g>
      <g id="Graphic_1185">
        <path d="M 119.9367 728.8458 C 115.64739 718.3374 108.57036 712.54776 108.57036 712.54776 C 101.49333 706.7569 97.84773 706.971 96.13201 711.4745 C 94.41502 715.9779 89.48328 735.4933 102.77948 748.1458 Z" fill="#f4c9d7"/>
      </g>
      <g id="Graphic_1184">
        <path d="M 187.3043 806.1241 C 187.05103 804.4972 186.30937 802.90225 185.50712 801.3625 C 184.7291 799.2309 184.2371 796.9697 183.52694 794.8392 C 182.8071 792.6832 182.05453 790.5346 181.30681 788.386 C 183.15611 786.502 184.53279 784.2524 185.20052 781.7107 C 186.61355 776.3413 187.42186 770.701 186.6196 765.2148 C 186.82441 763.5178 187.0171 761.8229 187.1189 760.1355 C 187.69574 750.639 185.249 741.9585 178.11599 734.668 C 171.35744 727.76 160.42889 726.0311 150.7631 724.9696 C 149.90025 724.875 149.0362 724.80805 148.17092 724.7528 C 142.44973 722.8709 136.22198 722.0474 130.21358 721.9496 C 124.17246 721.8519 118.68516 724.3331 114.96111 728.1616 C 112.13505 729.2285 109.49805 730.77884 107.23429 732.8127 C 98.71855 740.46345 97.09708 751.726 95.63316 761.9855 C 94.47098 768.71605 92.42657 775.3531 90.90932 782.0231 C 88.55226 792.392 86.61934 803.0808 87.06409 813.6813 C 87.46764 823.3171 95.93733 831.3748 107.24156 831.3748 C 111.22858 831.3748 115.10411 830.2548 118.37492 828.3506 C 121.09191 829.5567 124.1458 830.2527 127.35602 830.2856 C 136.16382 830.376 144.93768 831.7829 153.76245 831.9656 C 159.3358 832.0804 165.54051 831.989 170.81817 830.3961 C 176.75022 828.6046 181.44497 825.8269 184.86605 821.1228 C 188.29561 816.4069 188.12353 811.3861 187.3043 806.1241 Z" fill="#333"/>
      </g>
      <g id="Graphic_1183">
        <path d="M 196.37968 768.4543 C 194.4739 756.6115 190.62429 744.0781 183.32424 734.4072 C 178.88668 728.5277 173.96126 723.4603 167.44558 719.8147 C 160.48259 715.9195 152.92277 714.3673 145.11332 713.389 C 139.19066 712.6465 133.1058 713.11405 127.31493 714.5662 C 120.79164 716.2021 115.53043 719.5664 110.33005 723.6289 C 101.77045 730.3143 96.65623 741.24605 93.33883 751.29075 C 89.81109 761.9703 88.49959 773.4684 87.66707 784.632 C 86.92199 794.6311 86.92072 804.6745 87.09432 814.6951 C 87.20076 820.83575 87.42631 826.9764 87.41744 833.1195 C 87.4035 841.7893 94.66174 849.0248 103.32271 849.0248 C 109.21242 849.0248 114.42168 845.6909 117.17013 840.8415 C 118.37772 841.1545 119.57518 841.5093 120.74983 841.9566 C 124.06089 843.2149 127.8636 840.5894 128.7354 837.4215 C 129.74152 833.7645 127.505 830.6929 124.20154 829.4359 C 122.56945 828.815 120.89555 828.3639 119.20644 827.9723 C 119.06705 811.2181 118.28902 794.5082 120.09978 777.7856 C 120.13906 777.4295 120.20622 776.8758 120.27591 776.3246 C 120.38742 775.5731 120.49513 774.8192 120.61804 774.069 C 121.03747 771.5018 121.5532 768.951 122.1475 766.41925 C 122.6759 764.1713 123.30567 761.9462 124.01274 759.7477 C 124.35487 758.6846 124.73375 757.6341 125.12656 756.5887 C 125.1405 756.5494 125.15697 756.5101 125.17218 756.4709 C 125.18485 756.44425 125.19752 756.4164 125.20893 756.391 C 126.08073 754.5017 127.09065 752.6808 128.20447 750.9245 C 128.34006 750.7104 128.48705 750.50385 128.6277 750.2935 C 129.0598 749.7651 129.61608 749.0935 129.98228 748.7083 C 130.49548 748.1685 131.04035 747.6629 131.59536 747.1687 C 132.35819 746.6593 133.1565 746.2069 133.9662 745.7799 C 134.88615 745.4657 135.82765 745.2186 136.77294 744.99935 C 136.90472 744.9689 137.0365 744.9436 137.16829 744.917 C 139.1894 744.77 141.22064 744.827 143.23794 745.0006 C 143.54459 745.0576 143.8525 745.1159 144.15916 745.1755 C 145.55302 745.4441 146.93168 745.7926 148.30274 746.1601 C 148.80833 746.2956 149.30632 746.4515 149.80431 746.6099 C 150.55193 746.9482 151.8026 747.5108 152.41718 747.8707 C 152.80873 748.1001 153.4233 748.5284 153.94916 748.9034 C 154.37492 749.2899 154.79182 749.6878 155.20237 750.0908 C 155.84228 750.718 156.43784 751.3883 157.02073 752.0688 C 157.33879 752.53 157.64924 752.9951 157.95209 753.4652 C 159.16475 755.3444 160.19748 757.3338 161.1377 759.3612 C 161.30243 759.7933 161.46843 760.2254 161.62682 760.6588 C 162.17043 762.1464 162.64308 763.6594 163.09292 765.1787 C 163.88869 767.8727 164.5172 770.6148 165.0684 773.3683 C 165.35098 774.7824 165.59174 776.2029 165.8211 777.6272 C 165.8553 777.8451 165.88572 778.0631 165.91866 778.281 C 165.96301 778.6232 166.0061 778.9552 166.03397 779.1972 C 166.74104 785.3226 167.01728 791.4949 167.06797 797.6583 C 167.14146 806.8768 166.60292 816.1042 165.62595 825.2733 C 164.47664 826.3149 163.45912 827.5529 162.619 828.9861 C 158.36518 836.2494 160.68787 846.6653 168.32498 850.7481 C 173.58999 853.5624 178.2303 854.5863 184.1162 853.2659 C 188.98966 852.1736 194.427 847.2647 195.22404 842.1581 C 199.04577 817.7084 200.3256 792.9749 196.37968 768.4543 Z" fill="#000302"/>
      </g>
      <g id="Graphic_1182">
        <path d="M 154.40962 829.8108 L 154.77549 819.6218 L 124.79853 817.0026 L 124.42302 827.4597 C 124.42582 827.4601 124.42861 827.4604 124.43141 827.4608 C 124.4059 833.1127 130.41327 838.2043 138.31327 839.0346 C 146.45891 839.8907 153.57834 835.8971 154.38861 830.0784 C 154.3924 830.0786 154.3962 830.0788 154.39999 830.079 L 154.40428 829.9594 C 154.41035 829.9104 154.41598 829.8612 154.42116 829.812 Z" fill="#d2b9a4"/>
      </g>
      <g id="Graphic_1181">
        <path d="M 178.80317 782.14395 C 178.76642 803.1419 168.50124 821.655 142.12551 823.1958 C 115.18716 824.7734 102.8654 803.0101 102.90088 782.0122 C 102.93762 761.0142 119.95798 744.0205 140.91792 744.0572 C 161.87785 744.094 178.83992 761.146 178.80317 782.14395 Z" fill="#ffddaf"/>
      </g>
      <g id="Graphic_1180">
        <path d="M 173.8552 794.683 C 181.76982 795.8311 181.10077 785.3555 181.10077 785.3555 L 177.51473 780.8635 Z" fill="#ffddaf"/>
      </g>
      <g id="Graphic_1179">
        <path d="M 107.80614 794.5686 C 99.88772 795.6888 100.59352 785.2158 100.59352 785.2158 L 104.1935 780.7364 Z" fill="#ffddaf"/>
      </g>
      <g id="Graphic_1178">
        <path d="M 138.39515 759.6485 C 128.09195 781.4625 100.5479 786.9898 100.5479 786.9898 C 89.55791 734.8846 140.93451 734.9733 140.93451 734.9733 C 187.31855 735.0544 185.47484 784.5467 182.09916 787.1304 C 157.19965 782.3938 138.39515 759.6485 138.39515 759.6485 Z" fill="#ff6530"/>
      </g>
      <g id="Graphic_1177">
        <path d="M 167.37259 794.43265 C 167.37259 794.7634 167.1521 795.032 166.88094 795.0307 C 166.6085 795.0295 166.38928 794.7621 166.38928 794.4314 C 166.39055 794.1007 166.61103 793.832 166.8822 793.8333 C 167.15337 793.8333 167.37259 794.1019 167.37259 794.43265 Z" fill="#dca380"/>
      </g>
      <g id="Graphic_1176">
        <path d="M 115.7897 794.3432 C 115.7897 794.6739 116.00891 794.94255 116.28008 794.94255 C 116.55125 794.9438 116.77174 794.6752 116.773 794.3445 C 116.773 794.0137 116.55379 793.7464 116.28135 793.7451 C 116.01018 793.7451 115.7897 794.0125 115.7897 794.3432 Z" fill="#dca380"/>
      </g>
      <g id="Group_1169">
        <g id="Graphic_1175">
          <path d="M 101.1716 785.0863 C 98.66644 794.1211 101.1716 801.0258 101.1716 801.0258 C 97.73002 807.9292 101.22608 814.6261 101.22608 814.6261 C 98.43075 820.5335 101.24129 826.185 101.24129 826.185 L 104.83366 826.4499 C 109.92507 817.5228 106.48856 814.7971 106.48856 814.7971 C 111.0655 805.3784 106.5139 799.5318 106.5139 799.5318 C 110.95146 785.5526 108.54007 785.474 108.54007 785.474 Z" fill="#ff6530"/>
        </g>
        <g id="Graphic_1174">
          <path d="M 100.3411 826.1829 L 105.50474 826.1917 L 105.50221 827.4804 L 100.33857 827.4716 Z" fill="#722645"/>
        </g>
        <g id="Graphic_1173">
          <path d="M 105.08874 828.0732 C 107.66232 833.0176 104.81503 837.2474 104.81503 837.2474 C 101.96775 841.4771 103.25897 841.244 102.99794 842.4199 C 102.73817 843.5958 95.00856 834.3595 100.95783 828.0656 Z" fill="#ff6530"/>
        </g>
        <g id="Graphic_1172">
          <path d="M 101.1716 785.0863 C 98.66644 794.1211 101.1716 801.0258 101.1716 801.0258 C 97.73002 807.9292 101.22608 814.6261 101.22608 814.6261 C 98.43075 820.5335 101.24129 826.185 101.24129 826.185 L 104.83366 826.4499 C 109.92507 817.5228 106.48856 814.7971 106.48856 814.7971 C 111.0655 805.3784 106.5139 799.5318 106.5139 799.5318 C 110.95146 785.5526 108.54007 785.474 108.54007 785.474 Z" fill="#ff6530"/>
        </g>
        <g id="Graphic_1171">
          <path d="M 100.3411 826.1829 L 105.50474 826.1917 L 105.50221 827.4804 L 100.33857 827.4716 Z" fill="#722645"/>
        </g>
        <g id="Graphic_1170">
          <path d="M 105.08874 828.0732 C 107.66232 833.0176 104.81503 837.2474 104.81503 837.2474 C 101.96775 841.4771 103.25897 841.244 102.99794 842.4199 C 102.73817 843.5958 95.00856 834.3595 100.95783 828.0656 Z" fill="#ff6530"/>
        </g>
      </g>
      <g id="Group_1162">
        <g id="Graphic_1168">
          <path d="M 174.70255 787.5907 C 172.1974 796.62545 174.70255 803.5302 174.70255 803.5302 C 171.26097 810.4336 174.75703 817.1305 174.75703 817.1305 C 171.96297 823.0379 174.77224 828.6894 174.77224 828.6894 L 178.3646 828.9543 C 183.45602 820.0272 180.0195 817.3015 180.0195 817.3015 C 184.59645 807.8828 180.04485 802.0362 180.04485 802.0362 C 184.48241 788.057 182.07102 787.9784 182.07102 787.9784 Z" fill="#ff6530"/>
        </g>
        <g id="Graphic_1167">
          <path d="M 173.87206 828.6873 L 179.0357 828.6961 L 179.03316 829.9848 L 173.86952 829.976 Z" fill="#722645"/>
        </g>
        <g id="Graphic_1166">
          <path d="M 178.61969 830.5776 C 181.19327 835.522 178.34598 839.7518 178.34598 839.7518 C 175.4987 843.9815 176.78992 843.7484 176.5289 844.9243 C 176.26912 846.1002 168.5395 836.8639 174.48878 830.57 Z" fill="#ff6530"/>
        </g>
        <g id="Graphic_1165">
          <path d="M 174.70255 787.5907 C 172.1974 796.62545 174.70255 803.5302 174.70255 803.5302 C 171.26097 810.4336 174.75703 817.1305 174.75703 817.1305 C 171.96297 823.0379 174.77224 828.6894 174.77224 828.6894 L 178.3646 828.9543 C 183.45602 820.0272 180.0195 817.3015 180.0195 817.3015 C 184.59645 807.8828 180.04485 802.0362 180.04485 802.0362 C 184.48241 788.057 182.07102 787.9784 182.07102 787.9784 Z" fill="#ff6530"/>
        </g>
        <g id="Graphic_1164">
          <path d="M 173.87206 828.6873 L 179.0357 828.6961 L 179.03316 829.9848 L 173.86952 829.976 Z" fill="#722645"/>
        </g>
        <g id="Graphic_1163">
          <path d="M 178.61969 830.5776 C 181.19327 835.522 178.34598 839.7518 178.34598 839.7518 C 175.4987 843.9815 176.78992 843.7484 176.5289 844.9243 C 176.26912 846.1002 168.5395 836.8639 174.48878 830.57 Z" fill="#ff6530"/>
        </g>
      </g>
      <g id="Graphic_1161">
        <path d="M 178.80317 782.14395 C 178.76642 803.1419 168.50124 821.655 142.12551 823.1958 C 115.18716 824.7734 102.8654 803.0101 102.90088 782.0122 C 102.93762 761.0142 119.95798 744.0205 140.91792 744.0572 C 161.87785 744.094 178.83992 761.146 178.80317 782.14395 Z" fill="#fcdec3"/>
      </g>
      <g id="Graphic_1160">
        <path d="M 173.8552 794.683 C 181.76982 795.8311 181.10077 785.3555 181.10077 785.3555 L 177.51473 780.8635 Z" fill="#fcdec3"/>
      </g>
      <g id="Graphic_1159">
        <path d="M 107.80614 794.5686 C 99.88772 795.6888 100.59352 785.2158 100.59352 785.2158 L 104.1935 780.7364 Z" fill="#fcdec3"/>
      </g>
      <g id="Graphic_1158">
        <path d="M 138.49842 749.2857 C 128.19522 769.05835 100.54727 782.1239 100.54727 782.1239 C 89.55854 734.89344 140.93388 734.9733 140.93388 734.9733 C 187.31918 735.0468 185.47548 779.909 182.09979 782.2519 C 157.20029 777.9575 138.49842 749.2857 138.49842 749.2857 Z" fill="#ff6530"/>
      </g>
      <g id="Graphic_1157">
        <path d="M 115.7897 794.3432 C 115.7897 794.6739 116.00891 794.94255 116.28008 794.94255 C 116.55125 794.9438 116.77174 794.6752 116.773 794.3445 C 116.773 794.0137 116.55379 793.7464 116.28135 793.7451 C 116.01018 793.7451 115.7897 794.0125 115.7897 794.3432 Z" fill="#dca380"/>
      </g>
      <g id="Graphic_1156">
        <path d="M 168.20929 782.053 L 164.76264 782.16955 L 164.6486 778.9751 C 164.54596 778.3161 163.9504 777.8663 163.31809 777.9702 C 162.79476 778.0564 162.3956 778.5024 162.34999 779.0524 L 162.46403 782.2481 L 159.01738 782.3647 C 158.4497 782.3165 157.95424 782.7575 157.91116 783.348 C 157.86808 783.9385 158.29257 784.4568 158.86025 784.5049 C 158.93755 784.5112 159.01611 784.5087 159.09341 784.496 L 162.54006 784.3795 L 162.65537 787.5752 C 162.75674 788.2329 163.3523 788.684 163.98334 788.5801 C 164.50794 788.4939 164.9071 788.0479 164.95271 787.4979 L 164.83867 784.3022 L 168.28532 784.1843 C 168.853 784.2325 169.34846 783.7928 169.39154 783.201 C 169.43462 782.6105 169.01013 782.0935 168.44244 782.0454 C 168.36515 782.039 168.28658 782.0416 168.20929 782.053 Z" fill="#000100"/>
      </g>
      <g id="Graphic_1155">
        <path d="M 163.66896 770.5944 C 164.55597 769.3779 166.99396 769.7593 169.1139 771.4446 C 171.23385 773.1312 171.70523 774.3261 171.34663 776.6995 C 170.98929 779.0742 169.62837 775.3323 167.50716 773.64695 C 165.38722 771.9616 162.78196 771.81085 163.66896 770.5944 Z" fill="#212121"/>
      </g>
      <g id="Graphic_1154">
        <path d="M 114.84947 774.5502 C 117.42432 774.4627 119.67097 778.8724 119.86865 784.3985 C 120.06633 789.9258 118.14026 794.4761 115.56541 794.5635 C 112.99056 794.651 110.74263 790.2413 110.54496 784.7153 C 110.34728 779.1879 112.27462 774.6376 114.84947 774.5502 Z" fill="#222929"/>
      </g>
      <g id="Graphic_1153">
        <path d="M 120.41061 782.1018 C 120.43975 783.40185 119.73268 784.4713 118.83301 784.4878 C 117.93333 784.5055 117.18064 783.4639 117.15277 782.16385 C 117.12362 780.8625 117.82943 779.7943 118.7291 779.7778 C 119.63005 779.7601 120.38147 780.8017 120.41061 782.1018 Z" fill="white"/>
      </g>
      <g id="Graphic_1152">
        <path d="M 107.67778 766.8529 C 107.94388 765.2753 110.24756 763.5874 112.82494 763.0818 C 115.40106 762.5762 117.2739 763.4455 117.00907 765.0231 C 116.74297 766.6007 114.91954 765.4324 112.34343 765.938 C 109.76604 766.4436 107.41168 768.4305 107.67778 766.8529 Z" fill="#212121"/>
      </g>
      <g id="Group_1145">
        <g id="Graphic_1147">
          <path d="M 137.055 817.6714 C 139.24217 819.752 141.69503 819.6679 143.65996 817.5841 C 145.92455 815.1813 146.88322 812.1216 146.74064 808.4884 C 146.71102 807.1625 146.62274 805.8489 146.22286 804.56925 C 145.35924 801.8088 143.64718 800.0663 141.30065 799.5367 C 139.12451 799.0448 137.02556 799.4459 135.58088 801.6931 C 134.41624 803.5036 133.8109 805.6142 133.64476 807.8726 C 133.36144 811.7356 134.36918 815.1167 137.055 817.6714 Z" fill="#050505"/>
        </g>
        <g id="Graphic_1146">
          <path d="M 146.35007 818.8317 C 145.30027 818.8691 144.4103 819.494 143.509 820.1311 C 140.7552 822.0785 137.98552 822.1256 135.22955 819.5539 C 134.84557 819.1956 134.48458 818.7818 133.97225 818.2464 C 134.718 821.743 136.85301 824.0455 139.27697 824.1988 C 143.06003 824.4364 145.5591 822.55285 146.35007 818.8317 Z" fill="#050805"/>
        </g>
      </g>
    </g>
  </g>
</svg>
