<?xml version="1.0" encoding="UTF-8" standalone="no"?>
<!DOCTYPE svg PUBLIC "-//W3C//DTD SVG 1.1//EN" "http://www.w3.org/Graphics/SVG/1.1/DTD/svg11.dtd">
<svg xmlns:dc="http://purl.org/dc/elements/1.1/" xmlns:xl="http://www.w3.org/1999/xlink" version="1.1" xmlns="http://www.w3.org/2000/svg" viewBox="555 202 227.96434 216.35668" width="227.96434" height="216.35668">
  <defs/>
  <metadata> Produced by OmniGraffle 7.7.1 
    <dc:date>2018-03-10 18:12:34 +0000</dc:date>
  </metadata>
  <g id="Canvas_1" fill-opacity="1" stroke-dasharray="none" stroke="none" stroke-opacity="1" fill="none">
    <title>Canvas 1</title>
    <g id="Canvas_1: Layer 1">
      <title>Layer 1</title>
      <g id="Group_1400">
        <g id="Group_1385">
          <g id="Graphic_1399">
            <path d="M 750.2688 362.49443 C 754.1488 360.14343 758.0298 357.79243 761.9098 355.44143 C 763.3678 355.84843 765.5038 354.61943 765.9528 357.46043 C 762.5498 356.75343 760.1638 358.95943 757.5788 360.81243 C 755.7818 362.10043 754.1848 363.87543 751.9188 364.26943 C 752.8108 362.06043 750.8008 363.10543 750.2688 362.49443 Z" fill="#2e2f2d"/>
          </g>
          <g id="Graphic_1398">
            <path d="M 773.7419 356.50233 C 777.2299 354.83133 780.7089 353.16833 780.7689 348.04433 C 780.8469 341.41033 776.2819 334.92733 770.3759 333.26833 C 765.9329 332.02033 761.6529 332.87933 757.4089 334.36033 C 756.3829 334.70933 755.2159 335.48533 754.9919 333.39933 C 762.3369 329.17633 769.7709 328.06833 776.9729 333.49533 C 784.6759 339.29733 784.9829 352.84533 777.7109 357.47233 C 776.5369 358.03833 775.1939 358.44233 774.0399 358.48633 C 772.0279 358.56033 772.9199 357.36533 773.7419 356.50233 Z" fill="#181817"/>
          </g>
          <g id="Graphic_1397">
            <path d="M 773.7419 356.50233 C 773.6939 357.12933 772.8249 358.19933 774.4069 357.93833 C 775.5039 357.75633 776.6089 357.62533 777.7109 357.47233 C 773.7889 360.73733 769.8719 357.89833 765.9529 357.46033 C 765.0079 355.81533 762.7289 357.39133 761.9099 355.44133 C 762.6689 354.23133 764.0479 352.99633 761.5129 352.18333 C 760.5489 351.87333 759.6949 351.14333 758.7909 350.60633 C 757.9179 350.08733 757.9049 349.18333 758.2989 348.46033 C 758.7399 347.65133 759.3029 348.23333 759.8949 348.56933 C 761.9739 349.75133 764.2469 350.05033 766.4949 349.83033 C 767.0669 351.20733 764.6679 352.73633 766.7209 353.56133 C 769.8319 354.81133 772.5649 353.46933 774.8429 351.02933 C 776.0889 353.55333 771.7979 354.06233 773.7419 356.50233 Z" fill="#252625"/>
          </g>
          <g id="Graphic_1396">
            <path d="M 750.2688 362.49443 C 743.9428 362.03243 738.9278 357.18243 738.5388 351.14843 C 738.2208 346.22543 740.0128 343.53343 744.4108 342.21343 C 745.1288 341.99643 745.7828 341.52143 746.4668 341.16543 C 747.0878 340.75443 747.6368 340.24643 748.1188 339.64843 C 751.1098 337.14243 754.2268 334.86843 757.7558 333.34643 C 761.9538 331.46343 766.2168 330.93943 770.6538 332.29143 C 777.9548 334.51543 780.6968 339.64743 781.6148 347.54043 C 782.1298 351.95443 779.3848 355.17743 774.3038 357.08643 C 771.6478 356.58443 772.7518 354.90943 773.3598 353.38943 C 769.0178 355.85843 768.3378 355.73143 765.0728 351.76343 C 763.8338 350.25743 762.0178 350.59843 760.0318 349.68043 C 761.9118 351.77043 765.7728 352.63043 762.4788 356.22343 C 758.6568 358.89443 754.7298 361.32143 750.2688 362.49443 Z" fill="#fcfcfc"/>
          </g>
          <g id="Graphic_1395">
            <path d="M 748.0953 340.50603 C 747.6903 341.13703 747.2103 341.54403 746.4663 341.16603 C 746.6373 340.40703 747.1083 339.34903 745.7043 339.72203 C 744.1123 340.14603 742.5643 340.78103 740.8963 340.23403 C 742.7633 338.96003 744.9053 338.84103 746.9903 338.48403 C 747.6153 338.21603 748.3683 338.02803 748.7423 338.69403 C 749.1273 339.38203 748.5153 339.97903 748.0953 340.50603 Z" fill="#2f302f"/>
          </g>
          <g id="Graphic_1394">
            <path d="M 751.9146 364.27203 C 750.3996 365.99003 748.5486 367.05803 746.4636 367.67303 C 747.8196 365.64903 749.5566 364.36103 751.9146 364.27203 Z" fill="#2e2f2d"/>
          </g>
          <g id="Graphic_1393">
            <path d="M 754.9921 333.39933 C 755.4841 334.67333 756.6021 334.04333 757.4091 334.36033 C 754.3051 336.40933 751.2001 338.45733 748.0951 340.50633 C 748.5531 339.28833 748.3031 338.53633 746.9901 338.48533 C 749.6581 336.78933 752.3251 335.09533 754.9921 333.39933 Z" fill="#3f4140"/>
          </g>
          <g id="Group_1386">
            <g id="Graphic_1392">
              <path d="M 563.8921 388.10137 C 563.1853 388.4076 562.45495 388.8576 561.7166 389.4577 C 557.3895 392.97437 554.42467 400.3126 555.0944 405.84813 C 555.4787 409.02434 556.9761 410.9169 559.0001 411.28886 C 559.0023 411.82083 559.0332 412.342 559.0944 412.84813 C 559.7066 417.90816 563.1439 419.7103 567.0349 417.29655 C 568.7372 418.86586 571.3137 418.73834 574.0101 416.6092 C 575.442 416.75144 577.10865 416.16646 578.81844 414.7769 C 583.1455 411.2602 586.11036 403.922 585.4406 398.38646 C 585.1138 395.6854 583.982 393.91264 582.4059 393.21394 C 582.48646 392.21415 582.47606 391.23846 582.3641 390.31313 C 581.85225 386.0825 579.3655 384.12924 576.2899 385.0134 C 574.9501 381.2193 571.4354 380.43534 567.7166 383.4577 C 566.25795 384.64315 564.9541 386.26286 563.8921 388.1014 Z" fill="white"/>
            </g>
            <g id="Graphic_1391">
              <path d="M 557.8993 391.64643 C 557.8303 393.14143 558.0703 394.75543 557.6323 396.10443 C 556.6363 399.16843 558.6973 397.35543 559.4393 397.63043 C 557.6183 399.71843 556.9843 402.21743 557.5873 404.98943 C 557.8413 406.15843 557.5833 408.84443 559.9653 406.53743 C 560.5823 405.94043 561.1183 406.55543 561.2303 407.40543 C 561.2673 407.68543 561.4043 408.04143 561.2993 408.23543 C 560.1613 410.35043 563.6953 412.64943 561.2893 414.41843 C 559.9733 415.38543 554.9573 410.00343 555.0003 407.18043 C 555.0813 401.85643 555.7233 396.55043 557.8993 391.64643 Z" fill="#2b2c2b"/>
            </g>
            <g id="Graphic_1390">
              <path d="M 580.397 412.03243 C 580.573 413.86843 581.806 413.71543 582.985 413.71443 C 594.004 413.71143 605.024 413.69343 616.044 413.75043 C 617.677 413.75843 618.864 413.54943 618.681 411.33743 C 620.337 413.16443 620.664 414.59843 617.675 414.56643 C 604.288 414.42243 590.897 415.03943 577.511 414.27043 C 576.658 414.22143 575.904 414.41543 575.845 413.32743 C 575.811 412.70743 576.127 411.77943 576.566 411.46743 C 577.815 410.58043 577.417 412.20543 577.801 412.64943 C 579.012 414.05343 579.483 411.96543 580.397 412.03243 Z" fill="#383835"/>
            </g>
            <g id="Graphic_1389">
              <path d="M 567.2481 411.52943 C 568.3671 411.48243 568.6931 412.05443 568.7601 412.79543 C 568.8621 413.93743 568.4351 414.68643 567.2961 414.72243 C 566.5791 414.74443 565.9691 414.41443 566.0141 413.58543 C 566.0691 412.57243 566.5671 411.76943 567.2481 411.52943 Z" fill="#9e9e9d"/>
            </g>
            <g id="Graphic_1388">
              <path d="M 685.4443 335.41108 C 685.4113 335.37908 685.3803 335.34408 685.3473 335.31208 C 685.3873 335.15208 685.4073 334.98508 685.4443 334.82408 C 685.4893 334.89908 685.5273 334.96408 685.5773 335.04908 C 685.5293 335.16908 685.4903 335.29108 685.4443 335.41108 M 683.5081 413.41336 C 683.86886 413.41455 684.2296 413.41547 684.5903 413.4161 C 691.7193 413.4291 691.7193 413.4061 693.3623 406.0541 C 694.9733 404.4861 694.3263 402.3481 694.5043 400.4361 C 694.7403 397.9191 695.2773 395.7081 697.6413 394.5351 C 707.1733 389.8031 716.6483 385.0031 725.7803 379.3101 C 732.2823 375.2561 739.0533 371.6591 745.6003 367.6371 C 747.3183 366.1651 749.0733 364.7661 751.0963 363.8391 C 751.4013 363.5921 751.6553 363.2921 751.8493 362.9351 C 752.2753 360.5461 750.5213 360.8911 749.3333 360.5361 C 744.8873 360.3811 741.8033 357.9031 739.8233 353.6751 C 737.5323 348.7821 738.9143 344.55908 743.4853 342.30508 C 744.5483 341.78108 745.6453 341.34308 746.3043 340.19408 C 747.0983 338.06808 745.7893 337.74508 744.4453 337.87208 C 742.9553 338.01308 741.4753 338.24308 739.9763 338.18908 C 735.3853 338.85008 730.7903 339.68108 726.2923 340.73808 C 720.0363 342.20808 713.8273 342.65208 707.4803 342.44308 C 699.6073 342.18308 693.5673 338.71608 689.5673 331.13808 C 689.0443 330.14708 688.7553 329.09508 689.4003 328.39608 C 691.4903 326.12708 691.6173 323.04208 692.5793 320.29208 C 693.0043 319.07608 693.3443 317.84308 693.6393 316.60208 C 662.7443 317.46608 631.8493 318.30408 600.9383 318.32108 C 600.2783 318.32208 599.6263 318.28608 598.9813 318.22108 C 598.6083 318.94408 598.1803 319.67108 597.7053 320.41708 C 590.6613 331.46808 583.8713 342.71708 579.0083 355.1871 C 578.4073 356.7271 577.3643 357.6591 576.3093 358.7061 C 567.4033 367.5481 561.0113 378.2211 557.1123 390.6901 C 556.3943 392.1081 556.7443 393.7321 556.3503 395.2461 C 555.4583 398.6801 557.0933 397.7181 558.6533 396.6751 C 560.1713 395.8211 560.6163 394.1151 561.2813 392.6061 C 562.6023 389.6071 564.5123 387.1611 566.9763 385.2581 C 571.2373 381.9661 574.1513 382.7031 577.7643 386.8061 C 583.1413 392.9121 582.7373 403.3201 579.6103 411.0761 C 578.9923 412.9071 579.8953 413.3501 581.3163 413.3521 C 582.5256 413.35333 583.73484 413.35434 584.9441 413.35515 L 584.9441 414.5332 L 683.5081 414.5332 Z" fill="black"/>
            </g>
            <g id="Graphic_1387">
              <path d="M 641.7149 349.54523 C 642.6629 349.23223 643.5899 348.83223 644.4779 348.34923 C 644.5949 348.13223 644.7209 347.91823 644.8639 347.71023 C 646.2799 345.64223 647.6419 343.53323 648.9339 341.38323 C 648.0749 341.09523 647.2819 340.68023 646.5749 340.15923 C 647.2729 343.98023 645.1659 347.87823 641.7149 349.54523 Z" fill="#444241"/>
            </g>
          </g>
        </g>
        <g id="Graphic_1384">
          <path d="M 670.1752 227.78032 C 675.5162 214.69446 684.3293 207.4831 684.3293 207.4831 C 693.1436 200.27302 697.6825 200.53912 699.8202 206.14753 C 701.9566 211.75594 708.0997 236.0586 691.5406 251.8169 Z" fill="#030303"/>
        </g>
        <g id="Graphic_1383">
          <path d="M 671.4246 231.84584 C 675.7139 221.33737 682.79095 215.54776 682.79095 215.54776 C 689.868 209.75688 693.5136 209.97103 695.2293 214.47448 C 696.9463 218.97793 701.878 238.4933 688.5818 251.1458 Z" fill="#f4c9d7"/>
        </g>
        <g id="Graphic_1382">
          <path d="M 623.1861 227.78032 C 617.8451 214.69446 609.03204 207.4831 609.03204 207.4831 C 600.21774 200.27302 595.6788 200.53912 593.5411 206.14753 C 591.4047 211.75594 585.2616 236.0586 601.8207 251.8169 Z" fill="#030303"/>
        </g>
        <g id="Graphic_1381">
          <path d="M 621.9367 231.84584 C 617.6474 221.33737 610.57036 215.54776 610.57036 215.54776 C 603.4933 209.75688 599.8477 209.97103 598.132 214.47448 C 596.415 218.97793 591.4833 238.4933 604.7795 251.1458 Z" fill="#f4c9d7"/>
        </g>
        <g id="Graphic_1380">
          <path d="M 689.3043 309.12407 C 689.051 307.49722 688.3094 305.90225 687.5071 304.36253 C 686.7291 302.23094 686.2371 299.9697 685.52694 297.8392 C 684.8071 295.68315 684.0545 293.53456 683.3068 291.38597 C 685.1561 289.50197 686.5328 287.25243 687.2005 284.71067 C 688.61355 279.34132 689.4219 273.701 688.6196 268.21476 C 688.8244 266.51777 689.0171 264.8229 689.1189 263.1355 C 689.6957 253.63897 687.249 244.95853 680.116 237.668 C 673.35744 230.75998 662.4289 229.03111 652.7631 227.96957 C 651.90025 227.875 651.0362 227.80805 650.1709 227.7528 C 644.4497 225.87092 638.222 225.0474 632.2136 224.94964 C 626.17246 224.85188 620.68516 227.33307 616.9611 231.16164 C 614.13505 232.2285 611.49805 233.77884 609.2343 235.81267 C 600.71855 243.46345 599.0971 254.72602 597.63316 264.9855 C 596.471 271.71605 594.4266 278.3531 592.9093 285.02308 C 590.55226 295.392 588.61934 306.08077 589.0641 316.68134 C 589.46764 326.31706 597.9373 334.3748 609.24156 334.3748 C 613.2286 334.3748 617.1041 333.25482 620.3749 331.35063 C 623.0919 332.5567 626.1458 333.2527 629.356 333.28564 C 638.1638 333.37596 646.9377 334.78285 655.76245 334.9656 C 661.3358 335.0804 667.5405 334.989 672.8182 333.39615 C 678.7502 331.6046 683.445 328.82694 686.86605 324.12277 C 690.2956 319.40692 690.1235 314.3861 689.3043 309.12407 Z" fill="#333"/>
        </g>
        <g id="Graphic_1379">
          <path d="M 698.3797 271.4543 C 696.4739 259.6115 692.6243 247.07813 685.3242 237.40724 C 680.8867 231.52766 675.9613 226.46033 669.4456 222.81474 C 662.4826 218.91952 654.9228 217.36726 647.1133 216.38902 C 641.1907 215.64647 635.1058 216.11405 629.3149 217.5662 C 622.79164 219.2021 617.5304 222.56638 612.33005 226.62886 C 603.77045 233.31434 598.6562 244.24605 595.3388 254.29075 C 591.8111 264.9703 590.4996 276.4684 589.6671 287.632 C 588.922 297.6311 588.9207 307.6745 589.0943 317.69514 C 589.20076 323.83575 589.4263 329.97636 589.41744 336.1195 C 589.4035 344.78935 596.66174 352.02477 605.3227 352.02477 C 611.2124 352.02477 616.4217 348.6909 619.1701 343.8415 C 620.3777 344.1545 621.5752 344.5093 622.7498 344.9566 C 626.0609 346.2149 629.8636 343.58935 630.7354 340.42148 C 631.7415 336.7645 629.505 333.6929 626.20154 332.4359 C 624.56945 331.815 622.89555 331.3639 621.20644 330.97234 C 621.06705 314.21808 620.289 297.50817 622.0998 280.7856 C 622.13906 280.42952 622.2062 279.87578 622.2759 279.32457 C 622.3874 278.57315 622.4951 277.8192 622.61804 277.06904 C 623.0375 274.5018 623.5532 271.95102 624.1475 269.41925 C 624.6759 267.17133 625.3057 264.9462 626.01274 262.7477 C 626.3549 261.68457 626.73375 260.6341 627.1266 259.5887 C 627.1405 259.54942 627.157 259.51014 627.1722 259.47086 C 627.18485 259.44425 627.1975 259.41637 627.2089 259.39103 C 628.0807 257.5017 629.09065 255.6808 630.2045 253.92454 C 630.34006 253.7104 630.48705 253.50385 630.6277 253.2935 C 631.0598 252.7651 631.6161 252.0935 631.9823 251.7083 C 632.4955 251.1685 633.04035 250.6629 633.5954 250.1687 C 634.3582 249.6593 635.1565 249.20694 635.9662 248.7799 C 636.88615 248.46566 637.82765 248.21856 638.77294 247.99935 C 638.9047 247.96894 639.0365 247.9436 639.1683 247.91698 C 641.1894 247.77 643.2206 247.827 645.23794 248.0006 C 645.5446 248.05764 645.8525 248.11592 646.15916 248.17548 C 647.553 248.44412 648.9317 248.79258 650.30274 249.16006 C 650.8083 249.29564 651.3063 249.4515 651.8043 249.6099 C 652.5519 249.94822 653.8026 250.51084 654.4172 250.8707 C 654.8087 251.10006 655.4233 251.52836 655.94916 251.90344 C 656.3749 252.28992 656.7918 252.6878 657.2024 253.09076 C 657.8423 253.718 658.43784 254.38832 659.0207 255.06878 C 659.3388 255.53002 659.6492 255.99506 659.9521 256.46518 C 661.16475 258.34436 662.1975 260.3338 663.1377 262.36123 C 663.3024 262.79332 663.4684 263.22542 663.6268 263.6588 C 664.1704 265.14642 664.6431 266.6594 665.0929 268.1787 C 665.8887 270.87267 666.5172 273.6148 667.0684 276.3683 C 667.351 277.78244 667.5917 279.20292 667.8211 280.6272 C 667.8553 280.84515 667.8857 281.0631 667.9187 281.28105 C 667.963 281.62318 668.0061 281.95517 668.034 282.1972 C 668.74104 288.3226 669.0173 294.4949 669.068 300.6583 C 669.1415 309.87682 668.6029 319.1042 667.62595 328.2733 C 666.47664 329.3149 665.4591 330.5529 664.619 331.98606 C 660.3652 339.24936 662.6879 349.66534 670.325 353.7481 C 675.59 356.56244 680.2303 357.5863 686.1162 356.26592 C 690.9897 355.17364 696.427 350.2647 697.22404 345.1581 C 701.0458 320.70842 702.3256 295.97492 698.3797 271.4543 Z" fill="#000302"/>
        </g>
        <g id="Graphic_1378">
          <path d="M 656.4096 332.81077 L 656.7755 322.62184 L 626.7985 320.00257 L 626.423 330.4597 C 626.4258 330.46007 626.4286 330.46042 626.4314 330.46078 C 626.4059 336.11274 632.4133 341.2043 640.3133 342.0346 C 648.4589 342.8907 655.5783 338.89708 656.3886 333.07844 C 656.3924 333.07862 656.3962 333.0788 656.4 333.079 L 656.4043 332.95936 C 656.41035 332.91036 656.416 332.86124 656.42116 332.812 Z" fill="#d2b9a4"/>
        </g>
        <g id="Graphic_1377">
          <path d="M 680.8032 285.14395 C 680.7664 306.1419 670.50124 324.65496 644.1255 326.1958 C 617.1872 327.7734 604.8654 306.0101 604.9009 285.01217 C 604.9376 264.01422 621.958 247.02047 642.9179 247.05722 C 663.87785 247.09397 680.8399 264.146 680.8032 285.14395 Z" fill="#ffddaf"/>
        </g>
        <g id="Graphic_1376">
          <path d="M 675.8552 297.68304 C 683.7698 298.83108 683.1008 288.35555 683.1008 288.35555 L 679.5147 283.8635 Z" fill="#ffddaf"/>
        </g>
        <g id="Graphic_1375">
          <path d="M 609.80614 297.5686 C 601.8877 298.68877 602.5935 288.21578 602.5935 288.21578 L 606.1935 283.7364 Z" fill="#ffddaf"/>
        </g>
        <g id="Graphic_1374">
          <path d="M 640.39515 262.6485 C 630.09195 284.46248 602.5479 289.9898 602.5479 289.9898 C 591.5579 237.88457 642.9345 237.97327 642.9345 237.97327 C 689.31855 238.05437 687.47484 287.54672 684.09916 290.13044 C 659.19965 285.39384 640.39515 262.6485 640.39515 262.6485 Z" fill="#ff6530"/>
        </g>
        <g id="Graphic_1373">
          <path d="M 669.3726 297.43265 C 669.3726 297.76337 669.1521 298.032 668.8809 298.03074 C 668.6085 298.02948 668.3893 297.7621 668.3893 297.43138 C 668.39055 297.10066 668.611 296.83202 668.8822 296.8333 C 669.1534 296.8333 669.3726 297.10192 669.3726 297.43265 Z" fill="#dca380"/>
        </g>
        <g id="Graphic_1372">
          <path d="M 617.7897 297.3432 C 617.7897 297.6739 618.0089 297.94255 618.2801 297.94255 C 618.55125 297.9438 618.7717 297.67518 618.773 297.34446 C 618.773 297.01373 618.5538 296.74636 618.28135 296.7451 C 618.0102 296.7451 617.7897 297.01246 617.7897 297.3432 Z" fill="#dca380"/>
        </g>
        <g id="Group_1365">
          <g id="Graphic_1371">
            <path d="M 603.1716 288.08628 C 600.66644 297.12106 603.1716 304.02576 603.1716 304.02576 C 599.73 310.9292 603.2261 317.62608 603.2261 317.62608 C 600.43075 323.53353 603.2413 329.18502 603.2413 329.18502 L 606.83366 329.44986 C 611.9251 320.5228 608.48856 317.79715 608.48856 317.79715 C 613.0655 308.37842 608.5139 302.5318 608.5139 302.5318 C 612.95146 288.5526 610.5401 288.47402 610.5401 288.47402 Z" fill="#ff6530"/>
          </g>
          <g id="Graphic_1370">
            <path d="M 602.3411 329.18287 L 607.50474 329.19174 L 607.5022 330.48043 L 602.3386 330.47156 Z" fill="#722645"/>
          </g>
          <g id="Graphic_1369">
            <path d="M 607.08874 331.0732 C 609.6623 336.01762 606.815 340.24737 606.815 340.24737 C 603.96775 344.4771 605.259 344.24396 604.99794 345.41988 C 604.7382 346.5958 597.00856 337.35954 602.9578 331.0656 Z" fill="#ff6530"/>
          </g>
          <g id="Graphic_1368">
            <path d="M 603.1716 288.08628 C 600.66644 297.12106 603.1716 304.02576 603.1716 304.02576 C 599.73 310.9292 603.2261 317.62608 603.2261 317.62608 C 600.43075 323.53353 603.2413 329.18502 603.2413 329.18502 L 606.83366 329.44986 C 611.9251 320.5228 608.48856 317.79715 608.48856 317.79715 C 613.0655 308.37842 608.5139 302.5318 608.5139 302.5318 C 612.95146 288.5526 610.5401 288.47402 610.5401 288.47402 Z" fill="#ff6530"/>
          </g>
          <g id="Graphic_1367">
            <path d="M 602.3411 329.18287 L 607.50474 329.19174 L 607.5022 330.48043 L 602.3386 330.47156 Z" fill="#722645"/>
          </g>
          <g id="Graphic_1366">
            <path d="M 607.08874 331.0732 C 609.6623 336.01762 606.815 340.24737 606.815 340.24737 C 603.96775 344.4771 605.259 344.24396 604.99794 345.41988 C 604.7382 346.5958 597.00856 337.35954 602.9578 331.0656 Z" fill="#ff6530"/>
          </g>
        </g>
        <g id="Group_1358">
          <g id="Graphic_1364">
            <path d="M 676.70255 290.59067 C 674.1974 299.62545 676.70255 306.53015 676.70255 306.53015 C 673.261 313.4336 676.757 320.13048 676.757 320.13048 C 673.963 326.03793 676.7722 331.68942 676.7722 331.68942 L 680.3646 331.95425 C 685.456 323.0272 682.0195 320.30154 682.0195 320.30154 C 686.59645 310.8828 682.04485 305.0362 682.04485 305.0362 C 686.4824 291.057 684.071 290.97842 684.071 290.97842 Z" fill="#ff6530"/>
          </g>
          <g id="Graphic_1363">
            <path d="M 675.87206 331.68727 L 681.0357 331.69614 L 681.03316 332.98483 L 675.8695 332.97596 Z" fill="#722645"/>
          </g>
          <g id="Graphic_1362">
            <path d="M 680.6197 333.5776 C 683.1933 338.52202 680.346 342.75177 680.346 342.75177 C 677.4987 346.9815 678.7899 346.74836 678.5289 347.92427 C 678.2691 349.1002 670.5395 339.86393 676.4888 333.57 Z" fill="#ff6530"/>
          </g>
          <g id="Graphic_1361">
            <path d="M 676.70255 290.59067 C 674.1974 299.62545 676.70255 306.53015 676.70255 306.53015 C 673.261 313.4336 676.757 320.13048 676.757 320.13048 C 673.963 326.03793 676.7722 331.68942 676.7722 331.68942 L 680.3646 331.95425 C 685.456 323.0272 682.0195 320.30154 682.0195 320.30154 C 686.59645 310.8828 682.04485 305.0362 682.04485 305.0362 C 686.4824 291.057 684.071 290.97842 684.071 290.97842 Z" fill="#ff6530"/>
          </g>
          <g id="Graphic_1360">
            <path d="M 675.87206 331.68727 L 681.0357 331.69614 L 681.03316 332.98483 L 675.8695 332.97596 Z" fill="#722645"/>
          </g>
          <g id="Graphic_1359">
            <path d="M 680.6197 333.5776 C 683.1933 338.52202 680.346 342.75177 680.346 342.75177 C 677.4987 346.9815 678.7899 346.74836 678.5289 347.92427 C 678.2691 349.1002 670.5395 339.86393 676.4888 333.57 Z" fill="#ff6530"/>
          </g>
        </g>
        <g id="Graphic_1357">
          <path d="M 680.8032 285.14395 C 680.7664 306.1419 670.50124 324.65496 644.1255 326.1958 C 617.1872 327.7734 604.8654 306.0101 604.9009 285.01217 C 604.9376 264.01422 621.958 247.02047 642.9179 247.05722 C 663.87785 247.09397 680.8399 264.146 680.8032 285.14395 Z" fill="#fcdec3"/>
        </g>
        <g id="Graphic_1356">
          <path d="M 675.8552 297.68304 C 683.7698 298.83108 683.1008 288.35555 683.1008 288.35555 L 679.5147 283.8635 Z" fill="#fcdec3"/>
        </g>
        <g id="Graphic_1355">
          <path d="M 609.80614 297.5686 C 601.8877 298.68877 602.5935 288.21578 602.5935 288.21578 L 606.1935 283.7364 Z" fill="#fcdec3"/>
        </g>
        <g id="Graphic_1354">
          <path d="M 640.4984 252.28574 C 630.1952 272.05835 602.5473 285.12393 602.5473 285.12393 C 591.55854 237.89344 642.9339 237.97327 642.9339 237.97327 C 689.3192 238.04677 687.4755 282.90895 684.0998 285.2519 C 659.2003 280.95754 640.4984 252.28574 640.4984 252.28574 Z" fill="#ff6530"/>
        </g>
        <g id="Graphic_1353">
          <path d="M 617.7897 297.3432 C 617.7897 297.6739 618.0089 297.94255 618.2801 297.94255 C 618.55125 297.9438 618.7717 297.67518 618.773 297.34446 C 618.773 297.01373 618.5538 296.74636 618.28135 296.7451 C 618.0102 296.7451 617.7897 297.01246 617.7897 297.3432 Z" fill="#dca380"/>
        </g>
        <g id="Graphic_1352">
          <path d="M 670.2093 285.05297 L 666.76264 285.16955 L 666.6486 281.97506 C 666.54596 281.31615 665.9504 280.8663 665.3181 280.9702 C 664.79476 281.05638 664.3956 281.50242 664.35 282.05236 L 664.464 285.2481 L 661.0174 285.3647 C 660.4497 285.31654 659.95424 285.7575 659.91116 286.348 C 659.8681 286.9385 660.2926 287.45676 660.86025 287.5049 C 660.93755 287.51124 661.0161 287.5087 661.0934 287.49604 L 664.54006 287.37946 L 664.6554 290.5752 C 664.75674 291.23286 665.3523 291.68397 665.98334 291.58006 C 666.50794 291.4939 666.9071 291.04786 666.9527 290.4979 L 666.8387 287.30216 L 670.2853 287.18432 C 670.853 287.23247 671.34846 286.79277 671.3915 286.201 C 671.4346 285.61052 671.0101 285.09352 670.44244 285.04537 C 670.36515 285.03903 670.2866 285.04157 670.2093 285.05297 Z" fill="#000100"/>
        </g>
        <g id="Graphic_1351">
          <path d="M 665.669 273.5944 C 666.556 272.37792 668.994 272.75933 671.1139 274.44464 C 673.23385 276.13122 673.7052 277.32614 673.3466 279.6995 C 672.9893 282.07416 671.6284 278.33226 669.5072 276.64695 C 667.3872 274.96164 664.78196 274.81085 665.669 273.5944 Z" fill="#212121"/>
        </g>
        <g id="Graphic_1350">
          <path d="M 616.8495 277.55018 C 619.4243 277.46274 621.671 281.87242 621.86865 287.39847 C 622.0663 292.92578 620.14026 297.4761 617.5654 297.56355 C 614.99056 297.65098 612.7426 293.2413 612.54496 287.71525 C 612.3473 282.18795 614.2746 277.6376 616.8495 277.55018 Z" fill="#222929"/>
        </g>
        <g id="Graphic_1349">
          <path d="M 622.4106 285.10176 C 622.43975 286.40185 621.7327 287.47133 620.833 287.4878 C 619.9333 287.50554 619.18064 286.46394 619.1528 285.16385 C 619.1236 283.8625 619.8294 282.79428 620.7291 282.7778 C 621.63005 282.76006 622.3815 283.80166 622.4106 285.10176 Z" fill="white"/>
        </g>
        <g id="Graphic_1348">
          <path d="M 609.6778 269.85287 C 609.9439 268.27527 612.24756 266.58743 614.82494 266.08183 C 617.40106 265.57624 619.2739 266.4455 619.0091 268.0231 C 618.743 269.6007 616.91954 268.4324 614.3434 268.938 C 611.76604 269.44358 609.4117 271.43047 609.6778 269.85287 Z" fill="#212121"/>
        </g>
        <g id="Group_1344">
          <g id="Graphic_1347">
            <path d="M 657.2044 313.20607 C 659.5939 308.61466 661.1021 303.83088 661.6912 298.97274 L 622.8638 298.6502 C 623.1634 303.84794 624.68945 308.98584 627.3849 313.86936 C 630.4951 312.34533 634.1194 311.36708 637.93505 311.02097 C 644.5228 310.15924 651.3653 310.93513 657.2044 313.20607 Z" fill="#252525"/>
          </g>
          <g id="Graphic_1346">
            <path d="M 642.71994 322.5054 C 649.9227 322.5653 654.37455 318.19063 657.27446 313.20656 C 651.4324 310.94053 644.58975 310.1707 638.0051 311.03744 C 634.20476 311.38874 630.59794 312.36716 627.50145 313.8855 C 630.2975 318.52433 635.0054 322.44136 642.71994 322.5054 Z" fill="#c64d3f"/>
          </g>
          <g id="Graphic_1345">
            <path d="M 658.51566 299.20926 L 658.50534 300.4419 C 658.50525 300.448 658.50516 300.45406 658.5036 300.45993 C 658.4515 303.20324 651.2229 305.3582 642.33354 305.28436 C 633.4449 305.2106 626.2579 302.93143 626.2508 300.192 C 626.2493 300.18645 626.2494 300.18037 626.2495 300.1743 L 626.2598 298.94165 Z" fill="white"/>
          </g>
        </g>
      </g>
    </g>
  </g>
</svg>
