<?xml version="1.0" encoding="UTF-8" standalone="no"?>
<!DOCTYPE svg PUBLIC "-//W3C//DTD SVG 1.1//EN" "http://www.w3.org/Graphics/SVG/1.1/DTD/svg11.dtd">
<svg xmlns:dc="http://purl.org/dc/elements/1.1/" xmlns:xl="http://www.w3.org/1999/xlink" version="1.1" xmlns="http://www.w3.org/2000/svg" viewBox="62 199 227.96434 216.35668" width="227.96434" height="216.35668">
  <defs/>
  <metadata> Produced by OmniGraffle 7.7.1 
    <dc:date>2018-03-10 18:14:06 +0000</dc:date>
  </metadata>
  <g id="Canvas_1" fill-opacity="1" stroke-dasharray="none" stroke="none" stroke-opacity="1" fill="none">
    <title>Canvas 1</title>
    <g id="Canvas_1: Layer 1">
      <title>Layer 1</title>
      <g id="Group_1287">
        <g id="Group_1272">
          <g id="Graphic_1286">
            <path d="M 257.26877 359.49443 C 261.14877 357.14343 265.02977 354.79243 268.90977 352.44143 C 270.36777 352.84843 272.50377 351.61943 272.95277 354.46043 C 269.54977 353.75343 267.16377 355.95943 264.57877 357.81243 C 262.78177 359.10043 261.18477 360.87543 258.91877 361.26943 C 259.81077 359.06043 257.80077 360.10543 257.26877 359.49443 Z" fill="#2e2f2d"/>
          </g>
          <g id="Graphic_1285">
            <path d="M 280.74187 353.50233 C 284.22987 351.83133 287.70887 350.16833 287.76887 345.04433 C 287.84687 338.41033 283.28187 331.92733 277.37587 330.26833 C 272.93287 329.02033 268.65287 329.87933 264.40887 331.36033 C 263.38287 331.70933 262.21587 332.48533 261.99187 330.39933 C 269.33687 326.17633 276.77087 325.06833 283.97287 330.49533 C 291.67587 336.29733 291.98287 349.84533 284.71087 354.47233 C 283.53687 355.03833 282.19387 355.44233 281.03987 355.48633 C 279.02787 355.56033 279.91987 354.36533 280.74187 353.50233 Z" fill="#181817"/>
          </g>
          <g id="Graphic_1284">
            <path d="M 280.74187 353.50233 C 280.69387 354.12933 279.82487 355.19933 281.40687 354.93833 C 282.50387 354.75633 283.60887 354.62533 284.71087 354.47233 C 280.78887 357.73733 276.87187 354.89833 272.95287 354.46033 C 272.00787 352.81533 269.72887 354.39133 268.90987 352.44133 C 269.66887 351.23133 271.04787 349.99633 268.51287 349.18333 C 267.54887 348.87333 266.69487 348.14333 265.79087 347.60633 C 264.91787 347.08733 264.90487 346.18333 265.29887 345.46033 C 265.73987 344.65133 266.30287 345.23333 266.89487 345.56933 C 268.97387 346.75133 271.24687 347.05033 273.49487 346.83033 C 274.06687 348.20733 271.66787 349.73633 273.72087 350.56133 C 276.83187 351.81133 279.56487 350.46933 281.84287 348.02933 C 283.08887 350.55333 278.79787 351.06233 280.74187 353.50233 Z" fill="#252625"/>
          </g>
          <g id="Graphic_1283">
            <path d="M 257.26877 359.49443 C 250.94277 359.03243 245.92777 354.18243 245.53877 348.14843 C 245.22077 343.22543 247.01277 340.53343 251.41077 339.21343 C 252.12877 338.99643 252.78277 338.52143 253.46677 338.16543 C 254.08777 337.75443 254.63677 337.24643 255.11877 336.64843 C 258.10977 334.14243 261.22677 331.86843 264.75577 330.34643 C 268.95377 328.46343 273.21677 327.93943 277.65377 329.29143 C 284.95477 331.51543 287.69677 336.64743 288.61477 344.54043 C 289.12977 348.95443 286.38477 352.17743 281.30377 354.08643 C 278.64777 353.58443 279.75177 351.90943 280.35977 350.38943 C 276.01777 352.85843 275.33777 352.73143 272.07277 348.76343 C 270.83377 347.25743 269.01777 347.59843 267.03177 346.68043 C 268.91177 348.77043 272.77277 349.63043 269.47877 353.22343 C 265.65677 355.89443 261.72977 358.32143 257.26877 359.49443 Z" fill="#fcfcfc"/>
          </g>
          <g id="Graphic_1282">
            <path d="M 255.09527 337.50603 C 254.69027 338.13703 254.21027 338.54403 253.46627 338.16603 C 253.63727 337.40703 254.10827 336.34903 252.70427 336.72203 C 251.11227 337.14603 249.56427 337.78103 247.89627 337.23403 C 249.76327 335.96003 251.90527 335.84103 253.99027 335.48403 C 254.61527 335.21603 255.36827 335.02803 255.74227 335.69403 C 256.12727 336.38203 255.51527 336.97903 255.09527 337.50603 Z" fill="#2f302f"/>
          </g>
          <g id="Graphic_1281">
            <path d="M 258.91457 361.27203 C 257.39957 362.99003 255.54857 364.05803 253.46357 364.67303 C 254.81957 362.64903 256.55657 361.36103 258.91457 361.27203 Z" fill="#2e2f2d"/>
          </g>
          <g id="Graphic_1280">
            <path d="M 261.99207 330.39933 C 262.48407 331.67333 263.60207 331.04333 264.40907 331.36033 C 261.30507 333.40933 258.20007 335.45733 255.09507 337.50633 C 255.55307 336.28833 255.30307 335.53633 253.99007 335.48533 C 256.65807 333.78933 259.32507 332.09533 261.99207 330.39933 Z" fill="#3f4140"/>
          </g>
          <g id="Group_1273">
            <g id="Graphic_1279">
              <path d="M 70.89211 385.10137 C 70.18527 385.4076 69.45495 385.8576 68.71659 386.4577 C 64.38951 389.97437 61.424666 397.3126 62.09442 402.84813 C 62.478705 406.02434 63.9761 407.9169 66.00013 408.28886 C 66.00233 408.82083 66.033186 409.342 66.09442 409.84813 C 66.706625 414.90816 70.14389 416.7103 74.03492 414.29655 C 75.73719 415.86586 78.31368 415.73834 81.01007 413.6092 C 82.44202 413.75144 84.10865 413.16646 85.81844 411.7769 C 90.14551 408.2602 93.11036 400.922 92.4406 395.38646 C 92.1138 392.6854 90.98201 390.91264 89.40591 390.21394 C 89.48646 389.21415 89.47606 388.23846 89.3641 387.31313 C 88.85225 383.08248 86.36552 381.12924 83.289885 382.0134 C 81.95012 378.2193 78.43542 377.43534 74.71659 380.4577 C 73.25795 381.64315 71.95411 383.26286 70.89211 385.1014 Z" fill="white"/>
            </g>
            <g id="Graphic_1278">
              <path d="M 64.899275 388.64643 C 64.830275 390.14143 65.070275 391.75543 64.632275 393.10443 C 63.636275 396.16843 65.697275 394.35543 66.439275 394.63043 C 64.618275 396.71843 63.984275 399.21743 64.587275 401.98943 C 64.841275 403.15843 64.583275 405.84443 66.965275 403.53743 C 67.582275 402.94043 68.118275 403.55543 68.230275 404.40543 C 68.267275 404.68543 68.404275 405.04143 68.299275 405.23543 C 67.161275 407.35043 70.695275 409.64943 68.289275 411.41843 C 66.973275 412.38543 61.957275 407.00343 62.000275 404.18043 C 62.081275 398.85643 62.723275 393.55043 64.899275 388.64643 Z" fill="#2b2c2b"/>
            </g>
            <g id="Graphic_1277">
              <path d="M 87.39697 409.03243 C 87.57297 410.86843 88.80597 410.71543 89.98497 410.71443 C 101.00397 410.71143 112.02397 410.69343 123.04397 410.75043 C 124.67697 410.75843 125.86397 410.54943 125.68097 408.33743 C 127.33697 410.16443 127.66397 411.59843 124.67497 411.56643 C 111.28797 411.42243 97.89697 412.03943 84.51097 411.27043 C 83.65797 411.22143 82.90397 411.41543 82.84497 410.32743 C 82.81097 409.70743 83.12697 408.77943 83.56597 408.46743 C 84.81497 407.58043 84.41697 409.20543 84.80097 409.64943 C 86.01197 411.05343 86.48297 408.96543 87.39697 409.03243 Z" fill="#383835"/>
            </g>
            <g id="Graphic_1276">
              <path d="M 74.248075 408.52943 C 75.367075 408.48243 75.693075 409.05443 75.760075 409.79543 C 75.862075 410.93743 75.435075 411.68643 74.296075 411.72243 C 73.579075 411.74443 72.969075 411.41443 73.014075 410.58543 C 73.069075 409.57243 73.567075 408.76943 74.248075 408.52943 Z" fill="#9e9e9d"/>
            </g>
            <g id="Graphic_1275">
              <path d="M 192.4443 332.41108 C 192.4113 332.37908 192.3803 332.34408 192.3473 332.31208 C 192.3873 332.15208 192.4073 331.98508 192.4443 331.82408 C 192.4893 331.89908 192.5273 331.96408 192.5773 332.04908 C 192.5293 332.16908 192.4903 332.29108 192.4443 332.41108 M 190.50813 410.41336 C 190.86886 410.41455 191.22958 410.41547 191.5903 410.4161 C 198.7193 410.4291 198.7193 410.4061 200.3623 403.0541 C 201.9733 401.4861 201.3263 399.3481 201.5043 397.4361 C 201.7403 394.9191 202.2773 392.7081 204.6413 391.5351 C 214.1733 386.8031 223.6483 382.0031 232.7803 376.3101 C 239.2823 372.2561 246.0533 368.6591 252.6003 364.6371 C 254.3183 363.1651 256.0733 361.7661 258.0963 360.8391 C 258.4013 360.5921 258.6553 360.2921 258.8493 359.9351 C 259.2753 357.5461 257.5213 357.8911 256.3333 357.5361 C 251.8873 357.3811 248.8033 354.9031 246.8233 350.6751 C 244.5323 345.78208 245.9143 341.55908 250.4853 339.30508 C 251.5483 338.78108 252.6453 338.34308 253.3043 337.19408 C 254.0983 335.06808 252.7893 334.74508 251.4453 334.87208 C 249.9553 335.01308 248.4753 335.24308 246.9763 335.18908 C 242.3853 335.85008 237.7903 336.68108 233.2923 337.73808 C 227.0363 339.20808 220.8273 339.65208 214.4803 339.44308 C 206.6073 339.18308 200.5673 335.71608 196.5673 328.13808 C 196.0443 327.14708 195.7553 326.09508 196.4003 325.39608 C 198.4903 323.12708 198.6173 320.04208 199.5793 317.29208 C 200.0043 316.07608 200.3443 314.84308 200.6393 313.60208 C 169.7443 314.46608 138.84931 315.30408 107.93831 315.32108 C 107.27831 315.32208 106.62631 315.28608 105.98131 315.22108 C 105.60831 315.94408 105.18031 316.67108 104.70531 317.41708 C 97.66131 328.46808 90.87131 339.71708 86.00831 352.1871 C 85.40731 353.7271 84.36431 354.6591 83.30931 355.7061 C 74.40331 364.5481 68.01131 375.2211 64.11231 387.6901 C 63.39431 389.1081 63.74431 390.7321 63.35031 392.2461 C 62.45831 395.6801 64.09331 394.7181 65.65331 393.6751 C 67.17131 392.8211 67.61631 391.1151 68.28131 389.6061 C 69.60231 386.6071 71.51231 384.1611 73.97631 382.2581 C 78.23731 378.9661 81.15131 379.7031 84.76431 383.8061 C 90.14131 389.9121 89.73731 400.3201 86.61031 408.0761 C 85.99231 409.9071 86.89531 410.3501 88.31631 410.3521 C 89.52557 410.35333 90.73484 410.35434 91.94411 410.35515 L 91.94411 411.5332 L 190.5081 411.5332 Z" fill="black"/>
            </g>
            <g id="Graphic_1274">
              <path d="M 148.71487 346.54523 C 149.66287 346.23223 150.58987 345.83223 151.47787 345.34923 C 151.59487 345.13223 151.72087 344.91823 151.86387 344.71023 C 153.27987 342.64223 154.64187 340.53323 155.93387 338.38323 C 155.07487 338.09523 154.28187 337.68023 153.57487 337.15923 C 154.27287 340.98023 152.16587 344.87823 148.71487 346.54523 Z" fill="#444241"/>
            </g>
          </g>
        </g>
        <g id="Graphic_1271">
          <path d="M 177.1752 224.78032 C 182.51624 211.69446 191.32927 204.4831 191.32927 204.4831 C 200.14357 197.27302 204.6825 197.53912 206.82018 203.14753 C 208.9566 208.75594 215.09974 233.0586 198.54062 248.8169 Z" fill="#030303"/>
        </g>
        <g id="Graphic_1270">
          <path d="M 178.42461 228.84584 C 182.71392 218.33737 189.79095 212.54776 189.79095 212.54776 C 196.86798 206.75688 200.51357 206.97103 202.2293 211.47448 C 203.94628 215.97793 208.87803 235.4933 195.58183 248.1458 Z" fill="#f4c9d7"/>
        </g>
        <g id="Graphic_1269">
          <path d="M 130.1861 224.78032 C 124.84507 211.69446 116.03204 204.4831 116.03204 204.4831 C 107.21774 197.27302 102.67881 197.53912 100.54113 203.14753 C 98.40471 208.75594 92.26157 233.0586 108.82069 248.8169 Z" fill="#030303"/>
        </g>
        <g id="Graphic_1268">
          <path d="M 128.9367 228.84584 C 124.6474 218.33737 117.57036 212.54776 117.57036 212.54776 C 110.49333 206.75688 106.84773 206.97103 105.13201 211.47448 C 103.41502 215.97793 98.48328 235.4933 111.77948 248.1458 Z" fill="#f4c9d7"/>
        </g>
        <g id="Graphic_1267">
          <path d="M 196.3043 306.12407 C 196.05103 304.49722 195.30937 302.90225 194.50712 301.36253 C 193.7291 299.23094 193.2371 296.9697 192.52694 294.8392 C 191.8071 292.68315 191.05453 290.53456 190.30681 288.38597 C 192.15611 286.50197 193.53279 284.25243 194.20052 281.71067 C 195.61355 276.34132 196.42186 270.701 195.6196 265.21476 C 195.82441 263.51777 196.0171 261.8229 196.1189 260.1355 C 196.69574 250.63897 194.249 241.95853 187.11599 234.668 C 180.35744 227.75998 169.42889 226.03111 159.7631 224.96957 C 158.90025 224.875 158.0362 224.80805 157.17092 224.7528 C 151.44973 222.87092 145.22198 222.0474 139.21358 221.94964 C 133.17246 221.85188 127.68516 224.33307 123.96111 228.16164 C 121.13505 229.2285 118.49805 230.77884 116.23429 232.81267 C 107.71855 240.46345 106.09708 251.72602 104.63316 261.9855 C 103.47098 268.71605 101.42657 275.3531 99.90932 282.02308 C 97.55226 292.392 95.61934 303.08077 96.06409 313.68134 C 96.46764 323.31706 104.93733 331.3748 116.24156 331.3748 C 120.22858 331.3748 124.10411 330.25482 127.37492 328.35063 C 130.09191 329.5567 133.1458 330.2527 136.35602 330.28564 C 145.16382 330.37596 153.93768 331.78285 162.76245 331.9656 C 168.3358 332.0804 174.54051 331.989 179.81817 330.39615 C 185.75022 328.6046 190.44497 325.82694 193.86605 321.12277 C 197.2956 316.40692 197.12353 311.3861 196.3043 306.12407 Z" fill="#333"/>
        </g>
        <g id="Graphic_1266">
          <path d="M 205.37968 268.4543 C 203.4739 256.6115 199.62429 244.07813 192.32424 234.40724 C 187.88668 228.52766 182.96126 223.46033 176.44558 219.81474 C 169.48259 215.91952 161.92277 214.36726 154.11332 213.38902 C 148.19066 212.64647 142.1058 213.11405 136.31493 214.5662 C 129.79164 216.2021 124.53043 219.56638 119.33005 223.62886 C 110.77045 230.31434 105.65623 241.24605 102.33883 251.29075 C 98.81109 261.9703 97.49959 273.4684 96.66707 284.632 C 95.92199 294.6311 95.92072 304.6745 96.09432 314.69514 C 96.20076 320.83575 96.42631 326.97636 96.41744 333.1195 C 96.4035 341.78935 103.66174 349.02477 112.32271 349.02477 C 118.21242 349.02477 123.42168 345.6909 126.17013 340.8415 C 127.37772 341.1545 128.57518 341.5093 129.74983 341.9566 C 133.06089 343.2149 136.8636 340.58935 137.7354 337.42148 C 138.74152 333.7645 136.505 330.6929 133.20154 329.4359 C 131.56945 328.815 129.89555 328.3639 128.20644 327.97234 C 128.06705 311.21808 127.28902 294.50817 129.09978 277.7856 C 129.13906 277.42952 129.20622 276.87578 129.27591 276.32457 C 129.38742 275.57315 129.49513 274.8192 129.61804 274.06904 C 130.03747 271.5018 130.5532 268.95102 131.1475 266.41925 C 131.6759 264.17133 132.30567 261.9462 133.01274 259.7477 C 133.35487 258.68457 133.73375 257.6341 134.12656 256.5887 C 134.1405 256.54942 134.15697 256.51014 134.17218 256.47086 C 134.18485 256.44425 134.19752 256.41637 134.20893 256.39103 C 135.08073 254.5017 136.09065 252.6808 137.20447 250.92454 C 137.34006 250.7104 137.48705 250.50385 137.6277 250.2935 C 138.0598 249.7651 138.61608 249.0935 138.98228 248.7083 C 139.49548 248.1685 140.04035 247.6629 140.59536 247.1687 C 141.35819 246.6593 142.1565 246.20694 142.9662 245.7799 C 143.88615 245.46566 144.82765 245.21856 145.77294 244.99935 C 145.90472 244.96894 146.0365 244.9436 146.16829 244.91698 C 148.1894 244.77 150.22064 244.827 152.23794 245.0006 C 152.54459 245.05764 152.8525 245.11592 153.15916 245.17548 C 154.55302 245.44412 155.93168 245.79258 157.30274 246.16006 C 157.80833 246.29564 158.30632 246.4515 158.80431 246.6099 C 159.55193 246.94822 160.8026 247.51084 161.41718 247.8707 C 161.80873 248.10006 162.4233 248.52836 162.94916 248.90344 C 163.37492 249.28992 163.79182 249.6878 164.20237 250.09076 C 164.84228 250.718 165.43784 251.38832 166.02073 252.06878 C 166.33879 252.53002 166.64924 252.99506 166.95209 253.46518 C 168.16475 255.34436 169.19748 257.3338 170.1377 259.36123 C 170.30243 259.79332 170.46843 260.22542 170.62682 260.6588 C 171.17043 262.14642 171.64308 263.6594 172.09292 265.1787 C 172.88869 267.87267 173.5172 270.6148 174.0684 273.3683 C 174.35098 274.78244 174.59174 276.20292 174.8211 277.6272 C 174.8553 277.84515 174.88572 278.0631 174.91866 278.28105 C 174.96301 278.62318 175.0061 278.95517 175.03397 279.1972 C 175.74104 285.3226 176.01728 291.4949 176.06797 297.6583 C 176.14146 306.87682 175.60292 316.1042 174.62595 325.2733 C 173.47664 326.3149 172.45912 327.5529 171.619 328.98606 C 167.36518 336.24936 169.68787 346.66534 177.32498 350.7481 C 182.58999 353.56244 187.2303 354.5863 193.1162 353.26592 C 197.98966 352.17364 203.427 347.2647 204.22404 342.1581 C 208.04577 317.70842 209.3256 292.97492 205.37968 268.4543 Z" fill="#000302"/>
        </g>
        <g id="Graphic_1265">
          <path d="M 163.40962 329.81077 L 163.7755 319.62184 L 133.79853 317.00257 L 133.42302 327.4597 C 133.42582 327.46007 133.42861 327.46042 133.43141 327.46078 C 133.4059 333.11274 139.41327 338.2043 147.31327 339.0346 C 155.45891 339.8907 162.57834 335.89708 163.38861 330.07844 C 163.3924 330.07862 163.3962 330.0788 163.39999 330.079 L 163.40428 329.95936 C 163.41035 329.91036 163.41598 329.86124 163.42116 329.812 Z" fill="#d2b9a4"/>
        </g>
        <g id="Graphic_1264">
          <path d="M 187.80317 282.14395 C 187.76642 303.1419 177.50124 321.65496 151.12551 323.1958 C 124.18716 324.7734 111.8654 303.0101 111.90088 282.01217 C 111.93762 261.01422 128.95798 244.02047 149.91792 244.05722 C 170.87785 244.09397 187.83992 261.146 187.80317 282.14395 Z" fill="#ffddaf"/>
        </g>
        <g id="Graphic_1263">
          <path d="M 182.8552 294.68304 C 190.76982 295.83108 190.10077 285.35555 190.10077 285.35555 L 186.51473 280.8635 Z" fill="#ffddaf"/>
        </g>
        <g id="Graphic_1262">
          <path d="M 116.80614 294.5686 C 108.88772 295.68877 109.59352 285.21578 109.59352 285.21578 L 113.1935 280.7364 Z" fill="#ffddaf"/>
        </g>
        <g id="Graphic_1261">
          <path d="M 147.39515 259.6485 C 137.09195 281.46248 109.5479 286.9898 109.5479 286.9898 C 98.55791 234.88457 149.93451 234.97327 149.93451 234.97327 C 196.31855 235.05437 194.47484 284.54672 191.09916 287.13044 C 166.19965 282.39384 147.39515 259.6485 147.39515 259.6485 Z" fill="#ff6530"/>
        </g>
        <g id="Graphic_1260">
          <path d="M 176.37259 294.43265 C 176.37259 294.76337 176.1521 295.032 175.88094 295.03074 C 175.6085 295.02948 175.38928 294.7621 175.38928 294.43138 C 175.39055 294.10066 175.61103 293.83202 175.8822 293.8333 C 176.15337 293.8333 176.37259 294.10192 176.37259 294.43265 Z" fill="#dca380"/>
        </g>
        <g id="Graphic_1259">
          <path d="M 124.7897 294.3432 C 124.7897 294.6739 125.00891 294.94255 125.28008 294.94255 C 125.55125 294.9438 125.77174 294.67518 125.773 294.34446 C 125.773 294.01373 125.55379 293.74636 125.28135 293.7451 C 125.01018 293.7451 124.7897 294.01246 124.7897 294.3432 Z" fill="#dca380"/>
        </g>
        <g id="Group_1252">
          <g id="Graphic_1258">
            <path d="M 110.1716 285.08628 C 107.66644 294.12106 110.1716 301.02576 110.1716 301.02576 C 106.73002 307.9292 110.22608 314.62608 110.22608 314.62608 C 107.43075 320.53353 110.24129 326.18502 110.24129 326.18502 L 113.83366 326.44986 C 118.92507 317.5228 115.48856 314.79715 115.48856 314.79715 C 120.0655 305.37842 115.5139 299.5318 115.5139 299.5318 C 119.95146 285.5526 117.54007 285.47402 117.54007 285.47402 Z" fill="#ff6530"/>
          </g>
          <g id="Graphic_1257">
            <path d="M 109.3411 326.18287 L 114.50474 326.19174 L 114.50221 327.48043 L 109.33857 327.47156 Z" fill="#722645"/>
          </g>
          <g id="Graphic_1256">
            <path d="M 114.08874 328.0732 C 116.66232 333.01762 113.81503 337.24737 113.81503 337.24737 C 110.96775 341.4771 112.25897 341.24396 111.99794 342.41988 C 111.73817 343.5958 104.00856 334.35954 109.95783 328.0656 Z" fill="#ff6530"/>
          </g>
          <g id="Graphic_1255">
            <path d="M 110.1716 285.08628 C 107.66644 294.12106 110.1716 301.02576 110.1716 301.02576 C 106.73002 307.9292 110.22608 314.62608 110.22608 314.62608 C 107.43075 320.53353 110.24129 326.18502 110.24129 326.18502 L 113.83366 326.44986 C 118.92507 317.5228 115.48856 314.79715 115.48856 314.79715 C 120.0655 305.37842 115.5139 299.5318 115.5139 299.5318 C 119.95146 285.5526 117.54007 285.47402 117.54007 285.47402 Z" fill="#ff6530"/>
          </g>
          <g id="Graphic_1254">
            <path d="M 109.3411 326.18287 L 114.50474 326.19174 L 114.50221 327.48043 L 109.33857 327.47156 Z" fill="#722645"/>
          </g>
          <g id="Graphic_1253">
            <path d="M 114.08874 328.0732 C 116.66232 333.01762 113.81503 337.24737 113.81503 337.24737 C 110.96775 341.4771 112.25897 341.24396 111.99794 342.41988 C 111.73817 343.5958 104.00856 334.35954 109.95783 328.0656 Z" fill="#ff6530"/>
          </g>
        </g>
        <g id="Group_1245">
          <g id="Graphic_1251">
            <path d="M 183.70255 287.59067 C 181.1974 296.62545 183.70255 303.53015 183.70255 303.53015 C 180.26097 310.4336 183.75703 317.13048 183.75703 317.13048 C 180.96297 323.03793 183.77224 328.68942 183.77224 328.68942 L 187.3646 328.95425 C 192.45602 320.0272 189.0195 317.30154 189.0195 317.30154 C 193.59645 307.8828 189.04485 302.0362 189.04485 302.0362 C 193.4824 288.05698 191.07102 287.97842 191.07102 287.97842 Z" fill="#ff6530"/>
          </g>
          <g id="Graphic_1250">
            <path d="M 182.87206 328.68727 L 188.0357 328.69614 L 188.03316 329.98483 L 182.86952 329.97596 Z" fill="#722645"/>
          </g>
          <g id="Graphic_1249">
            <path d="M 187.61969 330.5776 C 190.19327 335.52202 187.34598 339.75177 187.34598 339.75177 C 184.4987 343.9815 185.78992 343.74836 185.5289 344.92427 C 185.26912 346.1002 177.5395 336.86393 183.48878 330.57 Z" fill="#ff6530"/>
          </g>
          <g id="Graphic_1248">
            <path d="M 183.70255 287.59067 C 181.1974 296.62545 183.70255 303.53015 183.70255 303.53015 C 180.26097 310.4336 183.75703 317.13048 183.75703 317.13048 C 180.96297 323.03793 183.77224 328.68942 183.77224 328.68942 L 187.3646 328.95425 C 192.45602 320.0272 189.0195 317.30154 189.0195 317.30154 C 193.59645 307.8828 189.04485 302.0362 189.04485 302.0362 C 193.4824 288.05698 191.07102 287.97842 191.07102 287.97842 Z" fill="#ff6530"/>
          </g>
          <g id="Graphic_1247">
            <path d="M 182.87206 328.68727 L 188.0357 328.69614 L 188.03316 329.98483 L 182.86952 329.97596 Z" fill="#722645"/>
          </g>
          <g id="Graphic_1246">
            <path d="M 187.61969 330.5776 C 190.19327 335.52202 187.34598 339.75177 187.34598 339.75177 C 184.4987 343.9815 185.78992 343.74836 185.5289 344.92427 C 185.26912 346.1002 177.5395 336.86393 183.48878 330.57 Z" fill="#ff6530"/>
          </g>
        </g>
        <g id="Graphic_1244">
          <path d="M 187.80317 282.14395 C 187.76642 303.1419 177.50124 321.65496 151.12551 323.1958 C 124.18716 324.7734 111.8654 303.0101 111.90088 282.01217 C 111.93762 261.01422 128.95798 244.02047 149.91792 244.05722 C 170.87785 244.09397 187.83992 261.146 187.80317 282.14395 Z" fill="#fcdec3"/>
        </g>
        <g id="Graphic_1243">
          <path d="M 182.8552 294.68304 C 190.76982 295.83108 190.10077 285.35555 190.10077 285.35555 L 186.51473 280.8635 Z" fill="#fcdec3"/>
        </g>
        <g id="Graphic_1242">
          <path d="M 116.80614 294.5686 C 108.88772 295.68877 109.59352 285.21578 109.59352 285.21578 L 113.1935 280.7364 Z" fill="#fcdec3"/>
        </g>
        <g id="Graphic_1241">
          <path d="M 147.49842 249.28574 C 137.19522 269.05835 109.54727 282.12393 109.54727 282.12393 C 98.55854 234.89344 149.93388 234.97327 149.93388 234.97327 C 196.31918 235.04677 194.47548 279.90895 191.0998 282.2519 C 166.20029 277.95754 147.49842 249.28574 147.49842 249.28574 Z" fill="#ff6530"/>
        </g>
        <g id="Graphic_1240">
          <path d="M 124.7897 294.3432 C 124.7897 294.6739 125.00891 294.94255 125.28008 294.94255 C 125.55125 294.9438 125.77174 294.67518 125.773 294.34446 C 125.773 294.01373 125.55379 293.74636 125.28135 293.7451 C 125.01018 293.7451 124.7897 294.01246 124.7897 294.3432 Z" fill="#dca380"/>
        </g>
        <g id="Graphic_1239">
          <path d="M 177.20929 282.05297 L 173.76264 282.16955 L 173.6486 278.97506 C 173.54596 278.31615 172.9504 277.8663 172.31809 277.9702 C 171.79476 278.05638 171.3956 278.50242 171.34999 279.05236 L 171.46403 282.2481 L 168.01738 282.3647 C 167.4497 282.31654 166.95424 282.7575 166.91116 283.348 C 166.86808 283.9385 167.29257 284.45676 167.86025 284.5049 C 167.93755 284.51124 168.01611 284.5087 168.09341 284.49604 L 171.54006 284.37946 L 171.65537 287.5752 C 171.75674 288.23286 172.3523 288.68397 172.98334 288.58006 C 173.50794 288.4939 173.9071 288.04786 173.95271 287.4979 L 173.83867 284.30216 L 177.28532 284.18432 C 177.853 284.23247 178.34846 283.79277 178.39154 283.201 C 178.43462 282.61052 178.01013 282.09352 177.44244 282.04537 C 177.36515 282.03903 177.28658 282.04157 177.20929 282.05297 Z" fill="#000100"/>
        </g>
        <g id="Graphic_1238">
          <path d="M 172.66896 270.5944 C 173.55597 269.37792 175.99396 269.75933 178.1139 271.44464 C 180.23385 273.13122 180.70523 274.32614 180.34663 276.6995 C 179.9893 279.07416 178.62837 275.33226 176.50716 273.64695 C 174.38722 271.96164 171.78196 271.81085 172.66896 270.5944 Z" fill="#212121"/>
        </g>
        <g id="Graphic_1237">
          <path d="M 123.84947 274.55018 C 126.42432 274.46274 128.67097 278.87242 128.86865 284.39847 C 129.06633 289.92578 127.14026 294.4761 124.56541 294.56355 C 121.99056 294.65098 119.74263 290.2413 119.54496 284.71525 C 119.34728 279.18795 121.27462 274.6376 123.84947 274.55018 Z" fill="#222929"/>
        </g>
        <g id="Graphic_1236">
          <path d="M 129.41061 282.10176 C 129.43975 283.40185 128.73268 284.47133 127.83301 284.4878 C 126.93333 284.50554 126.18064 283.46394 126.15277 282.16385 C 126.12362 280.8625 126.82943 279.79428 127.7291 279.7778 C 128.63005 279.76006 129.38147 280.80166 129.41061 282.10176 Z" fill="white"/>
        </g>
        <g id="Graphic_1235">
          <path d="M 116.67778 266.85287 C 116.94388 265.27527 119.24756 263.58743 121.82494 263.08183 C 124.40106 262.57624 126.2739 263.4455 126.00907 265.0231 C 125.74297 266.6007 123.91954 265.4324 121.34343 265.938 C 118.76604 266.44358 116.41168 268.43047 116.67778 266.85287 Z" fill="#212121"/>
        </g>
        <g id="Group_1231">
          <g id="Graphic_1234">
            <path d="M 154.0506 316.83204 C 154.27359 316.5178 154.29843 316.19845 154.17237 315.97002 C 154.10107 315.84094 153.71228 315.9997 153.49012 316.1382 C 153.35332 316.22385 153.22362 316.31987 153.08896 316.40816 C 151.24584 317.62197 149.31451 318.15642 147.20175 317.7329 C 146.00168 317.49275 145.0017 316.90777 143.95368 316.2677 C 143.67418 317.0849 144.09434 317.5106 144.53389 317.8631 C 145.49973 318.63925 146.66782 319.00777 147.91195 319.2339 C 150.33619 319.674 152.6828 318.7602 154.0506 316.83204 Z" fill="#050505"/>
          </g>
          <g id="Graphic_1233">
            <path d="M 148.90455 314.25 L 148.90455 314.25716 C 148.91986 314.25595 148.93518 314.25475 148.9505 314.25356 C 148.96581 314.25475 148.98112 314.25595 148.99644 314.25716 L 148.99644 314.25 C 149.85826 314.18386 150.72052 314.14314 151.58395 314.1391 C 151.81684 314.13804 152.10088 314.11984 152.18231 314.27136 C 152.21313 314.32832 152.18367 314.38128 152.12914 314.43075 C 152.13253 314.4361 152.13564 314.4417 152.13847 314.4475 C 152.206 314.58563 151.93636 314.6852 151.79733 314.77624 C 150.93463 315.33642 149.97391 315.66376 148.98507 315.7923 C 148.97355 315.7938 148.96202 315.79528 148.9505 315.79672 C 148.93896 315.79528 148.92743 315.7938 148.91591 315.7923 C 147.92707 315.66376 146.96635 315.33642 146.10365 314.77624 C 145.96462 314.6852 145.69498 314.58563 145.76252 314.4475 C 145.76534 314.4417 145.76845 314.4361 145.77185 314.43075 C 145.71731 314.38128 145.68785 314.32832 145.71867 314.27136 C 145.8001 314.11984 146.08414 314.13804 146.31703 314.1391 C 147.18046 314.14314 148.04272 314.18386 148.90454 314.25 Z M 148.99644 302.0085 C 148.9658 302.00718 148.93517 302.006 148.90454 302.00498 C 147.16495 301.9471 145.43063 302.39473 144.50258 303.31068 C 144.17535 303.63353 143.8943 303.9719 143.69418 304.35364 C 143.15094 305.38963 142.12255 306.17774 140.96059 306.89142 C 140.66116 307.07507 140.26292 307.06864 139.9034 307.13503 C 139.49225 307.21106 139.07166 307.25817 138.69278 307.40166 C 137.69816 307.77858 137.64851 308.03236 138.49912 308.57793 C 138.53785 308.6031 138.57261 308.6336 138.61582 308.6545 C 140.62144 309.63 141.77694 310.95242 142.53669 312.52328 C 143.0829 313.65244 143.8938 314.75696 145.19032 315.6393 C 146.26817 316.3725 147.52429 316.8237 148.90455 316.9625 L 148.90455 316.97125 C 148.91987 316.96987 148.93518 316.96845 148.95048 316.967 C 148.96578 316.96845 148.9811 316.96987 148.99644 316.97125 L 148.99644 316.9625 C 150.3767 316.8237 151.6328 316.3725 152.71066 315.6393 C 154.00719 314.75696 154.81808 313.65244 155.3643 312.52328 C 156.12404 310.95242 157.27954 309.63 159.28517 308.6545 C 159.32837 308.6336 159.36313 308.6031 159.40186 308.57793 C 160.25247 308.03236 160.20282 307.77858 159.2082 307.40166 C 158.82932 307.25817 158.40873 307.21106 157.99758 307.13503 C 157.63806 307.06864 157.23982 307.07507 156.94039 306.89142 C 155.77843 306.17774 154.75005 305.38963 154.2068 304.35364 C 154.00669 303.9719 153.72563 303.63353 153.3984 303.31068 C 152.47035 302.39473 150.73604 301.9471 148.99644 302.00498 Z M 148.91591 315.7923 C 148.92744 315.79052 148.93897 315.7887 148.95049 315.78688 C 149.94612 315.6282 150.90814 315.26975 151.76307 314.67993 C 148.90833 315.79348 148.91212 315.7929 148.91591 315.7923 Z M 148.98507 315.7923 C 148.98886 315.7929 148.99265 315.79348 148.99644 315.79406 C 146.99284 315.26975 147.95486 315.6282 148.95049 315.78688 C 148.96201 315.7887 148.97354 315.79052 148.98507 315.7923 Z" fill="#050505"/>
          </g>
          <g id="Graphic_1232">
            <ellipse cx="148.9505" cy="314.4652" rx="3.72919126564134" ry="1.41452366681533" fill="#c64c3f"/>
          </g>
        </g>
      </g>
    </g>
  </g>
</svg>
