<?xml version="1.0" encoding="UTF-8" standalone="no"?>
<!DOCTYPE svg PUBLIC "-//W3C//DTD SVG 1.1//EN" "http://www.w3.org/Graphics/SVG/1.1/DTD/svg11.dtd">
<svg xmlns:dc="http://purl.org/dc/elements/1.1/" xmlns:xl="http://www.w3.org/1999/xlink" version="1.1" xmlns="http://www.w3.org/2000/svg" viewBox="52 449 227.96434 216.35668" width="227.96434" height="216.35668">
  <defs/>
  <metadata> Produced by OmniGraffle 7.7.1 
    <dc:date>2018-03-10 18:14:06 +0000</dc:date>
  </metadata>
  <g id="Canvas_1" fill-opacity="1" stroke-dasharray="none" stroke="none" stroke-opacity="1" fill="none">
    <title>Canvas 1</title>
    <g id="Canvas_1: Layer 1">
      <title>Layer 1</title>
      <g id="Group_1519">
        <g id="Group_1504">
          <g id="Graphic_1518">
            <path d="M 247.26877 609.4944 C 251.14877 607.1434 255.02977 604.7924 258.90977 602.4414 C 260.36777 602.8484 262.50377 601.6194 262.95277 604.4604 C 259.54977 603.7534 257.16377 605.9594 254.57877 607.8124 C 252.78177 609.1004 251.18477 610.8754 248.91877 611.2694 C 249.81077 609.0604 247.80077 610.1054 247.26877 609.4944 Z" fill="#2e2f2d"/>
          </g>
          <g id="Graphic_1517">
            <path d="M 270.74187 603.5023 C 274.22987 601.8313 277.70887 600.1683 277.76887 595.0443 C 277.84687 588.4103 273.28187 581.9273 267.37587 580.2683 C 262.93287 579.0203 258.65287 579.8793 254.40887 581.3603 C 253.38287 581.7093 252.21587 582.4853 251.99187 580.3993 C 259.33687 576.1763 266.77087 575.0683 273.97287 580.4953 C 281.67587 586.2973 281.98287 599.8453 274.71087 604.4723 C 273.53687 605.0383 272.19387 605.4423 271.03987 605.4863 C 269.02787 605.5603 269.91987 604.3653 270.74187 603.5023 Z" fill="#181817"/>
          </g>
          <g id="Graphic_1516">
            <path d="M 270.74187 603.5023 C 270.69387 604.1293 269.82487 605.1993 271.40687 604.9383 C 272.50387 604.7563 273.60887 604.6253 274.71087 604.4723 C 270.78887 607.7373 266.87187 604.8983 262.95287 604.4603 C 262.00787 602.8153 259.72887 604.3913 258.90987 602.4413 C 259.66887 601.2313 261.04787 599.9963 258.51287 599.1833 C 257.54887 598.8733 256.69487 598.1433 255.79087 597.6063 C 254.91787 597.0873 254.90487 596.1833 255.29887 595.4603 C 255.73987 594.6513 256.30287 595.2333 256.89487 595.5693 C 258.97387 596.7513 261.24687 597.0503 263.49487 596.8303 C 264.06687 598.2073 261.66787 599.7363 263.72087 600.5613 C 266.83187 601.8113 269.56487 600.4693 271.84287 598.0293 C 273.08887 600.5533 268.79787 601.0623 270.74187 603.5023 Z" fill="#252625"/>
          </g>
          <g id="Graphic_1515">
            <path d="M 247.26877 609.4944 C 240.94277 609.0324 235.92777 604.1824 235.53877 598.1484 C 235.22077 593.2254 237.01277 590.5334 241.41077 589.2134 C 242.12877 588.9964 242.78277 588.5214 243.46677 588.1654 C 244.08777 587.7544 244.63677 587.2464 245.11877 586.6484 C 248.10977 584.1424 251.22677 581.8684 254.75577 580.3464 C 258.95377 578.4634 263.21677 577.9394 267.65377 579.2914 C 274.95477 581.5154 277.69677 586.6474 278.61477 594.5404 C 279.12977 598.9544 276.38477 602.1774 271.30377 604.0864 C 268.64777 603.5844 269.75177 601.9094 270.35977 600.3894 C 266.01777 602.8584 265.33777 602.7314 262.07277 598.7634 C 260.83377 597.2574 259.01777 597.5984 257.03177 596.6804 C 258.91177 598.7704 262.77277 599.6304 259.47877 603.2234 C 255.65677 605.8944 251.72977 608.3214 247.26877 609.4944 Z" fill="#fcfcfc"/>
          </g>
          <g id="Graphic_1514">
            <path d="M 245.09527 587.506 C 244.69027 588.137 244.21027 588.544 243.46627 588.166 C 243.63727 587.407 244.10827 586.349 242.70427 586.722 C 241.11227 587.146 239.56427 587.781 237.89627 587.234 C 239.76327 585.96 241.90527 585.841 243.99027 585.484 C 244.61527 585.216 245.36827 585.028 245.74227 585.694 C 246.12727 586.382 245.51527 586.979 245.09527 587.506 Z" fill="#2f302f"/>
          </g>
          <g id="Graphic_1513">
            <path d="M 248.91457 611.272 C 247.39957 612.99 245.54857 614.058 243.46357 614.673 C 244.81957 612.649 246.55657 611.361 248.91457 611.272 Z" fill="#2e2f2d"/>
          </g>
          <g id="Graphic_1512">
            <path d="M 251.99207 580.3993 C 252.48407 581.6733 253.60207 581.0433 254.40907 581.3603 C 251.30507 583.4093 248.20007 585.4573 245.09507 587.5063 C 245.55307 586.2883 245.30307 585.5363 243.99007 585.4853 C 246.65807 583.7893 249.32507 582.0953 251.99207 580.3993 Z" fill="#3f4140"/>
          </g>
          <g id="Group_1505">
            <g id="Graphic_1511">
              <path d="M 60.89211 635.1014 C 60.18527 635.4076 59.45495 635.8576 58.716586 636.4577 C 54.38951 639.9744 51.424666 647.3126 52.09442 652.8481 C 52.478705 656.0243 53.9761 657.9169 56.00013 658.2889 C 56.00233 658.8208 56.033186 659.342 56.09442 659.8481 C 56.706625 664.9082 60.14389 666.7103 64.034924 664.29655 C 65.73719 665.8659 68.31368 665.73834 71.010075 663.6092 C 72.44202 663.7514 74.108655 663.16646 75.818435 661.7769 C 80.14551 658.2602 83.11036 650.922 82.4406 645.38646 C 82.1138 642.6854 80.98201 640.91264 79.40591 640.21394 C 79.48646 639.21415 79.47606 638.23846 79.364105 637.3131 C 78.85225 633.0825 76.36552 631.12924 73.289885 632.0134 C 71.950115 628.2193 68.435416 627.4353 64.71659 630.4577 C 63.25795 631.64315 61.95411 633.26286 60.89211 635.1014 Z" fill="white"/>
            </g>
            <g id="Graphic_1510">
              <path d="M 54.899275 638.6464 C 54.830275 640.1414 55.070275 641.7554 54.632275 643.1044 C 53.636275 646.1684 55.697275 644.3554 56.439275 644.6304 C 54.618275 646.7184 53.984275 649.2174 54.587275 651.9894 C 54.841275 653.1584 54.583275 655.8444 56.965275 653.5374 C 57.582275 652.9404 58.118275 653.5554 58.230275 654.4054 C 58.267275 654.6854 58.404275 655.0414 58.299275 655.2354 C 57.161275 657.3504 60.695275 659.6494 58.289275 661.4184 C 56.973275 662.3854 51.957275 657.0034 52.000275 654.1804 C 52.081275 648.8564 52.723275 643.5504 54.899275 638.6464 Z" fill="#2b2c2b"/>
            </g>
            <g id="Graphic_1509">
              <path d="M 77.396975 659.0324 C 77.572975 660.8684 78.805975 660.7154 79.984975 660.7144 C 91.00397 660.7114 102.02397 660.6934 113.04397 660.7504 C 114.67697 660.7584 115.86397 660.5494 115.68097 658.3374 C 117.33697 660.1644 117.66397 661.5984 114.67497 661.5664 C 101.28797 661.4224 87.89697 662.0394 74.510975 661.2704 C 73.657975 661.2214 72.903975 661.4154 72.844975 660.3274 C 72.810975 659.7074 73.126975 658.7794 73.565975 658.4674 C 74.814975 657.5804 74.416975 659.2054 74.800975 659.6494 C 76.011975 661.0534 76.482975 658.9654 77.396975 659.0324 Z" fill="#383835"/>
            </g>
            <g id="Graphic_1508">
              <path d="M 64.248075 658.5294 C 65.367075 658.4824 65.693075 659.0544 65.760075 659.7954 C 65.862075 660.9374 65.435075 661.6864 64.296075 661.7224 C 63.579075 661.7444 62.969075 661.4144 63.014075 660.5854 C 63.069075 659.5724 63.567075 658.7694 64.248075 658.5294 Z" fill="#9e9e9d"/>
            </g>
            <g id="Graphic_1507">
              <path d="M 182.4443 582.4111 C 182.4113 582.3791 182.3803 582.3441 182.3473 582.3121 C 182.3873 582.1521 182.4073 581.9851 182.4443 581.8241 C 182.4893 581.8991 182.5273 581.9641 182.5773 582.0491 C 182.5293 582.1691 182.4903 582.2911 182.4443 582.4111 M 180.50813 660.41336 C 180.86886 660.41455 181.22958 660.4155 181.5903 660.4161 C 188.7193 660.4291 188.7193 660.4061 190.3623 653.0541 C 191.9733 651.4861 191.3263 649.3481 191.5043 647.4361 C 191.7403 644.9191 192.2773 642.7081 194.6413 641.5351 C 204.1733 636.8031 213.6483 632.0031 222.7803 626.3101 C 229.2823 622.2561 236.0533 618.6591 242.6003 614.6371 C 244.3183 613.1651 246.0733 611.7661 248.0963 610.8391 C 248.4013 610.5921 248.6553 610.2921 248.8493 609.9351 C 249.2753 607.5461 247.5213 607.8911 246.3333 607.5361 C 241.8873 607.3811 238.8033 604.9031 236.8233 600.6751 C 234.5323 595.7821 235.9143 591.5591 240.4853 589.3051 C 241.5483 588.7811 242.6453 588.3431 243.3043 587.1941 C 244.0983 585.0681 242.7893 584.7451 241.4453 584.8721 C 239.9553 585.0131 238.4753 585.2431 236.9763 585.1891 C 232.3853 585.8501 227.7903 586.6811 223.2923 587.7381 C 217.0363 589.2081 210.8273 589.6521 204.4803 589.4431 C 196.6073 589.1831 190.5673 585.7161 186.5673 578.1381 C 186.0443 577.1471 185.7553 576.0951 186.4003 575.3961 C 188.4903 573.1271 188.6173 570.0421 189.5793 567.2921 C 190.0043 566.0761 190.3443 564.8431 190.6393 563.6021 C 159.7443 564.4661 128.84931 565.3041 97.93831 565.3211 C 97.27831 565.3221 96.62631 565.2861 95.98131 565.2211 C 95.60831 565.9441 95.18031 566.6711 94.70531 567.4171 C 87.66131 578.4681 80.87131 589.7171 76.00831 602.1871 C 75.40731 603.7271 74.36431 604.6591 73.30931 605.7061 C 64.40331 614.5481 58.01131 625.2211 54.11231 637.6901 C 53.39431 639.1081 53.74431 640.7321 53.35031 642.2461 C 52.45831 645.6801 54.09331 644.7181 55.65331 643.6751 C 57.17131 642.8211 57.61631 641.1151 58.28131 639.6061 C 59.60231 636.6071 61.51231 634.1611 63.97631 632.2581 C 68.23731 628.9661 71.15131 629.7031 74.76431 633.8061 C 80.14131 639.9121 79.73731 650.3201 76.61031 658.0761 C 75.99231 659.9071 76.89531 660.3501 78.31631 660.3521 C 79.525575 660.3533 80.73484 660.3543 81.94411 660.35515 L 81.94411 661.5332 L 180.5081 661.5332 Z" fill="black"/>
            </g>
            <g id="Graphic_1506">
              <path d="M 138.71487 596.5452 C 139.66287 596.2322 140.58987 595.8322 141.47787 595.3492 C 141.59487 595.1322 141.72087 594.9182 141.86387 594.7102 C 143.27987 592.6422 144.64187 590.5332 145.93387 588.3832 C 145.07487 588.0952 144.28187 587.6802 143.57487 587.1592 C 144.27287 590.9802 142.16587 594.8782 138.71487 596.5452 Z" fill="#444241"/>
            </g>
          </g>
        </g>
        <g id="Graphic_1503">
          <path d="M 167.1752 474.7803 C 172.51624 461.69446 181.32927 454.4831 181.32927 454.4831 C 190.14357 447.273 194.6825 447.5391 196.82018 453.14753 C 198.9566 458.75594 205.09974 483.0586 188.54062 498.8169 Z" fill="#030303"/>
        </g>
        <g id="Graphic_1502">
          <path d="M 168.42461 478.84584 C 172.71392 468.33737 179.79095 462.54776 179.79095 462.54776 C 186.86798 456.7569 190.51357 456.97103 192.2293 461.4745 C 193.94628 465.97793 198.87803 485.4933 185.58183 498.1458 Z" fill="#f4c9d7"/>
        </g>
        <g id="Graphic_1501">
          <path d="M 120.1861 474.7803 C 114.84507 461.69446 106.03204 454.4831 106.03204 454.4831 C 97.21774 447.273 92.67881 447.5391 90.54113 453.14753 C 88.40471 458.75594 82.26157 483.0586 98.82069 498.8169 Z" fill="#030303"/>
        </g>
        <g id="Graphic_1500">
          <path d="M 118.9367 478.84584 C 114.64739 468.33737 107.57036 462.54776 107.57036 462.54776 C 100.49333 456.7569 96.84773 456.97103 95.13201 461.4745 C 93.41502 465.97793 88.48328 485.4933 101.77948 498.1458 Z" fill="#f4c9d7"/>
        </g>
        <g id="Graphic_1499">
          <path d="M 186.3043 556.1241 C 186.05103 554.4972 185.30937 552.90225 184.50712 551.3625 C 183.7291 549.23094 183.2371 546.9697 182.52694 544.8392 C 181.8071 542.68315 181.05453 540.53456 180.30681 538.386 C 182.15611 536.50197 183.53279 534.2524 184.20052 531.7107 C 185.61355 526.3413 186.42186 520.701 185.6196 515.21476 C 185.82441 513.5178 186.0171 511.8229 186.1189 510.1355 C 186.69574 500.639 184.249 491.95853 177.11599 484.668 C 170.35744 477.76 159.42889 476.0311 149.7631 474.96957 C 148.90025 474.875 148.0362 474.80805 147.17092 474.7528 C 141.44973 472.8709 135.22198 472.0474 129.21358 471.94964 C 123.17246 471.8519 117.68516 474.33307 113.96111 478.16164 C 111.13505 479.2285 108.49805 480.77884 106.23429 482.8127 C 97.71855 490.46345 96.09708 501.726 94.63316 511.9855 C 93.47098 518.71605 91.42657 525.3531 89.90932 532.0231 C 87.55226 542.392 85.61934 553.08077 86.06409 563.68134 C 86.46764 573.31706 94.93733 581.3748 106.24156 581.3748 C 110.22858 581.3748 114.10411 580.2548 117.37492 578.3506 C 120.09191 579.5567 123.1458 580.2527 126.35602 580.28564 C 135.16382 580.37596 143.93768 581.78285 152.76245 581.9656 C 158.3358 582.0804 164.54051 581.989 169.81817 580.39615 C 175.75022 578.6046 180.44497 575.82694 183.86605 571.1228 C 187.29561 566.4069 187.12353 561.3861 186.3043 556.1241 Z" fill="#333"/>
        </g>
        <g id="Graphic_1498">
          <path d="M 195.37968 518.4543 C 193.4739 506.6115 189.62429 494.0781 182.32424 484.40724 C 177.88668 478.52766 172.96126 473.4603 166.44558 469.81474 C 159.48259 465.9195 151.92277 464.36726 144.11332 463.389 C 138.19066 462.64647 132.1058 463.11405 126.31493 464.5662 C 119.79164 466.2021 114.53043 469.5664 109.33005 473.62886 C 100.77045 480.31434 95.65623 491.24605 92.33883 501.29075 C 88.81109 511.9703 87.49959 523.4684 86.66707 534.632 C 85.92199 544.6311 85.92072 554.6745 86.09432 564.69514 C 86.20076 570.83575 86.42631 576.97636 86.41744 583.1195 C 86.4035 591.78935 93.66174 599.0248 102.32271 599.0248 C 108.21242 599.0248 113.42168 595.6909 116.17013 590.8415 C 117.37772 591.1545 118.57518 591.5093 119.74983 591.9566 C 123.06089 593.2149 126.8636 590.58935 127.7354 587.4215 C 128.74152 583.7645 126.505 580.6929 123.20154 579.4359 C 121.56945 578.815 119.89555 578.3639 118.20644 577.97234 C 118.06705 561.2181 117.28902 544.5082 119.09978 527.7856 C 119.13906 527.4295 119.20622 526.8758 119.27591 526.32457 C 119.38742 525.57315 119.49513 524.8192 119.61804 524.06904 C 120.03747 521.5018 120.5532 518.951 121.1475 516.41925 C 121.6759 514.1713 122.30567 511.9462 123.01274 509.7477 C 123.35487 508.68457 123.73375 507.6341 124.12656 506.5887 C 124.1405 506.5494 124.15697 506.51014 124.17218 506.47086 C 124.18485 506.44425 124.19752 506.41637 124.20893 506.391 C 125.08073 504.5017 126.09065 502.6808 127.20447 500.92454 C 127.34006 500.7104 127.48705 500.50385 127.6277 500.2935 C 128.0598 499.7651 128.61608 499.0935 128.98228 498.7083 C 129.49548 498.1685 130.04035 497.6629 130.59536 497.1687 C 131.35819 496.6593 132.1565 496.20694 132.9662 495.7799 C 133.88615 495.46566 134.82765 495.21856 135.77294 494.99935 C 135.90472 494.96894 136.0365 494.9436 136.16829 494.917 C 138.1894 494.77 140.22064 494.827 142.23794 495.0006 C 142.54459 495.05764 142.8525 495.1159 143.15916 495.1755 C 144.55302 495.4441 145.93168 495.7926 147.30274 496.16006 C 147.80833 496.29564 148.30632 496.4515 148.80431 496.6099 C 149.55193 496.9482 150.8026 497.51084 151.41718 497.8707 C 151.80873 498.10006 152.4233 498.52836 152.94916 498.90344 C 153.37492 499.2899 153.79182 499.6878 154.20237 500.09076 C 154.84228 500.718 155.43784 501.3883 156.02073 502.0688 C 156.33879 502.53 156.64924 502.99506 156.95209 503.4652 C 158.16475 505.34436 159.19748 507.3338 160.1377 509.3612 C 160.30243 509.7933 160.46843 510.2254 160.62682 510.6588 C 161.17043 512.1464 161.64308 513.6594 162.09292 515.1787 C 162.88869 517.8727 163.5172 520.6148 164.0684 523.3683 C 164.35098 524.78244 164.59174 526.2029 164.8211 527.6272 C 164.8553 527.84515 164.88572 528.0631 164.91866 528.28105 C 164.96301 528.6232 165.0061 528.9552 165.03397 529.1972 C 165.74104 535.3226 166.01728 541.4949 166.06797 547.6583 C 166.14146 556.8768 165.60292 566.1042 164.62595 575.2733 C 163.47664 576.3149 162.45912 577.5529 161.619 578.98606 C 157.36518 586.24936 159.68787 596.66534 167.32498 600.7481 C 172.58999 603.56244 177.2303 604.5863 183.1162 603.2659 C 187.98966 602.17364 193.427 597.2647 194.22404 592.1581 C 198.04577 567.7084 199.3256 542.9749 195.37968 518.4543 Z" fill="#000302"/>
        </g>
        <g id="Graphic_1497">
          <path d="M 153.40962 579.8108 L 153.77549 569.62184 L 123.79853 567.0026 L 123.42302 577.4597 C 123.42582 577.4601 123.42861 577.4604 123.43141 577.4608 C 123.4059 583.11274 129.41327 588.2043 137.31327 589.0346 C 145.45891 589.8907 152.57834 585.8971 153.38861 580.07844 C 153.3924 580.0786 153.3962 580.0788 153.39999 580.079 L 153.40428 579.95936 C 153.41035 579.91036 153.41598 579.86124 153.42116 579.812 Z" fill="#d2b9a4"/>
        </g>
        <g id="Graphic_1496">
          <path d="M 177.80317 532.14395 C 177.76642 553.1419 167.50124 571.65496 141.12551 573.1958 C 114.18716 574.7734 101.8654 553.0101 101.90088 532.0122 C 101.93762 511.0142 118.95798 494.0205 139.91792 494.0572 C 160.87785 494.09397 177.83992 511.146 177.80317 532.14395 Z" fill="#ffddaf"/>
        </g>
        <g id="Graphic_1495">
          <path d="M 172.8552 544.68304 C 180.76982 545.8311 180.10077 535.35555 180.10077 535.35555 L 176.51473 530.8635 Z" fill="#ffddaf"/>
        </g>
        <g id="Graphic_1494">
          <path d="M 106.80614 544.5686 C 98.88772 545.6888 99.59352 535.2158 99.59352 535.2158 L 103.1935 530.7364 Z" fill="#ffddaf"/>
        </g>
        <g id="Graphic_1493">
          <path d="M 137.39515 509.6485 C 127.09195 531.4625 99.5479 536.9898 99.5479 536.9898 C 88.55791 484.8846 139.93451 484.9733 139.93451 484.9733 C 186.31855 485.0544 184.47484 534.5467 181.09916 537.13044 C 156.19965 532.39384 137.39515 509.6485 137.39515 509.6485 Z" fill="#ff6530"/>
        </g>
        <g id="Graphic_1492">
          <path d="M 166.37259 544.43265 C 166.37259 544.7634 166.1521 545.032 165.88094 545.03074 C 165.6085 545.0295 165.38928 544.7621 165.38928 544.4314 C 165.39055 544.10066 165.61103 543.832 165.8822 543.8333 C 166.15337 543.8333 166.37259 544.1019 166.37259 544.43265 Z" fill="#dca380"/>
        </g>
        <g id="Graphic_1491">
          <path d="M 114.7897 544.3432 C 114.7897 544.6739 115.00891 544.94255 115.28008 544.94255 C 115.55125 544.9438 115.77174 544.6752 115.773 544.34446 C 115.773 544.0137 115.55379 543.74636 115.28135 543.7451 C 115.01018 543.7451 114.7897 544.01246 114.7897 544.3432 Z" fill="#dca380"/>
        </g>
        <g id="Group_1484">
          <g id="Graphic_1490">
            <path d="M 100.1716 535.0863 C 97.66644 544.12106 100.1716 551.02576 100.1716 551.02576 C 96.73002 557.9292 100.22608 564.6261 100.22608 564.6261 C 97.43075 570.53353 100.24129 576.185 100.24129 576.185 L 103.83366 576.44986 C 108.92507 567.5228 105.48856 564.79715 105.48856 564.79715 C 110.0655 555.3784 105.5139 549.5318 105.5139 549.5318 C 109.95146 535.5526 107.54007 535.474 107.54007 535.474 Z" fill="#ff6530"/>
          </g>
          <g id="Graphic_1489">
            <path d="M 99.3411 576.1829 L 104.50474 576.19174 L 104.50221 577.4804 L 99.33857 577.47156 Z" fill="#722645"/>
          </g>
          <g id="Graphic_1488">
            <path d="M 104.08874 578.0732 C 106.66232 583.0176 103.81503 587.2474 103.81503 587.2474 C 100.96775 591.4771 102.25897 591.24396 101.99794 592.4199 C 101.73817 593.5958 94.00856 584.35954 99.95783 578.0656 Z" fill="#ff6530"/>
          </g>
          <g id="Graphic_1487">
            <path d="M 100.1716 535.0863 C 97.66644 544.12106 100.1716 551.02576 100.1716 551.02576 C 96.73002 557.9292 100.22608 564.6261 100.22608 564.6261 C 97.43075 570.53353 100.24129 576.185 100.24129 576.185 L 103.83366 576.44986 C 108.92507 567.5228 105.48856 564.79715 105.48856 564.79715 C 110.0655 555.3784 105.5139 549.5318 105.5139 549.5318 C 109.95146 535.5526 107.54007 535.474 107.54007 535.474 Z" fill="#ff6530"/>
          </g>
          <g id="Graphic_1486">
            <path d="M 99.3411 576.1829 L 104.50474 576.19174 L 104.50221 577.4804 L 99.33857 577.47156 Z" fill="#722645"/>
          </g>
          <g id="Graphic_1485">
            <path d="M 104.08874 578.0732 C 106.66232 583.0176 103.81503 587.2474 103.81503 587.2474 C 100.96775 591.4771 102.25897 591.24396 101.99794 592.4199 C 101.73817 593.5958 94.00856 584.35954 99.95783 578.0656 Z" fill="#ff6530"/>
          </g>
        </g>
        <g id="Group_1477">
          <g id="Graphic_1483">
            <path d="M 173.70255 537.5907 C 171.1974 546.62545 173.70255 553.53015 173.70255 553.53015 C 170.26097 560.4336 173.75703 567.1305 173.75703 567.1305 C 170.96297 573.0379 173.77224 578.6894 173.77224 578.6894 L 177.3646 578.95425 C 182.45602 570.0272 179.0195 567.30154 179.0195 567.30154 C 183.59645 557.8828 179.04485 552.0362 179.04485 552.0362 C 183.48241 538.057 181.07102 537.9784 181.07102 537.9784 Z" fill="#ff6530"/>
          </g>
          <g id="Graphic_1482">
            <path d="M 172.87206 578.6873 L 178.0357 578.69614 L 178.03316 579.9848 L 172.86952 579.97596 Z" fill="#722645"/>
          </g>
          <g id="Graphic_1481">
            <path d="M 177.61969 580.5776 C 180.19327 585.522 177.34598 589.7518 177.34598 589.7518 C 174.4987 593.9815 175.78992 593.74836 175.5289 594.9243 C 175.26912 596.1002 167.5395 586.8639 173.48878 580.57 Z" fill="#ff6530"/>
          </g>
          <g id="Graphic_1480">
            <path d="M 173.70255 537.5907 C 171.1974 546.62545 173.70255 553.53015 173.70255 553.53015 C 170.26097 560.4336 173.75703 567.1305 173.75703 567.1305 C 170.96297 573.0379 173.77224 578.6894 173.77224 578.6894 L 177.3646 578.95425 C 182.45602 570.0272 179.0195 567.30154 179.0195 567.30154 C 183.59645 557.8828 179.04485 552.0362 179.04485 552.0362 C 183.48241 538.057 181.07102 537.9784 181.07102 537.9784 Z" fill="#ff6530"/>
          </g>
          <g id="Graphic_1479">
            <path d="M 172.87206 578.6873 L 178.0357 578.69614 L 178.03316 579.9848 L 172.86952 579.97596 Z" fill="#722645"/>
          </g>
          <g id="Graphic_1478">
            <path d="M 177.61969 580.5776 C 180.19327 585.522 177.34598 589.7518 177.34598 589.7518 C 174.4987 593.9815 175.78992 593.74836 175.5289 594.9243 C 175.26912 596.1002 167.5395 586.8639 173.48878 580.57 Z" fill="#ff6530"/>
          </g>
        </g>
        <g id="Graphic_1476">
          <path d="M 177.80317 532.14395 C 177.76642 553.1419 167.50124 571.65496 141.12551 573.1958 C 114.18716 574.7734 101.8654 553.0101 101.90088 532.0122 C 101.93762 511.0142 118.95798 494.0205 139.91792 494.0572 C 160.87785 494.09397 177.83992 511.146 177.80317 532.14395 Z" fill="#fcdec3"/>
        </g>
        <g id="Graphic_1475">
          <path d="M 172.8552 544.68304 C 180.76982 545.8311 180.10077 535.35555 180.10077 535.35555 L 176.51473 530.8635 Z" fill="#fcdec3"/>
        </g>
        <g id="Graphic_1474">
          <path d="M 106.80614 544.5686 C 98.88772 545.6888 99.59352 535.2158 99.59352 535.2158 L 103.1935 530.7364 Z" fill="#fcdec3"/>
        </g>
        <g id="Graphic_1473">
          <path d="M 137.49842 499.28574 C 127.19522 519.05835 99.54727 532.12393 99.54727 532.12393 C 88.55854 484.89344 139.93388 484.9733 139.93388 484.9733 C 186.31918 485.04677 184.47548 529.90895 181.09979 532.2519 C 156.20029 527.95754 137.49842 499.28574 137.49842 499.28574 Z" fill="#ff6530"/>
        </g>
        <g id="Graphic_1472">
          <path d="M 114.7897 544.3432 C 114.7897 544.6739 115.00891 544.94255 115.28008 544.94255 C 115.55125 544.9438 115.77174 544.6752 115.773 544.34446 C 115.773 544.0137 115.55379 543.74636 115.28135 543.7451 C 115.01018 543.7451 114.7897 544.01246 114.7897 544.3432 Z" fill="#dca380"/>
        </g>
        <g id="Graphic_1471">
          <path d="M 167.20929 532.053 L 163.76264 532.16955 L 163.6486 528.97506 C 163.54596 528.31615 162.9504 527.8663 162.31809 527.9702 C 161.79476 528.0564 161.3956 528.5024 161.34999 529.05236 L 161.46403 532.2481 L 158.01738 532.3647 C 157.4497 532.31654 156.95424 532.7575 156.91116 533.348 C 156.86808 533.9385 157.29257 534.45676 157.86025 534.5049 C 157.93755 534.51124 158.01611 534.5087 158.09341 534.49604 L 161.54006 534.37946 L 161.65537 537.5752 C 161.75674 538.23286 162.3523 538.684 162.98334 538.58006 C 163.50794 538.4939 163.9071 538.04786 163.95271 537.4979 L 163.83867 534.30216 L 167.28532 534.1843 C 167.853 534.2325 168.34846 533.7928 168.39154 533.201 C 168.43462 532.6105 168.01013 532.0935 167.44244 532.0454 C 167.36515 532.03903 167.28658 532.04157 167.20929 532.053 Z" fill="#000100"/>
        </g>
        <g id="Graphic_1470">
          <path d="M 162.66896 520.5944 C 163.55597 519.3779 165.99396 519.75933 168.1139 521.44464 C 170.23385 523.1312 170.70523 524.32614 170.34663 526.6995 C 169.98929 529.07416 168.62837 525.33226 166.50716 523.64695 C 164.38722 521.96164 161.78196 521.81085 162.66896 520.5944 Z" fill="#212121"/>
        </g>
        <g id="Graphic_1469">
          <path d="M 113.84947 524.5502 C 116.42432 524.46274 118.67097 528.8724 118.86865 534.39847 C 119.06633 539.9258 117.14026 544.4761 114.56541 544.56355 C 111.99056 544.651 109.74263 540.2413 109.54496 534.71525 C 109.34728 529.18795 111.27462 524.6376 113.84947 524.5502 Z" fill="#222929"/>
        </g>
        <g id="Graphic_1468">
          <path d="M 119.41061 532.10176 C 119.43975 533.40185 118.73268 534.4713 117.83301 534.4878 C 116.93333 534.50554 116.18064 533.46394 116.15277 532.16385 C 116.12362 530.8625 116.82943 529.7943 117.7291 529.7778 C 118.63005 529.76006 119.38147 530.80166 119.41061 532.10176 Z" fill="white"/>
        </g>
        <g id="Graphic_1467">
          <path d="M 106.67778 516.8529 C 106.94388 515.2753 109.24756 513.5874 111.82494 513.08183 C 114.40106 512.57624 116.2739 513.4455 116.00907 515.0231 C 115.74297 516.6007 113.91954 515.4324 111.34343 515.938 C 108.76604 516.4436 106.41168 518.4305 106.67778 516.8529 Z" fill="#212121"/>
        </g>
        <g id="Group_1462">
          <g id="Graphic_1466">
            <path d="M 117.89027 552.76914 C 121.8385 561.82075 129.57298 567.965 138.46865 567.93915 C 147.36421 567.9154 155.07917 561.8741 159 552.80084 Z" fill="#2b2a29"/>
          </g>
          <g id="Graphic_1465">
            <path d="M 120.35982 553.67005 C 123.74372 561.70906 130.37188 567.1659 137.99445 567.14334 C 145.6169 567.12285 152.22769 561.7586 155.58708 553.7006 Z" fill="#eee"/>
          </g>
          <g id="Line_1464">
            <line x1="122.76082" y1="559.0753" x2="129.38022" y2="558.93856" stroke="#93bf6b" stroke-linecap="round" stroke-linejoin="round" stroke-width="1"/>
          </g>
          <g id="Line_1463">
            <line x1="148.92119" y1="558.5357" x2="155.53952" y2="558.3994" stroke="#93bf6b" stroke-linecap="round" stroke-linejoin="round" stroke-width="1"/>
          </g>
        </g>
      </g>
    </g>
  </g>
</svg>
