<svg xmlns="http://www.w3.org/2000/svg" viewBox="0 0 87.32 114.95"><defs><style>.cls-1{fill:#fac9b1;}.cls-2{fill:#ed9e7f;}.cls-3,.cls-4{fill:none;stroke-linejoin:round;}.cls-3{stroke:#4b2414;}.cls-4{stroke:#ed9e7f;stroke-linecap:square;}</style></defs><title>no finger</title><g id="Layer_2" data-name="Layer 2"><g id="Layer_1-2" data-name="Layer 1"><g id="Layer_2-2" data-name="Layer 2"><g id="Layer_1-2-2" data-name="Layer 1-2"><path class="cls-1" d="M84.09,60.26a36.62,36.62,0,0,1-.32,30.37c-7.53,13.76-32.83,24.44-48.56,19.65-14.76-4.49-20-20.21-15.76-29.08C9.79,33,7.27,22.08,7.27,22.08c-2.52-10.95,9.12-20,14.23-6.3s11,32.31,11,32.31c-.19-5.52,6.59-8.55,6.59-8.55,6.78-3,9.44,1.65,9.44,1.65,1.72-3.81,9.29-4.12,9.29-4.12,5.9-.24,9.67,8.63,9.67,8.63,1-4.07,9-5.49,13.08,1.67Z"/><path class="cls-2" d="M45.78,88.39a21.86,21.86,0,0,1,5-4c1.9-.91,2.78-1.22,2.78-1.22a4.23,4.23,0,0,0,5,2.43c3.59-1,7.59-4.38,7.59-4.38,1.07,2.34,4.67,2.06,4.67,2.06,3.6-.28,9.95-8.91,9.95-8.91-4.41,5-7.66,4.16-7.66,4.16a10.34,10.34,0,0,1-5.28-3.82,17.94,17.94,0,0,1-5.61,3.69c-2.63.92-8.65-2.89-8.65-2.89l-8,4C47.28,85.64,45.78,88.39,45.78,88.39Z"/><path class="cls-2" d="M68.9,50.21c1.63,15.21,6.38,18.23,6.38,18.23,4.75,3,7.6,1.28,7.6,1.28-4.13,9.34-9.15,8.38-9.15,8.38-5-1-5.85-2.64-4.77-8.69S69.42,51,68.9,50.21Z"/><path class="cls-2" d="M50.7,63.73C47.25,69.37,45.36,71,45.36,71c-1.89,1.65-2.08,2.28-2.08,2.28a19.72,19.72,0,0,1,2.1,4.12c.77,2.2.57,3.74,4.08,2.51s3.91-9.26,3-13.88S50.7,63.73,50.7,63.73Z"/><path class="cls-2" d="M51.15,39.66c2.11,22.93,8.6,28.79,8.6,28.79,6.49,5.86,8.16,4.29,8.16,4.29-2.16,7.91-8.29,6.6-8.29,6.6-6.12-1.3-6.94-6.39-7.29-10.26s-1-9-1-9a20.26,20.26,0,0,0-.77-7.13C49.61,50.1,48.06,40,48.06,40Z"/><path class="cls-2" d="M35.82,41.66C35.71,46.95,38,49.77,38,49.77a31.74,31.74,0,0,0,3.69,4l-7.76,6C28.43,45.89,35.82,41.66,35.82,41.66Z"/><path class="cls-2" d="M74.37,100.81a7.73,7.73,0,0,0-.95-.58C44.75,108.46,34,95.62,34,95.62c-10.74-12.84-4.69-31.23-4.69-31.23L18.62,79.64l.82,1.57c-4.29,8.87,1,24.59,15.76,29.08C46.71,113.78,63.33,109,74.37,100.81Z"/><path class="cls-3" d="M19.71,81.08c-4.29,8.87,1,24.59,15.76,29.08,15.73,4.79,41-5.89,48.56-19.65,4.39-8,2.79-18.48.69-25.82"/><path class="cls-2" d="M13.86,9.95C10.1,14.18,15.5,34.31,15.5,34.31c5.41,20.14,10.72,34.38,10.72,34.38l-7.3,10.12C10.85,37.95,8.18,23.73,8.18,23.73,5.51,9.54,9.83,9.67,13.86,9.95Z"/><path class="cls-3" d="M45.8,89.87c3.54-7.13-2-16.06-2-16.06,11.87-9.18,7.43-19.61,7.43-19.61-2.86-6.73-11.87,1.46-17.84,6.5S19.71,81.08,19.71,81.08C17.35,65.9,15,55.53,15,55.53,12.66,44.88,9.76,31.08,7.55,21,4.92,9,18,5.95,22,16.28c3.57,9.27,10.21,32.91,10.21,32.91-.5-7.06,7.36-9.15,7.36-9.15,7.25-1.93,9.22,1,9.22,1,4.22-4.74,11.8-2.8,11.8-2.8,9.79,2.51,11.61,28,7,37-3.4,6.65-13.94,6.82-14.28-3.22,1.2,8.13-5.86,8.62-5.86,8.62"/><path class="cls-3" d="M68.23,74.29c3.85,9.29,13.3,2.71,15.08-3.53,2.29-8,.34-17.1-3.3-24.46-2.79-5.64-11.63-4.28-12-.1"/><line class="cls-3" x1="53.36" y1="72.03" x2="52.13" y2="61.94"/><path class="cls-3" d="M48.8,41.06a61.44,61.44,0,0,1,2,11.48"/><path class="cls-3" d="M32.21,49.19a57.6,57.6,0,0,0,2.14,9.87"/><path class="cls-4" d="M21.93,3.79c7.77,8.05,12,28.42,12,28.42"/><path class="cls-4" d="M2,7.57c1.6-2.2,5.95-6.27,10.89-7"/><path class="cls-4" d="M12.36,89.55c-1,18.7,17.41,24.77,17.41,24.77"/><path class="cls-4" d="M.62,30.59c6.51,22.8,8.59,34.36,8.59,34.36"/></g></g></g></g></svg>