<?xml version="1.0"?>
<!DOCTYPE svg PUBLIC "-//W3C//DTD SVG 1.1//EN" "http://www.w3.org/Graphics/SVG/1.1/DTD/svg11.dtd">
<svg xmlns="http://www.w3.org/2000/svg" xmlns:xl="http://www.w3.org/1999/xlink" version="1.1" viewBox="336 322 87 83" width="87pt" height="83pt"><metadata xmlns:dc="http://purl.org/dc/elements/1.1/"><dc:date>2016-12-06 04:45Z</dc:date><!-- Produced by OmniGraffle Professional 5.4.2 --></metadata><defs></defs><g stroke="none" stroke-opacity="1" stroke-dasharray="none" fill="none" fill-opacity="1"><title>21</title><g><title>Layer 1</title><path d="M 362.09284 329.20056 L 396.62567 329.20056 C 404.90994 329.20056 411.62567 335.91629 411.62567 344.20056 L 411.62567 374.18882 C 411.62567 382.4731 404.90994 389.18882 396.62567 389.18882 L 362.09284 389.18882 C 353.80856 389.18882 347.09284 382.4731 347.09284 374.18882 C 347.09284 374.18882 347.09284 374.18882 347.09284 374.18882 L 347.09284 344.20056 C 347.09284 335.91629 353.80856 329.20056 362.09284 329.20056 C 362.09284 329.20056 362.09284 329.20056 362.09284 329.20056 Z" fill="#45ca9b"/><path d="M 362.09284 329.20056 L 396.62567 329.20056 C 404.90994 329.20056 411.62567 335.91629 411.62567 344.20056 L 411.62567 374.18882 C 411.62567 382.4731 404.90994 389.18882 396.62567 389.18882 L 362.09284 389.18882 C 353.80856 389.18882 347.09284 382.4731 347.09284 374.18882 C 347.09284 374.18882 347.09284 374.18882 347.09284 374.18882 L 347.09284 344.20056 C 347.09284 335.91629 353.80856 329.20056 362.09284 329.20056 C 362.09284 329.20056 362.09284 329.20056 362.09284 329.20056 Z" stroke="black" stroke-linecap="round" stroke-linejoin="round" stroke-width=".5"/><path d="M 379.80136 358.25043 C 381.3564 359.16115 381.87907 361.16114 380.9661 362.71675 C 380.05537 364.27235 378.05595 364.79277 376.5009 363.88148 C 374.94586 362.97076 374.4232 360.97133 375.33392 359.41516 C 376.2469 357.86068 378.24575 357.33801 379.80136 358.25043 M 380.36176 357.29352 C 378.27842 356.07246 375.59807 356.77142 374.37757 358.85532 C 373.15708 360.93923 373.8566 363.6179 375.9405 364.83839 C 378.0244 366.05944 380.70364 365.36105 381.92526 363.27658 C 383.14519 361.19493 382.44567 358.51458 380.36176 357.29352" fill="#3c3c3b"/><path d="M 381.85514 354.74462 C 385.3454 356.7908 386.51802 361.27851 384.47185 364.77046 C 382.42624 368.26073 377.93852 369.43335 374.44713 367.38661 C 370.95574 365.34157 369.78425 360.85328 371.82985 357.3619 C 373.8766 353.86938 378.3643 352.69957 381.85514 354.74462 M 383.11224 352.59763 C 378.4364 349.85701 372.42292 351.42726 369.68287 356.1048 C 366.94225 360.7812 368.5125 366.79523 373.1889 369.53472 C 377.8653 372.27478 383.87878 370.70566 386.61883 366.0287 C 389.36114 361.3506 387.79033 355.33881 383.11224 352.59763" fill="#3c3c3b"/><path d="M 385.3766 348.7362 C 392.1859 352.72605 394.47145 361.48183 390.48105 368.29058 C 386.4912 375.09988 377.73655 377.38598 370.92612 373.39558 C 364.1168 369.40462 361.83183 360.65165 365.82167 353.84122 C 369.8115 347.03304 378.5656 344.7458 385.3766 348.7362 M 387.82942 344.54868 C 378.7064 339.20374 366.97852 342.26652 361.63414 351.3884 C 356.28808 360.50916 359.3503 372.23817 368.47274 377.58367 C 377.59462 382.92918 389.32307 379.8664 394.668 370.74508 C 400.0135 361.6232 396.95186 349.89475 387.82942 344.54868" fill="#3c3c3b"/><path d="M 378.89824 359.94836 C 378.25843 359.57326 377.4367 359.78897 377.06102 360.42766 C 376.68705 361.06747 376.90107 361.8892 377.54089 362.26375 C 378.1807 362.63829 379.00187 362.42427 379.37641 361.78389 C 379.75152 361.14463 379.53693 360.3229 378.89824 359.94836 Z" fill="#3c3c3b"/><path d="M 406.89767 348.83415 C 406.58734 347.77474 405.66647 347.52467 405.66647 347.52467 C 405.6614 347.49482 405.65352 347.46666 405.63944 347.4385 L 405.43105 347.02622 C 405.40627 346.9761 405.36853 346.9361 405.32573 346.9057 C 405.76504 345.97807 405.06214 345.02961 405.06214 345.02961 C 402.64875 345.99103 401.60004 347.85528 401.19903 348.83134 L 378.32618 360.62681 C 378.16285 360.71186 378.09808 360.91405 378.18143 361.07851 L 378.38982 361.49191 C 378.47262 361.65637 378.67256 361.72227 378.8359 361.63723 L 401.85968 349.76459 C 402.95064 349.98988 404.88247 350.0997 406.89767 348.83415 Z" fill="#3c3c3b"/></g></g></svg>
