<?xml version="1.0"?>
<!DOCTYPE svg PUBLIC "-//W3C//DTD SVG 1.1//EN" "http://www.w3.org/Graphics/SVG/1.1/DTD/svg11.dtd">
<svg xmlns="http://www.w3.org/2000/svg" xmlns:xl="http://www.w3.org/1999/xlink" version="1.1" viewBox="439 323 87 83" width="87pt" height="83pt"><metadata xmlns:dc="http://purl.org/dc/elements/1.1/"><dc:date>2016-12-06 04:46Z</dc:date><!-- Produced by OmniGraffle Professional 5.4.2 --></metadata><defs></defs><g stroke="none" stroke-opacity="1" stroke-dasharray="none" fill="none" fill-opacity="1"><title>23</title><g><title>Layer 1</title><path d="M 465.27633 330.04354 L 499.80916 330.04354 C 508.09343 330.04354 514.80916 336.75927 514.80916 345.04354 L 514.80916 375.0318 C 514.80916 383.31608 508.09343 390.0318 499.80916 390.0318 L 465.27633 390.0318 C 456.99206 390.0318 450.27633 383.31608 450.27633 375.0318 C 450.27633 375.0318 450.27633 375.0318 450.27633 375.0318 L 450.27633 345.04354 C 450.27633 336.75927 456.99206 330.04354 465.27633 330.04354 C 465.27633 330.04354 465.27633 330.04354 465.27633 330.04354 Z" fill="#38ca9e"/><path d="M 465.27633 330.04354 L 499.80916 330.04354 C 508.09343 330.04354 514.80916 336.75927 514.80916 345.04354 L 514.80916 375.0318 C 514.80916 383.31608 508.09343 390.0318 499.80916 390.0318 L 465.27633 390.0318 C 456.99206 390.0318 450.27633 383.31608 450.27633 375.0318 C 450.27633 375.0318 450.27633 375.0318 450.27633 375.0318 L 450.27633 345.04354 C 450.27633 336.75927 456.99206 330.04354 465.27633 330.04354 C 465.27633 330.04354 465.27633 330.04354 465.27633 330.04354 Z" stroke="black" stroke-linecap="round" stroke-linejoin="round" stroke-width=".5"/><path d="M 487.12689 380.58865 C 487.33018 379.8697 487.78563 378.6597 488.75427 377.44526 C 490.80418 374.87561 494.04355 373.57264 498.38296 373.57264 L 498.8701 373.57264 C 499.91118 373.57264 500.85627 373.1565 501.5499 372.48287 L 501.5499 380.58865 Z M 485.715 370.35717 L 490.78222 370.35717 L 490.78222 374.20075 C 489.70627 374.82072 488.69938 375.6392 487.84017 376.7162 C 486.6036 378.26657 486.10476 379.81338 485.9183 380.58865 L 485.715 380.58865 Z M 480.0845 380.58865 L 469.24668 380.58865 L 469.24668 369.28494 L 471.87778 369.28494 L 471.87778 375.42404 C 471.87778 375.74686 472.1395 376.00894 472.46232 376.00894 L 477.33475 376.00894 C 477.6574 376.00894 477.91948 375.74686 477.91948 375.42404 L 477.91948 369.28494 L 481.71985 369.28494 L 481.71985 380.58865 Z M 461.06122 373.37767 L 461.84074 373.37767 L 461.84074 380.58865 L 461.06122 380.58865 Z M 460.8882 365.6629 L 467.04696 365.6629 L 466.7167 368.63576 C 466.69847 368.80115 466.75124 368.96637 466.8619 369.09015 C 466.97294 369.21428 467.13143 369.28494 467.2977 369.28494 L 468.0774 369.28494 L 468.0774 372.2084 L 459.9787 372.2084 Z M 467.20032 373.37767 L 468.0774 373.37767 L 468.0774 380.58865 L 467.20032 380.58865 Z M 465.10543 373.37767 L 466.03104 373.37767 L 466.03104 380.58865 L 465.10543 380.58865 Z M 463.93598 380.58865 L 463.01 380.58865 L 463.01 373.37767 L 463.93598 373.37767 Z M 475.48318 369.28494 L 476.74985 369.28494 L 476.74985 374.83931 L 475.48318 374.83931 Z M 473.04705 369.28494 L 474.3139 369.28494 L 474.3139 374.83931 L 473.04705 374.83931 Z M 468.89305 359.63784 L 479.28372 359.63784 L 479.28372 364.60766 C 479.28372 364.93048 479.54545 365.19239 479.86827 365.19239 L 483.0839 365.19239 L 483.0839 368.11566 L 467.95115 368.11566 Z M 489.36928 342.97348 L 498.06935 352.33424 L 498.06935 372.40567 C 496.21742 372.43347 494.01363 372.71591 491.9515 373.6123 L 491.9515 369.77227 C 491.9515 369.44963 491.68977 369.18754 491.36677 369.18754 L 485.13046 369.18754 C 484.80746 369.18754 484.54573 369.44963 484.54573 369.77227 L 484.54573 380.58865 L 482.88895 380.58865 L 482.88895 369.28494 L 483.66882 369.28494 C 483.99146 369.28494 484.25337 369.02321 484.25337 368.70021 L 484.25337 364.60766 C 484.25337 364.28484 483.99146 364.02293 483.66882 364.02293 L 480.453 364.02293 L 480.453 352.56728 Z M 481.81742 343.46205 L 483.86343 343.46205 L 483.86343 347.17973 L 481.81742 349.38157 Z M 501.1458 368.31045 L 499.23862 368.31045 L 499.23862 367.06964 C 500.04275 367.18067 500.7341 367.64994 501.1458 368.31045 M 501.49607 370.2596 L 499.23862 370.2596 L 499.23862 369.48008 L 501.5384 369.48008 C 501.54565 369.5603 501.5499 369.64158 501.5499 369.72357 C 501.5499 369.90703 501.5315 370.08606 501.49607 370.2596 M 499.23862 371.42888 L 500.9356 371.42888 C 500.51787 371.9341 499.91827 372.28366 499.23862 372.37733 Z M 499.23862 365.8924 L 499.23862 353.59242 L 500.33653 354.7739 C 500.5563 355.0105 500.92622 355.02395 501.1628 354.8042 C 501.3992 354.58426 501.41284 354.21433 501.19308 353.9781 L 486.8115 338.50374 C 486.59156 338.26734 486.22164 338.25388 485.98506 338.47346 C 485.74865 338.69322 485.7352 339.06315 485.95495 339.29973 L 488.57082 342.11446 L 485.03306 345.92155 L 485.03306 342.87733 C 485.03306 342.5545 484.77098 342.2926 484.44833 342.2926 L 481.2327 342.2926 C 480.90987 342.2926 480.6478 342.5545 480.6478 342.87733 L 480.6478 350.63974 L 477.54548 353.9781 C 477.32572 354.21433 477.33936 354.58426 477.57576 354.8042 C 477.6882 354.90885 477.8313 354.96038 477.97384 354.96038 C 478.13038 354.96038 478.28675 354.89787 478.40203 354.7739 L 479.28372 353.82528 L 479.28372 358.46856 L 468.3696 358.46856 C 468.07192 358.46856 467.82135 358.69275 467.78859 358.98865 L 467.17712 364.49362 L 460.3791 364.49362 C 460.08727 364.49362 459.84023 364.70877 459.80021 364.99777 L 458.72816 372.71237 C 458.70478 372.88025 458.75525 373.04936 458.86628 373.17704 C 458.9773 373.30454 459.1381 373.37767 459.30704 373.37767 L 459.89177 373.37767 L 459.89177 381.17355 C 459.89177 381.4962 460.15367 381.7581 460.47667 381.7581 L 502.13463 381.7581 C 502.45745 381.7581 502.71918 381.49638 502.71918 381.17355 L 502.71918 369.72357 C 502.71936 367.72537 501.18866 366.07868 499.23862 365.8924" fill="#020302"/><path d="M 484.35087 358.46861 L 483.18142 358.46861 L 483.18142 355.93492 L 484.35087 355.93492 Z M 486.68942 358.46861 L 485.52014 358.46861 L 485.52014 355.93492 L 486.68942 355.93492 Z M 485.52014 359.6379 L 486.68942 359.6379 L 486.68942 362.17159 L 485.52014 362.17159 Z M 483.18142 359.6379 L 484.35087 359.6379 L 484.35087 362.17159 L 483.18142 362.17159 Z M 482.5967 363.34086 L 487.27415 363.34086 C 487.59697 363.34086 487.85887 363.07896 487.85887 362.75614 L 487.85887 355.3502 C 487.85887 355.02755 487.59697 354.76564 487.27415 354.76564 L 482.5967 354.76564 C 482.27387 354.76564 482.01214 355.02755 482.01214 355.3502 L 482.01214 362.75614 C 482.01214 363.07896 482.27387 363.34086 482.5967 363.34086" fill="#020302"/><path d="M 493.0235 358.46861 L 491.85403 358.46861 L 491.85403 355.93492 L 493.0235 355.93492 Z M 495.36204 358.46861 L 494.19276 358.46861 L 494.19276 355.93492 L 495.36204 355.93492 Z M 494.19294 359.6379 L 495.36222 359.6379 L 495.36222 362.17159 L 494.19294 362.17159 Z M 491.8542 359.6379 L 493.02366 359.6379 L 493.02366 362.17159 L 491.8542 362.17159 Z M 490.68476 355.3502 L 490.68476 362.75614 C 490.68476 363.07896 490.94666 363.34086 491.26948 363.34086 L 495.94676 363.34086 C 496.2696 363.34086 496.5315 363.07896 496.5315 362.75614 L 496.5315 355.3502 C 496.5315 355.02755 496.2696 354.76564 495.94676 354.76564 L 491.26948 354.76564 C 490.94666 354.76564 490.68476 355.02737 490.68476 355.3502" fill="#020302"/><path d="M 489.3693 346.67768 C 489.96022 346.67768 490.44118 347.15863 490.44118 347.74956 C 490.44118 348.34066 489.96022 348.82144 489.3693 348.82144 C 488.7782 348.82144 488.29724 348.34066 488.29724 347.74956 C 488.29724 347.15863 488.7782 346.67768 489.3693 346.67768 M 489.3693 349.9909 C 490.60516 349.9909 491.61046 348.98542 491.61046 347.74956 C 491.61046 346.5137 490.60516 345.50823 489.3693 345.50823 C 488.13344 345.50823 487.12797 346.5137 487.12797 347.74956 C 487.12797 348.98542 488.13344 349.9909 489.3693 349.9909" fill="#020302"/></g></g></svg>
