<?xml version="1.0"?>
<!DOCTYPE svg PUBLIC "-//W3C//DTD SVG 1.1//EN" "http://www.w3.org/Graphics/SVG/1.1/DTD/svg11.dtd">
<svg xmlns="http://www.w3.org/2000/svg" xmlns:xl="http://www.w3.org/1999/xlink" version="1.1" viewBox="133 322 88 83" width="88pt" height="83pt"><metadata xmlns:dc="http://purl.org/dc/elements/1.1/"><dc:date>2016-12-05 22:51Z</dc:date><!-- Produced by OmniGraffle Professional 5.4.2 --></metadata><defs></defs><g stroke="none" stroke-opacity="1" stroke-dasharray="none" fill="none" fill-opacity="1"><title>18</title><g><title>Layer 1</title><path d="M 159.92986 329.8661 L 194.46269 329.8661 C 202.74696 329.8661 209.46269 336.58182 209.46269 344.8661 L 209.46269 374.85436 C 209.46269 383.13863 202.74696 389.85436 194.46269 389.85436 L 159.92986 389.85436 C 151.64559 389.85436 144.92986 383.13863 144.92986 374.85436 C 144.92986 374.85436 144.92986 374.85436 144.92986 374.85435 L 144.92986 344.8661 C 144.92986 336.58182 151.64559 329.8661 159.92986 329.8661 C 159.92986 329.8661 159.92986 329.8661 159.92986 329.8661 Z" fill="#57ca93"/><path d="M 159.92986 329.8661 L 194.46269 329.8661 C 202.74696 329.8661 209.46269 336.58182 209.46269 344.8661 L 209.46269 374.85436 C 209.46269 383.13863 202.74696 389.85436 194.46269 389.85436 L 159.92986 389.85436 C 151.64559 389.85436 144.92986 383.13863 144.92986 374.85436 C 144.92986 374.85436 144.92986 374.85436 144.92986 374.85435 L 144.92986 344.8661 C 144.92986 336.58182 151.64559 329.8661 159.92986 329.8661 C 159.92986 329.8661 159.92986 329.8661 159.92986 329.8661 Z" stroke="black" stroke-linecap="round" stroke-linejoin="round" stroke-width=".5"/><path d="M 158.36225 341.25477 C 158.36225 340.776 158.75123 340.38701 159.23001 340.38701 L 195.16207 340.38701 C 195.64085 340.38701 196.02983 340.776 196.02983 341.25477 L 196.02983 369.07122 L 158.36225 369.07122 Z M 198.42845 369.07122 L 197.56164 369.07122 L 197.56164 341.25477 C 197.56164 339.93186 196.48497 338.85615 195.16207 338.85615 L 177.96194 338.85615 L 177.96194 337.1712 C 177.96194 336.74867 177.61881 336.406 177.19628 336.406 C 176.77327 336.406 176.43061 336.74867 176.43061 337.1712 L 176.43061 338.85615 L 159.23001 338.85615 C 157.9071 338.85615 156.83139 339.93186 156.83139 341.25477 L 156.83139 369.07122 L 155.96363 369.07122 C 155.54062 369.07122 155.19796 369.41435 155.19796 369.83736 C 155.19796 370.2599 155.54062 370.60303 155.96363 370.60303 L 167.10836 370.60303 L 162.59611 382.6349 C 162.44818 383.03096 162.6481 383.47193 163.04417 383.6208 C 163.13303 383.65342 163.22377 383.6695 163.31357 383.6695 C 163.62315 383.6695 163.91476 383.4795 164.03009 383.17228 L 168.74367 370.60303 L 176.43061 370.60303 L 176.43061 382.90335 C 176.43061 383.32636 176.77327 383.66902 177.19628 383.66902 C 177.61881 383.66902 177.96194 383.32636 177.96194 382.90335 L 177.96194 370.60303 L 185.6484 370.60303 L 190.36199 383.17228 C 190.47731 383.4795 190.76893 383.66902 191.07898 383.66902 C 191.1683 383.66902 191.25952 383.65342 191.34791 383.6208 C 191.7435 383.47193 191.94437 383.03096 191.79549 382.6349 L 187.28372 370.60303 L 198.42845 370.60303 C 198.85193 370.60303 199.19459 370.2599 199.19459 369.83736 C 199.19459 369.41435 198.85193 369.07122 198.42845 369.07122" fill="#020302"/><path d="M 169.84624 355.90323 C 170.32502 355.90323 170.71399 356.29221 170.71399 356.771 C 170.71399 357.24977 170.32502 357.63875 169.84624 357.63875 C 169.36793 357.63875 168.97848 357.24977 168.97848 356.771 C 168.97848 356.29221 169.36793 355.90323 169.84624 355.90323 M 169.84624 359.16961 C 171.16914 359.16961 172.24533 358.0939 172.24533 356.771 C 172.24533 355.44809 171.16914 354.37237 169.84624 354.37237 C 168.52333 354.37237 167.44762 355.44809 167.44762 356.771 C 167.44762 358.0939 168.52333 359.16961 169.84624 359.16961" fill="#020302"/><path d="M 175.5119 356.77094 C 175.5119 356.29217 175.90088 355.90319 176.37966 355.90319 C 176.85796 355.90319 177.24741 356.29217 177.24741 356.77094 C 177.24741 357.24972 176.85796 357.6387 176.37966 357.6387 C 175.90088 357.6387 175.5119 357.24972 175.5119 356.77094 M 178.77828 356.77094 C 178.77828 355.44804 177.70256 354.37232 176.37966 354.37232 C 175.05675 354.37232 173.98056 355.44804 173.98056 356.77094 C 173.98056 358.09385 175.05675 359.16957 176.37966 359.16957 C 177.70256 359.16957 178.77828 358.09385 178.77828 356.77094" fill="#020302"/><path d="M 182.04475 356.77094 C 182.04475 356.29217 182.4342 355.90319 182.91251 355.90319 C 183.39129 355.90319 183.78027 356.29217 183.78027 356.77094 C 183.78027 357.24972 183.39129 357.6387 182.91251 357.6387 C 182.4342 357.6387 182.04475 357.24972 182.04475 356.77094 M 185.3116 356.77094 C 185.3116 355.44804 184.23541 354.37232 182.91251 354.37232 C 181.59008 354.37232 180.51389 355.44804 180.51389 356.77094 C 180.51389 358.09385 181.59008 359.16957 182.91251 359.16957 C 184.23541 359.16957 185.3116 358.09385 185.3116 356.77094" fill="#020302"/><path d="M 173.98042 361.67084 C 173.98042 362.14915 173.59144 362.5386 173.11314 362.5386 C 172.63436 362.5386 172.24538 362.14915 172.24538 361.67084 C 172.24538 361.19207 172.63436 360.80309 173.11314 360.80309 C 173.59144 360.80309 173.98042 361.19207 173.98042 361.67084 M 170.71404 361.67084 C 170.71404 362.99375 171.79023 364.06947 173.11314 364.06947 C 174.43557 364.06947 175.51176 362.99375 175.51176 361.67084 C 175.51176 360.34794 174.43557 359.27175 173.11314 359.27175 C 171.79023 359.27175 170.71404 360.34794 170.71404 361.67084" fill="#020302"/><path d="M 179.64604 360.80313 C 180.12481 360.80313 180.51379 361.19211 180.51379 361.6709 C 180.51379 362.1492 180.12481 362.53865 179.64604 362.53865 C 179.16726 362.53865 178.77828 362.1492 178.77828 361.6709 C 178.77828 361.19211 179.16726 360.80313 179.64604 360.80313 M 179.64604 364.06951 C 180.96894 364.06951 182.04466 362.9938 182.04466 361.6709 C 182.04466 360.34799 180.96894 359.2718 179.64604 359.2718 C 178.32313 359.2718 177.24741 360.34799 177.24741 361.6709 C 177.24741 362.9938 178.32313 364.06951 179.64604 364.06951" fill="#020302"/><path d="M 186.99588 366.6215 C 186.51711 366.6215 186.12813 366.23253 186.12813 365.75375 C 186.12813 365.27544 186.51711 364.88646 186.99588 364.88646 C 187.47466 364.88646 187.86364 365.27544 187.86364 365.75375 C 187.86364 366.23253 187.47466 366.6215 186.99588 366.6215 M 186.99588 363.35513 C 185.67298 363.35513 184.59726 364.43132 184.59726 365.75375 C 184.59726 367.07665 185.67298 368.15284 186.99588 368.15284 C 188.31879 368.15284 189.39451 367.07665 189.39451 365.75375 C 189.39451 364.43132 188.31879 363.35513 186.99588 363.35513" fill="#020302"/><path d="M 189.44583 355.90323 C 189.92414 355.90323 190.31359 356.29221 190.31359 356.771 C 190.31359 357.24977 189.92414 357.63875 189.44583 357.63875 C 188.96706 357.63875 188.57808 357.24977 188.57808 356.771 C 188.57808 356.29221 188.96706 355.90323 189.44583 355.90323 M 187.04721 356.771 C 187.04721 358.0939 188.12293 359.16961 189.44583 359.16961 C 190.76874 359.16961 191.84446 358.0939 191.84446 356.771 C 191.84446 355.44809 190.76874 354.37237 189.44583 354.37237 C 188.12293 354.37237 187.04721 355.44809 187.04721 356.771" fill="#020302"/><path d="M 177.47121 353.22897 C 177.62056 353.37833 177.8167 353.45347 178.01285 353.45347 C 178.20899 353.45347 178.40466 353.37833 178.55449 353.22897 L 179.64627 352.13719 L 180.73806 353.22897 C 180.88788 353.37833 181.08355 353.45347 181.2797 353.45347 C 181.47537 353.45347 181.67151 353.37833 181.82086 353.22897 C 182.12004 352.9298 182.12004 352.44534 181.82086 352.14617 L 180.72908 351.05438 L 181.82086 349.9626 C 182.12004 349.66342 182.12004 349.17896 181.82086 348.87979 C 181.52169 348.5806 181.03724 348.5806 180.73806 348.87979 L 179.64627 349.97157 L 178.55449 348.87979 C 178.25531 348.5806 177.77086 348.5806 177.47168 348.87979 C 177.1725 349.17896 177.1725 349.66342 177.47168 349.9626 L 178.56394 351.05438 L 177.47168 352.14617 C 177.1725 352.44534 177.1725 352.93027 177.47121 353.22897 Z" fill="#020302"/><path d="M 170.93831 353.22897 C 171.08766 353.37833 171.28333 353.45347 171.47995 353.45347 C 171.67562 353.45347 171.87176 353.37833 172.02111 353.22897 L 173.11337 352.13719 L 174.20469 353.22897 C 174.35451 353.37833 174.55065 353.45347 174.74633 353.45347 C 174.94247 353.45347 175.13814 353.37833 175.28749 353.22897 C 175.58667 352.9298 175.58667 352.44534 175.28749 352.14617 L 174.19571 351.05438 L 175.28749 349.9626 C 175.58667 349.66342 175.58667 349.17896 175.28749 348.87979 C 174.98831 348.5806 174.50386 348.5806 174.20469 348.87979 L 173.11337 349.97157 L 172.02111 348.87979 C 171.72194 348.5806 171.23748 348.5806 170.93831 348.87979 C 170.63913 349.17896 170.63913 349.66342 170.93831 349.9626 L 172.03057 351.05438 L 170.93831 352.14617 C 170.63913 352.44534 170.63913 352.93027 170.93831 353.22897 Z" fill="#020302"/><path d="M 185.08734 348.87974 C 184.78816 348.58103 184.30371 348.58103 184.00453 348.87974 C 183.70535 349.17892 183.70535 349.66337 184.00453 349.96255 L 185.09679 351.0548 L 184.00453 352.14612 C 183.70535 352.4453 183.70535 352.93022 184.00453 353.22893 C 184.15388 353.37875 184.35003 353.45343 184.5457 353.45343 C 184.74231 353.45343 184.93799 353.37875 185.08734 353.22893 L 186.1796 352.13761 L 187.27091 353.22893 C 187.42074 353.37875 187.61688 353.45343 187.81302 353.45343 C 188.00869 353.45343 188.20484 353.37875 188.35372 353.22893 C 188.6529 352.92975 188.6529 352.4453 188.35372 352.14612 L 187.26193 351.0548 L 188.35372 349.96255 C 188.6529 349.66337 188.6529 349.17892 188.35372 348.87974 C 188.05454 348.58056 187.57009 348.58056 187.27091 348.87974 L 186.1796 349.972 Z" fill="#020302"/><path d="M 174.20473 347.5126 C 174.35409 347.66195 174.55023 347.7371 174.74637 347.7371 C 174.94252 347.7371 175.13819 347.66195 175.28754 347.5126 L 176.3798 346.42034 L 177.47111 347.5126 C 177.62094 347.66195 177.81708 347.7371 178.01275 347.7371 C 178.2089 347.7371 178.40457 347.66195 178.55439 347.5126 C 178.8531 347.21342 178.8531 346.72897 178.55439 346.4298 L 177.4626 345.338 L 178.55439 344.24622 C 178.8531 343.94704 178.8531 343.46259 178.55439 343.16341 C 178.25474 342.86423 177.77029 342.86423 177.47158 343.16341 L 176.3798 344.2552 L 175.28801 343.16341 C 174.98836 342.86423 174.50391 342.86423 174.20521 343.16341 C 173.90603 343.46259 173.90603 343.94704 174.20521 344.24622 L 175.29699 345.338 L 174.20473 346.4298 C 173.90603 346.72897 173.90603 347.21342 174.20473 347.5126 Z" fill="#020302"/><path d="M 180.73811 347.5126 C 180.88746 347.66195 181.08313 347.7371 181.27975 347.7371 C 181.47542 347.7371 181.67156 347.66195 181.82091 347.5126 L 182.9127 346.42034 L 184.00448 347.5126 C 184.15431 347.66195 184.35045 347.7371 184.54612 347.7371 C 184.7418 347.7371 184.93794 347.66195 185.08729 347.5126 C 185.38647 347.21342 185.38647 346.72897 185.08729 346.4298 L 183.9955 345.338 L 185.08729 344.24622 C 185.38647 343.94704 185.38647 343.46259 185.08729 343.16341 C 184.78811 342.86423 184.30366 342.86423 184.00448 343.16341 L 182.91317 344.2552 L 181.82091 343.16341 C 181.52173 342.86423 181.03728 342.86423 180.73811 343.16341 C 180.43893 343.46259 180.43893 343.94704 180.73811 344.24622 L 181.82989 345.338 L 180.73811 346.4298 C 180.43893 346.72897 180.43893 347.21342 180.73811 347.5126 Z" fill="#020302"/><path d="M 183.67822 365.7538 C 183.67822 365.33079 183.33556 364.9886 182.91256 364.9886 L 172.29623 364.9886 C 168.66545 364.9886 165.71196 362.03463 165.71196 358.40432 L 165.71196 351.84746 L 165.89487 352.21375 C 166.0291 352.48174 166.29944 352.63676 166.58019 352.63676 C 166.69551 352.63676 166.81178 352.6103 166.92238 352.55594 C 167.30048 352.36689 167.45362 351.90701 167.26456 351.52843 L 165.63114 348.26205 C 165.50164 348.00258 165.23649 347.83905 164.94676 347.83905 C 164.65657 347.83905 164.39142 348.00258 164.261915 348.26205 L 162.62849 351.52843 C 162.43896 351.90701 162.59304 352.36689 162.97068 352.55594 C 163.34926 352.74547 163.80913 352.59139 163.99818 352.21375 L 164.18109 351.84746 L 164.18109 358.40432 C 164.18109 362.87923 167.82133 366.51946 172.29671 366.51946 L 182.91303 366.51946 C 183.33556 366.51946 183.67822 366.1768 183.67822 365.7538 Z" fill="#020302"/></g></g></svg>
