<?xml version="1.0"?>
<!DOCTYPE svg PUBLIC "-//W3C//DTD SVG 1.1//EN" "http://www.w3.org/Graphics/SVG/1.1/DTD/svg11.dtd">
<svg xmlns="http://www.w3.org/2000/svg" xmlns:xl="http://www.w3.org/1999/xlink" version="1.1" viewBox="123 322 87 83" width="87pt" height="83pt"><metadata xmlns:dc="http://purl.org/dc/elements/1.1/"><dc:date>2016-12-06 20:38Z</dc:date><!-- Produced by OmniGraffle Professional 5.4.2 --></metadata><defs></defs><g stroke="none" stroke-opacity="1" stroke-dasharray="none" fill="none" fill-opacity="1"><title>22</title><g><title>Layer 1</title><path d="M 149.44186 329.75334 L 183.97469 329.75334 C 192.25896 329.75334 198.97469 336.46907 198.97469 344.75334 L 198.97469 374.7416 C 198.97469 383.02588 192.25896 389.7416 183.97469 389.7416 L 149.44186 389.7416 C 141.157585 389.7416 134.441856 383.02588 134.441856 374.7416 C 134.441856 374.7416 134.441856 374.7416 134.441856 374.7416 L 134.441856 344.75334 C 134.441856 336.46907 141.157585 329.75334 149.44186 329.75334 C 149.44186 329.75334 149.44186 329.75334 149.44186 329.75334 Z" stroke="black" stroke-linecap="round" stroke-linejoin="round" stroke-width=".5"/><path d="M 147.87425 342.94672 C 147.87425 342.46794 148.26323 342.07896 148.74201 342.07896 L 184.67407 342.07896 C 185.15285 342.07896 185.54183 342.46794 185.54183 342.94672 L 185.54183 370.76316 L 147.87425 370.76316 Z M 187.94045 370.76316 L 187.07364 370.76316 L 187.07364 342.94672 C 187.07364 341.62381 185.99697 340.5481 184.67407 340.5481 L 167.47394 340.5481 L 167.47394 338.86315 C 167.47394 338.44062 167.13081 338.09796 166.70828 338.09796 C 166.28527 338.09796 165.94261 338.44062 165.94261 338.86315 L 165.94261 340.5481 L 148.74201 340.5481 C 147.419105 340.5481 146.34339 341.62381 146.34339 342.94672 L 146.34339 370.76316 L 145.47563 370.76316 C 145.05262 370.76316 144.70996 371.1063 144.70996 371.5293 C 144.70996 371.95184 145.05262 372.29497 145.47563 372.29497 L 156.62036 372.29497 L 152.108115 384.32684 C 151.96018 384.7229 152.160105 385.16387 152.55617 385.31275 C 152.64503 385.34537 152.73577 385.36144 152.82557 385.36144 C 153.13515 385.36144 153.42677 385.17144 153.54209 384.86422 L 158.25568 372.29497 L 165.94261 372.29497 L 165.94261 384.5953 C 165.94261 385.0183 166.28527 385.36096 166.70828 385.36096 C 167.13081 385.36096 167.47394 385.0183 167.47394 384.5953 L 167.47394 372.29497 L 175.1604 372.29497 L 179.87399 384.86422 C 179.98931 385.17144 180.28093 385.36096 180.59098 385.36096 C 180.68031 385.36096 180.77152 385.34537 180.85991 385.31275 C 181.2555 385.16387 181.45637 384.7229 181.30749 384.32684 L 176.79572 372.29497 L 187.94045 372.29497 C 188.36393 372.29497 188.70659 371.95184 188.70659 371.5293 C 188.70659 371.1063 188.36393 370.76316 187.94045 370.76316" fill="#020302"/><path d="M 159.35824 357.59518 C 159.83702 357.59518 160.226 357.98416 160.226 358.46294 C 160.226 358.94172 159.83702 359.3307 159.35824 359.3307 C 158.87993 359.3307 158.49048 358.94172 158.49048 358.46294 C 158.49048 357.98416 158.87993 357.59518 159.35824 357.59518 M 159.35824 360.86156 C 160.68114 360.86156 161.75733 359.78584 161.75733 358.46294 C 161.75733 357.14003 160.68114 356.06432 159.35824 356.06432 C 158.03533 356.06432 156.95962 357.14003 156.95962 358.46294 C 156.95962 359.78584 158.03533 360.86156 159.35824 360.86156" fill="#020302"/><path d="M 165.0239 358.4629 C 165.0239 357.98411 165.41288 357.59513 165.89166 357.59513 C 166.36996 357.59513 166.75942 357.98411 166.75942 358.4629 C 166.75942 358.94167 166.36996 359.33065 165.89166 359.33065 C 165.41288 359.33065 165.0239 358.94167 165.0239 358.4629 M 168.29028 358.4629 C 168.29028 357.13999 167.21456 356.06427 165.89166 356.06427 C 164.56875 356.06427 163.49256 357.13999 163.49256 358.4629 C 163.49256 359.7858 164.56875 360.86151 165.89166 360.86151 C 167.21456 360.86151 168.29028 359.7858 168.29028 358.4629" fill="#020302"/><path d="M 171.55675 358.4629 C 171.55675 357.98411 171.9462 357.59513 172.42451 357.59513 C 172.90329 357.59513 173.29227 357.98411 173.29227 358.4629 C 173.29227 358.94167 172.90329 359.33065 172.42451 359.33065 C 171.9462 359.33065 171.55675 358.94167 171.55675 358.4629 M 174.8236 358.4629 C 174.8236 357.13999 173.74742 356.06427 172.42451 356.06427 C 171.10208 356.06427 170.02589 357.13999 170.02589 358.4629 C 170.02589 359.7858 171.10208 360.86151 172.42451 360.86151 C 173.74742 360.86151 174.8236 359.7858 174.8236 358.4629" fill="#020302"/><path d="M 163.49242 363.3628 C 163.49242 363.8411 163.10344 364.23055 162.62514 364.23055 C 162.14636 364.23055 161.75738 363.8411 161.75738 363.3628 C 161.75738 362.88401 162.14636 362.49503 162.62514 362.49503 C 163.10344 362.49503 163.49242 362.88401 163.49242 363.3628 M 160.22604 363.3628 C 160.22604 364.6857 161.30223 365.76141 162.62514 365.76141 C 163.94757 365.76141 165.02376 364.6857 165.02376 363.3628 C 165.02376 362.03989 163.94757 360.9637 162.62514 360.9637 C 161.30223 360.9637 160.22604 362.03989 160.22604 363.3628" fill="#020302"/><path d="M 169.15804 362.49508 C 169.63682 362.49508 170.02579 362.88406 170.02579 363.36284 C 170.02579 363.84114 169.63682 364.2306 169.15804 364.2306 C 168.67926 364.2306 168.29028 363.84114 168.29028 363.36284 C 168.29028 362.88406 168.67926 362.49508 169.15804 362.49508 M 169.15804 365.76146 C 170.48094 365.76146 171.55666 364.68574 171.55666 363.36284 C 171.55666 362.03993 170.48094 360.96374 169.15804 360.96374 C 167.83513 360.96374 166.75942 362.03993 166.75942 363.36284 C 166.75942 364.68574 167.83513 365.76146 169.15804 365.76146" fill="#020302"/><path d="M 176.50789 368.31345 C 176.02911 368.31345 175.64013 367.92447 175.64013 367.4457 C 175.64013 366.96739 176.02911 366.5784 176.50789 366.5784 C 176.98666 366.5784 177.37564 366.96739 177.37564 367.4457 C 177.37564 367.92447 176.98666 368.31345 176.50789 368.31345 M 176.50789 365.04707 C 175.18498 365.04707 174.10926 366.12326 174.10926 367.4457 C 174.10926 368.7686 175.18498 369.84479 176.50789 369.84479 C 177.83079 369.84479 178.90651 368.7686 178.90651 367.4457 C 178.90651 366.12326 177.83079 365.04707 176.50789 365.04707" fill="#020302"/><path d="M 178.95784 357.59518 C 179.43614 357.59518 179.82559 357.98416 179.82559 358.46294 C 179.82559 358.94172 179.43614 359.3307 178.95784 359.3307 C 178.47906 359.3307 178.09008 358.94172 178.09008 358.46294 C 178.09008 357.98416 178.47906 357.59518 178.95784 357.59518 M 176.55921 358.46294 C 176.55921 359.78584 177.63493 360.86156 178.95784 360.86156 C 180.28074 360.86156 181.35646 359.78584 181.35646 358.46294 C 181.35646 357.14003 180.28074 356.06432 178.95784 356.06432 C 177.63493 356.06432 176.55921 357.14003 176.55921 358.46294" fill="#020302"/><path d="M 166.98321 354.92092 C 167.13256 355.07027 167.3287 355.14542 167.52485 355.14542 C 167.72099 355.14542 167.91666 355.07027 168.06649 354.92092 L 169.15827 353.82913 L 170.25006 354.92092 C 170.39988 355.07027 170.59556 355.14542 170.7917 355.14542 C 170.98737 355.14542 171.18351 355.07027 171.33287 354.92092 C 171.63204 354.62174 171.63204 354.1373 171.33287 353.83811 L 170.24108 352.74633 L 171.33287 351.65454 C 171.63204 351.35536 171.63204 350.87091 171.33287 350.57173 C 171.03369 350.27256 170.54924 350.27256 170.25006 350.57173 L 169.15827 351.66352 L 168.06649 350.57173 C 167.76731 350.27256 167.28286 350.27256 166.98368 350.57173 C 166.6845 350.87091 166.6845 351.35536 166.98368 351.65454 L 168.07594 352.74633 L 166.98368 353.83811 C 166.6845 354.1373 166.6845 354.62221 166.98321 354.92092 Z" fill="#020302"/><path d="M 160.45031 354.92092 C 160.59966 355.07027 160.79533 355.14542 160.99195 355.14542 C 161.18762 355.14542 161.38376 355.07027 161.53311 354.92092 L 162.62537 353.82913 L 163.71669 354.92092 C 163.86651 355.07027 164.06266 355.14542 164.25833 355.14542 C 164.45447 355.14542 164.65014 355.07027 164.79949 354.92092 C 165.09867 354.62174 165.09867 354.1373 164.79949 353.83811 L 163.70771 352.74633 L 164.79949 351.65454 C 165.09867 351.35536 165.09867 350.87091 164.79949 350.57173 C 164.50032 350.27256 164.01586 350.27256 163.71669 350.57173 L 162.62537 351.66352 L 161.53311 350.57173 C 161.23394 350.27256 160.74949 350.27256 160.45031 350.57173 C 160.15113 350.87091 160.15113 351.35536 160.45031 351.65454 L 161.54257 352.74633 L 160.45031 353.83811 C 160.15113 354.1373 160.15113 354.62221 160.45031 354.92092 Z" fill="#020302"/><path d="M 174.59934 350.57169 C 174.30016 350.27298 173.81571 350.27298 173.51653 350.57169 C 173.21736 350.87086 173.21736 351.35531 173.51653 351.6545 L 174.60879 352.74675 L 173.51653 353.83807 C 173.21736 354.13724 173.21736 354.62217 173.51653 354.92087 C 173.66589 355.0707 173.86203 355.14537 174.0577 355.14537 C 174.25432 355.14537 174.44999 355.0707 174.59934 354.92087 L 175.6916 353.82956 L 176.78291 354.92087 C 176.93274 355.0707 177.12888 355.14537 177.32502 355.14537 C 177.5207 355.14537 177.71684 355.0707 177.86572 354.92087 C 178.1649 354.6217 178.1649 354.13724 177.86572 353.83807 L 176.77393 352.74675 L 177.86572 351.6545 C 178.1649 351.35531 178.1649 350.87086 177.86572 350.57169 C 177.56654 350.2725 177.08209 350.2725 176.78291 350.57169 L 175.6916 351.66395 Z" fill="#020302"/><path d="M 163.71673 349.20454 C 163.86609 349.3539 164.06223 349.42904 164.25837 349.42904 C 164.45452 349.42904 164.65019 349.3539 164.79954 349.20454 L 165.8918 348.11228 L 166.98311 349.20454 C 167.13294 349.3539 167.32908 349.42904 167.52475 349.42904 C 167.7209 349.42904 167.91657 349.3539 168.06639 349.20454 C 168.3651 348.90536 168.3651 348.42091 168.06639 348.12174 L 166.97461 347.02995 L 168.06639 345.93816 C 168.3651 345.63899 168.3651 345.15453 168.06639 344.85536 C 167.76674 344.55618 167.28229 344.55618 166.98359 344.85536 L 165.8918 345.94714 L 164.80001 344.85536 C 164.50036 344.55618 164.01591 344.55618 163.71721 344.85536 C 163.41803 345.15453 163.41803 345.63899 163.71721 345.93816 L 164.80899 347.02995 L 163.71673 348.12174 C 163.41803 348.42091 163.41803 348.90536 163.71673 349.20454 Z" fill="#020302"/><path d="M 170.25011 349.20454 C 170.39946 349.3539 170.59513 349.42904 170.79175 349.42904 C 170.98742 349.42904 171.18356 349.3539 171.33291 349.20454 L 172.4247 348.11228 L 173.51649 349.20454 C 173.66631 349.3539 173.86245 349.42904 174.05813 349.42904 C 174.2538 349.42904 174.44994 349.3539 174.59929 349.20454 C 174.89847 348.90536 174.89847 348.42091 174.59929 348.12174 L 173.50751 347.02995 L 174.59929 345.93816 C 174.89847 345.63899 174.89847 345.15453 174.59929 344.85536 C 174.30011 344.55618 173.81566 344.55618 173.51649 344.85536 L 172.42517 345.94714 L 171.33291 344.85536 C 171.03374 344.55618 170.54928 344.55618 170.25011 344.85536 C 169.95093 345.15453 169.95093 345.63899 170.25011 345.93816 L 171.34189 347.02995 L 170.25011 348.12174 C 169.95093 348.42091 169.95093 348.90536 170.25011 349.20454 Z" fill="#020302"/><path d="M 173.19023 367.44574 C 173.19023 367.02273 172.84757 366.68055 172.42456 366.68055 L 161.808235 366.68055 C 158.17745 366.68055 155.22396 363.72658 155.22396 360.09627 L 155.22396 353.5394 L 155.40687 353.9057 C 155.5411 354.17368 155.811445 354.3287 156.09219 354.3287 C 156.20751 354.3287 156.32378 354.30224 156.43438 354.24789 C 156.812485 354.05883 156.96562 353.59896 156.776565 353.22038 L 155.14314 349.954 C 155.01364 349.69452 154.74849 349.531 154.45876 349.531 C 154.16857 349.531 153.90342 349.69452 153.77392 349.954 L 152.14049 353.22038 C 151.95096 353.59896 152.10504 354.05883 152.48268 354.24789 C 152.86126 354.43741 153.32113 354.28333 153.51019 353.9057 L 153.6931 353.5394 L 153.6931 360.09627 C 153.6931 364.57118 157.33333 368.2114 161.80871 368.2114 L 172.42503 368.2114 C 172.84757 368.2114 173.19023 367.86875 173.19023 367.44574 Z" fill="#020302"/></g></g></svg>
