<?xml version="1.0"?>
<!DOCTYPE svg PUBLIC "-//W3C//DTD SVG 1.1//EN" "http://www.w3.org/Graphics/SVG/1.1/DTD/svg11.dtd">
<svg xmlns="http://www.w3.org/2000/svg" xmlns:xl="http://www.w3.org/1999/xlink" version="1.1" viewBox="435 322 88 83" width="88pt" height="83pt"><metadata xmlns:dc="http://purl.org/dc/elements/1.1/"><dc:date>2016-12-05 22:51Z</dc:date><!-- Produced by OmniGraffle Professional 5.4.2 --></metadata><defs></defs><g stroke="none" stroke-opacity="1" stroke-dasharray="none" fill="none" fill-opacity="1"><title>18</title><g><title>Layer 1</title><path d="M 461.52835 329.8661 L 496.06118 329.8661 C 504.34545 329.8661 511.06118 336.58182 511.06118 344.8661 L 511.06118 374.85436 C 511.06118 383.13863 504.34545 389.85436 496.06118 389.85436 L 461.52835 389.85436 C 453.24408 389.85436 446.52835 383.13863 446.52835 374.85436 C 446.52835 374.85436 446.52835 374.85436 446.52835 374.85435 L 446.52835 344.8661 C 446.52835 336.58182 453.24408 329.8661 461.52835 329.8661 C 461.52835 329.8661 461.52835 329.8661 461.52835 329.8661 Z" fill="#e6e6e6"/><path d="M 461.52835 329.8661 L 496.06118 329.8661 C 504.34545 329.8661 511.06118 336.58182 511.06118 344.8661 L 511.06118 374.85436 C 511.06118 383.13863 504.34545 389.85436 496.06118 389.85436 L 461.52835 389.85436 C 453.24408 389.85436 446.52835 383.13863 446.52835 374.85436 C 446.52835 374.85436 446.52835 374.85436 446.52835 374.85435 L 446.52835 344.8661 C 446.52835 336.58182 453.24408 329.8661 461.52835 329.8661 C 461.52835 329.8661 461.52835 329.8661 461.52835 329.8661 Z" stroke="black" stroke-linecap="round" stroke-linejoin="round" stroke-width=".5"/><path d="M 483.98237 379.20427 C 484.18566 378.48531 484.64112 377.2753 485.60976 376.06088 C 487.65967 373.49123 490.89904 372.18826 495.23845 372.18826 L 495.7256 372.18826 C 496.76667 372.18826 497.71176 371.77211 498.4054 371.0985 L 498.4054 379.20427 Z M 482.5705 368.9728 L 487.6377 368.9728 L 487.6377 372.81637 C 486.56176 373.43634 485.55487 374.25481 484.69566 375.33183 C 483.4591 376.88219 482.96025 378.429 482.7738 379.20427 L 482.5705 379.20427 Z M 476.93998 379.20427 L 466.10217 379.20427 L 466.10217 367.90056 L 468.73326 367.90056 L 468.73326 374.03966 C 468.73326 374.36248 468.995 374.62456 469.31781 374.62456 L 474.19024 374.62456 C 474.51288 374.62456 474.77497 374.36248 474.77497 374.03966 L 474.77497 367.90056 L 478.57534 367.90056 L 478.57534 379.20427 Z M 457.9167 371.9933 L 458.69623 371.9933 L 458.69623 379.20427 L 457.9167 379.20427 Z M 457.7437 364.27851 L 463.90245 364.27851 L 463.5722 367.25137 C 463.55395 367.41677 463.60672 367.58199 463.7174 367.70577 C 463.82843 367.8299 463.98692 367.90056 464.1532 367.90056 L 464.9329 367.90056 L 464.9329 370.82401 L 456.8342 370.82401 Z M 464.0558 371.9933 L 464.9329 371.9933 L 464.9329 379.20427 L 464.0558 379.20427 Z M 461.96092 371.9933 L 462.88653 371.9933 L 462.88653 379.20427 L 461.96092 379.20427 Z M 460.79147 379.20427 L 459.8655 379.20427 L 459.8655 371.9933 L 460.79147 371.9933 Z M 472.33867 367.90056 L 473.60534 367.90056 L 473.60534 373.45493 L 472.33867 373.45493 Z M 469.90254 367.90056 L 471.1694 367.90056 L 471.1694 373.45493 L 469.90254 373.45493 Z M 465.74854 358.25346 L 476.1392 358.25346 L 476.1392 363.22328 C 476.1392 363.5461 476.40094 363.808 476.72376 363.808 L 479.9394 363.808 L 479.9394 366.73128 L 464.80664 366.73128 Z M 486.22477 341.5891 L 494.92484 350.94986 L 494.92484 371.02128 C 493.0729 371.04909 490.8691 371.33153 488.807 372.22793 L 488.807 368.3879 C 488.807 368.06525 488.54526 367.80316 488.22226 367.80316 L 481.98595 367.80316 C 481.66295 367.80316 481.40122 368.06525 481.40122 368.3879 L 481.40122 379.20427 L 479.74443 379.20427 L 479.74443 367.90056 L 480.5243 367.90056 C 480.84695 367.90056 481.10886 367.63883 481.10886 367.31583 L 481.10886 363.22328 C 481.10886 362.90046 480.84695 362.63855 480.5243 362.63855 L 477.3085 362.63855 L 477.3085 351.1829 Z M 478.6729 342.07767 L 480.71892 342.07767 L 480.71892 345.79534 L 478.6729 347.99719 Z M 498.0013 366.92607 L 496.0941 366.92607 L 496.0941 365.68526 C 496.89824 365.79629 497.58957 366.26556 498.0013 366.92607 M 498.35156 368.87522 L 496.0941 368.87522 L 496.0941 368.0957 L 498.39388 368.0957 C 498.40114 368.17592 498.4054 368.2572 498.4054 368.3392 C 498.4054 368.52265 498.38698 368.70168 498.35156 368.87522 M 496.0941 370.0445 L 497.7911 370.0445 C 497.37336 370.54971 496.77376 370.89927 496.0941 370.99295 Z M 496.0941 364.50801 L 496.0941 352.20803 L 497.19202 353.38953 C 497.41178 353.62611 497.7817 353.63957 498.0183 353.41981 C 498.2547 353.19987 498.26833 352.82995 498.04857 352.59372 L 483.667 337.11936 C 483.44705 336.88296 483.07713 336.8695 482.84055 337.08908 C 482.60414 337.30884 482.59068 337.67877 482.81044 337.91535 L 485.4263 340.73008 L 481.88855 344.53717 L 481.88855 341.49295 C 481.88855 341.17013 481.62647 340.90822 481.30382 340.90822 L 478.08818 340.90822 C 477.76536 340.90822 477.50328 341.17013 477.50328 341.49295 L 477.50328 349.25536 L 474.40097 352.59372 C 474.1812 352.82995 474.19484 353.19987 474.43125 353.41981 C 474.5437 353.52447 474.68678 353.576 474.82933 353.576 C 474.98587 353.576 475.14224 353.51349 475.25752 353.38953 L 476.1392 352.4409 L 476.1392 357.08418 L 465.22508 357.08418 C 464.9274 357.08418 464.67683 357.30837 464.64407 357.60427 L 464.0326 363.10924 L 457.23459 363.10924 C 456.94275 363.10924 456.69572 363.3244 456.6557 363.6134 L 455.58365 371.328 C 455.56027 371.49587 455.61074 371.66498 455.72177 371.79266 C 455.8328 371.92016 455.9936 371.9933 456.16253 371.9933 L 456.74726 371.9933 L 456.74726 379.78917 C 456.74726 380.11182 457.00916 380.37372 457.33216 380.37372 L 498.99012 380.37372 C 499.31294 380.37372 499.57467 380.112 499.57467 379.78917 L 499.57467 368.3392 C 499.57485 366.341 498.04415 364.6943 496.0941 364.50801" fill="#020302"/><path d="M 481.20636 357.08423 L 480.0369 357.08423 L 480.0369 354.55054 L 481.20636 354.55054 Z M 483.5449 357.08423 L 482.37563 357.08423 L 482.37563 354.55054 L 483.5449 354.55054 Z M 482.37563 358.2535 L 483.5449 358.2535 L 483.5449 360.7872 L 482.37563 360.7872 Z M 480.0369 358.2535 L 481.20636 358.2535 L 481.20636 360.7872 L 480.0369 360.7872 Z M 479.45218 361.95648 L 484.12964 361.95648 C 484.45246 361.95648 484.71436 361.69458 484.71436 361.37176 L 484.71436 353.9658 C 484.71436 353.64316 484.45246 353.38126 484.12964 353.38126 L 479.45218 353.38126 C 479.12936 353.38126 478.86763 353.64316 478.86763 353.9658 L 478.86763 361.37176 C 478.86763 361.69458 479.12936 361.95648 479.45218 361.95648" fill="#020302"/><path d="M 489.87898 357.08423 L 488.70952 357.08423 L 488.70952 354.55054 L 489.87898 354.55054 Z M 492.21753 357.08423 L 491.04825 357.08423 L 491.04825 354.55054 L 492.21753 354.55054 Z M 491.04843 358.2535 L 492.2177 358.2535 L 492.2177 360.7872 L 491.04843 360.7872 Z M 488.7097 358.2535 L 489.87915 358.2535 L 489.87915 360.7872 L 488.7097 360.7872 Z M 487.54025 353.9658 L 487.54025 361.37176 C 487.54025 361.69458 487.80215 361.95648 488.12497 361.95648 L 492.80225 361.95648 C 493.12508 361.95648 493.38698 361.69458 493.38698 361.37176 L 493.38698 353.9658 C 493.38698 353.64316 493.12508 353.38126 492.80225 353.38126 L 488.12497 353.38126 C 487.80215 353.38126 487.54025 353.64299 487.54025 353.9658" fill="#020302"/><path d="M 486.2248 345.2933 C 486.8157 345.2933 487.29667 345.77425 487.29667 346.36518 C 487.29667 346.95628 486.8157 347.43706 486.2248 347.43706 C 485.6337 347.43706 485.15273 346.95628 485.15273 346.36518 C 485.15273 345.77425 485.6337 345.2933 486.2248 345.2933 M 486.2248 348.60651 C 487.46065 348.60651 488.46594 347.60104 488.46594 346.36518 C 488.46594 345.12932 487.46065 344.12384 486.2248 344.12384 C 484.98893 344.12384 483.98345 345.12932 483.98345 346.36518 C 483.98345 347.60104 484.98893 348.60651 486.2248 348.60651" fill="#020302"/></g></g></svg>
