<?xml version="1.0"?>
<!DOCTYPE svg PUBLIC "-//W3C//DTD SVG 1.1//EN" "http://www.w3.org/Graphics/SVG/1.1/DTD/svg11.dtd">
<svg xmlns="http://www.w3.org/2000/svg" xmlns:xl="http://www.w3.org/1999/xlink" version="1.1" viewBox="133 322 390 83" width="390pt" height="83pt"><metadata xmlns:dc="http://purl.org/dc/elements/1.1/"><dc:date>2016-12-05 22:51Z</dc:date><!-- Produced by OmniGraffle Professional 5.4.2 --></metadata><defs></defs><g stroke="none" stroke-opacity="1" stroke-dasharray="none" fill="none" fill-opacity="1"><title>18</title><g><title>Layer 1</title><path d="M 461.52835 329.8661 L 496.06118 329.8661 C 504.34545 329.8661 511.06118 336.58182 511.06118 344.8661 L 511.06118 374.85436 C 511.06118 383.13863 504.34545 389.85436 496.06118 389.85436 L 461.52835 389.85436 C 453.24408 389.85436 446.52835 383.13863 446.52835 374.85436 C 446.52835 374.85436 446.52835 374.85436 446.52835 374.85435 L 446.52835 344.8661 C 446.52835 336.58182 453.24408 329.8661 461.52835 329.8661 C 461.52835 329.8661 461.52835 329.8661 461.52835 329.8661 Z" fill="#e6e6e6"/><path d="M 461.52835 329.8661 L 496.06118 329.8661 C 504.34545 329.8661 511.06118 336.58182 511.06118 344.8661 L 511.06118 374.85436 C 511.06118 383.13863 504.34545 389.85436 496.06118 389.85436 L 461.52835 389.85436 C 453.24408 389.85436 446.52835 383.13863 446.52835 374.85436 C 446.52835 374.85436 446.52835 374.85436 446.52835 374.85435 L 446.52835 344.8661 C 446.52835 336.58182 453.24408 329.8661 461.52835 329.8661 C 461.52835 329.8661 461.52835 329.8661 461.52835 329.8661 Z" stroke="black" stroke-linecap="round" stroke-linejoin="round" stroke-width=".5"/><path d="M 483.98237 379.20427 C 484.18566 378.48531 484.64112 377.2753 485.60976 376.06088 C 487.65967 373.49123 490.89904 372.18826 495.23845 372.18826 L 495.7256 372.18826 C 496.76667 372.18826 497.71176 371.77211 498.4054 371.0985 L 498.4054 379.20427 Z M 482.5705 368.9728 L 487.6377 368.9728 L 487.6377 372.81637 C 486.56176 373.43634 485.55487 374.25481 484.69566 375.33183 C 483.4591 376.88219 482.96025 378.429 482.7738 379.20427 L 482.5705 379.20427 Z M 476.93998 379.20427 L 466.10217 379.20427 L 466.10217 367.90056 L 468.73326 367.90056 L 468.73326 374.03966 C 468.73326 374.36248 468.995 374.62456 469.31781 374.62456 L 474.19024 374.62456 C 474.51288 374.62456 474.77497 374.36248 474.77497 374.03966 L 474.77497 367.90056 L 478.57534 367.90056 L 478.57534 379.20427 Z M 457.9167 371.9933 L 458.69623 371.9933 L 458.69623 379.20427 L 457.9167 379.20427 Z M 457.7437 364.27851 L 463.90245 364.27851 L 463.5722 367.25137 C 463.55395 367.41677 463.60672 367.58199 463.7174 367.70577 C 463.82843 367.8299 463.98692 367.90056 464.1532 367.90056 L 464.9329 367.90056 L 464.9329 370.82401 L 456.8342 370.82401 Z M 464.0558 371.9933 L 464.9329 371.9933 L 464.9329 379.20427 L 464.0558 379.20427 Z M 461.96092 371.9933 L 462.88653 371.9933 L 462.88653 379.20427 L 461.96092 379.20427 Z M 460.79147 379.20427 L 459.8655 379.20427 L 459.8655 371.9933 L 460.79147 371.9933 Z M 472.33867 367.90056 L 473.60534 367.90056 L 473.60534 373.45493 L 472.33867 373.45493 Z M 469.90254 367.90056 L 471.1694 367.90056 L 471.1694 373.45493 L 469.90254 373.45493 Z M 465.74854 358.25346 L 476.1392 358.25346 L 476.1392 363.22328 C 476.1392 363.5461 476.40094 363.808 476.72376 363.808 L 479.9394 363.808 L 479.9394 366.73128 L 464.80664 366.73128 Z M 486.22477 341.5891 L 494.92484 350.94986 L 494.92484 371.02128 C 493.0729 371.04909 490.8691 371.33153 488.807 372.22793 L 488.807 368.3879 C 488.807 368.06525 488.54526 367.80316 488.22226 367.80316 L 481.98595 367.80316 C 481.66295 367.80316 481.40122 368.06525 481.40122 368.3879 L 481.40122 379.20427 L 479.74443 379.20427 L 479.74443 367.90056 L 480.5243 367.90056 C 480.84695 367.90056 481.10886 367.63883 481.10886 367.31583 L 481.10886 363.22328 C 481.10886 362.90046 480.84695 362.63855 480.5243 362.63855 L 477.3085 362.63855 L 477.3085 351.1829 Z M 478.6729 342.07767 L 480.71892 342.07767 L 480.71892 345.79534 L 478.6729 347.99719 Z M 498.0013 366.92607 L 496.0941 366.92607 L 496.0941 365.68526 C 496.89824 365.79629 497.58957 366.26556 498.0013 366.92607 M 498.35156 368.87522 L 496.0941 368.87522 L 496.0941 368.0957 L 498.39388 368.0957 C 498.40114 368.17592 498.4054 368.2572 498.4054 368.3392 C 498.4054 368.52265 498.38698 368.70168 498.35156 368.87522 M 496.0941 370.0445 L 497.7911 370.0445 C 497.37336 370.54971 496.77376 370.89927 496.0941 370.99295 Z M 496.0941 364.50801 L 496.0941 352.20803 L 497.19202 353.38953 C 497.41178 353.62611 497.7817 353.63957 498.0183 353.41981 C 498.2547 353.19987 498.26833 352.82995 498.04857 352.59372 L 483.667 337.11936 C 483.44705 336.88296 483.07713 336.8695 482.84055 337.08908 C 482.60414 337.30884 482.59068 337.67877 482.81044 337.91535 L 485.4263 340.73008 L 481.88855 344.53717 L 481.88855 341.49295 C 481.88855 341.17013 481.62647 340.90822 481.30382 340.90822 L 478.08818 340.90822 C 477.76536 340.90822 477.50328 341.17013 477.50328 341.49295 L 477.50328 349.25536 L 474.40097 352.59372 C 474.1812 352.82995 474.19484 353.19987 474.43125 353.41981 C 474.5437 353.52447 474.68678 353.576 474.82933 353.576 C 474.98587 353.576 475.14224 353.51349 475.25752 353.38953 L 476.1392 352.4409 L 476.1392 357.08418 L 465.22508 357.08418 C 464.9274 357.08418 464.67683 357.30837 464.64407 357.60427 L 464.0326 363.10924 L 457.23459 363.10924 C 456.94275 363.10924 456.69572 363.3244 456.6557 363.6134 L 455.58365 371.328 C 455.56027 371.49587 455.61074 371.66498 455.72177 371.79266 C 455.8328 371.92016 455.9936 371.9933 456.16253 371.9933 L 456.74726 371.9933 L 456.74726 379.78917 C 456.74726 380.11182 457.00916 380.37372 457.33216 380.37372 L 498.99012 380.37372 C 499.31294 380.37372 499.57467 380.112 499.57467 379.78917 L 499.57467 368.3392 C 499.57485 366.341 498.04415 364.6943 496.0941 364.50801" fill="#020302"/><path d="M 481.20636 357.08423 L 480.0369 357.08423 L 480.0369 354.55054 L 481.20636 354.55054 Z M 483.5449 357.08423 L 482.37563 357.08423 L 482.37563 354.55054 L 483.5449 354.55054 Z M 482.37563 358.2535 L 483.5449 358.2535 L 483.5449 360.7872 L 482.37563 360.7872 Z M 480.0369 358.2535 L 481.20636 358.2535 L 481.20636 360.7872 L 480.0369 360.7872 Z M 479.45218 361.95648 L 484.12964 361.95648 C 484.45246 361.95648 484.71436 361.69458 484.71436 361.37176 L 484.71436 353.9658 C 484.71436 353.64316 484.45246 353.38126 484.12964 353.38126 L 479.45218 353.38126 C 479.12936 353.38126 478.86763 353.64316 478.86763 353.9658 L 478.86763 361.37176 C 478.86763 361.69458 479.12936 361.95648 479.45218 361.95648" fill="#020302"/><path d="M 489.87898 357.08423 L 488.70952 357.08423 L 488.70952 354.55054 L 489.87898 354.55054 Z M 492.21753 357.08423 L 491.04825 357.08423 L 491.04825 354.55054 L 492.21753 354.55054 Z M 491.04843 358.2535 L 492.2177 358.2535 L 492.2177 360.7872 L 491.04843 360.7872 Z M 488.7097 358.2535 L 489.87915 358.2535 L 489.87915 360.7872 L 488.7097 360.7872 Z M 487.54025 353.9658 L 487.54025 361.37176 C 487.54025 361.69458 487.80215 361.95648 488.12497 361.95648 L 492.80225 361.95648 C 493.12508 361.95648 493.38698 361.69458 493.38698 361.37176 L 493.38698 353.9658 C 493.38698 353.64316 493.12508 353.38126 492.80225 353.38126 L 488.12497 353.38126 C 487.80215 353.38126 487.54025 353.64299 487.54025 353.9658" fill="#020302"/><path d="M 486.2248 345.2933 C 486.8157 345.2933 487.29667 345.77425 487.29667 346.36518 C 487.29667 346.95628 486.8157 347.43706 486.2248 347.43706 C 485.6337 347.43706 485.15273 346.95628 485.15273 346.36518 C 485.15273 345.77425 485.6337 345.2933 486.2248 345.2933 M 486.2248 348.60651 C 487.46065 348.60651 488.46594 347.60104 488.46594 346.36518 C 488.46594 345.12932 487.46065 344.12384 486.2248 344.12384 C 484.98893 344.12384 483.98345 345.12932 483.98345 346.36518 C 483.98345 347.60104 484.98893 348.60651 486.2248 348.60651" fill="#020302"/><path d="M 159.92986 329.8661 L 194.46269 329.8661 C 202.74696 329.8661 209.46269 336.58182 209.46269 344.8661 L 209.46269 374.85436 C 209.46269 383.13863 202.74696 389.85436 194.46269 389.85436 L 159.92986 389.85436 C 151.64559 389.85436 144.92986 383.13863 144.92986 374.85436 C 144.92986 374.85436 144.92986 374.85436 144.92986 374.85435 L 144.92986 344.8661 C 144.92986 336.58182 151.64559 329.8661 159.92986 329.8661 C 159.92986 329.8661 159.92986 329.8661 159.92986 329.8661 Z" fill="#57ca93"/><path d="M 159.92986 329.8661 L 194.46269 329.8661 C 202.74696 329.8661 209.46269 336.58182 209.46269 344.8661 L 209.46269 374.85436 C 209.46269 383.13863 202.74696 389.85436 194.46269 389.85436 L 159.92986 389.85436 C 151.64559 389.85436 144.92986 383.13863 144.92986 374.85436 C 144.92986 374.85436 144.92986 374.85436 144.92986 374.85435 L 144.92986 344.8661 C 144.92986 336.58182 151.64559 329.8661 159.92986 329.8661 C 159.92986 329.8661 159.92986 329.8661 159.92986 329.8661 Z" stroke="black" stroke-linecap="round" stroke-linejoin="round" stroke-width=".5"/><path d="M 158.36225 341.25477 C 158.36225 340.776 158.75123 340.38701 159.23001 340.38701 L 195.16207 340.38701 C 195.64085 340.38701 196.02983 340.776 196.02983 341.25477 L 196.02983 369.07122 L 158.36225 369.07122 Z M 198.42845 369.07122 L 197.56164 369.07122 L 197.56164 341.25477 C 197.56164 339.93186 196.48497 338.85615 195.16207 338.85615 L 177.96194 338.85615 L 177.96194 337.1712 C 177.96194 336.74867 177.61881 336.406 177.19628 336.406 C 176.77327 336.406 176.43061 336.74867 176.43061 337.1712 L 176.43061 338.85615 L 159.23001 338.85615 C 157.9071 338.85615 156.83139 339.93186 156.83139 341.25477 L 156.83139 369.07122 L 155.96363 369.07122 C 155.54062 369.07122 155.19796 369.41435 155.19796 369.83736 C 155.19796 370.2599 155.54062 370.60303 155.96363 370.60303 L 167.10836 370.60303 L 162.59611 382.6349 C 162.44818 383.03096 162.6481 383.47193 163.04417 383.6208 C 163.13303 383.65342 163.22377 383.6695 163.31357 383.6695 C 163.62315 383.6695 163.91476 383.4795 164.03009 383.17228 L 168.74367 370.60303 L 176.43061 370.60303 L 176.43061 382.90335 C 176.43061 383.32636 176.77327 383.66902 177.19628 383.66902 C 177.61881 383.66902 177.96194 383.32636 177.96194 382.90335 L 177.96194 370.60303 L 185.6484 370.60303 L 190.36199 383.17228 C 190.47731 383.4795 190.76893 383.66902 191.07898 383.66902 C 191.1683 383.66902 191.25952 383.65342 191.34791 383.6208 C 191.7435 383.47193 191.94437 383.03096 191.79549 382.6349 L 187.28372 370.60303 L 198.42845 370.60303 C 198.85193 370.60303 199.19459 370.2599 199.19459 369.83736 C 199.19459 369.41435 198.85193 369.07122 198.42845 369.07122" fill="#020302"/><path d="M 169.84624 355.90323 C 170.32502 355.90323 170.71399 356.29221 170.71399 356.771 C 170.71399 357.24977 170.32502 357.63875 169.84624 357.63875 C 169.36793 357.63875 168.97848 357.24977 168.97848 356.771 C 168.97848 356.29221 169.36793 355.90323 169.84624 355.90323 M 169.84624 359.16961 C 171.16914 359.16961 172.24533 358.0939 172.24533 356.771 C 172.24533 355.44809 171.16914 354.37237 169.84624 354.37237 C 168.52333 354.37237 167.44762 355.44809 167.44762 356.771 C 167.44762 358.0939 168.52333 359.16961 169.84624 359.16961" fill="#020302"/><path d="M 175.5119 356.77094 C 175.5119 356.29217 175.90088 355.90319 176.37966 355.90319 C 176.85796 355.90319 177.24741 356.29217 177.24741 356.77094 C 177.24741 357.24972 176.85796 357.6387 176.37966 357.6387 C 175.90088 357.6387 175.5119 357.24972 175.5119 356.77094 M 178.77828 356.77094 C 178.77828 355.44804 177.70256 354.37232 176.37966 354.37232 C 175.05675 354.37232 173.98056 355.44804 173.98056 356.77094 C 173.98056 358.09385 175.05675 359.16957 176.37966 359.16957 C 177.70256 359.16957 178.77828 358.09385 178.77828 356.77094" fill="#020302"/><path d="M 182.04475 356.77094 C 182.04475 356.29217 182.4342 355.90319 182.91251 355.90319 C 183.39129 355.90319 183.78027 356.29217 183.78027 356.77094 C 183.78027 357.24972 183.39129 357.6387 182.91251 357.6387 C 182.4342 357.6387 182.04475 357.24972 182.04475 356.77094 M 185.3116 356.77094 C 185.3116 355.44804 184.23541 354.37232 182.91251 354.37232 C 181.59008 354.37232 180.51389 355.44804 180.51389 356.77094 C 180.51389 358.09385 181.59008 359.16957 182.91251 359.16957 C 184.23541 359.16957 185.3116 358.09385 185.3116 356.77094" fill="#020302"/><path d="M 173.98042 361.67084 C 173.98042 362.14915 173.59144 362.5386 173.11314 362.5386 C 172.63436 362.5386 172.24538 362.14915 172.24538 361.67084 C 172.24538 361.19207 172.63436 360.80309 173.11314 360.80309 C 173.59144 360.80309 173.98042 361.19207 173.98042 361.67084 M 170.71404 361.67084 C 170.71404 362.99375 171.79023 364.06947 173.11314 364.06947 C 174.43557 364.06947 175.51176 362.99375 175.51176 361.67084 C 175.51176 360.34794 174.43557 359.27175 173.11314 359.27175 C 171.79023 359.27175 170.71404 360.34794 170.71404 361.67084" fill="#020302"/><path d="M 179.64604 360.80313 C 180.12481 360.80313 180.51379 361.19211 180.51379 361.6709 C 180.51379 362.1492 180.12481 362.53865 179.64604 362.53865 C 179.16726 362.53865 178.77828 362.1492 178.77828 361.6709 C 178.77828 361.19211 179.16726 360.80313 179.64604 360.80313 M 179.64604 364.06951 C 180.96894 364.06951 182.04466 362.9938 182.04466 361.6709 C 182.04466 360.34799 180.96894 359.2718 179.64604 359.2718 C 178.32313 359.2718 177.24741 360.34799 177.24741 361.6709 C 177.24741 362.9938 178.32313 364.06951 179.64604 364.06951" fill="#020302"/><path d="M 186.99588 366.6215 C 186.51711 366.6215 186.12813 366.23253 186.12813 365.75375 C 186.12813 365.27544 186.51711 364.88646 186.99588 364.88646 C 187.47466 364.88646 187.86364 365.27544 187.86364 365.75375 C 187.86364 366.23253 187.47466 366.6215 186.99588 366.6215 M 186.99588 363.35513 C 185.67298 363.35513 184.59726 364.43132 184.59726 365.75375 C 184.59726 367.07665 185.67298 368.15284 186.99588 368.15284 C 188.31879 368.15284 189.39451 367.07665 189.39451 365.75375 C 189.39451 364.43132 188.31879 363.35513 186.99588 363.35513" fill="#020302"/><path d="M 189.44583 355.90323 C 189.92414 355.90323 190.31359 356.29221 190.31359 356.771 C 190.31359 357.24977 189.92414 357.63875 189.44583 357.63875 C 188.96706 357.63875 188.57808 357.24977 188.57808 356.771 C 188.57808 356.29221 188.96706 355.90323 189.44583 355.90323 M 187.04721 356.771 C 187.04721 358.0939 188.12293 359.16961 189.44583 359.16961 C 190.76874 359.16961 191.84446 358.0939 191.84446 356.771 C 191.84446 355.44809 190.76874 354.37237 189.44583 354.37237 C 188.12293 354.37237 187.04721 355.44809 187.04721 356.771" fill="#020302"/><path d="M 177.47121 353.22897 C 177.62056 353.37833 177.8167 353.45347 178.01285 353.45347 C 178.20899 353.45347 178.40466 353.37833 178.55449 353.22897 L 179.64627 352.13719 L 180.73806 353.22897 C 180.88788 353.37833 181.08355 353.45347 181.2797 353.45347 C 181.47537 353.45347 181.67151 353.37833 181.82086 353.22897 C 182.12004 352.9298 182.12004 352.44534 181.82086 352.14617 L 180.72908 351.05438 L 181.82086 349.9626 C 182.12004 349.66342 182.12004 349.17896 181.82086 348.87979 C 181.52169 348.5806 181.03724 348.5806 180.73806 348.87979 L 179.64627 349.97157 L 178.55449 348.87979 C 178.25531 348.5806 177.77086 348.5806 177.47168 348.87979 C 177.1725 349.17896 177.1725 349.66342 177.47168 349.9626 L 178.56394 351.05438 L 177.47168 352.14617 C 177.1725 352.44534 177.1725 352.93027 177.47121 353.22897 Z" fill="#020302"/><path d="M 170.93831 353.22897 C 171.08766 353.37833 171.28333 353.45347 171.47995 353.45347 C 171.67562 353.45347 171.87176 353.37833 172.02111 353.22897 L 173.11337 352.13719 L 174.20469 353.22897 C 174.35451 353.37833 174.55065 353.45347 174.74633 353.45347 C 174.94247 353.45347 175.13814 353.37833 175.28749 353.22897 C 175.58667 352.9298 175.58667 352.44534 175.28749 352.14617 L 174.19571 351.05438 L 175.28749 349.9626 C 175.58667 349.66342 175.58667 349.17896 175.28749 348.87979 C 174.98831 348.5806 174.50386 348.5806 174.20469 348.87979 L 173.11337 349.97157 L 172.02111 348.87979 C 171.72194 348.5806 171.23748 348.5806 170.93831 348.87979 C 170.63913 349.17896 170.63913 349.66342 170.93831 349.9626 L 172.03057 351.05438 L 170.93831 352.14617 C 170.63913 352.44534 170.63913 352.93027 170.93831 353.22897 Z" fill="#020302"/><path d="M 185.08734 348.87974 C 184.78816 348.58103 184.30371 348.58103 184.00453 348.87974 C 183.70535 349.17892 183.70535 349.66337 184.00453 349.96255 L 185.09679 351.0548 L 184.00453 352.14612 C 183.70535 352.4453 183.70535 352.93022 184.00453 353.22893 C 184.15388 353.37875 184.35003 353.45343 184.5457 353.45343 C 184.74231 353.45343 184.93799 353.37875 185.08734 353.22893 L 186.1796 352.13761 L 187.27091 353.22893 C 187.42074 353.37875 187.61688 353.45343 187.81302 353.45343 C 188.00869 353.45343 188.20484 353.37875 188.35372 353.22893 C 188.6529 352.92975 188.6529 352.4453 188.35372 352.14612 L 187.26193 351.0548 L 188.35372 349.96255 C 188.6529 349.66337 188.6529 349.17892 188.35372 348.87974 C 188.05454 348.58056 187.57009 348.58056 187.27091 348.87974 L 186.1796 349.972 Z" fill="#020302"/><path d="M 174.20473 347.5126 C 174.35409 347.66195 174.55023 347.7371 174.74637 347.7371 C 174.94252 347.7371 175.13819 347.66195 175.28754 347.5126 L 176.3798 346.42034 L 177.47111 347.5126 C 177.62094 347.66195 177.81708 347.7371 178.01275 347.7371 C 178.2089 347.7371 178.40457 347.66195 178.55439 347.5126 C 178.8531 347.21342 178.8531 346.72897 178.55439 346.4298 L 177.4626 345.338 L 178.55439 344.24622 C 178.8531 343.94704 178.8531 343.46259 178.55439 343.16341 C 178.25474 342.86423 177.77029 342.86423 177.47158 343.16341 L 176.3798 344.2552 L 175.28801 343.16341 C 174.98836 342.86423 174.50391 342.86423 174.20521 343.16341 C 173.90603 343.46259 173.90603 343.94704 174.20521 344.24622 L 175.29699 345.338 L 174.20473 346.4298 C 173.90603 346.72897 173.90603 347.21342 174.20473 347.5126 Z" fill="#020302"/><path d="M 180.73811 347.5126 C 180.88746 347.66195 181.08313 347.7371 181.27975 347.7371 C 181.47542 347.7371 181.67156 347.66195 181.82091 347.5126 L 182.9127 346.42034 L 184.00448 347.5126 C 184.15431 347.66195 184.35045 347.7371 184.54612 347.7371 C 184.7418 347.7371 184.93794 347.66195 185.08729 347.5126 C 185.38647 347.21342 185.38647 346.72897 185.08729 346.4298 L 183.9955 345.338 L 185.08729 344.24622 C 185.38647 343.94704 185.38647 343.46259 185.08729 343.16341 C 184.78811 342.86423 184.30366 342.86423 184.00448 343.16341 L 182.91317 344.2552 L 181.82091 343.16341 C 181.52173 342.86423 181.03728 342.86423 180.73811 343.16341 C 180.43893 343.46259 180.43893 343.94704 180.73811 344.24622 L 181.82989 345.338 L 180.73811 346.4298 C 180.43893 346.72897 180.43893 347.21342 180.73811 347.5126 Z" fill="#020302"/><path d="M 183.67822 365.7538 C 183.67822 365.33079 183.33556 364.9886 182.91256 364.9886 L 172.29623 364.9886 C 168.66545 364.9886 165.71196 362.03463 165.71196 358.40432 L 165.71196 351.84746 L 165.89487 352.21375 C 166.0291 352.48174 166.29944 352.63676 166.58019 352.63676 C 166.69551 352.63676 166.81178 352.6103 166.92238 352.55594 C 167.30048 352.36689 167.45362 351.90701 167.26456 351.52843 L 165.63114 348.26205 C 165.50164 348.00258 165.23649 347.83905 164.94676 347.83905 C 164.65657 347.83905 164.39142 348.00258 164.261915 348.26205 L 162.62849 351.52843 C 162.43896 351.90701 162.59304 352.36689 162.97068 352.55594 C 163.34926 352.74547 163.80913 352.59139 163.99818 352.21375 L 164.18109 351.84746 L 164.18109 358.40432 C 164.18109 362.87923 167.82133 366.51946 172.29671 366.51946 L 182.91303 366.51946 C 183.33556 366.51946 183.67822 366.1768 183.67822 365.7538 Z" fill="#020302"/><path d="M 260.46269 329.8661 L 294.99552 329.8661 C 303.2798 329.8661 309.99552 336.58182 309.99552 344.8661 L 309.99552 374.85436 C 309.99552 383.13863 303.2798 389.85436 294.99552 389.85436 L 260.46269 389.85436 C 252.17842 389.85436 245.46269 383.13863 245.46269 374.85436 C 245.46269 374.85436 245.46269 374.85436 245.46269 374.85435 L 245.46269 344.8661 C 245.46269 336.58182 252.17842 329.8661 260.46269 329.8661 C 260.46269 329.8661 260.46269 329.8661 260.46269 329.8661 Z" fill="#e6e6e6"/><path d="M 260.46269 329.8661 L 294.99552 329.8661 C 303.2798 329.8661 309.99552 336.58182 309.99552 344.8661 L 309.99552 374.85436 C 309.99552 383.13863 303.2798 389.85436 294.99552 389.85436 L 260.46269 389.85436 C 252.17842 389.85436 245.46269 383.13863 245.46269 374.85436 C 245.46269 374.85436 245.46269 374.85436 245.46269 374.85435 L 245.46269 344.8661 C 245.46269 336.58182 252.17842 329.8661 260.46269 329.8661 C 260.46269 329.8661 260.46269 329.8661 260.46269 329.8661 Z" stroke="black" stroke-linecap="round" stroke-linejoin="round" stroke-width=".5"/><path d="M 300.93635 377.94924 L 256.93973 377.94924 L 256.93973 339.0553" stroke="#4e4e4e" stroke-linecap="round" stroke-linejoin="round" stroke-width="1"/><path d="M 296.0585 338.39377 L 300.16164 338.7713 L 299.78447 342.87443" stroke="#4e4e4e" stroke-linecap="round" stroke-linejoin="round" stroke-width="1"/><path d="M 257.10886 360.7027 L 273.29456 348.76215 L 280.4632 355.09305 L 299.55045 339.27264" stroke="#4e4e4e" stroke-linecap="round" stroke-linejoin="round" stroke-width="1"/><line x1="260.76954" y1="377.94924" x2="260.76954" y2="358.05301" stroke="#4e4e4e" stroke-linecap="round" stroke-linejoin="round" stroke-width="1"/><line x1="265.71457" y1="377.94924" x2="265.71457" y2="354.354" stroke="#4e4e4e" stroke-linecap="round" stroke-linejoin="round" stroke-width="1"/><line x1="270.65955" y1="377.94924" x2="270.65955" y2="350.73804" stroke="#4e4e4e" stroke-linecap="round" stroke-linejoin="round" stroke-width="1"/><line x1="275.60454" y1="377.94924" x2="275.60454" y2="351.27197" stroke="#4e4e4e" stroke-linecap="round" stroke-linejoin="round" stroke-width="1"/><line x1="280.54956" y1="377.94924" x2="280.54956" y2="355.09323" stroke="#4e4e4e" stroke-linecap="round" stroke-linejoin="round" stroke-width="1"/><line x1="285.49455" y1="377.94924" x2="285.49455" y2="351.27197" stroke="#4e4e4e" stroke-linecap="round" stroke-linejoin="round" stroke-width="1"/><line x1="290.43954" y1="377.94924" x2="290.43954" y2="347.00343" stroke="#4e4e4e" stroke-linecap="round" stroke-linejoin="round" stroke-width="1"/><line x1="295.38456" y1="377.94924" x2="295.38456" y2="342.96896" stroke="#4e4e4e" stroke-linecap="round" stroke-linejoin="round" stroke-width="1"/><path d="M 360.99552 329.8661 L 395.52835 329.8661 C 403.81262 329.8661 410.52835 336.58182 410.52835 344.8661 L 410.52835 374.85436 C 410.52835 383.13863 403.81262 389.85436 395.52835 389.85436 L 360.99552 389.85436 C 352.71125 389.85436 345.99552 383.13863 345.99552 374.85436 C 345.99552 374.85436 345.99552 374.85436 345.99552 374.85435 L 345.99552 344.8661 C 345.99552 336.58182 352.71125 329.8661 360.99552 329.8661 C 360.99552 329.8661 360.99552 329.8661 360.99552 329.8661 Z" fill="#e6e6e6"/><path d="M 360.99552 329.8661 L 395.52835 329.8661 C 403.81262 329.8661 410.52835 336.58182 410.52835 344.8661 L 410.52835 374.85436 C 410.52835 383.13863 403.81262 389.85436 395.52835 389.85436 L 360.99552 389.85436 C 352.71125 389.85436 345.99552 383.13863 345.99552 374.85436 C 345.99552 374.85436 345.99552 374.85436 345.99552 374.85435 L 345.99552 344.8661 C 345.99552 336.58182 352.71125 329.8661 360.99552 329.8661 C 360.99552 329.8661 360.99552 329.8661 360.99552 329.8661 Z" stroke="black" stroke-linecap="round" stroke-linejoin="round" stroke-width=".5"/><path d="M 378.92905 357.11124 C 380.4841 358.02197 381.00676 360.02195 380.09379 361.57756 C 379.18306 363.13317 377.18364 363.65358 375.6286 362.7423 C 374.07355 361.83157 373.55088 359.83215 374.4616 358.27598 C 375.37458 356.7215 377.37345 356.19883 378.92905 357.11124 M 379.48946 356.15434 C 377.40611 354.93328 374.72576 355.63223 373.50526 357.71614 C 372.28477 359.80005 372.98429 362.47871 375.0682 363.6992 C 377.1521 364.92026 379.83133 364.22187 381.05295 362.1374 C 382.27288 360.05575 381.57336 357.3754 379.48946 356.15434" fill="#3c3c3b"/><path d="M 380.98283 353.60544 C 384.4731 355.6516 385.6457 360.13933 383.59954 363.63128 C 381.55393 367.12154 377.0662 368.29416 373.57482 366.24743 C 370.08343 364.20238 368.91194 359.7141 370.95755 356.22271 C 373.00428 352.7302 377.492 351.5604 380.98283 353.60544 M 382.23993 351.45845 C 377.5641 348.71783 371.55062 350.28808 368.81056 354.9656 C 366.06994 359.642 367.6402 365.65605 372.3166 368.39554 C 376.993 371.1356 383.00647 369.56647 385.74653 364.8895 C 388.48884 360.21142 386.91802 354.19963 382.23993 351.45845" fill="#3c3c3b"/><path d="M 384.5043 347.59703 C 391.3136 351.58686 393.59914 360.34265 389.60874 367.1514 C 385.6189 373.9607 376.86424 376.2468 370.0538 372.2564 C 363.2445 368.26544 360.95953 359.51247 364.94936 352.70204 C 368.9392 345.89386 377.6933 343.60663 384.5043 347.59703 M 386.9571 343.4095 C 377.8341 338.06456 366.10621 341.12734 360.76184 350.24922 C 355.41577 359.36997 358.47799 371.099 367.60043 376.4445 C 376.7223 381.79 388.45076 378.72721 393.7957 369.6059 C 399.1412 360.48402 396.07955 348.75557 386.9571 343.4095" fill="#3c3c3b"/><path d="M 378.02593 358.80918 C 377.38612 358.43407 376.56438 358.64979 376.18872 359.28848 C 375.81474 359.9283 376.02876 360.75003 376.66858 361.12457 C 377.3084 361.4991 378.12957 361.28508 378.5041 360.6447 C 378.8792 360.00545 378.66462 359.18372 378.02593 358.80918 Z" fill="#3c3c3b"/><path d="M 406.02536 347.69497 C 405.71503 346.63556 404.79417 346.38549 404.79417 346.38549 C 404.7891 346.35564 404.78121 346.32748 404.76713 346.29932 L 404.55874 345.88704 C 404.53396 345.83691 404.49622 345.79693 404.45342 345.76651 C 404.89273 344.8389 404.18983 343.89043 404.18983 343.89043 C 401.77644 344.85185 400.72773 346.7161 400.32672 347.69215 L 377.45387 359.48763 C 377.29054 359.57268 377.22577 359.77487 377.30913 359.93933 L 377.51752 360.35273 C 377.6003 360.5172 377.80025 360.58309 377.96359 360.49804 L 400.98738 348.6254 C 402.07833 348.8507 404.01017 348.96052 406.02536 347.69497 Z" fill="#3c3c3b"/></g></g></svg>
