<?xml version="1.0"?>
<!DOCTYPE svg PUBLIC "-//W3C//DTD SVG 1.1//EN" "http://www.w3.org/Graphics/SVG/1.1/DTD/svg11.dtd">
<svg xmlns="http://www.w3.org/2000/svg" xmlns:xl="http://www.w3.org/1999/xlink" version="1.1" viewBox="234 322 87 83" width="87pt" height="83pt"><metadata xmlns:dc="http://purl.org/dc/elements/1.1/"><dc:date>2016-12-05 22:51Z</dc:date><!-- Produced by OmniGraffle Professional 5.4.2 --></metadata><defs></defs><g stroke="none" stroke-opacity="1" stroke-dasharray="none" fill="none" fill-opacity="1"><title>18</title><g><title>Layer 1</title><path d="M 260.46269 329.8661 L 294.99552 329.8661 C 303.2798 329.8661 309.99552 336.58182 309.99552 344.8661 L 309.99552 374.85436 C 309.99552 383.13863 303.2798 389.85436 294.99552 389.85436 L 260.46269 389.85436 C 252.17842 389.85436 245.46269 383.13863 245.46269 374.85436 C 245.46269 374.85436 245.46269 374.85436 245.46269 374.85435 L 245.46269 344.8661 C 245.46269 336.58182 252.17842 329.8661 260.46269 329.8661 C 260.46269 329.8661 260.46269 329.8661 260.46269 329.8661 Z" fill="#e6e6e6"/><path d="M 260.46269 329.8661 L 294.99552 329.8661 C 303.2798 329.8661 309.99552 336.58182 309.99552 344.8661 L 309.99552 374.85436 C 309.99552 383.13863 303.2798 389.85436 294.99552 389.85436 L 260.46269 389.85436 C 252.17842 389.85436 245.46269 383.13863 245.46269 374.85436 C 245.46269 374.85436 245.46269 374.85436 245.46269 374.85435 L 245.46269 344.8661 C 245.46269 336.58182 252.17842 329.8661 260.46269 329.8661 C 260.46269 329.8661 260.46269 329.8661 260.46269 329.8661 Z" stroke="black" stroke-linecap="round" stroke-linejoin="round" stroke-width=".5"/><path d="M 300.93635 377.94924 L 256.93973 377.94924 L 256.93973 339.0553" stroke="#4e4e4e" stroke-linecap="round" stroke-linejoin="round" stroke-width="1"/><path d="M 296.0585 338.39377 L 300.16164 338.7713 L 299.78447 342.87443" stroke="#4e4e4e" stroke-linecap="round" stroke-linejoin="round" stroke-width="1"/><path d="M 257.10886 360.7027 L 273.29456 348.76215 L 280.4632 355.09305 L 299.55045 339.27264" stroke="#4e4e4e" stroke-linecap="round" stroke-linejoin="round" stroke-width="1"/><line x1="260.76954" y1="377.94924" x2="260.76954" y2="358.05301" stroke="#4e4e4e" stroke-linecap="round" stroke-linejoin="round" stroke-width="1"/><line x1="265.71457" y1="377.94924" x2="265.71457" y2="354.354" stroke="#4e4e4e" stroke-linecap="round" stroke-linejoin="round" stroke-width="1"/><line x1="270.65955" y1="377.94924" x2="270.65955" y2="350.73804" stroke="#4e4e4e" stroke-linecap="round" stroke-linejoin="round" stroke-width="1"/><line x1="275.60454" y1="377.94924" x2="275.60454" y2="351.27197" stroke="#4e4e4e" stroke-linecap="round" stroke-linejoin="round" stroke-width="1"/><line x1="280.54956" y1="377.94924" x2="280.54956" y2="355.09323" stroke="#4e4e4e" stroke-linecap="round" stroke-linejoin="round" stroke-width="1"/><line x1="285.49455" y1="377.94924" x2="285.49455" y2="351.27197" stroke="#4e4e4e" stroke-linecap="round" stroke-linejoin="round" stroke-width="1"/><line x1="290.43954" y1="377.94924" x2="290.43954" y2="347.00343" stroke="#4e4e4e" stroke-linecap="round" stroke-linejoin="round" stroke-width="1"/><line x1="295.38456" y1="377.94924" x2="295.38456" y2="342.96896" stroke="#4e4e4e" stroke-linecap="round" stroke-linejoin="round" stroke-width="1"/></g></g></svg>
