<?xml version="1.0"?>
<!DOCTYPE svg PUBLIC "-//W3C//DTD SVG 1.1//EN" "http://www.w3.org/Graphics/SVG/1.1/DTD/svg11.dtd">
<svg xmlns="http://www.w3.org/2000/svg" xmlns:xl="http://www.w3.org/1999/xlink" version="1.1" viewBox="334 322 88 83" width="88pt" height="83pt"><metadata xmlns:dc="http://purl.org/dc/elements/1.1/"><dc:date>2016-12-05 22:51Z</dc:date><!-- Produced by OmniGraffle Professional 5.4.2 --></metadata><defs></defs><g stroke="none" stroke-opacity="1" stroke-dasharray="none" fill="none" fill-opacity="1"><title>18</title><g><title>Layer 1</title><path d="M 360.99552 329.8661 L 395.52835 329.8661 C 403.81262 329.8661 410.52835 336.58182 410.52835 344.8661 L 410.52835 374.85436 C 410.52835 383.13863 403.81262 389.85436 395.52835 389.85436 L 360.99552 389.85436 C 352.71125 389.85436 345.99552 383.13863 345.99552 374.85436 C 345.99552 374.85436 345.99552 374.85436 345.99552 374.85435 L 345.99552 344.8661 C 345.99552 336.58182 352.71125 329.8661 360.99552 329.8661 C 360.99552 329.8661 360.99552 329.8661 360.99552 329.8661 Z" fill="#e6e6e6"/><path d="M 360.99552 329.8661 L 395.52835 329.8661 C 403.81262 329.8661 410.52835 336.58182 410.52835 344.8661 L 410.52835 374.85436 C 410.52835 383.13863 403.81262 389.85436 395.52835 389.85436 L 360.99552 389.85436 C 352.71125 389.85436 345.99552 383.13863 345.99552 374.85436 C 345.99552 374.85436 345.99552 374.85436 345.99552 374.85435 L 345.99552 344.8661 C 345.99552 336.58182 352.71125 329.8661 360.99552 329.8661 C 360.99552 329.8661 360.99552 329.8661 360.99552 329.8661 Z" stroke="black" stroke-linecap="round" stroke-linejoin="round" stroke-width=".5"/><path d="M 378.92905 357.11124 C 380.4841 358.02197 381.00676 360.02195 380.09379 361.57756 C 379.18306 363.13317 377.18364 363.65358 375.6286 362.7423 C 374.07355 361.83157 373.55088 359.83215 374.4616 358.27598 C 375.37458 356.7215 377.37345 356.19883 378.92905 357.11124 M 379.48946 356.15434 C 377.40611 354.93328 374.72576 355.63223 373.50526 357.71614 C 372.28477 359.80005 372.98429 362.47871 375.0682 363.6992 C 377.1521 364.92026 379.83133 364.22187 381.05295 362.1374 C 382.27288 360.05575 381.57336 357.3754 379.48946 356.15434" fill="#3c3c3b"/><path d="M 380.98283 353.60544 C 384.4731 355.6516 385.6457 360.13933 383.59954 363.63128 C 381.55393 367.12154 377.0662 368.29416 373.57482 366.24743 C 370.08343 364.20238 368.91194 359.7141 370.95755 356.22271 C 373.00428 352.7302 377.492 351.5604 380.98283 353.60544 M 382.23993 351.45845 C 377.5641 348.71783 371.55062 350.28808 368.81056 354.9656 C 366.06994 359.642 367.6402 365.65605 372.3166 368.39554 C 376.993 371.1356 383.00647 369.56647 385.74653 364.8895 C 388.48884 360.21142 386.91802 354.19963 382.23993 351.45845" fill="#3c3c3b"/><path d="M 384.5043 347.59703 C 391.3136 351.58686 393.59914 360.34265 389.60874 367.1514 C 385.6189 373.9607 376.86424 376.2468 370.0538 372.2564 C 363.2445 368.26544 360.95953 359.51247 364.94936 352.70204 C 368.9392 345.89386 377.6933 343.60663 384.5043 347.59703 M 386.9571 343.4095 C 377.8341 338.06456 366.10621 341.12734 360.76184 350.24922 C 355.41577 359.36997 358.47799 371.099 367.60043 376.4445 C 376.7223 381.79 388.45076 378.72721 393.7957 369.6059 C 399.1412 360.48402 396.07955 348.75557 386.9571 343.4095" fill="#3c3c3b"/><path d="M 378.02593 358.80918 C 377.38612 358.43407 376.56438 358.64979 376.18872 359.28848 C 375.81474 359.9283 376.02876 360.75003 376.66858 361.12457 C 377.3084 361.4991 378.12957 361.28508 378.5041 360.6447 C 378.8792 360.00545 378.66462 359.18372 378.02593 358.80918 Z" fill="#3c3c3b"/><path d="M 406.02536 347.69497 C 405.71503 346.63556 404.79417 346.38549 404.79417 346.38549 C 404.7891 346.35564 404.78121 346.32748 404.76713 346.29932 L 404.55874 345.88704 C 404.53396 345.83691 404.49622 345.79693 404.45342 345.76651 C 404.89273 344.8389 404.18983 343.89043 404.18983 343.89043 C 401.77644 344.85185 400.72773 346.7161 400.32672 347.69215 L 377.45387 359.48763 C 377.29054 359.57268 377.22577 359.77487 377.30913 359.93933 L 377.51752 360.35273 C 377.6003 360.5172 377.80025 360.58309 377.96359 360.49804 L 400.98738 348.6254 C 402.07833 348.8507 404.01017 348.96052 406.02536 347.69497 Z" fill="#3c3c3b"/></g></g></svg>
