<?xml version="1.0"?>
<!DOCTYPE svg PUBLIC "-//W3C//DTD SVG 1.1//EN" "http://www.w3.org/Graphics/SVG/1.1/DTD/svg11.dtd">
<svg xmlns="http://www.w3.org/2000/svg" xmlns:xl="http://www.w3.org/1999/xlink" version="1.1" viewBox="89 321 466 494" width="466pt" height="494pt"><metadata xmlns:dc="http://purl.org/dc/elements/1.1/"><dc:date>2016-12-06 00:56Z</dc:date><!-- Produced by OmniGraffle Professional 5.4.2 --></metadata><defs></defs><g stroke="none" stroke-opacity="1" stroke-dasharray="none" fill="none" fill-opacity="1"><title>28</title><g><title>Layer 1</title><path d="M 97.31269 327.622 L 553.85773 327.622 C 554.0128 327.622 554.13852 327.74771 554.13852 327.9028 L 554.13852 327.9028 C 554.13852 328.05787 554.0128 328.1836 553.85773 328.1836 L 97.31269 328.1836 C 97.15761 328.1836 97.03189 328.05787 97.03189 327.9028 C 97.03189 327.9028 97.03189 327.9028 97.03189 327.9028 L 97.03189 327.9028 C 97.03189 327.74771 97.15761 327.622 97.31269 327.622 C 97.31269 327.622 97.31269 327.622 97.31269 327.622 Z" fill="#a4a5a4"/><path d="M 90.14228 467.39287 L 546.6873 467.39287 C 546.8424 467.39287 546.9681 467.5186 546.9681 467.67367 L 546.9681 467.67367 C 546.9681 467.82875 546.8424 467.95447 546.6873 467.95447 L 90.14228 467.95447 C 89.9872 467.95447 89.86148 467.82875 89.86148 467.67367 C 89.86148 467.67367 89.86148 467.67367 89.86148 467.67367 L 89.86148 467.67367 C 89.86148 467.5186 89.9872 467.39287 90.14228 467.39287 C 90.14228 467.39287 90.14228 467.39287 90.14228 467.39287 Z" fill="#a4a5a4"/><circle cx="376.3493" cy="397.78824" r="37.50006" fill="#f87d2e"/><circle cx="376.3493" cy="397.78824" r="37.50006" stroke="black" stroke-linecap="round" stroke-linejoin="round" stroke-width="3"/><path d="M 393.71426 381.43637 C 392.26828 381.43637 391.0957 382.55536 390.98166 383.9717 L 384.38435 387.3275 C 383.89143 386.86766 383.23686 386.58114 382.50902 386.58114 C 380.98691 386.58114 379.75304 387.81502 379.75304 389.3374 C 379.75304 390.18727 380.14703 390.93934 380.75228 391.44424 L 379.97284 396.41909 C 379.0922 396.65058 378.3903 397.30116 378.08667 398.14788 L 372.97726 398.4974 C 372.51 397.64299 371.61167 397.05114 370.56538 397.05114 C 369.043 397.05114 367.80912 398.28473 367.80912 399.80655 C 367.80912 400.15407 367.88096 400.48678 367.99984 400.79467 L 360.84775 411.22675 C 360.71946 411.2031 360.59487 411.1706 360.4603 411.1706 C 359.24354 411.1706 358.2557 412.18466 358.2557 413.40143 C 358.2557 414.61906 359.24354 415.60605 360.4603 415.60605 L 360.51533 415.60605 C 361.73239 415.60605 362.69258 414.61906 362.69258 413.40143 C 362.69258 413.13459 362.63328 412.8837 362.54547 412.6468 L 369.5898 402.37522 C 369.8937 402.4904 370.22128 402.56253 370.56652 402.56253 C 371.77702 402.56253 372.7931 401.77653 373.16228 400.69347 L 378.23948 400.3448 C 378.7002 401.22545 379.61106 401.83041 380.67046 401.83041 C 382.19285 401.83041 383.42644 400.59682 383.42644 399.07443 C 383.42644 398.09828 382.91613 397.24585 382.1498 396.7555 L 382.88905 392.05348 C 384.22413 391.86845 385.25445 390.7375 385.263 389.35309 L 391.71263 386.0731 C 392.21668 386.60765 392.92599 386.94748 393.71626 386.94748 C 395.23865 386.94748 396.47253 385.7136 396.47253 384.19122 C 396.47253 382.6691 395.23637 381.43637 393.71426 381.43637 M 360.45945 384.40275 C 361.6765 384.40275 362.66407 383.38754 362.66407 382.17049 C 362.66407 380.95343 361.6765 379.96587 360.45945 379.96587 C 359.2424 379.96587 358.25455 380.95343 358.25455 382.17049 L 358.25455 382.2255 C 358.25455 383.44256 359.24125 384.40275 360.45945 384.40275 M 360.45945 407.80309 C 361.6765 407.80309 362.66407 406.76307 362.66407 405.5423 C 362.66407 404.32155 361.6765 403.3377 360.45945 403.3377 C 359.2424 403.3377 358.25455 404.32582 358.25455 405.5423 L 358.25455 405.65207 C 358.25455 406.8677 359.24125 407.80309 360.45945 407.80309 M 360.45945 399.99385 C 361.6765 399.99385 362.66407 398.9527 362.66407 397.73364 C 362.66407 396.51374 361.6765 395.52875 360.45945 395.52875 C 359.2424 395.52875 358.25455 396.51602 358.25455 397.73364 L 358.25455 397.8434 C 358.25455 399.06132 359.24125 399.99385 360.45945 399.99385 M 360.45945 392.23993 C 361.6765 392.23993 362.66407 391.25265 362.66407 390.03503 L 362.66407 389.92498 C 362.66407 388.70735 361.6765 387.72037 360.45945 387.72037 C 359.2424 387.72037 358.25455 388.70735 358.25455 389.92498 L 358.25455 390.03503 C 358.25455 391.25265 359.24125 392.23993 360.45945 392.23993 M 368.32285 411.2008 L 368.2128 411.2008 C 366.99575 411.2008 366.0079 412.18922 366.0079 413.4057 C 366.0079 414.62334 366.99575 415.6106 368.2128 415.6106 L 368.32285 415.6106 C 369.53962 415.6106 370.52747 414.62334 370.52747 413.4057 C 370.52747 412.18922 369.53962 411.2008 368.32285 411.2008 M 383.83127 411.2008 C 382.61365 411.2008 381.62666 412.18922 381.62666 413.4057 C 381.62666 414.62334 382.61365 415.6106 383.83127 415.6106 L 383.94103 415.6106 C 385.15752 415.6106 386.09006 414.62334 386.09006 413.4057 C 386.09006 412.18922 385.0509 411.2008 383.83127 411.2008 M 376.02118 411.2008 C 374.80413 411.2008 373.81629 412.18922 373.81629 413.4057 C 373.81629 414.62334 374.80413 415.6106 376.02118 415.6106 L 376.13095 415.6106 C 377.34829 415.6106 378.28025 414.62334 378.28025 413.4057 C 378.28025 412.18922 377.23938 411.2008 376.02118 411.2008 M 393.87449 413.4057 C 393.87449 414.62334 392.9143 415.6106 391.6944 415.6106 L 391.6385 415.6106 C 390.42202 415.6106 389.4336 414.62334 389.4336 413.4057 C 389.4336 412.18922 390.42202 411.2008 391.6385 411.2008 C 392.85614 411.2008 393.87449 412.18808 393.87449 413.4057" fill="#020302"/><circle cx="492.2183" cy="397.78824" r="37.50006" fill="#ec0020"/><circle cx="492.2183" cy="397.78824" r="37.50006" stroke="black" stroke-linecap="round" stroke-linejoin="round" stroke-width="3"/><path d="M 509.58326 381.43637 C 508.13728 381.43637 506.9647 382.55536 506.85066 383.9717 L 500.25335 387.3275 C 499.76043 386.86766 499.10585 386.58114 498.37802 386.58114 C 496.8559 386.58114 495.62203 387.81502 495.62203 389.3374 C 495.62203 390.18727 496.01603 390.93934 496.62128 391.44424 L 495.84184 396.41909 C 494.9612 396.65058 494.2593 397.30116 493.95567 398.14788 L 488.84626 398.4974 C 488.379 397.64299 487.48067 397.05114 486.43438 397.05114 C 484.912 397.05114 483.67811 398.28473 483.67811 399.80655 C 483.67811 400.15407 483.74996 400.48678 483.86884 400.79467 L 476.71674 411.22675 C 476.58845 411.2031 476.46387 411.1706 476.3293 411.1706 C 475.11253 411.1706 474.1247 412.18466 474.1247 413.40143 C 474.1247 414.61906 475.11253 415.60605 476.3293 415.60605 L 476.38433 415.60605 C 477.60138 415.60605 478.56157 414.61906 478.56157 413.40143 C 478.56157 413.13459 478.50227 412.8837 478.41447 412.6468 L 485.4588 402.37522 C 485.7627 402.4904 486.09028 402.56253 486.43552 402.56253 C 487.64602 402.56253 488.6621 401.77653 489.03128 400.69347 L 494.10848 400.3448 C 494.5692 401.22545 495.48006 401.83041 496.53946 401.83041 C 498.06185 401.83041 499.29544 400.59682 499.29544 399.07443 C 499.29544 398.09828 498.78513 397.24585 498.0188 396.7555 L 498.75804 392.05348 C 500.09313 391.86845 501.12345 390.7375 501.132 389.35309 L 507.58163 386.0731 C 508.08568 386.60765 508.79498 386.94748 509.58526 386.94748 C 511.10765 386.94748 512.34152 385.7136 512.34152 384.19122 C 512.34152 382.6691 511.10537 381.43637 509.58326 381.43637 M 476.32845 384.40275 C 477.5455 384.40275 478.53306 383.38754 478.53306 382.17049 C 478.53306 380.95343 477.5455 379.96587 476.32845 379.96587 C 475.1114 379.96587 474.12355 380.95343 474.12355 382.17049 L 474.12355 382.2255 C 474.12355 383.44256 475.11025 384.40275 476.32845 384.40275 M 476.32845 407.80309 C 477.5455 407.80309 478.53306 406.76307 478.53306 405.5423 C 478.53306 404.32155 477.5455 403.3377 476.32845 403.3377 C 475.1114 403.3377 474.12355 404.32582 474.12355 405.5423 L 474.12355 405.65207 C 474.12355 406.8677 475.11025 407.80309 476.32845 407.80309 M 476.32845 399.99385 C 477.5455 399.99385 478.53306 398.9527 478.53306 397.73364 C 478.53306 396.51374 477.5455 395.52875 476.32845 395.52875 C 475.1114 395.52875 474.12355 396.51602 474.12355 397.73364 L 474.12355 397.8434 C 474.12355 399.06132 475.11025 399.99385 476.32845 399.99385 M 476.32845 392.23993 C 477.5455 392.23993 478.53306 391.25265 478.53306 390.03503 L 478.53306 389.92498 C 478.53306 388.70735 477.5455 387.72037 476.32845 387.72037 C 475.1114 387.72037 474.12355 388.70735 474.12355 389.92498 L 474.12355 390.03503 C 474.12355 391.25265 475.11025 392.23993 476.32845 392.23993 M 484.19185 411.2008 L 484.0818 411.2008 C 482.86475 411.2008 481.8769 412.18922 481.8769 413.4057 C 481.8769 414.62334 482.86475 415.6106 484.0818 415.6106 L 484.19185 415.6106 C 485.40862 415.6106 486.39646 414.62334 486.39646 413.4057 C 486.39646 412.18922 485.40862 411.2008 484.19185 411.2008 M 499.70027 411.2008 C 498.48264 411.2008 497.49566 412.18922 497.49566 413.4057 C 497.49566 414.62334 498.48264 415.6106 499.70027 415.6106 L 499.81003 415.6106 C 501.02652 415.6106 501.95905 414.62334 501.95905 413.4057 C 501.95905 412.18922 500.9199 411.2008 499.70027 411.2008 M 491.89018 411.2008 C 490.67313 411.2008 489.68528 412.18922 489.68528 413.4057 C 489.68528 414.62334 490.67313 415.6106 491.89018 415.6106 L 491.99994 415.6106 C 493.21728 415.6106 494.14925 414.62334 494.14925 413.4057 C 494.14925 412.18922 493.10838 411.2008 491.89018 411.2008 M 509.74348 413.4057 C 509.74348 414.62334 508.7833 415.6106 507.5634 415.6106 L 507.5075 415.6106 C 506.29102 415.6106 505.3026 414.62334 505.3026 413.4057 C 505.3026 412.18922 506.29102 411.2008 507.5075 411.2008 C 508.72514 411.2008 509.74348 412.18808 509.74348 413.4057" fill="#020302"/><circle cx="260.4803" cy="397.78824" r="37.50006" fill="#ffff50"/><circle cx="260.4803" cy="397.78824" r="37.50006" stroke="black" stroke-linecap="round" stroke-linejoin="round" stroke-width="3"/><path d="M 277.84527 381.43637 C 276.39928 381.43637 275.2267 382.55536 275.11266 383.9717 L 268.51536 387.3275 C 268.02243 386.86766 267.36786 386.58114 266.64002 386.58114 C 265.11792 386.58114 263.88404 387.81502 263.88404 389.3374 C 263.88404 390.18727 264.27804 390.93934 264.88329 391.44424 L 264.10385 396.41909 C 263.2232 396.65058 262.5213 397.30116 262.21768 398.14788 L 257.10826 398.4974 C 256.641 397.64299 255.74267 397.05114 254.69639 397.05114 C 253.174 397.05114 251.94012 398.28473 251.94012 399.80655 C 251.94012 400.15407 252.01196 400.48678 252.13085 400.79467 L 244.97875 411.22675 C 244.85046 411.2031 244.72587 411.1706 244.59131 411.1706 C 243.37454 411.1706 242.3867 412.18466 242.3867 413.40143 C 242.3867 414.61906 243.37454 415.60605 244.59131 415.60605 L 244.64633 415.60605 C 245.86339 415.60605 246.82358 414.61906 246.82358 413.40143 C 246.82358 413.13459 246.76428 412.8837 246.67647 412.6468 L 253.7208 402.37522 C 254.02471 402.4904 254.35228 402.56253 254.69753 402.56253 C 255.90803 402.56253 256.9241 401.77653 257.29329 400.69347 L 262.37049 400.3448 C 262.8312 401.22545 263.74206 401.83041 264.80147 401.83041 C 266.32386 401.83041 267.55745 400.59682 267.55745 399.07443 C 267.55745 398.09828 267.04713 397.24585 266.2808 396.7555 L 267.02005 392.05348 C 268.35513 391.86845 269.38546 390.7375 269.39401 389.35309 L 275.84364 386.0731 C 276.34768 386.60765 277.05699 386.94748 277.84726 386.94748 C 279.36965 386.94748 280.60353 385.7136 280.60353 384.19122 C 280.60353 382.6691 279.36737 381.43637 277.84527 381.43637 M 244.59046 384.40275 C 245.80751 384.40275 246.79507 383.38754 246.79507 382.17049 C 246.79507 380.95343 245.80751 379.96587 244.59046 379.96587 C 243.3734 379.96587 242.38556 380.95343 242.38556 382.17049 L 242.38556 382.2255 C 242.38556 383.44256 243.37226 384.40275 244.59046 384.40275 M 244.59046 407.80309 C 245.80751 407.80309 246.79507 406.76307 246.79507 405.5423 C 246.79507 404.32155 245.80751 403.3377 244.59046 403.3377 C 243.3734 403.3377 242.38556 404.32582 242.38556 405.5423 L 242.38556 405.65207 C 242.38556 406.8677 243.37226 407.80309 244.59046 407.80309 M 244.59046 399.99385 C 245.80751 399.99385 246.79507 398.9527 246.79507 397.73364 C 246.79507 396.51374 245.80751 395.52875 244.59046 395.52875 C 243.3734 395.52875 242.38556 396.51602 242.38556 397.73364 L 242.38556 397.8434 C 242.38556 399.06132 243.37226 399.99385 244.59046 399.99385 M 244.59046 392.23993 C 245.80751 392.23993 246.79507 391.25265 246.79507 390.03503 L 246.79507 389.92498 C 246.79507 388.70735 245.80751 387.72037 244.59046 387.72037 C 243.3734 387.72037 242.38556 388.70735 242.38556 389.92498 L 242.38556 390.03503 C 242.38556 391.25265 243.37226 392.23993 244.59046 392.23993 M 252.45386 411.2008 L 252.34381 411.2008 C 251.12675 411.2008 250.13891 412.18922 250.13891 413.4057 C 250.13891 414.62334 251.12675 415.6106 252.34381 415.6106 L 252.45386 415.6106 C 253.67063 415.6106 254.65847 414.62334 254.65847 413.4057 C 254.65847 412.18922 253.67063 411.2008 252.45386 411.2008 M 267.96228 411.2008 C 266.74465 411.2008 265.75766 412.18922 265.75766 413.4057 C 265.75766 414.62334 266.74465 415.6106 267.96228 415.6106 L 268.07204 415.6106 C 269.28852 415.6106 270.22106 414.62334 270.22106 413.4057 C 270.22106 412.18922 269.1819 411.2008 267.96228 411.2008 M 260.15219 411.2008 C 258.93513 411.2008 257.94729 412.18922 257.94729 413.4057 C 257.94729 414.62334 258.93513 415.6106 260.15219 415.6106 L 260.26195 415.6106 C 261.47929 415.6106 262.41126 414.62334 262.41126 413.4057 C 262.41126 412.18922 261.37039 411.2008 260.15219 411.2008 M 278.00549 413.4057 C 278.00549 414.62334 277.0453 415.6106 275.8254 415.6106 L 275.76952 415.6106 C 274.55303 415.6106 273.56462 414.62334 273.56462 413.4057 C 273.56462 412.18922 274.55303 411.2008 275.76952 411.2008 C 276.98714 411.2008 278.00549 412.18808 278.00549 413.4057" fill="#020302"/><path d="M 521.1613 419.35807 L 505.0793 435.21407 C 504.6893 435.60407 504.3853 435.93407 504.0533 435.60107 L 496.8693 428.08507 C 496.6933 427.90807 496.8663 427.44807 497.2573 427.05807 L 497.9643 426.35107 C 498.3543 425.96007 498.8143 425.78707 498.9903 425.96307 L 504.3753 431.59807 L 519.0403 417.23707 C 519.4303 416.84607 520.0633 416.84607 520.4543 417.23707 L 521.1613 417.94407 C 521.5513 418.33407 521.5513 418.96807 521.1613 419.35807 M 507.7183 403.67907 C 495.5683 403.67907 485.7183 413.52907 485.7183 425.67907 C 485.7183 437.82907 495.5683 447.67907 507.7183 447.67907 C 519.8693 447.67907 529.7183 437.82907 529.7183 425.67907 C 529.7183 413.52907 519.8693 403.67907 507.7183 403.67907" fill="#0f6df0"/><circle cx="144.61131" cy="397.78824" r="37.50006" fill="#fec08e"/><circle cx="144.61131" cy="397.78824" r="37.50006" stroke="black" stroke-linecap="round" stroke-linejoin="round" stroke-width="3"/><path d="M 161.97627 381.43637 C 160.53029 381.43637 159.357705 382.55536 159.24367 383.9717 L 152.64636 387.3275 C 152.15344 386.86766 151.49887 386.58114 150.77103 386.58114 C 149.24892 386.58114 148.015044 387.81502 148.015044 389.3374 C 148.015044 390.18727 148.40904 390.93934 149.01429 391.44424 L 148.23485 396.41909 C 147.3542 396.65058 146.65231 397.30116 146.34868 398.14788 L 141.23927 398.4974 C 140.772 397.64299 139.87368 397.05114 138.82739 397.05114 C 137.305 397.05114 136.071125 398.28473 136.071125 399.80655 C 136.071125 400.15407 136.14297 400.48678 136.26185 400.79467 L 129.109755 411.22675 C 128.98146 411.2031 128.85688 411.1706 128.722315 411.1706 C 127.50554 411.1706 126.5177 412.18466 126.5177 413.40143 C 126.5177 414.61906 127.50554 415.60605 128.722315 415.60605 L 128.77734 415.60605 C 129.994395 415.60605 130.95458 414.61906 130.95458 413.40143 C 130.95458 413.13459 130.895285 412.8837 130.80748 412.6468 L 137.85181 402.37522 C 138.15572 402.4904 138.48329 402.56253 138.82853 402.56253 C 140.03903 402.56253 141.0551 401.77653 141.42429 400.69347 L 146.50149 400.3448 C 146.9622 401.22545 147.87307 401.83041 148.93247 401.83041 C 150.45486 401.83041 151.68845 400.59682 151.68845 399.07443 C 151.68845 398.09828 151.17814 397.24585 150.41181 396.7555 L 151.15105 392.05348 C 152.48614 391.86845 153.51646 390.7375 153.52501 389.35309 L 159.97464 386.0731 C 160.47869 386.60765 161.18799 386.94748 161.97827 386.94748 C 163.50066 386.94748 164.73454 385.7136 164.73454 384.19122 C 164.73454 382.6691 163.49838 381.43637 161.97627 381.43637 M 128.72146 384.40275 C 129.93852 384.40275 130.926075 383.38754 130.926075 382.17049 C 130.926075 380.95343 129.93852 379.96587 128.72146 379.96587 C 127.5044 379.96587 126.51656 380.95343 126.51656 382.17049 L 126.51656 382.2255 C 126.51656 383.44256 127.50326 384.40275 128.72146 384.40275 M 128.72146 407.80309 C 129.93852 407.80309 130.926075 406.76307 130.926075 405.5423 C 130.926075 404.32155 129.93852 403.3377 128.72146 403.3377 C 127.5044 403.3377 126.51656 404.32582 126.51656 405.5423 L 126.51656 405.65207 C 126.51656 406.8677 127.50326 407.80309 128.72146 407.80309 M 128.72146 399.99385 C 129.93852 399.99385 130.926075 398.9527 130.926075 397.73364 C 130.926075 396.51374 129.93852 395.52875 128.72146 395.52875 C 127.5044 395.52875 126.51656 396.51602 126.51656 397.73364 L 126.51656 397.8434 C 126.51656 399.06132 127.50326 399.99385 128.72146 399.99385 M 128.72146 392.23993 C 129.93852 392.23993 130.926075 391.25265 130.926075 390.03503 L 130.926075 389.92498 C 130.926075 388.70735 129.93852 387.72037 128.72146 387.72037 C 127.5044 387.72037 126.51656 388.70735 126.51656 389.92498 L 126.51656 390.03503 C 126.51656 391.25265 127.50326 392.23993 128.72146 392.23993 M 136.58486 411.2008 L 136.474815 411.2008 C 135.25776 411.2008 134.269916 412.18922 134.269916 413.4057 C 134.269916 414.62334 135.25776 415.6106 136.474815 415.6106 L 136.58486 415.6106 C 137.80163 415.6106 138.789475 414.62334 138.789475 413.4057 C 138.789475 412.18922 137.80163 411.2008 136.58486 411.2008 M 152.09328 411.2008 C 150.875655 411.2008 149.88867 412.18922 149.88867 413.4057 C 149.88867 414.62334 150.875655 415.6106 152.09328 415.6106 L 152.20304 415.6106 C 153.41953 415.6106 154.35206 414.62334 154.35206 413.4057 C 154.35206 412.18922 153.3129 411.2008 152.09328 411.2008 M 144.28319 411.2008 C 143.06614 411.2008 142.07829 412.18922 142.07829 413.4057 C 142.07829 414.62334 143.06614 415.6106 144.28319 415.6106 L 144.39295 415.6106 C 145.610296 415.6106 146.54226 414.62334 146.54226 413.4057 C 146.54226 412.18922 145.50139 411.2008 144.28319 411.2008 M 162.13649 413.4057 C 162.13649 414.62334 161.17631 415.6106 159.9564 415.6106 L 159.90052 415.6106 C 158.68403 415.6106 157.69562 414.62334 157.69562 413.4057 C 157.69562 412.18922 158.68403 411.2008 159.90052 411.2008 C 161.11815 411.2008 162.13649 412.18808 162.13649 413.4057" fill="#020302"/><circle cx="321.93616" cy="729.1813" r="82.50013" fill="#f20025"/><circle cx="321.93616" cy="729.1813" r="82.50013" stroke="black" stroke-linecap="round" stroke-linejoin="round" stroke-width="3"/><path d="M 360.13908 693.20718 C 356.95792 693.20718 354.37824 695.66895 354.12735 698.7849 L 339.61328 706.16768 C 338.52884 705.156 337.08879 704.52566 335.48754 704.52566 C 332.13891 704.52566 329.42438 707.2402 329.42438 710.58945 C 329.42438 712.45914 330.29118 714.1137 331.62273 715.22447 L 329.90796 726.16915 C 327.97053 726.67843 326.42636 728.1097 325.75839 729.9725 L 314.51768 730.74145 C 313.4897 728.86172 311.51338 727.55965 309.21155 727.55965 C 305.86229 727.55965 303.14776 730.27356 303.14776 733.62156 C 303.14776 734.3861 303.30582 735.11806 303.56736 735.79544 L 287.83275 758.746 C 287.5505 758.69395 287.27642 758.62245 286.98038 758.62245 C 284.30348 758.62245 282.13023 760.8534 282.13023 763.5303 C 282.13023 766.2091 284.30348 768.38046 286.98038 768.38046 L 287.10143 768.38046 C 289.77895 768.38046 291.89137 766.2091 291.89137 763.5303 C 291.89137 762.94325 291.76091 762.3913 291.56773 761.8701 L 307.06526 739.27265 C 307.73386 739.52604 308.45452 739.6847 309.21406 739.6847 C 311.87716 739.6847 314.1125 737.95552 314.92473 735.5728 L 326.09457 734.8057 C 327.10813 736.74314 329.11204 738.07406 331.44272 738.07406 C 334.79198 738.07406 337.50588 735.36016 337.50588 732.0109 C 337.50588 729.86337 336.38319 727.98803 334.69727 726.90924 L 336.3236 716.5648 C 339.26079 716.15775 341.5275 713.66964 341.54631 710.62395 L 355.7355 703.408 C 356.8444 704.584 358.40487 705.3316 360.14348 705.3316 C 363.49273 705.3316 366.20726 702.6171 366.20726 699.26783 C 366.20726 695.9192 363.48772 693.20718 360.13908 693.20718 M 286.9785 699.7332 C 289.65602 699.7332 291.82865 697.49975 291.82865 694.82222 C 291.82865 692.1447 289.65602 689.97207 286.9785 689.97207 C 284.30097 689.97207 282.12772 692.1447 282.12772 694.82222 L 282.12772 694.94327 C 282.12772 697.6208 284.29846 699.7332 286.9785 699.7332 M 286.9785 751.21394 C 289.65602 751.21394 291.82865 748.9259 291.82865 746.24023 C 291.82865 743.55455 289.65602 741.3901 286.9785 741.3901 C 284.30097 741.3901 282.12772 743.56396 282.12772 746.24023 L 282.12772 746.4817 C 282.12772 749.1561 284.29846 751.21394 286.9785 751.21394 M 286.9785 734.03363 C 289.65602 734.03363 291.82865 731.7431 291.82865 729.06117 C 291.82865 726.37738 289.65602 724.2104 286.9785 724.2104 C 284.30097 724.2104 282.12772 726.3824 282.12772 729.06117 L 282.12772 729.30265 C 282.12772 731.98205 284.29846 734.03363 286.9785 734.03363 M 286.9785 716.975 C 289.65602 716.975 291.82865 714.803 291.82865 712.1242 L 291.82865 711.8821 C 291.82865 709.20334 289.65602 707.03196 286.9785 707.03196 C 284.30097 707.03196 282.12772 709.20334 282.12772 711.8821 L 282.12772 712.1242 C 282.12772 714.803 284.29846 716.975 286.9785 716.975 M 304.27798 758.68894 L 304.03588 758.68894 C 301.35835 758.68894 299.1851 760.86345 299.1851 763.5397 C 299.1851 766.2185 301.35835 768.3905 304.03588 768.3905 L 304.27798 768.3905 C 306.95488 768.3905 309.12813 766.2185 309.12813 763.5397 C 309.12813 760.86345 306.95488 758.68894 304.27798 758.68894 M 338.3965 758.68894 C 335.71773 758.68894 333.54635 760.86345 333.54635 763.5397 C 333.54635 766.2185 335.71773 768.3905 338.3965 768.3905 L 338.63798 768.3905 C 341.31425 768.3905 343.36583 766.2185 343.36583 763.5397 C 343.36583 760.86345 341.07967 758.68894 338.3965 758.68894 M 321.21431 758.68894 C 318.53679 758.68894 316.36353 760.86345 316.36353 763.5397 C 316.36353 766.2185 318.53679 768.3905 321.21431 768.3905 L 321.45578 768.3905 C 324.13393 768.3905 326.18426 766.2185 326.18426 763.5397 C 326.18426 760.86345 323.89434 758.68894 321.21431 758.68894 M 360.49157 763.5397 C 360.49157 766.2185 358.37916 768.3905 355.69536 768.3905 L 355.57243 768.3905 C 352.89616 768.3905 350.72165 766.2185 350.72165 763.5397 C 350.72165 760.86345 352.89616 758.68894 355.57243 758.68894 C 358.2512 758.68894 360.49157 760.86094 360.49157 763.5397" fill="#020302"/></g></g></svg>
