<?xml version="1.0"?>
<!DOCTYPE svg PUBLIC "-//W3C//DTD SVG 1.1//EN" "http://www.w3.org/Graphics/SVG/1.1/DTD/svg11.dtd">
<svg xmlns="http://www.w3.org/2000/svg" xmlns:xl="http://www.w3.org/1999/xlink" version="1.1" viewBox="87 322 466 494" width="466pt" height="494pt"><metadata xmlns:dc="http://purl.org/dc/elements/1.1/"><dc:date>2016-12-06 00:55Z</dc:date><!-- Produced by OmniGraffle Professional 5.4.2 --></metadata><defs></defs><g stroke="none" stroke-opacity="1" stroke-dasharray="none" fill="none" fill-opacity="1"><title>27</title><g><title>Layer 1</title><path d="M 95.31265 328.0933 L 551.8577 328.0933 C 552.01277 328.0933 552.1385 328.21902 552.1385 328.3741 L 552.1385 328.3741 C 552.1385 328.52919 552.01277 328.6549 551.8577 328.6549 L 95.31265 328.6549 C 95.15757 328.6549 95.03185 328.52919 95.03185 328.3741 C 95.03185 328.3741 95.03185 328.3741 95.03185 328.3741 L 95.03185 328.3741 C 95.03185 328.21902 95.15757 328.0933 95.31265 328.0933 C 95.31265 328.0933 95.31265 328.0933 95.31265 328.0933 Z" fill="#a4a5a4"/><path d="M 88.14224 467.8642 L 544.68728 467.8642 C 544.84236 467.8642 544.96808 467.9899 544.96808 468.145 L 544.96808 468.145 C 544.96808 468.30007 544.84236 468.4258 544.68728 468.4258 L 88.14224 468.4258 C 87.98716 468.4258 87.86144 468.30007 87.86144 468.145 C 87.86144 468.145 87.86144 468.145 87.86144 468.145 L 87.86144 468.145 C 87.86144 467.9899 87.98716 467.8642 88.14224 467.8642 C 88.14224 467.8642 88.14224 467.8642 88.14224 467.8642 Z" fill="#a4a5a4"/><circle cx="374.34926" cy="398.25956" r="37.50006" fill="#f87d2e"/><circle cx="374.34926" cy="398.25956" r="37.50006" stroke="black" stroke-linecap="round" stroke-linejoin="round" stroke-width="3"/><path d="M 391.71422 381.90769 C 390.26824 381.90769 389.09566 383.02667 388.98162 384.443 L 382.38431 387.79882 C 381.89139 387.33897 381.23682 387.05245 380.50898 387.05245 C 378.98687 387.05245 377.753 388.28633 377.753 389.80872 C 377.753 390.65858 378.147 391.41065 378.75224 391.91555 L 377.9728 396.8904 C 377.09215 397.1219 376.39026 397.77247 376.08663 398.6192 L 370.97722 398.96872 C 370.50996 398.1143 369.61163 397.52245 368.56534 397.52245 C 367.04295 397.52245 365.80908 398.75604 365.80908 400.27786 C 365.80908 400.62539 365.88092 400.9581 365.9998 401.266 L 358.8477 411.69807 C 358.71942 411.6744 358.59483 411.6419 358.46027 411.6419 C 357.2435 411.6419 356.25565 412.65597 356.25565 413.87275 C 356.25565 415.09037 357.2435 416.07736 358.46027 416.07736 L 358.5153 416.07736 C 359.73235 416.07736 360.69254 415.09037 360.69254 413.87275 C 360.69254 413.6059 360.63324 413.35502 360.54543 413.1181 L 367.58976 402.84654 C 367.89367 402.96171 368.22124 403.03384 368.56648 403.03384 C 369.77698 403.03384 370.79305 402.24784 371.16224 401.16478 L 376.23944 400.81611 C 376.70015 401.69676 377.61102 402.30173 378.67042 402.30173 C 380.19281 402.30173 381.4264 401.06813 381.4264 399.54574 C 381.4264 398.5696 380.9161 397.71717 380.14976 397.2268 L 380.889 392.5248 C 382.2241 392.33977 383.25441 391.2088 383.26296 389.8244 L 389.7126 386.54442 C 390.21664 387.07897 390.92595 387.4188 391.71622 387.4188 C 393.2386 387.4188 394.47249 386.18492 394.47249 384.66253 C 394.47249 383.14042 393.23633 381.90769 391.71422 381.90769 M 358.45941 384.87407 C 359.67647 384.87407 360.66403 383.85886 360.66403 382.6418 C 360.66403 381.42474 359.67647 380.43718 358.45941 380.43718 C 357.24236 380.43718 356.25451 381.42474 356.25451 382.6418 L 356.25451 382.69682 C 356.25451 383.91388 357.24121 384.87407 358.45941 384.87407 M 358.45941 408.2744 C 359.67647 408.2744 360.66403 407.23438 360.66403 406.01362 C 360.66403 404.79286 359.67647 403.809 358.45941 403.809 C 357.24236 403.809 356.25451 404.79713 356.25451 406.01362 L 356.25451 406.12338 C 356.25451 407.33901 357.24121 408.2744 358.45941 408.2744 M 358.45941 400.46517 C 359.67647 400.46517 360.66403 399.424 360.66403 398.20496 C 360.66403 396.98505 359.67647 396.00006 358.45941 396.00006 C 357.24236 396.00006 356.25451 396.98733 356.25451 398.20496 L 356.25451 398.31472 C 356.25451 399.53263 357.24121 400.46517 358.45941 400.46517 M 358.45941 392.71124 C 359.67647 392.71124 360.66403 391.72397 360.66403 390.50634 L 360.66403 390.3963 C 360.66403 389.17867 359.67647 388.19168 358.45941 388.19168 C 357.24236 388.19168 356.25451 389.17867 356.25451 390.3963 L 356.25451 390.50634 C 356.25451 391.72397 357.24121 392.71124 358.45941 392.71124 M 366.32281 411.67212 L 366.21277 411.67212 C 364.9957 411.67212 364.00787 412.66054 364.00787 413.87702 C 364.00787 415.09465 364.9957 416.08192 366.21277 416.08192 L 366.32281 416.08192 C 367.53958 416.08192 368.52743 415.09465 368.52743 413.87702 C 368.52743 412.66054 367.53958 411.67212 366.32281 411.67212 M 381.83123 411.67212 C 380.6136 411.67212 379.62662 412.66054 379.62662 413.87702 C 379.62662 415.09465 380.6136 416.08192 381.83123 416.08192 L 381.941 416.08192 C 383.15748 416.08192 384.09002 415.09465 384.09002 413.87702 C 384.09002 412.66054 383.05086 411.67212 381.83123 411.67212 M 374.02115 411.67212 C 372.80409 411.67212 371.81625 412.66054 371.81625 413.87702 C 371.81625 415.09465 372.80409 416.08192 374.02115 416.08192 L 374.1309 416.08192 C 375.34825 416.08192 376.28021 415.09465 376.28021 413.87702 C 376.28021 412.66054 375.23934 411.67212 374.02115 411.67212 M 391.87445 413.87702 C 391.87445 415.09465 390.91426 416.08192 389.69435 416.08192 L 389.63847 416.08192 C 388.42198 416.08192 387.43357 415.09465 387.43357 413.87702 C 387.43357 412.66054 388.42198 411.67212 389.63847 411.67212 C 390.8561 411.67212 391.87445 412.6594 391.87445 413.87702" fill="#020302"/><circle cx="490.21826" cy="398.25956" r="37.50006" fill="#ec0020"/><circle cx="490.21826" cy="398.25956" r="37.50006" stroke="black" stroke-linecap="round" stroke-linejoin="round" stroke-width="3"/><path d="M 507.58322 381.90769 C 506.13724 381.90769 504.96465 383.02667 504.85062 384.443 L 498.2533 387.79882 C 497.7604 387.33897 497.10582 387.05245 496.37798 387.05245 C 494.85587 387.05245 493.622 388.28633 493.622 389.80872 C 493.622 390.65858 494.016 391.41065 494.62124 391.91555 L 493.8418 396.8904 C 492.96115 397.1219 492.25926 397.77247 491.95563 398.6192 L 486.84622 398.96872 C 486.37895 398.1143 485.48063 397.52245 484.43434 397.52245 C 482.91195 397.52245 481.67808 398.75604 481.67808 400.27786 C 481.67808 400.62539 481.74992 400.9581 481.8688 401.266 L 474.7167 411.69807 C 474.5884 411.6744 474.46383 411.6419 474.32926 411.6419 C 473.1125 411.6419 472.12465 412.65597 472.12465 413.87275 C 472.12465 415.09037 473.1125 416.07736 474.32926 416.07736 L 474.3843 416.07736 C 475.60134 416.07736 476.56153 415.09037 476.56153 413.87275 C 476.56153 413.6059 476.50223 413.35502 476.41443 413.1181 L 483.45876 402.84654 C 483.76267 402.96171 484.09024 403.03384 484.43548 403.03384 C 485.64598 403.03384 486.66205 402.24784 487.03124 401.16478 L 492.10844 400.81611 C 492.56915 401.69676 493.48002 402.30173 494.53942 402.30173 C 496.0618 402.30173 497.2954 401.06813 497.2954 399.54574 C 497.2954 398.5696 496.7851 397.71717 496.01876 397.2268 L 496.758 392.5248 C 498.0931 392.33977 499.1234 391.2088 499.13196 389.8244 L 505.5816 386.54442 C 506.08564 387.07897 506.79494 387.4188 507.58522 387.4188 C 509.1076 387.4188 510.3415 386.18492 510.3415 384.66253 C 510.3415 383.14042 509.10533 381.90769 507.58322 381.90769 M 474.3284 384.87407 C 475.54547 384.87407 476.53302 383.85886 476.53302 382.6418 C 476.53302 381.42474 475.54547 380.43718 474.3284 380.43718 C 473.11135 380.43718 472.1235 381.42474 472.1235 382.6418 L 472.1235 382.69682 C 472.1235 383.91388 473.1102 384.87407 474.3284 384.87407 M 474.3284 408.2744 C 475.54547 408.2744 476.53302 407.23438 476.53302 406.01362 C 476.53302 404.79286 475.54547 403.809 474.3284 403.809 C 473.11135 403.809 472.1235 404.79713 472.1235 406.01362 L 472.1235 406.12338 C 472.1235 407.33901 473.1102 408.2744 474.3284 408.2744 M 474.3284 400.46517 C 475.54547 400.46517 476.53302 399.424 476.53302 398.20496 C 476.53302 396.98505 475.54547 396.00006 474.3284 396.00006 C 473.11135 396.00006 472.1235 396.98733 472.1235 398.20496 L 472.1235 398.31472 C 472.1235 399.53263 473.1102 400.46517 474.3284 400.46517 M 474.3284 392.71124 C 475.54547 392.71124 476.53302 391.72397 476.53302 390.50634 L 476.53302 390.3963 C 476.53302 389.17867 475.54547 388.19168 474.3284 388.19168 C 473.11135 388.19168 472.1235 389.17867 472.1235 390.3963 L 472.1235 390.50634 C 472.1235 391.72397 473.1102 392.71124 474.3284 392.71124 M 482.1918 411.67212 L 482.08176 411.67212 C 480.8647 411.67212 479.87687 412.66054 479.87687 413.87702 C 479.87687 415.09465 480.8647 416.08192 482.08176 416.08192 L 482.1918 416.08192 C 483.40858 416.08192 484.39642 415.09465 484.39642 413.87702 C 484.39642 412.66054 483.40858 411.67212 482.1918 411.67212 M 497.70023 411.67212 C 496.4826 411.67212 495.49562 412.66054 495.49562 413.87702 C 495.49562 415.09465 496.4826 416.08192 497.70023 416.08192 L 497.81 416.08192 C 499.02648 416.08192 499.959 415.09465 499.959 413.87702 C 499.959 412.66054 498.91985 411.67212 497.70023 411.67212 M 489.89014 411.67212 C 488.6731 411.67212 487.68524 412.66054 487.68524 413.87702 C 487.68524 415.09465 488.6731 416.08192 489.89014 416.08192 L 489.9999 416.08192 C 491.21725 416.08192 492.1492 415.09465 492.1492 413.87702 C 492.1492 412.66054 491.10834 411.67212 489.89014 411.67212 M 507.74344 413.87702 C 507.74344 415.09465 506.78325 416.08192 505.56335 416.08192 L 505.50747 416.08192 C 504.29098 416.08192 503.30257 415.09465 503.30257 413.87702 C 503.30257 412.66054 504.29098 411.67212 505.50747 411.67212 C 506.7251 411.67212 507.74344 412.6594 507.74344 413.87702" fill="#020302"/><circle cx="258.48026" cy="398.25956" r="37.50006" fill="#ffff50"/><circle cx="258.48026" cy="398.25956" r="37.50006" stroke="black" stroke-linecap="round" stroke-linejoin="round" stroke-width="3"/><path d="M 275.84523 381.90769 C 274.39924 381.90769 273.22666 383.02667 273.11262 384.443 L 266.51532 387.79882 C 266.0224 387.33897 265.36782 387.05245 264.63998 387.05245 C 263.11788 387.05245 261.884 388.28633 261.884 389.80872 C 261.884 390.65858 262.278 391.41065 262.88325 391.91555 L 262.1038 396.8904 C 261.22316 397.1219 260.52126 397.77247 260.21764 398.6192 L 255.10822 398.96872 C 254.64096 398.1143 253.74264 397.52245 252.69635 397.52245 C 251.17396 397.52245 249.94008 398.75604 249.94008 400.27786 C 249.94008 400.62539 250.01192 400.9581 250.13081 401.266 L 242.97871 411.69807 C 242.85042 411.6744 242.72583 411.6419 242.59127 411.6419 C 241.3745 411.6419 240.38666 412.65597 240.38666 413.87275 C 240.38666 415.09037 241.3745 416.07736 242.59127 416.07736 L 242.6463 416.07736 C 243.86335 416.07736 244.82354 415.09037 244.82354 413.87275 C 244.82354 413.6059 244.76424 413.35502 244.67643 413.1181 L 251.72076 402.84654 C 252.02467 402.96171 252.35224 403.03384 252.69749 403.03384 C 253.90799 403.03384 254.92406 402.24784 255.29325 401.16478 L 260.37045 400.81611 C 260.83116 401.69676 261.74202 402.30173 262.80143 402.30173 C 264.32382 402.30173 265.5574 401.06813 265.5574 399.54574 C 265.5574 398.5696 265.0471 397.71717 264.28077 397.2268 L 265.02001 392.5248 C 266.3551 392.33977 267.38542 391.2088 267.39397 389.8244 L 273.8436 386.54442 C 274.34764 387.07897 275.05695 387.4188 275.84722 387.4188 C 277.36961 387.4188 278.60349 386.18492 278.60349 384.66253 C 278.60349 383.14042 277.36733 381.90769 275.84523 381.90769 M 242.59042 384.87407 C 243.80747 384.87407 244.79503 383.85886 244.79503 382.6418 C 244.79503 381.42474 243.80747 380.43718 242.59042 380.43718 C 241.37336 380.43718 240.38552 381.42474 240.38552 382.6418 L 240.38552 382.69682 C 240.38552 383.91388 241.37222 384.87407 242.59042 384.87407 M 242.59042 408.2744 C 243.80747 408.2744 244.79503 407.23438 244.79503 406.01362 C 244.79503 404.79286 243.80747 403.809 242.59042 403.809 C 241.37336 403.809 240.38552 404.79713 240.38552 406.01362 L 240.38552 406.12338 C 240.38552 407.33901 241.37222 408.2744 242.59042 408.2744 M 242.59042 400.46517 C 243.80747 400.46517 244.79503 399.424 244.79503 398.20496 C 244.79503 396.98505 243.80747 396.00006 242.59042 396.00006 C 241.37336 396.00006 240.38552 396.98733 240.38552 398.20496 L 240.38552 398.31472 C 240.38552 399.53263 241.37222 400.46517 242.59042 400.46517 M 242.59042 392.71124 C 243.80747 392.71124 244.79503 391.72397 244.79503 390.50634 L 244.79503 390.3963 C 244.79503 389.17867 243.80747 388.19168 242.59042 388.19168 C 241.37336 388.19168 240.38552 389.17867 240.38552 390.3963 L 240.38552 390.50634 C 240.38552 391.72397 241.37222 392.71124 242.59042 392.71124 M 250.45382 411.67212 L 250.34377 411.67212 C 249.12671 411.67212 248.13887 412.66054 248.13887 413.87702 C 248.13887 415.09465 249.12671 416.08192 250.34377 416.08192 L 250.45382 416.08192 C 251.67059 416.08192 252.65843 415.09465 252.65843 413.87702 C 252.65843 412.66054 251.67059 411.67212 250.45382 411.67212 M 265.96224 411.67212 C 264.74461 411.67212 263.75762 412.66054 263.75762 413.87702 C 263.75762 415.09465 264.74461 416.08192 265.96224 416.08192 L 266.072 416.08192 C 267.28848 416.08192 268.22102 415.09465 268.22102 413.87702 C 268.22102 412.66054 267.18186 411.67212 265.96224 411.67212 M 258.15215 411.67212 C 256.9351 411.67212 255.94725 412.66054 255.94725 413.87702 C 255.94725 415.09465 256.9351 416.08192 258.15215 416.08192 L 258.26191 416.08192 C 259.47925 416.08192 260.41122 415.09465 260.41122 413.87702 C 260.41122 412.66054 259.37035 411.67212 258.15215 411.67212 M 276.00545 413.87702 C 276.00545 415.09465 275.04526 416.08192 273.82535 416.08192 L 273.76948 416.08192 C 272.55299 416.08192 271.56458 415.09465 271.56458 413.87702 C 271.56458 412.66054 272.55299 411.67212 273.76948 411.67212 C 274.9871 411.67212 276.00545 412.6594 276.00545 413.87702" fill="#020302"/><path d="M 403.29226 421.56615 L 387.21026 437.42215 C 386.82026 437.81215 386.51626 438.14215 386.18426 437.80915 L 379.00026 430.29315 C 378.82426 430.11615 378.99726 429.65615 379.38826 429.26615 L 380.09526 428.55915 C 380.48526 428.16815 380.94526 427.99515 381.12126 428.17115 L 386.50626 433.80615 L 401.17126 419.44515 C 401.56126 419.05415 402.19426 419.05415 402.58526 419.44515 L 403.29226 420.15215 C 403.68226 420.54215 403.68226 421.17615 403.29226 421.56615 M 389.84926 405.88715 C 377.69926 405.88715 367.84926 415.73715 367.84926 427.88715 C 367.84926 440.03715 377.69926 449.88715 389.84926 449.88715 C 402.00026 449.88715 411.84926 440.03715 411.84926 427.88715 C 411.84926 415.73715 402.00026 405.88715 389.84926 405.88715" fill="#0f6df0"/><circle cx="142.61127" cy="398.25956" r="37.50006" fill="#fec08e"/><circle cx="142.61127" cy="398.25956" r="37.50006" stroke="black" stroke-linecap="round" stroke-linejoin="round" stroke-width="3"/><path d="M 159.97623 381.90769 C 158.53025 381.90769 157.35767 383.02667 157.24363 384.443 L 150.64632 387.79882 C 150.1534 387.33897 149.49883 387.05245 148.77099 387.05245 C 147.24888 387.05245 146.015005 388.28633 146.015005 389.80872 C 146.015005 390.65858 146.409 391.41065 147.01425 391.91555 L 146.23481 396.8904 C 145.35416 397.1219 144.65227 397.77247 144.34864 398.6192 L 139.23923 398.96872 C 138.77196 398.1143 137.87364 397.52245 136.82735 397.52245 C 135.30496 397.52245 134.071086 398.75604 134.071086 400.27786 C 134.071086 400.62539 134.14293 400.9581 134.26181 401.266 L 127.109715 411.69807 C 126.981424 411.6744 126.85684 411.6419 126.722276 411.6419 C 125.505504 411.6419 124.51766 412.65597 124.51766 413.87275 C 124.51766 415.09037 125.505504 416.07736 126.722276 416.07736 L 126.7773 416.07736 C 127.994355 416.07736 128.954544 415.09037 128.954544 413.87275 C 128.954544 413.6059 128.895245 413.35502 128.80744 413.1181 L 135.85177 402.84654 C 136.15568 402.96171 136.48325 403.03384 136.82849 403.03384 C 138.03899 403.03384 139.05506 402.24784 139.42425 401.16478 L 144.50145 400.81611 C 144.96216 401.69676 145.87303 402.30173 146.93243 402.30173 C 148.45482 402.30173 149.68841 401.06813 149.68841 399.54574 C 149.68841 398.5696 149.1781 397.71717 148.41177 397.2268 L 149.15101 392.5248 C 150.4861 392.33977 151.51642 391.2088 151.52497 389.8244 L 157.9746 386.54442 C 158.47865 387.07897 159.18795 387.4188 159.97823 387.4188 C 161.50062 387.4188 162.7345 386.18492 162.7345 384.66253 C 162.7345 383.14042 161.49834 381.90769 159.97623 381.90769 M 126.72142 384.87407 C 127.93848 384.87407 128.926035 383.85886 128.926035 382.6418 C 128.926035 381.42474 127.93848 380.43718 126.72142 380.43718 C 125.50436 380.43718 124.51652 381.42474 124.51652 382.6418 L 124.51652 382.69682 C 124.51652 383.91388 125.50322 384.87407 126.72142 384.87407 M 126.72142 408.2744 C 127.93848 408.2744 128.926035 407.23438 128.926035 406.01362 C 128.926035 404.79286 127.93848 403.809 126.72142 403.809 C 125.50436 403.809 124.51652 404.79713 124.51652 406.01362 L 124.51652 406.12338 C 124.51652 407.33901 125.50322 408.2744 126.72142 408.2744 M 126.72142 400.46517 C 127.93848 400.46517 128.926035 399.424 128.926035 398.20496 C 128.926035 396.98505 127.93848 396.00006 126.72142 396.00006 C 125.50436 396.00006 124.51652 396.98733 124.51652 398.20496 L 124.51652 398.31472 C 124.51652 399.53263 125.50322 400.46517 126.72142 400.46517 M 126.72142 392.71124 C 127.93848 392.71124 128.926035 391.72397 128.926035 390.50634 L 128.926035 390.3963 C 128.926035 389.17867 127.93848 388.19168 126.72142 388.19168 C 125.50436 388.19168 124.51652 389.17867 124.51652 390.3963 L 124.51652 390.50634 C 124.51652 391.72397 125.50322 392.71124 126.72142 392.71124 M 134.58482 411.67212 L 134.474776 411.67212 C 133.25772 411.67212 132.26988 412.66054 132.26988 413.87702 C 132.26988 415.09465 133.25772 416.08192 134.474776 416.08192 L 134.58482 416.08192 C 135.80159 416.08192 136.789436 415.09465 136.789436 413.87702 C 136.789436 412.66054 135.80159 411.67212 134.58482 411.67212 M 150.09324 411.67212 C 148.875615 411.67212 147.88863 412.66054 147.88863 413.87702 C 147.88863 415.09465 148.875615 416.08192 150.09324 416.08192 L 150.203 416.08192 C 151.41949 416.08192 152.35202 415.09465 152.35202 413.87702 C 152.35202 412.66054 151.312865 411.67212 150.09324 411.67212 M 142.28315 411.67212 C 141.0661 411.67212 140.07825 412.66054 140.07825 413.87702 C 140.07825 415.09465 141.0661 416.08192 142.28315 416.08192 L 142.39291 416.08192 C 143.61026 416.08192 144.54222 415.09465 144.54222 413.87702 C 144.54222 412.66054 143.50135 411.67212 142.28315 411.67212 M 160.13645 413.87702 C 160.13645 415.09465 159.17627 416.08192 157.95636 416.08192 L 157.90048 416.08192 C 156.68399 416.08192 155.69558 415.09465 155.69558 413.87702 C 155.69558 412.66054 156.68399 411.67212 157.90048 411.67212 C 159.11811 411.67212 160.13645 412.6594 160.13645 413.87702" fill="#020302"/><circle cx="319.93612" cy="729.6526" r="82.50013" fill="#fd7a3c"/><circle cx="319.93612" cy="729.6526" r="82.50013" stroke="black" stroke-linecap="round" stroke-linejoin="round" stroke-width="3"/><path d="M 358.13905 693.6785 C 354.95788 693.6785 352.3782 696.14026 352.12732 699.2562 L 337.61324 706.639 C 336.5288 705.6273 335.08875 704.99698 333.4875 704.99698 C 330.13887 704.99698 327.42434 707.7115 327.42434 711.06077 C 327.42434 712.93045 328.29114 714.585 329.62269 715.6958 L 327.90792 726.64046 C 325.97049 727.14975 324.42632 728.58102 323.75835 730.4438 L 312.51764 731.21276 C 311.48965 729.33304 309.51334 728.03097 307.2115 728.03097 C 303.86225 728.03097 301.14772 730.74487 301.14772 734.09287 C 301.14772 734.85743 301.30578 735.58938 301.56732 736.26675 L 285.8327 759.21733 C 285.55047 759.16527 285.27638 759.09377 284.98034 759.09377 C 282.30344 759.09377 280.13019 761.32472 280.13019 764.0016 C 280.13019 766.6804 282.30344 768.85177 284.98034 768.85177 L 285.10139 768.85177 C 287.77891 768.85177 289.89133 766.6804 289.89133 764.0016 C 289.89133 763.41456 289.76087 762.8626 289.5677 762.3414 L 305.06522 739.74396 C 305.73382 739.99735 306.45448 740.15603 307.21402 740.15603 C 309.87712 740.15603 312.11246 738.42684 312.92469 736.0441 L 324.09453 735.27703 C 325.10809 737.21446 327.112 738.5454 329.44268 738.5454 C 332.79194 738.5454 335.50584 735.83148 335.50584 732.4822 C 335.50584 730.3347 334.38315 728.45935 332.69723 727.38056 L 334.32356 717.0361 C 337.26075 716.62906 339.52746 714.14095 339.54627 711.09526 L 353.73546 703.8793 C 354.84435 705.0553 356.40483 705.80293 358.14344 705.80293 C 361.4927 705.80293 364.20722 703.0884 364.20722 699.73914 C 364.20722 696.3905 361.48768 693.6785 358.13905 693.6785 M 284.97846 700.20453 C 287.65598 700.20453 289.82861 697.97106 289.82861 695.29354 C 289.82861 692.616 287.65598 690.4434 284.97846 690.4434 C 282.30093 690.4434 280.12768 692.616 280.12768 695.29354 L 280.12768 695.4146 C 280.12768 698.0921 282.29842 700.20453 284.97846 700.20453 M 284.97846 751.68526 C 287.65598 751.68526 289.82861 749.39723 289.82861 746.71155 C 289.82861 744.02587 287.65598 741.8614 284.97846 741.8614 C 282.30093 741.8614 280.12768 744.03528 280.12768 746.71155 L 280.12768 746.953 C 280.12768 749.6274 282.29842 751.68526 284.97846 751.68526 M 284.97846 734.50494 C 287.65598 734.50494 289.82861 732.2144 289.82861 729.5325 C 289.82861 726.8487 287.65598 724.6817 284.97846 724.6817 C 282.30093 724.6817 280.12768 726.8537 280.12768 729.5325 L 280.12768 729.77396 C 280.12768 732.45337 282.29842 734.50494 284.97846 734.50494 M 284.97846 717.4463 C 287.65598 717.4463 289.82861 715.2743 289.82861 712.59553 L 289.82861 712.35343 C 289.82861 709.67465 287.65598 707.50328 284.97846 707.50328 C 282.30093 707.50328 280.12768 709.67465 280.12768 712.35343 L 280.12768 712.59553 C 280.12768 715.2743 282.29842 717.4463 284.97846 717.4463 M 302.27794 759.16025 L 302.03584 759.16025 C 299.35831 759.16025 297.18506 761.33476 297.18506 764.01103 C 297.18506 766.6898 299.35831 768.8618 302.03584 768.8618 L 302.27794 768.8618 C 304.95484 768.8618 307.12809 766.6898 307.12809 764.01103 C 307.12809 761.33476 304.95484 759.16025 302.27794 759.16025 M 336.39647 759.16025 C 333.71769 759.16025 331.54631 761.33476 331.54631 764.01103 C 331.54631 766.6898 333.71769 768.8618 336.39647 768.8618 L 336.63794 768.8618 C 339.3142 768.8618 341.36579 766.6898 341.36579 764.01103 C 341.36579 761.33476 339.07963 759.16025 336.39647 759.16025 M 319.21427 759.16025 C 316.53675 759.16025 314.3635 761.33476 314.3635 764.01103 C 314.3635 766.6898 316.53675 768.8618 319.21427 768.8618 L 319.45574 768.8618 C 322.1339 768.8618 324.18422 766.6898 324.18422 764.01103 C 324.18422 761.33476 321.8943 759.16025 319.21427 759.16025 M 358.49153 764.01103 C 358.49153 766.6898 356.37912 768.8618 353.69532 768.8618 L 353.57239 768.8618 C 350.89612 768.8618 348.7216 766.6898 348.7216 764.01103 C 348.7216 761.33476 350.89612 759.16025 353.57239 759.16025 C 356.25117 759.16025 358.49153 761.33225 358.49153 764.01103" fill="#020302"/></g></g></svg>
