<?xml version="1.0" encoding="utf-8"?>
<!-- Generator: Adobe Illustrator 16.0.0, SVG Export Plug-In . SVG Version: 6.00 Build 0)  -->
<!DOCTYPE svg PUBLIC "-//W3C//DTD SVG 1.1//EN" "http://www.w3.org/Graphics/SVG/1.1/DTD/svg11.dtd">
<svg version="1.1" id="Layer_1" xmlns="http://www.w3.org/2000/svg" xmlns:xlink="http://www.w3.org/1999/xlink" x="0px" y="0px"
	 width="960px" height="560px" viewBox="0 0 960 560" enable-background="new 0 0 960 560" xml:space="preserve">
<g>
	<g>
		<path fill="#0C6BEB" d="M747.13,12.869c-17.159-17.158-45.082-17.159-62.244,0L572.378,125.377
			c-45.627-23.485-103.126-16.177-141.309,22.008l-82.647,82.646c-38.183,38.183-45.494,95.683-22.009,141.309L212.87,484.886
			c-17.161,17.161-17.161,45.084,0,62.244c8.582,8.579,19.852,12.869,31.122,12.869c11.27,0,22.542-4.29,31.122-12.869
			l113.518-113.518c16.969,8.765,35.901,13.436,55.578,13.436c32.427,0,62.883-12.598,85.758-35.473
			c5.729-5.729,5.729-15.019,0-20.747l-41.496-41.496c-2.751-2.75-6.481-4.297-10.374-4.297c-3.891,0-7.624,1.547-10.375,4.297
			c-1.757,1.757-3.69,3.267-5.741,4.568c5.238-15.39,1.739-33.121-10.511-45.371s-29.981-15.748-45.371-10.51
			c1.301-2.052,2.812-3.984,4.567-5.742l82.646-82.646c1.52-1.518,3.153-2.846,4.868-4.006
			c-5.476,15.498-2.027,33.472,10.347,45.848c8.582,8.58,19.852,12.869,31.122,12.869c4.989,0,9.979-0.845,14.736-2.527
			c-1.174,1.728-2.509,3.362-4.018,4.87c-2.751,2.751-4.297,6.483-4.297,10.375c0,3.891,1.546,7.624,4.297,10.374l41.497,41.496
			c5.729,5.729,15.019,5.729,20.747,0c38.183-38.184,45.494-95.683,22.009-141.309L747.129,75.112
			C764.291,57.954,764.291,30.031,747.13,12.869z M476.88,379.235l21.146,21.146c-15.544,11.253-34.2,17.326-53.814,17.326
			c-11.636,0-22.933-2.141-33.442-6.229l23.827-23.826c3.153,0.484,6.364,0.739,9.617,0.739
			C455.93,388.393,467.15,385.203,476.88,379.235z M409.976,329.276c2.858-2.859,6.616-4.29,10.374-4.29s7.515,1.431,10.374,4.29
			c5.722,5.721,5.722,15.026,0,20.747L254.366,526.381c-5.719,5.721-15.027,5.721-20.748,0c-5.72-5.72-5.72-15.025,0-20.747
			L409.976,329.276z M472.565,188.882l-82.646,82.646c-11.808,11.808-18.312,27.527-18.312,44.262c0,3.253,0.255,6.463,0.74,9.616
			l-23.796,23.797c-12.809-32.956-5.945-71.858,20.618-98.423l82.647-82.646c17.924-17.923,41.467-26.884,65.011-26.884
			c11.351,0,22.697,2.092,33.416,6.263l-23.816,23.818C507.371,168.391,487.213,174.235,472.565,188.882z M601.412,296.982
			l-21.141-21.14c5.967-9.73,9.154-20.95,9.154-32.669c0-3.253-0.257-6.464-0.74-9.617l23.785-23.785
			C623.58,238.346,619.911,271.384,601.412,296.982z M726.383,54.365L550.023,230.724c-5.72,5.72-15.027,5.72-20.747,0
			c-5.722-5.72-5.722-15.029,0-20.75L705.633,33.619c5.723-5.72,15.029-5.721,20.75,0C732.104,39.339,732.104,48.646,726.383,54.365
			z"/>
	</g>
</g>
<g>
	<g>
		<path fill="#0C6BEB" d="M659.988,438.202l-47.722-47.721c-5.729-5.729-15.018-5.729-20.747,0c-5.729,5.729-5.729,15.019,0,20.746
			l47.722,47.722c2.864,2.865,6.619,4.298,10.374,4.298c3.754,0,7.51-1.434,10.374-4.298
			C665.718,453.222,665.719,443.931,659.988,438.202z"/>
	</g>
</g>
<g>
	<g>
		<path fill="#0C6BEB" d="M721.456,358.564l-72.749-10.505c-8.018-1.155-15.46,4.402-16.617,12.425
			c-1.157,8.02,4.404,15.459,12.423,16.616l72.749,10.506c0.712,0.103,1.417,0.151,2.115,0.151c7.174,0,13.447-5.269,14.502-12.575
			C735.036,367.163,729.475,359.723,721.456,358.564z"/>
	</g>
</g>
<g>
	<g>
		<path fill="#0C6BEB" d="M588.643,516.223l-10.504-72.748c-1.156-8.02-8.604-13.576-16.617-12.424
			c-8.02,1.159-13.58,8.598-12.424,16.617l10.504,72.748c1.056,7.308,7.328,12.576,14.502,12.576c0.698,0,1.405-0.051,2.115-0.152
			C584.239,531.682,589.801,524.243,588.643,516.223z"/>
	</g>
</g>
</svg>
