<?xml version="1.0" encoding="utf-8"?>
<!-- Generator: Adobe Illustrator 16.0.0, SVG Export Plug-In . SVG Version: 6.00 Build 0)  -->
<!DOCTYPE svg PUBLIC "-//W3C//DTD SVG 1.1//EN" "http://www.w3.org/Graphics/SVG/1.1/DTD/svg11.dtd">
<svg version="1.1" id="Capa_1" xmlns="http://www.w3.org/2000/svg" xmlns:xlink="http://www.w3.org/1999/xlink" x="0px" y="0px"
	 width="324px" height="324px" viewBox="0 0 324 324" enable-background="new 0 0 324 324" xml:space="preserve">
<path fill="#E6E6E6" d="M80.588,293.386h162.818c19.132,0,34.693-14.093,34.693-31.41V31.41C278.1,14.091,262.538,0,243.411,0
	H80.588C61.462,0,45.9,14.091,45.9,31.41v230.559C45.9,279.293,61.462,293.386,80.588,293.386z M56.7,58.677h210.6v203.299
	c0,11.928-10.716,21.633-23.889,21.633H80.588c-13.17,0-23.889-9.705-23.889-21.633L56.7,58.677L56.7,58.677z"/>
<circle fill="#E6E6E6" stroke="#E6E6E6" stroke-miterlimit="10" cx="99.678" cy="111.986" r="13.052"/>
<rect x="123.978" y="107.034" fill="#E6E6E6" width="113.397" height="10.8"/>
<circle fill="#E6E6E6" cx="99.677" cy="239.878" r="13.052"/>
<rect x="123.977" y="234.927" fill="#E6E6E6" width="113.398" height="10.8"/>
<circle fill="#E6E6E6" cx="99.678" cy="154.617" r="13.053"/>
<rect x="123.978" y="149.663" fill="#E6E6E6" stroke="#E6E6E6" stroke-miterlimit="10" width="113.397" height="10.802"/>
<circle fill="#E6E6E6" cx="99.678" cy="197.249" r="13.052"/>
<rect x="123.978" y="192.297" fill="#E6E6E6" width="113.397" height="10.799"/>
</svg>
