<?xml version="1.0" encoding="utf-8"?>
<!-- Generator: Adobe Illustrator 16.0.0, SVG Export Plug-In . SVG Version: 6.00 Build 0)  -->
<!DOCTYPE svg PUBLIC "-//W3C//DTD SVG 1.1//EN" "http://www.w3.org/Graphics/SVG/1.1/DTD/svg11.dtd">
<svg version="1.1" id="Layer_1" xmlns="http://www.w3.org/2000/svg" xmlns:xlink="http://www.w3.org/1999/xlink" x="0px" y="0px"
	 width="960px" height="560px" viewBox="0 0 960 560" enable-background="new 0 0 960 560" xml:space="preserve">
<path fill="#E6E6E6" d="M732.75,52.964l-25.711-25.711C689.465,9.679,666.101,0.001,641.248,0.001
	c-24.852,0-48.217,9.678-65.791,27.251l-84.849,84.849c-31.337,31.339-35.574,79.647-12.765,115.608l-50.108,50.11
	c-14.769-9.407-31.917-14.458-49.849-14.458c-24.854,0-48.218,9.679-65.792,27.25L227.25,375.46
	C209.678,393.032,200,416.398,200,441.249c0,24.852,9.678,48.216,27.25,65.788l25.712,25.712
	c17.573,17.573,40.937,27.25,65.791,27.25c24.853,0,48.217-9.678,65.79-27.251l84.849-84.847
	c31.342-31.343,35.577-79.65,12.765-115.611l50.108-50.11c14.768,9.408,31.916,14.461,49.85,14.461
	c24.852,0,48.217-9.678,65.791-27.25l84.848-84.848c17.571-17.573,27.25-40.938,27.25-65.79
	C760,93.899,750.321,70.537,732.75,52.964z M453.834,432.347l-84.85,84.85C355.568,530.612,337.729,538,318.752,538
	s-36.816-7.391-50.233-20.806l-25.712-25.712C229.388,478.062,222,460.225,222,441.249s7.391-36.815,20.81-50.234l84.848-84.848
	c13.416-13.419,31.256-20.808,50.233-20.808c11.993,0,23.523,2.969,33.776,8.531l-25.405,25.403
	c-2.718-0.607-5.519-0.936-8.374-0.936c-10.162,0-19.715,3.957-26.9,11.142l-84.848,84.848
	c-7.185,7.186-11.143,16.737-11.143,26.899s3.957,19.715,11.142,26.896l25.712,25.714c7.187,7.186,16.74,11.143,26.9,11.143
	s19.715-3.957,26.902-11.143l84.848-84.85c9.551-9.551,12.932-22.954,10.182-35.251l25.396-25.395
	C480.6,375.28,476.539,409.641,453.834,432.347z M370.5,389.499c7.272,7.271,16.939,11.275,27.223,11.275
	c4.039,0,7.981-0.628,11.726-1.819l-79.349,79.348c-3.032,3.031-7.061,4.699-11.348,4.699c-4.286,0-8.315-1.669-11.344-4.697
	l-25.712-25.712c-3.031-3.031-4.7-7.06-4.7-11.345s1.669-8.313,4.701-11.346l79.387-79.388
	C356.84,363.812,359.973,378.97,370.5,389.499z M409.39,373.944c-3.115,3.115-7.259,4.833-11.666,4.833
	c-4.407,0-8.551-1.718-11.666-4.831c-6.433-6.436-6.433-16.9,0-23.334l161.615-161.617c3.218-3.218,7.44-4.825,11.666-4.825
	c4.227,0,8.45,1.609,11.665,4.825c6.434,6.434,6.434,16.901,0,23.334L409.39,373.944z M586.562,173.44
	c-10.53-10.531-25.688-13.662-38.984-9.419L629.9,81.697c3.03-3.032,7.062-4.7,11.348-4.7c4.287,0,8.314,1.669,11.345,4.7
	l25.712,25.711c3.03,3.031,4.699,7.06,4.699,11.345s-1.669,8.313-4.7,11.345l-82.326,82.329
	C600.223,199.131,597.092,183.97,586.562,173.44z M717.194,168.985l-84.85,84.848c-13.419,13.418-31.258,20.808-50.232,20.808
	c-11.993,0-23.523-2.967-33.777-8.531l25.403-25.403c2.72,0.609,5.521,0.937,8.375,0.937c10.162,0,19.715-3.957,26.9-11.142
	l84.846-84.848c7.188-7.185,11.145-16.74,11.145-26.902s-3.958-19.716-11.142-26.9l-25.711-25.711
	c-7.186-7.187-16.739-11.145-26.899-11.145c-10.161,0-19.715,3.957-26.902,11.142l-84.848,84.848
	c-9.551,9.55-12.933,22.952-10.183,35.251l-25.396,25.395c-14.521-26.913-10.461-61.273,12.243-83.978l84.849-84.849
	c13.416-13.416,31.259-20.807,50.233-20.807s36.816,7.391,50.234,20.808l25.711,25.711c13.418,13.418,20.808,31.258,20.808,50.233
	C738.003,137.726,730.611,155.568,717.194,168.985z"/>
</svg>
