<?xml version="1.0" encoding="utf-8"?>
<!-- Generator: Adobe Illustrator 16.0.0, SVG Export Plug-In . SVG Version: 6.00 Build 0)  -->
<!DOCTYPE svg PUBLIC "-//W3C//DTD SVG 1.1//EN" "http://www.w3.org/Graphics/SVG/1.1/DTD/svg11.dtd">
<svg version="1.1" id="Layer_1" xmlns:xl="http://www.w3.org/1999/xlink"
	 xmlns="http://www.w3.org/2000/svg" xmlns:xlink="http://www.w3.org/1999/xlink" x="0px" y="0px" width="46px" height="50px"
	 viewBox="0 0 46 50" enable-background="new 0 0 46 50" xml:space="preserve">
<g>
	<title>Canvas 1</title>
	<g>
		<title>Layer 1</title>
		<path fill="#0B67F5" stroke="#0B67F5" stroke-miterlimit="10" d="M31.248,16.44h-8.971c-0.377,0-0.682,0.263-0.682,0.587
			c0,0.324,0.305,0.586,0.682,0.586h8.971c0.378,0,0.684-0.263,0.684-0.586C31.932,16.703,31.626,16.44,31.248,16.44 M22.277,20.258
			h5.868c0.377,0,0.684-0.263,0.684-0.586c0-0.324-0.307-0.587-0.684-0.587h-5.868c-0.377,0-0.682,0.263-0.682,0.587
			C21.595,19.996,21.9,20.258,22.277,20.258 M18.521,24.852c-0.329-0.158-0.745-0.056-0.928,0.228l-1.589,2.458l-0.657-1.017
			c-0.182-0.285-0.598-0.388-0.927-0.229c-0.33,0.157-0.448,0.517-0.266,0.799l1.253,1.939c0.121,0.187,0.349,0.301,0.596,0.301
			c0.248,0,0.476-0.114,0.596-0.301l2.185-3.382C18.968,25.367,18.85,25.009,18.521,24.852 M14.42,17.587
			c-0.33,0.158-0.448,0.515-0.265,0.798l1.253,1.939c0.12,0.186,0.348,0.302,0.595,0.302c0.249,0,0.476-0.116,0.596-0.302
			l2.185-3.38c0.183-0.283,0.065-0.641-0.264-0.798c-0.329-0.158-0.745-0.055-0.928,0.229l-1.589,2.458l-0.657-1.017
			C15.165,17.532,14.749,17.43,14.42,17.587 M37.891,11.107c0-0.13-0.129-0.24-0.279-0.24h-1.435v28.889
			c0,0.324-0.306,0.588-0.683,0.588H10.505c-0.376,0-0.681-0.264-0.681-0.588V10.867H8.389c-0.15,0-0.279,0.109-0.279,0.24v30.649
			c0,0.131,0.128,0.24,0.279,0.24h29.222c0.15,0,0.279-0.109,0.279-0.24V11.107L37.891,11.107z M39.254,11.107v30.649
			c0,0.779-0.736,1.414-1.643,1.414H8.389c-0.906,0-1.643-0.635-1.643-1.414V11.107c0-0.779,0.737-1.414,1.643-1.414h6.607
			c0.376,0,0.681,0.262,0.681,0.587c0,0.324-0.305,0.587-0.681,0.587h-3.808V39.17h23.625V10.867h-3.809
			c-0.377,0-0.684-0.263-0.684-0.587c0-0.325,0.307-0.587,0.684-0.587h6.607C38.518,9.693,39.254,10.328,39.254,11.107
			 M18.562,11.709h8.877v-1.426h-2.476c-0.378,0-0.683-0.264-0.683-0.587V9.108c0-0.609-0.575-1.104-1.282-1.104
			s-1.283,0.495-1.283,1.104v0.587c0,0.324-0.306,0.587-0.682,0.587H18.56L18.562,11.709L18.562,11.709z M17.198,12.295V9.696
			c0-0.323,0.305-0.587,0.682-0.587h2.474c0-1.255,1.187-2.277,2.646-2.277c1.458,0,2.645,1.021,2.645,2.277l0,0h2.477
			c0.377,0,0.684,0.264,0.684,0.587v2.599c0,0.325-0.307,0.587-0.684,0.587H17.88C17.503,12.882,17.198,12.62,17.198,12.295
			 M31.932,25.732c0-0.325-0.306-0.587-0.684-0.587h-8.971c-0.377,0-0.682,0.263-0.682,0.587s0.305,0.586,0.682,0.586h8.971
			C31.626,26.318,31.932,26.057,31.932,25.732 M28.146,27.789c0.375,0,0.682,0.264,0.682,0.588s-0.307,0.586-0.682,0.586h-5.87
			c-0.377,0-0.682-0.262-0.682-0.586s0.305-0.588,0.682-0.588H28.146z"/>
	</g>
</g>
</svg>
