<?xml version="1.0" encoding="utf-8"?>
<!-- Generator: Adobe Illustrator 16.0.0, SVG Export Plug-In . SVG Version: 6.00 Build 0)  -->
<!DOCTYPE svg PUBLIC "-//W3C//DTD SVG 1.1//EN" "http://www.w3.org/Graphics/SVG/1.1/DTD/svg11.dtd">
<svg version="1.1" id="Layer_1" xmlns:xl="http://www.w3.org/1999/xlink"
	 xmlns="http://www.w3.org/2000/svg" xmlns:xlink="http://www.w3.org/1999/xlink" x="0px" y="0px" width="32.508px"
	 height="36.338px" viewBox="0 0 32.508 36.338" enable-background="new 0 0 32.508 36.338" xml:space="preserve">
<g>
	<title>Canvas 1</title>
	<title>Layer 1</title>
</g>
<g>
	<path fill="#E6E6E6" d="M15.557,20.956c-0.377,0-0.683,0.264-0.683,0.588s0.306,0.586,0.683,0.586h5.871
		c0.375,0,0.683-0.262,0.683-0.586s-0.308-0.588-0.683-0.588H15.557z"/>
	<path fill="#E6E6E6" d="M11.161,6.05h10.243c0.377,0,0.686-0.262,0.686-0.587V2.864c0-0.323-0.309-0.587-0.686-0.587h-2.479
		C18.926,1.021,17.738,0,16.28,0c-1.459,0-2.646,1.022-2.646,2.277h-2.474c-0.377,0-0.682,0.264-0.682,0.587v2.599
		C10.479,5.788,10.784,6.05,11.161,6.05z M14.313,3.45c0.376,0,0.682-0.263,0.682-0.587V2.276c0-0.609,0.576-1.104,1.283-1.104
		s1.28,0.495,1.28,1.104v0.588c0,0.323,0.307,0.587,0.685,0.587h2.478v1.426h-8.877L11.842,3.45H14.313z"/>
	<path fill="#E6E6E6" d="M15.559,13.426h5.867c0.377,0,0.687-0.263,0.687-0.586s-0.31-0.587-0.687-0.587h-5.867
		c-0.377,0-0.682,0.264-0.682,0.587C14.877,13.164,15.182,13.426,15.559,13.426z"/>
	<path fill="#E6E6E6" d="M25.213,18.899c0-0.324-0.306-0.586-0.684-0.586h-8.971c-0.377,0-0.682,0.263-0.682,0.586
		c0,0.324,0.305,0.586,0.682,0.586h8.971C24.907,19.485,25.213,19.226,25.213,18.899z"/>
	<path fill="#E6E6E6" d="M30.893,2.861h-6.607c-0.377,0-0.684,0.262-0.684,0.587c0,0.324,0.307,0.587,0.684,0.587h3.809v28.302
		H4.469V4.035h3.808c0.376,0,0.681-0.263,0.681-0.587c0-0.325-0.305-0.587-0.681-0.587H1.67c-0.906,0-1.643,0.635-1.643,1.414
		v30.648c0,0.779,0.737,1.414,1.643,1.414h29.222c0.906,0,1.643-0.635,1.643-1.414V4.275C32.535,3.496,31.799,2.861,30.893,2.861z
		 M31.172,34.923c0,0.133-0.129,0.24-0.279,0.24H1.67c-0.151,0-0.279-0.107-0.279-0.24V4.275c0-0.131,0.129-0.24,0.279-0.24h1.435
		v28.888c0,0.324,0.305,0.588,0.681,0.588h24.989c0.377,0,0.683-0.264,0.683-0.588V4.035h1.435c0.15,0,0.279,0.11,0.279,0.24V34.923
		z"/>
	<path fill="#E6E6E6" d="M11.803,18.021c-0.33-0.158-0.746-0.057-0.929,0.228l-1.589,2.458l-0.657-1.018
		c-0.182-0.285-0.598-0.39-0.927-0.229c-0.33,0.157-0.448,0.518-0.266,0.799l1.253,1.939c0.121,0.186,0.349,0.301,0.596,0.301
		c0.248,0,0.476-0.115,0.596-0.301l2.185-3.383C12.249,18.535,12.131,18.177,11.803,18.021z"/>
	<path fill="#E6E6E6" d="M24.529,9.608h-8.971c-0.377,0-0.682,0.263-0.682,0.587c0,0.324,0.305,0.586,0.682,0.586h8.971
		c0.378,0,0.684-0.263,0.684-0.586C25.213,9.871,24.907,9.608,24.529,9.608z"/>
	<path fill="#E6E6E6" d="M7.701,10.755c-0.33,0.158-0.448,0.515-0.265,0.798l1.253,1.939c0.12,0.186,0.348,0.302,0.595,0.302
		c0.249,0,0.476-0.116,0.596-0.302l2.185-3.38c0.183-0.283,0.065-0.641-0.265-0.798c-0.328-0.158-0.744-0.055-0.928,0.229
		l-1.589,2.458l-0.657-1.017C8.446,10.7,8.03,10.598,7.701,10.755z"/>
</g>
</svg>
