<?xml version="1.0" encoding="utf-8"?>
<!-- Generator: Adobe Illustrator 16.0.0, SVG Export Plug-In . SVG Version: 6.00 Build 0)  -->
<!DOCTYPE svg PUBLIC "-//W3C//DTD SVG 1.1//EN" "http://www.w3.org/Graphics/SVG/1.1/DTD/svg11.dtd">
<svg version="1.1" id="Layer_1" xmlns="http://www.w3.org/2000/svg" xmlns:xlink="http://www.w3.org/1999/xlink" x="0px" y="0px"
	 width="960px" height="560px" viewBox="0 0 960 560" enable-background="new 0 0 960 560" xml:space="preserve">
<path d="M677.503,329.832c-5.161,0-9.333,4.726-9.333,10.547v84.379c0,17.445-12.562,31.643-27.999,31.643H322.848
	c-15.437,0-27.999-14.196-27.999-31.643v-84.379c0-5.821-4.171-10.547-9.333-10.547c-5.161,0-9.333,4.726-9.333,10.547v84.379
	c0,29.079,20.934,52.737,46.666,52.737h317.322c25.73,0,46.666-23.657,46.666-52.737v-84.379
	C686.836,334.558,682.664,329.832,677.503,329.832z"/>
<path d="M293.349,289.333v-93.33c0-15.437,12.562-27.999,27.999-27.999h74.664c5.161,0,9.333-4.182,9.333-9.333
	c0-36.79,40.143-65.331,74.665-65.331c24.284,0,49.996,13.411,64.006,33.375c2.959,4.21,8.772,5.246,13.001,2.287
	c4.22-2.968,5.245-8.783,2.277-13.001c-15.81-22.549-42.53-37.817-69.951-40.72V54.29c10.836-3.873,18.667-14.129,18.667-26.282
	c0-15.437-12.562-27.999-27.999-27.999s-27.999,12.562-27.999,27.999c0,12.151,7.829,22.409,18.666,26.272v20.971
	c-38.462,4.255-77.959,34.019-83.372,74.086h-65.958c-25.731,0-46.666,20.934-46.666,46.665L274.664,280h-20.382
	c-3.873-10.845-14.13-18.667-26.282-18.667c-15.437,0-27.999,12.562-27.999,27.999c0,15.438,12.562,27.999,27.999,27.999
	c12.151,0,22.409-7.821,26.282-18.667h29.734C289.177,298.666,293.349,294.484,293.349,289.333z M480.01,18.675
	c5.15,0,9.332,4.19,9.332,9.333c0,5.143-4.182,9.333-9.332,9.333c-5.151,0-9.333-4.19-9.333-9.333
	C470.677,22.866,474.857,18.675,480.01,18.675z M227.999,298.666c-5.151,0-9.333-4.189-9.333-9.333s4.181-9.333,9.333-9.333
	s9.333,4.189,9.333,9.333S233.15,298.666,227.999,298.666z"/>
<path d="M732.001,261.334c-12.151,0-22.408,7.821-26.272,18.667h-20.393v-83.997c0-25.731-20.935-46.666-46.666-46.666H433.344
	c-5.161,0-9.333,4.181-9.333,9.333c0,5.152,4.172,9.333,9.333,9.333H638.67c15.438,0,27.999,12.562,27.999,28v93.33
	c0,5.15,4.172,9.332,9.333,9.332h29.727c3.863,10.846,14.12,18.667,26.271,18.667c15.438,0,27.999-12.562,27.999-27.999
	C760,273.896,747.438,261.334,732.001,261.334z M732.001,298.666c-5.151,0-9.333-4.189-9.333-9.333S726.85,280,732.001,280
	s9.333,4.189,9.333,9.333S737.153,298.666,732.001,298.666z"/>
<g>
	<path d="M611.672,238.997c0-15.437-12.562-27.999-27.999-27.999c-15.437,0-27.999,12.562-27.999,27.999
		s12.562,27.999,27.999,27.999C599.11,266.996,611.672,254.433,611.672,238.997z M574.339,238.997c0-5.143,4.183-9.333,9.333-9.333
		c5.151,0,9.333,4.19,9.333,9.333s-4.182,9.333-9.333,9.333C578.521,248.33,574.339,244.138,574.339,238.997z"/>
	<path d="M406.345,238.997c0-15.437-12.562-27.999-27.999-27.999s-27.999,12.562-27.999,27.999s12.562,27.999,27.999,27.999
		S406.345,254.433,406.345,238.997z M378.346,248.329c-5.151,0-9.333-4.19-9.333-9.333s4.181-9.333,9.333-9.333
		c5.152,0,9.333,4.19,9.333,9.333C387.68,244.138,383.498,248.329,378.346,248.329z"/>
</g>
<path d="M129.003,491.507c-2.847,0-4.746-0.949-6.645-2.847c-107.254-107.254-107.254-281.898,0-389.152
	c3.796-3.797,9.492-3.797,13.288,0c3.796,3.796,3.796,9.49,0,13.287c-99.661,99.662-99.661,262.916,0,362.576
	c3.796,3.797,3.796,9.491,0,13.288C133.75,490.559,131.851,491.507,129.003,491.507z"/>
<path d="M837.678,490.98c-2.848,0-4.746-0.949-6.645-2.848c-3.797-3.797-3.797-9.491,0-13.288
	c48.406-48.406,74.981-112.948,74.981-181.288c0-68.337-26.575-132.882-74.981-181.287c-3.797-3.797-3.797-9.492,0-13.289
	c3.797-3.796,9.492-3.796,13.289,0C896.525,151.186,925,219.524,925,293.559c0,74.033-28.475,142.372-80.678,194.575
	C842.422,490.032,840.525,490.98,837.678,490.98z"/>
<path d="M169.817,451.644c-2.847,0-4.746-0.948-6.645-2.848c-85.424-85.424-85.424-223.999,0-308.474
	c3.796-3.797,9.492-3.797,13.288,0c3.796,3.796,3.796,9.49,0,13.287c-77.83,76.882-77.83,204.067,0,280.949
	c3.796,3.798,3.796,9.492,0,13.288C174.562,450.694,171.716,451.644,169.817,451.644z"/>
<path d="M797.812,451.117c-2.847,0-4.746-0.949-6.646-2.849c-3.795-3.796-3.795-9.49,0-13.287
	c37.967-37.967,57.898-87.321,57.898-140.475c0-53.153-20.882-103.458-57.898-140.476c-3.795-3.796-3.795-9.491,0-13.287
	c3.797-3.797,9.492-3.797,13.289,0c40.812,39.863,63.592,93.966,63.592,152.812c0,57.898-22.779,112.948-63.592,154.711
	C802.559,450.168,799.711,451.117,797.812,451.117z"/>
<path d="M209.682,410.83c-2.847,0-4.746-0.949-6.645-2.847c-62.645-62.646-62.645-165.153,0-227.797
	c3.796-3.796,9.492-3.796,13.288,0c3.796,3.796,3.796,9.491,0,13.288c-55.05,55.051-55.05,146.169,0,201.221
	c3.796,3.796,3.796,9.49,0,13.288C214.428,409.881,212.529,410.83,209.682,410.83z"/>
<path d="M757,410.304c-2.848,0-4.746-0.948-6.645-2.847c-3.798-3.797-3.798-9.492,0-13.288c55.051-55.051,55.051-146.17,0-201.221
	c-3.798-3.797-3.798-9.492,0-13.288c3.797-3.796,9.491-3.796,13.286,0c62.646,62.645,62.646,165.152,0,227.797
	C761.746,409.354,759.848,410.304,757,410.304z"/>
<rect id="_x3C_Slice_x3E_" x="312.501" y="289.006" fill="none" width="362" height="107"/>
<text transform="matrix(1 0 0 1 312.501 343.4365)" font-family="'AvenirNext-BoldItalic'" font-size="72">Channels</text>
<g>
	<path d="M356.323,382.988c0-2.849,0.949-4.745,2.847-6.645c3.796-3.797,9.492-3.797,13.288-0.001
		c55.051,55.052,146.17,55.052,201.221,0.001c3.797-3.797,9.492-3.797,13.287-0.001c3.796,3.797,3.796,9.493,0,13.288
		c-62.645,62.645-165.151,62.646-227.796,0C357.271,387.735,356.323,385.837,356.323,382.988z"/>
	<text transform="matrix(1 0 0 1 453.5112 405)" font-family="'Hind-Bold'" font-size="72">+</text>
</g>
</svg>
