<?xml version="1.0" encoding="utf-8"?>
<!-- Generator: Adobe Illustrator 16.0.0, SVG Export Plug-In . SVG Version: 6.00 Build 0)  -->
<!DOCTYPE svg PUBLIC "-//W3C//DTD SVG 1.1//EN" "http://www.w3.org/Graphics/SVG/1.1/DTD/svg11.dtd">
<svg version="1.1" id="Layer_1" xmlns="http://www.w3.org/2000/svg" xmlns:xlink="http://www.w3.org/1999/xlink" x="0px" y="0px"
	 width="960px" height="560px" viewBox="0 0 960 560" enable-background="new 0 0 960 560" xml:space="preserve">
<g>
	<g>
		<path fill="#0C6BEB" d="M747.13,12.893c-8.312-8.313-19.365-12.892-31.12-12.892c-11.756,0-22.809,4.579-31.121,12.891
			L572.386,125.395c-45.625-23.484-103.121-16.171-141.304,22.007l-82.643,82.643c-38.18,38.183-45.49,95.68-22.005,141.304
			l-113.542,113.54C204.579,493.201,200,504.255,200,516.008c0,11.757,4.579,22.81,12.891,31.122
			c8.58,8.58,19.85,12.869,31.12,12.869c11.271,0,22.542-4.29,31.122-12.869l113.513-113.513
			c16.967,8.765,35.9,13.436,55.576,13.436c32.427,0,62.88-12.598,85.754-35.472l82.643-82.643
			c22.875-22.874,35.472-53.329,35.472-85.754c0-19.677-4.672-38.609-13.436-55.576L747.131,75.132
			C764.29,57.974,764.29,30.052,747.13,12.893z M369.186,250.792l82.643-82.643c17.925-17.924,41.463-26.883,65.01-26.883
			c11.349,0,22.695,2.093,33.415,6.263l-23.816,23.816c-19.056-2.937-39.214,2.905-53.859,17.55l-82.643,82.645
			c-14.647,14.647-20.489,34.804-17.55,53.858l-23.813,23.814C335.758,316.257,342.623,277.355,369.186,250.792z M451.483,308.539
			c-12.257-12.258-30.001-15.753-45.395-10.501c1.286-2.041,2.814-3.973,4.592-5.751l82.642-82.643
			c1.517-1.517,3.154-2.84,4.869-4.002c-5.474,15.496-2.028,33.468,10.347,45.842c8.58,8.581,19.851,12.869,31.12,12.869
			c4.985,0,9.97-0.843,14.724-2.522c-1.159,1.714-2.487,3.348-4.003,4.866l-82.644,82.643c-1.775,1.776-3.708,3.305-5.749,4.591
			C467.234,338.539,463.739,320.795,451.483,308.539z M254.385,526.384c-5.718,5.72-15.027,5.723-20.748,0h-0.001
			c-2.771-2.771-4.297-6.455-4.297-10.373c0-3.917,1.526-7.603,4.298-10.372l176.351-176.351c2.858-2.861,6.616-4.291,10.373-4.291
			s7.513,1.431,10.372,4.291c5.72,5.718,5.72,15.026,0,20.747L254.385,526.384z M591.872,308.192l-82.643,82.643
			c-17.331,17.332-40.419,26.878-65.008,26.878c-11.634,0-22.932-2.141-33.441-6.229l23.836-23.836
			c3.181,0.493,6.392,0.744,9.604,0.744c16.029,0,32.059-6.101,44.261-18.304l82.644-82.643
			c14.647-14.647,20.49-34.804,17.551-53.858l23.844-23.844c4.089,10.51,6.229,21.806,6.229,33.441
			C618.75,267.774,609.203,290.861,591.872,308.192z M726.383,54.386l-176.352,176.35c-5.717,5.717-15.025,5.72-20.747,0
			c-5.72-5.718-5.72-15.027,0-20.748l176.353-176.35c2.771-2.771,6.455-4.297,10.371-4.297c3.919,0,7.604,1.526,10.374,4.299
			C732.103,39.358,732.103,48.667,726.383,54.386z"/>
	</g>
</g>
</svg>
