<?xml version="1.0"?>
<!DOCTYPE svg PUBLIC "-//W3C//DTD SVG 1.1//EN" "http://www.w3.org/Graphics/SVG/1.1/DTD/svg11.dtd">
<svg xmlns="http://www.w3.org/2000/svg" xmlns:xl="http://www.w3.org/1999/xlink" version="1.1" viewBox="20 231 51 50" width="51pt" height="50pt"><metadata xmlns:dc="http://purl.org/dc/elements/1.1/"><dc:date>2017-01-22 21:03Z</dc:date><!-- Produced by OmniGraffle Professional 5.4.2 --></metadata><defs></defs><g stroke="none" stroke-opacity="1" stroke-dasharray="none" fill="none" fill-opacity="1"><title>Canvas 1</title><g><title>Layer 1</title><path d="M 50.104865 255.80894 L 54.259376 267.71747 C 54.326876 267.91297 54.494376 268.06197 54.696377 268.10647 C 54.892877 268.14947 55.113378 268.08547 55.256378 267.93797 L 64.2979 258.62244 L 64.2979 263.67446 L 50.104865 278.9405 Z M 68.846912 252.21243 L 55.072878 266.40496 L 50.052865 252.01643 L 64.6094 239.4969 Z M 63.4534 238.9069 L 49.516864 250.89392 L 41.733344 248.47342 L 41.733344 232.54188 Z M 48.887362 252.08343 L 46.255356 266.68846 L 21.259293 256.62094 L 23.028297 243.9119 L 48.920862 251.96543 C 48.906362 252.00393 48.894362 252.04293 48.887362 252.08343 M 46.490356 268.07697 C 46.656857 268.14297 46.848357 268.13197 47.004857 268.04547 C 47.163858 267.95797 47.272858 267.80497 47.305358 267.62647 L 48.905362 258.75144 L 48.905362 279.329 L 25.372803 268.51697 L 25.371803 259.57145 Z M 23.754299 242.8809 L 40.532341 232.38438 L 40.532341 248.09942 Z M 70.100916 252.17843 L 65.554904 238.5409 C 65.492904 238.35439 65.343404 238.20989 65.154903 238.15489 L 40.823342 231.02487 C 40.659842 230.97537 40.47984 231.00087 40.33634 231.09137 L 22.242295 242.4119 C 22.091795 242.5059 21.990795 242.6614 21.966795 242.8379 L 20.00579 256.92094 C 19.96779 257.19394 20.11979 257.45694 20.37529 257.55944 L 24.1718 259.08944 L 24.1728 268.90247 C 24.1728 269.13547 24.3093 269.34947 24.521301 269.44697 L 49.077863 280.7295 L 49.078863 280.7315 C 49.099863 280.766 49.122863 280.8055 49.158863 280.839 C 49.270363 280.9425 49.415364 281 49.567864 281 C 49.733864 281 49.893865 280.93 50.007365 280.808 L 65.337404 264.31946 C 65.440904 264.20846 65.497904 264.06296 65.497904 263.91096 L 65.497904 257.38644 L 69.963915 252.78593 C 70.119416 252.62443 70.172416 252.39193 70.100916 252.17843" fill="black"/></g></g></svg>
