<?xml version="1.0" encoding="utf-8"?>
<!-- Generator: Adobe Illustrator 16.0.0, SVG Export Plug-In . SVG Version: 6.00 Build 0)  -->
<!DOCTYPE svg PUBLIC "-//W3C//DTD SVG 1.1//EN" "http://www.w3.org/Graphics/SVG/1.1/DTD/svg11.dtd">
<svg version="1.1" id="Layer_1" xmlns:xl="http://www.w3.org/1999/xlink"
	 xmlns="http://www.w3.org/2000/svg" xmlns:xlink="http://www.w3.org/1999/xlink" x="0px" y="0px" width="19px" height="36px"
	 viewBox="0 0 19 36" enable-background="new 0 0 19 36" xml:space="preserve">
<title>Canvas 1</title>
<g>
	<title>Layer 1</title>
	<path fill="#242121" d="M9.499,35.919c-4.726,0-8.57-3.154-8.57-7.031V5.479c0-2.976,2.949-5.397,6.576-5.397
		s6.577,2.422,6.577,5.397l0.007,15.314c0,2.077-2.059,3.766-4.59,3.766s-4.59-1.688-4.59-3.766l0.007-8.169
		c0-0.549,0.542-0.992,1.21-0.992c0.67,0,1.21,0.445,1.21,0.992l-0.007,8.169c0,0.983,0.973,1.78,2.17,1.78s2.17-0.797,2.17-1.78
		L11.662,5.479c0-1.88-1.866-3.413-4.157-3.413S3.349,3.599,3.349,5.479v23.409c0,2.781,2.76,5.047,6.15,5.047
		c3.393,0,6.153-2.266,6.153-5.047V14.981c0-0.549,0.542-0.993,1.21-0.993s1.209,0.444,1.209,0.993v13.906
		C18.071,32.765,14.225,35.919,9.499,35.919z"/>
</g>
</svg>
