<?xml version="1.0"?>
<!DOCTYPE svg PUBLIC "-//W3C//DTD SVG 1.1//EN" "http://www.w3.org/Graphics/SVG/1.1/DTD/svg11.dtd">
<svg xmlns="http://www.w3.org/2000/svg" xmlns:xl="http://www.w3.org/1999/xlink" version="1.1" viewBox="35 200 237 208" width="237pt" height="208pt"><metadata xmlns:dc="http://purl.org/dc/elements/1.1/"><dc:date>2017-01-04 02:31Z</dc:date><!-- Produced by OmniGraffle Professional 5.4.2 --></metadata><defs></defs><g stroke="none" stroke-opacity="1" stroke-dasharray="none" fill="none" fill-opacity="1"><title>Canvas 2</title><g><title>Layer 1</title><rect x="129.807115" y="351.82255" width="45.62748" height="10.1393316" fill="#ef672e"/><rect x="64.905357" y="229.89312" width="29.059044" height="6.457457" fill="#fff545"/><rect x="101.498264" y="229.89312" width="29.059044" height="6.457457" fill="#65bfa4"/><rect x="138.091496" y="229.89312" width="29.059044" height="6.457457" fill="#139cbc"/><rect x="174.68473" y="229.89312" width="29.059044" height="6.457457" fill="#139cbc"/><rect x="211.27763" y="229.89312" width="29.059044" height="6.457457" fill="#ea3d34"/><rect x="64.905357" y="241.73163" width="29.059044" height="6.4577828" fill="#139cbc"/><rect x="101.498264" y="241.73163" width="29.059044" height="6.4577828" fill="#fff545"/><rect x="138.091496" y="241.73163" width="29.059044" height="6.4577828" fill="#ea3d34"/><rect x="174.68473" y="241.73163" width="29.059044" height="6.4577828" fill="#65bfa4"/><rect x="211.27763" y="241.73163" width="29.059044" height="6.4577828" fill="#139cbc"/><rect x="64.905357" y="253.57111" width="29.059044" height="6.457457" fill="#ea3d34"/><rect x="138.091496" y="253.57111" width="29.059044" height="6.457457" fill="#65bfa4"/><rect x="211.27763" y="253.57111" width="29.059044" height="6.457457" fill="#fff545"/><rect x="211.27763" y="265.40995" width="29.059044" height="6.457457" fill="#65bfa4"/><path d="M 164.1527 329.79074 C 164.1527 325.69238 160.83061 322.37061 156.73257 322.37061 C 152.63454 322.37061 149.31212 325.69238 149.31212 329.79074 C 149.31212 333.88878 152.63454 337.21087 156.73257 337.21087 C 160.83061 337.21087 164.1527 333.88878 164.1527 329.79074 Z" fill="#fff545"/><rect x="100.334886" y="391.28817" width="45.62748" height="10.1393316" fill="#ef672e"/><rect x="35.433128" y="269.35874" width="29.059044" height="6.457457" fill="#fff545"/><rect x="72.026035" y="269.35874" width="29.059044" height="6.457457" fill="#65bfa4"/><rect x="108.619267" y="269.35874" width="29.059044" height="6.457457" fill="#139cbc"/><rect x="145.2125" y="269.35874" width="29.059044" height="6.457457" fill="#139cbc"/><rect x="181.8054" y="269.35874" width="29.059044" height="6.457457" fill="#ea3d34"/><rect x="35.433128" y="281.19725" width="29.059044" height="6.4577828" fill="#139cbc"/><rect x="72.026035" y="281.19725" width="29.059044" height="6.4577828" fill="#fff545"/><rect x="108.619267" y="281.19725" width="29.059044" height="6.4577828" fill="#ea3d34"/><rect x="145.2125" y="281.19725" width="29.059044" height="6.4577828" fill="#65bfa4"/><rect x="181.8054" y="281.19725" width="29.059044" height="6.4577828" fill="#139cbc"/><rect x="35.433128" y="293.03673" width="29.059044" height="6.457457" fill="#ea3d34"/><rect x="108.619267" y="293.03673" width="29.059044" height="6.457457" fill="#65bfa4"/><rect x="181.8054" y="293.03673" width="29.059044" height="6.457457" fill="#fff545"/><rect x="181.8054" y="304.87556" width="29.059044" height="6.457457" fill="#65bfa4"/><path d="M 134.68047 369.25636 C 134.68047 365.158 131.35838 361.83623 127.260345 361.83623 C 123.16231 361.83623 119.83989 365.158 119.83989 369.25636 C 119.83989 373.3544 123.16231 376.6765 127.260345 376.6765 C 131.35838 376.6765 134.68047 373.3544 134.68047 369.25636 Z" fill="#fff545"/><rect x="161.33489" y="396.82255" width="45.62748" height="10.1393316" fill="#ef672e"/><rect x="96.43313" y="274.89312" width="29.059044" height="6.457457" fill="#fff545"/><rect x="133.026035" y="274.89312" width="29.059044" height="6.457457" fill="#65bfa4"/><rect x="169.61927" y="274.89312" width="29.059044" height="6.457457" fill="#139cbc"/><rect x="206.2125" y="274.89312" width="29.059044" height="6.457457" fill="#139cbc"/><rect x="242.8054" y="274.89312" width="29.059044" height="6.457457" fill="#ea3d34"/><rect x="96.43313" y="286.73163" width="29.059044" height="6.4577828" fill="#139cbc"/><rect x="133.026035" y="286.73163" width="29.059044" height="6.4577828" fill="#fff545"/><rect x="169.61927" y="286.73163" width="29.059044" height="6.4577828" fill="#ea3d34"/><rect x="206.2125" y="286.73163" width="29.059044" height="6.4577828" fill="#65bfa4"/><rect x="242.8054" y="286.73163" width="29.059044" height="6.4577828" fill="#139cbc"/><rect x="96.43313" y="298.57111" width="29.059044" height="6.457457" fill="#ea3d34"/><rect x="169.61927" y="298.57111" width="29.059044" height="6.457457" fill="#65bfa4"/><rect x="242.8054" y="298.57111" width="29.059044" height="6.457457" fill="#fff545"/><rect x="242.8054" y="310.40995" width="29.059044" height="6.457457" fill="#65bfa4"/><path d="M 195.68047 374.79074 C 195.68047 370.69238 192.35838 367.37061 188.26035 367.37061 C 184.16231 367.37061 180.83989 370.69238 180.83989 374.79074 C 180.83989 378.88878 184.16231 382.21087 188.26035 382.21087 C 192.35838 382.21087 195.68047 378.88878 195.68047 374.79074 Z" fill="#fff545"/><path d="M 162.89401 377.89312 C 155.11101 377.89312 148.08301 373.78312 144.13601 367.46112 C 108.25101 362.32412 95.36501 342.55712 91.02501 325.89512 C 86.61901 317.67712 84.385007 308.04312 84.385007 297.23712 C 84.385007 291.34812 85.046007 285.47712 86.35101 279.74812 C 75.166007 233.71812 91.20101 209.87412 94.58301 205.50012 C 95.73101 204.01612 98.78001 200.07412 104.05101 200.07412 C 109.08101 200.07412 111.66701 203.19912 114.66301 206.81812 C 116.19801 208.67312 118.29701 211.31012 120.90301 214.65512 C 123.72401 218.27812 126.83401 222.33912 129.68801 226.09012 C 140.04001 221.25312 151.36101 218.72712 162.89401 218.72712 C 174.42701 218.72712 185.74901 221.25312 196.10101 226.09012 C 198.95701 222.33512 202.07001 218.27212 204.88701 214.65512 C 207.49301 211.31012 209.59201 208.67312 211.12701 206.81812 C 214.12301 203.19912 216.70901 200.07412 221.73901 200.07412 C 227.01001 200.07412 230.05801 204.01512 231.20701 205.49912 C 234.58901 209.87312 250.623 233.71812 239.43901 279.74812 C 240.74401 285.47712 241.40501 291.34812 241.40501 297.23712 C 241.40501 308.04212 239.17101 317.67512 234.76401 325.89512 C 230.42401 342.55712 217.53901 362.32412 181.65201 367.46112 C 177.70501 373.78312 170.67701 377.89312 162.89401 377.89312 Z" fill="#9ac4fa"/><path d="M 131.30121 244.68412 C 105.30121 209.93412 104.05121 209.93412 104.05121 209.93412 C 102.80121 209.93412 84.389207 232.75812 96.72021 279.84612 Z" fill="#9d9d9d"/><path d="M 131.30121 244.68412 C 105.30121 209.93412 104.05121 209.93412 104.05121 209.93412 C 102.80121 209.93412 84.389207 232.75812 96.72021 279.84612 L 131.30121 244.68412 Z" stroke="#313131" stroke-linejoin="miter" stroke-width="1"/><path d="M 194.48871 244.68412 C 220.48871 209.93412 221.73871 209.93412 221.73871 209.93412 C 222.98871 209.93412 241.40071 232.75812 229.06971 279.84612 Z" fill="#9d9d9d"/><path d="M 194.48871 244.68412 C 220.48871 209.93412 221.73871 209.93412 221.73871 209.93412 C 222.98871 209.93412 241.40071 232.75812 229.06971 279.84612 L 194.48871 244.68412 Z" stroke="#313131" stroke-linejoin="miter" stroke-width="1"/><path d="M 226.90771 308.09422 C 226.90771 345.93022 198.24871 358.58822 162.89371 358.58822 C 127.54171 358.58822 98.88271 345.93022 98.88271 308.09422 C 98.88271 270.25622 127.54171 239.58422 162.89371 239.58422 C 198.24871 239.58422 226.90771 270.25622 226.90771 308.09422 Z" fill="#159be2"/><path d="M 226.90771 308.09422 C 226.90771 345.93022 198.24871 358.58822 162.89371 358.58822 C 127.54171 358.58822 98.88271 345.93022 98.88271 308.09422 C 98.88271 270.25622 127.54171 239.58422 162.89371 239.58422 C 198.24871 239.58422 226.90771 270.25622 226.90771 308.09422 Z" stroke="#313131" stroke-linejoin="miter" stroke-width="1"/><path d="M 174.98681 355.49462 C 174.98681 362.17262 169.57281 367.58662 162.89381 367.58662 C 156.21581 367.58662 150.80081 362.17262 150.80081 355.49462 C 150.80081 348.81462 156.21581 343.40062 162.89381 343.40062 C 169.57281 343.40062 174.98681 348.81462 174.98681 355.49462 Z" fill="#fd9208"/><path d="M 174.98681 355.49462 C 174.98681 362.17262 169.57281 367.58662 162.89381 367.58662 C 156.21581 367.58662 150.80081 362.17262 150.80081 355.49462 C 150.80081 348.81462 156.21581 343.40062 162.89381 343.40062 C 169.57281 343.40062 174.98681 348.81462 174.98681 355.49462 Z" stroke="#313131" stroke-linejoin="miter" stroke-width="1"/><line x1="162.89401" y1="347.59032" x2="162.89401" y2="355.49432" stroke="#313131" stroke-linecap="round" stroke-linejoin="round" stroke-width="1"/><path d="M 231.40471 297.09622 C 231.40471 334.93222 200.73171 347.59022 162.89371 347.59022 C 125.05771 347.59022 94.38471 334.93222 94.38471 297.09622 C 94.38471 259.25822 125.05771 228.58622 162.89371 228.58622 C 200.73171 228.58622 231.40471 259.25822 231.40471 297.09622 Z" fill="#9d9d9d"/><path d="M 172.39501 232.35202 C 172.39501 231.30502 172.37801 230.27202 172.34701 229.25202 C 169.25501 228.82502 166.10301 228.58602 162.89401 228.58602 C 159.68601 228.58602 156.53501 228.82502 153.44301 229.25202 C 153.41201 230.27202 153.39501 231.30502 153.39501 232.35202 C 153.39501 249.28802 157.64801 263.01802 162.89501 263.01802 C 168.14201 263.01802 172.39501 249.28802 172.39501 232.35202 Z" fill="#fff7ef"/><path d="M 148.46921 230.12162 C 142.36121 231.43062 136.55921 233.55762 131.17321 236.37762 C 132.81821 245.52562 135.88221 251.68362 139.39521 251.68362 C 143.65921 251.68362 147.26821 242.61162 148.46921 230.12162 Z" fill="#fff7ef"/><path d="M 194.61661 236.37742 C 189.23061 233.55742 183.42861 231.43242 177.32061 230.12142 C 178.52161 242.61142 182.13061 251.68442 186.39461 251.68442 C 189.90761 251.68442 192.97161 245.52542 194.61661 236.37742 Z" fill="#fff7ef"/><path d="M 162.89401 305.25442 C 139.81701 305.25442 119.11401 314.21742 104.94401 328.41642 C 117.07901 342.31142 138.48901 347.59042 162.89401 347.59042 C 187.30001 347.59042 208.71001 342.31142 220.84601 328.41642 C 206.67501 314.21742 185.97201 305.25442 162.89401 305.25442 Z" fill="#fff7ef"/><path d="M 231.40471 297.09622 C 231.40471 334.93222 200.73171 347.59022 162.89371 347.59022 C 125.05771 347.59022 94.38471 334.93222 94.38471 297.09622 C 94.38471 259.25822 125.05771 228.58622 162.89371 228.58622 C 200.73171 228.58622 231.40471 259.25822 231.40471 297.09622 Z" stroke="#313131" stroke-linejoin="miter" stroke-width="1"/><path d="M 154.60301 307.31692 C 154.60301 303.13492 158.31501 303.44992 162.89501 303.44992 C 167.47401 303.44992 171.18701 303.13492 171.18701 307.31692 C 171.18701 311.49892 167.47401 317.20592 162.89501 317.20592 C 158.31501 317.20592 154.60301 311.49892 154.60301 307.31692 Z" fill="#313131"/><line x1="94.39691" y1="295.93412" x2="115.65791" y2="295.93412" stroke="#313131" stroke-linecap="round" stroke-linejoin="round" stroke-width="1"/><line x1="97.04051" y1="314.60602" x2="115.65751" y2="307.43402" stroke="#313131" stroke-linecap="round" stroke-linejoin="round" stroke-width="1"/><line x1="104.94381" y1="328.44582" x2="116.07281" y2="319.24882" stroke="#313131" stroke-linecap="round" stroke-linejoin="round" stroke-width="1"/><line x1="231.40471" y1="295.93412" x2="210.14371" y2="295.93412" stroke="#313131" stroke-linecap="round" stroke-linejoin="round" stroke-width="1"/><line x1="228.76121" y1="314.60602" x2="210.14421" y2="307.43402" stroke="#313131" stroke-linecap="round" stroke-linejoin="round" stroke-width="1"/><line x1="220.85791" y1="328.44582" x2="209.72891" y2="319.24882" stroke="#313131" stroke-linecap="round" stroke-linejoin="round" stroke-width="1"/><path d="M 132.78661 305.83642 C 126.01161 305.83642 118.01661 300.99342 118.53661 291.34042 C 119.05661 281.68642 122.37861 281.37542 121.33961 274.94042 C 124.24561 276.49742 124.45461 280.02542 124.45461 280.02542 C 124.66161 283.55542 128.39761 282.72542 128.08561 279.29942 C 127.77461 275.87342 125.93861 270.37342 129.60661 266.42942 C 129.74761 269.43842 130.89061 274.42042 134.00361 273.69442 C 137.11661 272.96742 136.49361 263.93642 134.00361 261.44642 C 140.23161 265.39042 143.13861 268.08942 141.89161 275.77042 C 140.64561 283.45042 140.93461 285.52742 143.28261 285.42342 C 145.62861 285.32042 145.31761 280.33742 145.31761 280.33742 C 149.46861 286.66942 147.80761 296.11542 147.80761 296.11542 C 146.14761 305.56042 138.27061 305.83642 132.78661 305.83642 Z" fill="#ce0012"/><path d="M 125.86861 288.85402 L 142.38861 296.40802 C 139.13961 300.14902 132.64561 299.72502 132.64561 299.72502 C 126.15161 299.30102 123.89161 292.38302 125.86861 288.85402 Z" fill="#fff7ef"/><path d="M 193.00341 305.83642 C 199.77841 305.83642 207.77341 300.99342 207.25341 291.34042 C 206.73341 281.68642 203.41141 281.37542 204.45041 274.94042 C 201.54441 276.49742 201.33541 280.02542 201.33541 280.02542 C 201.12841 283.55542 197.39241 282.72542 197.70441 279.29942 C 198.01541 275.87342 199.85141 270.37342 196.18341 266.42942 C 196.04241 269.43842 194.89941 274.42042 191.78641 273.69442 C 188.67341 272.96742 189.29641 263.93642 191.78641 261.44642 C 185.55841 265.39042 182.65141 268.08942 183.89841 275.77042 C 185.14441 283.45042 184.85541 285.52742 182.50741 285.42342 C 180.16141 285.32042 180.47241 280.33742 180.47241 280.33742 C 176.32141 286.66942 177.98241 296.11542 177.98241 296.11542 C 179.64241 305.56042 187.51941 305.83642 193.00341 305.83642 Z" fill="#ce0012"/><path d="M 199.92131 288.85402 L 183.40131 296.40802 C 186.65031 300.14902 193.14431 299.72502 193.14431 299.72502 C 199.63831 299.30102 201.89831 292.38302 199.92131 288.85402 Z" fill="#fff7ef"/><path d="M 174.10741 335.12652 C 174.10741 340.85552 169.08641 340.69252 162.89341 340.69252 C 156.70241 340.69252 151.68041 340.85552 151.68041 335.12652 C 151.68041 329.39852 156.70241 319.94952 162.89341 319.94952 C 169.08641 319.94952 174.10741 329.39852 174.10741 335.12652 Z" fill="#fc002a"/><path d="M 237.9036 220.34799 L 248.74491 216.14686 L 235.40692 207.15028 L 224.62896 213.99469 L 227.93078 216.22179 L 219.29174 221.90744 L 224.86874 225.66917 L 210.99656 236.82722 L 238.06961 231.97365 L 232.56595 228.26138 L 243.40726 224.06025 Z" fill="#fff10a"/><path d="M 237.96236 220.6409 L 248.80368 216.43978 L 235.46569 207.4432 L 224.68709 214.28718 L 227.98955 216.51471 L 219.34987 222.19993 L 224.9275 225.96209 L 211.05533 237.12014 L 238.12838 232.26657 L 232.62471 228.5543 L 243.46603 224.35318 L 237.96236 220.6409 Z" stroke="black" stroke-linecap="round" stroke-linejoin="round" stroke-width="1"/><path d="M 243.99965 234.59094 L 254.84096 230.38982 L 241.50298 221.39323 L 230.72502 228.23764 L 234.02683 230.46474 L 225.3878 236.15039 L 230.9648 239.91212 L 217.09305 251.06953 L 244.16566 246.2166 L 238.662 242.50433 L 249.50331 238.30321 Z" fill="#fff10a"/><path d="M 244.05852 234.88384 L 254.89984 230.68272 L 241.56185 221.68613 L 230.78325 228.53011 L 234.08571 230.75764 L 225.44603 236.44286 L 231.02367 240.20502 L 217.15149 251.36307 L 244.22454 246.5095 L 238.72087 242.79723 L 249.56219 238.59611 L 244.05852 234.88384 Z" stroke="black" stroke-linecap="round" stroke-linejoin="round" stroke-width="1"/><path d="M 97.841854 220.34799 L 108.68317 216.14686 L 95.34518 207.15028 L 84.56722 213.99469 L 87.86904 216.22179 L 79.23 221.90744 L 84.806997 225.66917 L 70.93482 236.82722 L 98.00787 231.97365 L 92.504204 228.26138 L 103.34552 224.06025 Z" fill="#fff10a"/><path d="M 97.90062 220.6409 L 108.741935 216.43978 L 95.40395 207.4432 L 84.62535 214.28718 L 87.927804 216.51471 L 79.28813 222.19993 L 84.865764 225.96209 L 70.993587 237.12014 L 98.066635 232.26657 L 92.56297 228.5543 L 103.404285 224.35318 L 97.90062 220.6409 Z" stroke="black" stroke-linecap="round" stroke-linejoin="round" stroke-width="1"/><path d="M 103.93791 234.59094 L 114.77922 230.38982 L 101.441237 221.39323 L 90.663275 228.23764 L 93.96509 230.46474 L 85.326056 236.15039 L 90.90305 239.91212 L 77.031305 251.06953 L 104.10392 246.2166 L 98.60026 242.50433 L 109.44157 238.30321 Z" fill="#fff10a"/><path d="M 103.99678 234.88384 L 114.838096 230.68272 L 101.50011 221.68613 L 90.72151 228.53011 L 94.023965 230.75764 L 85.38429 236.44286 L 90.961925 240.20502 L 77.08975 251.36307 L 104.162796 246.5095 L 98.65913 242.79723 L 109.500446 238.59611 L 103.99678 234.88384 Z" stroke="black" stroke-linecap="round" stroke-linejoin="round" stroke-width="1"/></g></g></svg>
