<?xml version="1.0"?>
<!DOCTYPE svg PUBLIC "-//W3C//DTD SVG 1.1//EN" "http://www.w3.org/Graphics/SVG/1.1/DTD/svg11.dtd">
<svg xmlns="http://www.w3.org/2000/svg" xmlns:xl="http://www.w3.org/1999/xlink" version="1.1" viewBox="506 696 303 61" width="303pt" height="61pt"><metadata xmlns:dc="http://purl.org/dc/elements/1.1/"><dc:date>2016-12-14 01:58Z</dc:date><!-- Produced by OmniGraffle Professional 5.4.2 --></metadata><defs></defs><g stroke="none" stroke-opacity="1" stroke-dasharray="none" fill="none" fill-opacity="1"><title>DIalog Analysis 6</title><g><title>Layer 1</title><path d="M 681.16576 716.6266 C 681.16576 727.72107 672.17178 736.71526 661.07686 736.71526 C 649.9828 736.71526 640.9884 727.72107 640.9884 716.6266 C 640.9884 705.5321 649.9828 696.5379 661.07686 696.5379 C 672.17178 696.5379 681.16576 705.5321 681.16576 716.6266 Z" fill="#a1cee0"/><path d="M 680.4857 716.1674 C 681.5407 713.16015 682.2268 713.0542 682.2268 713.0542 C 682.91284 712.949 681.69927 716.69493 681.69927 716.69493 C 680.80205 717.4336 680.4857 716.1674 680.4857 716.1674 Z" fill="#f58c16"/><path d="M 677.46064 717.381 C 678.7268 713.72322 680.4857 713.08976 680.4857 713.08976 C 680.8376 713.58245 679.2195 717.09946 679.2195 717.09946 C 678.3045 718.5064 677.46064 717.381 677.46064 717.381 Z" fill="#f58c16"/><path d="M 683.347 719.0908 C 684.7347 715.47676 683.79747 713.86014 683.79747 713.86014 C 683.2107 714.0098 682.18307 717.74314 682.18307 717.74314 C 681.97636 719.40792 683.347 719.0908 683.347 719.0908 Z" fill="#f58c16"/><path d="M 671.95057 722.2605 C 673.07153 727.28224 675.87284 725.45966 675.87284 725.45966 C 678.67414 723.63633 673.87243 717.78923 679.2602 715.81698 C 684.64793 713.84473 685.24805 722.4257 679.9796 726.468 C 674.71112 730.50956 671.15337 728.2239 670.6992 725.75823 C 670.24578 723.2933 671.95057 722.2605 671.95057 722.2605 Z" fill="#fd6e2b"/><path d="M 681.1684 719.49564 C 680.9328 720.0439 680.2964 720.29803 679.74813 720.06242 C 679.19913 719.8268 678.94575 719.1904 679.18135 718.6414 C 679.41696 718.09314 680.0534 717.839 680.60164 718.0746 C 681.15064 718.31096 681.40402 718.94664 681.1684 719.49564 Z" fill="#676fb4"/><path d="M 681.644 723.23136 C 681.49656 723.5744 681.0987 723.73294 680.75567 723.5855 C 680.41338 723.43806 680.25483 723.04095 680.40227 722.6979 C 680.5497 722.3549 680.9468 722.19633 681.28985 722.34303 C 681.6329 722.49047 681.79143 722.88832 681.644 723.23136 Z" fill="#676fb4"/><path d="M 678.80928 724.70365 C 678.6989 724.96074 678.40105 725.08002 678.1432 724.96963 C 677.88613 724.8585 677.7676 724.56066 677.878 724.30357 C 677.98837 724.0465 678.28695 723.9272 678.54404 724.0376 C 678.80113 724.148 678.91967 724.44656 678.80928 724.70365 Z" fill="#676fb4"/><path d="M 650.86877 744.0649 L 655.11075 744.0649 C 655.1663 742.12847 655.23815 740.1933 655.4344 738.27017 C 655.4466 738.15242 655.62698 735.89256 656.1696 736.21105 C 656.66587 736.50273 656.90693 739.87204 656.96763 744.0649 L 661.0953 744.0649 C 661.18366 740.4998 661.2304 737.62333 661.2611 737.24393 C 661.46633 734.72156 662.985 732.9018 663.28374 738.57557 C 663.31034 739.08258 663.3882 741.25493 663.51237 744.0649 L 667.13368 744.0649 C 667.2394 739.15957 667.6201 734.93217 668.58757 735.04755 C 669.47332 735.15264 669.81176 739.1555 670.24434 744.0649 L 673.10686 744.0649 C 672.9102 740.86696 672.92027 737.60917 672.91084 734.0698 C 672.89325 727.4875 672.91727 720.1222 670.7063 713.84 C 669.82248 711.3292 667.98705 708.2698 665.58993 706.89483 C 660.97606 704.2487 654.3927 707.13954 652.2405 711.69572 C 650.2202 715.9731 650.7045 721.0215 650.78555 725.6139 C 650.89386 731.7638 650.91724 737.91436 650.86877 744.0649 Z" fill="#fdab2f"/><path d="M 659.09443 724.38014 C 659.9744 724.553 660.8951 724.96135 661.5308 725.12563 C 663.2397 725.5681 665.94136 723.7766 667.37745 724.8642 C 668.45322 725.67853 667.94965 727.63277 667.23547 728.49215 C 665.3164 730.8022 660.7394 730.4067 658.47783 728.87005 C 657.42736 728.1561 656.16564 726.5392 656.8202 725.20005 C 657.27123 724.27826 658.15978 724.19655 659.09443 724.38014 Z" fill="#cd470b"/><path d="M 667.23545 728.4922 C 667.52198 728.14757 667.77248 727.6264 667.90244 727.0737 C 667.4896 726.8554 667.08725 726.8676 666.75482 726.7831 C 664.63586 726.245 659.7378 726.085 657.45158 727.91787 C 657.76663 728.30434 658.1336 728.6357 658.4778 728.8699 C 660.7394 730.4068 665.31638 730.80226 667.23545 728.4922 Z" fill="#f97118"/><path d="M 657.0195 723.50457 C 657.0122 724.04074 656.65274 725.87595 657.55888 726.1595 C 658.9497 726.59507 658.95142 724.65433 659.19678 723.994 Z" fill="white"/><path d="M 664.657 723.81066 C 664.67824 723.85098 664.69476 723.8898 664.71406 723.92926 C 664.70334 723.89344 664.68596 723.85505 664.657 723.81066 Z" fill="white"/><path d="M 664.71397 723.9293 C 664.74486 724.0344 664.71376 724.11527 664.72405 724.2416 L 662.9356 724.45584 C 662.9729 726.993 665.89227 726.385 664.71397 723.9293 Z" fill="white"/><path d="M 662.3988 723.7072 C 662.20556 723.6049 662.2701 723.78333 662.18776 723.80414 L 660.3504 723.6645 C 660.0392 724.3637 660.0628 725.9827 661.00497 726.2926 C 662.51354 726.7891 662.47387 724.6631 662.3988 723.7072 Z" fill="white"/><path d="M 667.7509 723.1466 C 667.55766 723.0443 667.6218 723.22297 667.53943 723.24377 L 665.7023 723.10394 C 665.3913 723.8031 665.4149 725.42235 666.35664 725.73204 C 667.865 726.22832 667.82575 724.1025 667.7509 723.1466 Z" fill="white"/><path d="M 661.09524 744.0649 C 661.1836 740.4998 661.23035 737.62333 661.26102 737.24393 C 661.37598 735.83036 661.90357 734.6379 662.3977 734.86075 C 662.39063 734.7029 662.38677 734.6186 662.38677 734.6186 C 659.89078 734.10775 659.4848 738.72334 659.5678 744.0649 Z" fill="#fecb15"/><path d="M 655.11354 744.0649 C 655.16845 742.18616 655.24158 740.3087 655.4318 738.4426 C 655.44404 738.32486 655.62462 736.065 656.16723 736.3835 C 656.4306 736.53833 656.6217 737.56027 656.75273 739.1098 C 656.8012 738.0748 656.71713 736.15464 655.91287 735.84538 C 655.74472 735.78082 655.58988 735.74822 655.4479 735.7626 C 653.00016 736.00923 653.06043 742.10037 653.0128 744.0649 Z" fill="#fecb15"/><path d="M 664.4811 744.0649 C 664.1639 742.33736 663.7907 740.977 663.362 740.49957 C 663.3995 741.4604 663.44884 742.68845 663.50932 744.0649 Z" fill="#fecb15"/><path d="M 671.2886 744.0649 C 671.13846 742.63804 670.8989 741.2206 670.4543 739.81756 C 670.2868 739.28847 669.95438 738.72377 669.6374 738.17987 C 669.8583 739.77874 670.03673 741.83293 670.2336 744.0649 Z" fill="#fecb15"/><path d="M 659.2315 718.59214 C 659.2315 720.74427 658.14857 722.4882 656.81316 722.4882 C 655.4773 722.4882 654.39436 720.74427 654.39436 718.59214 C 654.39436 716.44 655.4773 714.6961 656.81316 714.6961 C 658.14857 714.6961 659.2315 716.44 659.2315 718.59214 Z" fill="#fbe5e9"/><path d="M 654.15266 710.7996 C 659.4733 711.57853 659.95723 715.86513 659.95723 715.86513 C 660.4407 720.151 653.18524 714.69566 654.15266 710.7996 Z" fill="#fec83b"/><path d="M 664.55217 718.59214 C 664.55217 720.74427 665.6351 722.4882 666.9705 722.4882 C 668.30638 722.4882 669.3893 720.74427 669.3893 718.59214 C 669.3893 716.44 668.30638 714.6961 666.9705 714.6961 C 665.6351 714.6961 664.55217 716.44 664.55217 718.59214 Z" fill="#fbe5e9"/><path d="M 669.63106 710.7996 C 664.31043 711.57853 663.8265 715.86513 663.8265 715.86513 C 663.343 720.151 670.5985 714.69566 669.63106 710.7996 Z" fill="#fec83b"/><path d="M 657.61915 719.2416 C 657.61915 719.8874 657.2941 720.41034 656.8937 720.41034 C 656.49284 720.41034 656.16824 719.8874 656.16824 719.2416 C 656.16824 718.5958 656.49284 718.07286 656.8937 718.07286 C 657.2941 718.07286 657.61915 718.5958 657.61915 719.2416 Z" fill="#2a363e"/><path d="M 667.69625 719.2416 C 667.69625 719.8874 667.3712 720.41034 666.9708 720.41034 C 666.56994 720.41034 666.24533 719.8874 666.24533 719.2416 C 666.24533 718.5958 666.56994 718.07286 666.9708 718.07286 C 667.3712 718.07286 667.69625 718.5958 667.69625 719.2416 Z" fill="#2a363e"/><path d="M 657.5606 706.22577 C 654.57934 705.20684 654.43022 701.80907 654.43022 701.80907 C 653.53604 699.60128 652.34315 704.52717 653.23733 707.41463 C 654.132 710.30265 654.87756 710.98175 654.87756 710.98175 Z" fill="#fec11f"/><path d="M 665.01124 706.22577 C 667.9925 705.20684 668.1416 701.80907 668.1416 701.80907 C 669.0358 699.60128 670.2287 704.52717 669.334 707.41463 C 668.43983 710.30265 667.69427 710.98175 667.69427 710.98175 Z" fill="#fec11f"/><path d="M 673.61496 731.77537 L 669.1611 731.75665 L 667.72012 731.7941 C 667.72634 731.50087 667.46434 731.36988 667.46434 731.36988 C 667.20235 731.2389 666.3353 731.1578 665.5119 731.23267 C 664.6885 731.30752 664.0335 731.30752 663.56567 731.47595 C 663.09782 731.64437 662.29313 732.2245 662.29313 732.2245 C 661.76914 732.31807 661.582 732.28064 661.582 732.28064 C 661.39487 732.2432 661.3013 732.1122 661.11416 732.16836 L 660.92702 732.2245 C 659.97262 731.45723 659.3925 731.4011 659.3925 731.4011 C 658.81237 731.34495 657.334 731.10167 656.64157 731.21395 C 655.94916 731.32624 655.63103 731.30752 655.5936 731.4198 C 655.55617 731.5321 655.50003 731.75665 655.50003 731.75665 L 650.1479 731.75665 L 650.11047 733.94616 C 653.64737 734.021 653.90936 733.96488 653.90936 733.96488 C 654.17135 733.90874 655.3129 733.94616 655.3129 733.94616 C 655.66846 734.32044 656.1363 734.2456 656.1363 734.2456 C 656.60414 734.17073 658.25096 734.17073 658.25096 734.17073 L 658.66266 734.152 C 657.6521 735.81754 657.14684 737.09008 657.14684 737.09008 C 656.64157 738.3626 656.5293 738.68075 656.36087 738.9989 C 656.19244 739.317 656.1363 740.1404 656.1363 740.1404 L 657.7644 739.59772 L 658.81237 739.2983 L 660.1036 735.98597 L 660.94574 734.22687 L 661.13288 733.6093 C 661.46972 733.53446 661.67558 733.55318 661.67558 733.55318 C 661.88143 733.5719 662.06856 733.6031 662.06856 733.6031 C 662.5177 734.33915 662.72355 734.807 662.72355 734.807 C 662.9294 735.27484 663.50952 736.1731 663.80895 736.37895 C 664.10837 736.5848 664.87563 737.5018 665.1189 737.83863 C 665.3622 738.17548 666.3166 739.22345 666.41016 739.317 C 666.50373 739.4106 666.5973 739.61644 666.67215 739.50415 C 666.747 739.39187 666.91543 738.53104 666.9903 738.17548 C 667.06514 737.8199 667.2897 736.9965 667.34585 736.8281 C 667.402 736.65966 667.4394 736.52866 667.4394 736.47252 C 667.4394 736.4164 666.80315 735.79883 666.52244 735.4994 C 666.24174 735.2 665.71775 734.6947 665.60547 734.58243 C 665.4932 734.47015 665.3809 734.18944 665.3809 734.18944 C 666.616 734.2456 666.91543 734.22687 666.91543 734.22687 C 667.21485 734.20816 667.5517 734.1333 667.6827 734.05845 C 667.8137 733.9836 667.9821 733.9836 667.9821 733.9836 L 673.6711 733.92745 Z" fill="#eca12b"/><path d="M 656.34215 731.9438 C 656.56776 731.9925 656.76433 732.0132 656.99713 732.0364 C 657.16967 732.0536 657.44132 732.0462 657.59305 732.11693 C 657.49312 732.22577 657.28398 732.20945 657.18846 732.32323 C 657.07596 732.45715 657.19288 732.44053 657.29236 732.54735 C 657.32522 732.5827 657.36115 732.63934 657.37657 732.6886 C 657.3991 732.76076 657.37373 732.75387 657.38166 732.814 C 657.3916 732.8899 657.36175 732.9291 657.40292 733.0059 C 657.44424 733.08294 657.54477 733.1191 657.5747 733.1944 C 657.3718 733.2182 656.97153 733.32157 657.1231 733.5439 C 657.28106 733.77557 657.53048 733.8467 657.7605 733.98404 C 657.45046 734.09767 657.06106 734.04348 656.73095 734.03973 C 656.48026 734.0369 656.2295 734.0642 656.01024 733.94137 C 656.14453 733.89047 656.29424 733.8663 656.43415 733.8306 C 656.41716 733.78485 656.28938 733.6916 656.28863 733.6468 C 656.28713 733.55647 656.41768 733.55856 656.4703 733.4965 C 656.66597 733.26603 656.2985 733.2935 656.17597 733.16954 C 655.98913 732.9806 656.2991 732.98023 656.30345 732.775 C 656.30622 732.64623 656.159 732.4135 656.0985 732.3046 C 656.3759 732.17764 656.16003 732.04926 655.9904 731.9813 C 656.11347 731.95262 656.2655 731.96797 656.34215 731.9438 Z" fill="#f2bc61"/><path d="M 665.9236 732.03736 C 666.25244 732.03736 666.55246 732.0042 666.86865 731.944 C 667.0445 731.91056 667.2642 731.8038 667.43747 731.8726 C 667.3514 731.97396 667.2028 732.0623 667.1227 732.16416 C 667.17645 732.16925 667.23237 732.21177 667.2737 732.22457 C 667.17136 732.3243 667.09808 732.37353 667.10257 732.5239 C 667.10773 732.69855 667.15504 732.64967 667.2707 732.73965 C 667.4139 732.8512 667.36666 732.7808 667.2724 732.9268 C 667.21388 733.01744 667.1804 733.10966 667.0998 733.19664 C 667.13783 733.24664 667.13423 733.3033 667.16155 733.34732 C 667.1984 733.4067 667.2921 733.4423 667.3234 733.49793 C 667.38238 733.60273 667.32773 733.6234 667.32624 733.7361 C 667.32444 733.8687 667.44608 733.85005 667.2709 733.94616 C 667.1659 734.0038 667.0189 733.9836 666.9018 733.9836 C 666.61706 733.98367 666.349 734.0277 666.06815 734.0023 C 665.9837 733.99467 665.7894 734.0207 665.7924 733.90874 C 665.79552 733.78927 666.19727 733.7671 666.2776 733.66965 C 666.2231 733.62938 666.15954 733.6076 666.0909 733.60512 C 666.51615 733.4811 665.86903 733.34096 665.7563 733.20233 C 666.02293 733.117 666.6425 733.05786 666.12257 732.78703 C 666.15445 732.7734 666.1826 732.7228 666.22242 732.70686 C 666.15386 732.47624 665.7325 732.55057 665.58166 732.3924 C 665.74717 732.24748 666.4297 732.3063 665.9236 732.03736 Z" fill="#f2bc61"/><path d="M 662.19005 732.24752 C 661.9947 732.1878 661.79744 732.25875 661.5984 732.2128 C 661.45183 732.1789 661.321 732.1172 661.1668 732.12177 C 660.96385 732.12783 660.83787 732.21354 660.8074 732.4187 C 660.78338 732.581 660.81235 732.7566 660.82185 732.91987 C 660.83084 733.0749 660.82305 733.24175 660.8587 733.3941 C 660.91116 733.6184 661.0394 733.66977 661.25234 733.62553 C 661.4885 733.5765 661.6838 733.62987 661.92147 733.65255 C 662.01385 733.6614 662.1063 733.6702 662.18414 733.61063 C 662.30975 733.5145 662.304 733.3178 662.31416 733.1738 C 662.32367 733.038 662.4299 732.1964 662.15847 732.22334 C 662.10487 732.22866 662.08526 732.3086 662.14484 732.32328 C 662.2638 732.3526 662.201 732.98103 662.1955 733.07767 C 662.18676 733.23404 662.2101 733.49034 662.00134 733.5363 C 661.81016 733.57845 661.5678 733.4464 661.36253 733.4771 C 661.28917 733.488 661.17906 733.5482 661.10728 733.5351 C 660.94087 733.5047 660.95255 733.2722 660.94424 733.15596 C 660.92837 732.93454 660.87246 732.66297 660.91535 732.44484 C 660.98384 732.0967 661.3355 732.2574 661.57228 732.3077 C 661.7737 732.35045 661.98226 732.30905 662.1846 732.2877 C 662.20675 732.2854 662.2134 732.25463 662.19005 732.24752 Z" fill="#161614"/><path d="M 662.2508 732.97788 C 662.456 732.96657 662.6482 732.98723 662.8516 733.0136 C 663.1017 733.04607 663.37004 733.17594 663.6191 733.16105 C 663.642 733.1597 663.6544 733.1273 663.6315 733.11524 C 663.3993 732.99315 663.11097 732.9505 662.8516 732.92735 C 662.6661 732.9108 662.41115 732.84314 662.24295 732.94846 C 662.2303 732.9563 662.2345 732.97877 662.2508 732.97788 Z" fill="#161614"/><path d="M 662.22697 732.2615 C 662.67797 732.12016 663.1771 732.0694 663.64196 731.9842 C 664.22583 731.87718 664.85506 731.8839 665.4471 731.88945 C 665.94764 731.89417 666.4386 731.8905 666.9337 731.80696 C 667.1174 731.77597 667.62777 731.71796 667.6934 731.47985 C 667.69955 731.4573 667.69327 731.4317 667.67635 731.4154 C 667.43307 731.18035 666.8275 731.19173 666.5054 731.1596 C 665.98275 731.10744 665.45974 731.11403 664.93882 731.18297 C 664.43437 731.24974 663.88486 731.29293 663.4061 731.4672 C 662.93413 731.6389 662.5975 731.9313 662.20646 732.22937 C 662.14673 732.2749 662.1986 732.3743 662.26732 732.33334 C 662.6354 732.11424 662.91317 731.8071 663.32308 731.64086 C 663.74114 731.47124 664.2021 731.44384 664.6441 731.3638 C 665.12596 731.2767 665.6189 731.2421 666.10813 731.2635 C 666.3511 731.27415 666.59424 731.29907 666.83558 731.32916 C 666.9409 731.34234 667.517 731.3796 667.45934 731.5237 C 667.41263 731.64026 666.89044 731.68233 666.76866 731.7012 C 666.51647 731.7402 666.2633 731.7685 666.0082 731.7777 C 665.53826 731.7946 665.0713 731.7849 664.60168 731.81378 C 664.1541 731.84125 663.7386 731.88047 663.2998 731.97164 C 662.93825 732.04672 662.55476 732.0825 662.21432 732.23154 C 662.19733 732.23903 662.20946 732.26695 662.22697 732.2615 Z" fill="#161614"/><path d="M 662.21692 733.35577 C 662.7359 733.52112 663.14655 733.90767 663.6659 734.08164 C 664.1613 734.2476 664.70428 734.20373 665.2193 734.24145 C 665.77815 734.2824 666.33365 734.2664 666.89334 734.27035 C 667.23738 734.2728 667.62535 734.28053 667.89348 734.0323 C 667.95868 733.97205 667.86384 733.8817 667.79767 733.93634 C 667.44764 734.22543 666.87388 734.1267 666.44997 734.1321 C 665.92547 734.13883 665.4113 734.11293 664.8882 734.0805 C 664.29512 734.04384 663.7948 734.03133 663.2497 733.75894 C 662.93224 733.60024 662.59756 733.28862 662.22485 733.29716 C 662.19087 733.298 662.1848 733.3455 662.21692 733.35577 Z" fill="#161614"/><path d="M 667.6001 731.4806 C 667.68618 731.91445 667.7025 732.3341 667.70684 732.7764 C 667.7108 733.18025 667.66507 733.6017 667.75175 733.9991 C 667.76298 734.05036 667.8505 734.0538 667.85894 733.9991 C 667.8894 733.80244 667.8549 733.60415 667.8522 733.4051 C 667.848 733.10225 667.8496 732.8003 667.83484 732.49757 C 667.81897 732.17128 667.86433 731.72304 667.63033 731.46292 C 667.6173 731.44855 667.5968 731.4641 667.6001 731.4806 Z" fill="#161614"/><path d="M 662.0128 733.59605 C 662.30877 734.1859 662.64337 734.7742 662.96876 735.3508 C 663.28368 735.90907 663.67734 736.3582 664.1311 736.80906 C 664.62845 737.30325 665.03057 737.83345 665.46106 738.38236 C 665.63862 738.60872 665.82254 738.84317 666.02255 739.05007 C 666.15557 739.18758 666.28986 739.33205 666.42452 739.46596 C 666.50956 739.55055 666.48695 739.55205 666.59654 739.5999 C 666.66196 739.62847 666.71406 739.5445 666.6532 739.50294 C 666.53546 739.4226 666.40072 739.2294 666.296 739.12395 C 666.18072 739.00777 666.06754 738.89706 665.96237 738.771 C 665.75435 738.52167 665.5473 738.2718 665.3594 738.0068 C 665.0067 737.50925 664.63294 737.07494 664.20088 736.64213 C 663.71065 736.1511 663.32725 735.6462 662.9827 735.046 C 662.69577 734.54604 662.46596 733.9754 662.05688 733.56207 C 662.03367 733.53864 661.9988 733.5682 662.0128 733.59605 Z" fill="#161614"/><path d="M 665.3154 734.19895 C 665.3273 734.3762 665.44715 734.4694 665.5669 734.59284 C 665.7822 734.8147 665.97772 735.0537 666.19 735.278 C 666.39923 735.4991 666.62933 735.69905 666.84132 735.9174 C 667.0316 736.11344 667.1932 736.37806 667.44226 736.50007 C 667.488 736.52253 667.55005 736.47424 667.5174 736.42484 C 667.2487 736.01696 666.8465 735.676 666.4963 735.3396 C 666.30693 735.1576 666.1329 734.96202 665.94815 734.77556 C 665.75585 734.58146 665.506 734.4185 665.35575 734.188 C 665.3449 734.17125 665.3139 734.1762 665.3154 734.19895 Z" fill="#161614"/><path d="M 667.45046 736.43857 C 667.1905 736.8615 667.096 737.40936 666.9859 737.8859 C 666.8582 738.4387 666.69113 738.9942 666.59988 739.55336 C 666.5936 739.59214 666.64038 739.63076 666.67226 739.59543 C 666.80723 739.44587 666.81337 739.2591 666.85386 739.0674 C 666.92056 738.75226 666.99998 738.43937 667.07094 738.1252 C 667.13906 737.82376 667.19685 737.51805 667.27837 737.2199 C 667.3479 736.96547 667.459 736.71943 667.49537 736.4575 C 667.49896 736.4314 667.46618 736.41304 667.45046 736.43857 Z" fill="#161614"/><path d="M 658.76847 734.07738 C 658.52123 734.2122 658.36396 734.5965 658.20773 734.81897 C 657.8224 735.3675 657.5366 735.94643 657.27092 736.56047 C 657.00496 737.17526 656.7727 737.8 656.51376 738.41613 C 656.40216 738.68186 656.30402 738.94483 656.2284 739.22374 C 656.15087 739.51006 656.02257 739.83 656.0609 740.1283 C 656.0686 740.18817 656.1678 740.21834 656.17924 740.1443 C 656.3713 738.8993 656.9385 737.71893 657.42864 736.56923 C 657.79027 735.72105 658.2335 734.84202 658.79325 734.10215 C 658.80493 734.0868 658.783 734.06944 658.76847 734.07738 Z" fill="#161614"/><path d="M 661.12078 733.57708 C 660.82428 734.51636 660.2259 735.3397 659.90087 736.26243 C 659.551 737.2557 659.1706 738.24856 658.72152 739.20244 C 658.67803 739.2948 658.81397 739.3764 658.85986 739.28335 C 659.3215 738.34834 659.70826 737.35247 660.0389 736.3647 C 660.2157 735.8365 660.50704 735.33497 660.7301 734.8225 C 660.88813 734.45954 661.18224 733.98287 661.1564 733.58187 C 661.15506 733.56166 661.12707 733.557 661.12078 733.57708 Z" fill="#161614"/><path d="M 667.69805 731.79726 C 668.67184 731.85498 669.65663 731.8284 670.632 731.83424 C 671.62405 731.84023 672.61693 731.8507 673.6089 731.8335 C 673.70667 731.83185 673.70704 731.6811 673.6089 731.68146 C 672.61663 731.6856 671.62442 731.69696 670.632 731.6974 C 669.65686 731.6978 668.67176 731.66058 667.69805 731.71777 C 667.64685 731.72076 667.64677 731.7942 667.69805 731.79726 Z" fill="#161614"/><path d="M 667.8389 734.03257 C 669.76957 734.00076 671.68773 734.13886 673.61832 734.0257 C 673.7142 734.02007 673.71503 733.8803 673.61832 733.87597 C 672.65045 733.8322 671.6878 733.9842 670.7174 733.91235 C 670.26856 733.8791 669.82437 733.90786 669.37546 733.92006 C 668.86353 733.93406 668.3483 733.88443 667.8389 733.94956 C 667.78756 733.95607 667.7838 734.03347 667.8389 734.03257 Z" fill="#161614"/><path d="M 655.461 731.74233 C 654.59095 731.68836 653.71096 731.71635 652.83942 731.7097 C 651.95126 731.70288 651.06303 731.68484 650.17488 731.68147 C 650.07697 731.6811 650.07697 731.8317 650.17488 731.8335 C 651.06274 731.84997 651.9514 731.84615 652.83942 731.84652 C 653.7106 731.8469 654.59125 731.8757 655.461 731.82182 C 655.51212 731.8187 655.5122 731.74547 655.461 731.74233 Z" fill="#161614"/><path d="M 655.354 733.9231 C 654.60733 733.92924 653.85032 733.85962 653.10537 733.91075 C 652.12162 733.97827 651.14633 733.8317 650.16543 733.87594 C 650.06887 733.8803 650.0693 734.02004 650.16543 734.02565 C 651.1581 734.08374 652.1524 734.12603 653.14436 734.05215 C 653.8831 733.9972 654.62874 734.1086 655.365 734.0047 C 655.41202 733.99803 655.39975 733.92273 655.354 733.9231 Z" fill="#161614"/><path d="M 660.9574 732.19423 C 660.60453 732.05193 660.19373 732.03846 659.82162 731.95934 C 659.40446 731.87064 659.0066 731.84024 658.5806 731.81375 C 658.11096 731.78455 657.64394 731.79383 657.17415 731.7776 C 656.9189 731.76883 656.6659 731.74016 656.41362 731.70116 C 656.31092 731.6853 655.76785 731.63537 655.72294 731.5237 C 655.66268 731.37397 656.2639 731.33946 656.3467 731.3292 C 656.56588 731.3019 656.78678 731.2786 657.00737 731.2665 C 657.4747 731.24065 657.94493 731.26917 658.4071 731.3415 C 658.8152 731.4054 659.29375 731.44014 659.68015 731.57443 C 659.9214 731.65835 660.1482 731.7654 660.36066 731.90716 C 660.54293 732.0288 660.70005 732.189 660.89415 732.29057 C 660.9633 732.3268 661.0188 732.23 660.95493 732.18652 C 660.5626 731.91967 660.2305 731.6325 659.7762 731.46717 C 659.29465 731.29193 658.7413 731.24784 658.23462 731.1818 C 657.71648 731.1143 657.19653 731.1077 656.6769 731.1596 C 656.35396 731.19185 655.7507 731.17882 655.50586 731.41537 C 655.489 731.4317 655.48265 731.45736 655.48886 731.4798 C 655.5554 731.72152 656.0556 731.7746 656.24857 731.807 C 656.7436 731.8901 657.2347 731.89444 657.7352 731.8895 C 658.3275 731.88366 658.95585 731.8794 659.5403 731.9842 C 659.9961 732.06586 660.50468 732.1012 660.9487 732.22582 C 660.96953 732.23166 660.9764 732.20194 660.9574 732.19423 Z" fill="#161614"/><path d="M 660.88174 733.33566 C 660.5145 733.32907 660.19195 733.6341 659.87583 733.78764 C 659.3306 734.0524 658.81716 734.0462 658.22783 734.08474 C 657.72682 734.11752 657.23465 734.1387 656.7323 734.1321 C 656.30824 734.1266 655.7344 734.22524 655.38468 733.93637 C 655.3185 733.88173 655.2236 733.972 655.2887 734.03226 C 655.5341 734.25937 655.8808 734.27075 656.19888 734.2712 C 656.76523 734.2721 657.33136 734.2875 657.89674 734.24635 C 658.4101 734.209 658.96185 734.25256 659.45777 734.09933 C 659.97382 733.9399 660.3787 733.5455 660.88967 733.39427 C 660.92193 733.3847 660.91572 733.33626 660.88174 733.33566 Z" fill="#161614"/><path d="M 655.5519 731.46297 C 655.3185 731.72227 655.36326 732.17342 655.34747 732.49755 C 655.33385 732.77683 655.33138 733.05567 655.33025 733.33517 C 655.32943 733.5545 655.28976 733.7829 655.32337 733.99914 C 655.33182 734.0538 655.41933 734.0504 655.4305 733.99914 C 655.51724 733.60166 655.47143 733.18022 655.4754 732.77646 C 655.4798 732.33444 655.49613 731.91405 655.5822 731.48064 C 655.58543 731.46417 655.56492 731.44853 655.5519 731.46297 Z" fill="#161614"/><path d="M 660.8439 732.9026 C 660.53812 732.6796 659.99243 732.8633 659.6954 733.02123 C 659.67557 733.0318 659.6901 733.05895 659.70985 733.05543 C 660.08233 732.98964 660.4447 732.86777 660.8254 732.94637 C 660.8529 732.95206 660.86576 732.91852 660.8439 732.9026 Z" fill="#161614"/><path d="M 660.25226 706.9349 C 660.2554 706.93652 665.19053 709.4609 668.63407 709.5758 C 667.7543 709.07827 666.81172 708.45916 666.81172 708.45916 C 667.18567 708.6235 667.60512 708.7436 668.06 708.77196 C 667.60072 708.083 667.14143 707.2793 667.14143 707.2793 C 666.68213 706.4756 665.9932 704.4088 665.1895 703.26067 C 663.65226 701.0646 660.0225 700.84944 658.7595 701.7679 C 658.2138 702.1648 657.94722 702.86924 657.9346 703.59385 C 655.81103 703.27075 655.21497 705.92518 655.3149 707.62373 C 655.36633 708.4976 655.2708 708.86345 655.14965 709.00184 C 655.68144 708.99107 656.72105 708.8908 657.38173 708.31267 C 657.9903 707.7802 658.4979 706.5927 658.7713 705.85175 C 659.4087 706.73375 660.63523 708.0338 662.77826 709.0016 C 666.3376 710.60913 667.83037 710.14984 667.83037 710.14984 C 664.15602 709.0016 662.2041 707.96826 662.2041 707.96826 C 660.31572 706.9685 660.25423 706.93595 660.25226 706.9349 Z" fill="#feed1e"/><path d="M 660.25226 706.9349 C 660.2554 706.93652 665.19053 709.4609 668.63407 709.5758 C 667.7543 709.07827 666.81172 708.45916 666.81172 708.45916 C 667.18567 708.6235 667.60512 708.7436 668.06 708.77196 C 667.60072 708.083 667.14143 707.2793 667.14143 707.2793 C 666.68213 706.4756 665.9932 704.4088 665.1895 703.26067 C 663.65226 701.0646 660.0225 700.84944 658.7595 701.7679 C 658.2138 702.1648 657.94722 702.86924 657.9346 703.59385 C 655.81103 703.27075 655.21497 705.92518 655.3149 707.62373 C 655.36633 708.4976 655.2708 708.86345 655.14965 709.00184 C 655.68144 708.99107 656.72105 708.8908 657.38173 708.31267 C 657.9903 707.7802 658.4979 706.5927 658.7713 705.85175 C 659.4087 706.73375 660.63523 708.0338 662.77826 709.0016 C 666.3376 710.60913 667.83037 710.14984 667.83037 710.14984 C 664.15602 709.0016 662.2041 707.96826 662.2041 707.96826 C 660.31572 706.9685 660.25423 706.93595 660.25226 706.9349 Z" stroke="#fecd44" stroke-linecap="round" stroke-linejoin="round" stroke-width="1"/><line x1="507.5" y1="754" x2="807.5" y2="754" stroke="#666" stroke-linecap="round" stroke-linejoin="round" stroke-width=".25"/></g></g></svg>
