<?xml version="1.0" encoding="utf-8"?>
<!-- Generator: Adobe Illustrator 16.0.0, SVG Export Plug-In . SVG Version: 6.00 Build 0)  -->
<!DOCTYPE svg PUBLIC "-//W3C//DTD SVG 1.1//EN" "http://www.w3.org/Graphics/SVG/1.1/DTD/svg11.dtd">
<svg version="1.1" id="Layer_1" xmlns="http://www.w3.org/2000/svg" xmlns:xlink="http://www.w3.org/1999/xlink" x="0px" y="0px"
	 width="960px" height="560px" viewBox="0 0 960 560" enable-background="new 0 0 960 560" xml:space="preserve">
<g>
	<path d="M758.193,36.743c-1.677-1.523-4.104-1.829-6.132-0.815L347.77,241.505c-1.74,0.886-2.881,2.639-2.977,4.589
		c-0.102,1.951,0.848,3.805,2.492,4.87l102.417,66.087l12.664,93.143c0.235,1.746,1.307,3.276,2.861,4.092
		c0.804,0.427,1.67,0.631,2.55,0.631c0.835,0,1.676-0.197,2.453-0.586l82.206-41.307l62.595,30.497
		c1.39,0.682,2.977,0.745,4.397,0.172c1.421-0.561,2.55-1.695,3.091-3.123c0,0,137.809-354.979,136.77-356.911l0.351-0.905
		C760.443,40.65,759.876,38.26,758.193,36.743z M361.187,246.942L732.979,57.891L451.506,305.215L361.187,246.942z M669.027,128.63
		l32.601-28.643L669.48,137.77c-0.453-2.734-0.567-5.513-0.351-8.343C669.148,129.121,669.06,128.892,669.027,128.63z
		 M663.432,144.876l-22.187,26.074c-0.586-4.857-1.173-9.713-1.759-14.57c-0.063-0.536-0.242-0.981-0.459-1.396l22.435-19.707
		C661.711,138.548,662.387,141.741,663.432,144.876z M634.489,178.886l-17.731,20.848c-0.866-7.374-1.727-14.748-2.594-22.129
		c-0.025-0.229-0.14-0.395-0.197-0.599l18.355-16.131C633.043,166.878,633.77,172.882,634.489,178.886z M609.983,207.688
		l-19.777,23.257c-1.122-9.095-2.237-18.184-3.358-27.278c-0.103-0.841-0.466-1.479-0.912-2.033l21.16-18.592
		C608.059,191.257,609.021,199.479,609.983,207.688z M583.47,238.86l-19.548,22.97c-1.236-12.339-2.467-24.672-3.703-37.011
		c-0.02-0.179-0.102-0.306-0.141-0.465l19.497-17.126C580.875,217.771,582.169,228.319,583.47,238.86z M557.025,269.932
		l-14.168,16.66c-2.129-13.837-4.251-27.667-6.38-41.498l16.603-14.595C554.399,243.647,555.706,256.789,557.025,269.932z
		 M536.299,294.297l-17.508,20.574c-1.6-16.667-3.206-33.34-4.806-50.013l15.672-13.773
		C531.869,265.489,534.087,279.893,536.299,294.297z M511.869,323.017l-9.72,11.421c-0.121,0.141-0.204,0.319-0.312,0.472
		c-0.044,0.064-0.114,0.096-0.152,0.159c-0.032,0.058-0.032,0.115-0.063,0.173c-0.064,0.102-0.153,0.197-0.204,0.306l-7.241,14.602
		c-1.727-21.198-3.256-42.409-4.474-63.646c-0.007-0.095-0.058-0.158-0.063-0.248l17.24-15.15
		C508.542,288.408,510.206,305.713,511.869,323.017z M460.187,313.087c-0.032-0.262-0.198-0.479-0.262-0.727l22.467-19.745
		c1.415,23.671,3.104,47.316,5.144,70.943l-16.074,32.429L460.187,313.087z M484.049,395.165l24.475-49.356l32.766,20.593
		L484.049,395.165z M614.457,391.099l-59.414-28.948l-40.478-25.443L734.254,78.503L614.457,391.099z"/>
	<path d="M206.227,357.439c0.268,0.039,0.535,0.064,0.803,0.064c2.665,0,4.997-1.957,5.398-4.672
		c0.51-3.474,1.147-6.909,1.912-10.319c0.657-2.944-1.198-5.863-4.143-6.52c-2.951-0.669-5.864,1.198-6.52,4.143
		c-0.822,3.665-1.511,7.368-2.059,11.103C201.179,354.228,203.244,357.007,206.227,357.439z"/>
	<path d="M207.591,398.695c2.989-0.42,5.067-3.187,4.653-6.163c-0.874-6.252-1.319-12.689-1.319-19.12l0.006-1.766
		c0.038-3.021-2.377-5.494-5.392-5.532h-0.064c-2.989,0-5.424,2.402-5.462,5.398L200,373.412c0,6.928,0.478,13.868,1.428,20.625
		c0.376,2.733,2.722,4.71,5.398,4.71C207.081,398.747,207.336,398.728,207.591,398.695z"/>
	<path d="M447.707,458.792c-2.83-1.064-5.979,0.338-7.049,3.154c-2.575,6.73-5.628,12.996-9.089,18.617
		c-1.581,2.562-0.777,5.928,1.791,7.515c0.892,0.548,1.88,0.815,2.855,0.815c1.835,0,3.626-0.924,4.652-2.601
		c3.817-6.201,7.177-13.078,9.994-20.439C451.939,463.023,450.53,459.869,447.707,458.792z"/>
	<path d="M223.671,430.276c-3.008-6.105-5.532-12.619-7.508-19.375c-0.835-2.9-3.869-4.525-6.769-3.723
		c-2.894,0.848-4.563,3.875-3.709,6.775c2.142,7.361,4.901,14.474,8.196,21.153c0.95,1.925,2.887,3.047,4.901,3.047
		c0.816,0,1.638-0.185,2.409-0.567C223.895,436.248,225.003,432.979,223.671,430.276z"/>
	<path d="M325.119,481.749c-0.382-0.88-0.752-1.766-1.09-2.671c2.008-1.612,2.651-4.468,1.396-6.825
		c-0.874-1.632-2.441-2.633-4.137-2.85c-0.446-2.275-0.771-4.582-0.969-6.94c-0.249-3.009-2.951-5.335-5.896-4.99
		c-3.008,0.248-5.239,2.887-4.99,5.889c0.28,3.365,0.777,6.673,1.491,9.892c-3.812,1.473-7.737,2.562-11.728,3.244
		c-2.976,0.504-4.971,3.327-4.468,6.297c0.517,2.983,3.359,4.979,6.31,4.469c4.455-0.766,8.814-1.944,13.072-3.531
		c0.319,0.803,0.644,1.6,0.995,2.39c0.898,2.046,2.9,3.276,5.009,3.276c0.733,0,1.473-0.146,2.18-0.459
		C325.061,487.733,326.323,484.516,325.119,481.749z"/>
	<path d="M281.301,476.886c-6.559-0.828-12.989-2.734-19.114-5.646c-2.715-1.294-5.985-0.141-7.279,2.581
		c-1.293,2.722-0.14,5.984,2.588,7.278c7.176,3.417,14.729,5.647,22.441,6.622c0.236,0.032,0.465,0.045,0.695,0.045
		c2.709,0,5.061-2.021,5.411-4.78C286.412,480.003,284.29,477.262,281.301,476.886z"/>
	<path d="M420.377,495.108c-4.862,5.009-10.21,9.069-15.883,12.059c-2.664,1.408-3.684,4.71-2.275,7.387
		c0.976,1.849,2.868,2.912,4.831,2.912c0.86,0,1.734-0.203,2.55-0.631c6.686-3.53,12.951-8.279,18.617-14.104
		c2.104-2.173,2.052-5.621-0.108-7.725C425.941,492.915,422.48,492.947,420.377,495.108z"/>
	<path d="M238.7,453.062c-1.912-2.211-3.716-4.486-5.417-6.826c-1.772-2.44-5.188-2.982-7.629-1.204
		c-2.441,1.778-2.977,5.194-1.198,7.636c1.88,2.581,3.869,5.092,5.979,7.533c2.964,3.436,6.157,6.615,9.503,9.465
		c1.026,0.879,2.282,1.307,3.537,1.307c1.549,0,3.079-0.657,4.162-1.919c1.957-2.294,1.676-5.742-0.618-7.699
		C244.099,458.855,241.3,456.063,238.7,453.062z"/>
	<path d="M352.964,441.883c-2.562-1.581-5.934-0.784-7.514,1.791c-0.994,1.6-1.906,2.982-2.677,4.066
		c-3.053,4.309-6.45,8.228-10.102,11.676c-2.199,2.071-2.294,5.526-0.223,7.725c1.071,1.142,2.518,1.721,3.971,1.721
		c1.345,0,2.696-0.497,3.748-1.491c4.168-3.938,8.05-8.419,11.523-13.302c0.886-1.249,1.931-2.823,3.065-4.671
		C356.336,446.828,355.533,443.463,352.964,441.883z"/>
	<path d="M364.086,431.156c3.206-7.929,4.831-14.927,4.831-20.804c0-1-0.044-1.981-0.14-2.944c-0.306-3.002-2.977-5.111-5.985-4.889
		c-2.996,0.307-5.188,2.983-4.882,5.985c0.064,0.599,0.089,1.217,0.089,1.848c0,4.404-1.396,10.186-4.034,16.712
		c-1.135,2.791,0.216,5.972,3.015,7.112c0.669,0.268,1.357,0.402,2.046,0.402C361.18,434.572,363.226,433.278,364.086,431.156z"/>
	<path d="M350.517,508.071c-6.01-2.816-11.319-6.691-15.768-11.51c-2.052-2.212-5.513-2.346-7.718-0.307
		c-2.218,2.046-2.352,5.507-0.306,7.725c5.411,5.857,11.861,10.567,19.159,13.978c0.746,0.357,1.536,0.522,2.313,0.522
		c2.052,0,4.021-1.166,4.952-3.142C354.424,512.604,353.251,509.353,350.517,508.071z"/>
	<path d="M314.902,448.792c0.332,0.063,0.669,0.089,1,0.089c2.582,0,4.876-1.849,5.36-4.468c0.574-3.11,1.37-6.221,2.352-9.241
		c0.899-2.779,2.403-6.412,4.124-9.969c1.319-2.715,0.185-5.984-2.537-7.298c-2.728-1.345-5.979-0.178-7.292,2.537
		c-1.925,3.983-3.633,8.12-4.685,11.345c-1.128,3.467-2.04,7.049-2.702,10.631C309.975,445.388,311.932,448.243,314.902,448.792z"/>
	<path d="M329.631,410.41c1.007,0.803,2.212,1.191,3.41,1.191c1.6,0,3.193-0.707,4.264-2.052c4.646-5.807,9.223-8.999,12.887-8.999
		l0.688-5.443l-0.357,5.456c2.925,0.172,5.609-2.091,5.806-5.1c0.198-3.002-2.084-5.608-5.092-5.806
		c-0.121-0.007-0.924-0.032-1.045-0.032c-7.253,0-14.455,4.411-21.415,13.104C326.891,405.088,327.273,408.523,329.631,410.41z"/>
	<path d="M387.675,512.89c-6.291,1.064-13.104,1.122-19.981,0.141c-2.983-0.376-5.755,1.657-6.169,4.646
		c-0.421,2.989,1.657,5.755,4.64,6.183c3.786,0.535,7.578,0.803,11.275,0.803c4.111,0,8.171-0.338,12.065-1.007
		c2.977-0.504,4.978-3.327,4.468-6.297C393.468,514.382,390.632,512.387,387.675,512.89z"/>
	<path d="M454.304,428.581c-2.951-0.408-5.762,1.619-6.208,4.608c-0.51,3.441-1.153,6.902-1.925,10.338
		c-0.663,2.944,1.192,5.863,4.13,6.526c0.401,0.089,0.804,0.134,1.198,0.134c2.499,0,4.755-1.728,5.328-4.264
		c0.829-3.697,1.523-7.426,2.071-11.142C459.345,431.8,457.293,429.027,454.304,428.581z"/>
	<path d="M614.158,354.355c4.13-9.905,8.266-19.815,12.396-29.727c1.912-4.576-5.545-6.564-7.432-2.046
		c-4.13,9.904-8.267,19.815-12.396,29.727C604.82,356.879,612.277,358.874,614.158,354.355z"/>
	<path d="M634.827,304.813c8.267-19.815,16.533-39.63,24.8-59.446c1.912-4.576-5.545-6.564-7.432-2.046
		c-8.267,19.815-16.533,39.631-24.8,59.446C625.49,307.338,632.94,309.332,634.827,304.813z"/>
</g>
</svg>
