<?xml version="1.0"?>
<!DOCTYPE svg PUBLIC "-//W3C//DTD SVG 1.1//EN" "http://www.w3.org/Graphics/SVG/1.1/DTD/svg11.dtd">
<svg xmlns="http://www.w3.org/2000/svg" xmlns:xl="http://www.w3.org/1999/xlink" version="1.1" viewBox="178 1510 51 51" width="51pt" height="51pt"><metadata xmlns:dc="http://purl.org/dc/elements/1.1/"><dc:date>2017-01-20 20:13Z</dc:date><!-- Produced by OmniGraffle Professional 5.4.2 --></metadata><defs></defs><g stroke="none" stroke-opacity="1" stroke-dasharray="none" fill="none" fill-opacity="1"><title>Canvas 4</title><g><title>Layer 1</title><path d="M 203.97931 1531.9141 L 207.36531 1528.5281 L 207.36531 1542.4711 L 203.97931 1539.0861 L 203.39331 1538.5001 L 202.56531 1538.5001 L 196.36531 1538.5001 L 196.36531 1532.5001 L 202.56531 1532.5001 L 203.39331 1532.5001 Z M 194.36531 1530.5001 L 194.36531 1540.5001 L 202.56531 1540.5001 L 209.36531 1547.2991 L 209.36531 1523.7001 L 202.56531 1530.5001 Z" fill="#e6e6e6"/><path d="M 223.41771 1520.5694 L 221.80571 1521.7694 C 224.66771 1525.6044 226.36471 1530.3574 226.36471 1535.5004 C 226.36471 1540.6424 224.66771 1545.3954 221.80571 1549.2294 L 223.41771 1550.4294 C 226.52471 1546.2634 228.3647 1541.0964 228.3647 1535.5004 C 228.3647 1529.9034 226.52471 1524.7354 223.41771 1520.5694 Z" fill="#e6e6e6"/><path d="M 218.58081 1546.8291 C 220.94481 1543.6611 222.36381 1539.7481 222.36381 1535.5001 C 222.36381 1531.2521 220.94481 1527.3391 218.58081 1524.1711 L 216.97881 1525.3631 C 219.09481 1528.1971 220.36381 1531.6991 220.36381 1535.5001 C 220.36381 1539.3011 219.09581 1542.8021 216.97881 1545.6371 Z" fill="#e6e6e6"/><path d="M 213.77611 1543.252 C 215.39411 1541.084 216.36511 1538.407 216.36511 1535.5 C 216.36511 1532.593 215.39411 1529.915 213.77611 1527.748 L 212.17511 1528.94 C 213.54411 1530.774 214.36511 1533.04 214.36511 1535.5 C 214.36511 1537.96 213.54411 1540.226 212.17511 1542.06 Z" fill="#e6e6e6"/><path d="M 203.36401 1558.5 C 190.68201 1558.5 180.36501 1548.183 180.36501 1535.5 C 180.36501 1522.817 190.68201 1512.5 203.36401 1512.5 C 209.68401 1512.5 215.41001 1515.069 219.57201 1519.209 L 220.99301 1517.788 C 216.47101 1513.288 210.24601 1510.5 203.36401 1510.5 C 189.55801 1510.5 178.36501 1521.692 178.36501 1535.5 C 178.36501 1549.307 189.55801 1560.5 203.36401 1560.5 C 210.24601 1560.5 216.47101 1557.712 220.99301 1553.212 L 219.57201 1551.79 C 215.41001 1555.931 209.68401 1558.5 203.36401 1558.5 Z" fill="#e6e6e6"/></g></g></svg>
