<?xml version="1.0"?>
<!DOCTYPE svg PUBLIC "-//W3C//DTD SVG 1.1//EN" "http://www.w3.org/Graphics/SVG/1.1/DTD/svg11.dtd">
<svg xmlns="http://www.w3.org/2000/svg" xmlns:xl="http://www.w3.org/1999/xlink" version="1.1" viewBox="370 1385 66 66" width="66pt" height="66pt"><metadata xmlns:dc="http://purl.org/dc/elements/1.1/"><dc:date>2017-01-19 22:18Z</dc:date><!-- Produced by OmniGraffle Professional 5.4.2 --></metadata><defs></defs><g stroke="none" stroke-opacity="1" stroke-dasharray="none" fill="none" fill-opacity="1"><title>Canvas 4</title><g><title>Layer 1</title><circle cx="403.25957" cy="1417.59275" r="32.500053" fill="#e6e6e6"/><path d="M 403.25956 1437.5927 C 392.14356 1437.5927 383.25956 1428.7087 383.25956 1417.5927 C 383.25956 1406.4767 392.14356 1397.5927 403.25956 1397.5927 C 414.37556 1397.5927 423.25956 1406.4767 423.25956 1417.5927 C 423.25956 1428.7087 414.37556 1437.5927 403.25956 1437.5927 M 403.25956 1395.5927 C 391.10956 1395.5927 381.25956 1405.4427 381.25956 1417.5927 C 381.25956 1429.7427 391.10956 1439.5927 403.25956 1439.5927 C 415.40956 1439.5927 425.25956 1429.7427 425.25956 1417.5927 C 425.25956 1405.4427 415.40956 1395.5927 403.25956 1395.5927" fill="#0f6df0"/><path d="M 404.25976 1406.5929 L 402.25976 1406.5929 L 402.25976 1416.5929 L 392.25976 1416.5929 L 392.25976 1418.5929 L 402.25976 1418.5929 L 402.25976 1428.5929 L 404.25976 1428.5929 L 404.25976 1418.5929 L 414.25976 1418.5929 L 414.25976 1416.5929 L 404.25976 1416.5929 Z" fill="#0f6df0"/></g></g></svg>
