<?xml version="1.0" encoding="utf-8"?>
<!-- Generator: Adobe Illustrator 16.0.0, SVG Export Plug-In . SVG Version: 6.00 Build 0)  -->
<!DOCTYPE svg PUBLIC "-//W3C//DTD SVG 1.1//EN" "http://www.w3.org/Graphics/SVG/1.1/DTD/svg11.dtd">
<svg version="1.1" id="Layer_1" xmlns:xl="http://www.w3.org/1999/xlink"
	 xmlns="http://www.w3.org/2000/svg" xmlns:xlink="http://www.w3.org/1999/xlink" x="0px" y="0px" width="41px" height="61px"
	 viewBox="0 0 41 61" enable-background="new 0 0 41 61" xml:space="preserve">
<title>Canvas 4</title>
<title>Layer 1</title>
<path fill="#0B67F5" stroke="#0B67F5" stroke-width="2" stroke-miterlimit="10" d="M19.994,1.177c-11.045,0-20,8.957-20,20.001
	c0,3.646,0.98,7.057,2.687,10.002l17.313,30l17.312-30c1.705-2.945,2.688-6.354,2.688-10.002
	C39.994,10.134,31.039,1.177,19.994,1.177z M35.574,30.179l-15.58,26.999L4.41,30.177c-1.58-2.732-2.416-5.843-2.416-8.999
	c0-9.926,8.074-18.001,18-18.001c9.926,0,18,8.075,18,18.001C37.994,24.334,37.158,27.445,35.574,30.179z"/>
<path fill="none" d="M14.914,29.908c-1.636-1.027-3.049-2.693-3.86-4.545c-0.603-0.383-1.114-0.959-1.429-1.766
	C9.351,22.896,9.147,22.179,9,21.46V31h8.354C16.528,30.757,15.709,30.407,14.914,29.908z"/>
<path fill="none" d="M11.023,13H9v3.899C9.327,15.458,9.984,14.118,11.023,13z"/>
<path fill="none" d="M27.718,13c3.278,3.278,4.409,8.969,1.769,12.919c-1.653,2.474-4.104,4.318-6.802,5.081H32V13H27.718z"/>
</svg>
