<?xml version="1.0" encoding="utf-8"?>
<!-- Generator: Adobe Illustrator 16.0.0, SVG Export Plug-In . SVG Version: 6.00 Build 0)  -->
<!DOCTYPE svg PUBLIC "-//W3C//DTD SVG 1.1//EN" "http://www.w3.org/Graphics/SVG/1.1/DTD/svg11.dtd">
<svg version="1.1" id="Capa_1" xmlns="http://www.w3.org/2000/svg" xmlns:xlink="http://www.w3.org/1999/xlink" x="0px" y="0px"
	 width="612px" height="612px" viewBox="0 0 612 612" enable-background="new 0 0 612 612" xml:space="preserve">
<g>
	<g>
		<rect x="27.818" y="83.455" fill="#0C6BEB" width="556.363" height="27.818"/>
		<rect x="55.636" y="27.818" fill="#0C6BEB" width="500.727" height="27.818"/>
		<path fill="#0C6BEB" d="M414.741,355.099c-2.394-3.755-7.205-4.646-10.793-2.112l-76.862,54.05
			c-1.779,1.252-4.2,0.752-5.312-1.168l-90.576-156.449c-2.17-3.783-5.647-3.811-7.678,0.083L55.581,517.696
			c-2.031,3.923-0.167,7.064,4.145,7.064h491.158c4.173,0,5.869-3.004,3.505-6.704L414.741,355.099z"/>
		<circle fill="#0C6BEB" cx="486.818" cy="236.454" r="41.727"/>
		<path fill="#0C6BEB" d="M0,142.68v437.914c0,1.976,1.752,3.588,3.922,3.588h604.184c2.142,0,3.895-1.612,3.895-3.588V142.68
			c0-1.976-1.753-3.589-3.895-3.589H3.922C1.752,139.091,0,140.704,0,142.68z M27.818,166.909h556.363v389.454H27.818V166.909z"/>
	</g>
</g>
</svg>
