<?xml version="1.0" encoding="utf-8"?>
<!-- Generator: Adobe Illustrator 16.0.0, SVG Export Plug-In . SVG Version: 6.00 Build 0)  -->
<!DOCTYPE svg PUBLIC "-//W3C//DTD SVG 1.1//EN" "http://www.w3.org/Graphics/SVG/1.1/DTD/svg11.dtd">
<svg version="1.1" id="Capa_1" xmlns="http://www.w3.org/2000/svg" xmlns:xlink="http://www.w3.org/1999/xlink" x="0px" y="0px"
	 width="960px" height="560px" viewBox="0 0 960 560" enable-background="new 0 0 960 560" xml:space="preserve">
<g>
	<path fill="#4D4D4D" d="M749.06,131.708h-19.308v-26.13c0-5.847-4.746-10.593-10.594-10.593h-92.684
		c-5.848,0-10.593,4.746-10.593,10.593v26.13h-23.757l-14.774-65.875c-1.087-4.845-5.381-8.277-10.339-8.277H392.987
		c-4.958,0-9.251,3.432-10.339,8.277l-14.774,65.875h-60.085V91.455c0-5.848-4.746-10.593-10.593-10.593h-42.373
		c-5.847,0-10.593,4.746-10.593,10.593v40.254h-33.291c-5.848,0-10.593,4.732-10.593,10.593v349.547
		c0,5.862,4.746,10.594,10.593,10.594h538.12c5.848,0,10.593-4.731,10.593-10.594V142.302
		C759.652,136.44,754.907,131.708,749.06,131.708z M637.068,116.172h71.497v15.537h-71.497V116.172z M265.417,102.048h21.187v29.661
		h-21.187V102.048z M221.532,231.271h145.579c-18.164,23.842-28.969,53.587-28.969,85.805c0,37.189,14.393,71.073,37.881,96.398
		H221.532V231.271z M480.006,196.398c66.525,0,120.664,54.138,120.664,120.677c0,66.54-54.139,120.678-120.664,120.678
		c-66.539,0-120.677-54.138-120.677-120.678C359.329,250.536,413.467,196.398,480.006,196.398z M738.466,481.256H221.532V434.66
		h179.194c22.642,15.324,49.93,24.279,79.279,24.279c29.337,0,56.625-8.955,79.266-24.279h179.194V481.256z M738.466,413.474
		H583.975c23.489-25.325,37.882-59.209,37.882-96.398c0-32.218-10.806-61.963-28.969-85.805h145.578V413.474z M738.466,210.084
		H573.043c-24.915-21.709-57.472-34.873-93.037-34.873c-35.578,0-68.121,13.164-93.05,34.873H221.532v-57.189h154.816
		c4.958,0,9.251-3.446,10.339-8.277l14.773-65.875h157.076l14.774,65.875c1.087,4.831,5.381,8.277,10.339,8.277h154.815V210.084z"/>
	<path fill="#4D4D4D" d="M549.088,101.144c-1.087-4.844-5.381-8.276-10.339-8.276h-117.5c-4.957,0-9.251,3.432-10.339,8.276
		l-8.7,38.828c-0.706,3.15,0.057,6.441,2.062,8.941c2.005,2.514,5.056,3.983,8.263,3.983h134.929c3.206,0,6.257-1.469,8.263-3.983
		c2.02-2.5,2.769-5.791,2.076-8.941L549.088,101.144z M425.77,131.708l3.969-17.655h100.522l3.969,17.655H425.77z"/>
</g>
</svg>
