<?xml version="1.0" encoding="utf-8"?>
<!-- Generator: Adobe Illustrator 16.0.0, SVG Export Plug-In . SVG Version: 6.00 Build 0)  -->
<!DOCTYPE svg PUBLIC "-//W3C//DTD SVG 1.1//EN" "http://www.w3.org/Graphics/SVG/1.1/DTD/svg11.dtd">
<svg version="1.1" id="Capa_1" xmlns="http://www.w3.org/2000/svg" xmlns:xlink="http://www.w3.org/1999/xlink" x="0px" y="0px"
	 width="612px" height="612px" viewBox="0 0 612 612" enable-background="new 0 0 612 612" xml:space="preserve">
<path fill="#E6E6E6" stroke="#E6E6E6" stroke-miterlimit="10" d="M486.818,208.636c23.045,0,41.727,18.682,41.727,41.727
	c0,23.045-18.682,41.727-41.727,41.727c-23.046,0-41.728-18.682-41.728-41.727C445.091,227.318,463.772,208.636,486.818,208.636z
	 M55.581,531.605L223.52,263.412c2.031-3.894,5.508-3.866,7.678-0.083l90.575,156.449c1.112,1.92,3.533,2.42,5.312,1.168
	l76.862-54.05c3.588-2.534,8.398-1.644,10.793,2.111l139.647,162.957c2.364,3.7,0.668,6.704-3.505,6.704H59.726
	C55.414,538.669,53.55,535.528,55.581,531.605z"/>
<rect x="27.818" y="97.364" fill="#E6E6E6" stroke="#E6E6E6" stroke-miterlimit="10" width="556.363" height="27.818"/>
<rect x="55.636" y="41.727" fill="#E6E6E6" stroke="#E6E6E6" stroke-miterlimit="10" width="500.727" height="27.818"/>
<path fill="#E6E6E6" stroke="#E6E6E6" stroke-miterlimit="10" d="M59.726,538.669h491.158c4.173,0,5.869-3.004,3.505-6.704
	L414.741,369.008c-2.395-3.755-7.205-4.646-10.793-2.111l-76.862,54.05c-1.779,1.252-4.2,0.752-5.312-1.168l-90.575-156.449
	c-2.17-3.783-5.647-3.811-7.678,0.083L55.581,531.605C53.55,535.528,55.414,538.669,59.726,538.669z"/>
<circle fill="#E6E6E6" stroke="#E6E6E6" stroke-miterlimit="10" cx="486.818" cy="250.363" r="41.727"/>
<path fill="#E6E6E6" stroke="#E6E6E6" stroke-miterlimit="10" d="M608.106,153H3.922C1.752,153,0,154.613,0,156.589v437.914
	c0,1.977,1.752,3.588,3.922,3.588h604.185c2.142,0,3.895-1.611,3.895-3.588V156.589C612.001,154.613,610.248,153,608.106,153z
	 M584.181,570.272H27.818V180.818h556.363V570.272z"/>
</svg>
