<?xml version="1.0"?>
<!DOCTYPE svg PUBLIC "-//W3C//DTD SVG 1.1//EN" "http://www.w3.org/Graphics/SVG/1.1/DTD/svg11.dtd">
<svg xmlns="http://www.w3.org/2000/svg" xmlns:xl="http://www.w3.org/1999/xlink" version="1.1" viewBox="288 1503 66 66" width="66pt" height="66pt"><metadata xmlns:dc="http://purl.org/dc/elements/1.1/"><dc:date>2017-01-19 22:18Z</dc:date><!-- Produced by OmniGraffle Professional 5.4.2 --></metadata><defs></defs><g stroke="none" stroke-opacity="1" stroke-dasharray="none" fill="none" fill-opacity="1"><title>Canvas 4</title><g><title>Layer 1</title><circle cx="320.50001" cy="1535.5" r="32.500053" fill="#e6e6e6"/><path d="M 321.11446 1531.91405 L 324.50046 1528.52805 L 324.50046 1542.47105 L 321.11446 1539.08605 L 320.52846 1538.50005 L 319.70046 1538.50005 L 313.50046 1538.50005 L 313.50046 1532.50005 L 319.70046 1532.50005 L 320.52846 1532.50005 Z M 311.50046 1530.50005 L 311.50046 1540.50005 L 319.70046 1540.50005 L 326.50046 1547.29905 L 326.50046 1523.70005 L 319.70046 1530.50005 Z" fill="#0b67f5"/><path d="M 340.55286 1520.56935 L 338.94086 1521.76935 C 341.80286 1525.60435 343.49986 1530.35735 343.49986 1535.50035 C 343.49986 1540.64235 341.80286 1545.39535 338.94086 1549.22935 L 340.55286 1550.42935 C 343.65986 1546.26335 345.49986 1541.09635 345.49986 1535.50035 C 345.49986 1529.90335 343.65986 1524.73535 340.55286 1520.56935 Z" fill="#0b67f5"/><path d="M 335.71596 1546.82905 C 338.07996 1543.66105 339.49896 1539.74805 339.49896 1535.50005 C 339.49896 1531.25205 338.07996 1527.33905 335.71596 1524.17105 L 334.11396 1525.36305 C 336.22996 1528.19705 337.49896 1531.69905 337.49896 1535.50005 C 337.49896 1539.30105 336.23096 1542.80205 334.11396 1545.63705 Z" fill="#0b67f5"/><path d="M 330.91126 1543.25195 C 332.52926 1541.08395 333.50026 1538.40695 333.50026 1535.49995 C 333.50026 1532.59295 332.52926 1529.91495 330.91126 1527.74795 L 329.31026 1528.93995 C 330.67926 1530.77395 331.50026 1533.03995 331.50026 1535.49995 C 331.50026 1537.95995 330.67926 1540.22595 329.31026 1542.05995 Z" fill="#0b67f5"/><path d="M 320.49916 1558.5 C 307.81716 1558.5 297.50016 1548.18295 297.50016 1535.49995 C 297.50016 1522.81695 307.81716 1512.49995 320.49916 1512.49995 C 326.81916 1512.49995 332.54516 1515.06895 336.70716 1519.20895 L 338.12816 1517.78795 C 333.60616 1513.28795 327.38116 1510.49995 320.49916 1510.49995 C 306.69316 1510.49995 295.50016 1521.69195 295.50016 1535.49995 C 295.50016 1549.30695 306.69316 1560.5 320.49916 1560.5 C 327.38116 1560.5 333.60616 1557.712 338.12816 1553.21195 L 336.70716 1551.78995 C 332.54516 1555.931 326.81916 1558.5 320.49916 1558.5 Z" fill="#0b67f5"/></g></g></svg>
