<?xml version="1.0" encoding="utf-8"?>
<!-- Generator: Adobe Illustrator 16.0.0, SVG Export Plug-In . SVG Version: 6.00 Build 0)  -->
<!DOCTYPE svg PUBLIC "-//W3C//DTD SVG 1.1//EN" "http://www.w3.org/Graphics/SVG/1.1/DTD/svg11.dtd">
<svg version="1.1" id="Layer_1" xmlns:xl="http://www.w3.org/1999/xlink"
	 xmlns="http://www.w3.org/2000/svg" xmlns:xlink="http://www.w3.org/1999/xlink" x="0px" y="0px" width="61px" height="37px"
	 viewBox="0 0 61 37" enable-background="new 0 0 61 37" xml:space="preserve">
<g>
	<title>Canvas 4</title>
	<g>
		<title>Layer 1</title>
		<path fill="#0B67F5" stroke="#0B67F5" stroke-width="2" stroke-miterlimit="10" d="M28.991,31.193
			c-9.8,0-15.715-6.078-22.463-13.197c8.03-8.374,14.414-13.19,22.463-13.19c9.528,0,16.975,6.871,22.517,13.289
			C46.058,23.776,38.68,31.193,28.991,31.193 M28.991,3.158c-9.043,0-16.093,5.661-24.737,14.837
			c7.449,7.846,13.699,14.848,24.737,14.848s19.151-8.864,24.737-14.682C48.01,11.344,39.896,3.158,28.991,3.158"/>
		<path fill="#0B67F5" stroke="#0B67F5" stroke-width="2" stroke-miterlimit="10" d="M28.991,26.246
			c-4.547,0-8.246-3.699-8.246-8.245c0-4.547,3.698-8.245,8.246-8.245c4.547,0,8.246,3.698,8.246,8.245
			C37.237,22.547,33.538,26.246,28.991,26.246 M28.991,8.106c-5.457,0-9.895,4.439-9.895,9.895c0,5.454,4.438,9.894,9.895,9.894
			c5.456,0,9.895-4.439,9.895-9.894C38.886,12.545,34.447,8.106,28.991,8.106"/>
		<path fill="#0B67F5" stroke="#0B67F5" stroke-width="2" stroke-miterlimit="10" d="M28.991,22.124
			c-2.274,0-4.123-1.85-4.123-4.123c0-2.274,1.849-4.123,4.123-4.123c2.272,0,4.123,1.849,4.123,4.123
			C33.114,20.274,31.264,22.124,28.991,22.124 M28.991,12.229c-3.182,0-5.772,2.59-5.772,5.772c0,3.182,2.59,5.771,5.772,5.771
			c3.182,0,5.772-2.59,5.772-5.771C34.764,14.818,32.173,12.229,28.991,12.229"/>
	</g>
</g>
</svg>
