<?xml version="1.0" encoding="utf-8"?>
<!-- Generator: Adobe Illustrator 16.0.0, SVG Export Plug-In . SVG Version: 6.00 Build 0)  -->
<!DOCTYPE svg PUBLIC "-//W3C//DTD SVG 1.1//EN" "http://www.w3.org/Graphics/SVG/1.1/DTD/svg11.dtd">
<svg version="1.1" id="Layer_1" xmlns="http://www.w3.org/2000/svg" xmlns:xlink="http://www.w3.org/1999/xlink" x="0px" y="0px"
	 width="960px" height="560px" viewBox="0 0 960 560" enable-background="new 0 0 960 560" xml:space="preserve">
<g>
	<g>
		<g>
			<path fill="#0C6BEB" d="M404.484,448.858c-1.773-1.764-2.734-4.106-2.734-6.599c0-2.491,0.961-4.834,2.734-6.599l82.917-82.927
				c3.649-3.64,3.649-9.549,0-13.197c-3.64-3.64-9.549-3.64-13.197,0l-82.917,82.927c-5.292,5.292-8.204,12.32-8.204,19.796
				c0,7.486,2.911,14.514,8.204,19.796c5.46,5.46,12.618,8.194,19.796,8.194c7.168,0,14.336-2.734,19.796-8.194l82.824-82.824
				c3.64-3.64,3.64-9.548,0-13.197c-3.65-3.64-9.558-3.64-13.197,0l-82.824,82.824C414.031,452.499,408.124,452.499,404.484,448.858
				z"/>
			<path fill="#0C6BEB" d="M593.839,323.559c-2.222,4.648-0.252,10.22,4.396,12.441c4.75,2.269,9.1,5.339,12.908,9.137
				l79.193,79.203c8.81,8.82,13.673,20.533,13.673,33.003c0,12.46-4.863,24.173-13.673,32.993
				c-8.82,8.81-20.543,13.664-32.993,13.664c-12.46,0-24.183-4.853-33.003-13.664l-79.184-79.175
				c-2.185-2.202-6.823-8.587-9.193-12.413c-2.716-4.377-8.475-5.729-12.852-3.005c-4.387,2.716-5.73,8.474-3.015,12.852
				c1.997,3.22,7.747,11.639,11.845,15.745l79.202,79.193c12.339,12.339,28.737,19.133,46.2,19.133
				c17.453,0,33.852-6.794,46.19-19.133s19.133-28.747,19.133-46.19c0-17.453-6.794-33.861-19.133-46.2l-79.203-79.221
				c-5.319-5.292-11.396-9.595-18.05-12.769C601.623,316.923,596.05,318.901,593.839,323.559z"/>
			<path fill="#0C6BEB" d="M345.087,234.164c-2.156,4.676-0.103,10.22,4.583,12.376c1.26,0.579,2.585,0.85,3.892,0.85
				c3.537,0,6.916-2.007,8.484-5.431c3.958-8.606,5.964-17.78,5.964-27.291V102.676c0-36.027-29.315-65.333-65.333-65.333
				c-36.027,0-65.343,29.307-65.343,65.333v111.99c0,9.38,1.95,18.424,5.787,26.898c2.119,4.694,7.634,6.786,12.349,4.657
				c4.694-2.128,6.775-7.653,4.657-12.357c-2.734-6.03-4.126-12.497-4.126-19.198v-111.99c0-25.731,20.944-46.667,46.676-46.667
				c25.723,0,46.667,20.935,46.667,46.667v111.99C349.343,221.47,347.906,228.023,345.087,234.164z"/>
			<path fill="#0C6BEB" d="M566.922,314.422c2.39,0,4.778-0.915,6.598-2.734l25.742-25.742c3.64-3.64,3.64-9.548,0-13.197
				c-3.649-3.64-9.558-3.64-13.197,0l-25.741,25.742c-3.649,3.649-3.649,9.548,0,13.197
				C562.143,313.507,564.531,314.422,566.922,314.422z"/>
			<path fill="#0C6BEB" d="M526.676,298.676c5.151,0,9.324-4.182,9.324-9.343v-37.324c0-5.162-4.172-9.333-9.324-9.333
				c-5.161,0-9.333,4.171-9.333,9.333v37.324C517.343,294.494,521.515,298.676,526.676,298.676z"/>
			<path fill="#0C6BEB" d="M535.953,375.546l82.917,82.927c5.46,5.46,12.629,8.186,19.796,8.186c7.177,0,14.346-2.726,19.806-8.186
				c10.92-10.92,10.92-28.682,0-39.602l-82.824-82.824c-3.65-3.64-9.558-3.64-13.197,0c-3.649,3.65-3.649,9.558,0,13.197
				l82.824,82.824c3.63,3.648,3.63,9.567,0,13.207c-3.648,3.63-9.558,3.63-13.207,0l-82.917-82.927c-3.65-3.65-9.558-3.65-13.197,0
				C532.305,365.988,532.305,371.896,535.953,375.546z"/>
			<path fill="#0C6BEB" d="M479.384,311.248c1.82,1.82,4.21,2.734,6.599,2.734c2.391,0,4.779-0.914,6.599-2.734
				c3.65-3.64,3.65-9.548,0-13.197l-25.303-25.302c-3.64-3.65-9.548-3.65-13.197,0c-3.64,3.64-3.64,9.548,0,13.197L479.384,311.248z
				"/>
			<path fill="#0C6BEB" d="M274.676,214.667v242.676c0,15.438,12.553,27.99,28,27.99c15.437,0,28-12.553,28-27.99V214.667
				c0-15.437-12.563-28-28-28C287.23,186.667,274.676,199.23,274.676,214.667z M312.01,214.667v242.676
				c0,5.143-4.19,9.324-9.333,9.324c-5.151,0-9.333-4.182-9.333-9.324V214.667c0-5.143,4.182-9.333,9.333-9.333
				C307.818,205.333,312.01,209.524,312.01,214.667z"/>
			<path fill="#0C6BEB" d="M507.981,467.012c-5.04-1.073-9.987,2.211-11.013,7.262c-7.962,38.863-42.57,67.06-82.292,67.06h-112
				c-46.321,0-84.01-37.679-84.01-83.99c0-28.392,14.196-54.666,37.977-70.271c4.312-2.828,5.507-8.614,2.679-12.927
				c-2.837-4.303-8.614-5.516-12.927-2.679C217.35,390.534,200,422.632,200,457.343C200,513.95,246.06,560,302.676,560h112
				c48.562,0,90.86-34.478,100.576-81.975C516.288,472.976,513.031,468.039,507.981,467.012z"/>
			<path fill="#0C6BEB" d="M729.929,384.738l-79.194-79.193c-7.803-7.82-16.744-14.27-26.544-19.189
				c-4.602-2.305-10.221-0.457-12.526,4.153c-2.313,4.611-0.457,10.22,4.153,12.534c8.018,4.013,15.326,9.296,21.719,15.698
				l79.193,79.193c15.866,15.867,24.603,36.96,24.603,59.407c0,22.429-8.736,43.521-24.603,59.389
				c-15.857,15.866-36.952,24.603-59.389,24.603c-22.447,0-43.54-8.736-59.407-24.603l-90.897-90.889
				c-3.648-3.65-9.548-3.65-13.197,0c-3.649,3.64-3.649,9.549,0,13.197l90.897,90.889C604.124,549.323,629.911,560,657.343,560
				c27.422,0,53.2-10.677,72.586-30.071C749.323,510.543,760,484.754,760,457.343C760,429.911,749.323,404.133,729.929,384.738z"/>
			<path fill="#0C6BEB" d="M246.284,300.486c4.303,2.838,10.108,1.644,12.927-2.659c2.837-4.312,1.643-10.099-2.66-12.937
				c-23.716-15.605-37.884-41.859-37.884-70.224V102.676c0-46.321,37.688-84,84.01-84c46.312,0,84,37.679,84,84v111.99
				c0,28.364-14.168,54.619-37.884,70.225c-4.303,2.837-5.497,8.624-2.66,12.936c1.792,2.726,4.76,4.199,7.803,4.199
				c1.754,0,3.547-0.494,5.124-1.539c28.98-19.078,46.284-51.166,46.284-85.82v-111.99C405.343,46.06,359.283,0,302.676,0
				C246.06,0,200,46.06,200,102.676v111.99C200,249.321,217.304,281.41,246.284,300.486z"/>
			<path fill="#0C6BEB" d="M255.99,425.021c-4.657-2.193-10.23-0.196-12.432,4.461c-4.125,8.746-6.226,18.126-6.226,27.86
				c0,36.018,29.316,65.324,65.343,65.324h112c36.018,0,65.324-29.307,65.324-65.324c0-5.161-4.172-9.333-9.333-9.333
				c-5.151,0-9.333,4.172-9.333,9.333c0,25.723-20.935,46.657-46.657,46.657h-112c-25.731,0-46.676-20.935-46.676-46.657
				c0-6.963,1.503-13.654,4.443-19.898C262.636,432.787,260.657,427.225,255.99,425.021z"/>
			<path fill="#0C6BEB" d="M382.392,410.676c5.151,0,9.333-4.182,9.333-9.333c0-5.161-4.182-9.333-9.333-9.333h-28.383
				c-5.162,0-9.333,4.172-9.333,9.333c0,5.151,4.171,9.333,9.333,9.333H382.392z"/>
			<path fill="#0C6BEB" d="M344.676,364c0,5.161,4.171,9.333,9.333,9.333h60.667c5.151,0,9.324-4.172,9.324-9.333
				c0-5.151-4.172-9.333-9.324-9.333h-60.667C348.849,354.667,344.676,358.849,344.676,364z"/>
		</g>
	</g>
</g>
</svg>
