<?xml version="1.0"?>
<!DOCTYPE svg PUBLIC "-//W3C//DTD SVG 1.1//EN" "http://www.w3.org/Graphics/SVG/1.1/DTD/svg11.dtd">
<svg xmlns="http://www.w3.org/2000/svg" xmlns:xl="http://www.w3.org/1999/xlink" version="1.1" viewBox="288 1599 66 66" width="66pt" height="66pt"><metadata xmlns:dc="http://purl.org/dc/elements/1.1/"><dc:date>2017-01-19 22:18Z</dc:date><!-- Produced by OmniGraffle Professional 5.4.2 --></metadata><defs></defs><g stroke="none" stroke-opacity="1" stroke-dasharray="none" fill="none" fill-opacity="1"><title>Canvas 4</title><g><title>Layer 1</title><circle cx="320.50001" cy="1632.4999" r="32.500053" fill="#e6e6e6"/><path d="M 321.11445 1629.5069 L 324.50045 1626.1209 L 324.50045 1640.0639 L 321.11445 1636.6789 L 320.52845 1636.0929 L 319.70045 1636.0929 L 313.50045 1636.0929 L 313.50045 1630.0929 L 319.70045 1630.0929 L 320.52845 1630.0929 Z M 311.50045 1628.0929 L 311.50045 1638.0929 L 319.70045 1638.0929 L 326.50045 1644.8919 L 326.50045 1621.2929 L 319.70045 1628.0929 Z" fill="#0b67f5"/><path d="M 320.50015 1656.0928 C 307.81715 1656.0928 297.50015 1645.7748 297.50015 1633.0928 C 297.50015 1620.4108 307.81715 1610.0928 320.50015 1610.0928 C 333.18315 1610.0928 343.50015 1620.4108 343.50015 1633.0928 C 343.50015 1645.7748 333.18315 1656.0928 320.50015 1656.0928 M 320.50015 1608.0928 C 306.69315 1608.0928 295.50015 1619.2858 295.50015 1633.0928 C 295.50015 1646.8998 306.69315 1658.0928 320.50015 1658.0928 C 334.30715 1658.0928 345.50015 1646.8998 345.50015 1633.0928 C 345.50015 1619.2858 334.30715 1608.0928 320.50015 1608.0928" fill="#0b67f5"/></g></g></svg>
