<?xml version="1.0"?>
<!DOCTYPE svg PUBLIC "-//W3C//DTD SVG 1.1//EN" "http://www.w3.org/Graphics/SVG/1.1/DTD/svg11.dtd">
<svg xmlns="http://www.w3.org/2000/svg" xmlns:xl="http://www.w3.org/1999/xlink" version="1.1" viewBox="26 49 80 80" width="80pt" height="80pt"><metadata xmlns:dc="http://purl.org/dc/elements/1.1/"><dc:date>2016-12-18 16:11Z</dc:date><!-- Produced by OmniGraffle Professional 5.4.2 --></metadata><defs></defs><g stroke="none" stroke-opacity="1" stroke-dasharray="none" fill="none" fill-opacity="1"><title>Canvas 1</title><g><title>Layer 1</title><path d="M 66 49 C 43.92 49 26 66.92 26 89 C 26 111.08 43.92 129 66 129 C 88.08 129 106 111.08 106 89 C 106 66.92 88.08 49 66 49 Z" fill="#ccc"/><ellipse cx="51.04451" cy="98.191107" rx="11.040924" ry="11.6024475" fill="white"/><ellipse cx="51.04451" cy="98.191107" rx="11.040924" ry="11.6024475" stroke="black" stroke-linecap="round" stroke-linejoin="round" stroke-width=".5"/><ellipse cx="80.955427" cy="98.19107" rx="11.040924" ry="11.6024475" fill="white"/><ellipse cx="80.955427" cy="98.19107" rx="11.040924" ry="11.6024475" stroke="black" stroke-linecap="round" stroke-linejoin="round" stroke-width=".5"/><path d="M 65.181395 60.979492 C 58.849356 60.979492 53.71031 65.802996 53.71031 71.746242 C 53.71031 77.68949 58.849356 82.51299 65.181395 82.51299 C 71.513433 82.51299 76.65248 77.68949 76.65248 71.746242 C 76.65248 65.802996 71.513433 60.979492 65.181395 60.979492 Z" fill="white"/><path d="M 65.181395 60.979492 C 58.849356 60.979492 53.71031 65.802996 53.71031 71.746242 C 53.71031 77.68949 58.849356 82.51299 65.181395 82.51299 C 71.513433 82.51299 76.65248 77.68949 76.65248 71.746242 C 76.65248 65.802996 71.513433 60.979492 65.181395 60.979492 Z" stroke="black" stroke-linecap="round" stroke-linejoin="round" stroke-width=".25" stroke-dasharray="4,4"/><path d="M 68.46023 78.2449 C 68.10948 78.037956 67.653324 78.148183 67.441784 78.491307 C 67.23388 78.829454 66.583265 79.192845 65.6466 79.192845 C 64.7103 79.192845 64.059687 78.829454 63.851055 78.491307 C 63.639515 78.14854 63.183723 78.0376 62.832973 78.2449 C 62.482224 78.45184 62.369185 78.897723 62.580725 79.241203 C 63.106303 80.093147 64.309755 80.643924 65.6466 80.643924 C 66.983447 80.643924 68.1869 80.093147 68.712114 79.241203 C 68.923654 78.897723 68.81098 78.45184 68.46023 78.2449 Z" fill="#020302"/><path d="M 77.58251 77.495236 C 77.419105 77.71508 77.24957 77.930216 77.074154 78.140406 L 77.582513 78.140406 Z M 53.71031 78.140407 L 54.30851 78.140407 C 54.100725 77.89149 53.901188 77.635634 53.71031 77.373245 Z M 53.71031 73.142345 L 55.996007 73.142345 C 55.996007 75.22613 57.94867 76.920433 60.357786 76.920433 C 62.769793 76.920433 64.722457 75.22613 64.722457 73.142345 L 66.7315 73.142345 C 66.858713 75.1279 68.746324 76.709583 71.071594 76.709583 C 73.397587 76.709583 75.2805 75.1279 75.40916 73.142345 L 77.582513 73.142345 L 77.582513 71.151474 L 53.71031 71.151474 Z" fill="#060506"/><path d="M 65.646434 82.30932 C 59.538925 82.30932 54.587638 77.46598 54.587638 71.490933 C 54.587638 70.268128 54.795173 69.09289 55.177826 67.996627 C 61.801154 71.57892 69.491715 71.57892 76.11536 67.996627 C 76.497696 69.09289 76.70523 70.268128 76.70523 71.490933 C 76.70523 77.46598 71.753944 82.30932 65.646434 82.30932 M 77.533147 74.80118 C 77.83857 73.749065 78.002564 72.63881 78.002564 71.490933 C 78.002564 64.815095 72.470623 59.403725 65.646434 59.403725 C 58.822245 59.403725 53.290305 64.815095 53.290305 71.490933 C 53.290305 72.63881 53.45398 73.749065 53.759722 74.80118 C 53.032872 77.138905 51.65386 79.262724 49.755532 80.908054 C 52.91973 82.60655 56.510755 82.96254 59.795722 82.139565 C 61.537365 83.057057 63.529766 83.57814 65.646434 83.57814 C 67.763102 83.57814 69.755504 83.057057 71.497147 82.139565 C 74.782114 82.96254 78.37314 82.60655 81.537336 80.908054 C 79.63869 79.262724 78.259997 77.138905 77.533147 74.80118" fill="#020302"/><path d="M 83.01463 106.47443 C 80.47158 107.734065 78.9501 106.509013 78.9336 106.49595 C 78.846922 106.42524 78.726985 106.451885 78.665706 106.557175 C 78.60495 106.662465 78.629306 106.80439 78.715986 106.8774 C 78.758933 106.91634 79.491653 107.512726 80.785567 107.512726 C 81.43737 107.512726 82.23582 107.35902 83.159705 106.90558 C 83.257384 106.852807 83.30583 106.71959 83.26393 106.60252 C 83.22334 106.48314 83.11126 106.42396 83.01463 106.47443 M 80.956046 109.12999 C 76.137587 109.12999 72.066512 105.57831 70.738294 100.69706 L 73.929737 100.69706 C 73.929737 102.403474 75.344636 103.790944 77.09028 103.790944 C 78.83802 103.790944 80.252917 102.403474 80.252917 100.69706 L 81.70867 100.69706 C 81.800847 102.323034 83.16861 103.61828 84.8535 103.61828 C 86.53891 103.61828 87.90327 102.323034 87.996496 100.69706 L 91.17118 100.69706 C 89.84322 105.57831 85.773196 109.12999 80.956046 109.12999 M 73.962733 97.24427 L 78.798214 93.725636 L 76.86402 97.27552 C 86.444376 99.22377 91.630504 97.24529 91.630504 97.24529 C 91.630504 97.86448 91.58782 98.473674 91.50664 99.06673 L 70.404406 99.06673 C 70.324273 98.47265 70.27923 97.86448 70.27923 97.24529 Z M 80.956046 85.382113 C 74.141592 85.382113 68.59958 89.659036 68.59958 97.24427 C 68.59958 104.828217 74.141592 111.0001 80.956046 111.0001 C 87.77024 111.0001 93.311204 104.828217 93.311204 97.24427 C 93.311204 89.659036 87.77024 85.382113 80.956046 85.382113" fill="black"/><path d="M 53.10384 106.47443 C 50.560794 107.73407 49.039313 106.509016 49.022815 106.49595 C 48.936135 106.425245 48.816198 106.45189 48.75492 106.55718 C 48.694165 106.66247 48.71852 106.80439 48.8052 106.8774 C 48.848146 106.91634 49.580866 107.51273 50.87478 107.51273 C 51.52658 107.51273 52.32503 107.35902 53.248918 106.90558 C 53.346597 106.85281 53.395043 106.719596 53.353144 106.60252 C 53.312553 106.48314 53.200472 106.423964 53.10384 106.47443 M 51.04526 109.12999 C 46.2268 109.12999 42.155725 105.578314 40.827507 100.69706 L 44.01895 100.69706 C 44.01895 102.403477 45.43385 103.79095 47.179493 103.79095 C 48.927232 103.79095 50.34213 102.403477 50.34213 100.69706 L 51.79788 100.69706 C 51.89006 102.323036 53.257822 103.61828 54.94271 103.61828 C 56.628125 103.61828 57.992482 102.323036 58.08571 100.69706 L 61.260392 100.69706 C 59.932435 105.578314 55.86241 109.12999 51.04526 109.12999 M 44.051946 97.24427 L 48.887427 93.72564 L 46.953235 97.275524 C 56.53359 99.22377 61.719717 97.245294 61.719717 97.245294 C 61.719717 97.86448 61.677032 98.473677 61.59585 99.066733 L 40.49362 99.066733 C 40.413486 98.47265 40.368444 97.86448 40.368444 97.245294 Z M 51.04526 85.382116 C 44.230805 85.382116 38.688792 89.65904 38.688792 97.24427 C 38.688792 104.82822 44.230805 111.000106 51.04526 111.000106 C 57.85945 111.000106 63.400417 104.82822 63.400417 97.24427 C 63.400417 89.65904 57.85945 85.382116 51.04526 85.382116" fill="black"/><path d="M 55.78461 69.73852 L 60.005982 66.30017 L 56.874482 70.753923 Z" fill="white"/></g></g></svg>
