<?xml version="1.0" encoding="utf-8"?>
<!-- Generator: Adobe Illustrator 21.0.2, SVG Export Plug-In . SVG Version: 6.00 Build 0)  -->
<svg version="1.1" id="Layer_1" xmlns="http://www.w3.org/2000/svg" xmlns:xlink="http://www.w3.org/1999/xlink" x="0px" y="0px"
	 viewBox="0 0 198 197" style="enable-background:new 0 0 198 197;" xml:space="preserve">
<style type="text/css">
	.st0{fill:none;stroke:#1822CD;stroke-miterlimit:10;}
	.st1{fill:#1822CD;}
	.st2{fill:#E6E6E6;}
	.st3{opacity:0.6;enable-background:new    ;}
	.st4{fill:#E6E6E6;stroke:#000000;stroke-width:3;stroke-miterlimit:10;}
	.st5{fill:#E6E6E6;stroke:#000000;stroke-width:2;stroke-miterlimit:10;}
	.st6{opacity:0.6;fill:#E6E6E6;stroke:#000000;stroke-width:3;stroke-miterlimit:10;}
	.st7{opacity:0.6;fill:#E6E6E6;enable-background:new    ;}
	.st8{fill:#FF7B78;}
	.st9{enable-background:new    ;}
	.st10{font-family:'MyriadPro-Regular';}
	.st11{font-size:12px;}
</style>
<title>Slice 1</title>
<desc>Created with Sketch.</desc>
<path id="Shape" class="st0" d="M99,194.9L99,194.9c-53.3,0-96.6-43.4-96.6-96.6C2.4,45,45.7,1.7,99,1.7s96.6,43.4,96.6,96.6
	C195.6,151.6,152.3,194.9,99,194.9L99,194.9z"/>
<g>
	<path class="st1" d="M130.8,49.9H69.5c-4.9,0-9,4.9-9,11.1v69.5c0,6.1,4.1,11.1,9,11.1h61.3c4.9,0,9-4.9,9-11.1V61
		C139.6,54.8,135.7,49.9,130.8,49.9z M111.7,66.4c4.8,0,8.7,4.8,8.7,10.7c0,6-3.9,10.7-8.7,10.7c-4.8,0-8.7-4.8-8.7-10.7
		C103,71.2,106.9,66.4,111.7,66.4z M127.9,131.3h-27.8H73.6c-2.4,0-3.4-2.2-2.4-4.8L86,90.3c1-2.6,3.1-2.9,4.6-0.5l15,24
		c1.5,2.4,3.9,2.6,5.6,0.5l3.6-4.6c1.7-2,4.1-1.9,5.4,0.5l9.5,16.7C131.1,129.2,130.3,131.3,127.9,131.3z"/>
</g>
<g>
	<path class="st1" d="M157.5,144.7c0.2-1.2-0.7-2.2-1.7-2.6s-2,0.3-2,1.5c-0.9,11.1-10.4,17.7-21.1,14.8c-1-0.3-2,0.3-2,1.5
		c0,0.5,0,1,0.5,1.5c0.2,0.3,0.9,0.9,1.2,1C145.1,166,156.3,158.2,157.5,144.7z"/>
	<path class="st1" d="M148.5,140.8c0.2-1.2-0.7-2.2-1.7-2.6c-1-0.3-2,0.3-2,1.5c-0.2,3.2-1.7,6-4.1,7.7s-5.4,2.2-8.7,1.4
		c-1-0.3-2,0.3-2,1.5c0,0.5,0,1,0.5,1.5c0.3,0.5,0.9,1,1.5,1.2c4.3,1,8.2,0.3,11.4-1.9C146.3,148.7,148.2,145.2,148.5,140.8z"/>
</g>
<g>
	<path class="st1" d="M39.2,57.6c0.2,1.2,1.2,1.9,2.4,1.9c1.2,0,1.9-0.9,1.5-2c-2.2-10.9,5.1-19.8,16.2-20.1c1.2,0,1.9-0.9,1.5-2
		c-0.2-0.5-0.3-1-0.9-1.4c-0.3-0.3-1-0.5-1.4-0.7C45.1,33.7,36.5,44.4,39.2,57.6z"/>
	<path class="st1" d="M48.9,58.9c0.2,1.2,1.2,1.9,2.4,1.9c1.2,0,1.9-0.9,1.5-2c-0.9-3.2-0.2-6.1,1.7-8.3c1.9-2.2,4.6-3.6,8-3.6
		c1.2,0,1.9-0.9,1.5-2c-0.2-0.5-0.3-1-0.9-1.4c-0.5-0.3-1.2-0.7-1.7-0.7c-4.4,0.2-8,2-10.4,4.9C48.9,50.7,48,54.7,48.9,58.9z"/>
</g>
<path d="M288.9,179.3c0.6,0.6,1.4,0.9,2.2,0.9c0.8,0,1.6-0.3,2.2-0.9l11.8-11.8c1.2-1.2,1.2-3.2,0-4.4c-1.2-1.2-3.2-1.2-4.4,0
	l-6.6,6.6v-25.9c0-1.7-1.4-3.1-3.1-3.1c-1.7,0-3.1,1.4-3.1,3.1v25.9l-6.6-6.6c-1.2-1.2-3.2-1.2-4.4,0c-1.2,1.2-1.2,3.2,0,4.4
	L288.9,179.3z"/>
<path d="M233.1,198.8h126.2c4.4,0,8-1.7,8-3.9s-3.6-3.9-8-3.9H233.1c-4.4,0-8,1.7-8,3.9S228.7,198.8,233.1,198.8z"/>
<g>
	<path class="st1" d="M291.1,58.9H262c-2.3,0-4.3,2.3-4.3,5.2v32.8c0,2.9,1.9,5.2,4.3,5.2h29.1c2.3,0,4.3-2.3,4.3-5.2V64.1
		C295.4,61.2,293.5,58.9,291.1,58.9z M282.1,66.7c2.3,0,4.1,2.3,4.1,5.1c0,2.8-1.9,5.1-4.1,5.1c-2.3,0-4.1-2.3-4.1-5.1
		C278,68.9,279.8,66.7,282.1,66.7z M289.8,97.3h-13.2H264c-1.1,0-1.6-1-1.1-2.3l7-17.1c0.5-1.2,1.5-1.4,2.2-0.2l7.1,11.3
		c0.7,1.1,1.9,1.2,2.7,0.2l1.7-2.2c0.8-1,1.9-0.9,2.6,0.2l4.5,7.9C291.3,96.3,290.9,97.3,289.8,97.3z"/>
</g>
<g>
	<path class="st1" d="M303.8,103.7c0.1-0.6-0.3-1-0.8-1.2c-0.5-0.2-1,0.2-1,0.7c-0.4,5.2-4.9,8.4-10,7c-0.5-0.2-1,0.2-1,0.7
		c0,0.2,0,0.5,0.2,0.7c0.1,0.2,0.4,0.4,0.6,0.5C297.9,113.7,303.3,110,303.8,103.7z"/>
	<path class="st1" d="M299.6,101.8c0.1-0.6-0.3-1-0.8-1.2s-1,0.2-1,0.7c-0.1,1.5-0.8,2.8-1.9,3.6c-1.1,0.8-2.6,1-4.1,0.6
		c-0.5-0.2-1,0.2-1,0.7c0,0.2,0,0.5,0.2,0.7c0.2,0.2,0.4,0.5,0.7,0.6c2,0.5,3.9,0.2,5.4-0.9C298.5,105.5,299.4,103.9,299.6,101.8z"
		/>
</g>
<g>
	<path class="st1" d="M247.6,62.5c0.1,0.6,0.6,0.9,1.1,0.9c0.6,0,0.9-0.4,0.7-1c-1.1-5.1,2.4-9.3,7.7-9.5c0.6,0,0.9-0.4,0.7-1
		c-0.1-0.2-0.2-0.5-0.4-0.6c-0.2-0.2-0.5-0.2-0.6-0.3C250.5,51.2,246.3,56.3,247.6,62.5z"/>
	<path class="st1" d="M252.2,63.1c0.1,0.6,0.6,0.9,1.1,0.9c0.6,0,0.9-0.4,0.7-1c-0.4-1.5-0.1-2.9,0.8-3.9c0.9-1,2.2-1.7,3.8-1.7
		c0.6,0,0.9-0.4,0.7-1c-0.1-0.2-0.2-0.5-0.4-0.6c-0.2-0.2-0.6-0.3-0.8-0.3c-2.1,0.1-3.8,1-4.9,2.3C252.2,59.3,251.8,61.1,252.2,63.1
		z"/>
</g>
<g>
	<title>Canvas 1</title>
	<g>
		<title>Layer 1</title>
		<path class="st2" d="M277.8,122.1c-23.3,0-42.2-18.8-42.2-41.9c0-23.2,18.9-41.9,42.2-41.9c23.3,0,42.2,18.8,42.2,41.9
			C320,103.3,301.1,122.1,277.8,122.1 M316.4,112.6c7.5-8.8,12-20.1,12-32.5c0-27.8-22.7-50.3-50.7-50.3c-28,0-50.7,22.5-50.7,50.3
			c0,27.8,22.7,50.3,50.7,50.3c12.5,0,23.9-4.5,32.7-11.9l37.4,37.1l5.9-5.9L316.4,112.6z"/>
	</g>
</g>
<text transform="matrix(1 0 0 1 247 218)" class="st10 st11">Save Search</text>
<path d="M379.2,202.2h126.2c4.4,0,8-1.7,8-3.9c0-2.1-3.6-3.9-8-3.9H379.2c-4.4,0-8,1.7-8,3.9C371.2,200.5,374.8,202.2,379.2,202.2z"
	/>
<g>
	<path class="st1" d="M442,82.1h-29.1c-2.3,0-4.3,2.3-4.3,5.2v32.8c0,2.9,1.9,5.2,4.3,5.2H442c2.3,0,4.3-2.3,4.3-5.2V87.3
		C446.2,84.4,444.3,82.1,442,82.1z M432.9,89.9c2.3,0,4.1,2.3,4.1,5.1c0,2.8-1.9,5.1-4.1,5.1c-2.3,0-4.1-2.3-4.1-5.1
		C428.8,92.2,430.6,89.9,432.9,89.9z M440.6,120.5h-13.2h-12.6c-1.1,0-1.6-1-1.1-2.3l7-17.1c0.5-1.2,1.5-1.4,2.2-0.2l7.1,11.3
		c0.7,1.1,1.9,1.2,2.7,0.2l1.7-2.2c0.8-1,1.9-0.9,2.6,0.2l4.5,7.9C442.1,119.6,441.7,120.5,440.6,120.5z"/>
</g>
<g>
	<path class="st1" d="M454.7,126.9c0.1-0.6-0.3-1-0.8-1.2s-1,0.2-1,0.7c-0.4,5.2-4.9,8.4-10,7c-0.5-0.2-1,0.2-1,0.7
		c0,0.2,0,0.5,0.2,0.7c0.1,0.2,0.4,0.4,0.6,0.5C448.8,136.9,454.1,133.2,454.7,126.9z"/>
	<path class="st1" d="M450.4,125c0.1-0.6-0.3-1-0.8-1.2c-0.5-0.2-1,0.2-1,0.7c-0.1,1.5-0.8,2.8-1.9,3.6c-1.1,0.8-2.6,1-4.1,0.6
		c-0.5-0.2-1,0.2-1,0.7c0,0.2,0,0.5,0.2,0.7c0.2,0.2,0.4,0.5,0.7,0.6c2,0.5,3.9,0.2,5.4-0.9C449.3,128.7,450.2,127.1,450.4,125z"/>
</g>
<g>
	<path class="st1" d="M398.4,85.7c0.1,0.6,0.6,0.9,1.1,0.9s0.9-0.4,0.7-1c-1.1-5.1,2.4-9.3,7.7-9.5c0.6,0,0.9-0.4,0.7-1
		c-0.1-0.2-0.2-0.5-0.4-0.6c-0.2-0.2-0.5-0.2-0.6-0.3C401.3,74.5,397.2,79.5,398.4,85.7z"/>
	<path class="st1" d="M403.1,86.4c0.1,0.6,0.6,0.9,1.1,0.9s0.9-0.4,0.7-1c-0.4-1.5-0.1-2.9,0.8-3.9c0.9-1,2.2-1.7,3.8-1.7
		c0.6,0,0.9-0.4,0.7-1c-0.1-0.2-0.2-0.5-0.4-0.6c-0.2-0.2-0.6-0.3-0.8-0.3c-2.1,0.1-3.8,1-4.9,2.3C403.1,82.5,402.7,84.4,403.1,86.4
		z"/>
</g>
<g>
	<title>Canvas 1</title>
	<g>
		<title>Layer 1</title>
		<path class="st2" d="M428.6,145.3c-23.3,0-42.2-18.8-42.2-41.9c0-23.2,18.9-41.9,42.2-41.9c23.3,0,42.2,18.8,42.2,41.9
			C470.8,126.5,451.9,145.3,428.6,145.3 M467.2,135.9c7.5-8.8,12-20.1,12-32.5c0-27.8-22.7-50.3-50.7-50.3
			c-28,0-50.7,22.5-50.7,50.3c0,27.8,22.7,50.3,50.7,50.3c12.5,0,23.9-4.5,32.7-11.9l37.4,37.1l5.9-5.9L467.2,135.9z"/>
	</g>
</g>
<g>
	<text transform="matrix(1 0 0 1 392.125 221.444)" style="font-family:'LeagueSpartan-Bold'; font-size:15px;">Search</text>
</g>
<path d="M544.5,184h126.2c4.4,0,8-1.7,8-3.9c0-2.1-3.6-3.9-8-3.9H544.5c-4.4,0-8,1.7-8,3.9C536.6,182.3,540.1,184,544.5,184z"/>
<g class="st3">
	<path class="st4" d="M589.3,67.7h-38.6c-3.1,0-5.7,3.5-5.7,7.9v49.5c0,4.4,2.6,7.9,5.7,7.9h38.6c3.1,0,5.7-3.5,5.7-7.9V75.6
		C594.8,71.2,592.4,67.7,589.3,67.7z M577.3,79.5c3,0,5.5,3.4,5.5,7.6s-2.5,7.6-5.5,7.6c-3,0-5.5-3.4-5.5-7.6S574.3,79.5,577.3,79.5
		z M587.5,125.7H570h-16.7c-1.5,0-2.1-1.6-1.5-3.4l9.3-25.8c0.6-1.8,1.9-2.1,2.9-0.4l9.4,17.1c1,1.7,2.5,1.8,3.5,0.4l2.2-3.3
		c1.1-1.5,2.6-1.3,3.4,0.4l6,11.9C589.5,124.2,589,125.7,587.5,125.7z"/>
</g>
<g class="st3">
	<path class="st5" d="M616.5,139.5c0.2-1.3-0.7-2.5-1.7-2.9c-1-0.4-2,0.4-2,1.7c-0.8,12.4-10.2,19.8-20.8,16.6c-1-0.4-2,0.4-2,1.7
		c0,0.6,0,1.1,0.5,1.7c0.2,0.4,0.8,1,1.2,1.1C604.2,163.3,615.3,154.6,616.5,139.5z"/>
	<path class="st5" d="M607.6,135.1c0.2-1.3-0.7-2.5-1.7-2.9c-1-0.4-2,0.4-2,1.7c-0.2,3.6-1.7,6.7-4,8.6c-2.3,1.9-5.4,2.5-8.5,1.5
		c-1-0.4-2,0.4-2,1.7c0,0.6,0,1.1,0.5,1.7c0.3,0.6,0.8,1.1,1.5,1.3c4.2,1.1,8,0.4,11.2-2.1C605.4,143.9,607.2,140.1,607.6,135.1z"/>
</g>
<g class="st3">
	<path class="st5" d="M523.8,71.6c0.2,1.3,1.1,2,2.2,2s1.7-0.9,1.4-2.2c-2-11.5,4.7-20.8,15-21.2c1.1,0,1.7-0.9,1.4-2.2
		c-0.2-0.5-0.3-1.1-0.8-1.4c-0.3-0.4-0.9-0.5-1.3-0.7C529.3,46.4,521.3,57.7,523.8,71.6z"/>
	<path class="st5" d="M532.8,73c0.2,1.3,1.1,2,2.2,2c1.1,0,1.7-0.9,1.4-2.2c-0.8-3.4-0.2-6.5,1.6-8.8c1.7-2.3,4.3-3.8,7.4-3.8
		c1.1,0,1.7-0.9,1.4-2.2c-0.2-0.5-0.3-1.1-0.8-1.4c-0.5-0.4-1.1-0.7-1.6-0.7c-4.1,0.2-7.4,2.2-9.6,5.2C532.8,64.4,532,68.5,532.8,73
		z"/>
</g>
<text transform="matrix(1 0 0 1 537.5914 204.2131)" style="font-family:'LeagueSpartan-Bold'; font-size:15px;">Add to dictionary</text>
<path class="st6" d="M634.2,41.7l-3.8,2.2c-1.9-3-4.2-5.6-6.9-7.6c-1.5-1.1-3-2.1-4.6-3c-7.5-3.9-16.1-3.9-24.3-0.3
	c-5.5,2.4-10.5,6.3-14.7,11.3c-0.1,0.2-0.3,0.4-0.4,0.6c-1,1.5-0.7,3.6,0.5,4.5l0,0l1,0.8c1,0.9,2.5,0.5,3.5-0.6
	c3.3-4,7.4-7.1,11.7-9c8.1-3.5,16.7-2.6,23.2,2.7c1.6,1.3,3.1,2.8,4.4,4.5l-3.6,2.1c-0.8,0.5-0.7,1.4,0.3,2l10.9,6.4
	c1,0.6,1.9,0,2.1-1.3l1.9-14C635.6,41.7,635,41.1,634.2,41.7z"/>
<g>
	<path class="st7" d="M670.1,75c0-2.9-2.9-5.3-6.3-5.3l0,0H628v44.5h17.8V112l24.3-2.8C670.1,109.2,670.1,75,670.1,75z"/>
	<path class="st7" d="M625.5,69.8c-3.5,0-6.3,2.6-6.3,5.7v44.4l11-1.8V69.8H625.5z"/>
	<path class="st7" d="M669.9,110h-39.5c-6.1-0.2-11.1,4.1-11.3,9.6c-0.2,5.5,4.6,10.1,10.6,10.3c0.2,0,0.5,0,0.7,0h39.5v-5.3h-39.5
		c-2.9-0.3-4.9-2.6-4.6-5.2c0.3-2.2,2.2-3.9,4.6-4.2h39.5V110z"/>
	<polygon class="st8" points="642.1,129.2 646.5,133.1 646.5,120 637.7,120 637.7,133.1 	"/>
	<path d="M670.8,129.9V75.5c0-3.7-3.4-6.8-7.5-6.8h-37.8c-4.1,0.1-7.4,3.1-7.4,6.8v3.2c-0.1,0.6,0.4,1.1,1,1.1
		c0.6,0.1,1.2-0.4,1.3-0.9c0-0.1,0-0.2,0-0.2v-3.2c0-2.6,2.3-4.7,5.2-4.7h3.5v38.3h-0.2c-3.4,0.3-6.4,1.9-8.4,4.3v0.1l-0.1,0.2V82.8
		c0.1-0.6-0.4-1.1-1-1.1c-0.6-0.1-1.2,0.4-1.3,0.9c0,0.1,0,0.2,0,0.2V120c0,6.1,5.4,11,12.1,11h6.3v2.1c0,0.6,0.5,1,1.1,1
		c0.3,0,0.6-0.1,0.8-0.3l3.6-3.2l3.7,3.2c0.5,0.4,1.2,0.4,1.6-0.1c0.2-0.2,0.3-0.4,0.3-0.7V131h10.5c0.6,0.1,1.2-0.4,1.3-0.9
		c0.1-0.6-0.4-1.1-1-1.1c-0.1,0-0.2,0-0.2,0h-10.5v-3.2h20.9v3.2h-5.9c-0.6-0.1-1.2,0.4-1.3,0.9c-0.1,0.6,0.4,1.1,1,1.1
		c0.1,0,0.2,0,0.2,0h7.1C670.4,131,670.9,130.5,670.8,129.9L670.8,129.9z M645.4,124.7v6l-2.5-2.2c-0.5-0.4-1.1-0.4-1.6,0l-2.5,2.2
		V121h6.6L645.4,124.7L645.4,124.7z M668.6,123.7h-20.9V120c0-0.6-0.5-1-1.1-1h-8.9c-0.6,0-1.1,0.5-1.1,1v3.7h-6.4
		c-2.2,0-4.1-1.7-4.1-3.7c0-2,1.8-3.7,4.1-3.7h38.4L668.6,123.7L668.6,123.7z M668.6,109h-28.4c-0.6,0.1-1.1,0.6-1,1.1
		c0.1,0.5,0.5,0.9,1,0.9h28.4v3.2h-38.5c-3.5,0.1-6.2,2.8-6.1,6c0.1,3,2.7,5.4,6.1,5.5h6.4v3.2h-6.4c-5.4,0-9.9-4-9.9-9
		c0-4.9,4.4-9,9.9-9h5.5c0.6-0.1,1.1-0.6,1-1.1c-0.1-0.5-0.5-0.9-1-0.9h-4.3V70.8h32.1c2.9,0,5.2,2.1,5.2,4.7V109L668.6,109z"/>
	<text transform="matrix(1.1063 0 0 1 635.9922 95.7676)" style="font-family:'GoboldBoldItalic-Italic'; font-size:14.1877px;">A-B</text>
</g>
<text transform="matrix(1 0 0 1 190 155)" class="st10 st11">vv</text>
</svg>
