<?xml version="1.0" encoding="utf-8"?>
<!-- Generator: Adobe Illustrator 16.0.0, SVG Export Plug-In . SVG Version: 6.00 Build 0)  -->
<!DOCTYPE svg PUBLIC "-//W3C//DTD SVG 1.1//EN" "http://www.w3.org/Graphics/SVG/1.1/DTD/svg11.dtd">
<svg version="1.1" id="Layer_1" xmlns:xl="http://www.w3.org/1999/xlink"
	 xmlns="http://www.w3.org/2000/svg" xmlns:xlink="http://www.w3.org/1999/xlink" x="0px" y="0px" width="61px" height="66px"
	 viewBox="0 0 61 66" enable-background="new 0 0 61 66" xml:space="preserve">
<g>
	<title>Canvas 4</title>
	<g>
		<title>Layer 1</title>
		<path fill="#E6E6E6" d="M3.487,14.498c0.169,3.415,0.826,11.278,3.378,19.649C11.22,48.435,18.786,57.517,29.36,61.153
			c10.598-3.645,18.174-12.758,22.523-27.098c2.533-8.355,3.184-16.16,3.352-19.558c-4.56-0.665-16.365-2.915-25.875-9.314
			C19.849,11.581,8.044,13.833,3.487,14.498 M29.36,65.332c-0.209,0-0.419-0.033-0.621-0.099
			c-6.783-2.172-12.559-6.34-17.166-12.388c-3.625-4.759-6.53-10.684-8.629-17.61C-0.6,23.556-0.64,13.15-0.64,12.713
			c0-1.048,0.795-1.925,1.838-2.025c0.158-0.016,15.957-1.636,26.967-9.632c0.713-0.518,1.678-0.517,2.392,0
			c11.005,7.996,26.807,9.616,26.966,9.633c1.043,0.102,1.838,0.979,1.838,2.024c0,0.438-0.04,10.843-3.582,22.523
			c-2.101,6.926-5.006,12.851-8.632,17.61c-4.608,6.047-10.382,10.215-17.165,12.387C29.779,65.299,29.569,65.332,29.36,65.332"/>
		<path fill="#E6E6E6" d="M27.529,45.912c-1.07-0.077-2.13-0.286-3.147-0.62c-0.645-0.212-1.343,0.114-1.594,0.744l-0.21,0.527
			c-0.131,0.328-0.12,0.696,0.028,1.017c0.149,0.321,0.424,0.565,0.76,0.677c0.693,0.23,1.408,0.415,2.127,0.549
			c0.609,0.113,1.23,0.193,1.849,0.235c0.03,0.003,0.06,0.003,0.089,0.003c0.322,0,0.633-0.121,0.871-0.34
			c0.26-0.24,0.409-0.576,0.413-0.931l0.006-0.566C28.728,46.528,28.206,45.962,27.529,45.912z"/>
		<path fill="#E6E6E6" d="M17.484,39.84c-0.356-0.578-1.102-0.778-1.7-0.456l-0.5,0.268c-0.311,0.168-0.539,0.456-0.631,0.797
			s-0.04,0.705,0.145,1.006c0.711,1.157,1.566,2.221,2.543,3.161c0.24,0.23,0.56,0.358,0.891,0.358c0.021,0,0.041-0.001,0.062-0.002
			c0.353-0.017,0.684-0.179,0.913-0.447l0.368-0.43c0.442-0.516,0.406-1.287-0.082-1.759C18.724,41.593,18.048,40.753,17.484,39.84z
			"/>
		<path fill="#E6E6E6" d="M37.727,43.716c-0.432-0.525-1.197-0.623-1.747-0.225c-0.867,0.631-1.811,1.15-2.805,1.546
			c-0.631,0.251-0.958,0.95-0.746,1.596l0.178,0.538c0.111,0.336,0.355,0.61,0.676,0.761c0.172,0.08,0.357,0.121,0.544,0.121
			c0.159,0,0.319-0.03,0.472-0.09c1.262-0.498,2.457-1.156,3.554-1.957c0.285-0.209,0.472-0.525,0.517-0.876
			s-0.058-0.703-0.281-0.977L37.727,43.716z"/>
		<path fill="#E6E6E6" d="M42.948,35.327l-0.557-0.104c-0.67-0.125-1.32,0.294-1.482,0.954c-0.26,1.053-0.65,2.066-1.162,3.014
			c-0.322,0.597-0.123,1.343,0.453,1.7l0.482,0.299c0.205,0.127,0.439,0.193,0.677,0.193c0.11,0,0.221-0.015,0.329-0.043
			c0.342-0.091,0.631-0.317,0.799-0.629c0.651-1.199,1.146-2.483,1.473-3.817c0.084-0.343,0.022-0.705-0.169-1.001
			C43.6,35.597,43.295,35.392,42.948,35.327z"/>
		<path fill="#E6E6E6" d="M42.25,31.582h0.576h0.002c0.71,0,1.284-0.575,1.284-1.284c0-0.104-0.013-0.206-0.036-0.303
			c-0.478-2.555-1.597-4.985-3.235-7.035c-2.483-3.104-6.01-5.163-9.931-5.797c-0.849-0.138-1.713-0.207-2.569-0.207
			c-2.205,0-4.393,0.461-6.404,1.341l-1-1c-0.207-0.207-0.507-0.29-0.791-0.221c-0.283,0.069-0.51,0.282-0.598,0.562l-2.07,6.605
			c-0.094,0.296-0.014,0.62,0.206,0.84s0.544,0.299,0.841,0.206l6.605-2.071c0.278-0.087,0.49-0.313,0.561-0.598
			c0.07-0.283-0.014-0.582-0.221-0.789l-1.113-1.114c1.285-0.425,2.624-0.64,3.996-0.64c3.92,0,7.58,1.764,10.041,4.84
			c1.311,1.638,2.207,3.582,2.596,5.621C41.104,31.144,41.634,31.582,42.25,31.582z"/>
	</g>
</g>
</svg>
