<?xml version="1.0" encoding="utf-8"?>
<!-- Generator: Adobe Illustrator 21.0.2, SVG Export Plug-In . SVG Version: 6.00 Build 0)  -->
<svg version="1.1" id="Layer_1" xmlns="http://www.w3.org/2000/svg" xmlns:xlink="http://www.w3.org/1999/xlink" x="0px" y="0px"
	 viewBox="0 0 198 197" style="enable-background:new 0 0 198 197;" xml:space="preserve">
<style type="text/css">
	.st0{fill:none;stroke:#1822CD;stroke-width:3;stroke-miterlimit:10;}
	.st1{fill:#1822CD;stroke:#1822CD;stroke-miterlimit:10;}
	.st2{fill:#FF3300;}
	.st3{fill:#FFFFFF;}
</style>
<title>Slice 1</title>
<desc>Created with Sketch.</desc>
<path id="Shape" class="st0" d="M98.5,187.3L98.5,187.3C49,187.3,8.7,147,8.7,97.5S49,7.7,98.5,7.7s89.8,40.3,89.8,89.8
	S148,187.3,98.5,187.3L98.5,187.3z"/>
<g>
	<g>
		<path class="st1" d="M150.9,53.6c-0.8-0.8-2.1-0.8-2.9,0c-0.8,0.8-0.8,2.1,0,2.9c10.5,10.5,16.2,24.4,16.2,39.3
			s-5.8,28.8-16.2,39.3c-0.8,0.8-0.8,2.1,0,2.9c0.4,0.4,0.9,0.6,1.5,0.6c0.5,0,1.1-0.2,1.5-0.6c11.3-11.3,17.4-26.2,17.4-42.2
			S162.1,64.9,150.9,53.6z"/>
		<path class="st1" d="M142.2,62.3c-0.8-0.8-2.1-0.8-2.9,0c-0.8,0.8-0.8,2.1,0,2.9c16.8,16.8,16.8,44.3,0,61.1
			c-0.8,0.8-0.8,2.1,0,2.9c0.4,0.4,0.9,0.6,1.5,0.6s1.1-0.2,1.5-0.6C160.6,110.8,160.6,80.8,142.2,62.3z"/>
		<path class="st1" d="M133.4,71.1c-0.8-0.8-2.1-0.8-2.9,0c-0.8,0.8-0.8,2.1,0,2.9c12,12,12,31.6,0,43.6c-0.8,0.8-0.8,2.1,0,2.9
			c0.4,0.4,0.9,0.6,1.5,0.6s1.1-0.2,1.5-0.6c6.6-6.6,10.2-15.4,10.2-24.7C143.7,86.4,140,77.7,133.4,71.1z"/>
	</g>
	<path class="st1" d="M114.6,55.3c-4.5,0-8.1,3.6-8.1,8.1V66L43.7,85.8c-0.5-3.5-3.4-6.2-7-6.2c-3.9,0-7.1,3.2-7.1,7.1v18.2
		c0,3.9,3.2,7.1,7.1,7.1c3.6,0,6.5-2.7,7-6.2l4.3,1.4c-0.6,0.7-1.2,1.5-1.5,2.5c-1.2,3.6,0.8,7.5,4.4,8.7l23.1,7.5
		c0.7,0.2,1.4,0.3,2.1,0.3c3,0,5.6-1.9,6.6-4.8c0.3-1.1,0.4-2.1,0.2-3.2l23.6,7.4v2.6c0,4.5,3.6,8.1,8.1,8.1s8.1-3.6,8.1-8.1V63.4
		C122.7,59,119.1,55.3,114.6,55.3z M39.8,87v17.5v0.3c0,1.7-1.4,3-3,3c-1.7,0-3-1.4-3-3V86.7c0-1.7,1.4-3,3-3c1.7,0,3,1.4,3,3V87z
		 M78.9,120.1c-0.5,1.4-2.1,2.3-3.6,1.8l-23.1-7.5c-1.5-0.5-2.3-2.1-1.8-3.6c0.4-1.2,1.5-2,2.7-2c0.3,0,0.6,0,0.9,0.1l23.1,7.5
		c0.7,0.2,1.3,0.7,1.6,1.4C79.1,118.7,79.2,119.4,78.9,120.1z M118.7,128.2c0,2.2-1.8,4-4,4s-4-1.8-4-4v-1.3V64.7v-1.3
		c0-2.2,1.8-4,4-4s4,1.8,4,4V128.2z"/>
</g>
<g>
	<circle class="st2" cx="100.8" cy="147.3" r="21.4"/>
	<path class="st3" d="M108.5,145.5h-5.9v-5.9c0-1.1-0.8-2-2-2c-1.1,0-2,0.8-2,2v5.9h-5.9c-1.1,0-2,0.8-2,2c0,1.1,0.8,2,2,2h5.9v5.9
		c0,1.1,0.8,2,2,2c1.1,0,2-0.8,2-2v-5.9h5.9c1.1,0,2-0.8,2-2C110.5,146.4,109.5,145.5,108.5,145.5z"/>
</g>
</svg>
