<?xml version="1.0"?>
<!DOCTYPE svg PUBLIC "-//W3C//DTD SVG 1.1//EN" "http://www.w3.org/Graphics/SVG/1.1/DTD/svg11.dtd">
<svg xmlns="http://www.w3.org/2000/svg" xmlns:xl="http://www.w3.org/1999/xlink" version="1.1" viewBox="259 1008 39 37" width="39pt" height="37pt"><metadata xmlns:dc="http://purl.org/dc/elements/1.1/"><dc:date>2017-01-20 21:57Z</dc:date><!-- Produced by OmniGraffle Professional 5.4.2 --></metadata><defs></defs><g stroke="none" stroke-opacity="1" stroke-dasharray="none" fill="none" fill-opacity="1"><title>Canvas 4</title><g><title>Layer 1</title><path d="M 280.40459 1033.9632 L 283.22195 1035.72545 C 283.42831 1035.85464 283.65275 1035.92924 283.87993 1035.953 C 284.39574 1036.0069 284.91098 1035.7827 285.25822 1035.35576 C 283.62243 1033.90403 281.79472 1032.7423 279.82985 1031.8323 C 279.45625 1032.58786 279.69374 1033.5189 280.40459 1033.9632 Z" fill="#1084f5"/><path d="M 281.28149 1029.4323 C 281.55221 1029.5573 281.81613 1029.69067 282.0801 1029.82614 C 283.4594 1030.53585 284.75623 1031.3909 286.00771 1032.3222 C 286.25423 1032.5062 286.5001 1032.69144 286.74373 1032.8807 C 286.90225 1032.51585 286.92349 1032.1204 286.82097 1031.75725 C 286.71454 1031.38226 286.48284 1031.04425 286.13396 1030.8261 L 283.31663 1029.0636 C 283.1095 1028.9343 282.88537 1028.8592 282.65845 1028.8355 C 282.50266 1028.8192 282.34766 1028.8299 282.19495 1028.86056 C 281.8424 1028.9316 281.52299 1029.1342 281.28149 1029.4323 Z" fill="#1084f5"/><path d="M 280.2348 1031.12796 C 280.98248 1031.4789 281.7108 1031.86456 282.41727 1032.28656 C 282.859 1032.5509 283.29565 1032.82457 283.71913 1033.11816 C 284.40676 1033.5947 285.068 1034.114 285.70421 1034.6706 L 286.34478 1033.5927 C 285.9763 1033.30565 285.60263 1033.0263 285.2267 1032.7513 C 284.21143 1032.0088 283.16425 1031.31754 282.06188 1030.7252 C 281.6599 1030.5095 281.24917 1030.311 280.8322 1030.1228 Z" fill="#1084f5"/><path d="M 283.64478 1028.50855 L 286.46211 1030.27106 C 286.86326 1030.52183 287.16365 1030.8931 287.34082 1031.3312 C 289.30054 1029.672 291.51557 1026.97343 293.48371 1023.66305 C 297.27 1017.2935 298.70063 1011.1042 296.67753 1009.8389 C 294.65477 1008.5729 289.94625 1012.71075 286.15973 1019.08 C 284.1927 1022.3897 282.86836 1025.64404 282.32738 1028.1905 C 282.45967 1028.1801 282.59234 1028.17584 282.72595 1028.1898 C 283.05401 1028.2249 283.36326 1028.33155 283.64478 1028.50855 Z" fill="#1084f5"/><path d="M 280.40459 1033.9632 L 283.22195 1035.72545 C 283.42831 1035.85464 283.65275 1035.92924 283.87993 1035.953 C 284.39574 1036.0069 284.91098 1035.7827 285.25822 1035.35576 C 283.62243 1033.90403 281.79472 1032.7423 279.82985 1031.8323 C 279.45625 1032.58786 279.69374 1033.5189 280.40459 1033.9632 Z" fill="#1084f5"/><path d="M 281.28149 1029.4323 C 281.55221 1029.5573 281.81613 1029.69067 282.0801 1029.82614 C 283.4594 1030.53585 284.75623 1031.3909 286.00771 1032.3222 C 286.25423 1032.5062 286.5001 1032.69144 286.74373 1032.8807 C 286.90225 1032.51585 286.92349 1032.1204 286.82097 1031.75725 C 286.71454 1031.38226 286.48284 1031.04425 286.13396 1030.8261 L 283.31663 1029.0636 C 283.1095 1028.9343 282.88537 1028.8592 282.65845 1028.8355 C 282.50266 1028.8192 282.34766 1028.8299 282.19495 1028.86056 C 281.8424 1028.9316 281.52299 1029.1342 281.28149 1029.4323 Z" fill="#1084f5"/><path d="M 280.2348 1031.12796 C 280.98248 1031.4789 281.7108 1031.86456 282.41727 1032.28656 C 282.859 1032.5509 283.29565 1032.82457 283.71913 1033.11816 C 284.40676 1033.5947 285.068 1034.114 285.70421 1034.6706 L 286.34478 1033.5927 C 285.9763 1033.30565 285.60263 1033.0263 285.2267 1032.7513 C 284.21143 1032.0088 283.16425 1031.31754 282.06188 1030.7252 C 281.6599 1030.5095 281.24917 1030.311 280.8322 1030.1228 Z" fill="#1084f5"/><path d="M 264.89506 1027.44067 C 269.71989 1024.89 264.9826 1019.6576 263.42965 1017.0265 C 262.80897 1015.9736 261.07837 1016.76524 261.70969 1017.83467 C 263.14777 1020.2726 267.50837 1024.23876 262.95624 1026.23216 C 261.6094 1026.822 260.63012 1028.05044 261.40707 1029.5464 C 262.19482 1031.06235 264.78074 1031.4608 266.21329 1031.8338 C 267.21397 1032.0945 268.24688 1032.5155 269.17812 1033.0188 C 268.7643 1033.1604 268.32863 1033.26214 267.90876 1033.3754 C 265.79318 1033.94644 261.06575 1035.3411 262.33562 1038.68044 C 263.37333 1041.40764 267.02808 1041.74044 269.87037 1042.093 C 269.84223 1042.0293 269.82121 1041.9592 269.81027 1041.8789 C 269.72089 1041.2348 270.2574 1040.9305 271.53904 1040.36765 C 269.72924 1040.0109 267.89125 1039.86963 266.11036 1039.3473 C 262.52843 1038.2957 265.11575 1036.2128 267.26237 1035.5592 C 268.39433 1035.21514 272.6735 1034.6665 271.47376 1032.4487 C 270.75066 1031.1108 268.49875 1030.57704 267.25838 1030.11147 C 266.40522 1029.7908 265.47351 1029.6321 264.60501 1029.34475 C 262.55475 1028.6648 263.48662 1028.1858 264.89506 1027.44067 Z" fill="#1084f5"/><path d="M 272.35964 1040.713 C 270.91536 1041.33984 269.71525 1041.84276 270.93503 1041.9703 C 271.2665 1042.0049 271.77947 1042.01194 272.51221 1041.98545 C 273.50882 1041.9498 274.91377 1041.85454 276.84247 1041.6854 C 287.49552 1040.74905 280.12495 1034.61455 280.12495 1034.61455 C 279.61599 1034.3448 279.11877 1034.1969 278.64554 1034.14743 C 276.0586 1033.877 274.19486 1036.5635 275.236 1038.6859 C 275.54287 1039.3133 273.82578 1040.07676 272.35964 1040.713 Z" fill="#1084f5"/><path d="M 283.64478 1028.50855 L 286.46211 1030.27106 C 286.86326 1030.52183 287.16365 1030.8931 287.34082 1031.3312 C 289.30054 1029.672 291.51557 1026.97343 293.48371 1023.66305 C 297.27 1017.2935 298.70063 1011.1042 296.67753 1009.8389 C 294.65477 1008.5729 289.94625 1012.71075 286.15973 1019.08 C 284.1927 1022.3897 282.86836 1025.64404 282.32738 1028.1905 C 282.45967 1028.1801 282.59234 1028.17584 282.72595 1028.1898 C 283.05401 1028.2249 283.36326 1028.33155 283.64478 1028.50855 Z" fill="#1084f5"/><path d="M 264.89506 1027.44067 C 269.71989 1024.89 264.9826 1019.6576 263.42965 1017.0265 C 262.80897 1015.9736 261.07837 1016.76524 261.70969 1017.83467 C 263.14777 1020.2726 267.50837 1024.23876 262.95624 1026.23216 C 261.6094 1026.822 260.63012 1028.05044 261.40707 1029.5464 C 262.19482 1031.06235 264.78074 1031.4608 266.21329 1031.8338 C 267.21397 1032.0945 268.24688 1032.5155 269.17812 1033.0188 C 268.7643 1033.1604 268.32863 1033.26214 267.90876 1033.3754 C 265.79318 1033.94644 261.06575 1035.3411 262.33562 1038.68044 C 263.37333 1041.40764 267.02808 1041.74044 269.87037 1042.093 C 269.84223 1042.0293 269.82121 1041.9592 269.81027 1041.8789 C 269.72089 1041.2348 270.2574 1040.9305 271.53904 1040.36765 C 269.72924 1040.0109 267.89125 1039.86963 266.11036 1039.3473 C 262.52843 1038.2957 265.11575 1036.2128 267.26237 1035.5592 C 268.39433 1035.21514 272.6735 1034.6665 271.47376 1032.4487 C 270.75066 1031.1108 268.49875 1030.57704 267.25838 1030.11147 C 266.40522 1029.7908 265.47351 1029.6321 264.60501 1029.34475 C 262.55475 1028.6648 263.48662 1028.1858 264.89506 1027.44067 Z" fill="#1084f5"/><path d="M 272.35964 1040.713 C 270.91536 1041.33984 269.71525 1041.84276 270.93503 1041.9703 C 271.2665 1042.0049 271.77947 1042.01194 272.51221 1041.98545 C 273.50882 1041.9498 274.91377 1041.85454 276.84247 1041.6854 C 287.49552 1040.74905 280.12495 1034.61455 280.12495 1034.61455 C 279.61599 1034.3448 279.11877 1034.1969 278.64554 1034.14743 C 276.0586 1033.877 274.19486 1036.5635 275.236 1038.6859 C 275.54287 1039.3133 273.82578 1040.07676 272.35964 1040.713 Z" fill="#1084f5"/></g></g></svg>
