<?xml version="1.0" encoding="utf-8"?>
<!-- Generator: Adobe Illustrator 16.0.0, SVG Export Plug-In . SVG Version: 6.00 Build 0)  -->
<!DOCTYPE svg PUBLIC "-//W3C//DTD SVG 1.1//EN" "http://www.w3.org/Graphics/SVG/1.1/DTD/svg11.dtd">
<svg version="1.1" id="Layer_1" xmlns:xl="http://www.w3.org/1999/xlink"
	 xmlns="http://www.w3.org/2000/svg" xmlns:xlink="http://www.w3.org/1999/xlink" x="0px" y="0px" width="204.746px"
	 height="206.9px" viewBox="0 0 204.746 206.9" enable-background="new 0 0 204.746 206.9" xml:space="preserve">
<title>Layer 1</title>
<title>Canvas 4</title>
<title>Layer 1</title>
<path opacity="0.6" fill="none" stroke="#E6E6E6" stroke-width="3" stroke-linecap="round" stroke-linejoin="round" enable-background="new    " d="
	M101.995,201.924L101.995,201.924c-53.267,0-96.631-43.361-96.631-96.629c0-53.271,43.364-96.632,96.631-96.632
	c53.269,0,96.629,43.362,96.629,96.632C198.625,158.561,155.263,201.924,101.995,201.924z"/>
<g>
	<g>
		<title>Canvas 1</title>
		<g>
			<title>Layer 1</title>
			<path fill="#E6E6E6" stroke="#E6E6E6" stroke-miterlimit="10" d="M123.782,110.154l5.626,18.271
				c0.09,0.299,0.317,0.529,0.592,0.593c0.266,0.066,0.565-0.026,0.758-0.254L143,114.472v7.746l-19.218,23.423V110.154z
				 M149.158,104.636l-18.65,21.771l-6.795-22.07l19.705-19.208L149.158,104.636z M141.856,84.222l-18.869,18.394l-10.535-3.718
				V74.461L141.856,84.222z M122.135,104.437l-3.562,22.405L84.731,111.4l2.397-19.497l35.053,12.353
				C122.162,104.318,122.145,104.378,122.135,104.437 M118.888,128.973c0.228,0.102,0.486,0.089,0.698-0.046
				c0.215-0.138,0.363-0.368,0.405-0.643l2.17-13.613v31.567l-31.86-16.586l-0.003-13.722L118.888,128.973z M88.111,90.32
				l22.713-16.103v24.11L88.111,90.32z M150.856,104.584l-6.157-20.921c-0.083-0.287-0.284-0.51-0.541-0.595L111.22,72.134
				c-0.224-0.08-0.469-0.038-0.663,0.103L86.062,89.602c-0.204,0.145-0.339,0.384-0.374,0.65l-2.656,21.605
				c-0.05,0.419,0.157,0.824,0.504,0.98l5.137,2.351l0.004,15.05c0,0.359,0.183,0.685,0.469,0.839l33.248,17.308h0.001
				c0.027,0.056,0.059,0.111,0.107,0.164c0.153,0.157,0.348,0.255,0.556,0.255c0.225,0,0.44-0.117,0.596-0.295l20.752-25.302
				c0.142-0.166,0.217-0.394,0.217-0.626v-10.009l6.048-7.059C150.877,105.267,150.949,104.914,150.856,104.584"/>
		</g>
	</g>
	<path opacity="0.6" fill="#E6E6E6" enable-background="new    " d="M32.489,123.765c-2.645-0.46-5.178-1.837-7.179-4.101
		c-3.033-3.439-4.227-8.174-3.612-12.645c-0.5-0.661-0.773-1.322-0.191-1.982c0.154,0.175,0.303,0.354,0.456,0.529
		c0.562-2.433,1.669-4.737,3.349-6.641c4.021-4.557,8.912-6.505,14.544-5.782c0.852,0.107,1.709,0.281,2.562,0.505l-7.86,8.907
		c-3.279,3.716-3.277,9.758,0,13.472l5.656,6.41c-1.128,0.628-2.32,1.051-3.532,1.285c1.027,1.269,2.065,2.528,3.116,3.771
		c1.159-0.432,2.289-0.993,3.361-1.722l27.066,30.673c1.993,2.258,4.635,3.502,7.454,3.504h77.492
		c4.635-0.005,8.403-4.276,8.406-9.528l-0.007-82.254c0.002-2.626-0.938-5.008-2.46-6.731c-1.521-1.724-3.626-2.795-5.944-2.792
		l-77.488-0.003c-2.814,0.004-5.465,1.246-7.454,3.5L45.666,89.969c-1.76-0.641-3.558-1.099-5.361-1.329
		c-6.808-0.875-12.966,1.572-17.825,7.078c-2.893,3.278-4.518,7.457-4.877,11.745c1.276-0.24,2.573-0.454,3.904-0.622
		c-1.332,0.168-2.628,0.382-3.904,0.622c-0.463,5.506,1.163,11.201,4.877,15.408c4.605,5.219,11.382,6.834,17.317,4.625
		c-1.051-1.245-2.088-2.505-3.116-3.773C35.293,123.994,33.875,124.005,32.489,123.765 M46.682,95.231
		c3.488,1.645,6.792,4.064,9.619,6.788c-3.184,4.678-2.883,11.438,0.899,15.722c4.109,4.657,10.798,4.657,14.907,0
		c4.11-4.658,4.11-12.236,0.001-16.893c-3.457-3.917-8.736-4.537-12.77-1.869c-2.828-2.799-6.1-5.321-9.615-7.195l23.331-26.437
		c1.234-1.4,2.875-2.166,4.623-2.17l77.487,0.004c2.434-0.002,4.406,2.235,4.404,4.991l0.002,82.25c0,2.749-1.977,4.991-4.403,4.986
		l-77.486,0.005c-1.747,0-3.392-0.771-4.627-2.171l-35.669-40.421c-1.716-1.943-1.716-5.112,0.001-7.058L46.682,95.231z
		 M66.349,108.088c-1.057-1.903-2.395-3.854-3.95-5.744c2.319-0.963,5.023-0.396,6.88,1.708c2.55,2.89,2.547,7.594-0.002,10.481
		c-2.546,2.885-6.695,2.887-9.245-0.002c-2.245-2.545-2.515-6.496-0.802-9.375c1.487,1.771,2.758,3.59,3.727,5.341
		c0.589,1.062,1.822,1.383,2.761,0.722C66.655,110.552,66.938,109.152,66.349,108.088z"/>
</g>
</svg>
