<?xml version="1.0" encoding="utf-8"?>
<!-- Generator: Adobe Illustrator 16.0.0, SVG Export Plug-In . SVG Version: 6.00 Build 0)  -->
<!DOCTYPE svg PUBLIC "-//W3C//DTD SVG 1.1//EN" "http://www.w3.org/Graphics/SVG/1.1/DTD/svg11.dtd">
<svg version="1.1" id="Layer_1" xmlns:xl="http://www.w3.org/1999/xlink"
	 xmlns="http://www.w3.org/2000/svg" xmlns:xlink="http://www.w3.org/1999/xlink" x="0px" y="0px" width="50px" height="51px"
	 viewBox="0 0 50 51" enable-background="new 0 0 50 51" xml:space="preserve">
<g>
	<title>Canvas 4</title>
	<g>
		<title>Layer 1</title>
		<path fill="#1084F5" stroke="#1084F5" stroke-miterlimit="10" d="M22.735,39.611c-2.429,0-4.62-0.895-6.165-2.413h17.163
			c-1.545,1.519-3.737,2.413-6.165,2.413H22.735z M19.95,33.266v1.52h-5.083c-0.225-0.446-0.392-0.983-0.49-1.52H19.95z
			 M22.363,33.266h5.541v1.52h-5.541V33.266z M35.373,34.964c-0.165-0.086-0.352-0.179-0.552-0.179h-4.503v-1.52h5.609
			C35.819,33.802,35.63,34.412,35.373,34.964 M37.235,30.853H13.067c-0.665,0-1.204,0.521-1.204,1.186
			c0,1.413,0.319,2.749,0.893,3.97c0,0.012-0.002,0.018-0.002,0.029c0,0.439,0.236,0.806,0.587,1.016
			c1.888,2.98,5.392,4.971,9.394,4.971h4.834c5.994,0,10.871-4.468,10.871-10C38.439,31.358,37.899,30.853,37.235,30.853"/>
		<path fill="#1084F5" stroke="#1084F5" stroke-miterlimit="10" d="M33.237,21.827c1.591,0,2.878-1.289,2.878-2.879
			c0-1.591-1.287-2.878-2.878-2.878c-1.589,0-2.878,1.287-2.878,2.878C30.359,20.538,31.648,21.827,33.237,21.827z"/>
		<path fill="#1084F5" stroke="#1084F5" stroke-miterlimit="10" d="M16.689,21.827c1.59,0,2.878-1.289,2.878-2.879
			c0-1.591-1.288-2.878-2.878-2.878c-1.589,0-2.877,1.287-2.877,2.878C13.812,20.538,15.101,21.827,16.689,21.827z"/>
		<path fill="#1084F5" stroke="#1084F5" stroke-miterlimit="10" d="M25,48.093c-12.454,0-22.586-10.135-22.586-22.592
			C2.414,13.043,12.546,2.908,25,2.908c12.455,0,22.587,10.135,22.587,22.593C47.587,37.958,37.455,48.093,25,48.093 M25,0.5
			C11.22,0.5,0.007,11.715,0.006,25.501C0.006,39.285,11.219,50.5,25,50.5c13.782,0,24.995-11.215,24.995-24.999
			C49.995,11.715,38.782,0.5,25,0.5"/>
	</g>
</g>
</svg>
