<?xml version="1.0" encoding="UTF-8" standalone="no"?>
<svg width="211px" height="211px" viewBox="0 0 211 211" version="1.1" xmlns="http://www.w3.org/2000/svg" xmlns:xlink="http://www.w3.org/1999/xlink">
    <!-- Generator: Sketch 3.7.2 (28276) - http://www.bohemiancoding.com/sketch -->
    <title>Group 2</title>
    <desc>Created with Sketch.</desc>
    <defs></defs>
    <g id="Page-1" stroke="none" stroke-width="1" fill="none" fill-rule="evenodd">
        <g id="Group-2" transform="translate(2.000000, 2.000000)" stroke="#1822CD">
            <circle id="Oval" stroke-width="4" cx="103.3354" cy="103.3354" r="103.3354"></circle>
            <path d="M144.6782,121.25801 C143.57882,121.25801 142.68992,122.61647 142.68992,124.28968 L142.68992,148.54382 C142.68992,153.55827 140.01342,157.64024 136.72418,157.64024 L69.1148,157.64024 C65.82575,157.64024 63.14928,153.5597 63.14928,148.54382 L63.14928,124.28968 C63.14928,122.61647 62.26059,121.25801 61.16076,121.25801 C60.06114,121.25801 59.17224,122.61647 59.17224,124.28968 L59.17224,148.54382 C59.17224,156.90238 63.63248,163.7027 69.11502,163.7027 L136.72416,163.7027 C142.20625,163.7027 146.66691,156.90266 146.66691,148.54382 L146.66691,124.28968 C146.66691,122.61647 145.77825,121.25801 144.6782,121.25801 L144.6782,121.25801 L144.6782,121.25801 L144.6782,121.25801 L144.6782,121.25801 Z" id="Shape" stroke-width="2" fill="#1822CD"></path>
            <path d="M62.82968,109.61685 L62.82968,82.7898 C62.82968,78.35256 65.50616,74.74169 68.79521,74.74169 L84.70328,74.74169 C85.8029,74.74169 86.6918,73.5396 86.6918,72.05898 C86.6918,61.48395 95.2454,53.28004 102.60031,53.28004 C107.7741,53.28004 113.25259,57.13492 116.23756,62.87345 C116.86801,64.08359 118.10633,64.38138 119.00738,63.53083 C119.90714,62.6777 120.1251,61.00621 119.49252,59.79378 C116.1242,53.31226 110.43121,48.92354 104.58862,48.08912 L104.58862,42.055414 C106.89732,40.942144 108.56603,37.99412 108.56603,34.500815 C108.56603,30.06357 105.88956,26.452703 102.60031,26.452703 C99.31147,26.452703 96.635,30.06357 96.635,34.500815 C96.635,37.993545 98.30283,40.942144 100.61201,42.05254 L100.61201,48.08047 C92.4172,49.30354 84.00188,57.85899 82.84857,69.37598 L68.79542,69.37598 C63.3131,69.37598 58.85265,75.39333 58.85265,82.78951 L58.8486,106.93414 L54.50597,106.93414 C53.68078,103.81652 51.49539,101.56845 48.90625,101.56845 C45.61724,101.56845 42.94072,105.1793 42.94072,109.61656 C42.94072,114.0538 45.61724,117.66468 48.90625,117.66468 C51.49518,117.66468 53.68078,115.41658 54.50597,112.29899 L60.841165,112.29899 C61.94078,112.29957 62.82968,111.09748 62.82968,109.61685 L62.82968,109.61685 L62.82968,109.61685 L62.82968,109.61685 L62.82968,109.61685 Z M102.6001,31.81813 C103.69737,31.81813 104.5884,33.02249 104.5884,34.500815 C104.5884,35.97914 103.69737,37.18353 102.6001,37.18353 C101.50325,37.18353 100.61139,35.97914 100.61139,34.500815 C100.61137,33.02278 101.5024,31.81813 102.6001,31.81813 L102.6001,31.81813 L102.6001,31.81813 L102.6001,31.81813 L102.6001,31.81813 Z M48.90604,112.29957 C47.80855,112.29957 46.91752,111.09546 46.91752,109.61685 C46.91752,108.13824 47.80834,106.93414 48.90604,106.93414 C50.00374,106.93414 50.894554,108.13824 50.894554,109.61685 C50.894554,111.09546 50.003525,112.29957 48.90604,112.29957 L48.90604,112.29957 L48.90604,112.29957 L48.90604,112.29957 L48.90604,112.29957 Z" id="Shape" stroke-width="2" fill="#1822CD"></path>
            <path d="M156.28967,101.56874 C153.70095,101.56874 151.51535,103.81684 150.69233,106.93443 L146.34732,106.93443 L146.34732,82.79009 C146.34732,75.3939 141.88667,69.37626 136.40456,69.37626 L92.65732,69.37626 C91.55771,69.37626 90.66881,70.57807 90.66881,72.05898 C90.66881,73.53989 91.55771,74.74169 92.65732,74.74169 L136.40456,74.74169 C139.69383,74.74169 142.36986,78.35256 142.36986,82.79009 L142.36986,109.61714 C142.36986,111.09748 143.25878,112.29957 144.3586,112.29957 L150.69229,112.29957 C151.51535,115.41715 153.70052,117.66525 156.28967,117.66525 C159.57891,117.66525 162.25498,114.05438 162.25498,109.61714 C162.2554,105.17958 159.57893,101.56874 156.28967,101.56874 L156.28967,101.56874 L156.28967,101.56874 L156.28967,101.56874 L156.28967,101.56874 Z M156.28967,112.29957 C155.1924,112.29957 154.30136,111.09546 154.30136,109.61685 C154.30136,108.13824 155.1924,106.93414 156.28967,106.93414 C157.38737,106.93414 158.2784,108.13824 158.2784,109.61685 C158.2784,111.09546 157.38758,112.29957 156.28967,112.29957 L156.28967,112.29957 L156.28967,112.29957 L156.28967,112.29957 L156.28967,112.29957 Z" id="Shape" stroke-width="2" fill="#1822CD"></path>
            <path d="M32.48174,143.7372 C31.62381,143.7372 31.05155,143.45122 30.479296,142.87926 C11.601496,124.00118 11.601496,93.11121 30.479296,74.23371 C31.623176,73.0898 33.339643,73.0898 34.483584,74.23371 C35.627494,75.37762 35.627494,77.09379 34.483584,78.238 C17.894508,94.82735 17.894508,122.28474 34.483584,138.87498 C35.627494,140.01888 35.627494,141.73384 34.483584,142.87925 C33.9119,143.45122 33.339643,143.7372 32.48174,143.7372 L32.48174,143.7372 L32.48174,143.7372 L32.48174,143.7372 L32.48174,143.7372 Z" id="Shape" stroke-width="2" fill="#1822CD"></path>
            <path d="M172.7157,143.73717 C171.85746,143.73717 171.28554,143.4524 170.71325,142.87923 C169.56783,141.73502 169.56783,140.01886 170.71325,138.87495 C187.30263,122.28562 187.30263,94.82732 170.71325,78.23797 C169.56783,77.09376 169.56783,75.37759 170.71325,74.23371 C171.85746,73.0898 173.57242,73.0898 174.71603,74.23371 C193.59413,93.11145 193.59413,124.00145 174.71603,142.87923 C174.14619,143.4509 173.57396,143.73717 172.7157,143.73717 L172.7157,143.73717 L172.7157,143.73717 L172.7157,143.73717 L172.7157,143.73717 Z" id="Shape" stroke-width="2" fill="#1822CD"></path>
            <path d="M133.16967,103.38839 C133.16967,99.77653 130.23046,96.83732 126.61836,96.83732 C123.00671,96.83732 120.0675,99.7765 120.0675,103.38839 C120.0675,107.00026 123.00671,109.93944 126.61836,109.93944 C130.23046,109.93947 133.16967,107.00026 133.16967,103.38839 L133.16967,103.38839 L133.16967,103.38839 L133.16967,103.38839 L133.16967,103.38839 Z M124.43443,103.38839 C124.43443,102.18505 125.41339,101.20469 126.61836,101.20469 C127.82332,101.20469 128.8018,102.18505 128.8018,103.38839 C128.8018,104.59173 127.82332,105.57209 126.61836,105.57209 C125.41339,105.57209 124.43443,104.59124 124.43443,103.38839 L124.43443,103.38839 L124.43443,103.38839 L124.43443,103.38839 L124.43443,103.38839 Z" id="Shape" stroke-width="2" fill="#1822CD"></path>
            <path d="M85.1282,103.38839 C85.1282,99.77653 82.18899,96.83732 78.57715,96.83732 C74.96524,96.83732 72.02603,99.7765 72.02603,103.38839 C72.02603,107.00026 74.96524,109.93944 78.57715,109.93944 C82.18899,109.93944 85.1282,107.00026 85.1282,103.38839 L85.1282,103.38839 L85.1282,103.38839 L85.1282,103.38839 L85.1282,103.38839 Z M78.57715,105.57183 C77.37192,105.57183 76.39343,104.59147 76.39343,103.38813 C76.39343,102.1848 77.37171,101.20444 78.57715,101.20444 C79.78257,101.20444 80.76085,102.1848 80.76085,103.38813 C80.76104,104.59124 79.78255,105.57183 78.57715,105.57183 L78.57715,105.57183 L78.57715,105.57183 L78.57715,105.57183 L78.57715,105.57183 Z" id="Shape" stroke-width="2" fill="#1822CD"></path>
            <path d="M75.34452,137.77017 C75.34452,137.1029 75.56657,136.65998 76.01068,136.2152 C76.89885,135.32678 78.23155,135.32678 79.11975,136.21496 C92.0003,149.09576 113.31969,149.09576 126.20026,136.2152 C127.08866,135.32678 128.42116,135.32678 129.30907,136.21496 C130.19748,137.10334 130.19748,138.43607 129.30907,139.324 C114.65171,153.98163 90.6678,153.98163 76.01068,139.324 C75.56635,138.88086 75.34452,138.43677 75.34452,137.77017 L75.34452,137.77017 L75.34452,137.77017 L75.34452,137.77017 L75.34452,137.77017 Z" id="Shape" stroke-width="2" fill="#1822CD"></path>
            <g id="Group" transform="translate(96.108870, 116.513680)" font-weight="normal" font-family="Helvetica" stroke-width="4" fill="#1822CD" font-size="21">
                <g id="+">
                    <text>
                        <tspan x="0" y="20">+</tspan>
                    </text>
                </g>
            </g>
        </g>
    </g>
</svg>