<?xml version="1.0" encoding="utf-8"?>
<!-- Generator: Adobe Illustrator 21.0.2, SVG Export Plug-In . SVG Version: 6.00 Build 0)  -->
<svg version="1.1" id="Layer_1" xmlns:xl="http://www.w3.org/1999/xlink"
	 xmlns="http://www.w3.org/2000/svg" xmlns:xlink="http://www.w3.org/1999/xlink" x="0px" y="0px" viewBox="0 0 204.7 206.9"
	 style="enable-background:new 0 0 204.7 206.9;" xml:space="preserve">
<style type="text/css">
	.st0{opacity:0.6;fill:none;stroke:#1822CD;stroke-miterlimit:10;enable-background:new    ;}
	.st1{fill:#1822CD;}
	.st2{fill:#339933;}
	.st3{fill:#FFFFFF;}
</style>
<title>Layer 1</title>
<title>Canvas 4</title>
<title>Layer 1</title>
<path class="st0" d="M102,201.9L102,201.9c-53.3,0-96.6-43.4-96.6-96.6C5.4,52,48.7,8.7,102,8.7s96.6,43.4,96.6,96.6
	C198.6,158.6,155.3,201.9,102,201.9z"/>
<g>
	<title>Canvas 1</title>
	<g>
		<title>Layer 1</title>
		<path class="st1" d="M73.4,111.6c-15.9-15.6-16.1-41-0.5-56.9s41-16.1,56.9-0.5s16.1,41,0.5,56.9
			C114.7,126.9,89.2,127.2,73.4,111.6 M106,130.9c11-1,21.7-5.7,30-14.2c18.7-19,18.4-49.6-0.6-68.3S85.8,30,67.1,49
			s-18.4,49.6,0.6,68.3C76.2,125.7,87,130.2,98,131l0.5,50.4h8L106,130.9z"/>
	</g>
</g>
<g>
	<path class="st1" d="M120.1,59.3h-36c-2.9,0-5.3,2.6-5.3,5.8v36.2c0,3.2,2.4,5.8,5.3,5.8h36c2.9,0,5.3-2.6,5.3-5.8V65.1
		C125.3,61.9,123,59.3,120.1,59.3z M108.9,67.9c2.8,0,5.1,2.5,5.1,5.6s-2.3,5.6-5.1,5.6s-5.1-2.5-5.1-5.6S106.1,67.9,108.9,67.9z
		 M118.4,101.8h-16.3H86.5c-1.4,0-2-1.2-1.4-2.5l8.7-18.9c0.6-1.3,1.8-1.5,2.7-0.3l8.8,12.5c0.9,1.2,2.3,1.3,3.3,0.3l2.1-2.4
		c1-1.1,2.4-1,3.2,0.3l5.6,8.7C120.3,100.7,119.8,101.8,118.4,101.8z"/>
</g>
<g>
	<path class="st2" d="M141.8,83.2c-16.1,0-29.2,13.1-29.2,29.2s13.1,29.2,29.2,29.2s29.2-13.1,29.2-29.2S157.9,83.2,141.8,83.2z"/>
	<path class="st3" d="M158.6,106.1l-18.3,18.3c-0.8,0.8-1.8,1.2-2.9,1.2s-2.1-0.4-2.9-1.2l-9.3-9.3c-0.8-0.8-1.2-1.8-1.2-2.9
		c0-1.1,0.4-2.1,1.2-2.9c0.8-0.8,1.8-1.2,2.9-1.2c1.1,0,2.1,0.4,2.9,1.2l6.4,6.4l15.4-15.4c0.8-0.8,1.8-1.2,2.9-1.2s2.1,0.4,2.9,1.2
		C160.2,101.9,160.2,104.5,158.6,106.1z"/>
</g>
</svg>
