<?xml version="1.0"?>
<!DOCTYPE svg PUBLIC "-//W3C//DTD SVG 1.1//EN" "http://www.w3.org/Graphics/SVG/1.1/DTD/svg11.dtd">
<svg xmlns="http://www.w3.org/2000/svg" xmlns:xl="http://www.w3.org/1999/xlink" version="1.1" viewBox="80 1649 61 66" width="61pt" height="66pt"><metadata xmlns:dc="http://purl.org/dc/elements/1.1/"><dc:date>2017-01-20 23:06Z</dc:date><!-- Produced by OmniGraffle Professional 5.4.2 --></metadata><defs></defs><g stroke="none" stroke-opacity="1" stroke-dasharray="none" fill="none" fill-opacity="1"><title>Canvas 4</title><g><title>Layer 1</title><path d="M 84.532935 1663.4986 C 84.702354 1666.9142 85.359335 1674.7772 87.91096 1683.1486 C 92.2654 1697.4353 99.83233 1706.518 110.40611 1710.1547 C 121.00446 1706.5102 128.58044 1697.3965 132.92971 1683.0568 C 135.46323 1674.7009 136.11374 1666.896 136.280575 1663.4986 C 131.721796 1662.8339 119.91553 1660.5836 110.40611 1654.1845 C 100.8941 1660.5823 89.09042 1662.8339 84.532935 1663.4986 M 110.40611 1714.3332 C 110.1966 1714.3332 109.98709 1714.2996 109.78534 1714.2349 C 103.002134 1712.0622 97.226387 1707.894 92.619757 1701.8467 C 88.993426 1697.0875 86.08874 1691.163 83.98976 1684.2362 C 80.4462 1672.5567 80.40611 1662.151 80.40611 1661.7139 C 80.40611 1660.6664 81.20147 1659.7895 82.243846 1659.68865 C 82.401625 1659.6731 98.201513 1658.0527 109.211126 1650.0564 C 109.92372 1649.5391 110.8885 1649.5404 111.602384 1650.0564 C 122.606824 1658.0527 138.4093 1659.6731 138.56837 1659.6899 C 139.61075 1659.7908 140.40611 1660.6677 140.40611 1661.7139 C 140.40611 1662.151 140.36602 1672.5567 136.82375 1684.2375 C 134.72348 1691.163 131.81879 1697.0875 128.19246 1701.848 C 123.58454 1707.894 117.81008 1712.0622 111.02688 1714.2349 C 110.82513 1714.2996 110.61562 1714.3332 110.40611 1714.3332" fill="#0d74dd"/><path d="M 108.575414 1694.9134 C 107.50486 1694.8364 106.44597 1694.6271 105.42758 1694.2929 C 104.783086 1694.0812 104.085147 1694.4068 103.83405 1695.0373 L 103.623883 1695.5641 C 103.49303 1695.8926 103.503425 1696.2605 103.652726 1696.581 C 103.8016 1696.902 104.076664 1697.1464 104.41238 1697.2579 C 105.10523 1697.4882 105.82077 1697.6729 106.53928 1697.8068 C 107.14815 1697.9202 107.76995 1697.9998 108.387516 1698.042 C 108.41742 1698.0445 108.44711 1698.0453 108.47659 1698.0453 C 108.798305 1698.0453 109.10963 1697.9243 109.34758 1697.7048 C 109.60716 1697.4649 109.75667 1697.1285 109.76049 1696.7748 L 109.76664 1696.2081 C 109.77364 1695.5297 109.251934 1694.9626 108.575414 1694.9134 Z" fill="#0d74dd"/><path d="M 98.53043 1688.8411 C 98.17351 1688.2628 97.42849 1688.0628 96.829377 1688.3847 L 96.330576 1688.6526 C 96.01946 1688.8199 95.790845 1689.1083 95.69859 1689.4496 C 95.606763 1689.7902 95.65936 1690.1545 95.84429 1690.4552 C 96.55474 1691.6125 97.41025 1692.6763 98.38728 1693.6162 C 98.62735 1693.8469 98.946523 1693.9744 99.27736 1693.9744 C 99.298144 1693.9744 99.318715 1693.974 99.3395 1693.9731 C 99.692603 1693.9562 100.022805 1693.7941 100.252694 1693.5259 L 100.62128 1693.0956 C 101.06346 1692.5798 101.02719 1691.8085 100.53857 1691.3368 C 99.76916 1690.5933 99.09349 1689.7537 98.53043 1688.8411 Z" fill="#0d74dd"/><path d="M 118.77241 1692.7164 C 118.34105 1692.1911 117.575036 1692.0934 117.02576 1692.4927 C 116.15816 1693.1228 115.21443 1693.643 114.22022 1694.0381 C 113.589295 1694.2892 113.26249 1694.9884 113.4752 1695.6338 L 113.652706 1696.1718 C 113.76341 1696.5073 114.00751 1696.7824 114.32774 1696.9323 C 114.499946 1697.0131 114.685936 1697.0536 114.871926 1697.0536 C 115.03183 1697.0536 115.19195 1697.0239 115.344005 1696.9637 C 116.60479 1696.4655 117.80026 1695.8072 118.897325 1695.0066 C 119.182566 1694.7982 119.369404 1694.4818 119.41394 1694.131 C 119.458476 1693.7806 119.35647 1693.4273 119.132304 1693.1542 Z" fill="#0d74dd"/><path d="M 123.99394 1684.3283 L 123.436815 1684.2244 C 122.767294 1684.1001 122.11707 1684.5183 121.95462 1685.1791 C 121.695254 1686.2313 121.3044 1687.2452 120.79351 1688.1921 C 120.47137 1688.7893 120.66966 1689.535 121.24629 1689.8923 L 121.72791 1690.1913 C 121.93299 1690.3186 122.16818 1690.3845 122.40528 1690.3845 C 122.515136 1690.3845 122.62584 1690.3703 122.73421 1690.3417 C 123.07586 1690.2511 123.36513 1690.024 123.53373 1689.7131 C 124.18459 1688.5134 124.68 1687.2291 125.00575 1685.8953 C 125.08952 1685.5522 125.02844 1685.1902 124.83715 1684.8941 C 124.64564 1684.5976 124.34068 1684.393 123.99394 1684.3283 Z" fill="#0d74dd"/><path d="M 123.296 1680.583 L 123.87199 1680.583 L 123.8739 1680.583 C 124.58329 1680.583 125.157805 1680.0081 125.157805 1679.2989 C 125.157805 1679.1946 125.14572 1679.0932 125.12218 1678.9958 C 124.64395 1676.4418 123.5261 1674.0104 121.88633 1671.9605 C 119.403145 1668.8563 115.87676 1666.7981 111.955914 1666.1636 C 111.107825 1666.0264 110.243195 1665.9568 109.38662 1665.9568 C 107.1821 1665.9568 104.99391 1666.4175 102.982165 1667.298 L 101.981806 1666.2978 C 101.77482 1666.0911 101.475583 1666.0073 101.191826 1666.0771 C 100.908494 1666.1466 100.681574 1666.3596 100.5942 1666.6382 L 98.523285 1673.2437 C 98.430396 1673.5402 98.509924 1673.864 98.729634 1674.084 C 98.949556 1674.3037 99.27318 1674.3832 99.569876 1674.2903 L 106.17538 1672.2192 C 106.45405 1672.1318 106.66655 1671.9053 106.73653 1671.6216 C 106.80609 1671.3382 106.72275 1671.0388 106.515974 1670.832 L 105.40194 1669.718 C 106.687754 1669.2934 108.02637 1669.0784 109.3985 1669.0784 C 113.31892 1669.0784 116.97849 1670.842 119.438986 1673.9179 C 120.7494 1675.5558 121.64711 1677.4997 122.034786 1679.5388 C 122.14973 1680.1449 122.679495 1680.583 123.296 1680.583 Z" fill="#0d74dd"/></g></g></svg>
