<?xml version="1.0" encoding="utf-8"?>
<!-- Generator: Adobe Illustrator 21.0.2, SVG Export Plug-In . SVG Version: 6.00 Build 0)  -->
<svg version="1.1" id="Layer_1" xmlns="http://www.w3.org/2000/svg" xmlns:xlink="http://www.w3.org/1999/xlink" x="0px" y="0px"
	 viewBox="0 0 588 560" style="enable-background:new 0 0 588 560;" xml:space="preserve">
<style type="text/css">
	.st0{fill:#1822CD;}
</style>
<path class="st0" d="M19.1,300l127.7,127.7c8.7,8.7,23.1,8.9,32,0c8.7-9,8.7-23.3,0-32l-93.1-93.1h239.1c12.6,0,22.6-10.2,22.6-22.6
	c0-12.4-10-22.6-22.6-22.6H85.7l93.1-93.1c8.7-8.7,8.7-23.3,0-32c-8.7-8.7-23.1-8.9-32,0L19.1,260c-5.4,5.4-7.1,12.9-5.9,19.9
	C12,287.1,13.6,294.5,19.1,300L19.1,300z"/>
<g id="Layer_2">
</g>
</svg>
