<?xml version="1.0" encoding="utf-8"?>
<!-- Generator: Adobe Illustrator 21.0.2, SVG Export Plug-In . SVG Version: 6.00 Build 0)  -->
<svg version="1.1" id="Layer_1" xmlns:xl="http://www.w3.org/1999/xlink"
	 xmlns="http://www.w3.org/2000/svg" xmlns:xlink="http://www.w3.org/1999/xlink" x="0px" y="0px" viewBox="0 0 204.7 206.9"
	 style="enable-background:new 0 0 204.7 206.9;" xml:space="preserve">
<style type="text/css">
	.st0{fill:#1822CD;}
	.st1{fill:none;stroke:#1822CD;stroke-width:2;stroke-miterlimit:10;}
	.st2{font-family:'Sarina-Regular';}
	.st3{font-size:20.0864px;}
</style>
<title>Layer 1</title>
<title>Canvas 4</title>
<title>Layer 1</title>
<ellipse class="st0" cx="103" cy="66.6" rx="3" ry="6.2"/>
<path class="st0" d="M136.7,65.8H134v-2.5c-0.1-0.5-0.5-0.9-1-0.8c-0.4,0.1-0.8,0.4-0.8,0.8v2.5h-2.6c-0.5-0.1-0.9,0.3-0.9,0.7
	c-0.1,0.5,0.3,0.9,0.7,0.9c0.1,0,0.1,0,0.2,0h2.6v2.4c0.1,0.5,0.5,0.9,1,0.8c0.4-0.1,0.8-0.4,0.8-0.8v-2.5h2.6
	c0.5,0.1,0.9-0.3,0.9-0.7c0.1-0.5-0.3-0.9-0.7-0.9C136.8,65.8,136.7,65.8,136.7,65.8z"/>
<path class="st1" d="M104.3,78.2c0,0,4.1,8.5,14.1,8.4"/>
<path class="st1" d="M132.5,77.9c0,0-3.9,8.5-13.9,8.6"/>
<path class="st0" d="M140.8,37.1c-2.6-3.5-6.1-6.6-10-8.5c-4.1-2.2-8.4-3.2-13-3.2s-9,1.1-13.1,3.2c-3.9,2.1-7.4,5-10,8.6
	C91,42.3,89,48.4,89,54.8v31.8h7.8c-3-4.4-4.6-9.6-4.6-15V57.9c-0.1,0-0.3,0.1-0.4,0.1c-0.8,0.2-1.5-0.2-1.8-1
	c-0.2-0.8,0.2-1.6,1-1.8c2.5-0.7,4.9-1.4,7.4-1.9c0-2.9,0.6-10.4,4.8-15c0.5-0.6,1.4-0.6,2-0.1s0.6,1.5,0.1,2
	c-3.2,3.5-3.9,9.6-4,12.6c2.3-0.4,4.5-0.7,6.8-1c0-3.2,1-7.9,1.1-8.6c0.2-0.8,0.9-1.3,1.7-1.1s1.2,0.9,1.1,1.7
	c-0.3,1.5-1,5.3-1.1,7.7c8.5-0.7,17.1-0.1,25.6,1.6c0.2-2.3,0.1-7-3-11.2c-0.5-0.6-0.4-1.5,0.3-2c0.6-0.5,1.5-0.4,2,0.3
	c3.9,5.2,3.9,10.9,3.6,13.5c2,0.5,3.9,1,5.8,1.6c0.8,0.2,1.2,1,1,1.8c-0.2,0.6-0.8,1-1.4,1c-0.1,0-0.3,0-0.4-0.1
	c-0.2-0.1-0.4-0.1-0.5-0.2v13.7c0,5.4-1.7,10.7-4.6,15h7.9V54.8C146.6,48.4,144.6,42.2,140.8,37.1z"/>
<path class="st0" d="M185.2,187.9V29.6c0-10.9-10.6-19.7-23.5-19.7h-119C29.8,10,19.3,18.8,19.3,29.6v9.3c-0.1,1.6,1.3,3.2,3.2,3.3
	c1.9,0.1,3.7-1.1,3.9-2.7c0-0.2,0-0.4,0-0.5v-9.3c0-7.6,7.3-13.7,16.4-13.7h11v111.2h-0.6c-10.6,1-20.1,5.6-26.3,12.6v0.1l-0.4,0.4
	V50.8c0.1-1.6-1.3-3.2-3.2-3.3c-1.9-0.1-3.7,1.1-3.9,2.7c0,0.2,0,0.4,0,0.5v108.2c0,17.7,16.9,31.9,38,31.9h20.1v6.1
	c0,1.6,1.7,2.9,3.7,2.9c1,0,1.8-0.3,2.5-0.9l11.2-9.4l11.7,9.3c1.4,1.1,3.7,1.1,5.1-0.1c0.6-0.5,1-1.3,1.1-2.1v-6.1h32.8
	c1.9,0.1,3.7-1.1,3.9-2.7c0.1-1.6-1.3-3.2-3.2-3.3c-0.2,0-0.4,0-0.6,0h-32.8v-9h65.6v9.4h-18.6c-1.9-0.1-3.7,1.1-3.9,2.7
	c-0.1,1.6,1.3,3.2,3.2,3.3c0.2,0,0.4,0,0.6,0h22.3C183.6,191,185.2,189.5,185.2,187.9L185.2,187.9z M105.2,172.6v17.3l-7.9-6.4
	c-1.4-1.1-3.6-1.1-5,0l-7.9,6.4v-28.1H105L105.2,172.6L105.2,172.6z M178.1,169.6h-65.6v-10.7c0-1.6-1.5-2.9-3.6-2.9h-28
	c-1.9,0-3.6,1.3-3.6,2.9v10.7h-20c-7,0-12.8-4.8-12.8-10.7s5.7-10.7,12.8-10.7H178v21.4H178.1z M178.1,127H88.7
	c-1.9,0.1-3.3,1.6-3.2,3.3c0.1,1.4,1.5,2.5,3.2,2.7H178v9.4H57.3c-11,0.3-19.4,8.2-19.1,17.3c0.4,8.7,8.7,15.6,19.1,16h20.1v9.4
	H57.3c-17.2,0-31-11.7-31-26s13.8-26,31-26h17.3c1.9-0.1,3.3-1.6,3.2-3.3c-0.1-1.4-1.5-2.5-3.2-2.7H60.8V15.8h100.8
	c9.1,0,16.4,6.1,16.4,13.7L178.1,127L178.1,127z"/>
<text transform="matrix(0.7049 0 0 1 73.0317 112.0469)" class="st0 st2 st3">My Words</text>
</svg>
