<?xml version="1.0" encoding="utf-8"?>
<!-- Generator: Adobe Illustrator 16.0.0, SVG Export Plug-In . SVG Version: 6.00 Build 0)  -->
<!DOCTYPE svg PUBLIC "-//W3C//DTD SVG 1.1//EN" "http://www.w3.org/Graphics/SVG/1.1/DTD/svg11.dtd">
<svg version="1.1" id="Layer_1" xmlns:xl="http://www.w3.org/1999/xlink"
	 xmlns="http://www.w3.org/2000/svg" xmlns:xlink="http://www.w3.org/1999/xlink" x="0px" y="0px" width="204.746px"
	 height="206.9px" viewBox="0 0 204.746 206.9" enable-background="new 0 0 204.746 206.9" xml:space="preserve">
<title>Layer 1</title>
<title>Canvas 4</title>
<title>Layer 1</title>
<path opacity="0.6" fill="none" stroke="#E6E6E6" stroke-width="3" stroke-linecap="round" stroke-linejoin="round" enable-background="new    " d="
	M101.995,201.924L101.995,201.924c-53.267,0-96.631-43.36-96.631-96.629c0-53.271,43.364-96.632,96.631-96.632
	c53.269,0,96.629,43.362,96.629,96.632C198.625,158.561,155.264,201.924,101.995,201.924z"/>
<path fill="#E6E6E6" stroke="#E6E6E6" stroke-width="2" stroke-miterlimit="10" d="M152.515,67.681h-0.681H49.145h-0.888h-2.163
	h-1.488v71.537h111.775V67.681H152.515z M147.361,72.152l-43.181,43.183c-1.97,1.968-5.405,1.968-7.373,0L53.615,72.152H147.361z
	 M49.076,73.932l29.029,29.027l-29.029,29.035V73.932z M52.646,134.749l28.625-28.627l12.372,12.374
	c1.829,1.826,4.263,2.838,6.849,2.838s5.021-1.012,6.848-2.838l12.375-12.374l28.624,28.627H52.646z M151.911,131.994
	l-29.036-29.035l29.036-29.032V131.994L151.911,131.994z"/>
</svg>
