<?xml version="1.0" encoding="utf-8"?>
<!-- Generator: Adobe Illustrator 21.0.2, SVG Export Plug-In . SVG Version: 6.00 Build 0)  -->
<svg version="1.1" id="Layer_1" xmlns:xl="http://www.w3.org/1999/xlink"
	 xmlns="http://www.w3.org/2000/svg" xmlns:xlink="http://www.w3.org/1999/xlink" x="0px" y="0px" viewBox="0 0 204.7 206.9"
	 style="enable-background:new 0 0 204.7 206.9;" xml:space="preserve">
<style type="text/css">
	.st0{opacity:0.6;fill:#E6E6E6;enable-background:new    ;}
	.st1{fill:#DDE1ED;}
	.st2{fill:#FF7B78;}
	.st3{font-family:'GoboldBoldItalic-Italic';}
	.st4{font-size:37.8433px;}
</style>
<title>Layer 1</title>
<title>Canvas 4</title>
<title>Layer 1</title>
<g>
	<path class="st0" d="M165.3,34.1c0-8.5-6.8-15.3-15.3-15.3l0,0H63.9v129.1h42.9v-6.7l58.5-8.1C165.3,133.2,165.3,34.1,165.3,34.1z"
		/>
	<path class="st0" d="M58.9,18.8c-8.4,0-15.3,6.9-15.3,15.3v118.6l26.5-4.8V18.8H58.9z"/>
	<polygon class="st1" points="53.8,169.9 165.3,165.3 165.3,140.2 53.8,135.5 	"/>
	<path class="st0" d="M165.7,126.1H70.6c-14.6-0.5-26.8,11.1-27.3,25.8s11,26.9,25.6,27.4c0.5,0,1.1,0,1.6,0h95.2v-14H70.6
		c-6.9-0.8-11.9-7-11.1-13.9c0.6-5.9,5.3-10.5,11.1-11.2h95.2L165.7,126.1z"/>
	<polygon class="st2" points="98.9,177.3 109.5,187.7 109.5,152.7 88.2,152.7 88.2,187.7 	"/>
	<path d="M168,179.3V34.1c0-10-8.1-18.1-18-18.1H58.9C49,16.1,41,24.2,41,34.1v8.5c-0.1,1.5,1,2.9,2.5,3c1.5,0.1,2.8-1,3-2.5
		c0-0.2,0-0.4,0-0.5v-8.5c0-7,5.6-12.6,12.6-12.6h8.4v102H67c-8.1,0.9-15.4,5.1-20.2,11.6v0.1l-0.3,0.4V53.6c0.1-1.5-1-2.9-2.5-3
		c-1.5-0.1-2.8,1-3,2.5c0,0.2,0,0.4,0,0.5v99.1c0,16.2,13,29.3,29.1,29.3h15.4v5.6c0,1.5,1.3,2.7,2.8,2.7c0.7,0,1.4-0.3,1.9-0.8
		l8.6-8.6l8.9,8.5c1.1,1,2.8,1,3.9-0.1c0.5-0.5,0.7-1.2,0.8-1.9v-5.6h25.1c1.5,0.1,2.8-1,3-2.5c0.1-1.5-1-2.9-2.5-3
		c-0.2,0-0.3,0-0.5,0h-25.1V168h50.2v8.6h-14.3c-1.5-0.1-2.8,1-3,2.5c-0.1,1.5,1,2.9,2.5,3c0.2,0,0.3,0,0.5,0h17.1
		C166.8,182.1,168,180.8,168,179.3C168,179.3,168,179.3,168,179.3z M106.8,165.3v15.9l-6-5.9c-1.1-1-2.7-1-3.8,0l-6,5.9v-25.8h15.8
		V165.3L106.8,165.3z M162.6,162.5h-50.2v-9.8c0-1.5-1.2-2.7-2.7-2.7H88.2c-1.5,0-2.7,1.2-2.7,2.7v9.8H70.1c-5.4,0-9.8-4.4-9.8-9.8
		c0-5.4,4.4-9.8,9.8-9.8h92.4V162.5z M162.6,123.4H94.2c-1.5,0.1-2.6,1.5-2.5,3c0.1,1.3,1.2,2.3,2.5,2.5h68.3v8.6H70.1
		c-8.4,0.3-14.9,7.5-14.6,15.9c0.3,8,6.7,14.3,14.6,14.7h15.4v8.6H70.1c-13.1,0-23.7-10.7-23.7-23.8s10.6-23.8,23.7-23.8h13.2
		c1.5-0.1,2.6-1.5,2.5-3c-0.1-1.3-1.2-2.3-2.5-2.5H72.8V21.5H150c6.9,0,12.6,5.6,12.6,12.6L162.6,123.4L162.6,123.4z"/>
	<text transform="matrix(0.9978 0 0 1 84.1206 88.1323)" class="st3 st4">A-B</text>
</g>
</svg>
