<?xml version="1.0" encoding="utf-8"?>
<!-- Generator: Adobe Illustrator 16.0.0, SVG Export Plug-In . SVG Version: 6.00 Build 0)  -->
<!DOCTYPE svg PUBLIC "-//W3C//DTD SVG 1.1//EN" "http://www.w3.org/Graphics/SVG/1.1/DTD/svg11.dtd">
<svg version="1.1" id="Layer_1" xmlns:xl="http://www.w3.org/1999/xlink"
	 xmlns="http://www.w3.org/2000/svg" xmlns:xlink="http://www.w3.org/1999/xlink" x="0px" y="0px" width="204.746px"
	 height="206.9px" viewBox="0 0 204.746 206.9" enable-background="new 0 0 204.746 206.9" xml:space="preserve">
<title>Layer 1</title>
<title>Canvas 4</title>
<title>Layer 1</title>
<path opacity="0.6" fill="none" stroke="#E6E6E6" stroke-width="3" stroke-linecap="round" stroke-linejoin="round" enable-background="new    " d="
	M101.995,201.924L101.995,201.924c-53.267,0-96.631-43.36-96.631-96.629c0-53.271,43.364-96.632,96.631-96.632
	c53.269,0,96.629,43.362,96.629,96.632C198.625,158.561,155.264,201.924,101.995,201.924z"/>
<g>
	<title>Canvas 4</title>
	<g>
		<title>Layer 1</title>
		<path fill="#E6E6E6" d="M71.242,94.046l12.609-12.615v51.939l-12.609-12.61l-2.185-2.18h-3.083H42.872V96.228h23.102h3.083
			L71.242,94.046z M35.421,88.778v37.254h30.553l25.328,25.33V63.446L65.974,88.778H35.421z"/>
		<path fill="#E6E6E6" d="M143.655,51.78l-6.005,4.472c10.66,14.286,16.986,31.993,16.986,51.152s-6.326,36.87-16.986,51.146
			l5.994,4.474c11.587-15.521,18.439-34.767,18.439-55.62C162.084,86.553,155.231,67.301,143.655,51.78z"/>
		<path fill="#E6E6E6" d="M125.639,149.61c8.804-11.803,14.091-26.379,14.091-42.206c0-15.825-5.287-30.403-14.091-42.205
			l-5.976,4.439c7.887,10.56,12.613,23.606,12.613,37.765c0,14.162-4.727,27.204-12.613,37.765L125.639,149.61z"/>
		<path fill="#E6E6E6" d="M107.74,136.284c6.023-8.076,9.64-18.048,9.64-28.88c0-10.83-3.616-20.805-9.64-28.879l-5.967,4.438
			c5.101,6.832,8.157,15.278,8.157,24.441c0,9.165-3.057,17.608-8.157,24.442L107.74,136.284z"/>
	</g>
</g>
</svg>
