<?xml version="1.0" encoding="utf-8"?>
<!-- Generator: Adobe Illustrator 16.0.0, SVG Export Plug-In . SVG Version: 6.00 Build 0)  -->
<!DOCTYPE svg PUBLIC "-//W3C//DTD SVG 1.1//EN" "http://www.w3.org/Graphics/SVG/1.1/DTD/svg11.dtd">
<svg version="1.1" id="Layer_1" xmlns:xl="http://www.w3.org/1999/xlink"
	 xmlns="http://www.w3.org/2000/svg" xmlns:xlink="http://www.w3.org/1999/xlink" x="0px" y="0px" width="204.745px"
	 height="206.9px" viewBox="0 0 204.745 206.9" enable-background="new 0 0 204.745 206.9" xml:space="preserve">
<title>Layer 1</title>
<title>Canvas 4</title>
<title>Layer 1</title>
<path opacity="0.6" fill="none" stroke="#E6E6E6" stroke-width="3" stroke-linecap="round" stroke-linejoin="round" d="
	M101.995,201.924L101.995,201.924c-53.267,0-96.631-43.362-96.631-96.629c0-53.271,43.364-96.632,96.631-96.632
	c53.269,0,96.63,43.362,96.63,96.632C198.625,158.561,155.263,201.924,101.995,201.924z"/>
<path fill="#E6E6E6" d="M143.064,134.26h-9.145l-22.865-45.727l-15.24,30.484l-7.627-15.241L72.946,134.26H63.8V64.146h79.261
	v70.113H143.064z M144.584,55.002h-82.31c-4.204,0-7.62,3.412-7.62,7.62v88.409c0,4.203,3.412,7.622,7.62,7.622h82.31
	c4.21,0,7.626-3.411,7.626-7.622V62.621C152.21,58.413,148.794,55.002,144.584,55.002"/>
<path fill="#E6E6E6" d="M82.095,73.293c5.051,0,9.145,4.094,9.145,9.146c0,5.049-4.097,9.143-9.145,9.143
	c-5.052,0-9.147-4.095-9.147-9.143C72.946,77.386,77.043,73.293,82.095,73.293z"/>
</svg>
