<?xml version="1.0" encoding="utf-8"?>
<!-- Generator: Adobe Illustrator 21.0.2, SVG Export Plug-In . SVG Version: 6.00 Build 0)  -->
<svg version="1.1" id="Layer_1" xmlns="http://www.w3.org/2000/svg" xmlns:xlink="http://www.w3.org/1999/xlink" x="0px" y="0px"
	 viewBox="0 0 302 309.3" style="enable-background:new 0 0 302 309.3;" xml:space="preserve">
<style type="text/css">
	.st0{fill:none;stroke:#FDFFFE;stroke-width:5;stroke-miterlimit:10;}
	.st1{stroke:#F9F9F9;stroke-width:5;stroke-miterlimit:10;}
	.st2{fill:#58FF99;}
	.st3{fill:#FFE551;}
	.st4{fill:none;stroke:#3C3C3C;stroke-miterlimit:10;}
	.st5{fill:#FC4D54;}
	.st6{fill:none;stroke:#3C3C3C;stroke-linecap:round;stroke-linejoin:round;}
	.st7{fill:#23292A;}
	.st8{fill:none;stroke:#23292A;stroke-width:5;stroke-linecap:round;stroke-linejoin:round;}
</style>
<path id="Shape" class="st0" d="M151.4,296.6L151.4,296.6c-80,0-145.1-65.2-145.1-145.1c0-80,65-145.1,145.1-145.1
	s145.1,65.2,145.1,145.1C296.5,231.6,231.5,296.6,151.4,296.6L151.4,296.6z"/>
<title>Group 3</title>
<desc>Created with Sketch.</desc>
<path class="st1" d="M146.3,35.8v21.4h3V35.8c5.1-0.8,9.1-5.2,9.1-10.5c0-5.8-4.7-10.6-10.6-10.6c-5.8,0-10.6,4.7-10.6,10.6
	C137.2,30.6,141.2,35,146.3,35.8z M147.8,17.7c4.2,0,7.6,3.4,7.6,7.6s-3.4,7.6-7.6,7.6c-4.2,0-7.6-3.4-7.6-7.6
	S143.6,17.7,147.8,17.7z"/>
<g>
	<path id="Shape_3_" class="st2" d="M51.3,97c0.8,0,1.3,0.3,1.9,0.8c1.1,1.1,1,2.7-0.1,3.8c-14,13.5-21.9,31.7-22.2,51.1
		c-0.4,19.4,6.9,37.8,20.3,51.8c1.1,1.1,1,2.7-0.1,3.8c-1.1,1.1-2.7,1-3.8-0.1c-14.5-15.1-22.3-34.6-21.9-55.6
		c0.4-21,8.8-40.3,23.9-54.8C49.9,97.2,50.5,97,51.3,97L51.3,97z"/>
	<path id="Shape_2_" class="st2" d="M62.4,108.5c0.8,0,1.3,0.3,1.9,0.8c1.1,1.1,1,2.7-0.1,3.8c-11,10.6-16.9,24.5-17.2,39.6
		c-0.3,15.1,5.4,29.5,15.7,40.2c1.1,1.1,1,2.7-0.1,3.8c-1.1,1.1-2.7,1-3.8-0.1c-11.4-11.5-17.6-27-17.3-43.7
		c0.3-16.4,7-31.9,18.8-43.6C61,108.7,61.9,108.5,62.4,108.5L62.4,108.5z"/>
	<path id="Shape_1_" class="st2" d="M73.8,120.3c0.8,0,1.3,0.3,1.9,0.8c1.1,1.1,1,2.7-0.1,3.8c-15.9,15.3-16.4,41.2-1,57.1
		c1.1,1.1,1,2.7-0.1,3.8c-1.1,1.1-2.7,1-3.8-0.1c-17.5-18.1-16.9-47.2,1.2-64.6C72.4,120.5,73,120.3,73.8,120.3L73.8,120.3z"/>
</g>
<g>
	<path id="Shape_7_" class="st2" d="M241.1,208.6c-0.8,0-1.3-0.3-1.9-0.8c-1.1-1.1-1-2.7,0.1-3.8c14-13.5,21.9-31.7,22.2-51.1
		c0.4-19.4-6.9-37.8-20.3-51.8c-1.1-1.1-1-2.7,0.1-3.8c1.1-1.1,2.7-1,3.8,0.1c14.5,15.1,22.3,34.6,21.9,55.6
		c-0.4,21-8.8,40.3-23.9,54.8C242.4,208.4,241.9,208.6,241.1,208.6L241.1,208.6z"/>
	<path id="Shape_5_" class="st2" d="M230,197.1c-0.8,0-1.3-0.3-1.9-0.8c-1.1-1.1-1-2.7,0.1-3.8c11-10.6,16.9-24.5,17.2-39.6
		c0.3-15.1-5.4-29.5-15.7-40.2c-1.1-1.1-1-2.7,0.1-3.8c1.1-1.1,2.7-1,3.8,0.1c11.4,11.5,17.6,27,17.3,43.7
		c-0.3,16.4-7,31.9-18.8,43.6C231.3,196.9,230.5,197.1,230,197.1L230,197.1z"/>
	<path id="Shape_4_" class="st2" d="M218.6,185.3c-0.8,0-1.3-0.3-1.9-0.8c-1.1-1.1-1-2.7,0.1-3.8c15.9-15.3,16.4-41.2,1-57.1
		c-1.1-1.1-1-2.7,0.1-3.8c1.1-1.1,2.7-1,3.8,0.1c17.5,18.1,16.9,47.2-1.2,64.6C220,185.1,219.4,185.3,218.6,185.3L218.6,185.3z"/>
</g>
<circle class="st3" cx="141.3" cy="164.2" r="5.8"/>
<circle class="st4" cx="141.6" cy="164.4" r="5.8"/>
<g>
	<path class="st2" d="M98.5,43.7h96.7c8.2,0,15,14.4,15,31.9v151.8c0,17.5-6.8,31.9-15,31.9H98.5c-8.2,0-15-14.4-15-31.9V75.6
		C83.5,58.1,90.3,43.7,98.5,43.7z"/>
	<path class="st4" d="M99.1,43.8h96.1c8.2,0,15,14.4,15,31.9v151.8c0,17.5-6.8,31.9-15,31.9H99.1c-8.2,0-15-14.4-15-31.9V75.7
		C84.5,58.3,90.9,43.8,99.1,43.8z"/>
</g>
<g>
	<circle class="st5" cx="147.1" cy="231.7" r="12"/>
	<circle class="st6" cx="147.8" cy="232.4" r="12"/>
</g>
<ellipse transform="matrix(1 -5.726044e-03 5.726044e-03 1 -0.7144 0.6194)" class="st7" cx="107.8" cy="125.1" rx="7.3" ry="15.1"/>
<path class="st8" d="M179.8,152.5c0,0-9.6,21.1-34.3,21.5l0-0.1c-24.7,0.3-34.8-20.4-34.8-20.4"/>
<path d="M185.6,125.9l-4.5,0l0-4c-0.1-0.8-0.9-1.4-1.7-1.3c-0.7,0.1-1.2,0.6-1.3,1.3l0,4l-4.5,0c-0.7-0.1-1.4,0.5-1.5,1.2
	c-0.1,0.7,0.5,1.4,1.2,1.5c0.1,0,0.2,0,0.3,0l4.5,0l0,4c0.1,0.8,0.9,1.4,1.7,1.3c0.7-0.1,1.2-0.6,1.3-1.3l0-4l4.5,0
	c0.7,0.1,1.4-0.5,1.5-1.2s-0.5-1.4-1.2-1.5C185.8,125.9,185.7,125.9,185.6,125.9z"/>
</svg>
