<?xml version="1.0" encoding="utf-8"?>
<!-- Generator: Adobe Illustrator 21.0.2, SVG Export Plug-In . SVG Version: 6.00 Build 0)  -->
<svg version="1.1" id="Layer_1" xmlns:xl="http://www.w3.org/1999/xlink"
	 xmlns="http://www.w3.org/2000/svg" xmlns:xlink="http://www.w3.org/1999/xlink" x="0px" y="0px" viewBox="0 0 204.7 206.9"
	 style="enable-background:new 0 0 204.7 206.9;" xml:space="preserve">
<style type="text/css">
	.st0{fill:none;}
	.st1{fill:#1822CD;}
</style>
<title>Layer 1</title>
<title>Canvas 4</title>
<title>Layer 1</title>
<path class="st0" d="M-233,99.9h98v98h-98V99.9z"/>
<path id="XMLID_1_" class="st1" d="M102.8,4C47.7,4,3,48.7,3,103.8s44.7,99.9,99.8,99.9s99.9-44.7,99.9-99.9S157.9,4,102.8,4z
	 M123.6,158.7c-5.1,2-9.2,3.6-12.3,4.6c-3.1,1.1-6.6,1.6-10.7,1.6c-6.2,0-11.1-1.5-14.5-4.6c-3.4-3-5.2-6.9-5.2-11.6
	c0-1.8,0.1-3.7,0.4-5.6c0.3-1.9,0.7-4,1.2-6.4l6.4-22.7c0.6-2.2,1.1-4.3,1.4-6.2c0.4-1.9,0.6-3.7,0.6-5.4c0-2.9-0.6-4.9-1.8-6.1
	c-1.2-1.1-3.5-1.7-6.9-1.7c-1.7,0-3.4,0.2-5.1,0.8c-1.7,0.5-3.2,1-4.5,1.5l1.7-7c4.2-1.7,8.2-3.2,12.1-4.4c3.8-1.2,7.5-1.8,10.9-1.8
	c6.2,0,10.9,1.5,14.3,4.5c3.3,3,5,6.9,5,11.6c0,1-0.1,2.7-0.3,5.2c-0.2,2.5-0.7,4.8-1.3,6.9l-6.4,22.7c-0.5,1.8-1,3.9-1.4,6.2
	s-0.6,4.1-0.6,5.3c0,3,0.7,5.1,2,6.2c1.3,1.1,3.7,1.6,7,1.6c1.6,0,3.3-0.3,5.3-0.8s3.4-1,4.3-1.4L123.6,158.7z M122.5,66.8
	c-3,2.8-6.6,4.2-10.8,4.2c-4.2,0-7.8-1.4-10.8-4.2c-3-2.8-4.5-6.1-4.5-10.1c0-3.9,1.5-7.3,4.5-10.1s6.6-4.2,10.8-4.2
	c4.2,0,7.8,1.4,10.8,4.2s4.5,6.2,4.5,10.1C126.9,60.6,125.4,64,122.5,66.8z"/>
</svg>
