<?xml version="1.0" encoding="utf-8"?>
<!-- Generator: Adobe Illustrator 21.0.2, SVG Export Plug-In . SVG Version: 6.00 Build 0)  -->
<svg version="1.1" xmlns="http://www.w3.org/2000/svg" xmlns:xlink="http://www.w3.org/1999/xlink" x="0px" y="0px"
	 viewBox="0 0 588 560" style="enable-background:new 0 0 588 560;" xml:space="preserve">
<style type="text/css">
	.st0{fill:#E6E6E6;}
	.st1{fill:none;}
</style>
<g id="Capa_1">
	<g>
		<path class="st0" d="M169.9,536.6c-56.1-27.8-102.3-73.9-130.1-129.9c-2.8-5.7-9.7-8-15.4-5.2c-5.7,2.8-8,9.7-5.2,15.4
			c30.1,60.5,80,110.3,140.5,140.2c1.6,0.8,3.4,1.2,5.1,1.2c4.2,0,8.3-2.3,10.3-6.4C178,546.3,175.6,539.4,169.9,536.6z"/>
		<path class="st0" d="M463.9,128.5c4.5-4.5,4.5-11.8,0-16.3c-4.5-4.5-11.8-4.5-16.3,0l-9.6,9.6c-14.3-12.8-30.4-23.8-47.8-32.3
			l5.3-12.5c2.5-5.8-0.2-12.6-6.1-15.1c-5.8-2.5-12.6,0.2-15.1,6.1L369,80.5c-19-6.9-39.2-11.1-60.2-12.2V54.7
			c0-6.4-5.1-11.5-11.5-11.5s-11.5,5.2-11.5,11.5v13.5c-19.7,1.1-38.8,4.9-56.7,11l-5.1-12.5c-2.4-5.9-9.1-8.7-15-6.4
			c-5.9,2.4-8.7,9.1-6.4,15l5.1,12.6c-18.7,8.8-35.9,20.3-51.1,33.9l-9.6-9.6c-4.5-4.5-11.8-4.5-16.3,0c-4.5,4.5-4.5,11.8,0,16.3
			l9.6,9.6c-12.8,14.3-23.8,30.4-32.3,47.8l-12.5-5.3c-5.8-2.5-12.6,0.2-15.1,6.1c-2.5,5.8,0.2,12.6,6.1,15.1l12.5,5.3
			c-6.9,19-11.1,39.2-12.2,60.2H73.3c-6.4,0-11.5,5.1-11.5,11.5s5.1,11.5,11.5,11.5h13.5c1.1,19.7,4.9,38.8,11,56.7L85.3,352
			c-5.9,2.4-8.7,9.1-6.4,15c2.4,5.9,9.1,8.7,15,6.4l12.6-5.1c8.8,18.7,20.3,35.9,33.9,51.1l-9.6,9.6c-4.5,4.5-4.5,11.8,0,16.3
			c4.5,4.5,11.8,4.5,16.3,0l9.6-9.6c14.3,12.8,30.4,23.8,47.8,32.3l-5.3,12.5c-2.5,5.8,0.2,12.6,6.1,15.1c5.8,2.5,12.6-0.2,15.1-6.1
			l5.3-12.5c19,6.9,39.2,11.1,60.2,12.2v13.5c0,6.4,5.1,11.5,11.5,11.5s11.5-5.1,11.5-11.5v-13.5c19.7-1.1,38.8-4.9,56.7-11
			l5.1,12.5c2.4,5.9,9.1,8.7,15,6.4c5.9-2.4,8.7-9.1,6.4-15l-5.1-12.6c18.7-8.8,35.9-20.3,51.1-33.9l9.6,9.6
			c4.5,4.5,11.8,4.5,16.3,0s4.5-11.8,0-16.3l-9.6-9.6c12.8-14.3,23.8-30.4,32.3-47.8l12.5,5.3c5.8,2.5,12.6-0.2,15.1-6.1
			c2.5-5.8-0.2-12.6-6.1-15.1l-12.5-5.3c6.9-19,11.1-39.2,12.2-60.2h13.5c6.4,0,11.5-5.1,11.5-11.5s-5.2-11.5-11.5-11.5h-13.5
			c-1.1-19.7-4.9-38.8-11-56.7l12.5-5.1c5.9-2.4,8.7-9.1,6.4-15c-2.4-5.9-9.1-8.7-15-6.4l-12.6,5.1c-8.8-18.7-20.3-35.9-33.9-51.1
			L463.9,128.5z M471.4,208.1c0,0.1,0.1,0.2,0.1,0.3c0,0.1,0.1,0.2,0.1,0.3c8.7,21.7,13.5,45.3,13.5,70c0,78.6-48.5,146.1-117.2,174
			c-0.1,0-0.5,0.2-0.6,0.2c-21.7,8.7-45.3,13.5-70.1,13.5c-26,0-50.8-5.3-73.3-14.9c0,0,0,0-0.1,0c0,0,0,0,0,0
			c-45.5-19.4-81.9-56.3-100.6-102.2c0-0.1-0.1-0.2-0.1-0.3c0-0.1-0.1-0.2-0.1-0.3c-8.7-21.7-13.5-45.3-13.5-70
			c0-78.6,48.5-146.1,117.2-174c0.1,0,0.5-0.2,0.6-0.2c21.7-8.7,45.3-13.5,70-13.5C375.9,90.9,443.4,139.4,471.4,208.1z"/>
		<path class="st0" d="M297.4,10.2c-148.1,0-268.5,120.5-268.5,268.5s120.5,268.5,268.5,268.5c148.1,0,268.5-120.5,268.5-268.5
			S445.4,10.2,297.4,10.2z M297.4,524.3C162,524.3,51.8,414.1,51.8,278.8S162,33.2,297.4,33.2c135.4,0,245.5,110.1,245.5,245.5
			C542.9,414.1,432.7,524.3,297.4,524.3z"/>
		<path class="st0" d="M576.8,143.3C547.8,83.4,499.2,33.6,440.1,2.9c-5.6-2.9-12.6-0.7-15.5,4.9c-2.9,5.6-0.7,12.6,4.9,15.5
			c54.8,28.4,99.8,74.6,126.7,130c2,4.1,6.1,6.5,10.4,6.5c1.7,0,3.4-0.4,5-1.2C577.2,155.9,579.6,149,576.8,143.3z"/>
	</g>
	<g>
		<rect id="_x3C_Slice_x3E_" x="137.9" y="158.7" class="st1" width="387.1" height="114.4"/>
		<g>
			<path class="st0" d="M205.1,351.9c-3.7,3.2-3.7,8.4,0,11.6c3.7,3.2,9.8,3.2,13.6,0l21.3-18.2c1.9-1.6,2.8-3.7,2.8-5.8
				c0-2.1-0.9-4.2-2.8-5.8c-3.7-3.2-9.8-3.2-13.6,0L205.1,351.9z"/>
			<path class="st0" d="M271.5,345.8c-5.3,0-9.6,3.7-9.6,8.2v25.7c0,4.5,4.3,8.2,9.6,8.2c5.3,0,9.6-3.7,9.6-8.2V354
				C281,349.4,276.7,345.8,271.5,345.8z"/>
			<path class="st0" d="M301.1,349.1l21.3,18.2c3.7,3.2,9.8,3.2,13.6,0c1.9-1.6,2.8-3.7,2.8-5.8c0-2.1-0.9-4.2-2.8-5.8l-21.3-18.2
				c-3.7-3.2-9.8-3.2-13.6,0C297.3,340.7,297.3,345.9,301.1,349.1z"/>
		</g>
		<path class="st0" d="M225.9,307c0-4.5-4.3-8.2-9.6-8.2h-30.2c-5.3,0-9.6,3.7-9.6,8.2s4.3,8.2,9.6,8.2h30.2
			C221.6,315.1,225.9,311.5,225.9,307z"/>
		<path class="st0" d="M238.4,275.9c0-2.1-0.9-4.2-2.8-5.8L214.3,252c-3.7-3.2-9.8-3.2-13.6,0c-3.7,3.2-3.7,8.4,0,11.6l21.3,18.2
			c3.7,3.2,9.8,3.2,13.6,0C237.5,280.1,238.4,278,238.4,275.9z"/>
		<path class="st0" d="M278.6,313.7l93.3,0c6.4,0,11.7-5.2,11.7-11.7c-0.1-6.5-5.3-11.7-11.7-11.7l-68,0l87.3-87.3
			c4.6-4.6,4.5-12,0-16.5c-4.5-4.5-11.9-4.6-16.5,0l-87.3,87.3l0-68c0-6.4-5.3-11.7-11.7-11.7c-6.4,0-11.7,5.2-11.7,11.7l0,93.3
			c0,4,2.1,7.3,5.1,9.4C271.3,311.6,274.6,313.7,278.6,313.7L278.6,313.7z"/>
	</g>
</g>
<g id="Layer_2">
</g>
</svg>
