<?xml version="1.0" encoding="utf-8"?>
<!-- Generator: Adobe Illustrator 21.0.2, SVG Export Plug-In . SVG Version: 6.00 Build 0)  -->
<svg version="1.1" id="Layer_1" xmlns="http://www.w3.org/2000/svg" xmlns:xlink="http://www.w3.org/1999/xlink" x="0px" y="0px"
	 viewBox="0 0 588 560" style="enable-background:new 0 0 588 560;" xml:space="preserve">
<style type="text/css">
	.st0{fill:#FF0000;}
</style>
<g>
	<path class="st0" d="M170.8,529.9c-54.9-27.2-100.1-72.3-127.3-127.1c-2.7-5.6-9.5-7.8-15.1-5.1s-7.8,9.5-5.1,15.1
		C52.8,472,101.6,520.7,160.8,550c1.6,0.8,3.3,1.2,5,1.2c4.1,0,8.1-2.3,10.1-6.3C178.7,539.4,176.4,532.6,170.8,529.9z"/>
	<path class="st0" d="M458.4,130.6c4.4-4.4,4.4-11.5,0-15.9s-11.5-4.4-15.9,0l-9.4,9.4c-14-12.5-29.7-23.3-46.8-31.6l5.2-12.2
		c2.4-5.7-0.2-12.3-6-14.8c-5.7-2.4-12.3,0.2-14.8,6l-5.2,12.2c-18.6-6.8-38.4-10.9-58.9-11.9V58.4c0-6.3-5-11.3-11.3-11.3
		S284,52.2,284,58.4v13.2c-19.3,1.1-38,4.8-55.5,10.8l-5-12.2c-2.3-5.8-8.9-8.5-14.7-6.3c-5.8,2.3-8.5,8.9-6.3,14.7l5,12.3
		c-18.3,8.6-35.1,19.9-50,33.2l-9.4-9.4c-4.4-4.4-11.5-4.4-15.9,0c-4.4,4.4-4.4,11.5,0,15.9l9.4,9.4c-12.5,14-23.3,29.7-31.6,46.8
		l-12-5.2c-5.7-2.4-12.3,0.2-14.8,6c-2.4,5.7,0.2,12.3,6,14.8l12.2,5.2c-6.8,18.6-10.9,38.4-11.9,58.9H76.3c-6.3,0-11.3,5-11.3,11.3
		s5,11.3,11.3,11.3h13.2c1.1,19.3,4.8,38,10.8,55.5L88,349.3c-5.8,2.3-8.5,8.9-6.3,14.7c2.3,5.8,8.9,8.5,14.7,6.3l12.3-5
		c8.6,18.3,19.9,35.1,33.2,50l-9.4,9.4c-4.4,4.4-4.4,11.5,0,15.9s11.5,4.4,15.9,0l9.4-9.4c14,12.5,29.7,23.3,46.8,31.6l-5.2,12.2
		c-2.4,5.7,0.2,12.3,6,14.8c5.7,2.4,12.3-0.2,14.8-6l5.2-12.2c18.6,6.8,38.4,10.9,58.9,11.9v13.2c0,6.3,5,11.3,11.3,11.3
		s11.3-5,11.3-11.3v-13.2c19.3-1.1,38-4.8,55.5-10.8l5,12.2c2.3,5.8,8.9,8.5,14.7,6.3c5.8-2.3,8.5-8.9,6.3-14.7l-5-12.3
		c18.3-8.6,35.1-19.9,50-33.2l9.4,9.4c4.4,4.4,11.5,4.4,15.9,0s4.4-11.5,0-15.9l-9.4-9.4c12.5-14,23.3-29.7,31.6-46.8l12.2,5.2
		c5.7,2.4,12.3-0.2,14.8-6c2.4-5.7-0.2-12.3-6-14.8l-12.2-5.2c6.8-18.6,10.9-38.4,11.9-58.9h13.2c6.3,0,11.3-5,11.3-11.3
		S521,266,514.8,266h-13.2c-1.1-19.3-4.8-38-10.8-55.5l12.2-5c5.8-2.3,8.5-8.9,6.3-14.7c-2.3-5.8-8.9-8.5-14.7-6.3l-12.3,5
		c-8.6-18.3-19.9-35.1-33.2-50L458.4,130.6z M465.8,208.5c0,0.1,0.1,0.2,0.1,0.3s0.1,0.2,0.1,0.3c8.5,21.2,13.2,44.3,13.2,68.5
		c0,76.9-47.5,143-114.7,170.2c-0.1,0-0.5,0.2-0.6,0.2c-21.2,8.5-44.3,13.2-68.6,13.2c-25.4,0-49.7-5.2-71.7-14.6c0,0,0,0-0.1,0l0,0
		c-44.5-19-80.1-55.1-98.4-100c0-0.1-0.1-0.2-0.1-0.3c0-0.1-0.1-0.2-0.1-0.3c-8.5-21.2-13.2-44.3-13.2-68.5
		c0-76.9,47.5-143,114.7-170.2c0.1,0,0.5-0.2,0.6-0.2c21.2-8.5,44.3-13.2,68.5-13.2C372.3,93.8,438.4,141.3,465.8,208.5z"/>
	<path class="st0" d="M295.5,14.8c-144.9,0-262.7,117.9-262.7,262.7s117.9,262.7,262.7,262.7c144.9,0,262.7-117.9,262.7-262.7
		S440.3,14.8,295.5,14.8z M295.5,517.9C163,517.9,55.2,410,55.2,277.6S163,37.3,295.5,37.3S535.7,145,535.7,277.5
		S427.9,517.9,295.5,517.9z"/>
	<path class="st0" d="M568.9,145.1C540.5,86.5,493,37.7,435.1,7.7c-5.5-2.8-12.3-0.7-15.2,4.8s-0.7,12.3,4.8,15.2
		c53.6,27.8,97.6,73,124,127.2c2,4,6,6.4,10.2,6.4c1.7,0,3.3-0.4,4.9-1.2C569.3,157.4,571.6,150.6,568.9,145.1z"/>
</g>
<g>
	<g>
		<path class="st0" d="M388.3,209.3c3.9-3.4,3.9-8.9,0-12.3c-3.9-3.4-10.4-3.4-14.5,0l-22.6,19.4c-2.1,1.7-2.9,3.9-2.9,6.2
			s1,4.5,2.9,6.2c3.9,3.4,10.4,3.4,14.5,0L388.3,209.3z"/>
		<path class="st0" d="M317.5,215.8c5.7,0,10.2-3.9,10.2-8.7v-27.3c0-4.8-4.6-8.7-10.2-8.7c-5.7,0-10.2,3.9-10.2,8.7v27.3
			C307.4,212,312,215.8,317.5,215.8z"/>
		<path class="st0" d="M286.1,212.4L263.5,193c-3.9-3.4-10.4-3.4-14.5,0c-2.1,1.7-2.9,3.9-2.9,6.2s1,4.5,2.9,6.2l22.6,19.4
			c3.9,3.4,10.4,3.4,14.5,0C290.1,221.3,290.1,215.7,286.1,212.4z"/>
	</g>
	<path class="st0" d="M366.1,257.2c0,4.8,4.6,8.7,10.2,8.7h32.1c5.7,0,10.2-3.9,10.2-8.7c0-4.8-4.6-8.7-10.2-8.7h-32.1
		C370.6,248.5,366.1,252.4,366.1,257.2z"/>
	<path class="st0" d="M352.8,290.3c0,2.3,1,4.5,2.9,6.2l22.6,19.3c3.9,3.4,10.4,3.4,14.5,0c3.9-3.4,3.9-8.9,0-12.3l-22.6-19.4
		c-3.9-3.4-10.4-3.4-14.5,0C353.8,285.8,352.8,288,352.8,290.3z"/>
	<path class="st0" d="M310,250h-99.3c-6.9,0-12.4,5.5-12.4,12.4c0.1,7,5.7,12.4,12.4,12.4H283l-92.9,92.9c-4.9,4.9-4.8,12.7,0,17.5
		c4.8,4.8,12.6,4.9,17.5,0l92.9-92.9v72.4c0,6.9,5.7,12.4,12.4,12.4c6.9,0,12.4-5.5,12.4-12.4v-99.3c0-4.2-2.3-7.7-5.4-10
		C317.8,252.3,314.3,250,310,250L310,250z"/>
</g>
</svg>
