<?xml version="1.0" encoding="utf-8"?>
<!-- Generator: Adobe Illustrator 21.0.2, SVG Export Plug-In . SVG Version: 6.00 Build 0)  -->
<svg version="1.1" id="Layer_1" xmlns="http://www.w3.org/2000/svg" xmlns:xlink="http://www.w3.org/1999/xlink" x="0px" y="0px"
	 viewBox="0 0 631 631" style="enable-background:new 0 0 631 631;" xml:space="preserve">
<style type="text/css">
	.st0{fill:#1822CD;}
	.st1{fill:none;stroke:#1822CD;stroke-width:8;}
</style>
<title>Slice 1</title>
<desc>Created with Sketch.</desc>
<path id="Shape" class="st0" d="M500.5,130.5c-34-34-89.4-34-123.4,0L251.8,255.7l0,0L130.5,377.1c-34,34-34,89.4,0,123.4
	c17,17,39.4,25.5,61.7,25.5s44.7-8.5,61.7-25.5l125.2-125.2l0,0L500.5,254C534.5,219.9,534.5,164.6,500.5,130.5L500.5,130.5
	L500.5,130.5L500.5,130.5z M367.3,363.4L242.1,488.6c-27.5,27.5-72.2,27.5-99.7,0c-27.5-27.5-27.5-72.2,0-99.7l85-85
	c0,0.3-0.1,0.5-0.1,0.8c-2.3,16-0.1,32.5,6.2,47.3l0,0l-64,64c-12.6,12.6-12.6,33,0,45.6c6.1,6.1,14.2,9.4,22.8,9.4
	s16.7-3.3,22.8-9.4l118.4-118.4l2.9-2.9l3.9-3.9c12.6-12.6,12.6-33,0-45.6c-4-4-8.7-6.7-13.7-8.1l28.6-28.6c4.4,2.8,8.5,6,12.2,9.7
	c5.1,5.1,9.4,11,12.7,17.4C394.3,308.5,389.1,341.6,367.3,363.4L367.3,363.4L367.3,363.4L367.3,363.4z M241.9,367.3
	c3,4.2,6.3,8.2,10,11.9c3.7,3.7,7.7,7,11.9,10l-60.6,60.6c-6,6-15.8,6-21.9,0c-6-6-6-15.8,0-21.9L241.9,367.3L241.9,367.3
	L241.9,367.3L241.9,367.3z M302.6,328.4c-6-6-6-15.8,0-21.9l3.9-3.9c6-6,15.8-6,21.9,0c6,6,6,15.8,0,21.9l-3.9,3.9
	C318.5,334.4,308.7,334.4,302.6,328.4L302.6,328.4L302.6,328.4L302.6,328.4z M379.2,251.8c-3.7-3.7-7.7-7-11.9-10l60.6-60.6
	c6-6,15.8-6,21.9,0s6,15.8,0,21.9l-60.6,60.6C386.2,259.5,382.9,255.5,379.2,251.8L379.2,251.8L379.2,251.8L379.2,251.8z
	 M488.6,242.1l-85,85c0-0.3,0.1-0.5,0.1-0.8c2.3-16,0.1-32.5-6.2-47.3l0,0l64-64c12.6-12.6,12.6-33,0-45.6
	c-6.1-6.1-14.2-9.4-22.8-9.4c-8.6,0-16.7,3.3-22.8,9.4L297.5,287.9l-2.9,2.9l-3.9,3.9c-12.6,12.6-12.6,33,0,45.6
	c4,4,8.7,6.7,13.7,8.1L275.9,377c-4.4-2.8-8.5-6-12.2-9.7c-5.1-5.1-9.4-11-12.7-17.4c-14.2-27.4-9.1-60.5,12.7-82.3l125.2-125.2
	c27.5-27.5,72.2-27.5,99.7,0S516.1,214.6,488.6,242.1L488.6,242.1L488.6,242.1L488.6,242.1z"/>
<path id="Shape_1_" class="st0" d="M354.2,192.5l-84.7,84.7c-3.3,3.3-3.3,8.6,0,11.9c1.6,1.6,3.8,2.5,5.9,2.5s4.3-0.8,5.9-2.5
	l84.7-84.7c3.3-3.3,3.3-8.6,0-11.9C362.8,189.2,357.4,189.2,354.2,192.5L354.2,192.5L354.2,192.5L354.2,192.5z"/>
<circle id="path-1" class="st1" cx="315.5" cy="315.5" r="306.5"/>
</svg>
