<?xml version="1.0" encoding="utf-8"?>
<!-- Generator: Adobe Illustrator 21.0.2, SVG Export Plug-In . SVG Version: 6.00 Build 0)  -->
<svg version="1.1" id="Layer_1" xmlns:xl="http://www.w3.org/1999/xlink"
	 xmlns="http://www.w3.org/2000/svg" xmlns:xlink="http://www.w3.org/1999/xlink" x="0px" y="0px" viewBox="0 0 214.5 206.9"
	 style="enable-background:new 0 0 214.5 206.9;" xml:space="preserve">
<style type="text/css">
	.st0{fill:none;stroke:#E6E6E6;stroke-width:3;stroke-miterlimit:10;}
	.st1{fill:#E6E6E6;}
	.st2{fill:none;stroke:#E6E6E6;stroke-width:12;stroke-linecap:round;stroke-miterlimit:10;}
</style>
<path class="st0" d="M108.3,200.7L108.3,200.7c-54,0-97.9-43.9-97.9-97.9S54.3,4.9,108.3,4.9s97.9,43.9,97.9,97.9
	C206.2,156.8,162.3,200.7,108.3,200.7z"/>
<title>Canvas 4</title>
<path class="st1" d="M105.2,33.9L74.9,71c-2.1,2.5-2.1,6.7,0,9.3c2.1,2.5,5.5,2.5,7.6,0l22.1-27v69.3c0,3.7,2.4,6.6,5.4,6.6
	s5.4-2.9,5.4-6.6V53.2l22,27c2.1,2.5,5.5,2.5,7.6,0s2.1-6.7,0-9.3l-30.3-37.1c-1.3-1.6-3.1-2.1-4.7-1.7
	C108.3,31.8,106.5,32.3,105.2,33.9L105.2,33.9z"/>
<line class="st2" x1="56.5" y1="148.6" x2="162.3" y2="148.6"/>
</svg>
