<?xml version="1.0" encoding="utf-8"?>
<!-- Generator: Adobe Illustrator 16.0.0, SVG Export Plug-In . SVG Version: 6.00 Build 0)  -->
<!DOCTYPE svg PUBLIC "-//W3C//DTD SVG 1.1//EN" "http://www.w3.org/Graphics/SVG/1.1/DTD/svg11.dtd">
<svg version="1.1" id="Layer_1" xmlns:xl="http://www.w3.org/1999/xlink"
	 xmlns="http://www.w3.org/2000/svg" xmlns:xlink="http://www.w3.org/1999/xlink" x="0px" y="0px" width="57px" height="57.5px"
	 viewBox="-34.167 -40.834 57 57.5" enable-background="new -34.167 -40.834 57 57.5" xml:space="preserve">
<title>Layer 1</title>
<path fill="#E6E6E6" d="M14.285-2.6H9.874L-1.156-24.659L-8.508-9.953l-3.679-7.353L-19.539-2.6h-4.412v-33.823h38.235V-2.6z
	 M15.019-40.834h-39.706c-2.028,0-3.676,1.646-3.676,3.676V5.489c0,2.028,1.646,3.677,3.676,3.677h39.706
	c2.031,0,3.678-1.646,3.678-3.677v-42.647C18.697-39.188,17.05-40.834,15.019-40.834"/>
<path fill="#E6E6E6" d="M-15.126-32.011c2.437,0,4.411,1.975,4.411,4.412c0,2.436-1.976,4.411-4.411,4.411
	c-2.437,0-4.412-1.976-4.412-4.411C-19.539-30.036-17.563-32.011-15.126-32.011z"/>
</svg>
