<?xml version="1.0"?>
<!DOCTYPE svg PUBLIC "-//W3C//DTD SVG 1.1//EN" "http://www.w3.org/Graphics/SVG/1.1/DTD/svg11.dtd">
<svg xmlns="http://www.w3.org/2000/svg" xmlns:xl="http://www.w3.org/1999/xlink" version="1.1" viewBox="305 1704 31 40" width="31pt" height="40pt"><metadata xmlns:dc="http://purl.org/dc/elements/1.1/"><dc:date>2017-01-20 23:06Z</dc:date><!-- Produced by OmniGraffle Professional 5.4.2 --></metadata><defs></defs><g stroke="none" stroke-opacity="1" stroke-dasharray="none" fill="none" fill-opacity="1"><title>Canvas 4</title><g><title>Layer 1</title><path d="M 334.10913 1741.9966 L 306.8912 1741.9966 L 306.8912 1724.6074 L 334.10913 1724.6074 Z M 331.08491 1723.0953 L 330.32886 1723.0953 L 328.81675 1723.0953 L 327.5292 1723.0953 L 312.18358 1723.0953 L 312.18358 1714.0227 C 312.18358 1709.4372 315.91546 1705.7061 320.50168 1705.7061 C 325.08714 1705.7061 328.81675 1709.4372 328.81675 1714.0227 L 328.81675 1717.0469 L 330.32886 1717.0469 L 330.32886 1714.0227 C 330.32886 1708.595 325.92863 1704.194 320.50168 1704.194 C 315.07322 1704.194 310.67147 1708.595 310.67147 1714.0227 L 310.67147 1723.0953 L 305.3791 1723.0953 L 305.3791 1743.5087 L 335.62123 1743.5087 L 335.62123 1723.0953 Z" fill="#0b67f5"/></g></g></svg>
