<?xml version="1.0"?>
<!DOCTYPE svg PUBLIC "-//W3C//DTD SVG 1.1//EN" "http://www.w3.org/Graphics/SVG/1.1/DTD/svg11.dtd">
<svg xmlns="http://www.w3.org/2000/svg" xmlns:xl="http://www.w3.org/1999/xlink" version="1.1" viewBox="296 1450 49 51" width="49pt" height="51pt"><metadata xmlns:dc="http://purl.org/dc/elements/1.1/"><dc:date>2017-01-20 23:06Z</dc:date><!-- Produced by OmniGraffle Professional 5.4.2 --></metadata><defs></defs><g stroke="none" stroke-opacity="1" stroke-dasharray="none" fill="none" fill-opacity="1"><title>Canvas 4</title><g><title>Layer 1</title><path d="M 339.617 1488.3278 L 335.206 1488.3278 L 324.177 1466.2688 L 316.824 1480.9748 L 313.147 1473.6218 L 305.794 1488.3278 L 301.382 1488.3278 L 301.382 1454.5038 L 339.617 1454.5038 Z M 340.352 1450.0928 L 300.647 1450.0928 C 298.617 1450.0928 296.971 1451.7388 296.971 1453.7688 L 296.971 1496.4158 C 296.971 1498.4458 298.617 1500.0928 300.647 1500.0928 L 340.352 1500.0928 C 342.384 1500.0928 344.029 1498.4458 344.029 1496.4158 L 344.029 1453.7688 C 344.029 1451.7388 342.384 1450.0928 340.352 1450.0928" fill="#1086ec"/><path d="M 310.2059 1458.9161 C 312.6429 1458.9161 314.6179 1460.8911 314.6179 1463.3281 C 314.6179 1465.7641 312.6429 1467.7391 310.2059 1467.7391 C 307.7689 1467.7391 305.7939 1465.7641 305.7939 1463.3281 C 305.7939 1460.8911 307.7689 1458.9161 310.2059 1458.9161 Z" fill="#1086ec"/></g></g></svg>
