<?xml version="1.0" encoding="utf-8"?>
<!-- Generator: Adobe Illustrator 16.0.0, SVG Export Plug-In . SVG Version: 6.00 Build 0)  -->
<!DOCTYPE svg PUBLIC "-//W3C//DTD SVG 1.1//EN" "http://www.w3.org/Graphics/SVG/1.1/DTD/svg11.dtd">
<svg version="1.1" id="Layer_1" xmlns:xl="http://www.w3.org/1999/xlink"
	 xmlns="http://www.w3.org/2000/svg" xmlns:xlink="http://www.w3.org/1999/xlink" x="0px" y="0px" width="214.489px"
	 height="206.9px" viewBox="0 0 214.489 206.9" enable-background="new 0 0 214.489 206.9" xml:space="preserve">
<title>Layer 1</title>
<title>Canvas 4</title>
<title>Layer 1</title>
<path opacity="0.3" fill="none" stroke="#E6E6E6" stroke-width="3" stroke-linecap="round" stroke-linejoin="round" d="
	M110.002,197.92L110.002,197.92c-53.267,0-96.631-43.362-96.631-96.629c0-53.271,43.364-96.632,96.631-96.632
	c53.269,0,96.63,43.362,96.63,96.632C206.632,154.557,163.271,197.92,110.002,197.92z"/>
<g>
	<path fill="#E6E6E6" stroke="#E6E6E6" stroke-width="2" stroke-miterlimit="10" d="M113.811,144.731h6.817
		c0.661,0,1.198-0.535,1.198-1.195c0-0.662-0.537-1.198-1.198-1.198h-6.817c-0.662,0-1.196,0.535-1.196,1.198
		C112.615,144.198,113.15,144.731,113.811,144.731z"/>
	<path fill="#E6E6E6" stroke="#E6E6E6" stroke-width="2" stroke-miterlimit="10" d="M88.841,158.376h43.874
		c0.722,0,1.308-0.535,1.308-1.196c0-0.041,0-4.17,0.113-6.774c0.027-0.661-0.532-1.218-1.25-1.245
		c-0.693-0.032-1.327,0.489-1.356,1.147c-0.076,1.774-0.104,4.23-0.111,5.675H90.145v-11.47l19.208,0.219
		c0.658,0.011,1.312-0.521,1.321-1.183s-0.568-1.202-1.289-1.211l-20.529-0.23c-0.395,0-0.686,0.12-0.934,0.342
		c-0.248,0.225-0.387,0.532-0.387,0.853v13.879C87.536,157.841,88.119,158.376,88.841,158.376z"/>
</g>
<path fill="none" d="M103.63,71.188c-4.035,0-7.317,3.283-7.317,7.318c0,0.405,0.327,0.731,0.732,0.731
	c0.404,0,0.731-0.326,0.731-0.731c0-3.228,2.626-5.854,5.854-5.854c0.403,0,0.731-0.327,0.731-0.731
	C104.363,71.516,104.036,71.188,103.63,71.188z"/>
<g>
	<path fill="#E6E6E6" stroke="#E6E6E6" stroke-width="2" stroke-miterlimit="10" d="M137.221,103.24
		c0.179-0.096,0.339-0.226,0.457-0.387c16.538-5.299,27.464-19.548,26.673-34.947v-0.001c-0.348-6.799-3.174-12.143-7.754-14.658
		c-2.741-1.505-5.759-1.923-8.986-1.266c0.122-2.108,0.153-3.335,0.153-3.382c0.007-0.323-0.115-0.633-0.339-0.864
		c-0.223-0.23-0.532-0.36-0.854-0.36H73.746c-0.323,0-0.629,0.13-0.856,0.36c-0.226,0.228-0.348,0.541-0.339,0.864
		c0.001,0.046,0.033,1.297,0.159,3.44c-3.347-0.748-6.468-0.347-9.299,1.208c-4.579,2.515-7.405,7.858-7.755,14.658v0.001
		c-0.792,15.4,10.132,29.646,26.674,34.947c0.191,0.26,0.494,0.428,0.812,0.498c3.947,9.51,8.82,16.493,14.565,20.923v12.197H82.316
		c-0.66,0-1.196,0.534-1.196,1.194v25.086c0,0.66,0.534,1.194,1.196,1.194h55.375c0.661,0,1.198-0.534,1.198-1.194v-25.086
		c0-0.66-0.535-1.194-1.198-1.194h-15.389v-11.979C128.217,120.044,133.202,112.945,137.221,103.24z M147.451,55.454l0.006-0.997
		c2.906-0.725,5.591-0.43,7.989,0.885c5.449,2.992,6.374,9.869,6.52,12.686v-0.001c0.701,13.675-8.623,26.397-22.979,31.833
		c0.386-1.061,0.688-2.116,1.005-3.207c0.507-1.758,1.031-3.571,1.962-5.607c6.753-3.823,10.907-10.438,12.027-19.155
		c0.364-2.826,0.548-7.819-2.31-9.52c-1.215-0.721-2.693-0.687-4.407,0.102C147.427,60.115,147.438,57.756,147.451,55.454z
		 M146.553,65.674c1.742-1.26,3.125-1.704,3.894-1.245c1.156,0.689,1.624,3.564,1.162,7.158c-0.953,7.414-4.142,12.937-9.443,16.485
		c0.204-0.785,0.415-1.549,0.608-2.357c1.69-7.042,2.815-13.984,3.561-19.925C146.409,65.755,146.482,65.723,146.553,65.674z
		 M73.454,65.672c0.163,0.117,0.351,0.179,0.54,0.205c0.744,5.921,1.865,12.827,3.547,19.836c0.214,0.886,0.444,1.727,0.666,2.587
		c-5.518-3.537-8.833-9.133-9.81-16.714c-0.463-3.593,0.006-6.47,1.162-7.159C70.325,63.969,71.71,64.412,73.454,65.672z
		 M58.042,68.026c0.145-2.815,1.07-9.692,6.518-12.684c2.396-1.316,5.079-1.613,7.99-0.885l0.004,0.979
		c0.013,2.308,0.022,4.674,0.187,7.037c-1.717-0.788-3.193-0.821-4.408-0.101c-2.858,1.7-2.675,6.693-2.312,9.519
		c1.122,8.718,5.279,15.332,12.029,19.156c0.932,2.033,1.455,3.851,1.963,5.608c0.314,1.089,0.62,2.147,1.004,3.206
		C66.666,94.423,57.34,81.701,58.042,68.026z M136.493,138.862v22.691H83.511v-22.691H136.493z M119.905,136.47h-19.807v-10.528
		c2.491,1.553,5.125,2.681,7.913,3.337c0.404,0.155,1.385,0.476,2.146,0.432c0.056,0.002,0.114,0.008,0.169,0.008
		c0.737,0,1.579-0.29,1.825-0.393c2.731-0.646,5.313-1.723,7.755-3.206L119.905,136.47L119.905,136.47z M111.454,127.04
		c-0.407,0.154-0.916,0.304-1.103,0.284c-0.069-0.013-0.13-0.017-0.195-0.017c-0.056,0-0.109,0.004-0.169,0.012
		c-0.143,0.033-0.718-0.125-1.274-0.327c-29.422-6.957-33.3-67.782-33.725-77.228h70.34c-0.035,0.787-0.099,1.96-0.195,3.399
		c-0.042,0.12-0.061,0.245-0.063,0.375l-0.004,0.6C143.848,71.021,138.024,120.745,111.454,127.04z"/>
	<path fill="#E6E6E6" stroke="#E6E6E6" stroke-width="2" stroke-miterlimit="10" d="M128.978,77.289
		c-0.557-6.113-4.884-10.549-10.299-10.549c-3.605,0-6.91,1.942-8.77,5.053c-1.841-3.152-5.009-5.054-8.558-5.054
		c-5.415,0-9.743,4.436-10.297,10.548c-0.043,0.27-0.224,1.691,0.324,4.009c0.789,3.343,2.61,6.383,5.268,8.791l13.256,12.03
		l13.484-12.029c2.655-2.408,4.479-5.448,5.267-8.792C129.201,78.98,129.022,77.559,128.978,77.289z"/>
</g>
<path fill="#FAFAFA" stroke="#E6E6E6" stroke-width="2" stroke-miterlimit="10" d="M103.63,72.652c-3.227,0-5.854,2.626-5.854,5.854
	c0,0.405-0.328,0.731-0.732,0.731c-0.404,0-0.732-0.326-0.732-0.731c0-4.035,3.283-7.318,7.318-7.318
	c0.404,0,0.731,0.328,0.731,0.732C104.363,72.325,104.036,72.652,103.63,72.652z"/>
</svg>
