<?xml version="1.0" encoding="utf-8"?>
<!-- Generator: Adobe Illustrator 21.0.2, SVG Export Plug-In . SVG Version: 6.00 Build 0)  -->
<svg version="1.1" id="Layer_1" xmlns="http://www.w3.org/2000/svg" xmlns:xlink="http://www.w3.org/1999/xlink" x="0px" y="0px"
	 viewBox="0 0 588 560" style="enable-background:new 0 0 588 560;" xml:space="preserve">
<style type="text/css">
	.st0{fill:#E6E6E6;}
	.st1{fill:#E6E6E6;stroke:#E6E6E6;stroke-width:0.75;stroke-miterlimit:10;}
</style>
<path class="st0" d="M297.4,10.2c-148.1,0-268.5,120.5-268.5,268.5s120.5,268.5,268.5,268.5c148.1,0,268.5-120.5,268.5-268.5
	S445.4,10.2,297.4,10.2z M297.4,524.3C162,524.3,51.8,414.1,51.8,278.8S162,33.2,297.4,33.2s245.5,110.1,245.5,245.5
	S432.7,524.3,297.4,524.3z"/>
<g id="Layer_2">
</g>
<g>
	<path class="st0" d="M332.2,274.7l-88.5-88.5c-6-6-16-6.1-22.2,0c-6,6.2-6,16.1,0,22.2l64.5,64.5H120.3c-8.8,0-15.7,7.1-15.7,15.7
		s6.9,15.7,15.7,15.7H286l-64.5,64.5c-6,6-6,16.1,0,22.2c6,6.1,16,6.1,22.2,0l88.5-88.5c3.8-3.8,4.9-8.9,4.1-13.8
		C337.1,283.6,335.9,278.4,332.2,274.7L332.2,274.7z"/>
	<g>
		<path class="st0" d="M457.1,283.3c-0.1-4.3,3.3-7.9,7.6-8.1l5.2-0.2c4.3-0.1,7.9,3.3,8.1,7.6c0.1,4.3-3.3,7.9-7.6,8.1l-5.2,0.2
			C460.8,291,457.2,287.6,457.1,283.3z"/>
	</g>
	<g>
		<path class="st1" d="M379.5,285.7c-0.1-4.3,3.3-7.9,7.6-8.1l30.4-0.9c4.3-0.1,7.9,3.3,8.1,7.6c0.1,4.3-3.3,7.9-7.6,8.1l-30.4,0.9
			C383.2,293.4,379.6,290,379.5,285.7z"/>
	</g>
	<g>
		<path class="st0" d="M424.9,141.4c-0.1-2,0.6-4,2.1-5.6l3.5-3.8c2.9-3.2,7.9-3.3,11.1-0.4c3.2,2.9,3.3,7.9,0.4,11.1l-3.5,3.8
			c-2.9,3.2-7.9,3.3-11.1,0.4C425.8,145.4,425,143.4,424.9,141.4z"/>
	</g>
	<g>
		<path class="st0" d="M371.7,197.9c-0.1-2,0.6-4,2.1-5.6l20.9-22.2c3-3.1,7.9-3.3,11.1-0.3c3.1,3,3.3,7.9,0.3,11.1l-20.9,22.2
			c-3,3.1-7.9,3.3-11.1,0.3C372.6,201.9,371.8,199.9,371.7,197.9z"/>
	</g>
	<g>
		<path class="st0" d="M433.5,426.9c-0.1-2,0.6-4,2.1-5.6c3-3.2,7.9-3.3,11.1-0.3l3.8,3.6c3.2,3,3.3,7.9,0.3,11.1s-7.9,3.3-11.1,0.3
			l-3.8-3.6C434.4,430.9,433.6,428.9,433.5,426.9z"/>
	</g>
	<g>
		<path class="st0" d="M377,373.8c-0.1-2,0.6-4,2.1-5.6c3-3.2,7.9-3.3,11.1-0.3l22.2,20.8c3.2,3,3.3,7.9,0.3,11.1s-7.9,3.3-11.1,0.3
			l-22.2-20.8C377.9,377.7,377.1,375.7,377,373.8z"/>
	</g>
</g>
</svg>
