<?xml version="1.0" encoding="utf-8"?>
<!-- Generator: Adobe Illustrator 16.0.0, SVG Export Plug-In . SVG Version: 6.00 Build 0)  -->
<!DOCTYPE svg PUBLIC "-//W3C//DTD SVG 1.1//EN" "http://www.w3.org/Graphics/SVG/1.1/DTD/svg11.dtd">
<svg version="1.1" id="Layer_1" xmlns:xl="http://www.w3.org/1999/xlink"
	 xmlns="http://www.w3.org/2000/svg" xmlns:xlink="http://www.w3.org/1999/xlink" x="0px" y="0px" width="204.745px"
	 height="206.9px" viewBox="0 0 204.745 206.9" enable-background="new 0 0 204.745 206.9" xml:space="preserve">
<title>Layer 1</title>
<title>Canvas 4</title>
<title>Layer 1</title>
<path opacity="0.6" fill="none" stroke="#E6E6E6" stroke-width="3" stroke-linecap="round" stroke-linejoin="round" d="
	M101.995,201.924L101.995,201.924c-53.267,0-96.631-43.362-96.631-96.629c0-53.271,43.364-96.632,96.631-96.632
	c53.269,0,96.63,43.362,96.63,96.632C198.625,158.561,155.263,201.924,101.995,201.924z"/>
<g>
	<path fill="#E6E6E6" d="M146.292,37.793H57.697c-5.815,0-10.547,4.731-10.547,10.547v113.906c0,5.815,4.731,10.547,10.547,10.547
		h88.594c5.814,0,10.547-4.731,10.547-10.547V48.34C156.838,42.524,152.106,37.793,146.292,37.793z M152.62,162.246
		c0,3.489-2.839,6.328-6.328,6.328H57.697c-3.49,0-6.328-2.839-6.328-6.328V48.34c0-3.489,2.838-6.328,6.328-6.328h88.594
		c3.489,0,6.328,2.839,6.328,6.328V162.246z"/>
	<g>
		<title>Canvas 4</title>
		<g>
			<title>Layer 1</title>
			<path fill="#E6E6E6" d="M86.94,73.211v12.835h21.387v51.33h12.835V86.042h21.39V73.211H86.94z M61.272,107.429h12.833v29.946
				H86.94v-29.946h12.833V94.598h-38.5V107.429z"/>
		</g>
	</g>
</g>
</svg>
