<?xml version="1.0" encoding="utf-8"?>
<!-- Generator: Adobe Illustrator 16.0.0, SVG Export Plug-In . SVG Version: 6.00 Build 0)  -->
<!DOCTYPE svg PUBLIC "-//W3C//DTD SVG 1.1//EN" "http://www.w3.org/Graphics/SVG/1.1/DTD/svg11.dtd">
<svg version="1.1" id="Layer_1" xmlns:xl="http://www.w3.org/1999/xlink"
	 xmlns="http://www.w3.org/2000/svg" xmlns:xlink="http://www.w3.org/1999/xlink" x="0px" y="0px" width="41px" height="61px"
	 viewBox="0 0 41 61" enable-background="new 0 0 41 61" xml:space="preserve">
<g>
	<title>Canvas 4</title>
	<title>Layer 1</title>
</g>
<g>
	<path fill="#E6E6E6" stroke="#E6E6E6" stroke-width="2" stroke-miterlimit="10" d="M19.994,14.18c-3.859,0-7,3.14-7,6.998
		c0,3.859,3.141,6.999,7,6.999s7-3.14,7-6.999C26.994,17.32,23.854,14.18,19.994,14.18z M19.994,26.177c-2.762,0-5-2.237-5-4.999
		c0-2.759,2.238-4.998,5-4.998c2.762,0,5,2.239,5,4.998C24.994,23.939,22.756,26.177,19.994,26.177z"/>
	<path fill="#E6E6E6" stroke="#E6E6E6" stroke-width="2" stroke-miterlimit="10" d="M19.994,1.177c-11.045,0-20,8.957-20,20.001
		c0,3.646,0.98,7.057,2.687,10.002l17.313,30l17.312-30c1.705-2.945,2.688-6.354,2.688-10.002
		C39.994,10.134,31.039,1.177,19.994,1.177z M35.574,30.179l-15.58,26.999L4.41,30.177c-1.58-2.732-2.416-5.843-2.416-8.999
		c0-9.926,8.074-18.001,18-18.001c9.926,0,18,8.075,18,18.001C37.994,24.334,37.158,27.445,35.574,30.179z"/>
</g>
</svg>
