<?xml version="1.0"?>
<!DOCTYPE svg PUBLIC "-//W3C//DTD SVG 1.1//EN" "http://www.w3.org/Graphics/SVG/1.1/DTD/svg11.dtd">
<svg xmlns="http://www.w3.org/2000/svg" xmlns:xl="http://www.w3.org/1999/xlink" version="1.1" viewBox="423 1266 45 45" width="45pt" height="45pt"><metadata xmlns:dc="http://purl.org/dc/elements/1.1/"><dc:date>2017-01-20 23:06Z</dc:date><!-- Produced by OmniGraffle Professional 5.4.2 --></metadata><defs></defs><g stroke="none" stroke-opacity="1" stroke-dasharray="none" fill="none" fill-opacity="1"><title>Canvas 4</title><g><title>Layer 1</title><path d="M 445.3784 1308.7398 C 434.2624 1308.7398 425.3784 1299.8558 425.3784 1288.7398 C 425.3784 1277.6238 434.2624 1268.7398 445.3784 1268.7398 C 456.4944 1268.7398 465.3784 1277.6238 465.3784 1288.7398 C 465.3784 1299.8558 456.4944 1308.7398 445.3784 1308.7398 M 445.3784 1266.7398 C 433.2284 1266.7398 423.3784 1276.5898 423.3784 1288.7398 C 423.3784 1300.8898 433.2284 1310.7398 445.3784 1310.7398 C 457.5284 1310.7398 467.3784 1300.8898 467.3784 1288.7398 C 467.3784 1276.5898 457.5284 1266.7398 445.3784 1266.7398" fill="#0f6df0"/><path d="M 446.3786 1277.74 L 444.3786 1277.74 L 444.3786 1287.74 L 434.3786 1287.74 L 434.3786 1289.74 L 444.3786 1289.74 L 444.3786 1299.74 L 446.3786 1299.74 L 446.3786 1289.74 L 456.3786 1289.74 L 456.3786 1287.74 L 446.3786 1287.74 Z" fill="#0f6df0"/></g></g></svg>
