<?xml version="1.0" encoding="utf-8"?>
<!-- Generator: Adobe Illustrator 16.0.0, SVG Export Plug-In . SVG Version: 6.00 Build 0)  -->
<!DOCTYPE svg PUBLIC "-//W3C//DTD SVG 1.1//EN" "http://www.w3.org/Graphics/SVG/1.1/DTD/svg11.dtd">
<svg version="1.1" id="Layer_1" xmlns:xl="http://www.w3.org/1999/xlink"
	 xmlns="http://www.w3.org/2000/svg" xmlns:xlink="http://www.w3.org/1999/xlink" x="0px" y="0px" width="41px" height="36px"
	 viewBox="0 0 41 36" enable-background="new 0 0 41 36" xml:space="preserve">
<title>Canvas 4</title>
<g>
	<title>Layer 1</title>
	<path fill="#0C6BEB" stroke="#0C6BEB" stroke-width="2" stroke-miterlimit="10" d="M32.574,25.908c0,0.683-0.556,1.238-1.237,1.238
		H28.86h-1.237v1.237v1.917l-2.793-2.793l-0.362-0.361h-0.512H6.587c-0.682,0-1.238-0.556-1.238-1.238V9.815
		c0-0.682,0.556-1.237,1.238-1.237h24.75c0.682,0,1.237,0.555,1.237,1.237V25.908z M31.337,7.34H6.587
		c-1.367,0-2.475,1.108-2.475,2.475v16.093c0,1.367,1.108,2.476,2.475,2.476h17.369l4.904,4.902v-4.902h2.477
		c1.366,0,2.475-1.108,2.475-2.476V9.815C33.812,8.448,32.703,7.34,31.337,7.34"/>
	<path fill="#0C6BEB" stroke="#0C6BEB" stroke-width="2" stroke-miterlimit="10" d="M18.871,16.071
		c-1.066,0-1.929,0.865-1.929,1.929s0.863,1.929,1.929,1.929s1.93-0.864,1.93-1.929S19.937,16.071,18.871,16.071z"/>
	<path fill="#0C6BEB" stroke="#0C6BEB" stroke-width="2" stroke-miterlimit="10" d="M26.588,16.071
		c-1.065,0-1.929,0.865-1.929,1.929s0.863,1.929,1.929,1.929c1.064,0,1.929-0.864,1.929-1.929S27.652,16.071,26.588,16.071z"/>
	<path fill="#0C6BEB" stroke="#0C6BEB" stroke-width="2" stroke-miterlimit="10" d="M11.336,16.071
		c-1.064,0-1.929,0.865-1.929,1.929s0.864,1.929,1.929,1.929c1.065,0,1.929-0.864,1.929-1.929S12.401,16.071,11.336,16.071z"/>
</g>
</svg>
