<?xml version="1.0" encoding="utf-8"?>
<!-- Generator: Adobe Illustrator 21.0.2, SVG Export Plug-In . SVG Version: 6.00 Build 0)  -->
<svg version="1.1" id="Layer_1" xmlns:xl="http://www.w3.org/1999/xlink"
	 xmlns="http://www.w3.org/2000/svg" xmlns:xlink="http://www.w3.org/1999/xlink" x="0px" y="0px" viewBox="0 0 88.6 85.7"
	 style="enable-background:new 0 0 88.6 85.7;" xml:space="preserve">
<style type="text/css">
	.st0{fill:#1822CD;}
</style>
<title>Layer 1</title>
<title>Canvas 4</title>
<title>Layer 1</title>
<polygon class="st0" points="62.1,68 44.1,54.9 26.1,68 33,46.7 15,33.5 37.3,33.6 44.2,12.4 51.1,33.6 73.4,33.7 55.3,46.8 "/>
<g>
	<g>
		<g>
			<circle class="st0" cx="10" cy="22.8" r="1.7"/>
		</g>
	</g>
	<g>
		<g>
			<circle class="st0" cx="33.1" cy="4.9" r="1.7"/>
		</g>
	</g>
	<g>
		<g>
			<circle class="st0" cx="12.5" cy="69" r="1.7"/>
		</g>
	</g>
	<g>
		<g>
			<circle class="st0" cx="75.4" cy="69" r="1.7"/>
		</g>
	</g>
	<g>
		<g>
			<circle class="st0" cx="61.9" cy="78.6" r="1.7"/>
		</g>
	</g>
	<g>
		<g>
			<circle class="st0" cx="2.9" cy="37.6" r="1.7"/>
		</g>
	</g>
	<g>
		<g>
			<circle class="st0" cx="85.6" cy="35.6" r="1.7"/>
		</g>
	</g>
	<g>
		<g>
			<circle class="st0" cx="77.3" cy="22.8" r="1.7"/>
		</g>
	</g>
	<g>
		<g>
			<circle class="st0" cx="31.1" cy="78.6" r="1.7"/>
		</g>
	</g>
	<g>
		<g>
			<circle class="st0" cx="54.9" cy="6.1" r="1.7"/>
		</g>
	</g>
</g>
<g>
	<g>
		<g>
			<path class="st0" d="M12.3,60.9c-0.4,0-0.8-0.2-1.1-0.5c-0.6-0.6-0.6-1.6,0-2.3l5.1-5.3c0.6-0.6,1.6-0.6,2.3,0
				c0.6,0.6,0.6,1.6,0,2.3l-5.1,5.3C13.2,60.7,12.7,60.9,12.3,60.9z"/>
		</g>
	</g>
	<g>
		<g>
			<path class="st0" d="M5.7,49.5c-0.8,0-1.5-0.6-1.6-1.5s0.6-1.7,1.5-1.7l11.1-0.9c0.9-0.1,1.7,0.6,1.7,1.5
				c0.1,0.9-0.6,1.7-1.5,1.7L5.8,49.5H5.7z"/>
		</g>
	</g>
	<g>
		<g>
			<path class="st0" d="M61.7,18.9c-0.3,0-0.5-0.1-0.7-0.2c-0.8-0.4-1.1-1.4-0.7-2.2l5-9.4c0.4-0.8,1.4-1.1,2.2-0.7
				c0.8,0.4,1.1,1.4,0.7,2.2l-5,9.4C62.8,18.6,62.3,18.9,61.7,18.9z"/>
		</g>
	</g>
	<g>
		<g>
			<path class="st0" d="M66.1,23.7c-0.6,0-1.2-0.3-1.5-0.9c-0.4-0.8,0-1.8,0.8-2.1l5.2-2.4c0.8-0.4,1.8,0,2.1,0.8
				c0.4,0.8,0,1.8-0.8,2.1l-5.2,2.4C66.6,23.7,66.3,23.7,66.1,23.7z"/>
		</g>
	</g>
	<g>
		<g>
			<path class="st0" d="M74.1,50.7c-0.8,0-1.5-0.7-1.6-1.5c-0.1-0.9,0.6-1.6,1.5-1.7l7.3-0.4c0.9-0.1,1.6,0.6,1.7,1.5
				s-0.6,1.6-1.5,1.7L74.1,50.7L74.1,50.7z"/>
		</g>
	</g>
	<g>
		<g>
			<path class="st0" d="M79.4,62c-0.3,0-0.6-0.1-0.8-0.2l-7.7-4.5c-0.8-0.4-1-1.4-0.6-2.2s1.4-1,2.2-0.6l7.7,4.5
				c0.8,0.4,1,1.4,0.6,2.2C80.5,61.7,80,62,79.4,62z"/>
		</g>
	</g>
	<g>
		<g>
			<path class="st0" d="M39.9,78.9c-0.1,0-0.1,0-0.2,0c-0.9-0.1-1.5-0.9-1.4-1.8l0.6-5.3c0.1-0.9,0.9-1.5,1.8-1.4
				c0.9,0.1,1.5,0.9,1.4,1.8l-0.6,5.3C41.4,78.3,40.7,78.9,39.9,78.9z"/>
		</g>
	</g>
	<g>
		<g>
			<path class="st0" d="M51.2,81.9c-0.7,0-1.3-0.4-1.5-1.1l-3.6-11.3c-0.3-0.8,0.2-1.7,1-2s1.7,0.2,2,1l3.6,11.3
				c0.3,0.8-0.2,1.7-1,2C51.5,81.9,51.4,81.9,51.2,81.9z"/>
		</g>
	</g>
	<g>
		<g>
			<path class="st0" d="M24.7,24.4c-0.1,0-0.3,0-0.4,0l-5.1-1.3c-0.9-0.2-1.4-1.1-1.2-1.9c0.2-0.9,1.1-1.4,1.9-1.2l5.1,1.3
				c0.9,0.2,1.4,1.1,1.2,1.9C26.1,23.9,25.4,24.4,24.7,24.4z"/>
		</g>
	</g>
	<g>
		<g>
			<path class="st0" d="M30.7,19.9c-0.5,0-1-0.2-1.3-0.7L22,8.7C21.5,8,21.6,7,22.4,6.5c0.7-0.5,1.7-0.3,2.2,0.4L32,17.4
				c0.5,0.7,0.3,1.7-0.4,2.2C31.3,19.8,31,19.9,30.7,19.9z"/>
		</g>
	</g>
</g>
</svg>
