<?xml version="1.0" encoding="utf-8"?>
<!-- Generator: Adobe Illustrator 21.0.2, SVG Export Plug-In . SVG Version: 6.00 Build 0)  -->
<svg version="1.1" id="Layer_1" xmlns:xl="http://www.w3.org/1999/xlink"
	 xmlns="http://www.w3.org/2000/svg" xmlns:xlink="http://www.w3.org/1999/xlink" x="0px" y="0px" viewBox="0 0 204.7 206.9"
	 style="enable-background:new 0 0 204.7 206.9;" xml:space="preserve">
<style type="text/css">
	.st0{fill:none;stroke:#1822CD;stroke-miterlimit:10;}
	.st1{fill:#1822CD;}
</style>
<title>Layer 1</title>
<title>Canvas 4</title>
<title>Layer 1</title>
<path class="st0" d="M102,201.9L102,201.9c-53.3,0-96.6-43.4-96.6-96.6C5.4,52,48.7,8.7,102,8.7c53.3,0,96.6,43.4,96.6,96.6
	C198.6,158.6,155.3,201.9,102,201.9z"/>
<g>
	<g>
		<path class="st1" d="M125,63.7c-0.4-0.4-1-0.4-1.4,0c-0.4,0.4-0.4,1,0,1.4c5.2,5.2,8,12,8,19.3s-2.9,14.2-8,19.3
			c-0.4,0.4-0.4,1,0,1.4c0.2,0.2,0.4,0.3,0.7,0.3c0.2,0,0.5-0.1,0.7-0.3c5.6-5.6,8.6-12.9,8.6-20.8S130.6,69.2,125,63.7z"/>
		<path class="st1" d="M120.8,67.9c-0.4-0.4-1-0.4-1.4,0c-0.4,0.4-0.4,1,0,1.4c8.3,8.3,8.3,21.8,0,30.1c-0.4,0.4-0.4,1,0,1.4
			c0.2,0.2,0.4,0.3,0.7,0.3s0.5-0.1,0.7-0.3C129.8,91.8,129.8,77,120.8,67.9z"/>
		<path class="st1" d="M116.4,72.3c-0.4-0.4-1-0.4-1.4,0c-0.4,0.4-0.4,1,0,1.4c5.9,5.9,5.9,15.6,0,21.5c-0.4,0.4-0.4,1,0,1.4
			c0.2,0.2,0.4,0.3,0.7,0.3s0.5-0.1,0.7-0.3c3.2-3.2,5-7.6,5-12.2C121.5,79.8,119.7,75.5,116.4,72.3z"/>
	</g>
	<path class="st1" d="M107.2,64.5c-2.2,0-4,1.8-4,4v1.3l-30.9,9.7c-0.2-1.7-1.7-3.1-3.4-3.1c-1.9,0-3.5,1.6-3.5,3.5v9
		c0,1.9,1.6,3.5,3.5,3.5c1.8,0,3.2-1.3,3.4-3.1l2.1,0.7c-0.3,0.3-0.6,0.7-0.7,1.2C73.1,93,74,95,75.8,95.6l11.4,3.7
		c0.3,0.1,0.7,0.1,1,0.1c1.5,0,2.8-0.9,3.2-2.4c0.1-0.5,0.2-1,0.1-1.6l11.6,3.6v1.3c0,2.2,1.8,4,4,4s4-1.8,4-4V68.5
		C111.2,66.3,109.4,64.5,107.2,64.5z M70.4,80.1v8.6v0.1c0,0.8-0.7,1.5-1.5,1.5c-0.8,0-1.5-0.7-1.5-1.5V80c0-0.8,0.7-1.5,1.5-1.5
		c0.8,0,1.5,0.7,1.5,1.5V80.1z M89.6,96.4c-0.2,0.7-1,1.1-1.8,0.9l-11.4-3.7c-0.7-0.2-1.1-1-0.9-1.8c0.2-0.6,0.7-1,1.3-1
		c0.1,0,0.3,0,0.4,0l11.4,3.7c0.3,0.1,0.6,0.3,0.8,0.7C89.7,95.7,89.7,96.1,89.6,96.4z M109.2,100.4c0,1.1-0.9,2-2,2
		c-1.1,0-2-0.9-2-2v-0.6V69.1v-0.6c0-1.1,0.9-2,2-2c1.1,0,2,0.9,2,2V100.4z"/>
</g>
<g id="Layer_2">
	<g id="Layer_1-2">
		<path class="st1" d="M144.7,84.5L144.7,84.5c0,23.4-19,42.4-42.7,42.4s-42.7-19-42.7-42.4S78.4,42.2,102,42.2
			S144.7,61.1,144.7,84.5z M158.9,84.5L158.9,84.5c0-31.2-25.5-56.5-56.9-56.5S45.1,53.3,45.1,84.5c0,0,0,43.8,56.9,108.3
			C102,192.8,158.9,129.4,158.9,84.5z"/>
	</g>
</g>
</svg>
