<?xml version="1.0" encoding="utf-8"?>
<!-- Generator: Adobe Illustrator 16.0.0, SVG Export Plug-In . SVG Version: 6.00 Build 0)  -->
<!DOCTYPE svg PUBLIC "-//W3C//DTD SVG 1.1//EN" "http://www.w3.org/Graphics/SVG/1.1/DTD/svg11.dtd">
<svg version="1.1" id="Layer_1" xmlns="http://www.w3.org/2000/svg" xmlns:xlink="http://www.w3.org/1999/xlink" x="0px" y="0px"
	 width="560px" height="560px" viewBox="200 0 560 560" enable-background="new 200 0 560 560" xml:space="preserve">
<g>
	<g>
		<g>
			<path fill="#E6E6E6" d="M726.049,33.951c-45.27-45.268-118.926-45.268-164.195,0L395.32,200.486
				c-0.002,0.002-0.003,0.003-0.006,0.005L233.952,361.854c-45.269,45.271-45.269,118.928,0,164.195
				C256.587,548.684,286.317,560,316.049,560c29.732,0,59.463-11.317,82.1-33.951l166.532-166.534
				c0.002-0.003,0.003-0.004,0.008-0.006l161.359-161.362C771.317,152.877,771.317,79.22,726.049,33.951z M548.912,343.733
				l-166.54,166.538c-36.57,36.567-96.074,36.567-132.642,0c-36.569-36.568-36.569-96.072,0-132.644l113.044-113.044
				c-0.054,0.342-0.121,0.68-0.171,1.024c-3.115,21.25-0.189,43.292,8.221,62.933l-0.014,0.001l-85.083,85.084
				c-16.72,16.721-16.72,43.926,0,60.647c8.09,8.09,18.86,12.545,30.324,12.545c11.465,0,22.233-4.455,30.323-12.545
				l157.541-157.539l3.822-3.823l5.178-5.178c16.72-16.722,16.72-43.926,0-60.647c-5.268-5.268-11.576-8.875-18.271-10.824
				l38.105-38.106c5.834,3.69,11.248,8.021,16.161,12.934c6.821,6.822,12.521,14.611,16.938,23.15
				C584.732,270.719,577.924,314.721,548.912,343.733z M382.079,348.827c3.926,5.649,8.34,10.963,13.236,15.856
				c4.896,4.896,10.208,9.312,15.858,13.235l-80.577,80.575c-8.021,8.021-21.073,8.021-29.094,0c-8.021-8.021-8.021-21.072,0-29.094
				L382.079,348.827z M462.865,297.137c-8.021-8.021-8.021-21.074,0-29.095l5.178-5.178c8.021-8.021,21.073-8.021,29.095,0
				c8.021,8.022,8.021,21.074,0,29.095l-5.177,5.178C483.938,305.158,470.887,305.156,462.865,297.137z M564.688,195.314
				c-4.896-4.896-10.206-9.31-15.857-13.235l80.577-80.576c8.021-8.021,21.072-8.021,29.094,0c8.022,8.021,8.021,21.073,0,29.094
				l-80.576,80.576C573.997,205.521,569.583,200.21,564.688,195.314z M710.273,182.37L597.229,295.414
				c0.056-0.342,0.121-0.68,0.173-1.023c3.113-21.25,0.188-43.292-8.223-62.934l0.016-0.001l85.084-85.083
				c16.72-16.721,16.72-43.926,0-60.647c-8.093-8.09-18.86-12.545-30.324-12.545c-11.465,0-22.233,4.455-30.323,12.545
				L456.09,243.265l-3.823,3.823l-5.178,5.178c-16.72,16.72-16.72,43.925,0,60.647c5.27,5.268,11.576,8.875,18.271,10.824
				l-38.106,38.104c-5.834-3.688-11.248-8.021-16.161-12.935c-6.819-6.821-12.521-14.61-16.94-23.149
				c-18.88-36.478-12.071-80.48,16.94-109.492L577.631,49.728c36.569-36.57,96.073-36.57,132.645,0
				C746.842,86.297,746.842,145.801,710.273,182.37z"/>
			<path fill="#E6E6E6" d="M576.975,71.311L559.126,89.16c-4.356,4.356-4.356,11.42,0,15.777c2.179,2.179,5.033,3.268,7.888,3.268
				c2.855,0,5.711-1.089,7.891-3.268l17.849-17.849c4.356-4.356,4.356-11.42,0-15.777C588.395,66.955,581.331,66.955,576.975,71.311
				z"/>
			<path fill="#E6E6E6" d="M531.237,117.049L418.565,229.72c-4.356,4.356-4.356,11.42,0,15.777c2.179,2.179,5.031,3.268,7.889,3.268
				c2.854,0,5.71-1.089,7.888-3.268l112.672-112.671c4.355-4.356,4.355-11.42,0-15.777
				C542.657,112.692,535.594,112.692,531.237,117.049z"/>
		</g>
	</g>
</g>
</svg>
