<?xml version="1.0" encoding="utf-8"?>
<!-- Generator: Adobe Illustrator 16.0.0, SVG Export Plug-In . SVG Version: 6.00 Build 0)  -->
<!DOCTYPE svg PUBLIC "-//W3C//DTD SVG 1.1//EN" "http://www.w3.org/Graphics/SVG/1.1/DTD/svg11.dtd">
<svg version="1.1" id="Layer_1" xmlns="http://www.w3.org/2000/svg" xmlns:xlink="http://www.w3.org/1999/xlink" x="0px" y="0px"
	 width="960px" height="560px" viewBox="0 0 960 560" enable-background="new 0 0 960 560" xml:space="preserve">
<g>
	<title>Canvas 1</title>
	<title>Layer 1</title>
</g>
<g>
	<path fill="#0B67F5" stroke="#0B67F5" stroke-width="2" stroke-miterlimit="10" d="M206.227,357.439
		c0.268,0.038,0.535,0.063,0.803,0.063c2.665,0,4.997-1.957,5.398-4.672c0.51-3.474,1.147-6.909,1.912-10.319
		c0.657-2.943-1.198-5.862-4.143-6.52c-2.951-0.669-5.864,1.198-6.52,4.143c-0.822,3.665-1.511,7.368-2.059,11.104
		C201.179,354.228,203.244,357.007,206.227,357.439z"/>
	<path fill="#0B67F5" stroke="#0B67F5" stroke-width="2" stroke-miterlimit="10" d="M207.591,398.695
		c2.989-0.42,5.067-3.188,4.653-6.163c-0.874-6.252-1.319-12.689-1.319-19.12l0.006-1.766c0.038-3.021-2.377-5.494-5.392-5.532
		h-0.064c-2.989,0-5.424,2.401-5.462,5.397l-0.013,1.9c0,6.928,0.478,13.868,1.428,20.625c0.376,2.732,2.722,4.71,5.398,4.71
		C207.081,398.747,207.336,398.728,207.591,398.695z"/>
	<path fill="#0B67F5" stroke="#0B67F5" stroke-width="2" stroke-miterlimit="10" d="M447.707,458.792
		c-2.83-1.064-5.979,0.338-7.049,3.154c-2.575,6.729-5.628,12.996-9.089,18.616c-1.581,2.562-0.777,5.929,1.791,7.516
		c0.892,0.548,1.88,0.814,2.854,0.814c1.835,0,3.626-0.924,4.652-2.601c3.816-6.201,7.177-13.078,9.994-20.439
		C451.939,463.023,450.53,459.869,447.707,458.792z"/>
	<path fill="#0B67F5" stroke="#0B67F5" stroke-width="2" stroke-miterlimit="10" d="M223.671,430.276
		c-3.008-6.105-5.532-12.619-7.508-19.375c-0.835-2.9-3.869-4.525-6.769-3.724c-2.894,0.849-4.563,3.875-3.709,6.775
		c2.142,7.361,4.901,14.474,8.196,21.153c0.95,1.925,2.887,3.047,4.901,3.047c0.816,0,1.638-0.186,2.409-0.567
		C223.895,436.248,225.003,432.979,223.671,430.276z"/>
	<path fill="#0B67F5" stroke="#0B67F5" stroke-width="2" stroke-miterlimit="10" d="M325.119,481.749
		c-0.382-0.88-0.752-1.766-1.09-2.671c2.008-1.612,2.651-4.468,1.396-6.825c-0.874-1.632-2.441-2.633-4.137-2.85
		c-0.446-2.275-0.771-4.582-0.969-6.94c-0.249-3.009-2.951-5.335-5.896-4.99c-3.008,0.248-5.239,2.888-4.99,5.89
		c0.28,3.364,0.777,6.673,1.491,9.892c-3.812,1.473-7.737,2.562-11.728,3.244c-2.976,0.504-4.971,3.327-4.468,6.297
		c0.517,2.983,3.359,4.979,6.31,4.469c4.455-0.766,8.814-1.943,13.072-3.53c0.319,0.803,0.644,1.6,0.995,2.39
		c0.898,2.046,2.9,3.276,5.009,3.276c0.733,0,1.473-0.146,2.18-0.459C325.061,487.733,326.323,484.516,325.119,481.749z"/>
	<path fill="#0B67F5" stroke="#0B67F5" stroke-width="2" stroke-miterlimit="10" d="M281.301,476.886
		c-6.559-0.828-12.989-2.733-19.114-5.646c-2.715-1.294-5.985-0.142-7.279,2.581c-1.293,2.722-0.14,5.983,2.588,7.277
		c7.176,3.417,14.729,5.647,22.441,6.622c0.236,0.032,0.465,0.045,0.695,0.045c2.709,0,5.061-2.021,5.411-4.779
		C286.412,480.003,284.29,477.262,281.301,476.886z"/>
	<path fill="#0B67F5" stroke="#0B67F5" stroke-width="2" stroke-miterlimit="10" d="M420.377,495.108
		c-4.862,5.009-10.21,9.068-15.883,12.059c-2.664,1.408-3.685,4.71-2.275,7.387c0.977,1.85,2.868,2.912,4.831,2.912
		c0.86,0,1.734-0.203,2.55-0.631c6.687-3.53,12.951-8.279,18.617-14.104c2.104-2.174,2.053-5.621-0.107-7.726
		C425.941,492.915,422.48,492.947,420.377,495.108z"/>
	<path fill="#0B67F5" stroke="#0B67F5" stroke-width="2" stroke-miterlimit="10" d="M238.7,453.062
		c-1.912-2.212-3.716-4.486-5.417-6.826c-1.772-2.44-5.188-2.982-7.629-1.204c-2.441,1.777-2.977,5.193-1.198,7.636
		c1.88,2.581,3.869,5.092,5.979,7.533c2.964,3.436,6.157,6.615,9.503,9.465c1.026,0.879,2.282,1.307,3.537,1.307
		c1.549,0,3.079-0.656,4.162-1.919c1.957-2.294,1.676-5.742-0.618-7.698C244.099,458.855,241.3,456.062,238.7,453.062z"/>
	<path fill="#0B67F5" stroke="#0B67F5" stroke-width="2" stroke-miterlimit="10" d="M352.964,441.883
		c-2.562-1.581-5.934-0.784-7.514,1.791c-0.994,1.601-1.906,2.982-2.677,4.066c-3.053,4.309-6.45,8.228-10.102,11.676
		c-2.199,2.071-2.294,5.526-0.223,7.725c1.071,1.143,2.518,1.722,3.971,1.722c1.345,0,2.696-0.497,3.748-1.491
		c4.168-3.938,8.05-8.419,11.523-13.302c0.886-1.249,1.931-2.823,3.065-4.671C356.336,446.828,355.533,443.463,352.964,441.883z"/>
	<path fill="#0B67F5" stroke="#0B67F5" stroke-width="2" stroke-miterlimit="10" d="M364.086,431.156
		c3.206-7.93,4.831-14.928,4.831-20.805c0-1-0.044-1.98-0.14-2.943c-0.306-3.002-2.977-5.111-5.985-4.89
		c-2.996,0.308-5.188,2.983-4.882,5.985c0.064,0.599,0.089,1.217,0.089,1.848c0,4.404-1.396,10.187-4.034,16.713
		c-1.135,2.79,0.216,5.972,3.015,7.111c0.669,0.269,1.357,0.402,2.046,0.402C361.18,434.572,363.226,433.278,364.086,431.156z"/>
	<path fill="#0B67F5" stroke="#0B67F5" stroke-width="2" stroke-miterlimit="10" d="M350.517,508.071
		c-6.01-2.816-11.319-6.691-15.768-11.511c-2.052-2.212-5.513-2.346-7.718-0.307c-2.218,2.046-2.352,5.507-0.306,7.725
		c5.411,5.857,11.861,10.567,19.159,13.979c0.746,0.357,1.536,0.521,2.313,0.521c2.052,0,4.021-1.166,4.952-3.142
		C354.424,512.604,353.251,509.353,350.517,508.071z"/>
	<path fill="#0B67F5" stroke="#0B67F5" stroke-width="2" stroke-miterlimit="10" d="M314.902,448.792
		c0.332,0.063,0.669,0.089,1,0.089c2.582,0,4.876-1.849,5.36-4.468c0.574-3.11,1.37-6.221,2.352-9.241
		c0.899-2.779,2.403-6.412,4.124-9.969c1.319-2.715,0.185-5.984-2.537-7.298c-2.728-1.346-5.979-0.179-7.292,2.537
		c-1.925,3.982-3.633,8.119-4.685,11.345c-1.128,3.467-2.04,7.049-2.702,10.631C309.975,445.388,311.932,448.243,314.902,448.792z"
		/>
	<path fill="#0B67F5" stroke="#0B67F5" stroke-width="2" stroke-miterlimit="10" d="M329.631,410.41
		c1.007,0.803,2.212,1.19,3.41,1.19c1.6,0,3.193-0.707,4.264-2.052c4.646-5.807,9.223-8.999,12.887-8.999l0.688-5.442l-0.357,5.456
		c2.925,0.172,5.609-2.092,5.806-5.101c0.198-3.002-2.084-5.607-5.092-5.806c-0.121-0.007-0.924-0.032-1.045-0.032
		c-7.253,0-14.455,4.411-21.415,13.104C326.891,405.088,327.273,408.523,329.631,410.41z"/>
	<path fill="#0B67F5" stroke="#0B67F5" stroke-width="2" stroke-miterlimit="10" d="M387.675,512.89
		c-6.291,1.064-13.104,1.122-19.981,0.142c-2.983-0.376-5.755,1.656-6.169,4.646c-0.421,2.989,1.657,5.755,4.64,6.184
		c3.786,0.534,7.578,0.803,11.275,0.803c4.111,0,8.171-0.338,12.065-1.007c2.977-0.504,4.978-3.327,4.468-6.297
		C393.468,514.382,390.632,512.387,387.675,512.89z"/>
	<path fill="#0B67F5" stroke="#0B67F5" stroke-width="2" stroke-miterlimit="10" d="M454.304,428.581
		c-2.95-0.408-5.762,1.619-6.208,4.608c-0.51,3.44-1.152,6.901-1.925,10.338c-0.663,2.943,1.192,5.862,4.13,6.525
		c0.401,0.089,0.805,0.135,1.198,0.135c2.499,0,4.755-1.729,5.328-4.265c0.829-3.697,1.522-7.426,2.071-11.142
		C459.345,431.8,457.293,429.027,454.304,428.581z"/>
	<path fill="#0B67F5" stroke="#0B67F5" stroke-width="2" stroke-miterlimit="10" d="M377.647,390.879l90.001,12.223l61.912,67.699
		l37.257-248.243L377.647,390.879z M467.517,393.886l-68.996-9.376l145.034-129.038L467.517,393.886z M523.409,450.619
		l-47.902-52.371l76.717-139.649L523.409,450.619z"/>
</g>
</svg>
