<?xml version="1.0" encoding="utf-8"?>
<!-- Generator: Adobe Illustrator 16.0.0, SVG Export Plug-In . SVG Version: 6.00 Build 0)  -->
<!DOCTYPE svg PUBLIC "-//W3C//DTD SVG 1.1//EN" "http://www.w3.org/Graphics/SVG/1.1/DTD/svg11.dtd">
<svg version="1.1" id="Layer_1" xmlns:xl="http://www.w3.org/1999/xlink"
	 xmlns="http://www.w3.org/2000/svg" xmlns:xlink="http://www.w3.org/1999/xlink" x="0px" y="0px" width="204.745px"
	 height="206.9px" viewBox="0 0 204.745 206.9" enable-background="new 0 0 204.745 206.9" xml:space="preserve">
<title>Layer 1</title>
<title>Canvas 4</title>
<title>Layer 1</title>
<path opacity="0.6" fill="none" stroke="#E6E6E6" stroke-width="3" stroke-linecap="round" stroke-linejoin="round" d="
	M101.995,201.924L101.995,201.924c-53.267,0-96.631-43.362-96.631-96.629c0-53.271,43.364-96.632,96.631-96.632
	c53.269,0,96.63,43.362,96.63,96.632C198.625,158.561,155.263,201.924,101.995,201.924z"/>
<g>
	<title>Canvas 4</title>
	<g>
		<title>Layer 1</title>
		<path fill="#E6E6E6" d="M39.88,69.122c0.395,7.979,1.93,26.35,7.893,45.905c10.174,33.384,27.851,54.602,52.554,63.094
			c24.759-8.515,42.46-29.806,52.621-63.309c5.918-19.519,7.438-37.752,7.831-45.692c-10.655-1.554-38.235-6.811-60.452-21.76
			C78.107,62.307,50.527,67.569,39.88,69.122 M100.328,187.885c-0.488,0-0.979-0.077-1.451-0.232
			c-15.847-5.074-29.341-14.812-40.104-28.941c-8.469-11.117-15.256-24.96-20.161-41.143c-8.28-27.285-8.373-51.598-8.373-52.617
			c0-2.449,1.856-4.498,4.295-4.729c0.369-0.039,37.279-3.824,63.002-22.504c1.666-1.21,3.918-1.208,5.588,0
			c25.713,18.68,62.629,22.465,63.003,22.504c2.437,0.239,4.294,2.288,4.294,4.729c0,1.024-0.096,25.332-8.369,52.621
			c-4.909,16.181-11.695,30.023-20.168,41.141c-10.765,14.128-24.253,23.865-40.104,28.939
			C101.307,187.808,100.815,187.885,100.328,187.885"/>
		<path fill="#E6E6E6" d="M96.05,142.514c-2.5-0.179-4.977-0.668-7.352-1.448c-1.508-0.495-3.137,0.268-3.724,1.739l-0.491,1.229
			c-0.307,0.767-0.28,1.626,0.065,2.377c0.348,0.748,0.99,1.318,1.776,1.582c1.618,0.536,3.289,0.97,4.969,1.283
			c1.422,0.263,2.874,0.449,4.319,0.548c0.07,0.007,0.141,0.007,0.209,0.007c0.751,0,1.478-0.282,2.034-0.794
			c0.608-0.561,0.956-1.346,0.965-2.175l0.015-1.322C98.852,143.952,97.632,142.631,96.05,142.514z"/>
		<path fill="#E6E6E6" d="M72.582,128.329c-0.831-1.352-2.575-1.816-3.971-1.066l-1.168,0.628c-0.727,0.393-1.259,1.063-1.475,1.862
			c-0.215,0.795-0.094,1.646,0.338,2.35c1.661,2.701,3.658,5.188,5.941,7.385c0.561,0.536,1.308,0.837,2.082,0.837
			c0.049,0,0.096-0.004,0.145-0.004c0.825-0.041,1.598-0.42,2.133-1.045l0.86-1.004c1.032-1.206,0.948-3.007-0.192-4.111
			C75.479,132.424,73.899,130.462,72.582,128.329z"/>
		<path fill="#E6E6E6" d="M119.875,137.385c-1.008-1.226-2.797-1.456-4.079-0.525c-2.026,1.474-4.234,2.686-6.557,3.611
			c-1.474,0.586-2.236,2.219-1.738,3.729l0.414,1.257c0.256,0.785,0.826,1.426,1.579,1.777c0.402,0.187,0.836,0.283,1.27,0.283
			c0.373,0,0.747-0.068,1.104-0.21c2.948-1.164,5.741-2.701,8.305-4.573c0.666-0.487,1.1-1.227,1.205-2.046
			c0.104-0.819-0.133-1.643-0.657-2.283L119.875,137.385z"/>
		<path fill="#E6E6E6" d="M132.074,117.786l-1.301-0.245c-1.566-0.291-3.085,0.689-3.464,2.229c-0.606,2.462-1.52,4.828-2.715,7.043
			c-0.753,1.394-0.287,3.138,1.059,3.97l1.128,0.698c0.479,0.297,1.025,0.452,1.582,0.452c0.256,0,0.516-0.034,0.768-0.101
			c0.799-0.213,1.474-0.739,1.865-1.47c1.524-2.801,2.679-5.799,3.441-8.915c0.196-0.804,0.055-1.648-0.393-2.342
			C133.597,118.418,132.885,117.938,132.074,117.786z"/>
		<path fill="#E6E6E6" d="M130.444,109.036h1.347h0.004c1.656,0,2.998-1.344,2.998-3c0-0.243-0.028-0.482-0.082-0.707
			c-1.118-5.969-3.732-11.648-7.561-16.437c-5.801-7.251-14.041-12.063-23.199-13.544c-1.985-0.324-4.004-0.483-6.004-0.483
			c-5.151,0-10.262,1.077-14.961,3.133l-2.336-2.337c-0.484-0.483-1.185-0.677-1.848-0.515c-0.662,0.162-1.191,0.659-1.397,1.312
			L72.568,91.89c-0.22,0.691-0.033,1.446,0.481,1.962c0.513,0.514,1.271,0.699,1.965,0.482l15.431-4.839
			c0.65-0.203,1.146-0.73,1.311-1.397c0.165-0.661-0.033-1.359-0.516-1.843l-2.601-2.603c3.002-0.993,6.13-1.495,9.336-1.495
			c9.161,0,17.712,4.12,23.461,11.308c3.062,3.829,5.156,8.369,6.064,13.132C127.765,108.011,129.001,109.036,130.444,109.036z"/>
	</g>
</g>
</svg>
