<?xml version="1.0" encoding="utf-8"?>
<!-- Generator: Adobe Illustrator 21.0.2, SVG Export Plug-In . SVG Version: 6.00 Build 0)  -->
<svg version="1.1" id="Layer_1" xmlns="http://www.w3.org/2000/svg" xmlns:xlink="http://www.w3.org/1999/xlink" x="0px" y="0px"
	 viewBox="0 0 631 631" style="enable-background:new 0 0 631 631;" xml:space="preserve">
<style type="text/css">
	.st0{fill:none;stroke:#1822CD;stroke-width:8;stroke-miterlimit:10;}
	.st1{fill:#1822CD;}
</style>
<title>Slice 1</title>
<desc>Created with Sketch.</desc>
<circle id="path-1" class="st0" cx="313.5" cy="314.5" r="302.3"/>
<path class="st1" d="M372.4,353.9l-93.1-53.6c-3.2-1.9-7.2-1.9-10.4,0c-3.2,1.9-5.2,5.3-5.2,9v107.3c0,3.7,2,7.2,5.2,9
	c1.6,0.9,3.5,1.4,5.2,1.4c1.7,0,3.6-0.5,5.2-1.4l93.1-53.6c3.2-1.9,5.2-5.3,5.2-9C377.6,359.2,375.6,355.8,372.4,353.9z
	 M284.6,398.7v-71.4l61.9,35.7L284.6,398.7z"/>
<path class="st1" d="M483.5,142.9H141.4c-5.7,0-10.4,4.7-10.4,10.4v259.9c0,51.2,41.5,92.7,92.7,92.7h177.6
	c51,0,92.7-41.5,92.7-92.7V153.3C493.9,147.6,489.3,142.9,483.5,142.9z M473.1,226.6h-27.8l27.8-41.8V226.6z M236.8,163.7L195,226.6
	h-36.1l41.9-62.9H236.8L236.8,163.7z M258.1,163.7h36.1l-41.9,62.9h-36.1L258.1,163.7z M315.3,163.7h36.1l-41.9,62.9h-36.1
	L315.3,163.7z M372.6,163.7h36.1l-41.8,62.9h-36.1L372.6,163.7z M430,163.7h36.1l-41.9,62.9h-36.1L430,163.7z M179.4,163.7
	l-27.8,41.8v-41.8C151.6,163.7,179.4,163.7,179.4,163.7z M401.2,485.2H223.7c-39.7,0-71.9-32.3-71.9-71.9V247.4h321.5v165.9
	C473.1,452.8,440.9,485.2,401.2,485.2z"/>
</svg>
