<?xml version="1.0" encoding="utf-8"?>
<!-- Generator: Adobe Illustrator 21.0.2, SVG Export Plug-In . SVG Version: 6.00 Build 0)  -->
<svg version="1.1" id="Layer_1" xmlns="http://www.w3.org/2000/svg" xmlns:xlink="http://www.w3.org/1999/xlink" x="0px" y="0px"
	 viewBox="0 0 588 560" style="enable-background:new 0 0 588 560;" xml:space="preserve">
<style type="text/css">
	.st0{fill:#1822CD;}
</style>
<g>
	<path class="st0" d="M177.6,525.3c-53.8-26.7-98.2-70.9-124.8-124.6c-2.6-5.5-9.3-7.6-14.8-5s-7.6,9.3-5,14.8
		c28.9,58,76.8,105.8,134.8,134.5c1.6,0.8,3.2,1.2,4.9,1.2c4,0,7.9-2.3,9.9-6.2C185.3,534.6,183.1,528,177.6,525.3z"/>
	<path class="st0" d="M459.6,133.8c4.3-4.3,4.3-11.3,0-15.6c-4.3-4.3-11.3-4.3-15.6,0l-9.2,9.2c-13.7-12.3-29.1-22.8-45.9-31l5.1-12
		c2.4-5.6-0.2-12.1-5.9-14.5c-5.6-2.4-12.1,0.2-14.5,5.9l-5.1,12c-18.2-6.7-37.7-10.7-57.8-11.7V63c0-6.2-4.9-11.1-11.1-11.1
		s-11.1,5-11.1,11.1v12.9c-18.9,1.1-37.3,4.7-54.4,10.6l-4.9-12c-2.3-5.7-8.7-8.3-14.4-6.2c-5.7,2.3-8.3,8.7-6.2,14.4l4.9,12.1
		c-17.9,8.4-34.4,19.5-49,32.6l-9.2-9.2c-4.3-4.3-11.3-4.3-15.6,0s-4.3,11.3,0,15.6l9.2,9.2c-12.3,13.7-22.8,29.1-31,45.9l-11.8-5.1
		c-5.6-2.4-12.1,0.2-14.5,5.9c-2.4,5.6,0.2,12.1,5.9,14.5l12,5.1c-6.7,18.2-10.7,37.7-11.7,57.8H84.9c-6.2,0-11.1,4.9-11.1,11.1
		s4.9,11.1,11.1,11.1h12.9c1.1,18.9,4.7,37.3,10.6,54.4l-12.1,4.6c-5.7,2.3-8.3,8.7-6.2,14.4c2.3,5.7,8.7,8.3,14.4,6.2l12.1-4.9
		c8.4,17.9,19.5,34.4,32.6,49l-9.2,9.2c-4.3,4.3-4.3,11.3,0,15.6c4.3,4.3,11.3,4.3,15.6,0l9.2-9.2c13.7,12.3,29.1,22.8,45.9,31
		l-5.1,12c-2.4,5.6,0.2,12.1,5.9,14.5c5.6,2.4,12.1-0.2,14.5-5.9l5.1-12c18.2,6.7,37.7,10.7,57.8,11.7v12.9
		c0,6.2,4.9,11.1,11.1,11.1s11.1-4.9,11.1-11.1v-12.9c18.9-1.1,37.3-4.7,54.4-10.6l4.9,12c2.3,5.7,8.7,8.3,14.4,6.2
		c5.7-2.3,8.3-8.7,6.2-14.4l-4.9-12.1c17.9-8.4,34.4-19.5,49-32.6l9.2,9.2c4.3,4.3,11.3,4.3,15.6,0c4.3-4.3,4.3-11.3,0-15.6
		l-9.2-9.2c12.3-13.7,22.8-29.1,31-45.9l12,5.1c5.6,2.4,12.1-0.2,14.5-5.9c2.4-5.6-0.2-12.1-5.9-14.5l-12-5.1
		c6.7-18.2,10.7-37.7,11.7-57.8h12.9c6.2,0,11.1-4.9,11.1-11.1s-5-11.1-11.1-11.1H502c-1.1-18.9-4.7-37.3-10.6-54.4l12-4.9
		c5.7-2.3,8.3-8.7,6.2-14.4c-2.3-5.7-8.7-8.3-14.4-6.2l-12.1,4.9c-8.4-17.9-19.5-34.4-32.6-49L459.6,133.8z M466.8,210.2
		c0,0.1,0.1,0.2,0.1,0.3s0.1,0.2,0.1,0.3c8.3,20.8,12.9,43.4,12.9,67.2c0,75.4-46.6,140.2-112.5,166.9c-0.1,0-0.5,0.2-0.6,0.2
		c-20.8,8.3-43.4,12.9-67.3,12.9c-24.9,0-48.7-5.1-70.3-14.3c0,0,0,0-0.1,0l0,0c-43.6-18.6-78.5-54-96.5-98.1c0-0.1-0.1-0.2-0.1-0.3
		s-0.1-0.2-0.1-0.3c-8.3-20.8-12.9-43.4-12.9-67.2c0-75.4,46.6-140.2,112.5-166.9c0.1,0,0.5-0.2,0.6-0.2
		c20.8-8.3,43.4-12.9,67.2-12.9C375.1,97.7,440,144.3,466.8,210.2z"/>
	<path class="st0" d="M299.8,20.2c-142.1,0-257.6,115.6-257.6,257.6s115.6,257.6,257.6,257.6c142.1,0,257.6-115.6,257.6-257.6
		S441.8,20.2,299.8,20.2z M299.8,513.5c-129.9,0-235.6-105.8-235.6-235.6S169.9,42.3,299.8,42.3s235.5,105.6,235.5,235.5
		S429.7,513.5,299.8,513.5z"/>
	<path class="st0" d="M567.9,148C540.1,90.5,493.5,42.7,436.7,13.3c-5.4-2.7-12.1-0.7-14.9,4.7s-0.7,12.1,4.7,14.9
		c52.6,27.3,95.7,71.6,121.6,124.7c2,3.9,5.9,6.3,10,6.3c1.7,0,3.2-0.4,4.8-1.2C568.3,160.1,570.6,153.4,567.9,148z"/>
</g>
</svg>
