<?xml version="1.0" encoding="utf-8"?>
<!-- Generator: Adobe Illustrator 21.0.2, SVG Export Plug-In . SVG Version: 6.00 Build 0)  -->
<svg version="1.1" id="Layer_1" xmlns="http://www.w3.org/2000/svg" xmlns:xlink="http://www.w3.org/1999/xlink" x="0px" y="0px"
	 viewBox="0 0 211 211" style="enable-background:new 0 0 211 211;" xml:space="preserve">
<style type="text/css">
	.st0{fill:none;stroke:#E6E6E6;stroke-width:3;stroke-miterlimit:10;}
	.st1{fill:#E6E6E6;}
	.st2{font-family:'Helvetica';}
	.st3{font-size:21px;}
</style>
<title>Group 2</title>
<desc>Created with Sketch.</desc>
<circle id="Oval" class="st0" cx="105.3" cy="105.3" r="103.3"/>
<path id="Shape" class="st1" d="M146.7,123.3c-1.1,0-2,1.4-2,3v24.3c0,5-2.7,9.1-6,9.1H71.1c-3.3,0-6-4.1-6-9.1v-24.3
	c0-1.7-0.9-3-2-3s-2,1.4-2,3v24.3c0,8.4,4.5,15.2,9.9,15.2h67.6c5.5,0,9.9-6.8,9.9-15.2v-24.3C148.7,124.6,147.8,123.3,146.7,123.3
	L146.7,123.3L146.7,123.3L146.7,123.3L146.7,123.3z"/>
<path id="Shape_1_" class="st1" d="M64.8,111.6V84.8c0-4.4,2.7-8,6-8h15.9c1.1,0,2-1.2,2-2.7c0-10.6,8.6-18.8,15.9-18.8
	c5.2,0,10.7,3.9,13.6,9.6c0.6,1.2,1.9,1.5,2.8,0.7c0.9-0.9,1.1-2.5,0.5-3.7c-3.4-6.5-9.1-10.9-14.9-11.7v-6c2.3-1.1,4-4.1,4-7.6
	c0-4.4-2.7-8-6-8s-6,3.6-6,8c0,3.5,1.7,6.4,4,7.6v6C94.4,51.4,86,60,84.8,71.5h-14c-5.5,0-9.9,6-9.9,13.4V109h-4.3
	c-0.8-3.1-3-5.4-5.6-5.4c-3.3,0-6,3.6-6,8s2.7,8,6,8c2.6,0,4.8-2.2,5.6-5.4h6.3C63.9,114.3,64.8,113.1,64.8,111.6L64.8,111.6
	L64.8,111.6L64.8,111.6L64.8,111.6z M104.6,33.8c1.1,0,2,1.2,2,2.7s-0.9,2.7-2,2.7s-2-1.2-2-2.7S103.5,33.8,104.6,33.8L104.6,33.8
	L104.6,33.8L104.6,33.8L104.6,33.8z M50.9,114.3c-1.1,0-2-1.2-2-2.7s0.9-2.7,2-2.7s2,1.2,2,2.7C52.9,113.1,52,114.3,50.9,114.3
	L50.9,114.3L50.9,114.3L50.9,114.3L50.9,114.3z"/>
<path id="Shape_2_" class="st1" d="M158.3,103.6c-2.6,0-4.8,2.2-5.6,5.4h-4.3V84.8c0-7.4-4.5-13.4-9.9-13.4H94.7c-1.1,0-2,1.2-2,2.7
	s0.9,2.7,2,2.7h43.7c3.3,0,6,3.6,6,8v26.8c0,1.5,0.9,2.7,2,2.7h6.3c0.8,3.1,3,5.4,5.6,5.4c3.3,0,6-3.6,6-8
	C164.3,107.2,161.6,103.6,158.3,103.6L158.3,103.6L158.3,103.6L158.3,103.6L158.3,103.6z M158.3,114.3c-1.1,0-2-1.2-2-2.7
	s0.9-2.7,2-2.7s2,1.2,2,2.7C160.3,113.1,159.4,114.3,158.3,114.3L158.3,114.3L158.3,114.3L158.3,114.3L158.3,114.3z"/>
<path id="Shape_3_" class="st1" d="M34.5,145.7c-0.9,0-1.4-0.3-2-0.9c-18.9-18.9-18.9-49.8,0-68.6c1.1-1.1,2.9-1.1,4,0s1.1,2.9,0,4
	c-16.6,16.6-16.6,44,0,60.6c1.1,1.1,1.1,2.9,0,4C35.9,145.5,35.3,145.7,34.5,145.7L34.5,145.7L34.5,145.7L34.5,145.7L34.5,145.7z"/>
<path id="Shape_4_" class="st1" d="M174.7,145.7c-0.9,0-1.4-0.3-2-0.9c-1.1-1.1-1.1-2.9,0-4c16.6-16.6,16.6-44,0-60.6
	c-1.1-1.1-1.1-2.9,0-4s2.9-1.1,4,0c18.9,18.9,18.9,49.8,0,68.6C176.1,145.5,175.6,145.7,174.7,145.7L174.7,145.7L174.7,145.7
	L174.7,145.7L174.7,145.7z"/>
<path id="Shape_5_" class="st1" d="M135.2,105.4c0-3.6-2.9-6.6-6.6-6.6c-3.6,0-6.6,2.9-6.6,6.6c0,3.6,2.9,6.6,6.6,6.6
	C132.2,111.9,135.2,109,135.2,105.4L135.2,105.4L135.2,105.4L135.2,105.4L135.2,105.4z M126.4,105.4c0-1.2,1-2.2,2.2-2.2
	c1.2,0,2.2,1,2.2,2.2s-1,2.2-2.2,2.2C127.4,107.6,126.4,106.6,126.4,105.4L126.4,105.4L126.4,105.4L126.4,105.4L126.4,105.4z"/>
<path id="Shape_6_" class="st1" d="M87.1,105.4c0-3.6-2.9-6.6-6.6-6.6c-3.6,0-6.6,2.9-6.6,6.6c0,3.6,2.9,6.6,6.6,6.6
	C84.2,111.9,87.1,109,87.1,105.4L87.1,105.4L87.1,105.4L87.1,105.4L87.1,105.4z M80.6,107.6c-1.2,0-2.2-1-2.2-2.2s1-2.2,2.2-2.2
	s2.2,1,2.2,2.2C82.8,106.6,81.8,107.6,80.6,107.6L80.6,107.6L80.6,107.6L80.6,107.6L80.6,107.6z"/>
<path id="Shape_7_" class="st1" d="M77.3,139.8c0-0.7,0.2-1.1,0.7-1.6c0.9-0.9,2.2-0.9,3.1,0c12.9,12.9,34.2,12.9,47.1,0
	c0.9-0.9,2.2-0.9,3.1,0c0.9,0.9,0.9,2.2,0,3.1c-14.7,14.7-38.6,14.7-53.3,0C77.6,140.9,77.3,140.4,77.3,139.8L77.3,139.8L77.3,139.8
	L77.3,139.8L77.3,139.8z"/>
<g id="Group" transform="translate(96.108870, 116.513680)">
	<g id="_x2B_">
		<text transform="matrix(1 0 0 1 2 22)" class="st1 st2 st3">+</text>
		<text transform="matrix(1 0 0 1 2 22)" class="st1 st2 st3">+</text>
	</g>
</g>
</svg>
