<?xml version="1.0" encoding="utf-8"?>
<!-- Generator: Adobe Illustrator 21.0.2, SVG Export Plug-In . SVG Version: 6.00 Build 0)  -->
<svg version="1.1" id="Layer_1" xmlns="http://www.w3.org/2000/svg" xmlns:xlink="http://www.w3.org/1999/xlink" x="0px" y="0px"
	 viewBox="0 0 211 211" style="enable-background:new 0 0 211 211;" xml:space="preserve">
<style type="text/css">
	.st0{fill:none;stroke:#E6E6E6;stroke-width:6;}
	.st1{fill:none;stroke:#E6E6E6;stroke-width:20;stroke-miterlimit:10;}
	.st2{fill:#E6E6E6;}
	.st3{fill:none;stroke:#E6E6E6;stroke-width:14;stroke-linecap:round;stroke-linejoin:round;}
	.st4{fill:none;stroke:#E6E6E6;stroke-width:11;stroke-miterlimit:10;}
	.st5{fill:none;stroke:#E6E6E6;stroke-width:11;stroke-linecap:round;stroke-linejoin:round;}
	.st6{fill:#F9F9F9;stroke:#000000;stroke-width:3;stroke-miterlimit:10;}
	.st7{fill:#23292A;}
	.st8{fill:none;stroke:#23292A;stroke-width:5;stroke-linecap:round;stroke-linejoin:round;}
	.st9{fill:none;stroke:#000000;stroke-width:4;stroke-linecap:round;stroke-linejoin:round;stroke-miterlimit:10;}
	.st10{stroke:#000000;stroke-miterlimit:10;}
</style>
<title>Group 3</title>
<desc>Created with Sketch.</desc>
<circle id="Oval" class="st0" cx="105.3" cy="105.3" r="103.3"/>
<path class="st1" d="M121.9-265.1L121.9-265.1c-99.1,0-179.6-80.7-179.6-179.6c0-99.1,80.5-179.6,179.6-179.6
	s179.6,80.7,179.6,179.6C301.5-345.6,220.9-265.1,121.9-265.1z"/>
<path id="Shape_13_" class="st2" d="M207.5-406.7c-2.3,0-4.2,2.2-4.2,4.8v38.6c0,8-5.6,14.5-12.5,14.5H49.1
	c-6.9,0-12.5-6.5-12.5-14.5v-38.6c0-2.7-1.9-4.8-4.2-4.8c-2.3,0-4.2,2.2-4.2,4.8v38.6c0,13.3,9.4,24.1,20.8,24.1h141.7
	c11.5,0,20.8-10.8,20.8-24.1v-38.6C211.7-404.5,209.8-406.7,207.5-406.7L207.5-406.7z"/>
<path id="Shape_12_" class="st2" d="M35.9-425.2v-42.7c0-7.1,5.6-12.8,12.5-12.8h33.3c2.3,0,4.2-1.9,4.2-4.3
	c0-16.8,17.9-29.9,33.4-29.9c10.8,0,22.3,6.1,28.6,15.3c1.3,1.9,3.9,2.4,5.8,1c1.9-1.4,2.3-4,1-6c-7.1-10.3-19-17.3-31.2-18.6v-9.6
	c4.8-1.8,8.3-6.5,8.3-12c0-7.1-5.6-12.8-12.5-12.8c-6.9,0-12.5,5.8-12.5,12.8c0,5.6,3.5,10.3,8.3,12v9.6
	c-17.2,1.9-34.8,15.6-37.2,33.9H48.4c-11.5,0-20.8,9.6-20.8,21.4l0,38.5h-9.1c-1.7-5-6.3-8.5-11.7-8.5c-6.9,0-12.5,5.8-12.5,12.8
	c0,7.1,5.6,12.8,12.5,12.8c5.4,0,10-3.6,11.7-8.5h13.3C34-420.9,35.9-422.8,35.9-425.2L35.9-425.2z M119.3-549.1
	c2.3,0,4.2,1.9,4.2,4.3c0,2.4-1.9,4.3-4.2,4.3c-2.3,0-4.2-1.9-4.2-4.3C115.1-547.2,117-549.1,119.3-549.1L119.3-549.1z M6.7-420.9
	c-2.3,0-4.2-1.9-4.2-4.3c0-2.4,1.9-4.3,4.2-4.3c2.3,0,4.2,1.9,4.2,4.3C10.9-422.8,9-420.9,6.7-420.9L6.7-420.9z"/>
<path id="Shape_11_" class="st2" d="M231.8-438c-5.4,0-10,3.6-11.7,8.5H211v-38.5c0-11.8-9.4-21.4-20.8-21.4H98.4
	c-2.3,0-4.2,1.9-4.2,4.3s1.9,4.3,4.2,4.3h91.7c6.9,0,12.5,5.8,12.5,12.8v42.7c0,2.4,1.9,4.3,4.2,4.3h13.3c1.7,5,6.3,8.5,11.7,8.5
	c6.9,0,12.5-5.8,12.5-12.8C244.3-432.3,238.7-438,231.8-438L231.8-438z M231.8-420.9c-2.3,0-4.2-1.9-4.2-4.3c0-2.4,1.9-4.3,4.2-4.3
	c2.3,0,4.2,1.9,4.2,4.3C236-422.8,234.1-420.9,231.8-420.9L231.8-420.9z"/>
<path id="Shape_9_" class="st2" d="M-1.5-369.6c-1.3,0-2.1-0.4-3-1.3c-28-28.7-28-75.6,0-104.3c1.7-1.7,4.2-1.7,5.9,0
	c1.7,1.7,1.7,4.3,0,6.1c-24.6,25.2-24.6,66.9,0,92.1c1.7,1.7,1.7,4.3,0,6.1C0.6-370-0.2-369.6-1.5-369.6L-1.5-369.6z"/>
<path id="Shape_8_" class="st2" d="M68-556.2c0-1.3,0.4-2.2,1.3-3c28-28.7,73.8-28.7,101.7,0c1.7,1.7,1.7,4.3,0,6.1
	c-1.7,1.7-4.2,1.7-5.9,0c-24.6-25.2-65.3-25.2-89.9,0c-1.7,1.7-4.2,1.7-5.9,0C68.4-554,68-554.9,68-556.2L68-556.2z"/>
<path id="Shape_10_" class="st2" d="M243-369.8c-1.3,0-2.1-0.4-3-1.3c-1.7-1.7-1.7-4.3,0-6.1c24.6-25.2,24.6-66.9,0-92.1
	c-1.7-1.7-1.7-4.3,0-6.1c1.7-1.7,4.2-1.7,5.9,0c28,28.7,28,75.6,0,104.3C245.1-370.2,244.3-369.8,243-369.8L243-369.8z"/>
<ellipse class="st2" cx="64" cy="-437.6" rx="10.6" ry="22.5"/>
<path class="st2" d="M183.3-440.6h-9.6v-8.7c-0.2-1.8-1.9-3.2-3.6-2.9c-1.5,0.1-2.6,1.4-2.8,2.9v8.7h-9.6c-1.6-0.1-3,1-3.2,2.7
	c-0.1,1.6,1,3,2.6,3.3c0.2,0,0.5,0,0.6,0h9.6v8.7c0.2,1.8,1.9,3.2,3.6,2.9c1.5-0.1,2.6-1.4,2.8-2.9v-8.7h9.6c1.6,0.1,3-1,3.2-2.7
	c0.1-1.6-1-3-2.6-3.3C183.8-440.6,183.5-440.6,183.3-440.6z"/>
<path class="st3" d="M68-395.3c0,0,14.6,31,50.4,30.7"/>
<path class="st3" d="M168.3-396.2c0,0-14.1,31.3-49.9,31.7"/>
<g>
	<path class="st4" d="M816.2,623.4L816.2,623.4c-279.2,0-506-227.4-506-506c0-279.2,226.8-506,506-506s506,227.4,506,506
		C1322.3,396.6,1095.4,623.4,816.2,623.4z"/>
	<path id="Shape_19_" class="st2" d="M1057.5,224.5c-6.5,0-11.7,6.1-11.7,13.6v108.8c0,22.5-15.8,40.8-35.2,40.8H611.2
		c-19.4,0-35.2-18.3-35.2-40.8V238.1c0-7.5-5.2-13.6-11.7-13.6c-6.5,0-11.7,6.1-11.7,13.6v108.8c0,37.5,26.3,68,58.7,68h399.4
		c32.4,0,58.7-30.5,58.7-68V238.1C1069.2,230.6,1064,224.5,1057.5,224.5L1057.5,224.5z"/>
	<path id="Shape_18_" class="st2" d="M574,172.2V51.9c0-19.9,15.8-36.1,35.2-36.1h94c6.5,0,11.7-5.4,11.7-12
		c0-47.5,50.5-84.3,94-84.3c30.6,0,62.9,17.3,80.6,43c3.7,5.4,11,6.8,16.4,2.9c5.3-3.8,6.6-11.3,2.9-16.8
		c-19.9-29.1-53.5-48.8-88-52.5v-27.1c13.6-5,23.5-18.2,23.5-33.9c0-19.9-15.8-36.1-35.2-36.1s-35.2,16.2-35.2,36.1
		c0,15.7,9.9,28.9,23.5,33.9v27.1C748.8-98.4,699.1-60,692.3-8.3h-83c-32.4,0-58.7,27-58.7,60.2l0,108.3h-25.7
		c-4.9-14-17.8-24.1-33.1-24.1c-19.4,0-35.2,16.2-35.2,36.1c0,19.9,15.8,36.1,35.2,36.1c15.3,0,28.2-10.1,33.1-24.1h37.4
		C568.8,184.3,574,178.9,574,172.2L574,172.2z M809-176.9c6.5,0,11.7,5.4,11.7,12s-5.3,12-11.7,12c-6.5,0-11.7-5.4-11.7-12
		C797.2-171.5,802.5-176.9,809-176.9L809-176.9z M491.8,184.3c-6.5,0-11.7-5.4-11.7-12c0-6.6,5.3-12,11.7-12c6.5,0,11.7,5.4,11.7,12
		C503.5,178.9,498.3,184.3,491.8,184.3L491.8,184.3z"/>
	<path id="Shape_17_" class="st2" d="M1126.1,136.1c-15.3,0-28.2,10.1-33.1,24.1h-25.7V51.9c0-33.2-26.3-60.2-58.7-60.2H750.2
		c-6.5,0-11.7,5.4-11.7,12c0,6.6,5.3,12,11.7,12h258.4c19.4,0,35.2,16.2,35.2,36.1v120.4c0,6.6,5.3,12,11.7,12h37.4
		c4.9,14,17.8,24.1,33.1,24.1c19.4,0,35.2-16.2,35.2-36.1C1161.3,152.3,1145.5,136.1,1126.1,136.1L1126.1,136.1z M1126.1,184.3
		c-6.5,0-11.7-5.4-11.7-12c0-6.6,5.3-12,11.7-12c6.5,0,11.7,5.4,11.7,12C1137.8,178.9,1132.6,184.3,1126.1,184.3L1126.1,184.3z"/>
	<path id="Shape_16_" class="st2" d="M468.7,329c-3.6,0-6-1.2-8.4-3.7c-78.8-80.8-78.8-213,0-293.8c4.8-4.9,11.9-4.9,16.7,0
		c4.8,4.9,4.8,12.2,0,17.1c-69.3,71-69.3,188.5,0,259.6c4.8,4.9,4.8,12.2,0,17.1C474.7,327.7,472.3,329,468.7,329L468.7,329z"/>
	<path id="Shape_15_" class="st2" d="M664.5-196.9c0-3.7,1.2-6.1,3.6-8.6c78.8-80.8,207.9-80.8,286.7,0c4.8,4.9,4.8,12.2,0,17.1
		c-4.8,4.9-11.9,4.9-16.7,0c-69.3-71-184-71-253.2,0c-4.8,4.9-11.9,4.9-16.7,0C665.7-190.8,664.5-193.2,664.5-196.9L664.5-196.9z"/>
	<path id="Shape_14_" class="st2" d="M1157.6,328.3c-3.6,0-6-1.2-8.4-3.7c-4.8-4.9-4.8-12.2,0-17.1c69.3-71,69.3-188.5,0-259.6
		c-4.8-4.9-4.8-12.2,0-17.1c4.8-4.9,11.9-4.9,16.7,0c78.8,80.8,78.8,213,0,293.8C1163.5,327.1,1161.1,328.3,1157.6,328.3
		L1157.6,328.3z"/>
	<ellipse class="st2" cx="653.3" cy="137.2" rx="29.9" ry="63.5"/>
	<path class="st2" d="M989.3,128.9h-27.2v-24.6c-0.7-5-5.2-8.9-10.1-8.2c-4.2,0.4-7.3,3.9-8,8.2v24.6h-27.2
		c-4.5-0.4-8.4,2.9-9.1,7.5c-0.3,4.6,2.8,8.6,7.3,9.3c0.7,0,1.4,0,1.7,0H944v24.6c0.7,5,5.2,8.9,10.1,8.2c4.2-0.4,7.3-3.9,8-8.2
		v-24.6h27.2c4.5,0.4,8.4-2.9,9.1-7.5c0.3-4.6-2.8-8.6-7.3-9.3C990.7,128.9,990,128.9,989.3,128.9z"/>
	<path class="st5" d="M664.4,256.4c0,0,41.1,87.4,142.1,86.4"/>
	<path class="st5" d="M947.2,253.9c0,0-39.7,88.2-140.7,89.2"/>
</g>
<g>
	<path class="st4" d="M-979,484.7L-979,484.7c-279.2,0-506-227.4-506-506c0-279.2,226.8-506,506-506s506,227.4,506,506
		C-473,257.9-699.8,484.7-979,484.7z"/>
	<path id="Shape_25_" class="st2" d="M-737.7,85.8c-6.5,0-11.7,6.1-11.7,13.6v108.8c0,22.5-15.8,40.8-35.2,40.8h-399.4
		c-19.4,0-35.2-18.3-35.2-40.8V99.4c0-7.5-5.2-13.6-11.7-13.6c-6.5,0-11.7,6.1-11.7,13.6v108.8c0,37.5,26.3,68,58.7,68h399.4
		c32.4,0,58.7-30.5,58.7-68V99.4C-726,91.8-731.3,85.8-737.7,85.8L-737.7,85.8z"/>
	<path id="Shape_24_" class="st2" d="M-1221.2,33.5V-86.9c0-19.9,15.8-36.1,35.2-36.1h94c6.5,0,11.7-5.4,11.7-12
		c0-47.5,50.5-84.3,94-84.3c30.6,0,62.9,17.3,80.6,43c3.7,5.4,11,6.8,16.4,2.9c5.3-3.8,6.6-11.3,2.9-16.8
		c-19.9-29.1-53.5-48.8-88-52.5v-27.1c13.6-5,23.5-18.2,23.5-33.9c0-19.9-15.8-36.1-35.2-36.1c-19.4,0-35.2,16.2-35.2,36.1
		c0,15.7,9.9,28.9,23.5,33.9v27.1c-48.4,5.5-98.1,43.9-104.9,95.6h-83c-32.4,0-58.7,27-58.7,60.2l0,108.3h-25.7
		c-4.9-14-17.8-24.1-33.1-24.1c-19.4,0-35.2,16.2-35.2,36.1c0,19.9,15.8,36.1,35.2,36.1c15.3,0,28.2-10.1,33.1-24.1h37.4
		C-1226.5,45.6-1221.2,40.2-1221.2,33.5L-1221.2,33.5z M-986.3-315.6c6.5,0,11.7,5.4,11.7,12s-5.3,12-11.7,12
		c-6.5,0-11.7-5.4-11.7-12C-998-310.2-992.8-315.6-986.3-315.6L-986.3-315.6z M-1303.5,45.6c-6.5,0-11.7-5.4-11.7-12
		c0-6.6,5.3-12,11.7-12c6.5,0,11.7,5.4,11.7,12C-1291.7,40.1-1297,45.6-1303.5,45.6L-1303.5,45.6z"/>
	<path id="Shape_23_" class="st2" d="M-669.2-2.6c-15.3,0-28.2,10.1-33.1,24.1h-25.7V-86.9c0-33.2-26.3-60.2-58.7-60.2H-1045
		c-6.5,0-11.7,5.4-11.7,12c0,6.6,5.3,12,11.7,12h258.4c19.4,0,35.2,16.2,35.2,36.1V33.5c0,6.6,5.3,12,11.7,12h37.4
		c4.9,14,17.8,24.1,33.1,24.1c19.4,0,35.2-16.2,35.2-36.1C-633.9,13.6-649.7-2.6-669.2-2.6L-669.2-2.6z M-669.2,45.6
		c-6.5,0-11.7-5.4-11.7-12c0-6.6,5.3-12,11.7-12s11.7,5.4,11.7,12C-657.4,40.1-662.7,45.6-669.2,45.6L-669.2,45.6z"/>
	<path id="Shape_22_" class="st2" d="M-1326.5,190.2c-3.6,0-6-1.2-8.4-3.7c-78.8-80.8-78.8-213,0-293.8c4.8-4.9,11.9-4.9,16.7,0
		c4.8,4.9,4.8,12.2,0,17.1c-69.3,71-69.3,188.5,0,259.6c4.8,4.9,4.8,12.2,0,17.1C-1320.5,189-1322.9,190.2-1326.5,190.2
		L-1326.5,190.2z"/>
	<path id="Shape_21_" class="st2" d="M-1130.7-335.6c0-3.7,1.2-6.1,3.6-8.6c78.8-80.8,207.9-80.8,286.7,0c4.8,4.9,4.8,12.2,0,17.1
		s-11.9,4.9-16.7,0c-69.3-71-184-71-253.2,0c-4.8,4.9-11.9,4.9-16.7,0C-1129.5-329.5-1130.7-332-1130.7-335.6L-1130.7-335.6z"/>
	<path id="Shape_20_" class="st2" d="M-637.7,189.6c-3.6,0-6-1.2-8.4-3.7c-4.8-4.9-4.8-12.2,0-17.1c69.3-71,69.3-188.5,0-259.6
		c-4.8-4.9-4.8-12.2,0-17.1c4.8-4.9,11.9-4.9,16.7,0c78.8,80.8,78.8,213,0,293.8C-631.7,188.3-634.1,189.6-637.7,189.6L-637.7,189.6
		z"/>
	<ellipse class="st2" cx="-1142" cy="-1.6" rx="29.9" ry="63.5"/>
	<path class="st2" d="M-806-9.8h-27.2v-24.6c-0.7-5-5.2-8.9-10.1-8.2c-4.2,0.4-7.3,3.9-8,8.2v24.6h-27.2c-4.5-0.4-8.4,2.9-9.1,7.5
		c-0.3,4.6,2.8,8.6,7.3,9.3c0.7,0,1.4,0,1.7,0h27.2v24.6c0.7,5,5.2,8.9,10.1,8.2c4.2-0.4,7.3-3.9,8-8.2V7h27.2
		c4.5,0.4,8.4-2.9,9.1-7.5c0.3-4.6-2.8-8.6-7.3-9.3C-804.6-9.8-805.3-9.8-806-9.8z"/>
	<path class="st5" d="M-1130.9,117.6c0,0,41.1,87.4,142.1,86.4"/>
	<path class="st5" d="M-848.1,115.1c0,0-39.7,88.2-140.7,89.2"/>
</g>
<g>
	<path class="st6" d="M137.4,147.8H75.1c-6.6,0-12-5.4-12-12V84.3c0-6.6,5.4-12,12-12h62.3c6.6,0,12,5.4,12,12v51.5
		C149.4,142.4,144,147.8,137.4,147.8z"/>
	<g>
		<ellipse class="st7" cx="78.3" cy="98.5" rx="5.5" ry="11.4"/>
		<path d="M140,97.1h-5v-4.4c-0.1-0.9-1-1.6-1.9-1.5c-0.8,0.1-1.3,0.7-1.5,1.5v4.4h-5c-0.8-0.1-1.5,0.5-1.7,1.3
			c-0.1,0.8,0.5,1.5,1.3,1.7c0.1,0,0.3,0,0.3,0h5v4.4c0.1,0.9,1,1.6,1.9,1.5c0.8-0.1,1.3-0.7,1.5-1.5v-4.4h5
			c0.8,0.1,1.5-0.5,1.7-1.3c0.1-0.8-0.5-1.5-1.3-1.7C140.3,97.1,140.1,97.1,140,97.1z"/>
		<path class="st8" d="M80.4,119.9c0,0,7.5,15.7,26.1,15.5"/>
		<path class="st8" d="M132.3,119.4c0,0-7.3,15.8-25.8,16"/>
	</g>
	<g>
		<path class="st9" d="M33,77.1L33,77.1c-19.5,19.5-19.5,51.2,0,70.7"/>
		<path class="st9" d="M43.9,87.9c-13.5,13.5-13.5,35.5,0,49"/>
	</g>
	<g>
		<path class="st9" d="M141.5,33L141.5,33c-20.1-19-51.8-18-70.7,2.1"/>
		<path class="st9" d="M130.9,44.2C117,31.1,95.1,31.7,81.9,45.6"/>
	</g>
	<path class="st9" d="M174.2,73L174.2,73c19.5,19.5,19.5,51.2,0,70.7"/>
	<path class="st9" d="M163.3,83.9c13.5,13.5,13.5,35.5,0,49"/>
	<path class="st10" d="M105.2,58.7v12.9h1.8V58.7c3.1-0.4,5.4-3.1,5.4-6.3c0-3.5-2.8-6.4-6.4-6.4c-3.5,0-6.4,2.8-6.4,6.4
		C99.8,55.6,102.1,58.3,105.2,58.7z M106.1,47.9c2.5,0,4.5,2,4.5,4.5c0,2.5-2,4.5-4.5,4.5c-2.5,0-4.5-2-4.5-4.5
		C101.6,50,103.6,47.9,106.1,47.9z"/>
</g>
</svg>
