<?xml version="1.0" encoding="utf-8"?>
<!-- Generator: Adobe Illustrator 21.0.2, SVG Export Plug-In . SVG Version: 6.00 Build 0)  -->
<svg version="1.1" id="Layer_1" xmlns:xl="http://www.w3.org/1999/xlink"
	 xmlns="http://www.w3.org/2000/svg" xmlns:xlink="http://www.w3.org/1999/xlink" x="0px" y="0px" viewBox="0 0 204.7 206.9"
	 style="enable-background:new 0 0 204.7 206.9;" xml:space="preserve">
<style type="text/css">
	.st0{opacity:0.6;fill:none;stroke:#C8C8C8;stroke-width:3;stroke-linecap:round;stroke-linejoin:round;enable-background:new    ;}
	.st1{fill:#C8C8C8;}
</style>
<title>Layer 1</title>
<title>Canvas 4</title>
<title>Layer 1</title>
<path class="st0" d="M102,201.9L102,201.9c-53.3,0-96.6-43.4-96.6-96.6C5.4,52,48.7,8.7,102,8.7s96.6,43.4,96.6,96.6
	C198.6,158.6,155.3,201.9,102,201.9z"/>
<g>
	<title>Canvas 1</title>
	<g>
		<title>Layer 1</title>
		<path class="st1" d="M69.2,112.1C51,94.2,50.7,65.1,68.7,46.8s47.1-18.5,65.3-0.6s18.5,47.1,0.6,65.3
			C116.6,129.7,87.4,130,69.2,112.1 M106.7,134.3c12.6-1.1,24.9-6.5,34.4-16.3c21.5-21.8,21.1-57-0.7-78.4s-57-21.1-78.4,0.7
			s-21.1,57,0.7,78.4c9.8,9.6,22.2,14.8,34.8,15.7l0.6,57.9h9.2L106.7,134.3z"/>
	</g>
</g>
<g>
	<path class="st1" d="M122.9,52.1H81.5c-3.3,0-6.1,3-6.1,6.7v41.6c0,3.7,2.8,6.7,6.1,6.7h41.3c3.3,0,6.1-3,6.1-6.7V58.7
		C128.8,55.1,126.2,52.1,122.9,52.1z M110,62c3.2,0,5.9,2.9,5.9,6.4s-2.6,6.4-5.9,6.4c-3.2,0-5.9-2.9-5.9-6.4S106.8,62,110,62z
		 M120.9,100.9h-18.7H84.3c-1.6,0-2.3-1.4-1.6-2.9l10-21.7c0.7-1.5,2.1-1.7,3.1-0.3l10.1,14.4c1,1.4,2.6,1.5,3.8,0.3l2.4-2.8
		c1.1-1.3,2.8-1.1,3.7,0.3l6.4,10C123.1,99.6,122.5,100.9,120.9,100.9z"/>
</g>
</svg>
