<?xml version="1.0" encoding="utf-8"?>
<!-- Generator: Adobe Illustrator 16.0.0, SVG Export Plug-In . SVG Version: 6.00 Build 0)  -->
<!DOCTYPE svg PUBLIC "-//W3C//DTD SVG 1.1//EN" "http://www.w3.org/Graphics/SVG/1.1/DTD/svg11.dtd">
<svg version="1.1" id="Capa_1" xmlns="http://www.w3.org/2000/svg" xmlns:xlink="http://www.w3.org/1999/xlink" x="0px" y="0px"
	 width="673.75px" height="587.5px" viewBox="0 88.5 673.75 587.5" enable-background="new 0 88.5 673.75 587.5"
	 xml:space="preserve">
<g>
	<path fill="#E6E6E6" d="M582.227,170.023c-3.712-3.711-9.71-3.711-13.421,0c-3.712,3.711-3.712,9.709,0,13.421
		c48.33,48.321,74.944,112.674,74.944,181.212c0,68.539-26.614,132.891-74.944,181.211c-3.712,3.713-3.712,9.711,0,13.422
		c1.851,1.852,4.28,2.781,6.71,2.781s4.86-0.93,6.711-2.781c51.918-51.908,80.497-121.025,80.497-194.633
		C662.724,291.049,634.145,221.932,582.227,170.023z"/>
	<path fill="#E6E6E6" d="M541.963,210.286c-3.711-3.711-9.71-3.711-13.421,0c-3.711,3.711-3.711,9.71,0,13.421
		c77.717,77.717,77.717,204.172,0,281.889c-3.711,3.711-3.711,9.709,0,13.422c1.852,1.85,4.281,2.779,6.711,2.779
		s4.859-0.93,6.71-2.779C627.083,433.906,627.083,295.406,541.963,210.286z"/>
	<path fill="#E6E6E6" d="M501.7,250.558c-3.711-3.711-9.71-3.711-13.421,0c-3.711,3.711-3.711,9.71,0,13.421
		c55.516,55.516,55.516,145.827,0,201.345c-3.711,3.711-3.711,9.709,0,13.42c1.851,1.852,4.28,2.781,6.71,2.781
		c2.431,0,4.86-0.93,6.711-2.781c30.43-30.43,47.191-70.949,47.191-114.098S532.13,280.988,501.7,250.558z"/>
</g>
<path fill="#E6E6E6" d="M401.725,177.987c-20.59,0-37.333,16.744-37.333,37.333v11.826L74.638,318.465
	c-2.09-16.018-15.67-28.478-32.247-28.478c-18.013,0-32.666,14.653-32.666,32.667v84c0,18.014,14.653,32.667,32.667,32.667
	c16.576,0,30.156-12.46,32.247-28.478l19.917,6.278c-2.958,3.259-5.329,7.104-6.748,11.499c-5.395,16.645,3.752,34.58,20.412,39.979
	l106.549,34.515c3.146,1.021,6.412,1.54,9.716,1.54c13.823,0,25.984-8.82,30.24-21.961c1.568-4.854,1.792-9.885,0.989-14.784
	l108.678,34.253v11.825c0,20.59,16.743,37.334,37.333,37.334s37.333-16.744,37.333-37.334V215.321
	C439.058,194.731,422.314,177.987,401.725,177.987z M56.392,324.213v80.884v1.557c0,7.719-6.281,14-14,14c-7.718,0-14-6.281-14-14
	v-84c0-7.719,6.282-14,14-14c7.719,0,14,6.281,14,14V324.213z M236.973,476.943c-2.138,6.599-9.828,10.557-16.464,8.409
	l-106.54-34.517c-6.86-2.223-10.64-9.604-8.41-16.466c1.727-5.315,6.852-9.032,12.479-9.032c1.346,0,2.681,0.205,3.978,0.625
	l106.559,34.517c3.295,1.062,5.992,3.368,7.588,6.496C237.759,470.103,238.037,473.658,236.973,476.943z M420.392,513.987
	c0,10.295-8.372,18.667-18.667,18.667s-18.667-8.372-18.667-18.667v-5.945V221.266v-5.945c0-10.294,8.372-18.667,18.667-18.667
	s18.667,8.372,18.667,18.667V513.987z M123.5,352.203c-0.96-1.343-2.185-2.376-3.672-3.096c-1.488-0.721-3.289-1.08-5.4-1.08
	c-2.113,0-4.129,0.408-6.048,1.225c-1.92,0.816-3.636,1.957-5.148,3.42c-1.512,1.463-2.784,3.203-3.816,5.219
	c-1.033,2.017-1.717,4.201-2.052,6.553c-0.336,2.4-0.277,4.598,0.18,6.588c0.456,1.993,1.224,3.721,2.304,5.186
	s2.448,2.604,4.104,3.42c1.656,0.815,3.492,1.224,5.508,1.224c2.304,0,4.416-0.479,6.336-1.438c1.919-0.961,3.576-2.306,4.968-4.033
	l8.352,6.984c-2.592,3.023-5.641,5.256-9.144,6.695c-3.504,1.439-7.009,2.16-10.512,2.16c-3.984,0-7.572-0.624-10.764-1.872
	c-3.193-1.247-5.845-3.035-7.956-5.364c-2.113-2.326-3.625-5.146-4.536-8.46c-0.913-3.312-1.08-7.007-0.504-11.088
	c0.576-4.079,1.788-7.774,3.636-11.088c1.848-3.312,4.151-6.131,6.912-8.46c2.76-2.328,5.916-4.115,9.468-5.364
	c3.551-1.248,7.319-1.872,11.304-1.872c1.44,0,2.916,0.133,4.428,0.396c1.512,0.264,2.988,0.684,4.428,1.26s2.796,1.345,4.068,2.304
	c1.271,0.961,2.34,2.136,3.204,3.528L123.5,352.203z M155.396,385.541h-0.144c-1.44,1.871-3.216,3.215-5.328,4.03
	c-2.113,0.815-4.272,1.226-6.48,1.226c-1.632,0-3.168-0.229-4.608-0.686c-1.44-0.455-2.676-1.141-3.708-2.052
	c-1.033-0.911-1.789-2.04-2.268-3.384c-0.48-1.344-0.601-2.903-0.36-4.681c0.432-3.024,1.572-5.364,3.42-7.021
	c1.847-1.656,4.032-2.881,6.552-3.672c2.52-0.793,5.159-1.26,7.92-1.404c2.759-0.145,5.267-0.217,7.524-0.217
	c0.24-1.918-0.241-3.442-1.44-4.571c-1.201-1.127-2.736-1.69-4.608-1.69c-1.776,0-3.445,0.371-5.004,1.114
	c-1.56,0.745-3.013,1.765-4.356,3.062l-4.896-5.904c2.256-1.872,4.788-3.275,7.596-4.212s5.652-1.404,8.532-1.404
	c3.168,0,5.724,0.396,7.668,1.188c1.944,0.791,3.42,1.955,4.428,3.492c1.008,1.535,1.595,3.42,1.764,5.65
	c0.167,2.232,0.036,4.812-0.396,7.74l-2.448,17.783h-9.936L155.396,385.541z M154.245,374.596c-0.817,0-1.836,0.035-3.06,0.107
	c-1.224,0.071-2.424,0.276-3.6,0.611c-1.177,0.337-2.208,0.841-3.096,1.513c-0.889,0.673-1.404,1.608-1.548,2.808
	c-0.097,0.674-0.025,1.236,0.216,1.692c0.24,0.456,0.576,0.853,1.008,1.188s0.947,0.576,1.548,0.72
	c0.6,0.146,1.188,0.216,1.764,0.216c1.055,0,2.099-0.145,3.132-0.432c1.032-0.288,1.968-0.695,2.808-1.225
	c0.839-0.527,1.548-1.199,2.124-2.017c0.576-0.815,0.936-1.774,1.08-2.88l0.288-2.305h-2.664V374.596z M179.3,335.5h10.8
	l-7.632,54.432h-10.8L179.3,335.5z M198.019,335.5h10.8l-7.632,54.432h-10.8L198.019,335.5z M226.531,376.323h-17.712l1.224-8.64
	h17.712L226.531,376.323z M232.434,364.443c0.576-4.079,1.787-7.775,3.637-11.088c1.846-3.312,4.15-6.131,6.912-8.46
	c2.758-2.328,5.914-4.115,9.467-5.364c3.553-1.248,7.32-1.872,11.305-1.872c3.982,0,7.561,0.625,10.729,1.872
	c3.168,1.249,5.807,3.036,7.92,5.364c2.111,2.329,3.623,5.147,4.535,8.46s1.08,7.009,0.504,11.088
	c-0.576,4.081-1.775,7.775-3.6,11.088c-1.824,3.312-4.129,6.133-6.912,8.46c-2.785,2.329-5.939,4.117-9.469,5.364
	c-3.527,1.248-7.283,1.872-11.268,1.872c-3.985,0-7.572-0.624-10.764-1.872c-3.193-1.247-5.844-3.035-7.957-5.364
	c-2.111-2.327-3.623-5.147-4.535-8.46S231.857,368.524,232.434,364.443z M244.099,364.443c-0.336,2.4-0.264,4.598,0.217,6.588
	c0.479,1.993,1.307,3.721,2.482,5.186c1.176,1.465,2.676,2.604,4.5,3.42c1.824,0.815,3.936,1.224,6.336,1.224
	c2.4,0,4.633-0.407,6.697-1.224c2.062-0.815,3.887-1.955,5.471-3.42s2.893-3.191,3.924-5.186c1.033-1.99,1.717-4.188,2.053-6.588
	c0.336-2.352,0.275-4.536-0.18-6.553c-0.457-2.016-1.285-3.754-2.484-5.219c-1.199-1.465-2.713-2.604-4.535-3.42
	c-1.826-0.815-3.938-1.225-6.336-1.225c-2.402,0-4.633,0.408-6.697,1.225c-2.064,0.816-3.887,1.957-5.471,3.42
	s-2.893,3.203-3.924,5.219C245.118,359.907,244.434,362.092,244.099,364.443z M323.873,389.932h-10.368l0.648-4.752h-0.144
	c-0.48,0.673-1.069,1.345-1.765,2.016c-0.696,0.673-1.512,1.271-2.448,1.801c-0.936,0.528-1.979,0.959-3.132,1.297
	c-1.151,0.334-2.376,0.504-3.672,0.504c-2.736,0-4.896-0.422-6.48-1.262c-1.584-0.839-2.736-2.003-3.456-3.49
	c-0.721-1.488-1.105-3.24-1.152-5.257c-0.048-2.017,0.096-4.2,0.432-6.553l2.736-19.296h10.8l-2.447,17.136
	c-0.145,1.009-0.265,2.054-0.36,3.134c-0.097,1.079-0.024,2.075,0.216,2.986c0.239,0.913,0.695,1.656,1.368,2.232
	c0.672,0.576,1.703,0.863,3.096,0.863c1.392,0,2.557-0.252,3.492-0.757c0.936-0.504,1.692-1.175,2.268-2.016
	c0.576-0.839,1.02-1.787,1.332-2.845c0.312-1.056,0.54-2.16,0.685-3.312l2.448-17.424h10.8L323.873,389.932z M359.009,363.58h-9.504
	l-1.656,11.663c-0.145,0.961-0.216,1.837-0.216,2.629s0.131,1.476,0.396,2.052c0.264,0.576,0.72,1.021,1.368,1.332
	c0.648,0.312,1.548,0.469,2.7,0.469c0.576,0,1.332-0.061,2.268-0.18c0.937-0.119,1.667-0.396,2.196-0.828l-1.224,9
	c-1.249,0.432-2.533,0.72-3.853,0.863c-1.32,0.145-2.604,0.217-3.852,0.217c-1.825,0-3.481-0.192-4.969-0.576
	c-1.488-0.385-2.748-0.996-3.779-1.836c-1.033-0.84-1.776-1.933-2.232-3.276c-0.457-1.343-0.564-2.976-0.324-4.896l2.376-16.633
	h-6.912l1.225-8.641h6.912l1.439-10.368h10.801l-1.44,10.368h9.504L359.009,363.58z"/>
</svg>
