<?xml version="1.0" encoding="utf-8"?>
<!-- Generator: Adobe Illustrator 21.0.2, SVG Export Plug-In . SVG Version: 6.00 Build 0)  -->
<svg version="1.1" id="Layer_1" xmlns="http://www.w3.org/2000/svg" xmlns:xlink="http://www.w3.org/1999/xlink" x="0px" y="0px"
	 viewBox="0 0 198 197" style="enable-background:new 0 0 198 197;" xml:space="preserve">
<style type="text/css">
	.st0{fill:none;stroke:#E6E6E6;stroke-width:3;stroke-miterlimit:10;}
	.st1{fill:#E6E6E6;stroke:#E6E6E6;stroke-miterlimit:10;}
	.st2{fill:#FF3300;}
	.st3{fill:#FFFFFF;}
	.st4{font-family:'MotorOil1937M54';}
	.st5{font-size:60px;}
</style>
<title>Slice 1</title>
<desc>Created with Sketch.</desc>
<path id="Shape" class="st0" d="M100.5,188.3L100.5,188.3c-49.5,0-89.8-40.3-89.8-89.8S51,8.7,100.5,8.7s89.8,40.3,89.8,89.8
	S150,188.3,100.5,188.3L100.5,188.3z"/>
<g>
	<path class="st1" d="M138.1,45l-75.2,0.7c-6.1,0.1-11,6.1-10.9,13.7l0.8,86c0,7.5,5.1,13.7,11.1,13.5l75.2-0.6
		c6.1-0.1,11-6.1,10.9-13.7l-0.8-85.8C149,51,144.2,44.9,138.1,45z M114.8,65.7c5.8-0.1,10.6,5.9,10.8,13.1
		c0.1,7.4-4.7,13.3-10.5,13.3c-5.8,0.1-10.6-5.9-10.8-13.1C104.3,71.9,109,65.8,114.8,65.7z M135.5,145.9l-33.9,0.3L69,146.6
		c-3,0-4.2-2.7-3-5.9l17.6-45c1.3-3.2,3.8-3.7,5.6-0.6l18.6,29.4c2,2.8,5,3.1,6.8,0.5l4.3-5.7c2-2.4,5-2.4,6.7,0.7l11.9,20.6
		C139.5,143,138.4,145.8,135.5,145.9z"/>
</g>
<circle class="st2" cx="151.6" cy="149.6" r="38.3"/>
<text transform="matrix(1 0 0 1 135 172)" class="st3 st4 st5">3</text>
</svg>
