<?xml version="1.0" encoding="utf-8"?>
<!-- Generator: Adobe Illustrator 21.0.2, SVG Export Plug-In . SVG Version: 6.00 Build 0)  -->
<svg version="1.1" id="Layer_1" xmlns="http://www.w3.org/2000/svg" xmlns:xlink="http://www.w3.org/1999/xlink" x="0px" y="0px"
	 viewBox="0 0 198 197" style="enable-background:new 0 0 198 197;" xml:space="preserve">
<style type="text/css">
	.st0{fill:none;stroke:#1822CD;stroke-miterlimit:10;}
	.st1{fill:#1822CD;}
</style>
<title>Slice 1</title>
<desc>Created with Sketch.</desc>
<path id="Shape" class="st0" d="M99,194.9L99,194.9c-53.3,0-96.6-43.4-96.6-96.6C2.4,45,45.7,1.7,99,1.7s96.6,43.4,96.6,96.6
	C195.6,151.6,152.3,194.9,99,194.9L99,194.9z"/>
<g>
	<path class="st1" d="M61.9,128.8c9.2,0,16.6-7.7,16.6-17.2l0.1-34.4c0-9.5-7.5-17.2-16.7-17.2s-16.7,7.7-16.7,17.2v34.4
		C45.2,121.2,52.7,128.8,61.9,128.8z"/>
	<path class="st1" d="M91.4,111.6c0,17.2-14.1,29.3-29.5,29.3s-29.5-12-29.5-29.3H23c0,19.6,15.1,35.7,33.4,38.6V169h11.1v-18.8
		c18.2-2.8,33.4-18.9,33.4-38.6H91.4z"/>
</g>
<path class="st1" d="M141.4,36.5l-5.2,2.6c-2.6-3.5-5.7-6.5-9.3-8.9c-2-1.3-4-2.5-6.2-3.5c-10.1-4.5-21.7-4.6-32.9-0.4
	c-7.4,2.8-14.2,7.3-19.8,13.2c-0.2,0.2-0.4,0.5-0.6,0.7c-1.3,1.8-1,4.2,0.7,5.3l0,0l1.3,0.9c1.4,1,3.4,0.6,4.7-0.7
	c4.5-4.7,10-8.3,15.8-10.5c11-4.1,22.5-3,31.4,3.1c2.2,1.5,4.2,3.3,5.9,5.3l-4.9,2.5c-1.1,0.6-0.9,1.6,0.4,2.3l14.7,7.5
	c1.3,0.7,2.6,0,2.9-1.5l2.6-16.3C143.3,36.6,142.5,35.9,141.4,36.5z"/>
<g>
	<title>Canvas 4</title>
	<g>
		<title>Layer 1</title>
		<path class="st1" d="M135.6,71.8v11.5h19.1v45.9h11.5V83.3h19.1V71.8H135.6z M112.6,102.4h11.5v26.8h11.5v-26.8h11.5V90.9h-34.5
			V102.4z"/>
	</g>
</g>
</svg>
