<?xml version="1.0" encoding="utf-8"?>
<!-- Generator: Adobe Illustrator 16.0.0, SVG Export Plug-In . SVG Version: 6.00 Build 0)  -->
<!DOCTYPE svg PUBLIC "-//W3C//DTD SVG 1.1//EN" "http://www.w3.org/Graphics/SVG/1.1/DTD/svg11.dtd">
<svg version="1.1" id="Layer_1" xmlns:xl="http://www.w3.org/1999/xlink"
	 xmlns="http://www.w3.org/2000/svg" xmlns:xlink="http://www.w3.org/1999/xlink" x="0px" y="0px" width="204.746px"
	 height="206.9px" viewBox="0 0 204.746 206.9" enable-background="new 0 0 204.746 206.9" xml:space="preserve">
<title>Layer 1</title>
<title>Canvas 4</title>
<title>Layer 1</title>
<path opacity="0.6" fill="none" stroke="#E6E6E6" stroke-width="3" stroke-linecap="round" stroke-linejoin="round" enable-background="new    " d="
	M101.995,201.924L101.995,201.924c-53.267,0-96.631-43.36-96.631-96.629c0-53.271,43.364-96.632,96.631-96.632
	c53.269,0,96.629,43.362,96.629,96.632C198.625,158.561,155.264,201.924,101.995,201.924z"/>
<g>
	<title>Canvas 1</title>
	<g>
		<title>Layer 1</title>
		<path fill="#E6E6E6" d="M84.629,128.122c-22.233,0-40.235-18.02-40.235-40.236c0-22.231,18.002-40.236,40.235-40.236
			c22.216,0,40.236,18.005,40.236,40.236C124.865,110.102,106.845,128.122,84.629,128.122 M121.457,119.071
			c7.12-8.406,11.461-19.288,11.461-31.185c0-26.667-21.621-48.287-48.289-48.287c-26.667,0-48.289,21.62-48.289,48.287
			c0,26.669,21.622,48.274,48.289,48.274c11.896,0,22.764-4.325,31.186-11.447l35.604,35.608l5.659-5.627L121.457,119.071z"/>
	</g>
</g>
</svg>
