<?xml version="1.0" encoding="utf-8"?>
<!-- Generator: Adobe Illustrator 16.0.0, SVG Export Plug-In . SVG Version: 6.00 Build 0)  -->
<!DOCTYPE svg PUBLIC "-//W3C//DTD SVG 1.1//EN" "http://www.w3.org/Graphics/SVG/1.1/DTD/svg11.dtd">
<svg version="1.1" id="Layer_1" xmlns:xl="http://www.w3.org/1999/xlink"
	 xmlns="http://www.w3.org/2000/svg" xmlns:xlink="http://www.w3.org/1999/xlink" x="0px" y="0px" width="51px" height="33px"
	 viewBox="0 0 51 33" enable-background="new 0 0 51 33" xml:space="preserve">
<g>
	<title>Canvas 1</title>
	<title>Layer 1</title>
</g>
<path fill="#E6E6E6" stroke="#E6E6E6" stroke-width="2" stroke-miterlimit="10" d="M44.62,3.51h-0.257H5.634H5.299H4.483H3.922
	v26.98h42.156V3.51H44.62z M42.677,5.196L26.391,21.482c-0.743,0.742-2.039,0.742-2.781,0L7.32,5.196H42.677z M5.608,5.867
	l10.948,10.948L5.608,27.766V5.867z M6.954,28.805L17.75,18.008l4.666,4.667c0.69,0.688,1.608,1.07,2.583,1.07
	s1.894-0.382,2.583-1.07l4.667-4.667l10.796,10.797H6.954z M44.393,27.766L33.441,16.815l10.951-10.95V27.766z"/>
</svg>
