<?xml version="1.0" encoding="utf-8"?>
<!-- Generator: Adobe Illustrator 16.0.0, SVG Export Plug-In . SVG Version: 6.00 Build 0)  -->
<!DOCTYPE svg PUBLIC "-//W3C//DTD SVG 1.1//EN" "http://www.w3.org/Graphics/SVG/1.1/DTD/svg11.dtd">
<svg version="1.1" id="Capa_1" xmlns="http://www.w3.org/2000/svg" xmlns:xlink="http://www.w3.org/1999/xlink" x="0px" y="0px"
	 width="559.305px" height="444.887px" viewBox="0 0 559.305 444.887" enable-background="new 0 0 559.305 444.887"
	 xml:space="preserve">
<g>
	<path fill="#E6E6E6" d="M548.712,70.756h-19.307v-26.13c0-5.847-4.746-10.593-10.594-10.593h-92.686
		c-5.848,0-10.594,4.746-10.594,10.593v26.13h-23.756L377.003,4.881c-1.088-4.845-5.381-8.277-10.34-8.277H192.64
		c-4.958,0-9.251,3.432-10.339,8.277l-14.774,65.875h-60.084V30.503c0-5.848-4.746-10.593-10.594-10.593H54.477
		c-5.847,0-10.593,4.746-10.593,10.593v40.254H10.592C4.744,70.757,0,75.489,0,81.35v349.546c0,5.863,4.746,10.596,10.593,10.596
		h538.12c5.85,0,10.594-4.73,10.594-10.596V81.35C559.306,75.488,554.56,70.756,548.712,70.756z M436.722,55.22h71.496v15.537
		h-71.496V55.22z M65.07,41.096h21.187v29.661H65.07V41.096z M21.186,170.32h145.579c-18.163,23.842-28.969,53.586-28.969,85.805
		c0,37.188,14.394,71.072,37.881,96.396H21.186V170.32z M279.66,135.446c66.525,0,120.664,54.138,120.664,120.677
		c0,66.541-54.139,120.678-120.664,120.678c-66.539,0-120.678-54.137-120.678-120.678
		C158.982,189.584,213.121,135.446,279.66,135.446z M538.119,420.305H21.186v-46.596h179.193
		c22.643,15.324,49.932,24.279,79.279,24.279c29.336,0,56.625-8.955,79.268-24.279h179.191L538.119,420.305L538.119,420.305z
		 M538.119,352.521h-154.49c23.488-25.322,37.883-59.209,37.883-96.396c0-32.219-10.807-61.962-28.971-85.805h145.578V352.521z
		 M538.119,149.132H372.697c-24.916-21.709-57.473-34.873-93.037-34.873c-35.578,0-68.121,13.164-93.051,34.873H21.186V91.943
		h154.816c4.958,0,9.251-3.446,10.339-8.277l14.772-65.875h157.076l14.773,65.875c1.088,4.831,5.383,8.277,10.34,8.277h154.814
		v57.189H538.119L538.119,149.132z"/>
	<path fill="#E6E6E6" d="M348.742,40.192c-1.088-4.844-5.381-8.276-10.34-8.276h-117.5c-4.957,0-9.25,3.432-10.338,8.276
		l-8.701,38.828c-0.705,3.15,0.057,6.441,2.062,8.941c2.006,2.514,5.057,3.983,8.264,3.983h134.928c3.207,0,6.258-1.469,8.264-3.983
		c2.021-2.5,2.77-5.791,2.076-8.941L348.742,40.192z M225.423,70.756l3.971-17.655h100.52l3.971,17.655H225.423z"/>
</g>
</svg>
