<?xml version="1.0" encoding="utf-8"?>
<!-- Generator: Adobe Illustrator 16.0.0, SVG Export Plug-In . SVG Version: 6.00 Build 0)  -->
<!DOCTYPE svg PUBLIC "-//W3C//DTD SVG 1.1//EN" "http://www.w3.org/Graphics/SVG/1.1/DTD/svg11.dtd">
<svg version="1.1" id="Capa_1" xmlns="http://www.w3.org/2000/svg" xmlns:xlink="http://www.w3.org/1999/xlink" x="0px" y="0px"
	 width="874.5px" height="676px" viewBox="-14 -117.5 874.5 676" enable-background="new -14 -117.5 874.5 676"
	 xml:space="preserve">
<g>
	<path fill="#E2E3E5" d="M617.995,535.92c-4.556,0-7.592-1.519-10.629-4.556c-6.074-6.072-6.074-15.184,0-21.257
		c159.433-159.433,159.433-420.597,0-580.028c-6.074-6.074-6.074-15.184,0-21.257c6.072-6.073,15.184-6.073,21.257,0
		c171.579,171.579,171.579,450.965,0,622.545C625.586,534.403,622.551,535.92,617.995,535.92z"/>
	<path fill="#E2E3E5" d="M554.223,472.147c-4.554,0-7.593-1.519-10.629-4.554c-6.073-6.074-6.073-15.186,0-21.258
		c60.736-60.737,92.622-139.693,92.622-224.724c0-85.032-33.405-165.506-92.622-224.724c-6.073-6.073-6.073-15.184,0-21.257
		s15.185-6.073,21.257,0c65.291,63.772,101.732,150.321,101.732,244.462c0,92.623-36.441,180.69-101.732,247.5
		C561.815,470.629,557.258,472.147,554.223,472.147z"/>
	<path fill="#E2E3E5" d="M488.932,406.856c-4.554,0-7.591-1.519-10.63-4.554c-6.072-6.074-6.072-15.184,0-21.258
		c88.067-88.067,88.067-233.835,0-321.901c-6.072-6.073-6.072-15.184,0-21.257c6.074-6.073,15.186-6.073,21.258,0
		c100.216,100.214,100.216,264.203,0,364.417C496.524,405.338,493.487,406.856,488.932,406.856z"/>
</g>
<path fill="#E6E6E6" d="M394,19.667c-20.59,0-37.333,16.744-37.333,37.333v11.826L66.913,160.145
	c-2.09-16.018-15.67-28.478-32.247-28.478C16.653,131.667,2,146.32,2,164.334v84c0,18.014,14.653,32.667,32.667,32.667
	c16.576,0,30.156-12.46,32.247-28.478l19.917,6.279c-2.958,3.258-5.329,7.104-6.748,11.499c-5.395,16.644,3.752,34.58,20.412,39.978
	l106.549,34.515c3.146,1.021,6.412,1.54,9.716,1.54c13.823,0,25.984-8.82,30.24-21.961c1.568-4.854,1.792-9.885,0.989-14.784
	l108.678,34.253v11.825c0,20.59,16.743,37.334,37.333,37.334s37.333-16.744,37.333-37.334V57.001
	C431.333,36.411,414.59,19.667,394,19.667z M48.667,165.893v80.884v1.557c0,7.719-6.281,14-14,14c-7.718,0-14-6.281-14-14v-84
	c0-7.719,6.282-14,14-14c7.719,0,14,6.281,14,14V165.893z M229.248,318.623c-2.138,6.599-9.828,10.557-16.464,8.409l-106.54-34.517
	c-6.86-2.222-10.64-9.604-8.41-16.465c1.727-5.316,6.852-9.033,12.479-9.033c1.346,0,2.681,0.205,3.978,0.625l106.559,34.517
	c3.295,1.062,5.992,3.368,7.588,6.496C230.034,311.782,230.312,315.338,229.248,318.623z M412.667,355.667
	c0,10.295-8.372,18.667-18.667,18.667s-18.667-8.372-18.667-18.667v-5.945V62.946v-5.945c0-10.294,8.372-18.667,18.667-18.667
	s18.667,8.372,18.667,18.667V355.667z"/>
<path fill="#0C6BEB" stroke="#0C6BEB" stroke-miterlimit="10" d="M708.622,142.479c-2.335,0-4.522,0.922-6.156,2.589l-3.212,3.281
	l-3.214-3.281c-1.635-1.667-3.821-2.589-6.157-2.589c-4.752,0-8.619,3.867-8.619,8.623c0,6.068,5.26,12.188,9.67,16.252
	c3.113,2.873,6.271,5.148,8.32,6.522c2.046-1.374,5.204-3.649,8.317-6.522c4.41-4.064,9.671-10.184,9.671-16.252
	C717.242,146.346,713.375,142.479,708.622,142.479z"/>
<path fill="#0C6BEB" stroke="#0C6BEB" stroke-miterlimit="10" d="M593.748,196.173c-3.618,0-7.008,1.429-9.54,4.012l-4.977,5.084
	l-4.981-5.084c-2.532-2.583-5.921-4.012-9.54-4.012c-7.365,0-13.357,5.992-13.357,13.362c0,9.402,8.151,18.887,14.985,25.185
	c4.823,4.451,9.719,7.978,12.894,10.106c3.17-2.129,8.064-5.655,12.889-10.106c6.834-6.299,14.985-15.782,14.986-25.185
	C607.106,202.165,601.114,196.173,593.748,196.173z"/>
<path fill="#0C6BEB" stroke="#0C6BEB" stroke-miterlimit="10" d="M531.038,94.668c-4.967,0-9.62,1.961-13.097,5.508l-6.833,6.979
	l-6.839-6.979c-3.477-3.546-8.129-5.508-13.098-5.508c-10.111,0-18.338,8.227-18.338,18.345c0,12.908,11.191,25.929,20.573,34.576
	c6.622,6.111,13.343,10.952,17.701,13.875c4.353-2.923,11.072-7.764,17.695-13.875c9.382-8.648,20.573-21.667,20.574-34.576
	C549.378,102.895,541.151,94.668,531.038,94.668z"/>
<path fill="#0C6BEB" stroke="#0C6BEB" stroke-miterlimit="10" d="M627.038-26.128c-4.967,0-9.621,1.961-13.097,5.508l-6.833,6.979
	l-6.839-6.979c-3.477-3.546-8.129-5.508-13.098-5.508c-10.111,0-18.338,8.227-18.338,18.345c0,12.908,11.19,25.929,20.573,34.576
	c6.622,6.111,13.343,10.952,17.701,13.875c4.353-2.923,11.071-7.764,17.695-13.875c9.382-8.648,20.573-21.667,20.574-34.576
	C645.378-17.902,637.151-26.128,627.038-26.128z"/>
<path fill="#0C6BEB" stroke="#0C6BEB" stroke-miterlimit="10" d="M569.311,284.883c-4.967,0-9.621,1.962-13.098,5.508l-6.832,6.979
	l-6.839-6.979c-3.477-3.546-8.129-5.508-13.098-5.508c-10.111,0-18.338,8.227-18.338,18.345c0,12.908,11.19,25.93,20.573,34.576
	c6.622,6.111,13.343,10.952,17.701,13.875c4.353-2.923,11.072-7.764,17.695-13.875c9.382-8.648,20.573-21.668,20.574-34.576
	C587.65,293.109,579.424,284.883,569.311,284.883z"/>
<path fill="#0C6BEB" stroke="#0C6BEB" stroke-miterlimit="10" d="M621.625,415.306c-3.618,0-7.008,1.429-9.54,4.012l-4.977,5.084
	l-4.981-5.084c-2.532-2.583-5.921-4.012-9.54-4.012c-7.365,0-13.357,5.992-13.357,13.362c0,9.402,8.151,18.887,14.985,25.185
	c4.823,4.451,9.719,7.978,12.894,10.106c3.17-2.129,8.064-5.655,12.889-10.106c6.834-6.299,14.985-15.782,14.986-25.185
	C634.983,421.298,628.991,415.306,621.625,415.306z"/>
<path fill="#0C6BEB" stroke="#0C6BEB" stroke-miterlimit="10" d="M719.185,301.646c-4.967,0-9.621,1.962-13.097,5.508l-6.833,6.979
	l-6.839-6.979c-3.477-3.546-8.129-5.508-13.098-5.508c-10.111,0-18.338,8.227-18.338,18.346c0,12.908,11.19,25.929,20.573,34.575
	c6.622,6.111,13.343,10.953,17.701,13.875c4.353-2.922,11.071-7.764,17.695-13.875c9.382-8.647,20.573-21.667,20.574-34.575
	C737.524,309.873,729.298,301.646,719.185,301.646z"/>
<path fill="#0C6BEB" stroke="#0C6BEB" stroke-miterlimit="10" d="M660.61,115.266c-4.967,0-9.621,1.962-13.098,5.508l-6.832,6.979
	l-6.839-6.979c-3.477-3.546-8.129-5.508-13.098-5.508c-10.111,0-18.338,8.227-18.338,18.345c0,12.908,11.19,25.93,20.573,34.576
	c6.622,6.111,13.343,10.952,17.701,13.875c4.353-2.923,11.072-7.764,17.695-13.875c9.382-8.648,20.573-21.668,20.574-34.576
	C678.95,123.493,670.724,115.266,660.61,115.266z"/>
<path fill="#0C6BEB" stroke="#0C6BEB" stroke-miterlimit="10" d="M809.034,220.094c-3.618,0-7.008,1.429-9.54,4.012l-4.977,5.084
	l-4.981-5.084c-2.532-2.583-5.921-4.012-9.54-4.012c-7.365,0-13.357,5.992-13.357,13.362c0,9.402,8.151,18.887,14.985,25.185
	c4.823,4.451,9.719,7.978,12.894,10.106c3.17-2.129,8.064-5.655,12.889-10.106c6.834-6.299,14.985-15.782,14.986-25.185
	C822.393,226.086,816.4,220.094,809.034,220.094z"/>
<path fill="#0C6BEB" stroke="#0C6BEB" stroke-miterlimit="10" d="M737.174,61.27c-4.967,0-9.621,1.961-13.097,5.508l-6.833,6.979
	l-6.839-6.979c-3.477-3.546-8.129-5.508-13.098-5.508c-10.111,0-18.338,8.227-18.338,18.345c0,12.908,11.19,25.929,20.573,34.575
	c6.622,6.111,13.343,10.953,17.701,13.875c4.353-2.922,11.071-7.764,17.695-13.875c9.382-8.647,20.573-21.667,20.574-34.575
	C755.514,69.497,747.287,61.27,737.174,61.27z"/>
<text transform="matrix(1 0 0 1 2 426.5)" fill="#E6E6E6" stroke="#E6E6E6" stroke-miterlimit="10" font-family="'Avenir-BlackOblique'" font-size="79">Call-out</text>
<text transform="matrix(1 0 0 1 72 231.6113)" fill="#E6E6E6" stroke="#E6E6E6" stroke-miterlimit="10" font-family="'Avenir-BlackOblique'" font-size="72">Call-out</text>
</svg>
