<?xml version="1.0" encoding="utf-8"?>
<!-- Generator: Adobe Illustrator 16.0.0, SVG Export Plug-In . SVG Version: 6.00 Build 0)  -->
<!DOCTYPE svg PUBLIC "-//W3C//DTD SVG 1.1//EN" "http://www.w3.org/Graphics/SVG/1.1/DTD/svg11.dtd">
<svg version="1.1" id="Layer_1" xmlns:xl="http://www.w3.org/1999/xlink"
	 xmlns="http://www.w3.org/2000/svg" xmlns:xlink="http://www.w3.org/1999/xlink" x="0px" y="0px" width="204.745px"
	 height="206.9px" viewBox="0 0 204.745 206.9" enable-background="new 0 0 204.745 206.9" xml:space="preserve">
<title>Layer 1</title>
<title>Canvas 4</title>
<title>Layer 1</title>
<path opacity="0.6" fill="none" stroke="#E6E6E6" stroke-width="3" stroke-linecap="round" stroke-linejoin="round" d="
	M101.995,201.924L101.995,201.924c-53.267,0-96.631-43.362-96.631-96.629c0-53.271,43.364-96.632,96.631-96.632
	c53.269,0,96.63,43.362,96.63,96.632C198.625,158.561,155.263,201.924,101.995,201.924z"/>
<g>
	<title>Canvas 4</title>
	<g>
		<title>Layer 1</title>
		<path fill="#E6E6E6" d="M105.579,132.068l8.691,5.436c0.639,0.398,1.325,0.63,2.03,0.701c1.59,0.169,3.174-0.522,4.245-1.842
			c-5.04-4.476-10.678-8.059-16.737-10.865C102.659,127.828,103.387,130.698,105.579,132.068z"/>
		<path fill="#E6E6E6" d="M108.283,118.098c0.838,0.385,1.65,0.794,2.464,1.213c4.259,2.194,8.258,4.825,12.118,7.697
			c0.759,0.569,1.518,1.139,2.265,1.727c0.488-1.127,0.56-2.347,0.24-3.467c-0.325-1.157-1.047-2.198-2.12-2.872l-8.689-5.437
			c-0.64-0.397-1.325-0.629-2.03-0.701c-0.476-0.056-0.958-0.019-1.428,0.072C110.018,116.552,109.031,117.177,108.283,118.098z"/>
		<path fill="#E6E6E6" d="M105.056,123.324c2.306,1.083,4.559,2.271,6.739,3.576c1.354,0.814,2.704,1.656,4.011,2.56
			c2.119,1.474,4.162,3.073,6.119,4.788l1.975-3.321c-1.132-0.884-2.287-1.747-3.444-2.599c-3.132-2.284-6.36-4.421-9.758-6.242
			c-1.24-0.666-2.505-1.279-3.794-1.858L105.056,123.324z"/>
		<path fill="#E6E6E6" d="M115.571,115.25l8.691,5.437c1.234,0.771,2.162,1.918,2.71,3.27c6.041-5.119,12.871-13.437,18.941-23.648
			C157.591,80.667,162,61.58,155.761,57.678c-6.233-3.903-20.755,8.86-32.433,28.5c-6.064,10.206-10.148,20.239-11.817,28.09
			c0.41-0.035,0.819-0.047,1.229-0.004C113.751,114.372,114.705,114.704,115.571,115.25z"/>
		<path fill="#E6E6E6" d="M105.579,132.068l8.691,5.436c0.639,0.398,1.325,0.63,2.03,0.701c1.59,0.169,3.174-0.522,4.245-1.842
			c-5.04-4.476-10.678-8.059-16.737-10.865C102.659,127.828,103.387,130.698,105.579,132.068z"/>
		<path fill="#E6E6E6" d="M108.283,118.098c0.838,0.385,1.65,0.794,2.464,1.213c4.259,2.194,8.258,4.825,12.118,7.697
			c0.759,0.569,1.518,1.139,2.265,1.727c0.488-1.127,0.56-2.347,0.24-3.467c-0.325-1.157-1.047-2.198-2.12-2.872l-8.689-5.437
			c-0.64-0.397-1.325-0.629-2.03-0.701c-0.476-0.056-0.958-0.019-1.428,0.072C110.018,116.552,109.031,117.177,108.283,118.098z"/>
		<path fill="#E6E6E6" d="M105.056,123.324c2.306,1.083,4.559,2.271,6.739,3.576c1.354,0.814,2.704,1.656,4.011,2.56
			c2.119,1.474,4.162,3.073,6.119,4.788l1.975-3.321c-1.132-0.884-2.287-1.747-3.444-2.599c-3.132-2.284-6.36-4.421-9.758-6.242
			c-1.24-0.666-2.505-1.279-3.794-1.858L105.056,123.324z"/>
		<path fill="#E6E6E6" d="M57.752,111.954c14.882-7.864,0.273-24-4.517-32.112c-1.916-3.246-7.252-0.804-5.303,2.494
			c4.434,7.52,17.878,19.749,3.844,25.895c-4.156,1.819-7.172,5.607-4.779,10.22c2.43,4.675,10.404,5.904,14.82,7.055
			c3.089,0.803,6.271,2.101,9.143,3.651c-1.274,0.438-2.621,0.75-3.914,1.1c-6.524,1.759-21.101,6.062-17.184,16.359
			c3.196,8.413,14.468,9.436,23.234,10.523c-0.088-0.196-0.153-0.412-0.188-0.659c-0.278-1.99,1.379-2.926,5.331-4.661
			c-5.581-1.1-11.246-1.537-16.74-3.147c-11.042-3.245-3.069-9.669,3.552-11.683c3.49-1.064,16.687-2.759,12.988-9.588
			c-2.232-4.129-9.178-5.774-13-7.212c-2.633-0.985-5.505-1.477-8.181-2.362C50.537,115.728,53.412,114.253,57.752,111.954z"/>
		<path fill="#E6E6E6" d="M80.773,152.883c-4.45,1.935-8.157,3.485-4.393,3.879c1.022,0.102,2.604,0.127,4.861,0.046
			c3.075-0.106,7.406-0.405,13.354-0.926c32.852-2.891,10.122-21.803,10.122-21.803c-1.571-0.833-3.102-1.287-4.562-1.441
			c-7.977-0.834-13.721,7.449-10.511,13.994C90.591,148.569,85.296,150.925,80.773,152.883z"/>
		<path fill="#E6E6E6" d="M115.571,115.25l8.691,5.437c1.234,0.771,2.162,1.918,2.71,3.27c6.041-5.119,12.871-13.437,18.941-23.648
			C157.591,80.667,162,61.58,155.761,57.678c-6.233-3.903-20.755,8.86-32.433,28.5c-6.064,10.206-10.148,20.239-11.817,28.09
			c0.41-0.035,0.819-0.047,1.229-0.004C113.751,114.372,114.705,114.704,115.571,115.25z"/>
		<path fill="#E6E6E6" d="M57.752,111.954c14.882-7.864,0.273-24-4.517-32.112c-1.916-3.246-7.252-0.804-5.303,2.494
			c4.434,7.52,17.878,19.749,3.844,25.895c-4.156,1.819-7.172,5.607-4.779,10.22c2.43,4.675,10.404,5.904,14.82,7.055
			c3.089,0.803,6.271,2.101,9.143,3.651c-1.274,0.438-2.621,0.75-3.914,1.1c-6.524,1.759-21.101,6.062-17.184,16.359
			c3.196,8.413,14.468,9.436,23.234,10.523c-0.088-0.196-0.153-0.412-0.188-0.659c-0.278-1.99,1.379-2.926,5.331-4.661
			c-5.581-1.1-11.246-1.537-16.74-3.147c-11.042-3.245-3.069-9.669,3.552-11.683c3.49-1.064,16.687-2.759,12.988-9.588
			c-2.232-4.129-9.178-5.774-13-7.212c-2.633-0.985-5.505-1.477-8.181-2.362C50.537,115.728,53.412,114.253,57.752,111.954z"/>
		<path fill="#E6E6E6" d="M80.773,152.883c-4.45,1.935-8.157,3.485-4.393,3.879c1.022,0.102,2.604,0.127,4.861,0.046
			c3.075-0.106,7.406-0.405,13.354-0.926c32.852-2.891,10.122-21.803,10.122-21.803c-1.571-0.833-3.102-1.287-4.562-1.441
			c-7.977-0.834-13.721,7.449-10.511,13.994C90.591,148.569,85.296,150.925,80.773,152.883z"/>
	</g>
</g>
</svg>
