<?xml version="1.0" encoding="utf-8"?>
<!-- Generator: Adobe Illustrator 21.0.2, SVG Export Plug-In . SVG Version: 6.00 Build 0)  -->
<svg version="1.1" id="Layer_1" xmlns:xl="http://www.w3.org/1999/xlink"
	 xmlns="http://www.w3.org/2000/svg" xmlns:xlink="http://www.w3.org/1999/xlink" x="0px" y="0px" viewBox="0 0 204.7 206.9"
	 style="enable-background:new 0 0 204.7 206.9;" xml:space="preserve">
<style type="text/css">
	.st0{fill:#E6E6E6;}
	.st1{font-family:'GoboldBoldItalic-Italic';}
	.st2{font-size:41.2629px;}
</style>
<title>Layer 1</title>
<title>Canvas 4</title>
<title>Layer 1</title>
<path class="st0" d="M185.3,188V29.7c0-10.9-10.6-19.7-23.5-19.7h-119c-12.9,0.1-23.4,8.9-23.4,19.7V39c-0.1,1.6,1.3,3.2,3.2,3.3
	c1.9,0.1,3.7-1.1,3.9-2.7c0-0.2,0-0.4,0-0.5v-9.3c0-7.6,7.3-13.7,16.4-13.7h11v111.2h-0.6c-10.6,1-20.1,5.6-26.3,12.6v0.1l-0.4,0.4
	V50.9c0.1-1.6-1.3-3.2-3.2-3.3c-1.9-0.1-3.7,1.1-3.9,2.7c0,0.2,0,0.4,0,0.5V159c0,17.7,16.9,31.9,38,31.9h20.1v6.1
	c0,1.6,1.7,2.9,3.7,2.9c1,0,1.8-0.3,2.5-0.9l11.2-9.4l11.7,9.3c1.4,1.1,3.7,1.1,5.1-0.1c0.6-0.5,1-1.3,1.1-2.1v-6.1h32.8
	c1.9,0.1,3.7-1.1,3.9-2.7c0.1-1.6-1.3-3.2-3.2-3.3c-0.2,0-0.4,0-0.6,0h-32.8v-9h65.6v9.4H160c-1.9-0.1-3.7,1.1-3.9,2.7
	c-0.1,1.6,1.3,3.2,3.2,3.3c0.2,0,0.4,0,0.6,0h22.3C183.7,191.1,185.3,189.6,185.3,188L185.3,188z M105.3,172.7V190l-7.9-6.4
	c-1.4-1.1-3.6-1.1-5,0l-7.9,6.4v-28.1h20.6L105.3,172.7L105.3,172.7z M178.2,169.7h-65.6V159c0-1.6-1.5-2.9-3.6-2.9h-28
	c-1.9,0-3.6,1.3-3.6,2.9v10.7H57.4c-7,0-12.8-4.8-12.8-10.7s5.7-10.7,12.8-10.7h120.7v21.4H178.2z M178.2,127.1H88.8
	c-1.9,0.1-3.3,1.6-3.2,3.3c0.1,1.4,1.5,2.5,3.2,2.7h89.3v9.4H57.4c-11,0.3-19.4,8.2-19.1,17.3c0.4,8.7,8.7,15.6,19.1,16h20.1v9.4
	H57.4c-17.2,0-31-11.7-31-26s13.8-26,31-26h17.3c1.9-0.1,3.3-1.6,3.2-3.3c-0.1-1.4-1.5-2.5-3.2-2.7H60.9V15.9h100.8
	c9.1,0,16.4,6.1,16.4,13.7L178.2,127.1L178.2,127.1z"/>
<text transform="matrix(1.195 0 0 1 75.7116 88.6001)" class="st0 st1 st2">A-B</text>
</svg>
