<?xml version="1.0" encoding="utf-8"?>
<!-- Generator: Adobe Illustrator 21.0.2, SVG Export Plug-In . SVG Version: 6.00 Build 0)  -->
<svg version="1.1" id="Layer_1" xmlns="http://www.w3.org/2000/svg" xmlns:xlink="http://www.w3.org/1999/xlink" x="0px" y="0px"
	 viewBox="0 0 198 197" style="enable-background:new 0 0 198 197;" xml:space="preserve">
<style type="text/css">
	.st0{fill:none;stroke:#E6E6E6;stroke-miterlimit:10;}
	.st1{fill:#E6E6E6;}
</style>
<title>Slice 1</title>
<desc>Created with Sketch.</desc>
<path id="Shape" class="st0" d="M98.5,187.3L98.5,187.3C49,187.3,8.7,147,8.7,97.5S49,7.7,98.5,7.7s89.8,40.3,89.8,89.8
	S148,187.3,98.5,187.3L98.5,187.3z"/>
<g>
	<g>
		<path class="st1" d="M150.4,55.3c-0.8-0.8-2.1-0.8-2.9,0c-0.8,0.8-0.8,2.1,0,2.9c10.5,10.5,16.2,24.4,16.2,39.3
			s-5.8,28.8-16.2,39.3c-0.8,0.8-0.8,2.1,0,2.9c0.4,0.4,0.9,0.6,1.5,0.6c0.5,0,1.1-0.2,1.5-0.6c11.3-11.3,17.4-26.2,17.4-42.2
			S161.6,66.6,150.4,55.3z"/>
		<path class="st1" d="M141.7,64c-0.8-0.8-2.1-0.8-2.9,0c-0.8,0.8-0.8,2.1,0,2.9c16.8,16.8,16.8,44.3,0,61.1c-0.8,0.8-0.8,2.1,0,2.9
			c0.4,0.4,0.9,0.6,1.5,0.6s1.1-0.2,1.5-0.6C160.1,112.5,160.1,82.5,141.7,64z"/>
		<path class="st1" d="M132.9,72.8c-0.8-0.8-2.1-0.8-2.9,0c-0.8,0.8-0.8,2.1,0,2.9c12,12,12,31.6,0,43.6c-0.8,0.8-0.8,2.1,0,2.9
			c0.4,0.4,0.9,0.6,1.5,0.6s1.1-0.2,1.5-0.6c6.6-6.6,10.2-15.4,10.2-24.7C143.2,88.1,139.5,79.4,132.9,72.8z"/>
	</g>
	<path class="st1" d="M114.1,57c-4.5,0-8.1,3.6-8.1,8.1v2.6L43.2,87.5c-0.5-3.5-3.4-6.2-7-6.2c-3.9,0-7.1,3.2-7.1,7.1v18.2
		c0,3.9,3.2,7.1,7.1,7.1c3.6,0,6.5-2.7,7-6.2l4.3,1.4c-0.6,0.7-1.2,1.5-1.5,2.5c-1.2,3.6,0.8,7.5,4.4,8.7l23.1,7.5
		c0.7,0.2,1.4,0.3,2.1,0.3c3,0,5.6-1.9,6.6-4.8c0.3-1.1,0.4-2.1,0.2-3.2l23.6,7.4v2.6c0,4.5,3.6,8.1,8.1,8.1s8.1-3.6,8.1-8.1V65.1
		C122.2,60.7,118.6,57,114.1,57z M39.3,88.7v17.5v0.3c0,1.7-1.4,3-3,3c-1.7,0-3-1.4-3-3V88.4c0-1.7,1.4-3,3-3c1.7,0,3,1.4,3,3V88.7z
		 M78.4,121.8c-0.5,1.4-2.1,2.3-3.6,1.8l-23.1-7.5c-1.5-0.5-2.3-2.1-1.8-3.6c0.4-1.2,1.5-2,2.7-2c0.3,0,0.6,0,0.9,0.1l23.1,7.5
		c0.7,0.2,1.3,0.7,1.6,1.4C78.6,120.4,78.7,121.1,78.4,121.8z M118.2,129.9c0,2.2-1.8,4-4,4s-4-1.8-4-4v-1.3V66.4v-1.3
		c0-2.2,1.8-4,4-4s4,1.8,4,4V129.9z"/>
</g>
</svg>
