<?xml version="1.0" encoding="UTF-8" standalone="no"?>
<svg width="631px" height="631px" viewBox="0 0 631 631" version="1.1" xmlns="http://www.w3.org/2000/svg" xmlns:xlink="http://www.w3.org/1999/xlink">
    <!-- Generator: Sketch 3.7.2 (28276) - http://www.bohemiancoding.com/sketch -->
    <title>Slice 1</title>
    <desc>Created with Sketch.</desc>
    <defs></defs>
    <g id="Page-1" stroke="none" stroke-width="1" fill="none" fill-rule="evenodd">
        <g id="Group" transform="translate(3.000000, 3.000000)">
            <path d="M497.496147,127.525181 C463.461069,93.4916062 408.08471,93.4916062 374.050383,127.525181 L248.846103,252.730214 C248.844599,252.731717 248.843847,252.732469 248.841591,252.733973 L127.525745,374.050571 C93.4914184,408.086401 93.4914184,463.463512 127.525745,497.496335 C144.543284,514.513874 166.895017,523.021517 189.248251,523.021517 C211.601486,523.021517 233.95397,514.513123 250.973012,497.496335 L376.17579,372.292055 C376.177294,372.289799 376.178046,372.289047 376.181805,372.287544 L497.495396,250.971697 C531.529722,216.936618 531.529722,161.559508 497.496147,127.525181 L497.496147,127.525181 L497.496147,127.525181 L497.496147,127.525181 Z M364.320276,360.426766 L239.111483,485.634054 C211.617275,513.126008 166.880731,513.126008 139.388026,485.634054 C111.89457,458.141349 111.89457,413.404806 139.388026,385.909093 L224.377234,300.919885 C224.336636,301.177009 224.286264,301.431126 224.248673,301.689753 C221.90674,317.666016 224.106577,334.237724 230.429418,349.004301 L230.418892,349.005054 L166.45144,412.973259 C153.880941,425.54451 153.880941,445.997886 166.45144,458.569137 C172.533697,464.651394 180.630842,468.000771 189.249755,468.000771 C197.869419,468.000771 205.965061,464.651394 212.047319,458.569137 L330.490445,340.127514 L333.363917,337.25329 L337.256862,333.360345 C349.827361,320.788342 349.827361,300.335719 337.256862,287.764466 C333.296252,283.803857 328.553746,281.092027 323.520283,279.626722 L352.168542,250.977711 C356.554683,253.751942 360.62506,257.008093 364.318771,260.701805 C369.446964,265.83075 373.732361,271.686708 377.053169,278.106534 C391.250616,305.533079 386.132197,338.614844 364.320276,360.426766 L364.320276,360.426766 L364.320276,360.426766 L364.320276,360.426766 Z M238.891199,364.256558 C241.842861,368.503612 245.161412,372.498807 248.842344,376.177481 C252.523274,379.858413 256.516964,383.178468 260.76477,386.127874 L200.185037,446.706104 C194.154655,452.736485 184.341847,452.736485 178.311465,446.706104 C172.281084,440.675722 172.281084,430.863665 178.311465,424.832532 L238.891199,364.256558 L238.891199,364.256558 L238.891199,364.256558 L238.891199,364.256558 Z M299.628064,325.394769 C293.597682,319.364387 293.597682,309.550826 299.628064,303.520445 L303.521009,299.6275 C309.551391,293.597119 319.364199,293.597119 325.395332,299.6275 C331.425714,305.658633 331.425714,315.471442 325.395332,321.501823 L321.503139,325.394769 C315.471254,331.42515 305.659197,331.423646 299.628064,325.394769 L299.628064,325.394769 L299.628064,325.394769 L299.628064,325.394769 Z M376.181053,248.841779 C372.500122,245.160849 368.507935,241.842297 364.259377,238.891387 L424.839111,178.312405 C430.869492,172.282024 440.681549,172.282024 446.712682,178.312405 C452.743815,184.342786 452.743064,194.155595 446.712682,200.185976 L386.1337,260.764958 C383.179784,256.515649 379.861232,252.52271 376.181053,248.841779 L376.181053,248.841779 L376.181053,248.841779 L376.181053,248.841779 Z M485.63537,239.110168 L400.646163,324.099375 C400.688265,323.842251 400.737133,323.588135 400.776228,323.330259 C403.116656,307.353997 400.917571,290.782289 394.593978,276.014959 L394.606007,276.014207 L458.574212,212.046754 C471.144711,199.475503 471.144711,179.022127 458.574212,166.450876 C452.489699,160.368619 444.394808,157.019242 435.775897,157.019242 C427.156233,157.019242 419.060591,160.368619 412.978333,166.450876 L294.534455,284.892499 L291.660232,287.766722 L287.767286,291.659668 C275.196786,304.230168 275.196786,324.683542 287.767286,337.255546 C291.7294,341.216156 296.470403,343.927986 301.503865,345.393291 L272.854855,374.040797 C268.468712,371.26807 264.398337,368.010416 260.704625,364.315952 C255.577936,359.18776 251.291034,353.331802 247.968724,346.911975 C233.774285,319.486934 238.893455,286.405169 260.704625,264.593246 L385.911913,139.38671 C413.405369,111.892502 458.141913,111.892502 485.637626,139.38671 C513.128826,166.880168 513.128826,211.616711 485.63537,239.110168 L485.63537,239.110168 L485.63537,239.110168 L485.63537,239.110168 Z" id="Shape" fill="#1822CD"></path>
            <path d="M351.165738,189.456773 L266.456209,274.16555 C263.181264,277.440496 263.181264,282.751383 266.456209,286.02708 C268.094434,287.665304 270.238636,288.484041 272.38735,288.484041 C274.533056,288.484041 276.680265,287.665304 278.317738,286.02708 L363.027267,201.318302 C366.301462,198.043357 366.301462,192.732471 363.027267,189.456773 C359.751571,186.181076 354.441436,186.181076 351.165738,189.456773 L351.165738,189.456773 L351.165738,189.456773 L351.165738,189.456773 Z" id="Shape" fill="#1822CD"></path>
            <circle id="path-1" stroke="#1822CD" stroke-width="5" cx="312.5" cy="312.5" r="312.5"></circle>
        </g>
    </g>
</svg>