<?xml version="1.0" encoding="utf-8"?>
<!-- Generator: Adobe Illustrator 21.0.2, SVG Export Plug-In . SVG Version: 6.00 Build 0)  -->
<svg version="1.1" id="Capa_1" xmlns="http://www.w3.org/2000/svg" xmlns:xlink="http://www.w3.org/1999/xlink" x="0px" y="0px"
	 viewBox="0 0 653.8 402" style="enable-background:new 0 0 653.8 402;" xml:space="preserve">
<style type="text/css">
	.st0{fill:#E6E6E6;}
</style>
<g>
	<g>
		<path class="st0" d="M562.2,2.8c-3.7-3.7-9.7-3.7-13.4,0c-3.7,3.7-3.7,9.7,0,13.4c48.3,48.3,74.9,112.7,74.9,181.2
			c0,68.5-26.6,132.9-74.9,181.2c-3.7,3.7-3.7,9.7,0,13.4c1.9,1.9,4.3,2.8,6.7,2.8c2.4,0,4.9-0.9,6.7-2.8
			c51.9-51.9,80.5-121,80.5-194.6S614.1,54.7,562.2,2.8z"/>
		<path class="st0" d="M522,43c-3.7-3.7-9.7-3.7-13.4,0s-3.7,9.7,0,13.4c77.7,77.7,77.7,204.2,0,281.9c-3.7,3.7-3.7,9.7,0,13.4
			c1.9,1.9,4.3,2.8,6.7,2.8s4.9-0.9,6.7-2.8C607.1,266.7,607.1,128.2,522,43z"/>
		<path class="st0" d="M481.7,83.3c-3.7-3.7-9.7-3.7-13.4,0s-3.7,9.7,0,13.4c55.5,55.5,55.5,145.8,0,201.3c-3.7,3.7-3.7,9.7,0,13.4
			c1.9,1.9,4.3,2.8,6.7,2.8s4.9-0.9,6.7-2.8c30.4-30.4,47.2-70.9,47.2-114.1C528.9,154.3,512.1,113.7,481.7,83.3z"/>
	</g>
	<path class="st0" d="M395,10.7c-20.6,0-37.3,16.7-37.3,37.3v11.8L67.9,151.2c-2.1-16-15.7-28.5-32.2-28.5
		c-18,0-32.7,14.7-32.7,32.7v84c0,18,14.7,32.7,32.7,32.7c16.6,0,30.2-12.5,32.2-28.5l19.9,6.3c-3,3.3-5.3,7.1-6.7,11.5
		c-5.4,16.6,3.8,34.6,20.4,40L208,335.9c3.1,1,6.4,1.5,9.7,1.5c13.8,0,26-8.8,30.2-22c1.6-4.9,1.8-9.9,1-14.8l108.7,34.3v11.8
		c0,20.6,16.7,37.3,37.3,37.3s37.3-16.7,37.3-37.3V48.1C432.3,27.5,415.6,10.7,395,10.7z M49.7,157v80.9v1.6c0,7.7-6.3,14-14,14
		c-7.7,0-14-6.3-14-14v-84c0-7.7,6.3-14,14-14c7.7,0,14,6.3,14,14V157z M230.2,309.7c-2.1,6.6-9.8,10.6-16.5,8.4l-106.5-34.5
		c-6.9-2.2-10.6-9.6-8.4-16.5c1.7-5.3,6.9-9,12.5-9c1.3,0,2.7,0.2,4,0.6l106.6,34.5c3.3,1.1,6,3.4,7.6,6.5
		C231,302.9,231.3,306.4,230.2,309.7z M413.7,346.7c0,10.3-8.4,18.7-18.7,18.7s-18.7-8.4-18.7-18.7v-5.9V54v-5.9
		c0-10.3,8.4-18.7,18.7-18.7s18.7,8.4,18.7,18.7V346.7z"/>
</g>
</svg>
