<?xml version="1.0" encoding="utf-8"?>
<!-- Generator: Adobe Illustrator 16.0.0, SVG Export Plug-In . SVG Version: 6.00 Build 0)  -->
<!DOCTYPE svg PUBLIC "-//W3C//DTD SVG 1.1//EN" "http://www.w3.org/Graphics/SVG/1.1/DTD/svg11.dtd">
<svg version="1.1" id="Layer_1" xmlns:xl="http://www.w3.org/1999/xlink"
	 xmlns="http://www.w3.org/2000/svg" xmlns:xlink="http://www.w3.org/1999/xlink" x="0px" y="0px" width="204.746px"
	 height="206.9px" viewBox="0 0 204.746 206.9" enable-background="new 0 0 204.746 206.9" xml:space="preserve">
<title>Layer 1</title>
<title>Canvas 4</title>
<title>Layer 1</title>
<path opacity="0.6" fill="none" stroke="#E6E6E6" stroke-width="3" stroke-linecap="round" stroke-linejoin="round" enable-background="new    " d="
	M101.995,201.924L101.995,201.924c-53.267,0-96.631-43.358-96.631-96.629S48.728,8.663,101.995,8.663
	c53.269,0,96.629,43.362,96.629,96.632C198.625,158.561,155.264,201.924,101.995,201.924z"/>
<g>
	<path fill="#E6E6E6" d="M158.693,96.69l-8.088-7.659c-0.705-0.669-1.622-1.206-2.632-1.567c-0.263-0.238-0.583-0.421-0.947-0.521
		l-7.283-2.013c0.284-0.619,0.535-1.292,0.733-2.034c1.598-5.987-1.659-12.142-7.416-14.014c-0.885-0.287-1.82-0.432-2.778-0.432
		c-2.639,0-4.96,1.076-6.589,1.958c-1.031-2.227-2.938-5.523-6.77-6.77c-1.104-0.359-2.253-0.541-3.413-0.541
		c-4.742,0-9.092,3.021-10.825,7.518c-0.708,1.838-0.89,3.532-0.829,5.009c-0.654,0.069-1.278,0.175-1.825,0.324L59.42,86.938
		c-0.068,0.018-0.134,0.041-0.2,0.065c-1.185,0.357-2.27,0.948-3.079,1.713l-8.085,7.659c-1.189,1.127-1.717,2.588-1.448,4.012
		c0.27,1.423,1.295,2.593,2.813,3.207l8.262,3.341v30.974c0,2.599,1.74,5.465,4.047,6.666l38.076,19.813
		c1.068,0.557,2.442,0.863,3.867,0.863c1.424,0,2.796-0.307,3.865-0.863l38.075-19.813c2.309-1.201,4.047-4.067,4.047-6.669v-30.898
		l7.665-3.101c1.518-0.614,2.544-1.784,2.814-3.207C160.408,99.278,159.882,97.817,158.693,96.69z M107.075,72.306
		c1.037-2.694,3.625-4.506,6.436-4.506c0.665,0,1.323,0.105,1.958,0.311c2.477,0.805,3.662,3.561,4.371,5.207
		c0.479,1.114,0.894,2.077,2.06,2.458c0.255,0.081,0.52,0.123,0.789,0.123h0.002c0.839,0,1.491-0.367,2.477-0.925
		c1.281-0.726,3.218-1.821,5.115-1.821c0.473,0,0.905,0.067,1.325,0.204c3.323,1.078,5.263,4.815,4.326,8.328
		c-0.478,1.786-1.415,3.136-3.138,4.514c-3.049,2.442-13.667,6.696-16.512,6.907c-2.058-1.716-8.318-11.648-9.326-15.306
		C106.374,75.677,106.409,74.032,107.075,72.306z M101.261,80.489c0.43-0.117,0.981-0.191,1.569-0.227
		c1.022,2.697,3.13,6.42,4.937,9.268c2.151,3.391,3.681,5.332,4.768,6.46l-8.861,2.591L70.38,88.844L101.261,80.489z M59.376,92.131
		c0.483-0.458,1.502-0.803,2.371-0.803c0.307,0,0.515,0.042,0.636,0.077l37.373,10.933l-8.722,11.637
		c-0.283,0.377-0.916,0.65-1.504,0.65c-0.196,0-0.376-0.031-0.521-0.089l-37.34-15.104L59.376,92.131z M63.901,140.406
		c-0.75-0.391-1.515-1.65-1.515-2.497v-29.071l24.86,10.059c0.708,0.286,1.477,0.432,2.283,0.432l0,0
		c2.077,0,4.096-0.971,5.268-2.534l6.524-8.703v51.786L63.901,140.406z M144.959,137.908c0,0.848-0.764,2.105-1.515,2.498
		l-37.421,19.473v-50.678l5.928,7.906c1.171,1.563,3.189,2.533,5.267,2.533c0.807,0,1.575-0.145,2.281-0.432l25.46-10.299V137.908
		L144.959,137.908z M117.738,114.85c-0.144,0.06-0.323,0.089-0.521,0.089c-0.587,0-1.221-0.275-1.504-0.652l-8.722-11.635
		l37.373-10.933c0.119-0.035,0.329-0.077,0.637-0.077c0.867,0,1.888,0.345,2.37,0.804l7.706,7.299L117.738,114.85z"/>
	<path fill="#E6E6E6" d="M71.346,69.383c3.66,2.081,14.739,4.84,19.433,4.84c1.087,0,1.85-0.141,2.471-0.458
		c0.624-0.318,2.283-1.162,5.698-9.094c1.539-3.575,3.293-8.39,3.604-11.189c0.223-2.001,0.301-5.039-1.577-8.283
		c-2.095-3.621-5.973-5.869-10.12-5.869c-1.77,0-3.462,0.404-5.032,1.204c-3.466,1.765-4.851,5.383-5.544,7.702
		c-1.343-0.493-3.15-1.03-5.146-1.03c-1.594,0-3.084,0.346-4.428,1.031c-5.392,2.747-7.646,9.336-5.134,15.001
		C67.093,66.668,69.597,68.387,71.346,69.383z M72.839,52.426c0.685-0.35,1.436-0.519,2.293-0.519c1.688,0,3.366,0.668,4.478,1.11
		c0.835,0.333,1.388,0.553,2.039,0.553c0.412,0,0.8-0.092,1.157-0.273c1.099-0.56,1.382-1.582,1.741-2.875
		c0.479-1.726,1.281-4.613,3.413-5.699c0.901-0.46,1.875-0.693,2.897-0.693c2.474,0,4.792,1.351,6.051,3.524
		c0.924,1.599,1.215,3.216,0.972,5.408c-0.436,3.916-4.983,14.534-6.771,16.548c-0.083,0.006-0.191,0.01-0.329,0.01
		c-3.799,0-14.191-2.566-17.108-4.226c-1.914-1.088-3.05-2.273-3.802-3.965C68.394,58.007,69.727,54.011,72.839,52.426z"/>
</g>
</svg>
