<?xml version="1.0" encoding="utf-8"?>
<!-- Generator: Adobe Illustrator 16.0.0, SVG Export Plug-In . SVG Version: 6.00 Build 0)  -->
<!DOCTYPE svg PUBLIC "-//W3C//DTD SVG 1.1//EN" "http://www.w3.org/Graphics/SVG/1.1/DTD/svg11.dtd">
<svg version="1.1" id="Layer_1" xmlns:xl="http://www.w3.org/1999/xlink"
	 xmlns="http://www.w3.org/2000/svg" xmlns:xlink="http://www.w3.org/1999/xlink" x="0px" y="0px" width="51px" height="50px"
	 viewBox="0 0 51 50" enable-background="new 0 0 51 50" xml:space="preserve">
<g>
	<title>Canvas 4</title>
	<g>
		<title>Layer 1</title>
		<path fill="#E6E6E6" d="M23.74,39.111c-2.429,0-4.619-0.895-6.165-2.413h17.163c-1.545,1.519-3.736,2.413-6.165,2.413H23.74z
			 M20.955,32.766v1.52h-5.082c-0.226-0.446-0.393-0.983-0.49-1.52H20.955z M23.369,32.766h5.541v1.52h-5.541V32.766z
			 M36.379,34.464c-0.166-0.086-0.353-0.179-0.553-0.179h-4.503v-1.52h5.609C36.824,33.302,36.635,33.912,36.379,34.464
			 M38.24,30.353H14.072c-0.665,0-1.203,0.521-1.203,1.186c0,1.413,0.318,2.749,0.893,3.97c0,0.012-0.002,0.018-0.002,0.029
			c0,0.439,0.236,0.806,0.587,1.016c1.887,2.98,5.391,4.971,9.393,4.971h4.834c5.994,0,10.871-4.468,10.871-10
			C39.444,30.858,38.904,30.353,38.24,30.353"/>
		<path fill="#E6E6E6" d="M34.242,21.327c1.591,0,2.879-1.289,2.879-2.879c0-1.591-1.288-2.878-2.879-2.878
			c-1.588,0-2.877,1.287-2.877,2.878C31.365,20.038,32.654,21.327,34.242,21.327z"/>
		<path fill="#E6E6E6" d="M17.694,21.327c1.591,0,2.878-1.289,2.878-2.879c0-1.591-1.287-2.878-2.878-2.878
			c-1.589,0-2.877,1.287-2.877,2.878C14.817,20.038,16.105,21.327,17.694,21.327z"/>
		<path fill="#E6E6E6" d="M26.005,47.593c-12.454,0-22.586-10.135-22.586-22.592c0-12.458,10.132-22.593,22.586-22.593
			c12.455,0,22.587,10.135,22.587,22.593C48.592,37.458,38.46,47.593,26.005,47.593 M26.005,0C12.225,0,1.012,11.215,1.012,25.001
			C1.012,38.785,12.225,50,26.005,50C39.787,50,51,38.785,51,25.001C51,11.215,39.787,0,26.005,0"/>
	</g>
</g>
</svg>
