<?xml version="1.0" encoding="utf-8"?>
<!-- Generator: Adobe Illustrator 21.0.2, SVG Export Plug-In . SVG Version: 6.00 Build 0)  -->
<svg version="1.1" id="Layer_1" xmlns="http://www.w3.org/2000/svg" xmlns:xlink="http://www.w3.org/1999/xlink" x="0px" y="0px"
	 viewBox="0 0 546 546" style="enable-background:new 0 0 546 546;" xml:space="preserve">
<style type="text/css">
	.st0{fill:#1822CD;}
	.st1{fill:#1822CD;stroke:#E6E6E6;stroke-width:0.75;stroke-miterlimit:10;}
</style>
<path class="st0" d="M272.4,4.2C124.3,4.2,3.9,124.7,3.9,272.7s120.5,268.5,268.5,268.5c148.1,0,268.5-120.5,268.5-268.5
	S420.4,4.2,272.4,4.2z M272.4,518.3C137,518.3,26.8,408.1,26.8,272.8S137,27.2,272.4,27.2s245.5,110.1,245.5,245.5
	S407.7,518.3,272.4,518.3z"/>
<g id="Layer_2">
</g>
<g>
	<path class="st0" d="M307.2,268.7l-88.5-88.5c-6-6-16-6.1-22.2,0c-6,6.2-6,16.1,0,22.2l64.5,64.5H95.3c-8.8,0-15.7,7.1-15.7,15.7
		s6.9,15.7,15.7,15.7H261l-64.5,64.5c-6,6-6,16.1,0,22.2s16,6.1,22.2,0l88.5-88.5c3.8-3.8,4.9-8.9,4.1-13.8
		C312.1,277.6,310.9,272.4,307.2,268.7L307.2,268.7z"/>
	<g>
		<path class="st0" d="M432.1,277.3c-0.1-4.3,3.3-7.9,7.6-8.1l5.2-0.2c4.3-0.1,7.9,3.3,8.1,7.6c0.1,4.3-3.3,7.9-7.6,8.1l-5.2,0.2
			C435.8,285,432.2,281.6,432.1,277.3z"/>
	</g>
	<g>
		<path class="st1" d="M354.5,279.7c-0.1-4.3,3.3-7.9,7.6-8.1l30.4-0.9c4.3-0.1,7.9,3.3,8.1,7.6c0.1,4.3-3.3,7.9-7.6,8.1l-30.4,0.9
			C358.2,287.4,354.6,284,354.5,279.7z"/>
	</g>
	<g>
		<path class="st0" d="M399.9,135.4c-0.1-2,0.6-4,2.1-5.6l3.5-3.8c2.9-3.2,7.9-3.3,11.1-0.4c3.2,2.9,3.3,7.9,0.4,11.1l-3.5,3.8
			c-2.9,3.2-7.9,3.3-11.1,0.4C400.8,139.4,400,137.4,399.9,135.4z"/>
	</g>
	<g>
		<path class="st0" d="M346.7,191.9c-0.1-2,0.6-4,2.1-5.6l20.9-22.2c3-3.1,7.9-3.3,11.1-0.3c3.1,3,3.3,7.9,0.3,11.1l-20.9,22.2
			c-3,3.1-7.9,3.3-11.1,0.3C347.6,195.9,346.8,193.9,346.7,191.9z"/>
	</g>
	<g>
		<path class="st0" d="M408.5,420.9c-0.1-2,0.6-4,2.1-5.6c3-3.2,7.9-3.3,11.1-0.3l3.8,3.6c3.2,3,3.3,7.9,0.3,11.1s-7.9,3.3-11.1,0.3
			l-3.8-3.6C409.4,424.9,408.6,422.9,408.5,420.9z"/>
	</g>
	<g>
		<path class="st0" d="M352,367.8c-0.1-2,0.6-4,2.1-5.6c3-3.2,7.9-3.3,11.1-0.3l22.2,20.8c3.2,3,3.3,7.9,0.3,11.1s-7.9,3.3-11.1,0.3
			l-22.2-20.8C352.9,371.7,352.1,369.7,352,367.8z"/>
	</g>
</g>
</svg>
