<?xml version="1.0" encoding="utf-8"?>
<!-- Generator: Adobe Illustrator 21.0.2, SVG Export Plug-In . SVG Version: 6.00 Build 0)  -->
<svg version="1.1" id="Layer_1" xmlns:xl="http://www.w3.org/1999/xlink"
	 xmlns="http://www.w3.org/2000/svg" xmlns:xlink="http://www.w3.org/1999/xlink" x="0px" y="0px" viewBox="0 0 204.7 206.9"
	 style="enable-background:new 0 0 204.7 206.9;" xml:space="preserve">
<style type="text/css">
	.st0{opacity:0.6;fill:none;stroke:#E6E6E6;stroke-width:3;stroke-linecap:round;stroke-linejoin:round;enable-background:new    ;}
	.st1{opacity:0.6;fill:#E6E6E6;enable-background:new    ;}
	.st2{fill:#DDE1ED;}
	.st3{fill:#FF7B78;}
	.st4{font-family:'GoboldBoldItalic-Italic';}
	.st5{font-size:27.3974px;}
</style>
<title>Layer 1</title>
<title>Canvas 4</title>
<title>Layer 1</title>
<path class="st0" d="M102,201.9L102,201.9c-53.3,0-96.6-43.4-96.6-96.6C5.4,52,48.7,8.7,102,8.7s96.6,43.4,96.6,96.6
	C198.6,158.6,155.3,201.9,102,201.9z"/>
<g>
	<path class="st1" d="M148.1,56.4c0-6.1-5-11.1-11.1-11.1l0,0H74.4v93.5h31.2V134l42.5-5.8C148.1,128.1,148.1,56.4,148.1,56.4z"/>
	<path class="st1" d="M70.7,45.3c-6.1,0-11.1,5-11.1,11.1v85.8l19.3-3.5V45.3H70.7z"/>
	<polygon class="st2" points="67,154.7 148.1,151.4 148.1,133.2 67,129.8 	"/>
	<path class="st1" d="M148.4,123H79.2c-10.6-0.3-19.5,8-19.8,18.6s8,19.5,18.6,19.8c0.4,0,0.8,0,1.2,0h69.2v-10.2H79.2
		c-5-0.6-8.6-5.1-8.1-10.1c0.5-4.3,3.8-7.6,8.1-8.1h69.2V123z"/>
	<polygon class="st3" points="99.8,160.1 107.5,167.6 107.5,142.3 92,142.3 92,167.6 	"/>
	<path d="M150,161.5V56.4c0-7.2-5.9-13.1-13.1-13.1H70.7c-7.2,0.1-13,5.9-13,13.1v6.2c-0.1,1.1,0.7,2.1,1.8,2.2s2.1-0.7,2.2-1.8
		c0-0.1,0-0.3,0-0.4v-6.2c0-5,4.1-9.1,9.1-9.1h6.1v73.9h-0.3c-5.9,0.6-11.2,3.7-14.7,8.4v0.1l-0.2,0.3V70.5c0.1-1.1-0.7-2.1-1.8-2.2
		s-2.1,0.7-2.2,1.8c0,0.1,0,0.3,0,0.4v71.8c0,11.7,9.5,21.2,21.2,21.2H90v4.1c0,1.1,0.9,2,2,2c0.5,0,1-0.2,1.4-0.5l6.3-6.2l6.4,6.2
		c0.8,0.8,2.1,0.7,2.8-0.1c0.3-0.4,0.5-0.8,0.5-1.4v-4.1h18.3c1.1,0.1,2.1-0.7,2.2-1.8s-0.7-2.1-1.8-2.2c-0.1,0-0.3,0-0.4,0h-18.3
		v-6.2H146v6.2h-10.4c-1.1-0.1-2.1,0.7-2.2,1.8c-0.1,1.1,0.7,2.1,1.8,2.2c0.1,0,0.3,0,0.4,0H148C149.2,163.5,150.1,162.6,150,161.5
		L150,161.5z M105.5,151.4v11.5l-4.4-4.2c-0.8-0.7-2-0.7-2.8,0l-4.4,4.2v-18.6h11.5v7.1H105.5z M146.1,149.4h-36.5v-7.1
		c0-1.1-0.9-2-2-2H92c-1.1,0-2,0.9-2,2v7.1H78.8c-3.9,0-7.1-3.2-7.1-7.1c0-3.9,3.2-7.1,7.1-7.1H146v14.2H146.1z M146.1,121H96.4
		c-1.1,0.1-1.9,1.1-1.8,2.2c0.1,0.9,0.8,1.7,1.8,1.8h49.7v6.2H78.8c-6.1,0.2-10.9,5.4-10.6,11.5c0.2,5.8,4.8,10.4,10.6,10.6H90v6.2
		H78.8c-9.5,0-17.3-7.7-17.3-17.3c0-9.5,7.7-17.3,17.3-17.3h9.6c1.1-0.1,1.9-1.1,1.8-2.2c-0.1-0.9-0.8-1.7-1.8-1.8h-7.6V47.3H137
		c5,0,9.1,4.1,9.1,9.1V121L146.1,121z"/>
	<text transform="matrix(1.0026 0 0 1 89.0254 95.5093)" class="st4 st5">A-B</text>
</g>
</svg>
