<?xml version="1.0" encoding="utf-8"?>
<!-- Generator: Adobe Illustrator 21.0.2, SVG Export Plug-In . SVG Version: 6.00 Build 0)  -->
<svg version="1.1" id="Layer_1" xmlns="http://www.w3.org/2000/svg" xmlns:xlink="http://www.w3.org/1999/xlink" x="0px" y="0px"
	 viewBox="0 0 198 197" style="enable-background:new 0 0 198 197;" xml:space="preserve">
<style type="text/css">
	.st0{fill:none;stroke:#1822CD;stroke-miterlimit:10;}
	.st1{fill:#1822CD;}
	.st2{font-family:'GoboldBoldItalic-Italic';}
	.st3{font-size:26.3067px;}
	.st4{fill:#339933;}
	.st5{fill:#FFFFFF;}
</style>
<title>Slice 1</title>
<desc>Created with Sketch.</desc>
<path id="Shape" class="st0" d="M99,194.9L99,194.9c-53.3,0-96.6-43.4-96.6-96.6C2.4,45,45.7,1.7,99,1.7s96.6,43.4,96.6,96.6
	C195.6,151.6,152.3,194.9,99,194.9L99,194.9z"/>
<g>
	<path class="st1" d="M149.3,156.4V55.5c0-6.9-6.8-12.6-15-12.6H58.4c-8.2,0.1-14.9,5.7-14.9,12.6v5.9c-0.1,1,0.8,2,2,2.1
		s2.4-0.7,2.5-1.7c0-0.1,0-0.3,0-0.3v-5.9c0-4.8,4.7-8.7,10.5-8.7h7v70.9h-0.4c-6.8,0.6-12.8,3.6-16.8,8v0.1l-0.3,0.3V69
		c0.1-1-0.8-2-2-2.1s-2.4,0.7-2.5,1.7c0,0.1,0,0.3,0,0.3v69c0,11.3,10.8,20.3,24.2,20.3h12.8v3.9c0,1,1.1,1.8,2.4,1.8
		c0.6,0,1.1-0.2,1.6-0.6l7.1-6l7.5,5.9c0.9,0.7,2.4,0.7,3.3-0.1c0.4-0.3,0.6-0.8,0.7-1.3v-3.9H124c1.2,0.1,2.4-0.7,2.5-1.7
		s-0.8-2-2-2.1c-0.1,0-0.3,0-0.4,0h-20.9v-5.7H145v6h-11.9c-1.2-0.1-2.4,0.7-2.5,1.7s0.8,2,2,2.1c0.1,0,0.3,0,0.4,0h14.2
		C148.3,158.4,149.3,157.4,149.3,156.4L149.3,156.4z M98.3,146.7v11l-5-4.1c-0.9-0.7-2.3-0.7-3.2,0l-5,4.1v-17.9h13.1L98.3,146.7
		L98.3,146.7z M144.8,144.7H103v-6.8c0-1-1-1.8-2.3-1.8H82.8c-1.2,0-2.3,0.8-2.3,1.8v6.8H67.7c-4.5,0-8.2-3.1-8.2-6.8
		s3.6-6.8,8.2-6.8h77L144.8,144.7L144.8,144.7z M144.8,117.6h-57c-1.2,0.1-2.1,1-2,2.1c0.1,0.9,1,1.6,2,1.7h56.9v6h-77
		c-7,0.2-12.4,5.2-12.2,11c0.3,5.5,5.5,9.9,12.2,10.2h12.8v6H67.7c-11,0-19.8-7.5-19.8-16.6s8.8-16.6,19.8-16.6h11
		c1.2-0.1,2.1-1,2-2.1c-0.1-0.9-1-1.6-2-1.7H70v-71h64.3c5.8,0,10.5,3.9,10.5,8.7V117.6L144.8,117.6z"/>
	<text transform="matrix(1.195 0 0 1 79.4185 93.042)" class="st1 st2 st3">A-B</text>
</g>
<g>
	<path class="st4" d="M137.3,93c-16.1,0-29.2,13.1-29.2,29.2s13.1,29.2,29.2,29.2s29.2-13.1,29.2-29.2S153.3,93,137.3,93z"/>
	<path class="st5" d="M154,116l-18.3,18.3c-0.8,0.8-1.8,1.2-2.9,1.2s-2.1-0.4-2.9-1.2l-9.3-9.3c-0.8-0.8-1.2-1.8-1.2-2.9
		c0-1.1,0.4-2.1,1.2-2.9c0.8-0.8,1.8-1.2,2.9-1.2c1.1,0,2.1,0.4,2.9,1.2l6.4,6.4l15.4-15.4c0.8-0.8,1.8-1.2,2.9-1.2s2.1,0.4,2.9,1.2
		C155.6,111.7,155.6,114.4,154,116z"/>
</g>
</svg>
