<?xml version="1.0" encoding="utf-8"?>
<!-- Generator: Adobe Illustrator 21.0.2, SVG Export Plug-In . SVG Version: 6.00 Build 0)  -->
<svg version="1.1" id="Layer_1" xmlns:xl="http://www.w3.org/1999/xlink"
	 xmlns="http://www.w3.org/2000/svg" xmlns:xlink="http://www.w3.org/1999/xlink" x="0px" y="0px" viewBox="0 0 204.7 206.9"
	 style="enable-background:new 0 0 204.7 206.9;" xml:space="preserve">
<style type="text/css">
	.st0{fill:#E6E6E6;stroke:#FFFFFF;stroke-miterlimit:10;}
	.st1{fill:#1822CD;}
	.st2{fill:none;stroke:#1822CD;stroke-width:2;stroke-miterlimit:10;}
	.st3{fill:#339933;}
	.st4{fill:#FFFFFF;}
</style>
<title>Layer 1</title>
<title>Canvas 4</title>
<title>Layer 1</title>
<path class="st0" d="M172,34.5C133.6-3.8,71.6-3.8,33.3,34.5C-0.3,68.1-4.4,120,21,158.2l-2.7,28.3l27.6-2.7
	c38.3,27.3,91.8,23.8,126.1-10.6C210.3,134.9,210.3,72.8,172,34.5z"/>
<g>
	<ellipse class="st1" cx="67.6" cy="115.5" rx="7" ry="14.6"/>
	<path class="st1" d="M147.1,113.7h-6.3v-5.9c-0.3-1.1-1.1-2.1-2.3-1.9c-1,0.3-1.9,1-1.9,1.9v5.9h-6.3c-1.1-0.3-2.1,0.7-2.1,1.7
		c-0.3,1.1,0.7,2.1,1.7,2.1c0.3,0,0.3,0,0.4,0h6.2v5.7c0.3,1.1,1.1,2.1,2.3,1.9c1-0.3,1.9-1,1.9-1.9v-5.9h6.2
		c1.1,0.3,2.1-0.7,2.1-1.7c0.3-1.1-0.7-2.1-1.7-2.1C147.4,113.7,147.1,113.7,147.1,113.7z"/>
	<path class="st2" d="M70.8,142.9c0,0,9.6,20.1,33.2,19.8"/>
	<path class="st2" d="M137.2,142.2c0,0-9.2,20.1-32.8,20.3"/>
	<path class="st1" d="M149.4,52.1c-5.3-7.2-12.5-13.5-20.3-17.3c-8.3-4.4-17-6.4-26.5-6.4S84.3,30.7,76,34.8
		C68,39,60.9,44.9,55.6,52.2C48,62.5,44,75,44,88v64.8h15.9c-6.2-8.9-9.3-19.5-9.3-30.5V94.5c-0.1,0-0.6,0.1-0.9,0.1
		c-1.6,0.4-3-0.4-3.7-2c-0.4-1.6,0.4-3.3,2-3.7c5.2-1.4,10-2.9,15-3.9c0-5.9,1.3-21.2,9.7-30.5c1-1.3,2.9-1.3,4-0.1
		c1.3,1,1.3,3,0.1,4c-6.3,7.1-7.8,19.4-8,25.6c4.7-0.9,9.2-1.4,13.9-2c0-6.4,2-16,2.3-17.5c0.4-1.6,1.9-2.6,3.4-2.3
		c1.6,0.3,2.4,1.9,2.3,3.4c-0.6,3-2,10.7-2.3,15.6c17.3-1.4,34.8-0.1,52.1,3.3c0.4-4.7,0.1-14.2-6.2-22.8c-1-1.3-0.9-3,0.6-4
		c1.3-1,3-0.9,4,0.6c7.9,10.6,7.9,22.2,7.3,27.5c4,1,7.9,2,11.7,3.3c1.6,0.4,2.4,2,2,3.7c-0.4,1.3-1.6,2-2.9,2c-0.1,0-0.6,0-0.9-0.1
		c-0.4-0.1-0.9-0.1-1-0.4v27.9c0,11-3.4,21.8-9.3,30.5h16V88.3C161.3,75.1,157.1,62.5,149.4,52.1z"/>
</g>
<g>
	<path class="st3" d="M104.9,140.8c-12.1,0-21.9,9.8-21.9,21.9s9.8,21.9,21.9,21.9c12.1,0,21.9-9.8,21.9-21.9S117,140.8,104.9,140.8
		z"/>
	<path class="st4" d="M117.5,158l-13.7,13.7c-0.6,0.6-1.4,0.9-2.2,0.9c-0.8,0-1.6-0.3-2.2-0.9l-7-7c-0.6-0.6-0.9-1.4-0.9-2.2
		s0.3-1.6,0.9-2.2c0.6-0.6,1.4-0.9,2.2-0.9c0.8,0,1.6,0.3,2.2,0.9l4.9,4.9l11.5-11.5c0.6-0.6,1.4-0.9,2.2-0.9c0.8,0,1.6,0.3,2.2,0.9
		C118.7,154.8,118.7,156.7,117.5,158z"/>
</g>
</svg>
