<?xml version="1.0" encoding="utf-8"?>
<!-- Generator: Adobe Illustrator 21.0.2, SVG Export Plug-In . SVG Version: 6.00 Build 0)  -->
<svg version="1.1" id="Layer_1" xmlns:xl="http://www.w3.org/1999/xlink"
	 xmlns="http://www.w3.org/2000/svg" xmlns:xlink="http://www.w3.org/1999/xlink" x="0px" y="0px" viewBox="0 0 214.5 206.9"
	 style="enable-background:new 0 0 214.5 206.9;" xml:space="preserve">
<style type="text/css">
	.st0{fill:none;stroke:#1822CD;stroke-miterlimit:10;}
	.st1{fill:#1822CD;}
</style>
<path class="st0" d="M106.3,203.7L106.3,203.7c-54,0-97.9-43.9-97.9-97.9c0-54,43.9-97.9,97.9-97.9c54,0,97.9,43.9,97.9,97.9
	C204.2,159.8,160.3,203.7,106.3,203.7z"/>
<title>Canvas 4</title>
<g>
	<title>Layer 1</title>
	<path class="st1" d="M99.9,145.1c-6.6,0-12.5-2.4-16.6-6.5h46.3c-4.2,4.1-10.1,6.5-16.6,6.5H99.9z M92.4,127.9v4.1H78.7
		c-0.6-1.2-1.1-2.7-1.3-4.1H92.4z M98.9,127.9h15v4.1h-15V127.9z M134,132.5c-0.4-0.2-1-0.5-1.5-0.5h-12.2v-4.1h15.1
		C135.2,129.4,134.7,131,134,132.5 M139.1,121.4H73.8c-1.8,0-3.2,1.4-3.2,3.2c0,3.8,0.9,7.4,2.4,10.7c0,0,0,0.1,0,0.1
		c0,1.2,0.6,2.2,1.6,2.7c5.1,8,14.5,13.4,25.3,13.4h13c16.2,0,29.3-12.1,29.3-27C142.3,122.8,140.8,121.4,139.1,121.4"/>
	<path class="st1" d="M128.3,97.1c4.3,0,7.8-3.5,7.8-7.8c0-4.3-3.5-7.8-7.8-7.8c-4.3,0-7.8,3.5-7.8,7.8
		C120.5,93.6,124,97.1,128.3,97.1z"/>
	<path class="st1" d="M83.6,97.1c4.3,0,7.8-3.5,7.8-7.8c0-4.3-3.5-7.8-7.8-7.8c-4.3,0-7.8,3.5-7.8,7.8
		C75.8,93.6,79.3,97.1,83.6,97.1z"/>
	<path class="st1" d="M106,168c-33.6,0-61-27.4-61-61c0-33.6,27.3-61,61-61c33.6,0,61,27.4,61,61C167,140.6,139.6,168,106,168
		 M106,39.5c-37.2,0-67.4,30.3-67.4,67.5c0,37.2,30.3,67.5,67.4,67.5c37.2,0,67.5-30.3,67.5-67.5C173.5,69.8,143.2,39.5,106,39.5"/>
</g>
</svg>
