<?xml version="1.0" encoding="utf-8"?>
<!-- Generator: Adobe Illustrator 21.0.2, SVG Export Plug-In . SVG Version: 6.00 Build 0)  -->
<svg version="1.1" id="Layer_1" xmlns="http://www.w3.org/2000/svg" xmlns:xlink="http://www.w3.org/1999/xlink" x="0px" y="0px"
	 viewBox="0 0 198 197" style="enable-background:new 0 0 198 197;" xml:space="preserve">
<style type="text/css">
	.st0{fill:none;stroke:#1822CD;stroke-width:3;stroke-miterlimit:10;}
	.st1{fill:#1822CD;}
</style>
<title>Slice 1</title>
<desc>Created with Sketch.</desc>
<path id="Shape" class="st0" d="M99,194.9L99,194.9c-53.3,0-96.6-43.4-96.6-96.6C2.4,45,45.7,1.7,99,1.7s96.6,43.4,96.6,96.6
	C195.6,151.6,152.3,194.9,99,194.9L99,194.9z"/>
<path class="st1" d="M140.7,42.6H57.3c-8,0-14.5,6.5-14.5,14.5v83.3c0,8,6.5,14.5,14.5,14.5h42.5l11.5,20.7c0.5,0.8,1.4,1.4,2.3,1.4
	s1.8-0.5,2.3-1.4l11.5-20.7h13.1c8,0,14.5-6.5,14.5-14.5V57.1C155.2,49.1,148.7,42.6,140.7,42.6z M61.9,91.9
	c-0.8-0.3-1.6-1.2-1.6-2.1c-0.6-12.7,3.3-23.3,11.2-29.7c7.9-6.5,18.6-8,30.4-4.5c0.4,0.1,0.8,0.4,1.1,0.8s0.5,0.8,0.5,1.3
	c0,0.9-0.6,1.4-1.4,1.2c-10.9-3.3-21-1.9-28.3,4.2c-7.3,6-11,15.8-10.4,27.7C63.3,91.7,62.7,92.2,61.9,91.9z M71,94.7
	c-0.8-0.3-1.6-1.2-1.6-2.1c-1-20.8,13.8-33,33-27.1c0.4,0.1,0.8,0.4,1.1,0.8c0.3,0.4,0.5,0.8,0.5,1.3c0,0.9-0.6,1.4-1.4,1.2
	c-17.6-5.4-31.1,5.7-30.1,24.8C72.4,94.4,71.8,95,71,94.7z M81.5,96.3c0,0.9-0.6,1.4-1.4,1.2c-0.8-0.3-1.6-1.2-1.6-2.1
	c-0.4-7.4,2-13.6,6.6-17.4c4.6-3.8,10.9-4.7,17.8-2.6c0.4,0.1,0.8,0.4,1.1,0.8c0.3,0.4,0.5,0.8,0.5,1.3c0,0.9-0.6,1.4-1.4,1.2
	C90.4,74.8,80.8,82.7,81.5,96.3z M100,120c-0.3-0.4-0.5-0.8-0.6-1.3c-0.1-0.9,0.5-1.5,1.4-1.2c12.7,3.3,22-5,20.7-18.6
	c-0.1-0.9,0.5-1.5,1.4-1.2c0.8,0.2,1.6,1.1,1.7,2c0.7,7.4-1.4,13.7-5.8,17.7c-4.4,4-10.7,5.2-17.7,3.4
	C100.7,120.7,100.3,120.4,100,120z M100.9,129.9c-0.3-0.4-0.5-0.8-0.6-1.3c-0.1-0.9,0.5-1.5,1.4-1.2c17.8,4.6,30.8-7.1,29-26
	c-0.1-0.9,0.5-1.5,1.4-1.2c0.8,0.2,1.6,1.1,1.7,2c1.9,20.8-12.3,33.6-31.8,28.5C101.6,130.5,101.2,130.2,100.9,129.9z M133.1,134.7
	c-7.6,6.8-18.3,8.8-30.2,5.7c-0.4-0.1-0.8-0.4-1.1-0.8s-0.5-0.8-0.6-1.3c-0.1-0.9,0.5-1.5,1.4-1.2c11,2.9,21,1,28.1-5.4
	c7.1-6.3,10.3-16.3,9.2-28.1c-0.1-0.9,0.5-1.5,1.4-1.2c0.8,0.2,1.6,1.1,1.7,2C144.2,117.2,140.7,127.9,133.1,134.7z"/>
</svg>
