<?xml version="1.0" encoding="utf-8"?>
<!-- Generator: Adobe Illustrator 16.0.0, SVG Export Plug-In . SVG Version: 6.00 Build 0)  -->
<!DOCTYPE svg PUBLIC "-//W3C//DTD SVG 1.1//EN" "http://www.w3.org/Graphics/SVG/1.1/DTD/svg11.dtd">
<svg version="1.1" id="Layer_1" xmlns:xl="http://www.w3.org/1999/xlink"
	 xmlns="http://www.w3.org/2000/svg" xmlns:xlink="http://www.w3.org/1999/xlink" x="0px" y="0px" width="204.746px"
	 height="206.9px" viewBox="0 0 204.746 206.9" enable-background="new 0 0 204.746 206.9" xml:space="preserve">
<title>Layer 1</title>
<title>Canvas 4</title>
<title>Layer 1</title>
<path opacity="0.6" fill="none" stroke="#E6E6E6" stroke-width="3" stroke-linecap="round" stroke-linejoin="round" enable-background="new    " d="
	M101.995,201.924L101.995,201.924c-53.267,0-96.631-43.361-96.631-96.629c0-53.271,43.364-96.632,96.631-96.632
	c53.269,0,96.629,43.362,96.629,96.632C198.625,158.561,155.263,201.924,101.995,201.924z"/>
<g>
	<path fill="#E6E6E6" d="M118.539,117.449l-26.455-15.271c-0.91-0.526-2.04-0.526-2.947,0c-0.917,0.525-1.477,1.5-1.477,2.552
		v30.545c0,1.057,0.563,2.027,1.477,2.554c0.456,0.262,0.968,0.398,1.478,0.398c0.508,0,1.018-0.137,1.47-0.398l26.456-15.271
		c0.914-0.526,1.476-1.497,1.476-2.552C120.016,118.949,119.453,117.975,118.539,117.449z M93.561,130.168v-20.333l17.611,10.166
		L93.561,130.168z"/>
	<path fill="#E6E6E6" d="M150.136,57.451H52.826c-1.625,0-2.95,1.321-2.95,2.95v73.9c0,14.535,11.825,26.357,26.354,26.357h50.507
		c14.524,0,26.347-11.822,26.347-26.357v-73.9C153.083,58.772,151.761,57.451,150.136,57.451z M147.183,81.239h-7.895l7.895-11.868
		V81.239z M79.973,63.351L68.077,81.239H57.803l11.899-17.888H79.973L79.973,63.351z M85.998,63.351h10.273L84.369,81.239H74.099
		L85.998,63.351z M102.296,63.351h10.271l-11.899,17.887H90.396L102.296,63.351z M118.59,63.351h10.274l-11.897,17.888h-10.273
		L118.59,63.351z M134.889,63.351h10.27l-11.895,17.888h-10.271L134.889,63.351z M63.676,63.351l-7.9,11.876V63.351H63.676z
		 M126.733,154.755H76.229c-11.275,0-20.454-9.175-20.454-20.453V87.14h91.407v47.162
		C147.183,145.577,138.012,154.755,126.733,154.755z"/>
</g>
</svg>
