<?xml version="1.0" encoding="UTF-8" standalone="no"?>
<svg width="211px" height="211px" viewBox="0 0 211 211" version="1.1" xmlns="http://www.w3.org/2000/svg" xmlns:xlink="http://www.w3.org/1999/xlink">
    <!-- Generator: Sketch 3.7.2 (28276) - http://www.bohemiancoding.com/sketch -->
    <title>Group 3</title>
    <desc>Created with Sketch.</desc>
    <defs></defs>
    <g id="Page-1" stroke="none" stroke-width="1" fill="none" fill-rule="evenodd">
        <g id="Group-3" transform="translate(2.000000, 2.000000)">
            <circle id="Oval" stroke="#E6E6E6" stroke-width="4" cx="103.3354" cy="103.3354" r="103.3354"></circle>
            <g id="Group-2" transform="translate(16.000000, 26.000000)" fill="#E6E6E6">
                <path d="M128.6782,95.25801 C127.57882,95.25801 126.68992,96.61647 126.68992,98.28968 L126.68992,122.54382 C126.68992,127.55827 124.01342,131.64024 120.72418,131.64024 L53.1148,131.64024 C49.82575,131.64024 47.14928,127.5597 47.14928,122.54382 L47.14928,98.28968 C47.14928,96.61647 46.26059,95.25801 45.16076,95.25801 C44.06114,95.25801 43.17224,96.61647 43.17224,98.28968 L43.17224,122.54382 C43.17224,130.90238 47.63248,137.7027 53.11502,137.7027 L120.72416,137.7027 C126.20625,137.7027 130.66691,130.90266 130.66691,122.54382 L130.66691,98.28968 C130.66691,96.61647 129.77825,95.25801 128.6782,95.25801 L128.6782,95.25801 L128.6782,95.25801 L128.6782,95.25801 Z" id="Shape" stroke="#E6E6E6" stroke-width="2"></path>
                <path d="M46.82968,83.61685 L46.82968,56.7898 C46.82968,52.35256 49.50616,48.74169 52.79521,48.74169 L68.70328,48.74169 C69.8029,48.74169 70.6918,47.5396 70.6918,46.05898 C70.6918,35.48395 79.2454,27.28004 86.60031,27.28004 C91.7741,27.28004 97.25259,31.13492 100.23756,36.87345 C100.86801,38.08359 102.10633,38.38138 103.00738,37.53083 C103.90714,36.6777 104.1251,35.00621 103.49252,33.79378 C100.1242,27.31226 94.43121,22.92354 88.58862,22.08912 L88.58862,16.055414 C90.89732,14.942144 92.56603,11.99412 92.56603,8.500815 C92.56603,4.06357 89.88956,0.452703 86.60031,0.452703 C83.31147,0.452703 80.635,4.06357 80.635,8.500815 C80.635,11.993545 82.30283,14.942144 84.61201,16.05254 L84.61201,22.08047 C76.4172,23.30354 68.00188,31.85899 66.84857,43.37598 L52.79542,43.37598 C47.3131,43.37598 42.85265,49.39333 42.85265,56.78951 L42.8486,80.93414 L38.50597,80.93414 C37.68078,77.81652 35.49539,75.56845 32.90625,75.56845 C29.61724,75.56845 26.94072,79.1793 26.94072,83.61656 C26.94072,88.0538 29.61724,91.66468 32.90625,91.66468 C35.49518,91.66468 37.68078,89.41658 38.50597,86.29899 L44.841165,86.29899 C45.94078,86.29957 46.82968,85.09748 46.82968,83.61685 L46.82968,83.61685 L46.82968,83.61685 L46.82968,83.61685 Z M86.6001,5.81813 C87.69737,5.81813 88.5884,7.02249 88.5884,8.500815 C88.5884,9.97914 87.69737,11.18353 86.6001,11.18353 C85.50325,11.18353 84.61139,9.97914 84.61139,8.500815 C84.61137,7.02278 85.5024,5.81813 86.6001,5.81813 L86.6001,5.81813 L86.6001,5.81813 L86.6001,5.81813 Z M32.90604,86.29957 C31.80855,86.29957 30.91752,85.09546 30.91752,83.61685 C30.91752,82.13824 31.80834,80.93414 32.90604,80.93414 C34.00374,80.93414 34.894554,82.13824 34.894554,83.61685 C34.894554,85.09546 34.003525,86.29957 32.90604,86.29957 L32.90604,86.29957 L32.90604,86.29957 L32.90604,86.29957 Z" id="Shape" stroke="#E6E6E6" stroke-width="2"></path>
                <path d="M140.28967,75.56874 C137.70095,75.56874 135.51535,77.81684 134.69233,80.93443 L130.34732,80.93443 L130.34732,56.79009 C130.34732,49.3939 125.88667,43.37626 120.40456,43.37626 L76.65732,43.37626 C75.55771,43.37626 74.66881,44.57807 74.66881,46.05898 C74.66881,47.53989 75.55771,48.74169 76.65732,48.74169 L120.40456,48.74169 C123.69383,48.74169 126.36986,52.35256 126.36986,56.79009 L126.36986,83.61714 C126.36986,85.09748 127.25878,86.29957 128.3586,86.29957 L134.69229,86.29957 C135.51535,89.41715 137.70052,91.66525 140.28967,91.66525 C143.57891,91.66525 146.25498,88.05438 146.25498,83.61714 C146.2554,79.17958 143.57893,75.56874 140.28967,75.56874 L140.28967,75.56874 L140.28967,75.56874 L140.28967,75.56874 Z M140.28967,86.29957 C139.1924,86.29957 138.30136,85.09546 138.30136,83.61685 C138.30136,82.13824 139.1924,80.93414 140.28967,80.93414 C141.38737,80.93414 142.2784,82.13824 142.2784,83.61685 C142.2784,85.09546 141.38758,86.29957 140.28967,86.29957 L140.28967,86.29957 L140.28967,86.29957 L140.28967,86.29957 Z" id="Shape" stroke="#E6E6E6" stroke-width="2"></path>
                <path d="M16.48174,117.7372 C15.62381,117.7372 15.05155,117.45122 14.479296,116.87926 C-4.398504,98.00118 -4.398504,67.11121 14.479296,48.23371 C15.623176,47.0898 17.339643,47.0898 18.483584,48.23371 C19.627494,49.37762 19.627494,51.09379 18.483584,52.238 C1.894508,68.82735 1.894508,96.28474 18.483584,112.87498 C19.627494,114.01888 19.627494,115.73384 18.483584,116.87925 C17.9119,117.45122 17.339643,117.7372 16.48174,117.7372 L16.48174,117.7372 L16.48174,117.7372 L16.48174,117.7372 Z" id="Shape" stroke="#E6E6E6" stroke-width="2"></path>
                <path d="M156.7157,117.73717 C155.85746,117.73717 155.28554,117.4524 154.71325,116.87923 C153.56783,115.73502 153.56783,114.01886 154.71325,112.87495 C171.30263,96.28562 171.30263,68.82732 154.71325,52.23797 C153.56783,51.09376 153.56783,49.37759 154.71325,48.23371 C155.85746,47.0898 157.57242,47.0898 158.71603,48.23371 C177.59413,67.11145 177.59413,98.00145 158.71603,116.87923 C158.14619,117.4509 157.57396,117.73717 156.7157,117.73717 L156.7157,117.73717 L156.7157,117.73717 L156.7157,117.73717 Z" id="Shape" stroke="#E6E6E6" stroke-width="2"></path>
                <path d="M117.16967,77.38839 C117.16967,73.77653 114.23046,70.83732 110.61836,70.83732 C107.00671,70.83732 104.0675,73.7765 104.0675,77.38839 C104.0675,81.00026 107.00671,83.93944 110.61836,83.93944 C114.23046,83.93947 117.16967,81.00026 117.16967,77.38839 L117.16967,77.38839 L117.16967,77.38839 L117.16967,77.38839 Z M108.43443,77.38839 C108.43443,76.18505 109.41339,75.20469 110.61836,75.20469 C111.82332,75.20469 112.8018,76.18505 112.8018,77.38839 C112.8018,78.59173 111.82332,79.57209 110.61836,79.57209 C109.41339,79.57209 108.43443,78.59124 108.43443,77.38839 L108.43443,77.38839 L108.43443,77.38839 L108.43443,77.38839 Z" id="Shape" stroke="#E6E6E6" stroke-width="2"></path>
                <path d="M69.1282,77.38839 C69.1282,73.77653 66.18899,70.83732 62.57715,70.83732 C58.96524,70.83732 56.02603,73.7765 56.02603,77.38839 C56.02603,81.00026 58.96524,83.93944 62.57715,83.93944 C66.18899,83.93944 69.1282,81.00026 69.1282,77.38839 L69.1282,77.38839 L69.1282,77.38839 L69.1282,77.38839 Z M62.57715,79.57183 C61.37192,79.57183 60.39343,78.59147 60.39343,77.38813 C60.39343,76.1848 61.37171,75.20444 62.57715,75.20444 C63.78257,75.20444 64.76085,76.1848 64.76085,77.38813 C64.76104,78.59124 63.78255,79.57183 62.57715,79.57183 L62.57715,79.57183 L62.57715,79.57183 L62.57715,79.57183 Z" id="Shape" stroke="#E6E6E6" stroke-width="2"></path>
                <path d="M59.34452,111.77017 C59.34452,111.1029 59.56657,110.65998 60.01068,110.2152 C60.89885,109.32678 62.23155,109.32678 63.11975,110.21496 C76.0003,123.09576 97.31969,123.09576 110.20026,110.2152 C111.08866,109.32678 112.42116,109.32678 113.30907,110.21496 C114.19748,111.10334 114.19748,112.43607 113.30907,113.324 C98.65171,127.98163 74.6678,127.98163 60.01068,113.324 C59.56635,112.88086 59.34452,112.43677 59.34452,111.77017 L59.34452,111.77017 L59.34452,111.77017 L59.34452,111.77017 Z" id="Shape" stroke="#E6E6E6" stroke-width="2"></path>
                <g id="Group" transform="translate(80.108870, 89.513680)" font-size="21" font-family="Helvetica" font-weight="normal">
                    <g id="+">
                        <text>
                            <tspan x="0" y="20">+</tspan>
                        </text>
                    </g>
                </g>
            </g>
        </g>
    </g>
</svg>