<?xml version="1.0" encoding="utf-8"?>
<!-- Generator: Adobe Illustrator 16.0.0, SVG Export Plug-In . SVG Version: 6.00 Build 0)  -->
<!DOCTYPE svg PUBLIC "-//W3C//DTD SVG 1.1//EN" "http://www.w3.org/Graphics/SVG/1.1/DTD/svg11.dtd">
<svg version="1.1" id="Capa_1" xmlns="http://www.w3.org/2000/svg" xmlns:xlink="http://www.w3.org/1999/xlink" x="0px" y="0px"
	 width="505.492px" height="560px" viewBox="0 0 505.492 560" enable-background="new 0 0 505.492 560" xml:space="preserve">
<g>
	<path fill="#E6E6E6" d="M497.752,255.092l-35.959-34.061c-3.137-2.972-7.217-5.355-11.711-6.968c-1.17-1.057-2.59-1.873-4.213-2.32
		l-32.389-8.953c1.268-2.752,2.385-5.748,3.266-9.043c7.102-26.627-7.383-54-32.977-62.316c-3.938-1.278-8.096-1.928-12.359-1.928
		c-11.732,0-22.059,4.787-29.295,8.711c-4.584-9.9-13.072-24.567-30.113-30.105c-4.91-1.598-10.018-2.406-15.176-2.406
		c-21.088,0-40.434,13.435-48.139,33.433c-3.148,8.176-3.957,15.708-3.682,22.277c-2.916,0.307-5.686,0.782-8.121,1.441
		L56.282,211.728c-0.305,0.083-0.601,0.183-0.892,0.29c-5.272,1.584-10.099,4.215-13.692,7.618L5.74,253.699
		c-5.287,5.008-7.632,11.512-6.433,17.842c1.196,6.331,5.757,11.53,12.508,14.26l36.743,14.863v137.734
		c0,11.564,7.737,24.312,17.997,29.652l169.324,88.113c4.752,2.471,10.859,3.834,17.195,3.834c6.334,0,12.439-1.363,17.191-3.834
		l169.324-88.113c10.26-5.34,17.998-18.09,17.998-29.656V300.982l34.086-13.789c6.75-2.73,11.311-7.929,12.508-14.261
		C505.385,266.605,503.04,260.103,497.752,255.092z M268.204,146.656c4.619-11.985,16.121-20.037,28.621-20.037
		c2.959,0,5.891,0.464,8.713,1.382c11.008,3.576,16.281,15.831,19.432,23.153c2.133,4.956,3.977,9.233,9.166,10.921
		c1.125,0.365,2.305,0.551,3.506,0.551c0.002,0,0.006,0,0.008,0c3.732-0.001,6.629-1.638,11.008-4.113
		c5.699-3.225,14.311-8.095,22.756-8.095c2.096,0,4.021,0.295,5.895,0.903c14.773,4.8,23.4,21.415,19.234,37.036
		c-2.121,7.942-6.293,13.945-13.951,20.072c-13.562,10.857-60.777,29.781-73.434,30.716c-9.143-7.631-36.99-51.793-41.469-68.062
		C265.09,161.644,265.245,154.336,268.204,146.656z M242.348,183.043c1.914-0.517,4.367-0.843,6.982-1.002
		c4.549,11.991,13.916,28.549,21.951,41.213c9.566,15.079,16.367,23.709,21.201,28.73l-39.406,11.528l-148.053-43.309
		L242.348,183.043z M56.084,234.819c2.149-2.037,6.683-3.574,10.545-3.574c1.367,0,2.295,0.188,2.832,0.345l166.197,48.618
		l-38.791,51.745c-1.258,1.68-4.07,2.896-6.688,2.896c-0.875,0-1.674-0.137-2.312-0.395L21.811,267.281L56.084,234.819z
		 M76.209,449.502c-3.338-1.736-6.737-7.34-6.737-11.102V309.125l110.554,44.723c3.148,1.275,6.564,1.92,10.15,1.92c0,0,0,0,0.002,0
		c9.236,0,18.213-4.318,23.424-11.27l29.016-38.705v230.303L76.209,449.502z M436.678,438.4c0,3.762-3.398,9.363-6.736,11.102
		l-166.41,86.596V310.729l26.359,35.162c5.211,6.951,14.188,11.271,23.426,11.271c3.586,0,7.002-0.646,10.15-1.92l113.209-45.797
		L436.678,438.4L436.678,438.4z M315.625,335.854c-0.639,0.262-1.438,0.396-2.311,0.396c-2.615,0-5.432-1.221-6.689-2.902
		l-38.789-51.74l166.197-48.619c0.537-0.156,1.465-0.344,2.832-0.344c3.861,0,8.395,1.536,10.545,3.573l34.271,32.463
		L315.625,335.854z"/>
	<path fill="#E6E6E6" d="M109.314,133.656c16.276,9.255,65.544,21.526,86.417,21.526c4.834,0,8.225-0.629,10.992-2.04
		c2.775-1.414,10.145-5.167,25.34-40.446c6.844-15.894,14.648-37.312,16.029-49.756c0.988-8.903,1.338-22.408-7.014-36.839
		c-9.318-16.098-26.564-26.1-45.006-26.1c-7.871,0-15.398,1.801-22.377,5.357c-15.412,7.852-21.574,23.938-24.654,34.251
		c-5.979-2.194-14.012-4.583-22.89-4.583c-7.092,0-13.719,1.542-19.694,4.587c-23.979,12.218-34.006,41.52-22.828,66.711
		C90.405,121.586,101.534,129.232,109.314,133.656z M115.954,58.249c3.049-1.553,6.385-2.308,10.199-2.308
		c7.51,0,14.973,2.973,19.912,4.94c3.715,1.48,6.168,2.457,9.064,2.457c1.83,0,3.559-0.408,5.145-1.216
		c4.885-2.49,6.145-7.033,7.74-12.784c2.131-7.673,5.693-20.514,15.178-25.345c4.01-2.043,8.342-3.077,12.883-3.077
		c11.002,0,21.311,6.003,26.906,15.666c4.113,7.112,5.408,14.307,4.326,24.055c-1.934,17.409-22.164,64.63-30.115,73.595
		c-0.367,0.022-0.85,0.038-1.461,0.038c-16.891,0-63.105-11.416-76.081-18.793c-8.51-4.84-13.565-10.114-16.907-17.636
		C96.187,83.062,102.112,65.3,115.954,58.249z"/>
</g>
</svg>
