<?xml version="1.0" encoding="UTF-8" standalone="no"?>
<svg width="198px" height="197px" viewBox="0 0 198 197" version="1.1" xmlns="http://www.w3.org/2000/svg" xmlns:xlink="http://www.w3.org/1999/xlink">
    <!-- Generator: Sketch 3.7.2 (28276) - http://www.bohemiancoding.com/sketch -->
    <title>Slice 1</title>
    <desc>Created with Sketch.</desc>
    <defs></defs>
    <g id="Page-1" stroke="none" stroke-width="1" fill="none" fill-rule="evenodd">
        <path d="M98.995,194.924 L98.995,194.924 C45.728,194.924 2.364,151.564 2.364,98.295 C2.364,45.024 45.728,1.663 98.995,1.663 C152.264,1.663 195.624,45.025 195.624,98.295 C195.625,151.561 152.264,194.924 98.995,194.924 L98.995,194.924 Z" id="Shape" stroke="#1822CD" stroke-width="3" opacity="0.6"></path>
        <path d="M68.242,87.046 L80.851,74.431 L80.851,126.37 L68.242,113.76 L66.057,111.58 L62.974,111.58 L39.872,111.58 L39.872,89.228 L62.974,89.228 L66.057,89.228 L68.242,87.046 L68.242,87.046 Z M32.421,81.778 L32.421,119.032 L62.974,119.032 L88.302,144.362 L88.302,56.446 L62.974,81.778 L32.421,81.778 L32.421,81.778 Z" id="Shape" fill="#1822CD"></path>
        <path d="M140.655,44.78 L134.65,49.252 C145.31,63.538 151.636,81.245 151.636,100.404 C151.636,119.563 145.31,137.274 134.65,151.55 L140.644,156.024 C152.231,140.503 159.083,121.257 159.083,100.404 C159.084,79.553 152.231,60.301 140.655,44.78 L140.655,44.78 Z" id="Shape" fill="#1822CD"></path>
        <path d="M122.639,142.61 C131.443,130.807 136.73,116.231 136.73,100.404 C136.73,84.579 131.443,70.001 122.639,58.199 L116.663,62.638 C124.55,73.198 129.276,86.244 129.276,100.403 C129.276,114.565 124.549,127.607 116.663,138.168 L122.639,142.61 L122.639,142.61 Z" id="Shape" fill="#1822CD"></path>
        <path d="M104.74,129.284 C110.763,121.208 114.38,111.236 114.38,100.404 C114.38,89.574 110.764,79.599 104.74,71.525 L98.773,75.963 C103.874,82.795 106.93,91.241 106.93,100.404 C106.93,109.569 103.873,118.012 98.773,124.846 L104.74,129.284 L104.74,129.284 Z" id="Shape" fill="#1822CD"></path>
    </g>
</svg>