<?xml version="1.0" encoding="utf-8"?>
<!-- Generator: Adobe Illustrator 21.0.2, SVG Export Plug-In . SVG Version: 6.00 Build 0)  -->
<svg version="1.1" id="Layer_1" xmlns:xl="http://www.w3.org/1999/xlink"
	 xmlns="http://www.w3.org/2000/svg" xmlns:xlink="http://www.w3.org/1999/xlink" x="0px" y="0px" viewBox="0 0 204.7 206.9"
	 style="enable-background:new 0 0 204.7 206.9;" xml:space="preserve">
<style type="text/css">
	.st0{fill:#E6E6E6;stroke:#FFFFFF;stroke-miterlimit:10;}
	.st1{fill:#1822CD;}
	.st2{fill:none;stroke:#1822CD;stroke-width:3;stroke-linecap:round;stroke-linejoin:round;}
</style>
<title>Layer 1</title>
<title>Canvas 4</title>
<title>Layer 1</title>
<path class="st0" d="M172,34.5C133.6-3.8,71.6-3.8,33.3,34.5C-0.3,68.1-4.4,120,21,158.2l-2.7,28.3l27.6-2.7
	c38.3,27.3,91.8,23.8,126.1-10.6C210.3,134.9,210.3,72.8,172,34.5z"/>
<g>
	<path id="Shape_3_" class="st1" d="M149,116.9c-1.2,0-2.2,1.1-2.2,2.6v20.6c0,4.2-3.1,7.7-6.9,7.7H62.2c-3.7,0-6.9-3.5-6.9-7.7
		v-20.6c0-1.4-1-2.6-2.2-2.6s-2.2,1.1-2.2,2.6v20.6c0,7.1,5.1,12.9,11.4,12.9h77.6c6.3,0,11.4-5.8,11.4-12.9v-20.6
		C151.3,118.1,150.3,116.9,149,116.9L149,116.9z"/>
	<path id="Shape_1_" class="st1" d="M55,107V84.2c0-3.7,3.1-6.9,6.9-6.9h18.3c1.2,0,2.2-1,2.2-2.2c0-9,9.8-16,18.3-16
		c5.9,0,12.2,3.3,15.7,8.2c0.7,1,2.2,1.2,3.2,0.6c1-0.7,1.2-2.2,0.6-3.2c-3.9-5.5-10.4-9.2-17.1-10v-5.1c2.7-1,4.6-3.5,4.6-6.5
		c0-3.7-3.1-6.9-6.9-6.9s-6.9,3.1-6.9,6.9c0,3,1.9,5.5,4.6,6.4v5.1c-9.4,1.1-19.1,8.3-20.4,18.1h-16c-6.3,0-11.4,5.1-11.4,11.4v20.6
		h-5c-0.9-2.6-3.4-4.6-6.4-4.6c-3.7,0-6.9,3.1-6.9,6.9s3.1,6.9,6.9,6.9c3,0,5.5-1.9,6.4-4.6H53C54,109.3,55,108.3,55,107L55,107z
		 M100.7,40.8c1.2,0,2.2,1,2.2,2.2s-1,2.2-2.2,2.2s-2.2-1-2.2-2.2C98.4,41.8,99.4,40.8,100.7,40.8L100.7,40.8z M39,109.3
		c-1.2,0-2.2-1-2.2-2.2s1-2.2,2.2-2.2s2.2,1,2.2,2.2C41.3,108.3,40.3,109.3,39,109.3L39,109.3z"/>
	<path id="Shape_2_" class="st1" d="M162.4,100.2c-3,0-5.5,1.9-6.4,4.6h-5V84.1c0-6.3-5.1-11.4-11.4-11.4H89.3c-1.2,0-2.2,1-2.2,2.2
		s1,2.2,2.2,2.2h50.3c3.7,0,6.9,3.1,6.9,6.9v22.8c0,1.2,1,2.2,2.2,2.2h7.3c0.9,2.6,3.4,4.6,6.4,4.6c3.7,0,6.9-3.1,6.9-6.9
		C169.2,103.2,166.1,100.2,162.4,100.2L162.4,100.2z M162.4,109.3c-1.2,0-2.2-1-2.2-2.2s1-2.2,2.2-2.2s2.2,1,2.2,2.2
		C164.6,108.3,163.6,109.3,162.4,109.3L162.4,109.3z"/>
	<path id="Shape_9_" class="st1" d="M34.5,136.8c-0.7,0-1.1-0.2-1.6-0.7c-15.3-15.3-15.3-40.4,0-55.7c0.9-0.9,2.3-0.9,3.2,0
		s0.9,2.3,0,3.2c-13.5,13.5-13.5,35.8,0,49.3c0.9,0.9,0.9,2.3,0,3.2C35.6,136.5,35.2,136.8,34.5,136.8L34.5,136.8z"/>
	<path id="Shape_10_" class="st1" d="M168.5,136.6c-0.7,0-1.1-0.2-1.6-0.7c-0.9-0.9-0.9-2.3,0-3.2c13.5-13.5,13.5-35.8,0-49.3
		c-0.9-0.9-0.9-2.3,0-3.2c0.9-0.9,2.3-0.9,3.2,0c15.3,15.3,15.3,40.4,0,55.7C169.6,136.4,169.2,136.6,168.5,136.6L168.5,136.6z"/>
	<ellipse class="st1" cx="72.9" cy="102.9" rx="5.4" ry="11.2"/>
	<path class="st1" d="M134.9,101.4H130V97c-0.1-0.9-0.9-1.6-1.8-1.4c-0.7,0.1-1.3,0.7-1.4,1.4v4.4h-4.9c-0.8-0.1-1.5,0.5-1.6,1.2
		c-0.1,0.8,0.5,1.5,1.2,1.6c0.1,0,0.2,0,0.3,0h4.9v4.4c0.1,0.9,0.9,1.6,1.8,1.4c0.7-0.1,1.3-0.7,1.4-1.4v-4.4h4.9
		c0.8,0.1,1.5-0.5,1.6-1.2c0.1-0.8-0.5-1.5-1.2-1.6C135.1,101.4,135,101.4,134.9,101.4z"/>
	<path class="st2" d="M75.2,123.7c0,0,7.4,15.3,25.5,15.2"/>
	<path class="st2" d="M126.1,123.2c0,0-7.1,15.5-25.3,15.7"/>
</g>
</svg>
