<?xml version="1.0" encoding="utf-8"?>
<!-- Generator: Adobe Illustrator 21.0.2, SVG Export Plug-In . SVG Version: 6.00 Build 0)  -->
<svg version="1.1" id="Layer_1" xmlns="http://www.w3.org/2000/svg" xmlns:xlink="http://www.w3.org/1999/xlink" x="0px" y="0px"
	 viewBox="0 0 198 197" style="enable-background:new 0 0 198 197;" xml:space="preserve">
<style type="text/css">
	.st0{opacity:0.6;fill:none;stroke:#1822CD;stroke-width:3;enable-background:new    ;}
	.st1{fill:#1822CD;}
</style>
<title>Slice 1</title>
<desc>Created with Sketch.</desc>
<path id="Shape" class="st0" d="M99,194.9L99,194.9c-53.3,0-96.6-43.4-96.6-96.6C2.4,45,45.7,1.7,99,1.7s96.6,43.4,96.6,96.6
	C195.6,151.6,152.3,194.9,99,194.9L99,194.9z"/>
<g>
	<path class="st1" d="M99,120c13.3,0,24-11.1,24-24.9l0.1-49.8c0-13.8-10.8-24.9-24.1-24.9S74.9,31.6,74.9,45.3v49.8
		C74.9,108.8,85.7,120,99,120z"/>
	<path class="st1" d="M141.6,95.1c0,24.9-20.4,42.3-42.6,42.3S56.4,120,56.4,95.1H42.7c0,28.3,21.9,51.7,48.2,55.7V178H107v-27.2
		c26.4-4,48.2-27.4,48.2-55.7C155.2,95.1,141.6,95.1,141.6,95.1z"/>
</g>
</svg>
