<?xml version="1.0" encoding="utf-8"?>
<!-- Generator: Adobe Illustrator 21.0.2, SVG Export Plug-In . SVG Version: 6.00 Build 0)  -->
<svg version="1.1" id="Layer_1" xmlns="http://www.w3.org/2000/svg" xmlns:xlink="http://www.w3.org/1999/xlink" x="0px" y="0px"
	 viewBox="0 0 302 309.3" style="enable-background:new 0 0 302 309.3;" xml:space="preserve">
<style type="text/css">
	.st0{fill:#FAFAFA;}
	.st1{fill:none;stroke:#E6E6E6;stroke-width:6;stroke-miterlimit:10;}
	.st2{fill:#E6E6E6;}
	.st3{fill:none;stroke:#E6E6E6;stroke-width:5;stroke-linecap:round;stroke-linejoin:round;}
	.st4{fill:#E6E6E6;stroke:#E6E6E6;stroke-miterlimit:10;}
</style>
<path class="st0" d="M223.8,242.8H87.1c-8.8,0-16-7.2-16-16V117h168.7v109.8C239.8,235.6,232.6,242.8,223.8,242.8z"/>
<path id="Shape" class="st1" d="M151.4,296.6L151.4,296.6c-80,0-145.1-65.2-145.1-145.1c0-80,65-145.1,145.1-145.1
	s145.1,65.2,145.1,145.1C296.5,231.6,231.5,296.6,151.4,296.6L151.4,296.6z"/>
<title>Group 3</title>
<desc>Created with Sketch.</desc>
<ellipse transform="matrix(1 -5.725762e-03 5.725762e-03 1 -0.907 0.5792)" class="st2" cx="100.7" cy="158.7" rx="9.7" ry="19.9"/>
<path class="st3" d="M199.6,195c0,0-12.7,27.8-45.3,28.4v-0.1c-32.6,0.3-46-26.9-46-26.9"/>
<path class="st4" d="M213.5,155.4h-8.9v-7.9c-0.2-1.6-1.8-2.8-3.3-2.6c-1.4,0.2-2.5,1.2-2.6,2.6v7.9h-8.9c-1.4-0.2-2.8,1.1-3,2.5
	s1.1,2.8,2.5,3c0.2,0,0.4,0,0.5,0h8.9v7.9c0.2,1.6,1.8,2.8,3.3,2.6c1.4-0.2,2.5-1.2,2.6-2.6v-7.9h8.9c1.4,0.2,2.8-1.1,3-2.5
	s-1.1-2.8-2.5-3C214.1,155.4,213.7,155.4,213.5,155.4z"/>
<path class="st2" d="M240.4,68.1H65.7c-2.9,0-5.3,2.4-5.3,5.3v132.7c0,26.1,21.2,47.3,47.3,47.3h90.7c26.1,0,47.3-21.2,47.3-47.3
	V73.4C245.7,70.5,243.3,68.1,240.4,68.1z M235.1,110.8h-14.2l14.2-21.3V110.8z M114.5,78.7l-21.3,32.1H74.7l21.4-32.1H114.5
	L114.5,78.7z M125.3,78.7h18.4l-21.4,32.1h-18.4L125.3,78.7z M154.5,78.7h18.4l-21.4,32.1h-18.4L154.5,78.7z M183.8,78.7h18.4
	l-21.3,32.1h-18.4L183.8,78.7z M213.1,78.7h18.4l-21.4,32.1h-18.4L213.1,78.7z M85.2,78.7L71,100V78.7H85.2z M198.4,242.8h-90.6
	c-20.3,0-36.7-16.5-36.7-36.7v-84.7h164.1v84.7C235.1,226.3,218.6,242.8,198.4,242.8z"/>
<path class="st2" d="M161.6,189.2l-11.7-6.7c-0.4-0.2-0.9-0.2-1.3,0s-0.6,0.7-0.6,1.1V197c0,0.5,0.2,0.9,0.6,1.1
	c0.2,0.1,0.4,0.2,0.6,0.2s0.4-0.1,0.6-0.2l11.7-6.7c0.4-0.2,0.6-0.7,0.6-1.1C162.3,189.8,162,189.4,161.6,189.2z M150.7,194.8v-8.9
	l7.8,4.5L150.7,194.8z"/>
</svg>
