<?xml version="1.0" encoding="utf-8"?>
<!-- Generator: Adobe Illustrator 21.0.2, SVG Export Plug-In . SVG Version: 6.00 Build 0)  -->
<svg version="1.1" id="Layer_1" xmlns:xl="http://www.w3.org/1999/xlink"
	 xmlns="http://www.w3.org/2000/svg" xmlns:xlink="http://www.w3.org/1999/xlink" x="0px" y="0px" viewBox="0 0 600.1 888.1"
	 style="enable-background:new 0 0 600.1 888.1;" xml:space="preserve">
<style type="text/css">
	.st0{fill:#1822CD;}
</style>
<title>Layer 1</title>
<title>Canvas 4</title>
<title>Layer 1</title>
<g>
	<title>Canvas 1</title>
	<g>
		<title>Layer 1</title>
		<path class="st0" d="M139.2,464.4c-91-89.3-92.2-234.8-2.9-325.8s234.8-92.2,325.8-2.9s92.2,234.8,2.9,325.8
			C375.7,552,229.7,553.7,139.2,464.4 M325.9,574.9c63-5.7,124.3-32.6,171.8-81.3c107.1-108.8,105.4-284-3.4-391.1
			s-284-105.4-391.1,3.4s-105.4,284,3.4,391.1c48.7,48.1,110.5,73.9,173.5,78.5l2.9,288.6h45.8L325.9,574.9z"/>
	</g>
</g>
<g>
	<path class="st0" d="M407,161.1H193.9c-17.2,0-31.4,15.4-31.4,34.3v214.3c0,18.9,14.2,34.3,31.4,34.3H407
		c17.2,0,31.4-15.4,31.4-34.3V195.4C437.8,176.5,424.2,161.1,407,161.1z M340.7,212c16.6,0,30.2,14.8,30.2,33.2
		s-13.6,33.2-30.2,33.2s-30.2-14.8-30.2-33.2S324.1,212,340.7,212z M396.9,412.7h-96.5H208c-8.3,0-11.8-7.1-8.3-14.8L251.3,286
		c3.6-7.7,10.7-8.9,16-1.8l52.1,74c5.3,7.1,13.6,7.7,19.5,1.8l12.4-14.2c5.9-6.5,14.2-5.9,18.9,1.8l33.2,51.5
		C408.2,406.2,405.2,412.7,396.9,412.7z"/>
</g>
</svg>
