<?xml version="1.0" encoding="utf-8"?>
<!-- Generator: Adobe Illustrator 16.0.0, SVG Export Plug-In . SVG Version: 6.00 Build 0)  -->
<!DOCTYPE svg PUBLIC "-//W3C//DTD SVG 1.1//EN" "http://www.w3.org/Graphics/SVG/1.1/DTD/svg11.dtd">
<svg version="1.1" id="Capa_1" xmlns="http://www.w3.org/2000/svg" xmlns:xlink="http://www.w3.org/1999/xlink" x="0px" y="0px"
	 width="505.491px" height="560px" viewBox="227.254 0 505.491 560" enable-background="new 227.254 0 505.491 560"
	 xml:space="preserve">
<g>
	<path fill="#0C6BEB" d="M726.005,255.091l-35.958-34.061c-3.137-2.972-7.217-5.355-11.711-6.968c-1.17-1.057-2.59-1.873-4.213-2.32
		l-32.39-8.953c1.269-2.752,2.386-5.748,3.267-9.043c7.102-26.627-7.384-54-32.977-62.316c-3.938-1.278-8.095-1.928-12.359-1.928
		c-11.733,0-22.059,4.787-29.296,8.711c-4.583-9.9-13.072-24.567-30.112-30.105c-4.911-1.598-10.019-2.406-15.176-2.406
		c-21.088,0-40.434,13.435-48.139,33.433c-3.148,8.176-3.957,15.708-3.682,22.277c-2.915,0.307-5.685,0.782-8.121,1.441
		l-180.603,48.873c-0.305,0.083-0.601,0.183-0.892,0.29c-5.273,1.584-10.099,4.215-13.692,7.618l-35.958,34.063
		c-5.287,5.008-7.632,11.512-6.433,17.842c1.196,6.331,5.757,11.529,12.508,14.26l36.743,14.863v137.734
		c0,11.565,7.737,24.313,17.997,29.654l169.324,88.112c4.753,2.472,10.86,3.835,17.195,3.835s12.44-1.363,17.193-3.835
		l169.323-88.113c10.261-5.34,17.998-18.089,17.998-29.656V300.98l34.086-13.789c6.751-2.73,11.311-7.928,12.508-14.26
		C733.638,266.604,731.292,260.101,726.005,255.091z M496.457,146.655c4.618-11.985,16.12-20.037,28.621-20.037
		c2.959,0,5.891,0.464,8.712,1.382c11.009,3.576,16.282,15.831,19.433,23.153c2.133,4.956,3.975,9.233,9.166,10.921
		c1.124,0.365,2.303,0.551,3.506,0.551c0.001,0,0.005,0,0.006,0c3.734-0.001,6.629-1.638,11.008-4.113
		c5.7-3.225,14.312-8.095,22.756-8.095c2.096,0,4.022,0.295,5.895,0.903c14.773,4.8,23.4,21.415,19.235,37.036
		c-2.121,7.942-6.294,13.945-13.951,20.072c-13.564,10.857-60.778,29.781-73.434,30.716c-9.142-7.631-36.99-51.793-41.468-68.062
		C493.344,161.642,493.498,154.335,496.457,146.655z M470.602,183.042c1.913-0.517,4.367-0.843,6.982-1.002
		c4.549,11.991,13.915,28.549,21.951,41.213c9.567,15.079,16.366,23.709,21.201,28.73l-39.407,11.528l-148.052-43.309
		L470.602,183.042z M284.337,234.818c2.15-2.037,6.683-3.574,10.545-3.574c1.368,0,2.295,0.188,2.833,0.345l166.197,48.618
		l-38.791,51.744c-1.259,1.681-4.071,2.898-6.688,2.898c-0.874,0-1.673-0.137-2.312-0.395L250.064,267.28L284.337,234.818z
		 M304.462,449.501c-3.338-1.736-6.737-7.34-6.737-11.103V309.124l110.553,44.723c3.15,1.274,6.566,1.92,10.151,1.92
		c0.001,0,0.001,0,0.002,0c9.236,0,18.213-4.319,23.424-11.271l29.016-38.705v230.303L304.462,449.501z M664.931,438.398
		c0,3.762-3.399,9.364-6.737,11.103l-166.409,86.595V310.728l26.36,35.162c5.21,6.951,14.187,11.271,23.424,11.271
		c3.586,0,7.002-0.646,10.151-1.92l113.21-45.797L664.931,438.398L664.931,438.398z M543.879,335.852
		c-0.639,0.261-1.438,0.396-2.311,0.396c-2.615,0-5.431-1.22-6.689-2.901l-38.79-51.742l166.198-48.618
		c0.537-0.156,1.465-0.344,2.832-0.344c3.861,0,8.395,1.536,10.545,3.573l34.271,32.463L543.879,335.852z"/>
	<path fill="#0C6BEB" d="M337.567,133.655c16.276,9.255,65.543,21.526,86.417,21.526c4.834,0,8.224-0.629,10.993-2.04
		c2.774-1.414,10.143-5.167,25.338-40.446c6.845-15.894,14.65-37.312,16.031-49.756c0.988-8.903,1.337-22.408-7.014-36.839
		C460.013,10.002,442.767,0,424.326,0c-7.872,0-15.399,1.801-22.378,5.357c-15.412,7.852-21.573,23.938-24.653,34.251
		c-5.979-2.194-14.012-4.583-22.89-4.583c-7.092,0-13.719,1.542-19.695,4.587c-23.979,12.218-34.006,41.52-22.827,66.711
		C318.658,121.585,329.786,129.231,337.567,133.655z M344.206,58.247c3.049-1.553,6.386-2.308,10.2-2.308
		c7.51,0,14.973,2.973,19.912,4.94c3.714,1.48,6.168,2.457,9.065,2.457c1.829,0,3.558-0.408,5.144-1.216
		c4.884-2.49,6.145-7.033,7.741-12.784c2.13-7.673,5.692-20.514,15.176-25.345c4.01-2.043,8.343-3.077,12.883-3.077
		c11.002,0,21.312,6.003,26.906,15.666c4.115,7.112,5.41,14.307,4.327,24.055c-1.933,17.409-22.163,64.63-30.115,73.595
		c-0.368,0.022-0.849,0.038-1.461,0.038c-16.89,0-63.106-11.416-76.081-18.793c-8.51-4.84-13.566-10.114-16.907-17.636
		C324.44,83.06,330.365,65.299,344.206,58.247z"/>
</g>
</svg>
