<?xml version="1.0" encoding="utf-8"?>
<!-- Generator: Adobe Illustrator 21.0.2, SVG Export Plug-In . SVG Version: 6.00 Build 0)  -->
<svg version="1.1" id="Layer_1" xmlns="http://www.w3.org/2000/svg" xmlns:xlink="http://www.w3.org/1999/xlink" x="0px" y="0px"
	 viewBox="0 0 198 197" style="enable-background:new 0 0 198 197;" xml:space="preserve">
<style type="text/css">
	.st0{fill:#E6E6E6;}
	.st1{fill:#FEBB86;}
	.st2{fill:#E5BE35;}
	.st3{fill:#732F21;}
	.st4{fill:#EE9D66;}
	.st5{fill:#2D1B11;}
	.st6{fill:#B62122;}
	.st7{fill:#FFFFFF;}
	.st8{fill:#191919;}
	.st9{fill:#FB5847;}
	.st10{fill:#70301E;}
</style>
<title>Slice 1</title>
<desc>Created with Sketch.</desc>
<path id="Shape" class="st0" d="M98.5,187.3L98.5,187.3C49,187.3,8.7,147,8.7,97.5S49,7.7,98.5,7.7s89.8,40.3,89.8,89.8
	S148,187.3,98.5,187.3L98.5,187.3z"/>
<g>
	<path class="st1" d="M120.8,131.6c-3.9-1-4.3-11.8-8.1-14.2l-27.2-8.7c-0.4,1.2-0.8,2.6-1.4,3.9c-3.7,6.3-4.7,17.1-10.8,18.5
		c-3,0.8-4.7,3.5-10.1,3.2c2.8,4.7-0.8,1.2,8.9,7.1c4.7,2.8,13,7.9,24,7.5c11.2,0.4,19.3-4.7,24-7.5c9.5-5.9-3.7-3.9-0.8-8.7
		C113.7,132.8,123.9,132.2,120.8,131.6z"/>
	<path class="st2" d="M95.1,153.1h0.4c11.2,0.2,19.3-5.9,24-9.3c9.5-7.1,15.2-16.4,18.3-22.1l0.2-0.4c-4.5,0.4-8.9-0.2-13.2-1.2
		c-5.1-1.2-9.7-3.7-13.8-6.5c0,1.6,0.4,12.4-6.3,20.1c-2.4,2.8-5.9,4.9-9.3,5.9l0,0c-3.9-1-6.9-3-9.3-5.9
		c-6.7-7.7-6.3-18.5-6.3-20.1c-4.3,3-8.9,5.3-13.8,6.5c-4.3,1.2-8.9,1.4-13.2,1.2l0.2,0.4c3,5.9,8.7,15,18.3,22.1
		C75.8,147.4,84.1,153.3,95.1,153.1L95.1,153.1z"/>
	<path class="st3" d="M99.1,31.1c9.5,0.2,16.4,3.9,20.7,6.3c2.6,1.4,9.7,5.9,14.4,13.2c1.6,2.6,3,5.5,3.7,8.5
		c0.6,2.2,0.8,4.7,0.6,6.9c-0.2,1.4,0.4,3,1.4,4.3c2.2,2.6,4.7,5.1,6.7,7.9c5.7,7.5,6.3,16.4,2.2,25c-1.2,2.2-2,4.7-2.8,7.3
		c-0.4,1.4,0,2.2,1.2,2.8c1.4,0.8,5.5,7.3,6.3,13.6c1.6,10.4-4.7,21.7-12.4,26.2c-3.2,1.8-5.9,1.8-9.9,2.2
		c-3.9,0.2-13.2,0.8-19.5-6.5c-0.8-0.8-1.2-1.6-1.8-2.6c-0.6-1-1.2-2-1.4-3.2c-0.2-0.6-0.4-1.2-0.6-2c-0.2-1.2-0.4-2.2-0.4-3.7
		c1.8-1.2-3.9-3-1.2-5.5c1.2-1.2,1.2,1.2,1.2-13.8c0-3.2,25-21.1,18.1-37.6c-1.2-3.2-3.9-8.9-8.3-10.8c-3-1.2-5.1,0-9.3-1.2
		c-3-1-5.9-2.4-8.1-4.7h-0.4c-2.2,2-5.1,3.9-8.1,4.7c-4.3,1.2-6.3,0-9.3,1.2c-4.5,1.8-6.9,7.3-8.3,10.8c-6.9,16.4,6.9,36.9,7.5,38.8
		c3.5,8.3,2.2,11.8,3.7,13.2c2,2,4.3,3.9,6.7,5.3c0,1.2,0,2.2-0.4,3.7c-0.2,0.8-0.4,1.2-0.6,2c-0.4,1.2-1,2.2-1.4,3.2
		c-0.6,1-1.2,1.8-1.8,2.6c-6.3,7.3-15.6,6.7-19.5,6.5c-4.1-0.2-6.7-0.4-9.9-2.2c-7.7-4.3-14-15.8-12.4-26.2c1-6.3,5.1-12.6,6.3-13.6
		c1.2-0.6,1.4-1.2,1.2-2.8c-0.8-2.4-1.6-4.9-2.8-7.3c-4.1-8.7-3.2-17.5,2.2-25c2-2.8,4.5-5.3,6.7-7.9c1.2-1.2,1.6-2.6,1.4-4.3
		c-0.2-2.2,0-4.7,0.6-6.9c0.8-3,1.8-5.9,3.7-8.5c4.7-7.3,11.8-11.6,14.4-13.2C82.5,35.1,89.6,31.3,99.1,31.1z"/>
	<path class="st1" d="M65,85.9c-2.4-0.4-5.9-3.5-6.5-7.1c-0.6-2.6-0.2-6.9,2.8-8.5c0.8-0.4,1.4-0.6,2.2-0.6c0,0.2,0,0.6,0,0.8
		C63.2,75.9,63.8,81,65,85.9z"/>
	<path class="st4" d="M134.8,70.7c0-0.2,0-0.6,0-0.8c-1.8-18.7-16-37.6-35.5-37.8v85.7c3.7-0.8,8.1-1.2,11.2-2.8
		c11.8-5.7,19.3-16.8,22.9-29C134.6,81,135.1,75.9,134.8,70.7z"/>
	<path class="st1" d="M63.6,69.8c0,0.2,0,0.6,0,0.8C63.2,75.7,63.8,81,65,85.9c3.7,12.4,12.4,22.7,24,28.4c3.2,1.4,6.5,2.6,10.1,3.5
		V32.1C79.6,32.3,65.4,51.2,63.6,69.8z"/>
	<path class="st5" d="M123.9,81.2c-0.6,0-1.2,0-1.8-0.2c0.4,0,0.6-0.2,1-0.4c0.4-0.2,0.6-0.4,0.8-0.8c-1.2,0.4-2.4,0.4-3.7,0.2
		c0.8-0.2,1.2-0.6,1.6-1.2c-1.2,0.4-2.2,0.6-3.7,0.6c-1.2-0.6-2.4-0.8-3.9-0.8h-0.2c-0.2,0-0.6,0-0.8,0c-0.4,0-0.8,0.2-1,0.2
		c-2.2,0.8-4.1,2.2-5.3,4.3c1.2-1.2,2.4-2.4,3.9-3h0.2c-0.8,1.4-0.2,3.5,1.2,4.1c1.4,0.8,3.5,0.2,4.1-1.2c0.6-1,0.6-2,0-3
		c1.8,0.4,3.9,1.2,5.3,2.4c0.6,0.2,1.2,0.2,1.8-0.2c0.8-0.4,1.2-1,1.6-1.6C124.9,81,124.5,81,123.9,81.2z"/>
	<path class="st5" d="M86.1,78.8c-0.4-0.2-0.8-0.2-1-0.2c-0.2,0-0.6,0-0.8,0h-0.2c-1.2,0-2.6,0.2-3.9,0.8c-1.2,0-2.4-0.2-3.7-0.6
		c0.4,0.6,1,1,1.6,1.2c-1.2,0.2-2.4,0.2-3.7-0.2c0.2,0.6,0.8,1.2,1.4,1.2c-1.2,0.4-2.4,0.2-3.7-0.4c0.2,0.8,1,1.2,1.6,1.6
		c0.6,0.2,1.2,0.2,1.8,0.2c1.4-1.2,3.5-2,5.3-2.4c-1,1.4-0.4,3.5,1.2,4.3c1.4,1,3.5,0.4,4.3-1.2c0.6-1,0.6-2,0-3h0.2
		c1.4,0.6,3,1.6,3.9,3C90.2,81,88.4,79.6,86.1,78.8z"/>
	<path class="st6" d="M99.1,101.1c0.6-0.6,1.2-0.8,2-1c1.2-0.2,2,0.8,3.9,1.2c1.2,0.4,2,0.6,3.2,0.8c-0.8,1.4-1.6,2.8-2.8,3.9
		c-1.2,1.2-3.5,3.2-6.3,3.2c-3,0-4.9-1.8-6.3-3.2c-1.2-1.2-2-2.4-2.8-3.9c1.2,0,2.2-0.4,3.2-0.8c1.6-0.6,2.4-1.4,3.9-1.2
		C97.7,100.3,98.5,100.7,99.1,101.1z"/>
	<path class="st7" d="M99.1,103.3c2,0,4.3,0,6.5-0.2c-0.8,1.2-1.8,2.4-3.5,3.2c-2,1-4.3,1-6.3,0c-1.4-0.8-2.6-1.6-3.5-3.2
		C94.9,103.1,97.1,103.3,99.1,103.3z"/>
	<path class="st8" d="M99.1,79.4L99.1,79.4c1-0.2,1.6-0.6,2.2-1.2c1.8-2.2,7.7-3.2,16.4-4.7c9.7-1.6,11-1.2,11.6-0.6
		c1.2,1.2,0.6,3-0.2,5.9c-1.2,3.9-2.2,8.1-6.7,11.2c-1.2,1-6.3,4.1-11.4,3c-3.7-0.8-6.7-3.2-8.3-6.5c-0.8-1.4-1.2-3.2-3.7-3.2l0,0
		c-2.6,0-2.8,1.6-3.7,3.2c-1.4,3.5-4.7,5.9-8.3,6.5c-5.1,1-9.9-2-11.4-3c-4.5-3.2-5.7-7.1-6.7-11.2c-0.8-3-1.2-4.7-0.2-5.9
		c0.6-0.6,1.6-1.2,11.6,0.6c8.7,1.4,14.4,2.4,16.4,4.7C97.3,78.6,98.3,79.2,99.1,79.4L99.1,79.4 M120.2,75.7c-1.8,0-3.7,0.2-5.5,0.6
		c-2.4,0.4-4.9,0.8-7.1,1.4c-2,0.8-3.7,1.2-4.1,2.4c-0.4,1.2-0.2,2.4,0,3.5c1.2,3.5,3.9,5.9,7.3,6.7c4.9,1.2,8.9-1.4,9.7-2.2
		c2-1.2,3.5-3.5,4.3-5.7c0.6-1.4,1.6-4.3,0-5.9C124.1,75.9,122.5,75.9,120.2,75.7 M73.3,76.8c-1.6,1.4-0.6,4.3,0,5.9
		c0.8,2.2,2.2,4.3,4.3,5.7c1,0.6,4.9,3.5,9.7,2.2c3.5-0.8,6.3-3.5,7.3-6.7c0.4-1,0.8-2.2,0-3.5c-0.8-1.2-1.8-1.6-4.1-2.4
		c-2.2-0.8-4.7-1.2-7.1-1.4c-1.8-0.4-3.7-0.6-5.5-0.6C76,75.9,74.4,75.9,73.3,76.8"/>
	<path class="st9" d="M99.7,101.1c0.6-0.6,1.2-0.8,1.8-1c1.2-0.2,1.8,0.6,3.7,1.2c1,0.4,2,0.6,3,0.8c-0.8,1.2-1.4,2.6-2.6,3.9
		c-1.2,1.2-3.2,3-5.9,3c-2.6,0-4.7-1.8-5.9-3c-1.2-1.2-2-2.2-2.6-3.9c1.2,0,2-0.4,3-0.8c1.6-0.6,2.2-1.2,3.7-1.2
		C98.5,100.3,99.1,100.7,99.7,101.1z"/>
	<path class="st10" d="M77,56.3c1.8-4.1,6.5-6.1,10.8-4.1c1.2,0.6,2.2,1.2,3,2.2c3.2,4.1,8.9,8.9,16.4,7.7c8.1-1,7.5,8.9,7.5,8.9
		C114.3,87.9,126.5,94,126.5,94c-3.9,11.4-16.8,19.9-16.8,19.9c2.8-0.4-5.5,21.1-5.5,21.1c5.1,4.7,16.6,4.9,16.6,4.9
		c-1.2,1.2-2,2.6-2.4,4.1c-1,3.2,7.5-1.4,11.4,3.7c-1.2-12.4-3.9-4.7-3.9-4.7c1-0.2,1.8-0.6,2.8-1.2c2-1.2,12.8-2.4,13.2-6.3
		c0.2-2,1-10.8-4.5-9.3c-5.5,1.4,0-4.1-0.8-6.5c-1.2-3.2-7.5-3-4.3-3.9c2.4-0.8,5.3-2.6,5.7-7.3c-0.6-5.1-4.7-5.7-4.7-5.7
		c1.2,0.2,2.6-0.2,3.5-1.2c1.2-1.4,1.2-3.9-0.4-5.1c-0.2-0.2-0.4-0.4-0.8-0.4c-0.8-0.4-1.4-0.6-2.2-0.6c3.2,0.8,4.1-1.2,4.1-1.2
		c0.4-0.8,0.4-1.4,0.2-2.2c-0.4-1.2-1.2-1.8-2.4-2.2c-0.2,0-0.2-0.2-0.2-0.4c0,0,0-0.2,0.2-0.2c1.4-0.8,4.5-3,4.5-9.9
		c-3-65.2-39.8-47.1-39.8-47.1C70.3,15,69.7,71.5,69.7,71.5c1-0.2,1.6,0.2,2.2,1c1.2,1.4,1.6,3.5,2.2,5.3C73.1,64.6,77,56.3,77,56.3
		z"/>
	<path class="st4" d="M106.6,127.9c5.9-12.4,13.6-23.7,7.7-19.7c-5.9,3.9-10.8,9.3-15.2,10.4c-4.3-1-8.5-2.2-12.4-4.1
		c0,1.2,11.8,7.7,11.4,9.3l0.2,13.8C95.7,136.2,102.2,137.2,106.6,127.9z"/>
	<path class="st10" d="M117.6,56.3c-1.8-4.1-6.5-5.9-10.8-4.1c-1.2,0.6-2.2,1.2-3,2.2c-3.2,4.1-8.9,8.9-16.4,7.7
		c-8.1-1-7.5,8.9-7.5,8.9c0.4,16.8-8.9,23.5-8.9,23.5c3.9,11.4,14.4,18.3,14.4,18.3c-0.8,8.9-11.4,17.7-11.4,17.7
		c-5.1,4.7-0.4,9.3-0.4,9.3c1.2,1.2,2,2.6,2.6,4.1c1,3.2-4.1,0.6-8.1,5.5c1.2-12.4,0.2-6.5,0.2-6.5c-1-0.2-1.8-0.6-2.8-1.2
		c-2-1.2-14.6-2.4-15-6.3c-0.2-2,3.5-7.1,4.7-8.7c1.2-1.2,9.9-1.2,10.8-3.7c1.2-3.2-0.6-6.7-3.9-7.9l0,0c-2.4-0.8-5.3-2.6-5.7-7.3
		c0.6-4.9,4.5-5.5,4.5-5.5c-1.2,0.2-2.6-0.2-3.5-1.2c-1.2-1.4-1.2-3.9,0.4-5.1c0.2-0.2,0.4-0.4,0.8-0.4c0.8-0.4,1.4-0.6,2.2-0.6
		c-3.2,0.8-4.3-1.2-4.3-1.2c-0.4-0.8-0.4-1.4-0.2-2.2c0.4-1.2,1.2-1.8,2.4-2.2c0.2,0,0.2-0.2,0.2-0.4c0,0,0-0.2-0.2-0.2
		c-1.4-0.8-4.5-3-4.5-9.9c3.2-65,40-46.9,40-46.9c29.6-17.1,30.2,39.4,30.2,39.4c-1-0.2-1.6,0.2-2.2,1c-1.2,1.4-1.6,3.5-2.2,5.3
		C121.5,64.6,117.6,56.3,117.6,56.3z"/>
</g>
</svg>
