<?xml version="1.0" encoding="UTF-8" standalone="no"?>
<svg width="630px" height="630px" viewBox="0 0 630 630" version="1.1" xmlns="http://www.w3.org/2000/svg" xmlns:xlink="http://www.w3.org/1999/xlink">
    <!-- Generator: Sketch 3.7.2 (28276) - http://www.bohemiancoding.com/sketch -->
    <title>Group 2</title>
    <desc>Created with Sketch.</desc>
    <defs></defs>
    <g id="Page-1" stroke="none" stroke-width="1" fill="none" fill-rule="evenodd">
        <g id="Group-2" transform="translate(2.000000, 2.000000)">
            <g id="Group" transform="translate(126.000000, 126.000000)" fill="#E6E6E6">
                <path d="M352.264955,22.7350446 C321.950223,-7.57834821 272.627009,-7.57834821 242.312946,22.7350446 L130.794643,134.254018 C130.793304,134.255357 130.792634,134.256027 130.790625,134.257366 L22.7357143,242.312946 C-7.57834821,272.628348 -7.57834821,321.952232 22.7357143,352.264955 C37.8930804,367.422321 57.8015625,375 77.7113839,375 C97.6212054,375 117.530357,367.421652 132.689062,352.264955 L244.206027,240.746652 C244.207366,240.744643 244.208036,240.743973 244.211384,240.742634 L352.264286,132.687723 C382.578348,102.372991 382.578348,53.0491071 352.264955,22.7350446 L352.264955,22.7350446 Z M233.646429,230.178348 L122.124107,341.69933 C97.6352679,366.186161 57.7888393,366.186161 33.3013393,341.69933 C8.81316964,317.21183 8.81316964,277.365402 33.3013393,252.875223 L109.000446,177.176116 C108.964286,177.405134 108.91942,177.631473 108.885938,177.86183 C106.8,192.091741 108.759375,206.852009 114.391071,220.004464 L114.381696,220.005134 L57.4064732,276.981027 C46.2100446,288.178125 46.2100446,306.395759 57.4064732,317.592857 C62.8238839,323.010268 70.0359375,325.993527 77.7127232,325.993527 C85.3901786,325.993527 92.6008929,323.010268 98.0183036,317.592857 L203.514509,212.097991 L206.073884,209.537946 L209.541295,206.070536 C220.737723,194.872768 220.737723,176.655804 209.541295,165.458705 C206.013616,161.931027 201.789509,159.515625 197.30625,158.210491 L222.822991,132.69308 C226.729687,135.164062 230.355134,138.064286 233.645089,141.354241 C238.212723,145.922545 242.029687,151.138393 244.9875,156.856473 C257.633036,181.285045 253.074107,210.75067 233.646429,230.178348 L233.646429,230.178348 Z M121.927902,233.589509 C124.55692,237.372321 127.512723,240.930804 130.791295,244.207366 C134.069866,247.485938 137.627009,250.44308 141.410491,253.070089 L87.4526786,307.026563 C82.0814732,312.397768 73.3412946,312.397768 67.9700893,307.026563 C62.5988839,301.655357 62.5988839,292.915848 67.9700893,287.543973 L121.927902,233.589509 L121.927902,233.589509 Z M176.02567,198.97567 C170.654464,193.604464 170.654464,184.863616 176.02567,179.492411 L179.49308,176.025 C184.864286,170.653795 193.604464,170.653795 198.976339,176.025 C204.347545,181.396875 204.347545,190.137054 198.976339,195.508259 L195.509598,198.97567 C190.137054,204.346875 181.397545,204.345536 176.02567,198.97567 L176.02567,198.97567 Z M244.210714,130.790625 C240.932143,127.512054 237.376339,124.55625 233.592187,121.927902 L287.55,67.9707589 C292.921205,62.5995536 301.660714,62.5995536 307.032589,67.9707589 C312.404464,73.3419643 312.403795,82.0821429 307.032589,87.4533482 L253.075446,141.410491 C250.44442,137.62567 247.488616,134.069196 244.210714,130.790625 L244.210714,130.790625 Z M341.70067,122.122768 L266.001563,197.821875 C266.039063,197.592857 266.082589,197.366518 266.117411,197.13683 C268.202009,182.90692 266.243304,168.146652 260.610938,154.993527 L260.621652,154.992857 L317.597545,98.0176339 C328.793973,86.8205357 328.793973,68.6029018 317.597545,57.4058036 C312.178125,51.9883929 304.96808,49.0051339 297.291295,49.0051339 C289.613839,49.0051339 282.403125,51.9883929 276.985714,57.4058036 L171.488839,162.90067 L168.928795,165.460714 L165.461384,168.928125 C154.264955,180.124554 154.264955,198.342187 165.461384,209.539955 C168.990402,213.067634 173.21317,215.483036 177.696429,216.78817 L152.179018,242.304241 C148.272321,239.834598 144.646875,236.933036 141.35692,233.642411 C136.790625,229.074777 132.972321,223.858929 130.01317,218.140848 C117.370313,193.713616 121.929911,164.247991 141.35692,144.820312 L252.877902,33.3 C277.366071,8.81116071 317.2125,8.81116071 341.702679,33.3 C366.188839,57.7881696 366.188839,97.6345982 341.70067,122.122768 L341.70067,122.122768 Z" id="Shape"></path>
                <path d="M221.810491,78.3810268 L146.360491,153.830357 C143.443527,156.747321 143.443527,161.477679 146.360491,164.395313 C147.819643,165.854464 149.729464,166.583705 151.643304,166.583705 C153.554464,166.583705 155.466964,165.854464 156.925446,164.395313 L232.375446,88.9459821 C235.291741,86.0290179 235.291741,81.2986607 232.375446,78.3810268 C229.457813,75.4633929 224.728125,75.4633929 221.810491,78.3810268 L221.810491,78.3810268 Z" id="Shape"></path>
            </g>
            <circle id="Oval" stroke="#E6E6E6" stroke-width="4" cx="313.3354" cy="313.3354" r="312.5"></circle>
        </g>
    </g>
</svg>