<?xml version="1.0" encoding="utf-8"?>
<!-- Generator: Adobe Illustrator 16.0.0, SVG Export Plug-In . SVG Version: 6.00 Build 0)  -->
<!DOCTYPE svg PUBLIC "-//W3C//DTD SVG 1.1//EN" "http://www.w3.org/Graphics/SVG/1.1/DTD/svg11.dtd">
<svg version="1.1" id="Layer_1" xmlns:xl="http://www.w3.org/1999/xlink"
	 xmlns="http://www.w3.org/2000/svg" xmlns:xlink="http://www.w3.org/1999/xlink" x="0px" y="0px" width="204.746px"
	 height="206.9px" viewBox="0 0 204.746 206.9" enable-background="new 0 0 204.746 206.9" xml:space="preserve">
<title>Layer 1</title>
<title>Canvas 4</title>
<title>Layer 1</title>
<path opacity="0.6" fill="none" stroke="#E6E6E6" stroke-width="3" stroke-linecap="round" stroke-linejoin="round" enable-background="new    " d="
	M101.995,201.924L101.995,201.924c-53.267,0-96.631-43.36-96.631-96.629c0-53.271,43.364-96.632,96.631-96.632
	c53.269,0,96.629,43.362,96.629,96.632C198.625,158.561,155.264,201.924,101.995,201.924z"/>
<g>
	<path fill="#E6E6E6" d="M102.373,64.161c-26.367,0-50.278,14.426-67.921,37.857c-1.439,1.919-1.439,4.601,0,6.521
		c17.644,23.46,41.555,37.885,67.921,37.885c26.367,0,50.277-14.425,67.921-37.856c1.44-1.92,1.44-4.602,0-6.521
		C152.65,78.587,128.74,64.161,102.373,64.161z M104.265,134.257c-17.502,1.102-31.957-13.324-30.856-30.855
		c0.904-14.455,12.619-26.169,27.073-27.073c17.503-1.101,31.957,13.325,30.855,30.856
		C130.405,121.609,118.689,133.325,104.265,134.257z M103.39,120.876c-9.43,0.593-17.221-7.171-16.6-16.6
		c0.479-7.792,6.803-14.087,14.595-14.595c9.429-0.592,17.22,7.171,16.6,16.599C117.476,114.1,111.152,120.395,103.39,120.876z"/>
</g>
</svg>
