<?xml version="1.0" encoding="utf-8"?>
<!-- Generator: Adobe Illustrator 21.0.2, SVG Export Plug-In . SVG Version: 6.00 Build 0)  -->
<svg version="1.1" id="Layer_1" xmlns:xl="http://www.w3.org/1999/xlink"
	 xmlns="http://www.w3.org/2000/svg" xmlns:xlink="http://www.w3.org/1999/xlink" x="0px" y="0px" viewBox="0 0 655.8 657"
	 style="enable-background:new 0 0 655.8 657;" xml:space="preserve">
<style type="text/css">
	.st0{fill:#1822CD;}
	.st1{fill:none;stroke:#1822CD;stroke-width:5;stroke-miterlimit:10;}
	.st2{fill:none;stroke:#1822CD;stroke-width:8;}
</style>
<title>Layer 1</title>
<title>Canvas 4</title>
<title>Layer 1</title>
<ellipse class="st0" cx="309.6" cy="281.5" rx="9.8" ry="20.4"/>
<path class="st0" d="M420.3,278.9h-8.8v-8.2c-0.4-1.6-1.6-3-3.2-2.6c-1.4,0.4-2.6,1.4-2.6,2.6v8.2H397c-1.6-0.4-3,1-3,2.4
	c-0.4,1.6,1,3,2.4,3c0.4,0,0.4,0,0.6,0h8.6v8c0.4,1.6,1.6,3,3.2,2.6c1.4-0.4,2.6-1.4,2.6-2.6v-8.2h8.6c1.6,0.4,3-1,3-2.4
	c0.4-1.6-1-3-2.4-3C420.7,278.9,420.3,278.9,420.3,278.9z"/>
<path class="st1" d="M314,319.6c0,0,13.4,27.9,46.3,27.5"/>
<path class="st1" d="M406.6,318.6c0,0-12.8,27.9-45.7,28.3"/>
<path class="st0" d="M423.5,193.1c-7.4-10-17.4-18.8-28.3-24.1c-11.6-6.2-23.7-9-36.9-9s-25.5,3.2-37.1,9c-11,6-21,14.2-28.3,24.3
	c-10.6,14.4-16.2,31.7-16.2,49.9v90.2h22.1c-8.6-12.4-13-27.1-13-42.5v-38.7c-0.2,0-0.8,0.2-1.2,0.2c-2.2,0.6-4.2-0.6-5.2-2.8
	c-0.6-2.2,0.6-4.6,2.8-5.2c7.2-2,14-4,21-5.4c0-8.2,1.8-29.5,13.6-42.5c1.4-1.8,4-1.8,5.6-0.2c1.8,1.4,1.8,4.2,0.2,5.6
	c-9,10-11,27.1-11.4,35.7c6.6-1.2,12.8-2,19.4-2.8c0-9,2.8-22.3,3.2-24.3c0.6-2.2,2.6-3.6,4.8-3.2c2.2,0.4,3.4,2.6,3.2,4.8
	c-0.8,4.2-2.8,15-3.2,21.7c24.1-2,48.5-0.2,72.6,4.6c0.6-6.6,0.2-19.8-8.6-31.7c-1.4-1.8-1.2-4.2,0.8-5.6c1.8-1.4,4.2-1.2,5.6,0.8
	c11,14.8,11,30.9,10.2,38.3c5.6,1.4,11,2.8,16.4,4.6c2.2,0.6,3.4,2.8,2.8,5.2c-0.6,1.8-2.2,2.8-4,2.8c-0.2,0-0.8,0-1.2-0.2
	c-0.6-0.2-1.2-0.2-1.4-0.6v38.9c0,15.4-4.8,30.3-13,42.5h22.3v-89.8C440.1,225.2,434.3,207.7,423.5,193.1z"/>
<path class="st0" d="M513.3,529.2V158.8c0-25.5-24.8-46.1-55-46.1H179.9c-30.2,0.2-54.7,20.8-54.7,46.1v21.8c-0.2,3.7,3,7.5,7.5,7.7
	s8.7-2.6,9.1-6.3c0-0.5,0-0.9,0-1.2V159c0-17.8,17.1-32.1,38.4-32.1h25.7v260.2h-1.4c-24.8,2.3-47,13.1-61.5,29.5v0.2l-0.9,0.9
	V208.4c0.2-3.7-3-7.5-7.5-7.7c-4.4-0.2-8.7,2.6-9.1,6.3c0,0.5,0,0.9,0,1.2v253.2c0,41.4,39.5,74.6,88.9,74.6h47v14.3
	c0,3.7,4,6.8,8.7,6.8c2.3,0,4.2-0.7,5.8-2.1l26.2-22l27.4,21.8c3.3,2.6,8.7,2.6,11.9-0.2c1.4-1.2,2.3-3,2.6-4.9v-14.3h76.7
	c4.4,0.2,8.7-2.6,9.1-6.3c0.2-3.7-3-7.5-7.5-7.7c-0.5,0-0.9,0-1.4,0h-76.7v-21.1h153.5v22h-43.5c-4.4-0.2-8.7,2.6-9.1,6.3
	c-0.2,3.7,3,7.5,7.5,7.7c0.5,0,0.9,0,1.4,0h52.2C509.6,536.4,513.3,532.9,513.3,529.2L513.3,529.2z M326.2,493.4v40.5l-18.5-15
	c-3.3-2.6-8.4-2.6-11.7,0l-18.5,15v-65.7h48.2L326.2,493.4L326.2,493.4z M496.7,486.3H343.2v-25c0-3.7-3.5-6.8-8.4-6.8h-65.5
	c-4.4,0-8.4,3-8.4,6.8v25h-46.8c-16.4,0-29.9-11.2-29.9-25s13.3-25,29.9-25h282.4v50.1H496.7z M496.7,386.7H287.6
	c-4.4,0.2-7.7,3.7-7.5,7.7c0.2,3.3,3.5,5.8,7.5,6.3h208.9v22H214.1c-25.7,0.7-45.4,19.2-44.7,40.5c0.9,20.4,20.4,36.5,44.7,37.4h47
	v22h-47c-40.2,0-72.5-27.4-72.5-60.8s32.3-60.8,72.5-60.8h40.5c4.4-0.2,7.7-3.7,7.5-7.7c-0.2-3.3-3.5-5.8-7.5-6.3h-32.3V126.5h235.8
	c21.3,0,38.4,14.3,38.4,32.1L496.7,386.7L496.7,386.7z"/>
<circle id="path-1" class="st2" cx="324.5" cy="327.5" r="306.5"/>
</svg>
