<?xml version="1.0" encoding="utf-8"?>
<!-- Generator: Adobe Illustrator 16.0.0, SVG Export Plug-In . SVG Version: 6.00 Build 0)  -->
<!DOCTYPE svg PUBLIC "-//W3C//DTD SVG 1.1//EN" "http://www.w3.org/Graphics/SVG/1.1/DTD/svg11.dtd">
<svg version="1.1" id="Capa_1" xmlns="http://www.w3.org/2000/svg" xmlns:xlink="http://www.w3.org/1999/xlink" x="0px" y="0px"
	 width="960px" height="560px" viewBox="0 0 960 560" enable-background="new 0 0 960 560" xml:space="preserve">
<g>
	<path fill="#0C6BEB" d="M572.564,325.546l-143.544-82.859c-4.94-2.854-11.069-2.854-15.99,0c-4.977,2.854-8.014,8.142-8.014,13.85
		v165.737c0,5.727,3.056,10.995,8.014,13.85c2.47,1.427,5.251,2.158,8.014,2.158c2.762,0,5.524-0.731,7.977-2.158l143.544-82.859
		c4.959-2.854,8.014-8.123,8.014-13.85S577.523,328.4,572.564,325.546z M437.033,394.556v-110.32l95.557,55.16L437.033,394.556z"/>
	<path fill="#0C6BEB" d="M744.01,0H216.008C207.19,0,200,7.172,200,16.008v400.978C200,495.856,264.162,560,342.996,560h274.045
		C695.856,560,760,495.856,760,416.986V16.008C760,7.172,752.828,0,744.01,0z M727.983,129.073h-42.831l42.831-64.401V129.073z
		 M363.305,32.017l-64.548,97.057h-55.743l64.562-97.057H363.305z M395.997,32.017h55.74l-64.576,97.057h-55.727L395.997,32.017z
		 M484.436,32.017h55.726L475.6,129.073h-55.74L484.436,32.017z M572.841,32.017h55.746l-64.549,97.057h-55.746L572.841,32.017z
		 M661.28,32.017h55.728l-64.549,97.057h-55.728L661.28,32.017z M274.881,32.017l-42.864,64.438V32.017H274.881z M617.022,527.965
		H342.996c-61.18,0-110.979-49.781-110.979-110.979V161.09h495.967v255.896C727.983,478.165,678.22,527.965,617.022,527.965z"/>
</g>
</svg>
