<?xml version="1.0" encoding="utf-8"?>
<!-- Generator: Adobe Illustrator 16.0.0, SVG Export Plug-In . SVG Version: 6.00 Build 0)  -->
<!DOCTYPE svg PUBLIC "-//W3C//DTD SVG 1.1//EN" "http://www.w3.org/Graphics/SVG/1.1/DTD/svg11.dtd">
<svg version="1.1" id="Layer_1" xmlns="http://www.w3.org/2000/svg" xmlns:xlink="http://www.w3.org/1999/xlink" x="0px" y="0px"
	 width="960px" height="586.5px" viewBox="0 0 960 586.5" enable-background="new 0 0 960 586.5" xml:space="preserve">
<path fill="#0C6BEB" stroke="#0C6BEB" stroke-miterlimit="10" d="M686.035,412.678c-5.161,0-9.333,4.727-9.333,10.547v84.379
	c0,17.445-12.562,31.645-27.999,31.645H331.38c-15.437,0-27.999-14.197-27.999-31.645v-84.379c0-5.82-4.171-10.547-9.333-10.547
	c-5.161,0-9.333,4.727-9.333,10.547v84.379c0,29.08,20.934,52.738,46.666,52.738h317.322c25.73,0,46.666-23.658,46.666-52.738
	v-84.379C695.368,417.404,691.196,412.678,686.035,412.678z"/>
<path fill="#0C6BEB" stroke="#0C6BEB" stroke-miterlimit="10" d="M303.391,271.964v-87.84c0-14.529,12.562-26.352,27.999-26.352
	h74.664c5.161,0,9.333-3.937,9.333-8.784c0-34.626,40.144-61.488,74.665-61.488c24.284,0,49.996,12.623,64.006,31.412
	c2.959,3.962,8.772,4.938,13.001,2.152c4.221-2.793,5.245-8.267,2.277-12.236c-15.81-21.222-42.53-35.592-69.951-38.325V50.747
	c10.836-3.646,18.667-13.298,18.667-24.736c0-14.529-12.562-26.352-27.999-26.352c-15.437,0-27.999,11.823-27.999,26.352
	c0,11.437,7.829,21.091,18.666,24.727v19.737c-38.462,4.004-77.959,32.018-83.372,69.728H331.39
	c-25.731,0-46.666,19.703-46.666,43.92l-0.018,79.057h-20.382c-3.873-10.208-14.13-17.569-26.282-17.569
	c-15.437,0-27.999,11.823-27.999,26.353c0,14.529,12.562,26.351,27.999,26.351c12.151,0,22.409-7.361,26.282-17.568h29.734
	C299.219,280.748,303.391,276.812,303.391,271.964z M490.052,17.227c5.15,0,9.332,3.944,9.332,8.784s-4.182,8.784-9.332,8.784
	s-9.333-3.944-9.333-8.784C480.719,21.171,484.899,17.227,490.052,17.227z M238.041,280.748c-5.151,0-9.333-3.943-9.333-8.784
	c0-4.842,4.181-8.784,9.333-8.784s9.333,3.942,9.333,8.784C247.374,276.805,243.192,280.748,238.041,280.748z"/>
<path fill="#0C6BEB" stroke="#0C6BEB" stroke-miterlimit="10" d="M742.043,245.612c-12.151,0-22.408,7.361-26.272,17.569h-20.393
	v-79.057c0-24.217-20.935-43.921-46.666-43.921H443.386c-5.161,0-9.333,3.936-9.333,8.784c0,4.849,4.172,8.784,9.333,8.784h205.326
	c15.438,0,27.999,11.823,27.999,26.353v87.841c0,4.847,4.172,8.783,9.333,8.783h29.727c3.863,10.207,14.12,17.568,26.271,17.568
	c15.438,0,27.999-11.822,27.999-26.351C770.042,257.435,757.479,245.612,742.043,245.612z M742.043,280.748
	c-5.151,0-9.333-3.943-9.333-8.784c0-4.842,4.182-8.784,9.333-8.784s9.333,3.942,9.333,8.784
	C751.376,276.805,747.195,280.748,742.043,280.748z"/>
<g>
	<path fill="#0C6BEB" stroke="#0C6BEB" stroke-miterlimit="10" d="M642.988,262.983c0-17.564-14.291-31.856-31.855-31.856
		c-17.563,0-31.856,14.292-31.856,31.856s14.293,31.857,31.856,31.857C628.697,294.84,642.988,280.543,642.988,262.983z
		 M600.514,262.983c0-5.852,4.757-10.619,10.617-10.619c5.862,0,10.62,4.768,10.62,10.619c0,5.85-4.758,10.619-10.62,10.619
		C605.271,273.602,600.514,268.831,600.514,262.983z"/>
	<path fill="#0C6BEB" stroke="#0C6BEB" stroke-miterlimit="10" d="M409.376,262.983c0-17.564-14.292-31.856-31.856-31.856
		c-17.563,0-31.856,14.292-31.856,31.856s14.292,31.857,31.856,31.857C395.084,294.84,409.376,280.543,409.376,262.983z
		 M377.52,273.6c-5.861,0-10.619-4.768-10.619-10.619s4.757-10.618,10.619-10.618s10.619,4.767,10.619,10.618
		C388.14,268.831,383.382,273.6,377.52,273.6z"/>
</g>
<path fill="#0C6BEB" stroke="#0C6BEB" stroke-miterlimit="10" d="M139.045,472.49c-2.847,0-4.746-0.949-6.645-2.846
	c-107.254-107.254-107.254-281.898,0-389.153c3.796-3.797,9.492-3.797,13.288,0c3.796,3.796,3.796,9.49,0,13.287
	c-99.661,99.662-99.661,262.917,0,362.577c3.796,3.797,3.796,9.49,0,13.287C143.792,471.543,141.893,472.49,139.045,472.49z"/>
<path fill="#0C6BEB" stroke="#0C6BEB" stroke-miterlimit="10" d="M847.72,471.965c-2.848,0-4.746-0.949-6.645-2.85
	c-3.797-3.797-3.797-9.49,0-13.287c48.406-48.406,74.98-112.947,74.98-181.288c0-68.337-26.574-132.883-74.98-181.288
	c-3.797-3.797-3.797-9.492,0-13.289c3.797-3.796,9.492-3.796,13.289,0c52.203,52.206,80.678,120.544,80.678,194.579
	c0,74.034-28.475,142.372-80.678,194.575C852.464,471.016,850.567,471.965,847.72,471.965z"/>
<path fill="#0C6BEB" stroke="#0C6BEB" stroke-miterlimit="10" d="M179.859,432.627c-2.847,0-4.746-0.947-6.645-2.848
	c-85.424-85.424-85.424-223.999,0-308.473c3.796-3.797,9.492-3.797,13.288,0c3.796,3.796,3.796,9.49,0,13.287
	c-77.83,76.882-77.83,204.067,0,280.948c3.796,3.799,3.796,9.492,0,13.289C184.604,431.678,181.758,432.627,179.859,432.627z"/>
<path fill="#0C6BEB" stroke="#0C6BEB" stroke-miterlimit="10" d="M807.854,432.102c-2.848,0-4.746-0.949-6.646-2.85
	c-3.795-3.797-3.795-9.49,0-13.287c37.967-37.967,57.898-87.32,57.898-140.475c0-53.153-20.883-103.458-57.898-140.476
	c-3.795-3.796-3.795-9.491,0-13.287c3.797-3.797,9.492-3.797,13.289,0c40.812,39.863,63.592,93.966,63.592,152.812
	c0,57.899-22.779,112.948-63.592,154.711C812.601,431.152,809.753,432.102,807.854,432.102z"/>
<path fill="#0C6BEB" stroke="#0C6BEB" stroke-miterlimit="10" d="M219.724,391.814c-2.847,0-4.746-0.949-6.645-2.848
	c-62.645-62.646-62.645-165.153,0-227.797c3.796-3.796,9.492-3.796,13.288,0c3.796,3.796,3.796,9.491,0,13.288
	c-55.05,55.051-55.05,146.169,0,201.222c3.796,3.795,3.796,9.488,0,13.287C224.47,390.865,222.571,391.814,219.724,391.814z"/>
<path fill="#0C6BEB" stroke="#0C6BEB" stroke-miterlimit="10" d="M767.042,391.287c-2.848,0-4.746-0.947-6.645-2.846
	c-3.799-3.797-3.799-9.492,0-13.289c55.051-55.051,55.051-146.169,0-201.22c-3.799-3.797-3.799-9.492,0-13.288
	c3.797-3.796,9.49-3.796,13.285,0c62.646,62.645,62.646,165.153,0,227.797C771.788,390.338,769.89,391.287,767.042,391.287z"/>
<rect id="_x3C_Slice_x3E_" x="322.543" y="269.99" fill="none" stroke="#0C6BEB" stroke-miterlimit="10" width="362" height="67.995"/>
<text transform="matrix(1 0 0 1 271.542 381.9834)" fill="#0C6BEB" stroke="#0C6BEB" stroke-miterlimit="10" font-family="'AvenirNext-BoldItalic'" font-size="100">Channels</text>
<path fill="none" stroke="#0C6BEB" stroke-width="19" stroke-linecap="round" stroke-linejoin="round" d="M394.056,426.787
	c0,33.502,42.175,84.348,94.563,84.348c52.387,0,84.014-44.523,95.147-79.479"/>
<g>
	
		<line fill="#0C6BEB" stroke="#0C6BEB" stroke-width="14" stroke-linecap="round" stroke-linejoin="round" x1="472.114" y1="441.57" x2="507.97" y2="441.57"/>
	
		<line fill="#0C6BEB" stroke="#0C6BEB" stroke-width="14" stroke-linecap="round" stroke-linejoin="round" x1="489.494" y1="424.51" x2="489.494" y2="459.713"/>
</g>
</svg>
