<?xml version="1.0" encoding="utf-8"?>
<!-- Generator: Adobe Illustrator 16.0.0, SVG Export Plug-In . SVG Version: 6.00 Build 0)  -->
<!DOCTYPE svg PUBLIC "-//W3C//DTD SVG 1.1//EN" "http://www.w3.org/Graphics/SVG/1.1/DTD/svg11.dtd">
<svg version="1.1" id="Layer_1" xmlns:xl="http://www.w3.org/1999/xlink"
	 xmlns="http://www.w3.org/2000/svg" xmlns:xlink="http://www.w3.org/1999/xlink" x="0px" y="0px" width="41px" height="61px"
	 viewBox="0 0 41 61" enable-background="new 0 0 41 61" xml:space="preserve">
<g>
	<title>Canvas 4</title>
	<g>
		<title>Layer 1</title>
		<path fill="#0B67F5" stroke="#0B67F5" stroke-width="2" stroke-miterlimit="10" d="M19.994,26.177c-2.762,0-5-2.237-5-4.999
			c0-2.759,2.238-4.998,5-4.998s5,2.239,5,4.998C24.994,23.939,22.756,26.177,19.994,26.177 M19.994,1.177
			c-11.045,0-20,8.957-20,20.001c0,3.646,0.98,7.057,2.687,10.001l17.313,30l17.312-30c1.706-2.944,2.688-6.354,2.688-10.001
			C39.994,10.134,31.039,1.177,19.994,1.177 M19.994,28.177c3.859,0,7-3.14,7-6.999c0-3.858-3.141-6.998-7-6.998s-7,3.14-7,6.998
			C12.994,25.037,16.135,28.177,19.994,28.177 M19.994,3.177c9.926,0,18,8.075,18,18.001c0,3.156-0.836,6.267-2.42,9.001
			l-15.58,26.999L4.41,30.177c-1.58-2.732-2.416-5.843-2.416-8.999C1.994,11.252,10.068,3.177,19.994,3.177"/>
	</g>
</g>
</svg>
