<?xml version="1.0" encoding="UTF-8" standalone="no"?>
<svg width="884px" height="492px" viewBox="0 0 884 492" version="1.1" xmlns="http://www.w3.org/2000/svg" xmlns:xlink="http://www.w3.org/1999/xlink">
    <!-- Generator: Sketch 3.7.2 (28276) - http://www.bohemiancoding.com/sketch -->
    <title>Group</title>
    <desc>Created with Sketch.</desc>
    <defs></defs>
    <g id="Page-1" stroke="none" stroke-width="1" fill="none" fill-rule="evenodd">
        <g id="Group">
            <path d="M636.503,329.832 C631.342,329.832 627.17,334.558 627.17,340.379 L627.17,424.758 C627.17,442.203 614.608,456.401 599.171,456.401 L281.848,456.401 C266.411,456.401 253.849,442.205 253.849,424.758 L253.849,340.379 C253.849,334.558 249.678,329.832 244.516,329.832 C239.355,329.832 235.183,334.558 235.183,340.379 L235.183,424.758 C235.183,453.837 256.117,477.495 281.849,477.495 L599.171,477.495 C624.901,477.495 645.837,453.838 645.837,424.758 L645.837,340.379 C645.836,334.558 641.664,329.832 636.503,329.832 L636.503,329.832 Z" id="Shape" fill="#E6E6E6"></path>
            <path d="M252.349,289.333 L252.349,196.003 C252.349,180.566 264.911,168.004 280.348,168.004 L355.012,168.004 C360.173,168.004 364.345,163.822 364.345,158.671 C364.345,121.881 404.488,93.34 439.01,93.34 C463.294,93.34 489.006,106.751 503.016,126.715 C505.975,130.925 511.788,131.961 516.017,129.002 C520.237,126.034 521.262,120.219 518.294,116.001 C502.484,93.452 475.764,78.184 448.343,75.281 L448.343,54.29 C459.179,50.417 467.01,40.161 467.01,28.008 C467.01,12.571 454.448,0.009 439.011,0.009 C423.574,0.009 411.012,12.571 411.012,28.008 C411.012,40.159 418.841,50.417 429.678,54.28 L429.678,75.251 C391.216,79.506 351.719,109.27 346.306,149.337 L280.348,149.337 C254.617,149.337 233.682,170.271 233.682,196.002 L233.664,280 L213.282,280 C209.409,269.155 199.152,261.333 187,261.333 C171.563,261.333 159.001,273.895 159.001,289.332 C159.001,304.77 171.563,317.331 187,317.331 C199.151,317.331 209.409,309.51 213.282,298.664 L243.016,298.664 C248.177,298.666 252.349,294.484 252.349,289.333 L252.349,289.333 Z M439.01,18.675 C444.16,18.675 448.342,22.865 448.342,28.008 C448.342,33.151 444.16,37.341 439.01,37.341 C433.859,37.341 429.677,33.151 429.677,28.008 C429.677,22.866 433.857,18.675 439.01,18.675 L439.01,18.675 Z M186.999,298.666 C181.848,298.666 177.666,294.477 177.666,289.333 C177.666,284.189 181.847,280 186.999,280 C192.151,280 196.332,284.189 196.332,289.333 C196.332,294.477 192.15,298.666 186.999,298.666 L186.999,298.666 Z" id="Shape" fill="#E6E6E6"></path>
            <path d="M691.001,261.334 C678.85,261.334 668.593,269.155 664.729,280.001 L644.336,280.001 L644.336,196.004 C644.336,170.273 623.401,149.338 597.67,149.338 L392.344,149.338 C387.183,149.338 383.011,153.519 383.011,158.671 C383.011,163.823 387.183,168.004 392.344,168.004 L597.67,168.004 C613.108,168.004 625.669,180.566 625.669,196.004 L625.669,289.334 C625.669,294.484 629.841,298.666 635.002,298.666 L664.729,298.666 C668.592,309.512 678.849,317.333 691,317.333 C706.438,317.333 718.999,304.771 718.999,289.334 C719,273.896 706.438,261.334 691.001,261.334 L691.001,261.334 Z M691.001,298.666 C685.85,298.666 681.668,294.477 681.668,289.333 C681.668,284.189 685.85,280 691.001,280 C696.152,280 700.334,284.189 700.334,289.333 C700.334,294.477 696.153,298.666 691.001,298.666 L691.001,298.666 Z" id="Shape" fill="#E6E6E6"></path>
            <path d="M570.672,238.997 C570.672,223.56 558.11,210.998 542.673,210.998 C527.236,210.998 514.674,223.56 514.674,238.997 C514.674,254.434 527.236,266.996 542.673,266.996 C558.11,266.996 570.672,254.433 570.672,238.997 L570.672,238.997 Z M533.339,238.997 C533.339,233.854 537.522,229.664 542.672,229.664 C547.823,229.664 552.005,233.854 552.005,238.997 C552.005,244.14 547.823,248.33 542.672,248.33 C537.521,248.33 533.339,244.138 533.339,238.997 L533.339,238.997 Z" id="Shape" fill="#E6E6E6"></path>
            <path d="M365.345,238.997 C365.345,223.56 352.783,210.998 337.346,210.998 C321.909,210.998 309.347,223.56 309.347,238.997 C309.347,254.434 321.909,266.996 337.346,266.996 C352.783,266.996 365.345,254.433 365.345,238.997 L365.345,238.997 Z M337.346,248.329 C332.195,248.329 328.013,244.139 328.013,238.996 C328.013,233.853 332.194,229.663 337.346,229.663 C342.498,229.663 346.679,233.853 346.679,238.996 C346.68,244.138 342.498,248.329 337.346,248.329 L337.346,248.329 Z" id="Shape" fill="#E6E6E6"></path>
            <path d="M88.003,491.507 C85.156,491.507 83.257,490.558 81.358,488.66 C-25.896,381.406 -25.896,206.762 81.358,99.508 C85.154,95.711 90.85,95.711 94.646,99.508 C98.442,103.304 98.442,108.998 94.646,112.795 C-5.015,212.457 -5.015,375.711 94.646,475.371 C98.442,479.168 98.442,484.862 94.646,488.659 C92.75,490.559 90.851,491.507 88.003,491.507 L88.003,491.507 Z" id="Shape" fill="#E6E6E6"></path>
            <path d="M796.678,490.98 C793.83,490.98 791.932,490.031 790.033,488.132 C786.236,484.335 786.236,478.641 790.033,474.844 C838.439,426.438 865.014,361.896 865.014,293.556 C865.014,225.219 838.439,160.674 790.033,112.269 C786.236,108.472 786.236,102.777 790.033,98.98 C793.83,95.184 799.525,95.184 803.322,98.98 C855.525,151.186 884,219.524 884,293.559 C884,367.592 855.525,435.931 803.322,488.134 C801.422,490.032 799.525,490.98 796.678,490.98 L796.678,490.98 Z" id="Shape" fill="#E6E6E6"></path>
            <path d="M128.817,451.644 C125.97,451.644 124.071,450.696 122.172,448.796 C36.748,363.372 36.748,224.797 122.172,140.322 C125.968,136.525 131.664,136.525 135.46,140.322 C139.256,144.118 139.256,149.812 135.46,153.609 C57.63,230.491 57.63,357.676 135.46,434.558 C139.256,438.356 139.256,444.05 135.46,447.846 C133.562,450.694 130.716,451.644 128.817,451.644 L128.817,451.644 Z" id="Shape" fill="#E6E6E6"></path>
            <path d="M756.812,451.117 C753.965,451.117 752.066,450.168 750.166,448.268 C746.371,444.472 746.371,438.778 750.166,434.981 C788.133,397.014 808.064,347.66 808.064,294.506 C808.064,241.353 787.182,191.048 750.166,154.03 C746.371,150.234 746.371,144.539 750.166,140.743 C753.963,136.946 759.658,136.946 763.455,140.743 C804.267,180.606 827.047,234.709 827.047,293.555 C827.047,351.453 804.268,406.503 763.455,448.266 C761.559,450.168 758.711,451.117 756.812,451.117 L756.812,451.117 Z" id="Shape" fill="#E6E6E6"></path>
            <path d="M168.682,410.83 C165.835,410.83 163.936,409.881 162.037,407.983 C99.392,345.337 99.392,242.83 162.037,180.186 C165.833,176.39 171.529,176.39 175.325,180.186 C179.121,183.982 179.121,189.677 175.325,193.474 C120.275,248.525 120.275,339.643 175.325,394.695 C179.121,398.491 179.121,404.185 175.325,407.983 C173.428,409.881 171.529,410.83 168.682,410.83 L168.682,410.83 Z" id="Shape" fill="#E6E6E6"></path>
            <path d="M716,410.304 C713.152,410.304 711.254,409.356 709.355,407.457 C705.557,403.66 705.557,397.965 709.355,394.169 C764.406,339.118 764.406,247.999 709.355,192.948 C705.557,189.151 705.557,183.456 709.355,179.66 C713.152,175.864 718.846,175.864 722.641,179.66 C785.287,242.305 785.287,344.812 722.641,407.457 C720.746,409.354 718.848,410.304 716,410.304 L716,410.304 Z" id="Shape" fill="#E6E6E6"></path>
            <rect id="_x3C_Slice_x3E_" x="271.501" y="289.006" width="362" height="107"></rect>
            <path d="M315.323,382.988 C315.323,380.139 316.272,378.243 318.17,376.343 C321.966,372.546 327.662,372.546 331.458,376.342 C386.509,431.394 477.628,431.394 532.679,376.343 C536.476,372.546 542.171,372.546 545.966,376.342 C549.762,380.139 549.762,385.835 545.966,389.63 C483.321,452.275 380.815,452.276 318.17,389.63 C316.271,387.735 315.323,385.837 315.323,382.988 L315.323,382.988 Z" id="Shape" fill="#E6E6E6"></path>
            <text id="+" fill="#E6E6E6" font-family="Helvetica" font-size="72" font-weight="normal">
                <tspan x="411" y="386">+</tspan>
            </text>
        </g>
    </g>
</svg>