<?xml version="1.0" encoding="utf-8"?>
<!-- Generator: Adobe Illustrator 21.0.2, SVG Export Plug-In . SVG Version: 6.00 Build 0)  -->
<svg version="1.1" id="Layer_1" xmlns="http://www.w3.org/2000/svg" xmlns:xlink="http://www.w3.org/1999/xlink" x="0px" y="0px"
	 viewBox="0 0 588 560" style="enable-background:new 0 0 588 560;" xml:space="preserve">
<style type="text/css">
	.st0{fill:#1822CD;}
</style>
<path class="st0" d="M297.4,10.2c-148.1,0-268.5,120.5-268.5,268.5s120.5,268.5,268.5,268.5c148.1,0,268.5-120.5,268.5-268.5
	S445.4,10.2,297.4,10.2z M297.4,524.3C162,524.3,51.8,414.1,51.8,278.8S162,33.2,297.4,33.2s245.5,110.1,245.5,245.5
	S432.7,524.3,297.4,524.3z"/>
<g>
	<path class="st0" d="M121.3,262.2c-7.5-0.5-13.1,5.1-12.6,12.6s7.1,14.1,14.7,14.7l42.8,3.4c3.8,0.3,7-1,9.3-3.2
		c2.3-2.3,3.6-5.5,3.2-9.3c-0.5-7.5-7.1-14.1-14.7-14.7L121.3,262.2z"/>
	<path class="st0" d="M199.9,327.5c-5.7-5.7-14.4-6.4-19.3-1.5l-27.8,27.8c-4.9,4.9-4.2,13.5,1.5,19.3c5.7,5.7,14.4,6.4,19.3,1.5
		l27.8-27.8C206.3,341.6,205.5,333.1,199.9,327.5z"/>
	<path class="st0" d="M228.3,363.1l3.4,42.8c0.5,7.5,7.1,14.1,14.7,14.7c3.8,0.3,7-1,9.3-3.2c2.3-2.3,3.6-5.5,3.2-9.3l-3.4-42.8
		c-0.5-7.5-7.1-14.1-14.7-14.7C233.3,349.9,227.7,355.5,228.3,363.1z"/>
</g>
<path class="st0" d="M192.5,236.1c4.9-4.9,4.2-13.5-1.5-19.3l-32.7-32.7c-5.7-5.7-14.4-6.4-19.3-1.5c-4.9,4.9-4.2,13.5,1.5,19.3
	l32.7,32.7C179.1,240.2,187.6,240.9,192.5,236.1z"/>
<path class="st0" d="M239.7,215.9c2.3-2.3,3.6-5.5,3.2-9.3l-3.5-42.7c-0.5-7.5-7.1-14.1-14.7-14.7c-7.5-0.5-13.1,5.1-12.6,12.6
	l3.4,42.8c0.5,7.5,7.1,14.1,14.7,14.7C234.2,219.5,237.4,218.2,239.7,215.9z"/>
<path class="st0" d="M242.3,300.4l101,101c6.9,6.9,18.3,7,25.3,0c6.9-7.1,6.9-18.4,0-25.3L295,302.5h189.1c10,0,17.9-8.1,17.9-17.9
	s-7.9-17.9-17.9-17.9H295l73.6-73.6c6.9-6.9,6.9-18.4,0-25.3c-6.9-6.9-18.3-7-25.3,0l-101,101c-4.3,4.3-5.6,10.2-4.7,15.7
	C236.7,290.2,238,296.1,242.3,300.4L242.3,300.4z"/>
<g id="Layer_2">
</g>
</svg>
