<?xml version="1.0" encoding="utf-8"?>
<!-- Generator: Adobe Illustrator 21.0.2, SVG Export Plug-In . SVG Version: 6.00 Build 0)  -->
<svg version="1.1" id="Layer_1" xmlns="http://www.w3.org/2000/svg" xmlns:xlink="http://www.w3.org/1999/xlink" x="0px" y="0px"
	 viewBox="0 0 630 630" style="enable-background:new 0 0 630 630;" xml:space="preserve">
<style type="text/css">
	.st0{fill:#B4B4B4;stroke:#B4B4B4;stroke-width:2;stroke-miterlimit:10;}
	.st1{fill:none;stroke:#B4B4B4;stroke-width:6;}
</style>
<title>Group 2</title>
<desc>Created with Sketch.</desc>
<g id="Group" transform="translate(126.000000, 126.000000)">
	<path id="Shape" class="st0" d="M354.3,24.7c-30.3-30.3-79.6-30.3-110,0L132.8,136.3c0,0,0,0,0,0L24.7,244.3
		c-30.3,30.3-30.3,79.6,0,110c15.2,15.2,35.1,22.7,55,22.7s39.8-7.6,55-22.7l111.5-111.5c0,0,0,0,0,0l108.1-108.1
		C384.6,104.4,384.6,55,354.3,24.7L354.3,24.7z M235.6,232.2L124.1,343.7c-24.5,24.5-64.3,24.5-88.8,0c-24.5-24.5-24.5-64.3,0-88.8
		l75.7-75.7c0,0.2-0.1,0.5-0.1,0.7c-2.1,14.2-0.1,29,5.5,42.1l0,0l-57,57c-11.2,11.2-11.2,29.4,0,40.6C64.8,325,72,328,79.7,328
		c7.7,0,14.9-3,20.3-8.4l105.5-105.5l2.6-2.6l3.5-3.5c11.2-11.2,11.2-29.4,0-40.6c-3.5-3.5-7.8-5.9-12.2-7.2l25.5-25.5
		c3.9,2.5,7.5,5.4,10.8,8.7c4.6,4.6,8.4,9.8,11.3,15.5C259.6,183.3,255.1,212.8,235.6,232.2L235.6,232.2z M123.9,235.6
		c2.6,3.8,5.6,7.3,8.9,10.6c3.3,3.3,6.8,6.2,10.6,8.9l-54,54c-5.4,5.4-14.1,5.4-19.5,0c-5.4-5.4-5.4-14.1,0-19.5L123.9,235.6
		L123.9,235.6z M178,201c-5.4-5.4-5.4-14.1,0-19.5l3.5-3.5c5.4-5.4,14.1-5.4,19.5,0c5.4,5.4,5.4,14.1,0,19.5l-3.5,3.5
		C192.1,206.3,183.4,206.3,178,201L178,201z M246.2,132.8c-3.3-3.3-6.8-6.2-10.6-8.9l54-54c5.4-5.4,14.1-5.4,19.5,0
		c5.4,5.4,5.4,14.1,0,19.5l-54,54C252.4,139.6,249.5,136.1,246.2,132.8L246.2,132.8z M343.7,124.1L268,199.8c0-0.2,0.1-0.5,0.1-0.7
		c2.1-14.2,0.1-29-5.5-42.1l0,0l57-57c11.2-11.2,11.2-29.4,0-40.6C314.2,54,307,51,299.3,51c-7.7,0-14.9,3-20.3,8.4L173.5,164.9
		l-2.6,2.6l-3.5,3.5c-11.2,11.2-11.2,29.4,0,40.6c3.5,3.5,7.8,5.9,12.2,7.2l-25.5,25.5c-3.9-2.5-7.5-5.4-10.8-8.7
		c-4.6-4.6-8.4-9.8-11.3-15.5c-12.6-24.4-8.1-53.9,11.3-73.3L254.9,35.3c24.5-24.5,64.3-24.5,88.8,0
		C368.2,59.8,368.2,99.6,343.7,124.1L343.7,124.1z"/>
	<path id="Shape_1_" class="st0" d="M223.8,80.4l-75.4,75.4c-2.9,2.9-2.9,7.6,0,10.6c1.5,1.5,3.4,2.2,5.3,2.2c1.9,0,3.8-0.7,5.3-2.2
		l75.4-75.4c2.9-2.9,2.9-7.6,0-10.6C231.5,77.5,226.7,77.5,223.8,80.4L223.8,80.4z"/>
</g>
<circle id="Oval" class="st1" cx="316.3" cy="314.3" r="301.3"/>
</svg>
