<?xml version="1.0" encoding="utf-8"?>
<!-- Generator: Adobe Illustrator 16.0.0, SVG Export Plug-In . SVG Version: 6.00 Build 0)  -->
<!DOCTYPE svg PUBLIC "-//W3C//DTD SVG 1.1//EN" "http://www.w3.org/Graphics/SVG/1.1/DTD/svg11.dtd">
<svg version="1.1" id="Layer_1" xmlns:xl="http://www.w3.org/1999/xlink"
	 xmlns="http://www.w3.org/2000/svg" xmlns:xlink="http://www.w3.org/1999/xlink" x="0px" y="0px" width="204.746px"
	 height="206.9px" viewBox="0 0 204.746 206.9" enable-background="new 0 0 204.746 206.9" xml:space="preserve">
<title>Layer 1</title>
<title>Canvas 4</title>
<title>Layer 1</title>
<path opacity="0.6" fill="none" stroke="#E6E6E6" stroke-width="3" stroke-linecap="round" stroke-linejoin="round" enable-background="new    " d="
	M101.995,201.924L101.995,201.924c-53.267,0-96.631-43.36-96.631-96.629c0-53.271,43.364-96.632,96.631-96.632
	c53.269,0,96.629,43.362,96.629,96.632C198.625,158.561,155.264,201.924,101.995,201.924z"/>
<g>
	<path fill="#E6E6E6" d="M160.75,71.931h-4.104v-5.553c0-1.243-1.009-2.251-2.252-2.251h-19.699c-1.243,0-2.252,1.008-2.252,2.251
		v5.553h-5.049l-3.14-14c-0.231-1.03-1.144-1.759-2.197-1.759H85.071c-1.053,0-1.966,0.729-2.197,1.759l-3.14,14h-12.77v-8.555
		c0-1.243-1.008-2.251-2.251-2.251h-9.006c-1.243,0-2.251,1.008-2.251,2.251v8.556h-7.076c-1.243,0-2.251,1.005-2.251,2.251v74.292
		c0,1.246,1.009,2.252,2.251,2.252H160.75c1.242,0,2.251-1.006,2.251-2.252V74.183C163.001,72.937,161.992,71.931,160.75,71.931z
		 M136.947,68.63h15.195v3.303h-15.195V68.63z M57.958,65.628h4.503v6.304h-4.503V65.628z M48.631,93.093h30.941
		c-3.86,5.068-6.157,11.39-6.157,18.236c0,7.904,3.06,15.106,8.051,20.488H48.631V93.093z M103.565,85.681
		c14.14,0,25.646,11.506,25.646,25.648c0,14.143-11.506,25.648-25.646,25.648c-14.142,0-25.648-11.506-25.648-25.648
		C77.917,97.187,89.424,85.681,103.565,85.681z M158.498,146.223H48.631v-9.903h38.085c4.812,3.258,10.612,5.16,16.85,5.16
		c6.235,0,12.034-1.902,16.847-5.16h38.086V146.223L158.498,146.223z M158.498,131.817h-32.835
		c4.992-5.382,8.052-12.584,8.052-20.488c0-6.847-2.297-13.168-6.158-18.236h30.941V131.817z M158.498,88.59H123.34
		c-5.296-4.614-12.215-7.412-19.774-7.412c-7.561,0-14.478,2.797-19.776,7.412H48.631V76.435h32.904
		c1.054,0,1.966-0.732,2.198-1.759l3.14-14.001h33.384l3.141,14.001c0.23,1.027,1.144,1.759,2.197,1.759h32.903L158.498,88.59
		L158.498,88.59L158.498,88.59z"/>
	<path fill="#E6E6E6" d="M118.248,65.436c-0.23-1.03-1.144-1.759-2.197-1.759H91.078c-1.053,0-1.966,0.729-2.197,1.759l-1.849,8.252
		c-0.15,0.669,0.012,1.369,0.438,1.9c0.426,0.535,1.075,0.847,1.756,0.847h28.678c0.681,0,1.329-0.312,1.756-0.847
		c0.43-0.531,0.589-1.23,0.441-1.9L118.248,65.436z M92.039,71.931l0.844-3.752h21.363l0.845,3.752H92.039z"/>
</g>
</svg>
