<?xml version="1.0" encoding="utf-8"?>
<!-- Generator: Adobe Illustrator 16.0.0, SVG Export Plug-In . SVG Version: 6.00 Build 0)  -->
<!DOCTYPE svg PUBLIC "-//W3C//DTD SVG 1.1//EN" "http://www.w3.org/Graphics/SVG/1.1/DTD/svg11.dtd">
<svg version="1.1" id="Layer_1" xmlns:xl="http://www.w3.org/1999/xlink"
	 xmlns="http://www.w3.org/2000/svg" xmlns:xlink="http://www.w3.org/1999/xlink" x="0px" y="0px" width="273px" height="227px"
	 viewBox="-117 -102 273 227" enable-background="new -117 -102 273 227" xml:space="preserve">
<title>Canvas 4</title>
<title>Layer 1</title>
<polygon fill="#E6E6E6" points="-71.752,-91.897 -71.752,-50.536 -2.827,-50.536 -2.827,114.897 38.541,114.897 38.541,-50.544 
	107.475,-50.544 107.475,-91.897 "/>
<polygon fill="#E6E6E6" stroke="#E6E6E6" stroke-miterlimit="10" points="-95,-10.677 -72.835,-10.677 -72.835,41.046 
	-50.666,41.046 -50.666,-10.677 -28.501,-10.677 -28.501,-32.837 -95,-32.837 "/>
<polygon fill="#E6E6E6" points="66.428,-10.677 88.593,-10.677 88.593,41.046 110.763,41.046 110.763,-10.677 132.927,-10.677 
	132.927,-32.837 66.428,-32.837 "/>
<g>
	<circle fill="#E6E6E6" stroke="#E6E6E6" stroke-miterlimit="10" cx="19.5" cy="44.732" r="43.595"/>
	<g>
		<g>
			<path fill="#E6E6E6" stroke="#0C6BEB" stroke-miterlimit="10" d="M19.498-15.956c-32.221,0-58.341,26.121-58.341,58.344
				c0,32.221,26.12,58.344,58.341,58.344c32.222,0,58.346-26.123,58.346-58.344C77.844,10.166,51.72-15.956,19.498-15.956z
				 M41.506,64.625c-2.326,2.327-6.101,2.327-8.429,0L19.801,51.348L5.921,65.229c-2.329,2.327-6.104,2.327-8.43,0
				c-2.329-2.331-2.329-6.104,0-8.433l13.88-13.879L-1.551,29.993c-2.33-2.329-2.33-6.101,0-8.428c2.326-2.329,6.102-2.329,8.431,0
				l12.921,12.919L32.12,22.165c2.326-2.326,6.104-2.326,8.43,0c2.329,2.332,2.329,6.106,0,8.433L28.233,42.917l13.275,13.275
				C43.835,58.52,43.838,62.297,41.506,64.625z"/>
		</g>
	</g>
</g>
</svg>
