<?xml version="1.0" encoding="utf-8"?>
<!-- Generator: Adobe Illustrator 16.0.0, SVG Export Plug-In . SVG Version: 6.00 Build 0)  -->
<!DOCTYPE svg PUBLIC "-//W3C//DTD SVG 1.1//EN" "http://www.w3.org/Graphics/SVG/1.1/DTD/svg11.dtd">
<svg version="1.1" id="Layer_1" xmlns:xl="http://www.w3.org/1999/xlink"
	 xmlns="http://www.w3.org/2000/svg" xmlns:xlink="http://www.w3.org/1999/xlink" x="0px" y="0px" width="94px" height="97px"
	 viewBox="0 0 94 97" enable-background="new 0 0 94 97" xml:space="preserve">
<title>Canvas 1</title>
<title>Layer 1</title>
<g>
	<path fill="#0C6BEB" d="M63.463,48.611c-0.062,0.28-0.232,0.509-0.471,0.65l-1.291,0.719c-0.326,0.183-0.729,0.164-1.043-0.059
		l-1.299-0.889l-1.377,0.904c-0.168,0.109-0.355,0.164-0.545,0.164c-0.168,0-0.322-0.045-0.463-0.119l-1.453-0.779
		c-0.238-0.135-0.428-0.366-0.486-0.644c-0.067-0.276-0.006-0.56,0.168-0.798l3.193-4.521c0.184-0.254,0.48-0.415,0.809-0.422
		c0.312,0,0.619,0.148,0.805,0.416l3.308,4.588C63.465,48.058,63.529,48.338,63.463,48.611 M41.518,55.928
		c-0.061,0.279-0.234,0.512-0.47,0.646l-1.294,0.721c-0.332,0.188-0.729,0.162-1.047-0.051l-1.295-0.898l-1.378,0.904
		c-0.171,0.109-0.348,0.172-0.544,0.172c-0.161,0-0.318-0.043-0.474-0.123L33.58,56.52c-0.248-0.135-0.432-0.367-0.492-0.646
		c-0.064-0.274-0.006-0.57,0.154-0.796l3.207-4.521c0.188-0.268,0.477-0.432,0.809-0.432c0.315,0,0.615,0.16,0.805,0.418
		l3.305,4.596C41.524,55.367,41.586,55.656,41.518,55.928 M58.156,38.14L45.511,55.367l-7.239-9.869
		c-0.25-0.338-0.641-0.548-1.062-0.548c-0.434,0-0.824,0.202-1.072,0.548L19.934,67.574c-0.019,0.025-0.012,0.061-0.031,0.08h50.232
		c2.93,0,5.309-2.376,5.309-5.304v-3.532L60.268,38.137C59.781,37.467,58.651,37.467,58.156,38.14"/>
	<path fill="#0C6BEB" d="M22.041,33.61l-0.563,1.458c-0.028,0.074-0.022,0.165,0.02,0.232c0.038,0.067,0.106,0.119,0.187,0.132
		l1.553,0.245l0.24,1.549c0.014,0.08,0.064,0.151,0.129,0.189c0.071,0.042,0.155,0.052,0.232,0.02l1.465-0.563l0.979,1.214
		c0.053,0.064,0.123,0.097,0.207,0.097c0.077,0,0.16-0.038,0.205-0.097l0.982-1.214l1.463,0.563c0.066,0.032,0.154,0.022,0.225-0.02
		c0.068-0.045,0.119-0.109,0.129-0.189l0.244-1.549l1.556-0.245c0.074-0.013,0.148-0.064,0.187-0.132
		c0.045-0.067,0.052-0.154,0.023-0.232l-0.567-1.458l1.214-0.981c0.062-0.059,0.094-0.129,0.094-0.213
		c0-0.078-0.039-0.158-0.094-0.207l-1.214-0.979l0.567-1.461c0.028-0.074,0.021-0.165-0.023-0.236
		c-0.041-0.064-0.109-0.115-0.187-0.131l-1.556-0.245l-0.244-1.549c-0.01-0.077-0.061-0.148-0.129-0.187
		c-0.07-0.043-0.158-0.049-0.225-0.02l-1.463,0.566l-0.982-1.217c-0.105-0.126-0.314-0.126-0.424,0l-0.979,1.217l-1.458-0.566
		c-0.074-0.029-0.168-0.023-0.229,0.02c-0.068,0.041-0.119,0.109-0.133,0.187l-0.248,1.549l-1.549,0.245
		c-0.084,0.016-0.154,0.064-0.193,0.131c-0.041,0.071-0.048,0.158-0.016,0.236l0.566,1.461l-1.214,0.979
		c-0.064,0.055-0.1,0.129-0.1,0.207c0,0.08,0.038,0.16,0.1,0.213L22.041,33.61z"/>
	<path fill="#0C6BEB" d="M88.934,7.299L88.934,7.299c0,0.318-0.255,0.57-0.57,0.57H82.86c-0.312,0-0.57-0.252-0.57-0.57V3.447
		c0-0.318,0.258-0.576,0.57-0.576h5.503c0.315,0,0.57,0.258,0.57,0.576V7.299z M88.934,17.938L88.934,17.938
		c0,0.315-0.255,0.57-0.57,0.57H82.86c-0.312,0-0.57-0.258-0.57-0.57v-3.861c0-0.312,0.258-0.569,0.57-0.569h5.503
		c0.315,0,0.57,0.258,0.57,0.569V17.938z M88.934,28.573L88.934,28.573c0,0.315-0.255,0.573-0.57,0.573H82.86
		c-0.312,0-0.57-0.258-0.57-0.573v-3.857c0-0.315,0.258-0.567,0.57-0.567h5.503c0.315,0,0.57,0.252,0.57,0.567V28.573z
		 M88.934,39.205L88.934,39.205c0,0.316-0.255,0.57-0.57,0.57H82.86c-0.312,0-0.57-0.258-0.57-0.57v-3.857
		c0-0.314,0.258-0.569,0.57-0.569h5.503c0.315,0,0.57,0.255,0.57,0.569V39.205z M88.934,49.842L88.934,49.842
		c0,0.314-0.255,0.569-0.57,0.569H82.86c-0.312,0-0.57-0.251-0.57-0.569v-3.857c0-0.316,0.258-0.574,0.57-0.574h5.503
		c0.315,0,0.57,0.258,0.57,0.574V49.842z M88.934,60.477L88.934,60.477c0,0.316-0.255,0.57-0.57,0.57H82.86
		c-0.312,0-0.57-0.258-0.57-0.57v-3.86c0-0.315,0.258-0.569,0.57-0.569h5.503c0.315,0,0.57,0.257,0.57,0.569V60.477z M88.934,71.109
		L88.934,71.109c0,0.318-0.255,0.573-0.57,0.573H82.86c-0.312,0-0.57-0.258-0.57-0.573v-3.857c0-0.315,0.258-0.57,0.57-0.57h5.503
		c0.315,0,0.57,0.251,0.57,0.57V71.109z M88.934,81.752L88.934,81.752c0,0.315-0.255,0.569-0.57,0.569H82.86
		c-0.312,0-0.57-0.261-0.57-0.569v-3.858c0-0.315,0.258-0.569,0.57-0.569h5.503c0.315,0,0.57,0.248,0.57,0.569V81.752z
		 M88.934,92.378L88.934,92.378c0,0.315-0.255,0.569-0.57,0.569H82.86c-0.312,0-0.57-0.254-0.57-0.569V88.52
		c0-0.315,0.258-0.569,0.57-0.569h5.503c0.315,0,0.57,0.261,0.57,0.569V92.378z M77.898,64.479v0.341
		c0,2.859-2.271,5.185-5.104,5.281H40.713h-19.5C18.37,69.998,16.1,67.68,16.1,64.82V28.928c0-2.934,2.377-5.307,5.307-5.307h51.186
		c2.937,0,5.307,2.373,5.307,5.307V64.479z M11.715,7.299L11.715,7.299c0,0.318-0.258,0.57-0.574,0.57H5.639
		c-0.316,0-0.57-0.252-0.57-0.57V3.447c0-0.318,0.248-0.576,0.57-0.576h5.502c0.316,0,0.574,0.258,0.574,0.576V7.299z
		 M11.715,17.938L11.715,17.938c0,0.315-0.258,0.57-0.574,0.57H5.639c-0.316,0-0.57-0.258-0.57-0.57v-3.861
		c0-0.312,0.248-0.569,0.57-0.569h5.502c0.316,0,0.574,0.258,0.574,0.569V17.938z M11.715,28.573L11.715,28.573
		c0,0.315-0.258,0.573-0.574,0.573H5.639c-0.316,0-0.57-0.258-0.57-0.573v-3.857c0-0.315,0.248-0.567,0.57-0.567h5.502
		c0.316,0,0.574,0.252,0.574,0.567V28.573z M11.715,39.205L11.715,39.205c0,0.316-0.258,0.57-0.574,0.57H5.639
		c-0.316,0-0.57-0.258-0.57-0.57v-3.857c0-0.314,0.248-0.569,0.57-0.569h5.502c0.316,0,0.574,0.255,0.574,0.569V39.205z
		 M11.715,49.842L11.715,49.842c0,0.314-0.258,0.569-0.574,0.569H5.639c-0.316,0-0.57-0.251-0.57-0.569v-3.857
		c0-0.316,0.248-0.574,0.57-0.574h5.502c0.316,0,0.574,0.258,0.574,0.574V49.842z M11.715,60.477L11.715,60.477
		c0,0.316-0.258,0.57-0.574,0.57H5.639c-0.316,0-0.57-0.258-0.57-0.57v-3.86c0-0.315,0.248-0.569,0.57-0.569h5.502
		c0.316,0,0.574,0.257,0.574,0.569V60.477z M11.715,71.109L11.715,71.109c0,0.318-0.258,0.573-0.574,0.573H5.639
		c-0.316,0-0.57-0.258-0.57-0.573v-3.857c0-0.315,0.248-0.57,0.57-0.57h5.502c0.316,0,0.574,0.251,0.574,0.57V71.109z
		 M11.715,81.752L11.715,81.752c0,0.315-0.258,0.569-0.574,0.569H5.639c-0.316,0-0.57-0.261-0.57-0.569v-3.858
		c0-0.315,0.248-0.569,0.57-0.569h5.502c0.316,0,0.574,0.248,0.574,0.569V81.752z M11.715,92.378L11.715,92.378
		c0,0.315-0.258,0.569-0.574,0.569H5.639c-0.316,0-0.57-0.254-0.57-0.569V88.52c0-0.315,0.248-0.569,0.57-0.569h5.502
		c0.316,0,0.574,0.261,0.574,0.569V92.378z M77.918,96h15.391V1H77.904v8.562c0,2.934-2.369,5.31-5.307,5.31H21.413
		c-2.931,0-5.307-2.376-5.307-5.31V1H0.692v95h15.411V84.18c0-2.863,2.27-5.188,5.116-5.291h51.585
		c2.846,0.109,5.113,2.428,5.113,5.291V96z"/>
</g>
</svg>
