<?xml version="1.0" encoding="utf-8"?>
<!-- Generator: Adobe Illustrator 16.0.0, SVG Export Plug-In . SVG Version: 6.00 Build 0)  -->
<!DOCTYPE svg PUBLIC "-//W3C//DTD SVG 1.1//EN" "http://www.w3.org/Graphics/SVG/1.1/DTD/svg11.dtd">
<svg version="1.1" id="Layer_1" xmlns:xl="http://www.w3.org/1999/xlink"
	 xmlns="http://www.w3.org/2000/svg" xmlns:xlink="http://www.w3.org/1999/xlink" x="0px" y="0px" width="45px" height="45px"
	 viewBox="0 0 45 45" enable-background="new 0 0 45 45" xml:space="preserve">
<g>
	<title>Canvas 4</title>
	<g>
		<title>Layer 1</title>
		<path fill="#E6E6E6" stroke="#E6E6E6" stroke-width="2" stroke-miterlimit="10" d="M22.5,42.5c-11.116,0-20.001-8.885-20.001-20
			c0-11.116,8.885-20,20.001-20c11.115,0,20,8.884,20,20C42.5,33.615,33.615,42.5,22.5,42.5 M22.5,0.5
			c-12.15,0-22.001,9.85-22.001,22c0,12.149,9.851,22,22.001,22c12.149,0,22-9.851,22-22C44.5,10.35,34.649,0.5,22.5,0.5"/>
		<path fill="#E6E6E6" stroke="#E6E6E6" stroke-width="2" stroke-miterlimit="10" d="M23.5,11.5h-2v10h-10v2h10v10h2v-10h10v-2h-10
			V11.5z"/>
	</g>
</g>
</svg>
