<?xml version="1.0" encoding="utf-8"?>
<!-- Generator: Adobe Illustrator 21.0.2, SVG Export Plug-In . SVG Version: 6.00 Build 0)  -->
<svg version="1.1" id="Layer_1" xmlns="http://www.w3.org/2000/svg" xmlns:xlink="http://www.w3.org/1999/xlink" x="0px" y="0px"
	 viewBox="0 0 198 197" style="enable-background:new 0 0 198 197;" xml:space="preserve">
<style type="text/css">
	.st0{fill:none;stroke:#E6E6E6;stroke-miterlimit:10;}
	.st1{fill:#E6E6E6;}
</style>
<title>Slice 1</title>
<desc>Created with Sketch.</desc>
<path id="Shape" class="st0" d="M99,189.9L99,189.9c-50.4,0-91.4-41.1-91.4-91.4c0-50.4,41-91.4,91.4-91.4s91.4,41.1,91.4,91.4
	C190.4,148.9,149.4,189.9,99,189.9L99,189.9z"/>
<path class="st1" d="M142.4,89.5v10.9c0,22.1-16.6,40.4-38,43.1v11.2h16.3c3,0,5.4,2.5,5.4,5.4c0,3-2.5,5.4-5.4,5.4H77.3
	c-3,0-5.4-2.5-5.4-5.4c0-3,2.5-5.4,5.4-5.4h16.3v-11.2c-21.4-2.7-38-20.9-38-43.1V89.5c0-3,2.5-5.4,5.4-5.4s5.4,2.5,5.4,5.4v10.9
	c0,18,14.6,32.6,32.6,32.6s32.6-14.6,32.6-32.6V89.5c0-3,2.5-5.4,5.4-5.4C140,84.1,142.4,86.5,142.4,89.5z M99,35.3
	C87,35.3,77.3,45,77.3,57v43.4c0,12,9.7,21.7,21.7,21.7s21.7-9.7,21.7-21.7V57C120.7,44.9,111,35.3,99,35.3z M99,111.2
	c-6,0-10.9-4.8-10.9-10.9V57c0-6,4.8-10.9,10.9-10.9c6.1,0,10.9,4.8,10.9,10.9v43.4C109.9,106.4,105,111.2,99,111.2z"/>
</svg>
