<?xml version="1.0" encoding="utf-8"?>
<!-- Generator: Adobe Illustrator 16.0.0, SVG Export Plug-In . SVG Version: 6.00 Build 0)  -->
<!DOCTYPE svg PUBLIC "-//W3C//DTD SVG 1.1//EN" "http://www.w3.org/Graphics/SVG/1.1/DTD/svg11.dtd">
<svg version="1.1" id="Layer_1" xmlns:xl="http://www.w3.org/1999/xlink"
	 xmlns="http://www.w3.org/2000/svg" xmlns:xlink="http://www.w3.org/1999/xlink" x="0px" y="0px" width="204.745px"
	 height="206.9px" viewBox="0 0 204.745 206.9" enable-background="new 0 0 204.745 206.9" xml:space="preserve">
<title>Layer 1</title>
<title>Canvas 4</title>
<title>Layer 1</title>
<path opacity="0.6" fill="none" stroke="#E6E6E6" stroke-width="3" stroke-linecap="round" stroke-linejoin="round" d="
	M101.995,201.924L101.995,201.924c-53.267,0-96.631-43.362-96.631-96.629c0-53.271,43.364-96.632,96.631-96.632
	c53.269,0,96.63,43.362,96.63,96.632C198.625,158.561,155.263,201.924,101.995,201.924z"/>
<g>
	<path fill="#E6E6E6" stroke="#E6E6E6" stroke-width="2" stroke-miterlimit="10" d="M101.987,77.423
		c-8.172,0-14.822,6.645-14.822,14.815c0,8.171,6.649,14.819,14.822,14.819c8.172,0,14.822-6.648,14.822-14.819
		C116.809,84.068,110.159,77.423,101.987,77.423z M101.987,102.823c-5.849,0-10.587-4.735-10.587-10.584
		c0-5.841,4.738-10.581,10.587-10.581c5.848,0,10.587,4.739,10.587,10.581C112.574,98.084,107.834,102.823,101.987,102.823z"/>
	<path fill="#E6E6E6" stroke="#E6E6E6" stroke-width="2" stroke-miterlimit="10" d="M101.987,49.889
		c-23.386,0-42.347,18.965-42.347,42.349c0,7.721,2.074,14.943,5.689,21.177l36.658,63.521l36.657-63.521
		c3.61-6.233,5.69-13.453,5.69-21.177C144.334,68.855,125.375,49.889,101.987,49.889z M134.975,111.297l-32.988,57.166
		L68.99,111.292c-3.346-5.786-5.116-12.372-5.116-19.054c0-21.016,17.095-38.114,38.113-38.114
		c21.018,0,38.113,17.098,38.113,38.114C140.1,98.92,138.33,105.506,134.975,111.297z"/>
</g>
</svg>
