<?xml version="1.0" encoding="utf-8"?>
<!-- Generator: Adobe Illustrator 21.0.2, SVG Export Plug-In . SVG Version: 6.00 Build 0)  -->
<svg version="1.1" id="Layer_1" xmlns="http://www.w3.org/2000/svg" xmlns:xlink="http://www.w3.org/1999/xlink" x="0px" y="0px"
	 viewBox="0 0 198 197" style="enable-background:new 0 0 198 197;" xml:space="preserve">
<style type="text/css">
	.st0{fill:none;stroke:#1822CD;stroke-miterlimit:10;}
	.st1{fill:#1822CD;stroke:#1822CD;stroke-miterlimit:10;}
</style>
<title>Slice 1</title>
<desc>Created with Sketch.</desc>
<path id="Shape" class="st0" d="M98.5,187.3L98.5,187.3C49,187.3,8.7,147,8.7,97.5S49,7.7,98.5,7.7s89.8,40.3,89.8,89.8
	S148,187.3,98.5,187.3L98.5,187.3z"/>
<g>
	<g>
		<path class="st1" d="M128.3,53.1L72,52.8c-4.6,0-8.3,4.6-8.3,10.3l-0.3,65.2c-0.1,5.7,3.6,10.4,8.2,10.4l56.3,0.3
			c4.6,0,8.3-4.6,8.3-10.3l0.3-65.1C136.4,57.7,132.9,53.1,128.3,53.1z M110.7,68.5c4.4,0,7.9,4.6,7.9,10.1c0,5.6-3.6,10-8,9.9
			c-4.4,0-7.9-4.6-7.9-10.1C102.7,73,106.4,68.5,110.7,68.5z M125.3,129.4l-25.4-0.1l-24.5-0.1c-2.2,0-3.1-2.1-2.1-4.5l13.7-34
			c1-2.4,2.9-2.8,4.2-0.4l13.7,22.5c1.5,2.2,3.6,2.4,5.1,0.4l3.3-4.3c1.5-1.9,3.7-1.8,5,0.5l8.7,15.7
			C128.3,127.4,127.5,129.4,125.3,129.4z"/>
	</g>
	<g>
		<path class="st1" d="M152.5,142.1c0.1-1.2-0.6-2-1.6-2.5c-1-0.3-1.9,0.3-1.9,1.5c-0.9,10.4-9.5,16.6-19.4,13.8
			c-1-0.3-1.9,0.3-1.9,1.5c0,0.4,0,1,0.4,1.4c0.2,0.3,0.7,0.7,1.1,1C140.9,161.9,151.3,154.7,152.5,142.1z"/>
		<path class="st1" d="M144.2,138.3c0.1-1.2-0.6-2-1.6-2.5c-1-0.3-1.9,0.3-1.9,1.5c-0.2,3.1-1.6,5.6-3.7,7.2c-2.2,1.6-4.9,2-8,1.3
			c-1-0.3-1.9,0.3-1.9,1.5c0,0.4,0,1,0.4,1.4c0.3,0.4,0.7,1,1.5,1.2c3.8,1,7.5,0.3,10.6-1.7C142.2,145.7,143.9,142.6,144.2,138.3z"
			/>
	</g>
	<g>
		<path class="st1" d="M44.2,59.9c0.1,1.1,1.1,1.8,2.2,1.8c1.1,0,1.8-0.7,1.5-1.9c-2-10.3,4.7-18.6,14.9-18.8c1.1,0,1.8-0.7,1.5-1.9
			c-0.1-0.5-0.3-1-0.9-1.3c-0.3-0.3-1-0.5-1.2-0.6C49.6,37.6,41.7,47.6,44.2,59.9z"/>
		<path class="st1" d="M53.1,61.3c0.1,1.1,1.1,1.8,2.2,1.8c1.1,0,1.8-0.7,1.5-1.9c-0.7-3-0.1-5.8,1.6-7.8c1.7-2,4.3-3.4,7.4-3.3
			c1.1,0,1.8-0.7,1.5-1.9c-0.1-0.5-0.3-1-0.9-1.3c-0.4-0.3-1.1-0.6-1.5-0.6c-4.1,0.1-7.4,1.8-9.5,4.6C53.1,53.6,52.3,57.2,53.1,61.3
			z"/>
	</g>
</g>
</svg>
