<?xml version="1.0" encoding="utf-8"?>
<!-- Generator: Adobe Illustrator 21.0.2, SVG Export Plug-In . SVG Version: 6.00 Build 0)  -->
<svg version="1.1" id="Layer_1" xmlns="http://www.w3.org/2000/svg" xmlns:xlink="http://www.w3.org/1999/xlink" x="0px" y="0px"
	 viewBox="0 0 548.4 546.7" style="enable-background:new 0 0 548.4 546.7;" xml:space="preserve">
<style type="text/css">
	.st0{fill:#FF3300;}
	.st1{fill:#FF3300;stroke:#E6E6E6;stroke-width:0.75;stroke-miterlimit:10;}
</style>
<path class="st0" d="M272.7,6.5C124.6,6.5,4.2,127,4.2,275s120.5,268.5,268.5,268.5c148.1,0,268.5-120.5,268.5-268.5
	S420.7,6.5,272.7,6.5z M272.7,520.6c-135.4,0-245.6-110.2-245.6-245.5S137.3,29.5,272.7,29.5S518.2,139.6,518.2,275
	S408,520.6,272.7,520.6z"/>
<path class="st0" d="M246.7,291.3l88.5,88.5c6,6,16,6.1,22.2,0c6-6.2,6-16.1,0-22.2l-64.5-64.5h165.7c8.8,0,15.7-7.1,15.7-15.7
	s-6.9-15.7-15.7-15.7H292.9l64.5-64.5c6-6,6-16.1,0-22.2s-16-6.1-22.2,0l-88.5,88.5c-3.8,3.8-4.9,8.9-4.1,13.8
	C241.8,282.4,243,287.6,246.7,291.3L246.7,291.3z"/>
<g id="Layer_2">
</g>
<g>
	<path class="st0" d="M121.8,280.7c0.1,4.3-3.3,7.9-7.6,8.1L109,289c-4.3,0.1-7.9-3.3-8.1-7.6c-0.1-4.3,3.3-7.9,7.6-8.1l5.2-0.2
		C118.1,273,121.7,276.4,121.8,280.7z"/>
</g>
<g>
	<path class="st1" d="M199.4,278.3c0.1,4.3-3.3,7.9-7.6,8.1l-30.4,0.9c-4.3,0.1-7.9-3.3-8.1-7.6c-0.1-4.3,3.3-7.9,7.6-8.1l30.4-0.9
		C195.7,270.6,199.3,274,199.4,278.3z"/>
</g>
<g>
	<path class="st0" d="M154,422.6c0.1,2-0.6,4-2.1,5.6l-3.5,3.8c-2.9,3.2-7.9,3.3-11.1,0.4c-3.2-2.9-3.3-7.9-0.4-11.1l3.5-3.8
		c2.9-3.2,7.9-3.3,11.1-0.4C153.1,418.6,153.9,420.6,154,422.6z"/>
</g>
<g>
	<path class="st0" d="M207.2,366.1c0.1,2-0.6,4-2.1,5.6l-20.9,22.2c-3,3.1-7.9,3.3-11.1,0.3c-3.1-3-3.3-7.9-0.3-11.1l20.9-22.2
		c3-3.1,7.9-3.3,11.1-0.3C206.3,362.1,207.1,364.1,207.2,366.1z"/>
</g>
<g>
	<path class="st0" d="M145.4,137.1c0.1,2-0.6,4-2.1,5.6c-3,3.2-7.9,3.3-11.1,0.3l-3.8-3.6c-3.2-3-3.3-7.9-0.3-11.1
		c3-3.2,7.9-3.3,11.1-0.3l3.8,3.6C144.5,133.1,145.3,135.1,145.4,137.1z"/>
</g>
<g>
	<path class="st0" d="M201.9,190.2c0.1,2-0.6,4-2.1,5.6c-3,3.2-7.9,3.3-11.1,0.3l-22.2-20.8c-3.2-3-3.3-7.9-0.3-11.1
		c3-3.2,7.9-3.3,11.1-0.3l22.2,20.8C201,186.3,201.8,188.3,201.9,190.2z"/>
</g>
</svg>
