<?xml version="1.0" encoding="utf-8"?>
<!-- Generator: Adobe Illustrator 21.0.2, SVG Export Plug-In . SVG Version: 6.00 Build 0)  -->
<svg version="1.1" id="Layer_1" xmlns:xl="http://www.w3.org/1999/xlink"
	 xmlns="http://www.w3.org/2000/svg" xmlns:xlink="http://www.w3.org/1999/xlink" x="0px" y="0px" viewBox="0 0 600.1 888.1"
	 style="enable-background:new 0 0 600.1 888.1;" xml:space="preserve">
<style type="text/css">
	.st0{fill:#1822CD;}
	.st1{fill:none;stroke:#1822CD;stroke-width:9;stroke-miterlimit:10;}
</style>
<title>Layer 1</title>
<title>Canvas 4</title>
<title>Layer 1</title>
<g>
	<title>Canvas 1</title>
	<g>
		<title>Layer 1</title>
		<path class="st0" d="M139.2,464.4c-91-89.3-92.2-234.8-2.9-325.8s234.8-92.2,325.8-2.9s92.2,234.8,2.9,325.8
			C375.7,552,229.7,553.7,139.2,464.4 M325.9,574.9c63-5.7,124.3-32.6,171.8-81.3c107.1-108.8,105.4-284-3.4-391.1
			s-284-105.4-391.1,3.4s-105.4,284,3.4,391.1c48.7,48.1,110.5,73.9,173.5,78.5l2.9,288.6h45.8L325.9,574.9z"/>
	</g>
</g>
<ellipse class="st0" cx="218.7" cy="321.1" rx="16.7" ry="34.3"/>
<path class="st0" d="M405.7,316.7h-15v-13.4c-0.3-2.8-2.9-4.7-5.6-4.4c-2.3,0.3-4.1,2.1-4.4,4.4v13.4h-15c-2.5-0.3-4.7,1.5-5,4
	s1.5,4.7,4,5c0.3,0,0.7,0,1,0h15V339c0.3,2.8,2.9,4.7,5.6,4.4c2.3-0.3,4.1-2.1,4.4-4.4v-13.4h15c2.5,0.3,4.7-1.5,5-4s-1.5-4.7-4-5
	C406.4,316.6,406,316.6,405.7,316.7z"/>
<path class="st1" d="M225.8,385.4c0,0,22.8,47.3,78.7,46.8"/>
<path class="st1" d="M382.3,384c0,0-21.9,47.6-77.8,48.2"/>
<path class="st0" d="M428.8,156.5c-14.7-19.9-33.9-36.4-55.5-47.7C350.6,97,326.1,91,300.4,91c-25.8,0-50.5,6.1-73.3,18.1
	c-21.8,11.4-41,28.1-55.7,48.2c-20.7,28.5-31.7,62.4-31.7,98v176.9h43.6c-16.7-24.4-25.8-53.5-25.8-83.7v-76
	c-0.8,0.2-1.6,0.5-2.4,0.7c-4.1,1.2-8.4-1.2-9.6-5.4c-1.2-4.2,1.2-8.6,5.3-9.8c13.6-4,27.2-7.5,41-10.4c0.2-16.3,3.1-58.1,26.5-83.7
	c2.9-3.2,7.8-3.4,10.9-0.4c3.1,3,3.3,8,0.4,11.1c-18.2,19.9-21.7,53.8-22.2,69.9c12.5-2.2,25-4,37.5-5.4c0.2-17.9,5.5-44.4,6.2-47.8
	c0.9-4.3,5-7,9.1-6.1c4.2,0.9,6.8,5.1,6,9.3c-1.7,8.4-5.4,29.5-5.9,43.2c47.5-3.7,95.3-0.8,142.3,8.5c1.1-12.7,0.7-39-17-62.3
	c-2.6-3.4-2-8.4,1.4-11.1s8.2-2,10.8,1.4c21.9,28.8,21.7,60.7,20.1,75.2c10.8,2.5,21.6,5.3,32.2,8.5c4.1,1.2,6.4,5.6,5.3,9.8
	c-1,3.4-4.1,5.7-7.4,5.7c-0.7,0-1.4-0.1-2.2-0.3c-1-0.3-2-0.6-3-0.9v76.2c0,30.1-9.1,59.3-25.8,83.7h44.1V255.3
	C461.1,219.3,449.9,185.2,428.8,156.5z"/>
</svg>
