<?xml version="1.0" encoding="utf-8"?>
<!-- Generator: Adobe Illustrator 21.0.2, SVG Export Plug-In . SVG Version: 6.00 Build 0)  -->
<svg version="1.1" id="Capa_1" xmlns="http://www.w3.org/2000/svg" xmlns:xlink="http://www.w3.org/1999/xlink" x="0px" y="0px"
	 viewBox="0 0 360 425.4" style="enable-background:new 0 0 360 425.4;" xml:space="preserve">
<style type="text/css">
	.st0{fill:#E6E6E6;stroke:#E6E6E6;stroke-miterlimit:10;}
	.st1{fill:none;stroke:#E6E6E6;stroke-width:11;stroke-linecap:round;stroke-linejoin:round;}
</style>
<path class="st0" d="M264.3,112.4c0,6.3,8.1,9.9,12.6,5.2c2.9-2.8,2.9-7.7,0-10.4c-2.8-2.9-7.7-2.9-10.4,0
	C265.1,108.5,264.3,110.5,264.3,112.4z"/>
<path class="st0" d="M303.1,53.1L303.1,53.1C235-15,124.2-15,56.2,53.1C23.2,86,5,129.9,5,176.5S23.2,267,56.2,300l118.3,118.3
	c1.4,1.4,3.3,2.2,5.2,2.2s3.8-0.7,5.2-2.2L303.1,300c33-33,51.1-76.8,51.1-123.5S336.1,86,303.1,53.1z M292.7,289.6l-113,113
	l-113-113c-30.2-30.2-46.8-70.3-46.8-113s16.6-82.8,46.8-113c31.2-31.2,72.1-46.7,113-46.7s81.9,15.6,113,46.7
	c30.2,30.2,46.8,70.3,46.8,113S322.9,259.4,292.7,289.6z"/>
<g>
	<ellipse class="st0" cx="136" cy="200.1" rx="8.9" ry="18.3"/>
	<path class="st0" d="M235.8,197.8h-8v-7.2c-0.2-1.5-1.5-2.5-3-2.3c-1.2,0.2-2.2,1.1-2.3,2.3v7.2h-8c-1.3-0.2-2.5,0.8-2.7,2.1
		c-0.2,1.3,0.8,2.5,2.1,2.7c0.2,0,0.4,0,0.5,0h8v7.1c0.2,1.5,1.5,2.5,3,2.3c1.2-0.2,2.2-1.1,2.3-2.3v-7.2h8c1.3,0.2,2.5-0.8,2.7-2.1
		s-0.8-2.5-2.1-2.7C236.2,197.7,236,197.7,235.8,197.8z"/>
	<path class="st1" d="M139.8,234.5c0,0,12.2,25.2,42,25"/>
	<path class="st1" d="M223.3,233.7c0,0-11.7,25.4-41.5,25.7"/>
	<path class="st0" d="M248.2,112.3c-7.8-10.6-18.1-19.4-29.6-25.5c-12.1-6.3-25.2-9.5-38.9-9.5c-13.8,0-27,3.3-39.1,9.7
		c-11.6,6.1-21.9,15-29.7,25.7c-11,15.2-16.9,33.3-16.9,52.3v94.4h23.3c-8.9-13-13.8-28.6-13.8-44.7v-40.6c-0.4,0.1-0.9,0.3-1.3,0.4
		c-2.2,0.6-4.5-0.6-5.1-2.9c-0.6-2.2,0.6-4.6,2.8-5.2c7.3-2.1,14.5-4,21.9-5.6c0.1-8.7,1.7-31,14.1-44.7c1.5-1.7,4.2-1.8,5.8-0.2
		c1.7,1.6,1.8,4.3,0.2,5.9c-9.7,10.6-11.6,28.7-11.8,37.3c6.7-1.2,13.3-2.1,20-2.9c0.1-9.6,2.9-23.7,3.3-25.5
		c0.5-2.3,2.7-3.7,4.9-3.3c2.2,0.5,3.6,2.7,3.2,5c-0.9,4.5-2.9,15.7-3.1,23.1c25.4-2,50.9-0.4,75.9,4.5c0.6-6.8,0.4-20.8-9.1-33.3
		c-1.4-1.8-1.1-4.5,0.7-5.9s4.4-1.1,5.8,0.7c11.7,15.4,11.6,32.4,10.7,40.1c5.8,1.3,11.5,2.8,17.2,4.5c2.2,0.6,3.4,3,2.8,5.2
		c-0.5,1.8-2.2,3-3.9,3c-0.4,0-0.7-0.1-1.2-0.2c-0.5-0.2-1.1-0.3-1.6-0.5v40.7c0,16.1-4.9,31.6-13.8,44.7h23.5V165
		C265.4,145.8,259.4,127.6,248.2,112.3z"/>
</g>
<path class="st0" d="M289.6,128.8c-1.6-3.7-6-5.5-9.7-3.8s-5.5,6-3.8,9.7c8.3,19.1,10.7,40.1,7,60.7c-3.8,21.1-13.9,40.2-29.1,55.4
	c-19.8,19.8-46.2,30.8-74.3,30.8s-54.4-10.9-74.3-30.8c-19.8-19.8-30.8-46.2-30.8-74.3s10.9-54.4,30.8-74.3
	c19.5-19.5,45.5-30.5,73.1-30.8c27.5-0.3,53.7,10,73.7,29c2.9,2.8,7.6,2.7,10.4-0.2c2.8-2.9,2.7-7.6-0.2-10.4
	c-22.7-21.7-52.6-33.4-84-33.1c-31.5,0.3-61.1,12.8-83.4,35.1c-22.6,22.6-35.1,52.7-35.1,84.7s12.5,62.1,35.1,84.7
	c22.6,22.6,52.7,35.1,84.7,35.1s62.1-12.5,84.7-35.1c17.3-17.3,28.8-39.2,33.2-63.2C301.8,174.6,299,150.6,289.6,128.8z"/>
</svg>
