<?xml version="1.0" encoding="utf-8"?>
<!-- Generator: Adobe Illustrator 21.0.2, SVG Export Plug-In . SVG Version: 6.00 Build 0)  -->
<svg version="1.1" id="Layer_1" xmlns:xl="http://www.w3.org/1999/xlink"
	 xmlns="http://www.w3.org/2000/svg" xmlns:xlink="http://www.w3.org/1999/xlink" x="0px" y="0px" viewBox="0 0 214.5 206.9"
	 style="enable-background:new 0 0 214.5 206.9;" xml:space="preserve">
<style type="text/css">
	.st0{fill:none;stroke:#E6E6E6;stroke-miterlimit:10;}
	.st1{fill:#E6E6E6;}
	.st2{fill:none;stroke:#E6E6E6;stroke-width:12;stroke-linecap:round;stroke-miterlimit:10;}
</style>
<path class="st0" d="M106.3,203.7L106.3,203.7c-54,0-97.9-43.9-97.9-97.9S52.3,7.9,106.3,7.9s97.9,43.9,97.9,97.9
	C204.2,159.8,160.3,203.7,106.3,203.7z"/>
<title>Canvas 4</title>
<path class="st1" d="M112.7,130.3L143,93.2c2.1-2.5,2.1-6.7,0-9.3c-2.1-2.5-5.5-2.5-7.6,0l-22.1,27V41.6c0-3.7-2.4-6.6-5.4-6.6
	s-5.4,2.9-5.4,6.6V111L80.5,84c-2.1-2.5-5.5-2.5-7.6,0c-2.1,2.5-2.1,6.7,0,9.3l30.3,37.1c1.3,1.6,3.1,2.1,4.7,1.7
	C109.6,132.4,111.4,131.9,112.7,130.3L112.7,130.3z"/>
<line class="st2" x1="54.5" y1="151.6" x2="160.3" y2="151.6"/>
</svg>
