<?xml version="1.0" encoding="utf-8"?>
<!-- Generator: Adobe Illustrator 21.0.2, SVG Export Plug-In . SVG Version: 6.00 Build 0)  -->
<svg version="1.1" id="Layer_1" xmlns="http://www.w3.org/2000/svg" xmlns:xlink="http://www.w3.org/1999/xlink" x="0px" y="0px"
	 viewBox="0 0 198 197" style="enable-background:new 0 0 198 197;" xml:space="preserve">
<style type="text/css">
	.st0{fill:none;stroke:#E6E6E6;stroke-miterlimit:10;}
	.st1{fill:#E6E6E6;}
</style>
<title>Slice 1</title>
<desc>Created with Sketch.</desc>
<path id="Shape" class="st0" d="M98.5,187.3L98.5,187.3c-49.5,0-89.8-40.3-89.8-89.8C8.7,48,49,7.7,98.5,7.7s89.8,40.3,89.8,89.8
	C188.3,147,148,187.3,98.5,187.3L98.5,187.3z"/>
<g>
	<g>
		<path class="st1" d="M136.6,65.9L86.2,50.6c-4.1-1.2-8.7,1.9-10.2,7L58.3,116c-1.6,5.1,0.5,10.3,4.6,11.5l50.4,15.3
			c4.1,1.2,8.7-1.9,10.2-7l17.7-58.3C142.6,72.2,140.7,67.1,136.6,65.9z M116.7,75c3.9,1.2,5.9,6.2,4.4,11.2c-1.5,5-5.9,8-9.9,6.8
			c-3.9-1.2-5.9-6.2-4.4-11.2C108.3,76.9,112.8,73.8,116.7,75z M113.5,133.5l-22.8-6.9L68.8,120c-2-0.6-2.2-2.7-0.7-4.6l21.4-26.8
			c1.5-1.9,3.3-1.7,3.9,0.7l6.2,23.9c0.7,2.4,2.6,3.1,4.5,1.8l4.1-3c1.9-1.3,3.8-0.6,4.4,1.8l3.6,16.4
			C116.7,132.6,115.5,134.1,113.5,133.5z"/>
	</g>
	<g>
		<path class="st1" d="M134.5,152.2c0.4-1,0-2-0.8-2.6s-1.8-0.2-2.1,0.8c-3.5,9.1-13,12.3-21.1,7.2c-0.8-0.5-1.8-0.2-2.1,0.8
			c-0.1,0.4-0.3,0.9,0,1.4c0.1,0.3,0.5,0.9,0.7,1.2C118.8,166.9,130.1,163.2,134.5,152.2z"/>
		<path class="st1" d="M128,146.6c0.4-1,0-2-0.8-2.6c-0.8-0.5-1.8-0.2-2.1,0.8c-1,2.7-2.9,4.6-5.3,5.4c-2.4,0.8-5,0.5-7.5-1
			c-0.8-0.5-1.8-0.2-2.1,0.8c-0.1,0.4-0.3,0.9,0,1.4c0.2,0.5,0.4,1.1,1,1.4c3.2,1.9,6.6,2.3,9.9,1.3
			C124.2,152.7,126.6,150.3,128,146.6z"/>
	</g>
	<g>
		<path class="st1" d="M59.3,49.5c-0.2,1,0.5,1.9,1.5,2.2c1,0.3,1.8-0.2,1.8-1.3C63.5,40.6,71.8,35,81,37.5c1,0.3,1.8-0.2,1.8-1.3
			c0-0.5,0-0.9-0.4-1.4c-0.2-0.4-0.7-0.7-0.9-0.9C70.2,31,60.4,37.8,59.3,49.5z"/>
		<path class="st1" d="M66.9,53.1c-0.2,1,0.5,1.9,1.5,2.2c1,0.3,1.8-0.2,1.8-1.3c0.1-2.9,1.4-5.2,3.5-6.6c2.1-1.4,4.7-1.9,7.5-1
			c1,0.3,1.8-0.2,1.8-1.3c0-0.5,0-0.9-0.4-1.4c-0.3-0.4-0.8-0.9-1.2-1c-3.7-1-7.1-0.3-9.8,1.6C69,46.2,67.3,49.3,66.9,53.1z"/>
	</g>
</g>
</svg>
