<?xml version="1.0" encoding="utf-8"?>
<!-- Generator: Adobe Illustrator 16.0.0, SVG Export Plug-In . SVG Version: 6.00 Build 0)  -->
<!DOCTYPE svg PUBLIC "-//W3C//DTD SVG 1.1//EN" "http://www.w3.org/Graphics/SVG/1.1/DTD/svg11.dtd">
<svg version="1.1" id="Layer_1" xmlns:xl="http://www.w3.org/1999/xlink"
	 xmlns="http://www.w3.org/2000/svg" xmlns:xlink="http://www.w3.org/1999/xlink" x="0px" y="0px" width="204.746px"
	 height="206.9px" viewBox="0 0 204.746 206.9" enable-background="new 0 0 204.746 206.9" xml:space="preserve">
<title>Layer 1</title>
<title>Canvas 4</title>
<title>Layer 1</title>
<path opacity="0.6" fill="none" stroke="#E6E6E6" stroke-width="3" stroke-linecap="round" stroke-linejoin="round" enable-background="new    " d="
	M101.995,201.924L101.995,201.924c-53.267,0-96.631-43.36-96.631-96.629c0-53.271,43.364-96.632,96.631-96.632
	c53.269,0,96.629,43.362,96.629,96.632C198.625,158.561,155.264,201.924,101.995,201.924z"/>
<g>
	<path fill="#E6E6E6" stroke="#E6E6E6" stroke-miterlimit="10" d="M101.182,40.278c-25.05,0-45.362,20.315-45.362,45.364
		c0,8.271,2.224,16.007,6.096,22.687l39.266,68.041l39.267-68.041c3.867-6.679,6.095-14.412,6.095-22.687
		C146.543,60.593,126.232,40.278,101.182,40.278z M136.519,106.056l-35.337,61.235l-35.346-61.239
		c-3.583-6.197-5.479-13.252-5.479-20.411c0-22.513,18.312-40.828,40.825-40.828c22.514,0,40.825,18.314,40.825,40.828
		C142.007,92.8,140.112,99.855,136.519,106.056z"/>
	<g>
		<path fill="#E6E6E6" d="M122.485,80.968c-0.592-6.497-5.191-11.212-10.946-11.212c-3.831,0-7.343,2.064-9.318,5.372
			c-1.958-3.354-5.327-5.373-9.096-5.373c-5.755,0-10.351,4.713-10.943,11.211c-0.044,0.286-0.239,1.796,0.342,4.259
			c0.841,3.555,2.776,6.784,5.599,9.34l14.088,12.787l14.329-12.787c2.826-2.556,4.765-5.785,5.604-9.34
			C122.721,82.766,122.525,81.258,122.485,80.968z"/>
		<path fill="#FAFAFA" d="M94.551,76.035c-3.429,0-6.22,2.793-6.22,6.224c0,0.43-0.348,0.779-0.78,0.779
			c-0.43,0-0.779-0.35-0.779-0.779c0-4.286,3.49-7.777,7.779-7.777c0.43,0,0.78,0.348,0.78,0.782
			C95.331,75.692,94.98,76.035,94.551,76.035z"/>
	</g>
</g>
</svg>
