<?xml version="1.0"?>
<!DOCTYPE svg PUBLIC "-//W3C//DTD SVG 1.1//EN" "http://www.w3.org/Graphics/SVG/1.1/DTD/svg11.dtd">
<svg xmlns="http://www.w3.org/2000/svg" xmlns:xl="http://www.w3.org/1999/xlink" version="1.1" viewBox="76 298 86 86" width="86pt" height="86pt"><metadata xmlns:dc="http://purl.org/dc/elements/1.1/"><dc:date>2017-01-28 22:45Z</dc:date><!-- Produced by OmniGraffle Professional 5.4.2 --></metadata><defs></defs><g stroke="none" stroke-opacity="1" stroke-dasharray="none" fill="none" fill-opacity="1"><title>Canvas 1</title><g><title>Layer 1</title><circle cx="118.565385" cy="340.83616" r="32.500053" fill="#0080ff"/><path d="M 118.56525 300.28981 C 96.224203 300.28981 78.018886 318.49513 78.018886 340.83618 C 78.018886 363.17723 96.224203 381.38254 118.56525 381.38254 L 151.00234 381.38254 C 155.46244 381.38254 159.11161 377.73337 159.11161 373.27327 L 159.11161 340.83618 C 159.11161 318.49513 140.9063 300.28981 118.56525 300.28981 Z M 118.56525 373.27327 L 118.56525 373.27327 C 100.684303 373.27327 86.12816 358.71713 86.12816 340.83618 C 86.12816 322.95523 100.684303 308.39909 118.56525 308.39909 C 136.4462 308.39909 151.00234 322.95523 151.00234 340.83618 C 151.00234 358.71713 136.4462 373.27327 118.56525 373.27327 Z" fill="#e6e6e6"/><path d="M 118.56525 300.28981 C 96.224203 300.28981 78.018886 318.49513 78.018886 340.83618 C 78.018886 363.17723 96.224203 381.38254 118.56525 381.38254 L 151.00234 381.38254 C 155.46244 381.38254 159.11161 377.73337 159.11161 373.27327 L 159.11161 340.83618 C 159.11161 318.49513 140.9063 300.28981 118.56525 300.28981 Z M 118.56525 373.27327 L 118.56525 373.27327 C 100.684303 373.27327 86.12816 358.71713 86.12816 340.83618 C 86.12816 322.95523 100.684303 308.39909 118.56525 308.39909 C 136.4462 308.39909 151.00234 322.95523 151.00234 340.83618 C 151.00234 358.71713 136.4462 373.27327 118.56525 373.27327 Z" stroke="#e6e6e6" stroke-linecap="round" stroke-linejoin="round" stroke-width="1"/><text transform="translate(83.018886 330.83618)" fill="black"/><path d="M 134.816455 354.63147 L 128.954935 354.63147 L 128.954935 339.73155 C 128.954935 339.72147 128.950735 339.71223 128.949895 339.70215 C 128.946535 339.65847 128.938975 339.61647 128.923855 339.57531 C 128.918815 339.55935 128.915455 339.54507 128.908735 339.52995 C 128.884375 339.47787 128.854135 339.42831 128.812975 339.38715 L 123.419335 333.99351 L 134.816455 333.99351 Z M 127.978855 354.63147 L 127.978855 355.6084 L 127.978855 360.8584 L 102.315175 360.8584 L 102.315175 327.03915 L 108.175855 327.03915 L 109.151935 327.03915 L 114.798415 327.03915 L 114.798415 339.73155 C 114.798415 340.0012 115.016815 340.2196 115.286455 340.2196 L 127.978855 340.2196 Z M 109.151935 320.81223 L 121.635175 320.81223 L 121.635175 332.20935 L 115.631695 326.20587 C 115.589695 326.16303 115.540975 326.13363 115.489735 326.11011 C 115.473775 326.10255 115.458655 326.09919 115.442695 326.09331 C 115.401535 326.07987 115.361215 326.07147 115.319215 326.06979 C 115.307455 326.06811 115.298215 326.06307 115.287295 326.06307 L 109.151935 326.06307 Z M 122.016535 333.97167 L 127.288375 339.24351 L 115.775335 339.24351 L 115.775335 327.72963 L 121.532695 333.48615 L 121.657015 333.61215 C 121.699015 333.79275 121.835935 333.92967 122.016535 333.97167 M 122.612095 321.50271 L 128.369455 327.25923 L 134.125975 333.0166 L 122.612095 333.0166 Z M 135.786655 333.4744 C 135.783295 333.43155 135.776575 333.38955 135.761455 333.3484 C 135.755575 333.33327 135.752215 333.31815 135.745495 333.30303 C 135.721975 333.25095 135.691735 333.20223 135.649735 333.1594 L 122.469295 319.97895 C 122.427295 319.93695 122.377735 319.90755 122.326495 319.88319 C 122.311375 319.87647 122.296255 319.87227 122.279455 319.86723 C 122.239135 319.85295 122.198815 319.84455 122.155975 319.84203 C 122.145055 319.84119 122.134975 319.83615 122.124895 319.83615 L 108.663895 319.83615 C 108.394255 319.83615 108.175855 320.05455 108.175855 320.32503 L 108.175855 326.06307 L 101.826295 326.06307 C 101.556655 326.06307 101.338255 326.28147 101.338255 326.55111 L 101.338255 361.3481 C 101.338255 361.61775 101.556655 361.83615 101.826295 361.83615 L 128.466895 361.83615 C 128.737375 361.83615 128.954935 361.61775 128.954935 361.3481 L 128.954935 355.60923 L 135.304495 355.60923 C 135.574135 355.60923 135.792535 355.39083 135.792535 355.1212 L 135.792535 333.50463 C 135.792535 333.49455 135.787495 333.48531 135.786655 333.4744" fill="#e6e6e6"/><path d="M 134.816455 354.63147 L 128.954935 354.63147 L 128.954935 339.73155 C 128.954935 339.72147 128.950735 339.71223 128.949895 339.70215 C 128.946535 339.65847 128.938975 339.61647 128.923855 339.57531 C 128.918815 339.55935 128.915455 339.54507 128.908735 339.52995 C 128.884375 339.47787 128.854135 339.42831 128.812975 339.38715 L 123.419335 333.99351 L 134.816455 333.99351 Z M 127.978855 354.63147 L 127.978855 355.6084 L 127.978855 360.8584 L 102.315175 360.8584 L 102.315175 327.03915 L 108.175855 327.03915 L 109.151935 327.03915 L 114.798415 327.03915 L 114.798415 339.73155 C 114.798415 340.0012 115.016815 340.2196 115.286455 340.2196 L 127.978855 340.2196 Z M 109.151935 320.81223 L 121.635175 320.81223 L 121.635175 332.20935 L 115.631695 326.20587 C 115.589695 326.16303 115.540975 326.13363 115.489735 326.11011 C 115.473775 326.10255 115.458655 326.09919 115.442695 326.09331 C 115.401535 326.07987 115.361215 326.07147 115.319215 326.06979 C 115.307455 326.06811 115.298215 326.06307 115.287295 326.06307 L 109.151935 326.06307 Z M 122.016535 333.97167 L 127.288375 339.24351 L 115.775335 339.24351 L 115.775335 327.72963 L 121.532695 333.48615 L 121.657015 333.61215 C 121.699015 333.79275 121.835935 333.92967 122.016535 333.97167 M 122.612095 321.50271 L 128.369455 327.25923 L 134.125975 333.0166 L 122.612095 333.0166 Z M 135.786655 333.4744 C 135.783295 333.43155 135.776575 333.38955 135.761455 333.3484 C 135.755575 333.33327 135.752215 333.31815 135.745495 333.30303 C 135.721975 333.25095 135.691735 333.20223 135.649735 333.1594 L 122.469295 319.97895 C 122.427295 319.93695 122.377735 319.90755 122.326495 319.88319 C 122.311375 319.87647 122.296255 319.87227 122.279455 319.86723 C 122.239135 319.85295 122.198815 319.84455 122.155975 319.84203 C 122.145055 319.84119 122.134975 319.83615 122.124895 319.83615 L 108.663895 319.83615 C 108.394255 319.83615 108.175855 320.05455 108.175855 320.32503 L 108.175855 326.06307 L 101.826295 326.06307 C 101.556655 326.06307 101.338255 326.28147 101.338255 326.55111 L 101.338255 361.3481 C 101.338255 361.61775 101.556655 361.83615 101.826295 361.83615 L 128.466895 361.83615 C 128.737375 361.83615 128.954935 361.61775 128.954935 361.3481 L 128.954935 355.60923 L 135.304495 355.60923 C 135.574135 355.60923 135.792535 355.39083 135.792535 355.1212 L 135.792535 333.50463 C 135.792535 333.49455 135.787495 333.48531 135.786655 333.4744" stroke="#e6e6e6" stroke-linecap="round" stroke-linejoin="round" stroke-width="2"/></g></g></svg>
