<?xml version="1.0" encoding="utf-8"?>
<!-- Generator: Adobe Illustrator 16.0.0, SVG Export Plug-In . SVG Version: 6.00 Build 0)  -->
<!DOCTYPE svg PUBLIC "-//W3C//DTD SVG 1.1//EN" "http://www.w3.org/Graphics/SVG/1.1/DTD/svg11.dtd">
<svg version="1.1" id="Layer_1" xmlns="http://www.w3.org/2000/svg" xmlns:xlink="http://www.w3.org/1999/xlink" x="0px" y="0px"
	 width="308.492px" height="247.994px" viewBox="0 -17.005 308.492 247.994" enable-background="new 0 -17.005 308.492 247.994"
	 xml:space="preserve">
<title>Canvas 1</title>
<title>Layer 1</title>
<g>
	<path fill="#E6E6E6" stroke="#E6E6E6" stroke-width="2" stroke-miterlimit="10" d="M11.945,119.84
		c0.204-0.001,0.406-0.009,0.606-0.037c1.991-0.279,3.528-1.987,3.542-4.059c0.018-2.646,0.133-5.28,0.346-7.909
		c0.184-2.266-1.509-4.252-3.78-4.435c-2.274-0.189-4.254,1.511-4.436,3.778c-0.229,2.827-0.354,5.665-0.373,8.512
		C7.838,117.971,9.672,119.832,11.945,119.84z"/>
	<path fill="#E6E6E6" stroke="#E6E6E6" stroke-width="2" stroke-miterlimit="10" d="M17.296,150.52
		c2.19-0.629,3.451-2.913,2.829-5.094c-1.308-4.58-2.318-9.342-2.993-14.146l-0.181-1.318c-0.289-2.263-2.353-3.857-4.608-3.567
		l-0.047,0.008c-2.234,0.313-3.801,2.359-3.515,4.602l0.19,1.421c0.728,5.177,1.813,10.312,3.232,15.26
		c0.568,1.999,2.528,3.231,4.528,2.95C16.921,150.612,17.108,150.57,17.296,150.52z"/>
	<path fill="#E6E6E6" stroke="#E6E6E6" stroke-width="2" stroke-miterlimit="10" d="M32.625,172.423
		c-2.888-4.245-5.458-8.847-7.643-13.686c-0.928-2.08-3.366-2.976-5.448-2.074c-2.072,0.939-3.002,3.375-2.06,5.452
		c2.373,5.271,5.182,10.299,8.344,14.94c0.913,1.341,2.477,1.977,3.981,1.765c0.61-0.085,1.205-0.314,1.742-0.68
		C33.419,176.862,33.905,174.303,32.625,172.423z"/>
	<path fill="#E6E6E6" stroke="#E6E6E6" stroke-width="2" stroke-miterlimit="10" d="M46.245,187.87
		c-1.661-1.455-3.247-2.963-4.764-4.531c-1.58-1.637-4.189-1.684-5.826-0.101c-1.636,1.585-1.679,4.191-0.092,5.832
		c1.675,1.73,3.424,3.396,5.257,5c2.576,2.254,5.295,4.296,8.093,6.072c0.859,0.55,1.842,0.738,2.78,0.606
		c1.159-0.163,2.232-0.813,2.908-1.873c1.221-1.918,0.649-4.463-1.271-5.685C50.886,191.629,48.502,189.837,46.245,187.87z"/>
	<path fill="#E6E6E6" stroke="#E6E6E6" stroke-width="2" stroke-miterlimit="10" d="M113.819,200.226
		c-0.378-0.618-0.748-1.24-1.095-1.881c1.332-1.415,1.511-3.617,0.327-5.244c-0.826-1.127-2.101-1.712-3.39-1.695
		c-0.573-1.653-1.057-3.344-1.453-5.084c-0.502-2.222-2.766-3.677-4.929-3.109c-2.221,0.501-3.61,2.709-3.109,4.927
		c0.562,2.483,1.282,4.902,2.153,7.233c-2.693,1.498-5.51,2.726-8.422,3.655c-2.169,0.687-3.364,3.006-2.677,5.172
		c0.699,2.172,3.033,3.365,5.184,2.676c3.248-1.04,6.381-2.376,9.396-4.008c0.323,0.565,0.648,1.126,0.994,1.679
		c0.886,1.436,2.511,2.146,4.087,1.925c0.547-0.076,1.084-0.267,1.581-0.574C114.404,204.704,115.009,202.167,113.819,200.226z"/>
	<path fill="#E6E6E6" stroke="#E6E6E6" stroke-width="2" stroke-miterlimit="10" d="M80.572,201.193
		c-4.987,0.07-9.99-0.674-14.873-2.21c-2.164-0.682-4.486,0.522-5.167,2.694c-0.681,2.168,0.524,4.481,2.698,5.16
		c5.719,1.801,11.597,2.675,17.46,2.593c0.181-0.003,0.353-0.014,0.524-0.038c2.025-0.285,3.569-2.043,3.542-4.139
		C84.718,202.986,82.844,201.162,80.572,201.193z"/>
	<path fill="#E6E6E6" stroke="#E6E6E6" stroke-width="2" stroke-miterlimit="10" d="M130.435,167.52
		c-2.08-0.911-4.514,0.038-5.424,2.126c-0.575,1.303-1.112,2.43-1.575,3.321c-1.828,3.537-3.954,6.822-6.321,9.781
		c-1.425,1.78-1.133,4.368,0.646,5.795c0.919,0.742,2.061,1.021,3.146,0.868c1.005-0.142,1.963-0.652,2.644-1.506
		c2.7-3.381,5.129-7.136,7.212-11.149c0.531-1.023,1.147-2.312,1.801-3.811C133.474,170.861,132.521,168.43,130.435,167.52z"/>
	<path fill="#E6E6E6" stroke="#E6E6E6" stroke-width="2" stroke-miterlimit="10" d="M137.617,158.337
		c1.562-6.261,2.042-11.66,1.425-16.05c-0.105-0.749-0.241-1.475-0.415-2.184c-0.543-2.211-2.759-3.505-4.984-3.024
		c-2.206,0.542-3.562,2.773-3.018,4.981c0.11,0.44,0.194,0.902,0.26,1.373c0.462,3.288,0.026,7.759-1.258,12.912
		c-0.555,2.197,0.788,4.437,2.998,4.992c0.529,0.131,1.057,0.158,1.571,0.086C135.805,161.197,137.198,160.014,137.617,158.337z"/>
	<path fill="#E6E6E6" stroke="#E6E6E6" stroke-width="2" stroke-miterlimit="10" d="M135.557,217.224
		c-4.787-1.473-9.159-3.812-12.989-6.946c-1.766-1.437-4.364-1.173-5.798,0.584c-1.442,1.759-1.178,4.36,0.583,5.803
		c4.658,3.807,9.971,6.649,15.78,8.434c0.596,0.186,1.204,0.228,1.783,0.146c1.533-0.215,2.882-1.293,3.369-2.87
		C138.95,220.2,137.734,217.895,135.557,217.224z"/>
	<path fill="#E6E6E6" stroke="#E6E6E6" stroke-width="2" stroke-miterlimit="10" d="M102.725,176.678
		c0.255,0.012,0.509-0.004,0.756-0.039c1.929-0.271,3.449-1.895,3.536-3.901c0.102-2.382,0.37-4.792,0.786-7.15
		c0.38-2.169,1.123-5.043,2.035-7.88c0.7-2.167-0.49-4.49-2.662-5.187c-2.181-0.721-4.488,0.491-5.182,2.659
		c-1.02,3.177-1.862,6.446-2.309,8.969c-0.479,2.708-0.783,5.479-0.901,8.226C98.687,174.651,100.448,176.58,102.725,176.678z"/>
	<path fill="#E6E6E6" stroke="#E6E6E6" stroke-width="2" stroke-miterlimit="10" d="M109.699,146.458
		c0.835,0.493,1.776,0.656,2.672,0.529c1.197-0.168,2.311-0.863,2.97-1.981c2.861-4.823,5.945-7.69,8.684-8.074l-0.059-4.136
		l0.307,4.11c2.202-0.178,3.97-2.151,3.8-4.419c-0.168-2.265-2.145-3.97-4.412-3.806c-0.091,0.01-0.694,0.075-0.784,0.087
		c-5.42,0.762-10.337,4.814-14.623,12.04C107.094,142.769,107.739,145.295,109.699,146.458z"/>
	<path fill="#E6E6E6" stroke="#E6E6E6" stroke-width="2" stroke-miterlimit="10" d="M163.823,216.922
		c-4.588,1.456-9.672,2.214-14.913,2.206c-2.267,0.03-4.124,1.844-4.119,4.12c-0.001,2.275,1.841,4.123,4.115,4.132
		c2.885,0.001,5.745-0.197,8.507-0.585c3.071-0.432,6.068-1.109,8.908-2.019c2.171-0.691,3.37-3.007,2.678-5.174
		C168.308,217.43,165.978,216.237,163.823,216.922z"/>
	<path fill="#E6E6E6" stroke="#E6E6E6" stroke-width="2" stroke-miterlimit="10" d="M202.992,170.206
		c-2.228-0.497-4.431,0.879-4.937,3.096c-1.217,5.297-2.84,10.3-4.834,14.86c-0.913,2.08,0.042,4.514,2.126,5.429
		c0.725,0.315,1.49,0.409,2.22,0.308c1.369-0.192,2.611-1.072,3.202-2.43c2.198-5.035,3.987-10.525,5.32-16.32
		C206.597,172.922,205.214,170.713,202.992,170.206z"/>
	<path fill="#E6E6E6" stroke="#E6E6E6" stroke-width="2" stroke-miterlimit="10" d="M186.386,200.207
		c-3.106,4.252-6.675,7.843-10.601,10.675c-1.841,1.332-2.259,3.906-0.923,5.756c0.925,1.279,2.446,1.876,3.914,1.67
		c0.643-0.091,1.274-0.334,1.839-0.738c4.626-3.339,8.805-7.547,12.428-12.491c1.344-1.847,0.942-4.417-0.89-5.762
		C190.312,197.984,187.731,198.37,186.386,200.207z"/>
	<path fill="#E6E6E6" stroke="#E6E6E6" stroke-width="2" stroke-miterlimit="10" d="M204.748,146.942
		c-2.248,0.005-4.135,1.815-4.154,4.094c-0.02,2.622-0.134,5.273-0.353,7.927c-0.188,2.267,1.506,4.252,3.771,4.438
		c0.309,0.024,0.615,0.02,0.907-0.021c1.868-0.264,3.372-1.792,3.533-3.748c0.233-2.848,0.356-5.708,0.379-8.542
		C208.851,148.817,207.027,146.962,204.748,146.942z"/>
	<path fill="#E6E6E6" stroke="#E6E6E6" stroke-width="2" stroke-miterlimit="10" d="M151.886,103.754l66.079,14.456l41.909,53.963
		L302.389-9.88L151.886,103.754z M167.764,100.273l115.385-87.111l-64.728,98.2L167.764,100.273z M256.517,156.823l-32.426-41.744
		l65.307-99.078L256.517,156.823z"/>
</g>
</svg>
