<?xml version="1.0" encoding="utf-8"?>
<!-- Generator: Adobe Illustrator 21.0.2, SVG Export Plug-In . SVG Version: 6.00 Build 0)  -->
<svg version="1.1" id="Capa_1" xmlns="http://www.w3.org/2000/svg" xmlns:xlink="http://www.w3.org/1999/xlink" x="0px" y="0px"
	 viewBox="0 0 612 612" style="enable-background:new 0 0 612 612;" xml:space="preserve">
<style type="text/css">
	.st0{fill:#FF3300;}
</style>
<g>
	<g id="Error">
		<g>
			<path class="st0" d="M414.5,226.3c-0.3-6.6-2.7-13.1-7.8-18.1c-5-5-11.5-7.5-18.1-7.8c-7.3-0.3-14.7,2.2-20.3,7.8L306,270.6
				l-62.3-62.3c-5.6-5.6-13-8-20.3-7.8c-6.6,0.3-13.1,2.7-18.1,7.8c-5,5-7.5,11.5-7.8,18.1c-0.3,7.3,2.2,14.7,7.8,20.3l62.3,62.3
				l-62.3,62.3c-5.6,5.6-8,13-7.8,20.3c0.3,6.6,2.7,13.1,7.8,18.1c5,5,11.5,7.5,18.1,7.8c7.3,0.3,14.7-2.2,20.3-7.8l62.3-62.3
				l62.3,62.3c5.6,5.6,13,8,20.3,7.8c6.6-0.3,13.1-2.7,18.1-7.8c5-5,7.5-11.5,7.8-18.1c0.3-7.3-2.2-14.7-7.8-20.3L344.4,309
				l62.3-62.3C412.4,241.1,414.8,233.7,414.5,226.3z M306,19C145.8,19,16,148.8,16,309s129.8,290,290,290s290-129.8,290-290
				S466.2,19,306,19z M306,544.6C176.1,544.6,70.4,438.9,70.4,309S176.1,73.4,306,73.4S541.6,179.1,541.6,309S435.9,544.6,306,544.6
				z"/>
		</g>
	</g>
</g>
</svg>
