<?xml version="1.0" encoding="utf-8"?>
<!-- Generator: Adobe Illustrator 21.0.2, SVG Export Plug-In . SVG Version: 6.00 Build 0)  -->
<svg version="1.1" id="Layer_1" xmlns:xl="http://www.w3.org/1999/xlink"
	 xmlns="http://www.w3.org/2000/svg" xmlns:xlink="http://www.w3.org/1999/xlink" x="0px" y="0px" viewBox="0 0 204.7 206.9"
	 style="enable-background:new 0 0 204.7 206.9;" xml:space="preserve">
<style type="text/css">
	.st0{fill:#E6E6E6;stroke:#FFFFFF;stroke-miterlimit:10;}
	.st1{fill:#1822CD;}
</style>
<title>Layer 1</title>
<title>Canvas 4</title>
<title>Layer 1</title>
<path class="st0" d="M172,34.5C133.6-3.8,71.6-3.8,33.3,34.5C-0.3,68.1-4.4,120,21,158.2l-2.7,28.3l27.6-2.7
	c38.3,27.3,91.8,23.8,126.1-10.6C210.3,134.9,210.3,72.8,172,34.5z"/>
<g>
	<g>
		<path class="st1" d="M153.9,61.6c-0.8-0.8-2.1-0.8-2.9,0c-0.8,0.8-0.8,2.1,0,2.9c10.5,10.5,16.2,24.4,16.2,39.3
			s-5.8,28.8-16.2,39.3c-0.8,0.8-0.8,2.1,0,2.9c0.4,0.4,0.9,0.6,1.5,0.6c0.5,0,1.1-0.2,1.5-0.6c11.3-11.3,17.4-26.2,17.4-42.2
			S165.1,72.9,153.9,61.6z"/>
		<path class="st1" d="M145.2,70.3c-0.8-0.8-2.1-0.8-2.9,0c-0.8,0.8-0.8,2.1,0,2.9c16.8,16.8,16.8,44.3,0,61.1
			c-0.8,0.8-0.8,2.1,0,2.9c0.4,0.4,0.9,0.6,1.5,0.6s1.1-0.2,1.5-0.6C163.6,118.8,163.6,88.8,145.2,70.3z"/>
		<path class="st1" d="M136.4,79.1c-0.8-0.8-2.1-0.8-2.9,0c-0.8,0.8-0.8,2.1,0,2.9c12,12,12,31.6,0,43.6c-0.8,0.8-0.8,2.1,0,2.9
			c0.4,0.4,0.9,0.6,1.5,0.6s1.1-0.2,1.5-0.6c6.6-6.6,10.2-15.4,10.2-24.7C146.7,94.4,143,85.7,136.4,79.1z"/>
	</g>
	<path class="st1" d="M117.6,63.3c-4.5,0-8.1,3.6-8.1,8.1V74L46.7,93.8c-0.5-3.5-3.4-6.2-7-6.2c-3.9,0-7.1,3.2-7.1,7.1v18.2
		c0,3.9,3.2,7.1,7.1,7.1c3.6,0,6.5-2.7,7-6.2l4.3,1.4c-0.6,0.7-1.2,1.5-1.5,2.5c-1.2,3.6,0.8,7.5,4.4,8.7l23.1,7.5
		c0.7,0.2,1.4,0.3,2.1,0.3c3,0,5.6-1.9,6.6-4.8c0.3-1.1,0.4-2.1,0.2-3.2l23.6,7.4v2.6c0,4.5,3.6,8.1,8.1,8.1s8.1-3.6,8.1-8.1V71.4
		C125.7,67,122.1,63.3,117.6,63.3z M42.8,95v17.5v0.3c0,1.7-1.4,3-3,3c-1.7,0-3-1.4-3-3V94.7c0-1.7,1.4-3,3-3c1.7,0,3,1.4,3,3V95z
		 M81.9,128.1c-0.5,1.4-2.1,2.3-3.6,1.8l-23.1-7.5c-1.5-0.5-2.3-2.1-1.8-3.6c0.4-1.2,1.5-2,2.7-2c0.3,0,0.6,0,0.9,0.1l23.1,7.5
		c0.7,0.2,1.3,0.7,1.6,1.4C82.1,126.7,82.2,127.4,81.9,128.1z M121.7,136.2c0,2.2-1.8,4-4,4s-4-1.8-4-4v-1.3V72.7v-1.3
		c0-2.2,1.8-4,4-4s4,1.8,4,4V136.2z"/>
</g>
</svg>
