<?xml version="1.0" encoding="utf-8"?>
<!-- Generator: Adobe Illustrator 16.0.0, SVG Export Plug-In . SVG Version: 6.00 Build 0)  -->
<!DOCTYPE svg PUBLIC "-//W3C//DTD SVG 1.1//EN" "http://www.w3.org/Graphics/SVG/1.1/DTD/svg11.dtd">
<svg version="1.1" id="Layer_1" xmlns:xl="http://www.w3.org/1999/xlink"
	 xmlns="http://www.w3.org/2000/svg" xmlns:xlink="http://www.w3.org/1999/xlink" x="0px" y="0px" width="41px" height="61px"
	 viewBox="0 0 41 61" enable-background="new 0 0 41 61" xml:space="preserve">
<title>Canvas 4</title>
<title>Layer 1</title>
<path fill="#E6E6E6" stroke="#E6E6E6" stroke-miterlimit="10" d="M19.994,1.177c-11.045,0-20,8.957-20,20.001
	c0,3.646,0.98,7.057,2.687,10.002l17.313,30l17.312-30c1.705-2.945,2.688-6.354,2.688-10.002
	C39.994,10.134,31.039,1.177,19.994,1.177z M35.574,30.179l-15.58,26.999L4.41,30.177c-1.58-2.732-2.416-5.843-2.416-8.999
	c0-9.926,8.074-18.001,18-18.001c9.926,0,18,8.075,18,18.001C37.994,24.334,37.158,27.445,35.574,30.179z"/>
<g>
	<path fill="#E6E6E6" d="M29.386,19.117c-0.26-2.864-2.288-4.943-4.826-4.943c-1.689,0-3.237,0.91-4.108,2.368
		c-0.863-1.478-2.348-2.369-4.01-2.369c-2.538,0-4.564,2.078-4.825,4.943c-0.02,0.126-0.105,0.792,0.151,1.878
		c0.37,1.567,1.224,2.991,2.469,4.119l6.211,5.637l6.318-5.637c1.246-1.128,2.1-2.552,2.47-4.119
		C29.49,19.91,29.405,19.245,29.386,19.117z"/>
	<path fill="#FAFAFA" d="M17.071,16.943c-1.512,0-2.743,1.231-2.743,2.744c0,0.189-0.153,0.343-0.344,0.343
		c-0.189,0-0.343-0.154-0.343-0.343c0-1.89,1.539-3.429,3.43-3.429c0.189,0,0.343,0.153,0.343,0.344
		C17.414,16.791,17.26,16.943,17.071,16.943z"/>
</g>
</svg>
