<?xml version="1.0" encoding="utf-8"?>
<!-- Generator: Adobe Illustrator 21.0.2, SVG Export Plug-In . SVG Version: 6.00 Build 0)  -->
<svg version="1.1" id="Layer_1" xmlns:xl="http://www.w3.org/1999/xlink"
	 xmlns="http://www.w3.org/2000/svg" xmlns:xlink="http://www.w3.org/1999/xlink" x="0px" y="0px" viewBox="0 0 204.7 206.9"
	 style="enable-background:new 0 0 204.7 206.9;" xml:space="preserve">
<style type="text/css">
	.st0{opacity:0.6;fill:none;stroke:#E6E6E6;stroke-width:3;stroke-linecap:round;stroke-linejoin:round;enable-background:new    ;}
	.st1{fill:#E6E6E6;}
</style>
<title>Layer 1</title>
<title>Canvas 4</title>
<title>Layer 1</title>
<g>
	<path class="st0" d="M102,201.9L102,201.9c-53.3,0-96.6-43.4-96.6-96.6C5.4,52,48.7,8.7,102,8.7c53.3,0,96.6,43.4,96.6,96.6
		C198.6,158.6,155.3,201.9,102,201.9z"/>
	<g>
		<title>Canvas 1</title>
		<g>
			<title>Layer 1</title>
			<path class="st1" d="M73.4,111.6c-15.9-15.6-16.1-41-0.5-56.9c15.6-15.9,41-16.1,56.9-0.5c15.9,15.6,16.1,41,0.5,56.9
				C114.7,126.9,89.2,127.2,73.4,111.6 M106,130.9c11-1,21.7-5.7,30-14.2c18.7-19,18.4-49.6-0.6-68.3C116.4,29.7,85.8,30,67.1,49
				c-18.7,19-18.4,49.6,0.6,68.3C76.2,125.7,87,130.2,98,131l0.5,50.4l8,0L106,130.9z"/>
		</g>
	</g>
	<g>
		<path class="st1" d="M120.1,59.3h-36c-2.9,0-5.3,2.6-5.3,5.8v36.2c0,3.2,2.4,5.8,5.3,5.8h36c2.9,0,5.3-2.6,5.3-5.8V65.1
			C125.3,61.9,123,59.3,120.1,59.3z M108.9,67.9c2.8,0,5.1,2.5,5.1,5.6s-2.3,5.6-5.1,5.6s-5.1-2.5-5.1-5.6
			C103.8,70.4,106.1,67.9,108.9,67.9z M118.4,101.8h-16.3H86.5c-1.4,0-2-1.2-1.4-2.5l8.7-18.9c0.6-1.3,1.8-1.5,2.7-0.3l8.8,12.5
			c0.9,1.2,2.3,1.3,3.3,0.3l2.1-2.4c1-1.1,2.4-1,3.2,0.3l5.6,8.7C120.3,100.7,119.8,101.8,118.4,101.8z"/>
	</g>
</g>
</svg>
