<?xml version="1.0" encoding="utf-8"?>
<!-- Generator: Adobe Illustrator 16.0.0, SVG Export Plug-In . SVG Version: 6.00 Build 0)  -->
<!DOCTYPE svg PUBLIC "-//W3C//DTD SVG 1.1//EN" "http://www.w3.org/Graphics/SVG/1.1/DTD/svg11.dtd">
<svg version="1.1" id="Capa_1" xmlns="http://www.w3.org/2000/svg" xmlns:xlink="http://www.w3.org/1999/xlink" x="0px" y="0px"
	 width="673.75px" height="420.26px" viewBox="0 167.24 673.75 420.26" enable-background="new 0 167.24 673.75 420.26"
	 xml:space="preserve">
<g>
	<g>
		<path fill="#E6E6E6" d="M582.227,170.023c-3.712-3.711-9.71-3.711-13.421,0c-3.712,3.711-3.712,9.709,0,13.421
			c48.33,48.321,74.944,112.674,74.944,181.212c0,68.539-26.614,132.891-74.944,181.211c-3.712,3.713-3.712,9.711,0,13.422
			c1.852,1.852,4.28,2.781,6.71,2.781c2.431,0,4.86-0.931,6.711-2.781c51.918-51.908,80.497-121.025,80.497-194.633
			S634.145,221.932,582.227,170.023z"/>
		<path fill="#E6E6E6" d="M541.963,210.286c-3.711-3.711-9.71-3.711-13.421,0s-3.711,9.71,0,13.421
			c77.717,77.717,77.717,204.172,0,281.889c-3.711,3.711-3.711,9.709,0,13.422c1.852,1.851,4.281,2.779,6.711,2.779
			s4.859-0.93,6.71-2.779C627.083,433.906,627.083,295.406,541.963,210.286z"/>
		<path fill="#E6E6E6" d="M501.7,250.558c-3.711-3.711-9.71-3.711-13.421,0s-3.711,9.71,0,13.421
			c55.516,55.516,55.516,145.827,0,201.345c-3.711,3.711-3.711,9.709,0,13.42c1.851,1.852,4.279,2.781,6.71,2.781
			s4.859-0.931,6.711-2.781c30.43-30.43,47.19-70.949,47.19-114.098C548.891,321.497,532.13,280.988,501.7,250.558z"/>
	</g>
	<path fill="#E6E6E6" d="M415,177.983c-20.59,0-37.333,16.744-37.333,37.333v11.826L87.913,318.461
		c-2.09-16.018-15.67-28.478-32.247-28.478C37.653,289.983,23,304.637,23,322.65v84c0,18.014,14.653,32.667,32.667,32.667
		c16.576,0,30.156-12.46,32.247-28.478l19.917,6.278c-2.958,3.259-5.329,7.104-6.748,11.499
		c-5.395,16.645,3.752,34.58,20.412,39.979l106.549,34.515c3.146,1.021,6.412,1.54,9.716,1.54c13.823,0,25.984-8.82,30.24-21.961
		c1.568-4.854,1.792-9.885,0.989-14.784l108.678,34.253v11.825c0,20.59,16.743,37.334,37.333,37.334s37.333-16.744,37.333-37.334
		V215.317C452.333,194.728,435.59,177.983,415,177.983z M69.667,324.209v80.885v1.557c0,7.719-6.281,14-14,14
		c-7.718,0-14-6.281-14-14v-84c0-7.719,6.282-14,14-14c7.719,0,14,6.281,14,14V324.209z M250.248,476.939
		c-2.139,6.599-9.828,10.557-16.464,8.409l-106.54-34.517c-6.86-2.223-10.64-9.604-8.41-16.466
		c1.727-5.315,6.852-9.032,12.479-9.032c1.346,0,2.681,0.205,3.978,0.625l106.559,34.517c3.295,1.062,5.992,3.368,7.588,6.496
		C251.034,470.099,251.312,473.654,250.248,476.939z M433.667,513.983c0,10.295-8.372,18.667-18.667,18.667
		s-18.667-8.372-18.667-18.667v-5.945V221.262v-5.945c0-10.294,8.372-18.667,18.667-18.667s18.667,8.372,18.667,18.667V513.983z"/>
</g>
</svg>
