<?xml version="1.0" encoding="utf-8"?>
<!-- Generator: Adobe Illustrator 21.0.2, SVG Export Plug-In . SVG Version: 6.00 Build 0)  -->
<svg version="1.1" id="Layer_1" xmlns:xl="http://www.w3.org/1999/xlink"
	 xmlns="http://www.w3.org/2000/svg" xmlns:xlink="http://www.w3.org/1999/xlink" x="0px" y="0px" viewBox="0 0 291 292"
	 style="enable-background:new 0 0 291 292;" xml:space="preserve">
<style type="text/css">
	.st0{fill:#1822CD;}
	.st1{fill:none;stroke:#1822CD;stroke-width:3;stroke-miterlimit:10;}
</style>
<path class="st0" d="M196,97.6c-4.4-4.4-11.6-4.4-16,0l-35,35.1l-35-35.1c-4.4-4.4-11.6-4.4-16,0c-4.4,4.4-4.4,11.6,0,16l35,35.1
	l-35,35.1c-4.4,4.4-4.4,11.6,0,16c2.2,2.2,5.1,3.3,8,3.3c2.9,0,5.8-1.1,8-3.3l35-35.1l35,35.1c2.2,2.2,5.1,3.3,8,3.3
	c2.9,0,5.8-1.1,8-3.3c4.4-4.4,4.4-11.6,0-16l-35-35.1l35-35C200.5,109.2,200.5,102,196,97.6z"/>
<path id="Shape" class="st1" d="M145,287.3L145,287.3c-77.8,0-141-63.3-141-141c0-77.8,63.2-141,141-141s141,63.3,141,141
	C286,224.1,222.8,287.3,145,287.3L145,287.3z"/>
</svg>
