<?xml version="1.0" encoding="utf-8"?>
<!-- Generator: Adobe Illustrator 16.0.0, SVG Export Plug-In . SVG Version: 6.00 Build 0)  -->
<!DOCTYPE svg PUBLIC "-//W3C//DTD SVG 1.1//EN" "http://www.w3.org/Graphics/SVG/1.1/DTD/svg11.dtd">
<svg version="1.1" id="Capa_1" xmlns="http://www.w3.org/2000/svg" xmlns:xlink="http://www.w3.org/1999/xlink" x="0px" y="0px"
	 width="580px" height="356px" viewBox="190.5 102.5 580 356" enable-background="new 190.5 102.5 580 356" xml:space="preserve">
<g>
	<path fill="#0C6BEB" d="M480,113.094c-106.994,0-204.021,58.538-275.618,153.618c-5.842,7.79-5.842,18.673,0,26.462
		C275.979,388.368,373.006,446.906,480,446.906s204.021-58.538,275.618-153.618c5.843-7.79,5.843-18.672,0-26.462
		C684.021,171.631,586.994,113.094,480,113.094z M487.675,397.533c-71.023,4.468-129.675-54.07-125.208-125.208
		c3.666-58.652,51.206-106.192,109.858-109.858c71.023-4.467,129.676,54.07,125.208,125.209
		C593.753,346.213,546.213,393.753,487.675,397.533z M484.124,343.234c-38.262,2.405-69.878-29.097-67.358-67.358
		c1.947-31.617,27.607-57.163,59.225-59.225c38.262-2.406,69.879,29.097,67.358,67.358
		C541.287,315.741,515.627,341.287,484.124,343.234z"/>
</g>
</svg>
