<?xml version="1.0" encoding="utf-8"?>
<!-- Generator: Adobe Illustrator 21.0.2, SVG Export Plug-In . SVG Version: 6.00 Build 0)  -->
<svg version="1.1" id="Layer_1" xmlns:xl="http://www.w3.org/1999/xlink"
	 xmlns="http://www.w3.org/2000/svg" xmlns:xlink="http://www.w3.org/1999/xlink" x="0px" y="0px" viewBox="0 0 204.7 206.9"
	 style="enable-background:new 0 0 204.7 206.9;" xml:space="preserve">
<style type="text/css">
	.st0{opacity:0.6;fill:none;stroke:#1822CD;stroke-width:3;stroke-linecap:round;stroke-linejoin:round;enable-background:new    ;}
	.st1{fill:#1822CD;stroke:#1822CD;stroke-width:2;stroke-miterlimit:10;}
	.st2{fill:#339933;}
	.st3{fill:#FFFFFF;}
</style>
<title>Layer 1</title>
<title>Canvas 4</title>
<title>Layer 1</title>
<path class="st0" d="M102,201.9L102,201.9c-53.3,0-96.6-43.4-96.6-96.6C5.4,52,48.7,8.7,102,8.7s96.6,43.4,96.6,96.6
	C198.6,158.6,155.3,201.9,102,201.9z"/>
<g>
	<g>
		<path class="st1" d="M27.4,97.7L27.4,97.7c0.7,0.2,1.3-0.1,1.5-0.7c0.3-0.8,0.6-1.4,1-2.1c0.3-0.6,0.1-1.3-0.5-1.6
			c-0.6-0.3-1.3-0.1-1.6,0.5c-0.4,0.7-0.8,1.4-1,2.2C26.4,96.7,26.8,97.4,27.4,97.7z"/>
		<path class="st1" d="M25.4,106.5c0.7,0.1,1.3-0.4,1.3-1c0.2-1.4,0.4-2.8,0.7-4.2l0.1-0.3c0.1-0.6-0.2-1.3-0.8-1.4l0,0
			c-0.6-0.1-1.3,0.2-1.4,0.8l-0.1,0.3c-0.3,1.5-0.6,3-0.8,4.5C24.3,105.9,24.7,106.3,25.4,106.5C25.3,106.5,25.3,106.5,25.4,106.5z"
			/>
		<path class="st1" d="M50.7,115.6c0.1,0.2,0.4,0.4,0.7,0.5s0.7,0,1-0.3c1.3-1,2.4-1.4,3.3-1.2l0.4-1.1l-0.4,1.1
			c0.6,0.1,1.4-0.1,1.5-0.7s-0.1-1.4-0.7-1.5h-0.3c-1.5-0.4-3.4,0.1-5.3,1.6C50.5,114.3,50.4,115.1,50.7,115.6z"/>
		<g>
			<path class="st1" d="M27.2,114.1c-0.3-1.5-0.5-3-0.6-4.5c0-0.7-0.6-1.1-1.3-1.2c-0.7,0-1.1,0.6-1.2,1.3c0,1.7,0.3,3.3,0.6,4.9
				c0.1,0.5,0.5,0.7,0.9,0.9c0.2,0,0.3,0.1,0.6,0C26.8,115.4,27.3,114.8,27.2,114.1z"/>
			<path class="st1" d="M29.1,119.7c-0.3-0.6-0.6-1.1-0.8-1.7c-0.3-0.6-0.9-0.9-1.5-0.7c-0.6,0.3-0.9,0.9-0.7,1.5
				c0.3,0.6,0.5,1.2,0.9,1.9c0.5,0.9,1,1.7,1.6,2.5c0.1,0.2,0.4,0.4,0.7,0.5c0.3,0.1,0.7,0.1,1-0.2c0.5-0.3,0.6-1.1,0.2-1.7
				C29.9,121.3,29.5,120.6,29.1,119.7z"/>
			<path class="st1" d="M45.9,130.6c0-0.2-0.1-0.5-0.1-0.6c0.5-0.2,0.9-0.8,0.7-1.3c-0.1-0.4-0.4-0.7-0.7-0.8
				c0.1-0.5,0.1-1.1,0.2-1.6c0.1-0.7-0.4-1.3-1-1.4c-0.7-0.1-1.3,0.4-1.4,1c-0.1,0.8-0.2,1.4-0.2,2.3c-0.9,0.1-1.8,0.1-2.7,0
				c-0.7-0.1-1.2,0.4-1.3,1c-0.1,0.7,0.4,1.2,1,1.3c0.9,0.1,2,0,3,0c0,0.2,0.1,0.3,0,0.6c0.1,0.5,0.4,0.8,0.9,0.9
				c0.2,0,0.3,0.1,0.5,0.1C45.6,131.8,46,131.2,45.9,130.6z"/>
			<path class="st1" d="M36.9,127.2c-1.3-0.5-2.6-1.3-3.7-2.3c-0.6-0.4-1.3-0.4-1.7,0.2c-0.4,0.6-0.4,1.3,0.2,1.7
				c1.3,1.1,2.8,2,4.5,2.6l0.1,0.1c0.6,0.1,1.2-0.1,1.4-0.7C37.8,128.1,37.5,127.3,36.9,127.2z"/>
			<path class="st1" d="M54.1,123.5c-0.5-0.5-1.2-0.5-1.7-0.1c-0.4,0.3-0.6,0.6-0.8,0.7c-0.9,0.8-1.8,1.4-2.8,1.9
				c-0.5,0.3-0.7,1-0.5,1.6c0.2,0.3,0.5,0.5,0.7,0.5c0.3,0,0.6,0,0.9-0.1c1.1-0.6,2.2-1.4,3.2-2.2c0.3-0.2,0.5-0.5,0.9-0.8
				C54.5,124.8,54.5,124,54.1,123.5z"/>
			<path class="st1" d="M57,121.8c1.1-1.5,1.8-2.9,2.1-4.1c0-0.3,0.1-0.3,0.1-0.6c0.1-0.7-0.4-1.3-1-1.3c-0.7-0.1-1.3,0.4-1.3,1
				c0,0.2,0,0.3-0.1,0.3c-0.3,0.9-0.8,2.1-1.7,3.4c-0.4,0.6-0.2,1.3,0.2,1.7c0.1,0.1,0.3,0.2,0.4,0.2
				C56.2,122.4,56.7,122.3,57,121.8z"/>
			<path class="st1" d="M50,137.6c-1.1-1-2.1-2-2.8-3.3c-0.3-0.5-1-0.7-1.6-0.5c-0.6,0.3-0.7,1-0.5,1.6c0.8,1.6,2,2.9,3.4,4
				c0.2,0.1,0.3,0.2,0.4,0.2c0.4,0.2,0.9-0.1,1.3-0.4C50.6,138.7,50.5,138,50,137.6z"/>
			<path class="st1" d="M45.6,123c0.1,0.1,0.1,0.1,0.3,0c0.6,0.1,1.1-0.2,1.4-0.7c0.3-0.6,0.6-1.3,1-1.8c0.4-0.6,0.9-1.2,1.4-2
				c0.4-0.6,0.4-1.3-0.2-1.7s-1.3-0.4-1.7,0.2c-0.6,0.7-1.2,1.5-1.5,2.1c-0.5,0.7-0.8,1.4-1.1,2.2C44.7,122,45,122.7,45.6,123z"/>
			<path class="st1" d="M57.6,140.5c-1.3-0.1-2.9-0.5-4.2-1c-0.6-0.3-1.3,0.1-1.6,0.7s0.1,1.3,0.7,1.6c0.8,0.3,1.6,0.6,2.4,0.8
				c0.9,0.2,1.7,0.4,2.6,0.5c0.7,0.1,1.3-0.4,1.3-1C58.8,141.2,58.3,140.6,57.6,140.5z"/>
			<path class="st1" d="M73.3,132.3c-0.6-0.4-1.3-0.2-1.7,0.4c-0.9,1.3-1.9,2.5-2.9,3.4c-0.5,0.5-0.5,1.2-0.1,1.7
				c0.2,0.1,0.4,0.3,0.6,0.3c0.3,0.1,0.8,0,1.1-0.3c1.1-1.2,2.3-2.3,3.2-3.8C74.1,133.4,73.9,132.7,73.3,132.3z"/>
			<path class="st1" d="M65.6,138.5c-1.3,0.8-2.7,1.3-4.1,1.7c-0.6,0.1-1,0.8-0.9,1.5c0.1,0.5,0.5,0.7,0.9,0.9c0.3,0,0.4,0,0.6,0
				c1.6-0.4,3.2-1.1,4.7-2c0.5-0.3,0.7-1,0.4-1.7C66.8,138.3,66.1,138.1,65.6,138.5z"/>
			<path class="st1" d="M76.4,126.1c-0.6-0.3-1.3,0.1-1.6,0.7c-0.3,0.6-0.6,1.4-1,2.1c-0.3,0.6-0.1,1.3,0.5,1.6
				c0.1,0.1,0.2,0.1,0.3,0c0.5,0.1,1.1-0.1,1.3-0.6c0.4-0.7,0.7-1.5,1-2.2C77.3,127.2,77,126.4,76.4,126.1z"/>
		</g>
	</g>
	<path class="st1" d="M51.4,94l37.5,25.8l12.4,44.2l72.5-102.5L51.4,94z M62.2,95.9L156.1,71L91,115.7L62.2,95.9z M103.2,153.5
		l-9.6-34.2l65.8-45.1L103.2,153.5z"/>
</g>
<g>
	<path class="st2" d="M136.1,107.2c-15.5,0-28,12.5-28,28s12.5,28,28,28s28-12.5,28-28S151.5,107.2,136.1,107.2z"/>
	<path class="st3" d="M152.2,129.2l-17.6,17.6c-0.7,0.7-1.8,1.2-2.8,1.2s-2-0.4-2.8-1.2l-8.9-8.9c-0.7-0.7-1.2-1.8-1.2-2.8
		s0.4-2,1.2-2.8c0.7-0.7,1.8-1.2,2.8-1.2s2,0.4,2.8,1.2l6.2,6.2l14.7-14.7c0.7-0.7,1.8-1.2,2.8-1.2s2,0.4,2.8,1.2
		C153.7,125.1,153.7,127.6,152.2,129.2z"/>
</g>
</svg>
