<?xml version="1.0" encoding="utf-8"?>
<!-- Generator: Adobe Illustrator 16.0.0, SVG Export Plug-In . SVG Version: 6.00 Build 0)  -->
<!DOCTYPE svg PUBLIC "-//W3C//DTD SVG 1.1//EN" "http://www.w3.org/Graphics/SVG/1.1/DTD/svg11.dtd">
<svg version="1.1" id="Capa_1" xmlns="http://www.w3.org/2000/svg" xmlns:xlink="http://www.w3.org/1999/xlink" x="0px" y="0px"
	 width="494px" height="598px" viewBox="44.5 -11.5 494 598" enable-background="new 44.5 -11.5 494 598" xml:space="preserve">
<g>
	<path fill="#E6E6E6" d="M473.75,0h-367.5C82.126,0,62.5,19.626,62.5,43.75v472.5c0,24.124,19.626,43.75,43.75,43.75h367.5
		c24.124,0,43.75-19.626,43.75-43.75V43.75C517.5,19.626,497.874,0,473.75,0z M500,516.25c0,14.474-11.775,26.25-26.25,26.25h-367.5
		C91.775,542.5,80,530.724,80,516.25V43.75c0-14.474,11.775-26.25,26.25-26.25h367.5c14.475,0,26.25,11.776,26.25,26.25V516.25z"/>
	<g>
		<title>Canvas 4</title>
		<g>
			<title>Layer 1</title>
			<path fill="#E6E6E6" d="M227.553,146.917v53.244h88.713v212.923h53.245V200.143h88.723v-53.226H227.553z M121.078,288.865h53.231
				v124.219h53.244V288.865h53.231v-53.227H121.078V288.865z"/>
		</g>
	</g>
</g>
</svg>
