<?xml version="1.0"?>
<!DOCTYPE svg PUBLIC "-//W3C//DTD SVG 1.1//EN" "http://www.w3.org/Graphics/SVG/1.1/DTD/svg11.dtd">
<svg xmlns="http://www.w3.org/2000/svg" xmlns:xl="http://www.w3.org/1999/xlink" version="1.1" viewBox="77 121 86 86" width="86pt" height="86pt"><metadata xmlns:dc="http://purl.org/dc/elements/1.1/"><dc:date>2017-01-28 22:45Z</dc:date><!-- Produced by OmniGraffle Professional 5.4.2 --></metadata><defs></defs><g stroke="none" stroke-opacity="1" stroke-dasharray="none" fill="none" fill-opacity="1"><title>Canvas 1</title><g><title>Layer 1</title><circle cx="120.28438" cy="166.02927" r="32.500053" fill="#e6e6e6"/><path d="M 111.94275 151.83804 L 111.94275 157.51453 L 121.403565 157.51453 L 121.403565 180.22049 L 127.08006 180.22049 L 127.08006 157.51453 L 136.540875 157.51453 L 136.540875 151.83804 L 111.94275 151.83804 Z M 100.589765 166.97535 L 106.266256 166.97535 L 106.266256 180.22049 L 111.94275 180.22049 L 111.94275 166.97535 L 117.61924 166.97535 L 117.61924 161.29886 L 100.589765 161.29886 L 100.589765 166.97535 Z" fill="#1084f5"/><path d="M 120.284364 123.79132 C 97.943317 123.79132 79.738 141.996635 79.738 164.33768 C 79.738 186.67873 97.943317 204.88405 120.284364 204.88405 L 152.721455 204.88405 C 157.181555 204.88405 160.83073 201.23487 160.83073 196.77477 L 160.83073 164.33768 C 160.83073 141.996635 142.62541 123.79132 120.284364 123.79132 Z M 120.284364 196.77477 L 120.284364 196.77477 C 102.403417 196.77477 87.84727 182.21863 87.84727 164.33768 C 87.84727 146.456735 102.403417 131.90059 120.284364 131.90059 C 138.16531 131.90059 152.721455 146.456735 152.721455 164.33768 C 152.721455 182.21863 138.16531 196.77477 120.284364 196.77477 Z" stroke="#1084f5" stroke-linecap="round" stroke-linejoin="round" stroke-width="1"/></g></g></svg>
