<?xml version="1.0" encoding="utf-8"?>
<!-- Generator: Adobe Illustrator 21.0.2, SVG Export Plug-In . SVG Version: 6.00 Build 0)  -->
<svg version="1.1" id="Layer_1" xmlns:xl="http://www.w3.org/1999/xlink"
	 xmlns="http://www.w3.org/2000/svg" xmlns:xlink="http://www.w3.org/1999/xlink" x="0px" y="0px" viewBox="0 0 204.7 206.9"
	 style="enable-background:new 0 0 204.7 206.9;" xml:space="preserve">
<style type="text/css">
	.st0{fill:#E6E6E6;}
</style>
<title>Layer 1</title>
<title>Canvas 4</title>
<title>Layer 1</title>
<g>
	<g>
		<path class="st0" d="M129,49.3c-0.5-0.5-1.2-0.5-1.6,0c-0.5,0.5-0.5,1.2,0,1.6c6,6,9.3,13.9,9.3,22.4s-3.4,16.5-9.3,22.4
			c-0.5,0.5-0.5,1.2,0,1.6c0.2,0.2,0.5,0.3,0.8,0.3c0.2,0,0.6-0.1,0.8-0.3c6.5-6.5,10-15,10-24.1S135.5,55.7,129,49.3z"/>
		<path class="st0" d="M124.1,54.2c-0.5-0.5-1.2-0.5-1.6,0s-0.5,1.2,0,1.6c9.6,9.6,9.6,25.3,0,34.9c-0.5,0.5-0.5,1.2,0,1.6
			c0.2,0.2,0.5,0.3,0.8,0.3s0.6-0.1,0.8-0.3C134.6,81.9,134.6,64.7,124.1,54.2z"/>
		<path class="st0" d="M119,59.3c-0.5-0.5-1.2-0.5-1.6,0s-0.5,1.2,0,1.6c6.8,6.8,6.8,18.1,0,24.9c-0.5,0.5-0.5,1.2,0,1.6
			c0.2,0.2,0.5,0.3,0.8,0.3s0.6-0.1,0.8-0.3c3.7-3.7,5.8-8.8,5.8-14.1C125,68,122.9,63,119,59.3z"/>
	</g>
	<path class="st0" d="M108.4,50.2c-2.5,0-4.6,2.1-4.6,4.6v1.5L67.9,67.6c-0.2-2-2-3.6-3.9-3.6c-2.2,0-4.1,1.9-4.1,4.1v10.4
		c0,2.2,1.9,4.1,4.1,4.1c2.1,0,3.7-1.5,3.9-3.6l2.4,0.8c-0.3,0.3-0.7,0.8-0.8,1.4c-0.7,2.1,0.3,4.4,2.4,5.1l13.2,4.3
		c0.3,0.1,0.8,0.1,1.2,0.1c1.7,0,3.2-1,3.7-2.8c0.1-0.6,0.2-1.2,0.1-1.9l13.4,4.2v1.5c0,2.5,2.1,4.6,4.6,4.6s4.6-2.1,4.6-4.6V54.9
		C113,52.3,110.9,50.2,108.4,50.2z M65.7,68.3v10v0.1c0,0.9-0.8,1.7-1.7,1.7s-1.7-0.8-1.7-1.7V68.2c0-0.9,0.8-1.7,1.7-1.7
		s1.7,0.8,1.7,1.7V68.3z M88,87.2c-0.2,0.8-1.2,1.3-2.1,1L72.7,84c-0.8-0.2-1.3-1.2-1-2.1c0.2-0.7,0.8-1.2,1.5-1.2
		c0.1,0,0.3,0,0.5,0L86.8,85c0.3,0.1,0.7,0.3,0.9,0.8C88.1,86.4,88.1,86.9,88,87.2z M110.7,91.9c0,1.3-1,2.3-2.3,2.3
		c-1.3,0-2.3-1-2.3-2.3v-0.7V55.6v-0.7c0-1.3,1-2.3,2.3-2.3c1.3,0,2.3,1,2.3,2.3V91.9z"/>
</g>
<g id="Layer_2">
	<g id="Layer_1-2">
		<path class="st0" d="M151.8,73.4L151.8,73.4c0,27.1-22,49.1-49.5,49.1s-49.5-22-49.5-49.1s22.1-49,49.5-49S151.8,46.3,151.8,73.4z
			 M168.3,73.4L168.3,73.4c0-36.2-29.6-65.5-65.9-65.5S36.4,37.3,36.4,73.4c0,0,0,50.8,66,125.5C102.4,199,168.3,125.5,168.3,73.4z"
			/>
	</g>
</g>
</svg>
