<?xml version="1.0" encoding="utf-8"?>
<!-- Generator: Adobe Illustrator 16.0.0, SVG Export Plug-In . SVG Version: 6.00 Build 0)  -->
<!DOCTYPE svg PUBLIC "-//W3C//DTD SVG 1.1//EN" "http://www.w3.org/Graphics/SVG/1.1/DTD/svg11.dtd">
<svg version="1.1" id="Layer_1" xmlns:xl="http://www.w3.org/1999/xlink"
	 xmlns="http://www.w3.org/2000/svg" xmlns:xlink="http://www.w3.org/1999/xlink" x="0px" y="0px" width="214.489px"
	 height="206.901px" viewBox="-145.9 -120.901 214.489 206.901" enable-background="new -145.9 -120.901 214.489 206.901"
	 xml:space="preserve">
<title>Layer 1</title>
<title>Canvas 4</title>
<title>Layer 1</title>
<circle fill="#0C6BEB" cx="-36.78" cy="-19.289" r="78.524"/>
<path fill="none" stroke="#1084F5" stroke-linecap="round" stroke-linejoin="round" d="M-37.448-117.252
	c-53.979,0-97.965,43.985-97.965,97.964c0,53.978,43.985,97.962,97.965,97.962h78.37c10.774,0,19.594-8.817,19.594-19.593v-78.37
	C60.516-73.267,16.526-117.252-37.448-117.252z M-37.448,59.082L-37.448,59.082c-43.202,0-78.372-35.168-78.372-78.37
	c0-43.204,35.17-78.372,78.372-78.372c43.201,0,78.37,35.168,78.37,78.372C40.922,23.914,5.753,59.082-37.448,59.082z"/>
</svg>
