<?xml version="1.0" encoding="utf-8"?>
<!-- Generator: Adobe Illustrator 21.0.2, SVG Export Plug-In . SVG Version: 6.00 Build 0)  -->
<svg version="1.1" id="Layer_1" xmlns:xl="http://www.w3.org/1999/xlink"
	 xmlns="http://www.w3.org/2000/svg" xmlns:xlink="http://www.w3.org/1999/xlink" x="0px" y="0px" viewBox="0 0 204.7 206.9"
	 style="enable-background:new 0 0 204.7 206.9;" xml:space="preserve">
<style type="text/css">
	.st0{fill:none;stroke:#E6E6E6;stroke-miterlimit:10;}
	.st1{fill:#E6E6E6;}
</style>
<title>Layer 1</title>
<title>Canvas 4</title>
<title>Layer 1</title>
<path class="st0" d="M102,201.9L102,201.9c-53.3,0-96.6-43.4-96.6-96.6C5.4,52,48.7,8.7,102,8.7s96.6,43.4,96.6,96.6
	C198.6,158.6,155.3,201.9,102,201.9z"/>
<g>
	<g>
		<g>
			<g>
				<path class="st1" d="M72.2,113.2c-17-16.7-17.2-43.8-0.5-60.8s43.8-17.2,60.8-0.5s17.2,43.8,0.5,60.8
					C116.4,129.6,89.1,129.9,72.2,113.2 M107.1,133.9c11.8-1.1,23.2-6.1,32.1-15.2c20-20.3,19.7-53-0.6-73s-53-19.7-73,0.6
					s-19.7,53,0.6,73c9.1,9,20.6,13.8,32.4,14.7l0.5,53.9h8.6L107.1,133.9z"/>
			</g>
		</g>
		<g>
			<path class="st1" d="M122.2,57.3H83.7c-3.1,0-5.7,2.8-5.7,6.2v38.7c0,3.4,2.6,6.2,5.7,6.2h38.5c3.1,0,5.7-2.8,5.7-6.2V63.5
				C127.7,60.1,125.3,57.3,122.2,57.3z M110.2,66.5c3,0,5.5,2.7,5.5,6c0,3.3-2.5,6-5.5,6c-3,0-5.5-2.7-5.5-6
				C104.8,69.2,107.2,66.5,110.2,66.5z M120.4,102.8h-17.4H86.3c-1.5,0-2.1-1.3-1.5-2.7l9.3-20.2c0.6-1.4,1.9-1.6,2.9-0.3l9.4,13.4
				c1,1.3,2.5,1.4,3.5,0.3l2.2-2.6c1.1-1.2,2.6-1.1,3.4,0.3l6,9.3C122.4,101.6,121.9,102.8,120.4,102.8z"/>
		</g>
	</g>
</g>
<path class="st1" d="M59.7,99.7c-14.5,0-26.3,11.8-26.3,26.3s11.8,26.3,26.3,26.3c14.5,0,26.3-11.8,26.3-26.3S74.2,99.7,59.7,99.7z
	 M69.2,128.4H62v7.2c0,1.3-1.1,2.4-2.4,2.4s-2.4-1.1-2.4-2.4v-7.2h-7.2c-1.3,0-2.4-1.1-2.4-2.4s1.1-2.4,2.4-2.4h7.2v-7.2
	c0-1.3,1.1-2.4,2.4-2.4s2.4,1.1,2.4,2.4v7.2h7.2c1.3,0,2.4,1.1,2.4,2.4S70.5,128.4,69.2,128.4z"/>
</svg>
