<?xml version="1.0" encoding="utf-8"?>
<!-- Generator: Adobe Illustrator 16.0.0, SVG Export Plug-In . SVG Version: 6.00 Build 0)  -->
<!DOCTYPE svg PUBLIC "-//W3C//DTD SVG 1.1//EN" "http://www.w3.org/Graphics/SVG/1.1/DTD/svg11.dtd">
<svg version="1.1" id="Layer_1" xmlns:xl="http://www.w3.org/1999/xlink"
	 xmlns="http://www.w3.org/2000/svg" xmlns:xlink="http://www.w3.org/1999/xlink" x="0px" y="0px" width="40px" height="37px"
	 viewBox="0 0 40 37" enable-background="new 0 0 40 37" xml:space="preserve">
<g>
	<title>Canvas 4</title>
	<g>
		<title>Layer 1</title>
		<path fill="#E6E6E6" d="M21.04,26.611l2.818,1.763c0.206,0.129,0.43,0.204,0.657,0.228c0.517,0.054,1.031-0.17,1.378-0.598
			c-1.635-1.451-3.463-2.613-5.428-3.523C20.093,25.236,20.329,26.167,21.04,26.611z"/>
		<path fill="#E6E6E6" d="M21.917,22.081c0.271,0.125,0.535,0.258,0.799,0.394c1.379,0.71,2.676,1.564,3.928,2.496
			c0.246,0.184,0.492,0.369,0.736,0.559c0.158-0.365,0.18-0.761,0.077-1.124c-0.106-0.375-0.339-0.713-0.687-0.931l-2.818-1.763
			c-0.207-0.129-0.431-0.204-0.658-0.228c-0.155-0.017-0.311-0.006-0.463,0.024C22.479,21.58,22.159,21.782,21.917,22.081z"/>
		<path fill="#E6E6E6" d="M20.87,23.776c0.748,0.351,1.477,0.736,2.184,1.159c0.441,0.264,0.878,0.537,1.301,0.831
			c0.688,0.477,1.35,0.996,1.986,1.553l0.64-1.078c-0.368-0.287-0.742-0.566-1.118-0.842c-1.016-0.742-2.062-1.434-3.164-2.025
			c-0.402-0.216-0.812-0.415-1.23-0.603L20.87,23.776z"/>
		<path fill="#E6E6E6" d="M24.28,21.157l2.818,1.763c0.4,0.25,0.701,0.622,0.878,1.06c1.96-1.659,4.175-4.357,6.144-7.668
			c3.786-6.369,5.217-12.559,3.193-13.824c-2.022-1.266-6.731,2.872-10.518,9.241c-1.967,3.31-3.291,6.564-3.832,9.11
			c0.132-0.011,0.265-0.015,0.398-0.001C23.69,20.873,23.999,20.98,24.28,21.157z"/>
		<path fill="#E6E6E6" d="M21.04,26.611l2.818,1.763c0.206,0.129,0.43,0.204,0.657,0.228c0.517,0.054,1.031-0.17,1.378-0.598
			c-1.635-1.451-3.463-2.613-5.428-3.523C20.093,25.236,20.329,26.167,21.04,26.611z"/>
		<path fill="#E6E6E6" d="M21.917,22.081c0.271,0.125,0.535,0.258,0.799,0.394c1.379,0.71,2.676,1.564,3.928,2.496
			c0.246,0.184,0.492,0.369,0.736,0.559c0.158-0.365,0.18-0.761,0.077-1.124c-0.106-0.375-0.339-0.713-0.687-0.931l-2.818-1.763
			c-0.207-0.129-0.431-0.204-0.658-0.228c-0.155-0.017-0.311-0.006-0.463,0.024C22.479,21.58,22.159,21.782,21.917,22.081z"/>
		<path fill="#E6E6E6" d="M20.87,23.776c0.748,0.351,1.477,0.736,2.184,1.159c0.441,0.264,0.878,0.537,1.301,0.831
			c0.688,0.477,1.35,0.996,1.986,1.553l0.64-1.078c-0.368-0.287-0.742-0.566-1.118-0.842c-1.016-0.742-2.062-1.434-3.164-2.025
			c-0.402-0.216-0.812-0.415-1.23-0.603L20.87,23.776z"/>
		<path fill="#E6E6E6" d="M5.53,20.089c4.826-2.551,0.088-7.783-1.465-10.414c-0.621-1.053-2.352-0.261-1.72,0.809
			c1.438,2.438,5.798,6.403,1.247,8.397c-1.348,0.59-2.326,1.818-1.55,3.314c0.788,1.516,3.374,1.914,4.806,2.287
			c1.002,0.261,2.034,0.682,2.965,1.185c-0.413,0.142-0.85,0.243-1.269,0.356c-2.116,0.571-6.843,1.966-5.573,5.306
			c1.037,2.727,4.692,3.06,7.535,3.412c-0.029-0.063-0.05-0.134-0.061-0.214c-0.09-0.645,0.447-0.948,1.729-1.512
			c-1.81-0.356-3.647-0.498-5.429-1.02c-3.581-1.052-0.995-3.135,1.152-3.788c1.132-0.345,5.411-0.894,4.212-3.11
			c-0.724-1.338-2.976-1.872-4.216-2.338c-0.854-0.32-1.785-0.479-2.653-0.767C3.19,21.313,4.122,20.834,5.53,20.089z"/>
		<path fill="#E6E6E6" d="M12.995,33.361c-1.443,0.627-2.645,1.13-1.424,1.258c0.331,0.034,0.844,0.041,1.576,0.015
			c0.997-0.035,2.402-0.131,4.331-0.3c10.653-0.937,3.282-7.071,3.282-7.071c-0.509-0.27-1.006-0.417-1.479-0.467
			c-2.587-0.271-4.45,2.416-3.409,4.538C16.179,31.962,14.462,32.726,12.995,33.361z"/>
		<path fill="#E6E6E6" d="M24.28,21.157l2.818,1.763c0.4,0.25,0.701,0.622,0.878,1.06c1.96-1.659,4.175-4.357,6.144-7.668
			c3.786-6.369,5.217-12.559,3.193-13.824c-2.022-1.266-6.731,2.872-10.518,9.241c-1.967,3.31-3.291,6.564-3.832,9.11
			c0.132-0.011,0.265-0.015,0.398-0.001C23.69,20.873,23.999,20.98,24.28,21.157z"/>
		<path fill="#E6E6E6" d="M5.53,20.089c4.826-2.551,0.088-7.783-1.465-10.414c-0.621-1.053-2.352-0.261-1.72,0.809
			c1.438,2.438,5.798,6.403,1.247,8.397c-1.348,0.59-2.326,1.818-1.55,3.314c0.788,1.516,3.374,1.914,4.806,2.287
			c1.002,0.261,2.034,0.682,2.965,1.185c-0.413,0.142-0.85,0.243-1.269,0.356c-2.116,0.571-6.843,1.966-5.573,5.306
			c1.037,2.727,4.692,3.06,7.535,3.412c-0.029-0.063-0.05-0.134-0.061-0.214c-0.09-0.645,0.447-0.948,1.729-1.512
			c-1.81-0.356-3.647-0.498-5.429-1.02c-3.581-1.052-0.995-3.135,1.152-3.788c1.132-0.345,5.411-0.894,4.212-3.11
			c-0.724-1.338-2.976-1.872-4.216-2.338c-0.854-0.32-1.785-0.479-2.653-0.767C3.19,21.313,4.122,20.834,5.53,20.089z"/>
		<path fill="#E6E6E6" d="M12.995,33.361c-1.443,0.627-2.645,1.13-1.424,1.258c0.331,0.034,0.844,0.041,1.576,0.015
			c0.997-0.035,2.402-0.131,4.331-0.3c10.653-0.937,3.282-7.071,3.282-7.071c-0.509-0.27-1.006-0.417-1.479-0.467
			c-2.587-0.271-4.45,2.416-3.409,4.538C16.179,31.962,14.462,32.726,12.995,33.361z"/>
	</g>
</g>
</svg>
