<?xml version="1.0" encoding="utf-8"?>
<!-- Generator: Adobe Illustrator 21.0.2, SVG Export Plug-In . SVG Version: 6.00 Build 0)  -->
<svg version="1.1" id="Layer_1" xmlns="http://www.w3.org/2000/svg" xmlns:xlink="http://www.w3.org/1999/xlink" x="0px" y="0px"
	 viewBox="0 0 302 309.3" style="enable-background:new 0 0 302 309.3;" xml:space="preserve">
<style type="text/css">
	.st0{fill:none;stroke:#1822CD;stroke-width:6;stroke-miterlimit:10;}
	.st1{fill:#1822CD;stroke:#1822CD;stroke-miterlimit:10;}
	.st2{fill:none;stroke:#1822CD;stroke-width:5;stroke-linecap:round;stroke-linejoin:round;}
	.st3{fill:#1822CD;}
</style>
<path id="Shape" class="st0" d="M151.4,296.6L151.4,296.6c-80,0-145.1-65.2-145.1-145.1c0-80,65-145.1,145.1-145.1
	s145.1,65.2,145.1,145.1C296.5,231.6,231.5,296.6,151.4,296.6L151.4,296.6z"/>
<title>Group 3</title>
<desc>Created with Sketch.</desc>
<ellipse transform="matrix(1 -5.725856e-03 5.725856e-03 1 -1.0113 0.5988)" class="st1" cx="104.1" cy="176.9" rx="8.3" ry="17.1"/>
<path class="st2" d="M189.1,208.1c0,0-10.9,23.9-39,24.4v-0.1c-28,0.3-39.6-23.1-39.6-23.1"/>
<path class="st3" d="M201,174h-7.7v-6.8c-0.2-1.4-1.5-2.4-2.9-2.3c-1.2,0.2-2.1,1.1-2.3,2.3v6.8h-7.7c-1.2-0.2-2.4,0.9-2.6,2.1
	c-0.2,1.2,0.9,2.4,2.1,2.6c0.2,0,0.3,0,0.5,0h7.7v6.8c0.2,1.4,1.5,2.4,2.9,2.3c1.2-0.2,2.1-1.1,2.3-2.3v-6.8h7.7
	c1.2,0.2,2.4-0.9,2.6-2.1s-0.9-2.4-2.1-2.6C201.5,174,201.2,174,201,174z"/>
<path class="st3" d="M224.1,99H74c-2.5,0-4.6,2.1-4.6,4.6v114.1c0,22.5,18.2,40.7,40.7,40.7h77.9c22.4,0,40.7-18.2,40.7-40.7V103.6
	C228.7,101.1,226.7,99,224.1,99z M219.6,135.7h-12.2l12.2-18.3V135.7z M115.9,108.1l-18.3,27.6H81.7l18.4-27.6H115.9L115.9,108.1z
	 M125.2,108.1H141l-18.4,27.6h-15.8L125.2,108.1z M150.3,108.1h15.8l-18.4,27.6h-15.8L150.3,108.1z M175.5,108.1h15.8L173,135.7
	h-15.8L175.5,108.1z M200.7,108.1h15.8l-18.4,27.6h-15.8L200.7,108.1z M90.7,108.1l-12.2,18.3v-18.3
	C78.5,108.1,90.7,108.1,90.7,108.1z M188,249.2h-77.9c-17.4,0-31.6-14.2-31.6-31.6v-72.8h141.1v72.8
	C219.6,235,205.4,249.2,188,249.2z"/>
<path class="st3" d="M156.4,203.1l-10-5.8c-0.3-0.2-0.8-0.2-1.1,0c-0.3,0.2-0.6,0.6-0.6,1v11.5c0,0.4,0.2,0.8,0.6,1
	c0.2,0.1,0.4,0.1,0.6,0.1c0.2,0,0.4-0.1,0.6-0.1l10-5.8c0.3-0.2,0.6-0.6,0.6-1C157,203.6,156.8,203.3,156.4,203.1z M147,207.9v-7.7
	l6.7,3.8L147,207.9z"/>
<g>
	<path class="st3" d="M46.6,97.3c0-11.6,9.4-21,21-21c1,0,1.7-0.8,1.7-1.7c0-1-0.8-1.7-1.7-1.7c-13.5,0-24.5,11-24.5,24.5
		c0,1,0.8,1.7,1.7,1.7C45.9,99,46.6,98.2,46.6,97.3z"/>
	<path class="st3" d="M67.7,80.7c-9.1,0-16.6,7.4-16.6,16.6c0,1,0.8,1.7,1.7,1.7c1,0,1.7-0.8,1.7-1.7c0-7.2,5.9-13.1,13.1-13.1
		c1,0,1.7-0.8,1.7-1.7C69.4,81.4,68.6,80.7,67.7,80.7z"/>
	<path class="st3" d="M67.7,88.6c-4.8,0-8.7,3.9-8.7,8.7c0,1,0.8,1.7,1.7,1.7c1,0,1.7-0.8,1.7-1.7c0-2.9,2.3-5.2,5.2-5.2
		c1,0,1.7-0.8,1.7-1.7C69.4,89.3,68.6,88.6,67.7,88.6z"/>
</g>
<g>
	<path class="st3" d="M230.5,76.2c11.6,0,21,9.4,21,21c0,1,0.8,1.7,1.7,1.7c1,0,1.7-0.8,1.7-1.7c0-13.5-11-24.5-24.5-24.5
		c-1,0-1.7,0.8-1.7,1.7C228.7,75.4,229.5,76.2,230.5,76.2z"/>
	<path class="st3" d="M247.1,97.2c0-9.1-7.4-16.6-16.6-16.6c-1,0-1.7,0.8-1.7,1.7c0,1,0.8,1.7,1.7,1.7c7.2,0,13.1,5.9,13.1,13.1
		c0,1,0.8,1.7,1.7,1.7C246.3,99,247.1,98.2,247.1,97.2z"/>
	<path class="st3" d="M239.1,97.2c0-4.8-3.9-8.7-8.7-8.7c-1,0-1.7,0.8-1.7,1.7c0,1,0.8,1.7,1.7,1.7c2.9,0,5.2,2.3,5.2,5.2
		c0,1,0.8,1.7,1.7,1.7S239.1,98.2,239.1,97.2z"/>
</g>
</svg>
