<?xml version="1.0" encoding="utf-8"?>
<!-- Generator: Adobe Illustrator 21.0.2, SVG Export Plug-In . SVG Version: 6.00 Build 0)  -->
<svg version="1.1" id="Layer_1" xmlns:xl="http://www.w3.org/1999/xlink"
	 xmlns="http://www.w3.org/2000/svg" xmlns:xlink="http://www.w3.org/1999/xlink" x="0px" y="0px" viewBox="0 0 204.7 206.9"
	 style="enable-background:new 0 0 204.7 206.9;" xml:space="preserve">
<style type="text/css">
	.st0{fill:none;stroke:#1822CD;stroke-miterlimit:10;}
	.st1{fill:#1822CD;stroke:#1822CD;stroke-miterlimit:10;}
	.st2{fill:none;stroke:#1822CD;stroke-width:4;stroke-miterlimit:10;}
</style>
<title>Layer 1</title>
<title>Canvas 4</title>
<title>Layer 1</title>
<path class="st0" d="M102,201.9L102,201.9c-53.3,0-96.6-43.4-96.6-96.6C5.4,52,48.7,8.7,102,8.7c53.3,0,96.6,43.4,96.6,96.6
	C198.6,158.6,155.3,201.9,102,201.9z"/>
<path class="st1" d="M156,66.2H51.8c-7.2,0-13,4.4-13,9.8l-0.1,88.4l26-19.6H156c7.2,0,13-4.4,13-9.8V76
	C169,70.6,163.1,66.2,156,66.2z M137,106c-8,10.6-18.8,17.2-30.8,17.2c-12,0-22.8-6.5-30.8-17.2c-0.7-0.9-0.7-2.1,0-3
	c8-10.6,18.8-17.2,30.8-17.2s22.8,6.5,30.8,17.2C137.7,103.9,137.7,105.2,137,106z"/>
<path class="st1" d="M105.4,91.4c-6.6,0.4-11.9,5.7-12.3,12.3c-0.5,7.9,6.1,14.5,14,14c6.5-0.4,11.8-5.7,12.3-12.3
	C119.9,97.5,113.3,90.9,105.4,91.4z M113.3,105c-0.2,3.5-3.1,6.4-6.6,6.6c-4.3,0.3-7.8-3.3-7.5-7.5c0.2-3.5,3.1-6.4,6.6-6.6
	C110.1,97.2,113.6,100.7,113.3,105z"/>
<g>
	<polyline class="st2" points="124.4,55.5 137.5,51.6 133.6,38.4 	"/>
	<path class="st2" d="M67.4,52.6c16.1-16.9,42.2-19.6,61.5-6.4"/>
</g>
</svg>
