<?xml version="1.0" encoding="utf-8"?>
<!-- Generator: Adobe Illustrator 16.0.0, SVG Export Plug-In . SVG Version: 6.00 Build 0)  -->
<!DOCTYPE svg PUBLIC "-//W3C//DTD SVG 1.1//EN" "http://www.w3.org/Graphics/SVG/1.1/DTD/svg11.dtd">
<svg version="1.1" id="Layer_1" xmlns:xl="http://www.w3.org/1999/xlink"
	 xmlns="http://www.w3.org/2000/svg" xmlns:xlink="http://www.w3.org/1999/xlink" x="0px" y="0px" width="214.489px"
	 height="206.9px" viewBox="0 0 214.489 206.9" enable-background="new 0 0 214.489 206.9" xml:space="preserve">
<path fill="none" stroke="#E6E6E6" stroke-width="3" stroke-miterlimit="10" d="M106.346,203.698L106.346,203.698
	c-53.955,0-97.88-43.922-97.88-97.879c0-53.958,43.925-97.88,97.88-97.88c53.953,0,97.879,43.922,97.879,97.88
	C204.225,159.776,160.299,203.698,106.346,203.698z"/>
<title>Canvas 4</title>
<g>
	<title>Layer 1</title>
	<path fill="#E6E6E6" d="M99.916,145.064c-6.555,0-12.464-2.416-16.636-6.514h46.32c-4.168,4.101-10.081,6.514-16.638,6.514H99.916z
		 M92.4,127.938v4.103H78.687c-0.611-1.202-1.062-2.654-1.324-4.103H92.4z M98.917,127.938h14.953v4.103H98.917V127.938z
		 M134.028,132.523c-0.448-0.231-0.954-0.482-1.493-0.482h-12.155v-4.101h15.14C135.228,129.385,134.717,131.035,134.028,132.523
		 M139.05,121.429H73.824c-1.793,0-3.246,1.406-3.246,3.2c0,3.812,0.858,7.417,2.411,10.711c0,0.036-0.007,0.055-0.007,0.082
		c0,1.184,0.639,2.174,1.585,2.742c5.091,8.041,14.547,13.415,25.348,13.415h13.047c16.178,0,29.339-12.061,29.339-26.988
		C142.298,122.79,140.842,121.429,139.05,121.429"/>
	<path fill="#E6E6E6" d="M128.261,97.071c4.291,0,7.769-3.479,7.769-7.77c0-4.294-3.478-7.769-7.769-7.769
		c-4.285,0-7.765,3.475-7.765,7.769C120.497,93.593,123.976,97.071,128.261,97.071z"/>
	<path fill="#E6E6E6" d="M83.6,97.071c4.294,0,7.767-3.479,7.767-7.77c0-4.294-3.471-7.769-7.767-7.769
		c-4.289,0-7.764,3.475-7.764,7.769C75.835,93.593,79.311,97.071,83.6,97.071z"/>
	<path fill="#E6E6E6" d="M106.029,167.956c-33.611,0-60.954-27.354-60.954-60.972c0-33.621,27.342-60.973,60.954-60.973
		c33.611,0,60.958,27.352,60.958,60.973C166.987,140.603,139.64,167.956,106.029,167.956 M106.029,39.514
		c-37.189,0-67.449,30.267-67.449,67.47c0,37.198,30.26,67.468,67.449,67.468c37.194,0,67.457-30.265,67.457-67.468
		C173.486,69.78,143.223,39.514,106.029,39.514"/>
</g>
</svg>
