<svg id="Layer_1" data-name="Layer 1" xmlns="http://www.w3.org/2000/svg" viewBox="0 0 183 183"><defs><style>.cls-1{fill:#e6e6e6;}</style></defs><title>button_selection_white2</title><g id="Page-1"><g id="Icon-Set-Filled"><path id="selection" class="cls-1" d="M178.13,167.69a11.44,11.44,0,0,1-11.44,11.44H132.38V202h45.75A22.88,22.88,0,0,0,201,179.13V133.38H178.13v34.31Zm0-148.69H132.38V41.88h34.31a11.44,11.44,0,0,1,11.44,11.44V87.63H201V41.88A22.88,22.88,0,0,0,178.13,19ZM18,41.88V87.63H40.88V53.31A11.44,11.44,0,0,1,52.31,41.88H86.63V19H40.88A22.88,22.88,0,0,0,18,41.88ZM40.88,167.69V133.38H18v45.75A22.88,22.88,0,0,0,40.88,202H86.63V179.13H52.31a11.44,11.44,0,0,1-11.44-11.44Z" transform="translate(-18 -19)"/></g></g></svg>