<?xml version="1.0" encoding="utf-8"?>
<!-- Generator: Adobe Illustrator 21.0.2, SVG Export Plug-In . SVG Version: 6.00 Build 0)  -->
<svg version="1.1" id="Layer_1" xmlns:xl="http://www.w3.org/1999/xlink"
	 xmlns="http://www.w3.org/2000/svg" xmlns:xlink="http://www.w3.org/1999/xlink" x="0px" y="0px" viewBox="0 0 295 295"
	 style="enable-background:new 0 0 295 295;" xml:space="preserve">
<style type="text/css">
	.st0{fill:#1822CD;}
	.st1{fill:none;stroke:#1822CD;stroke-width:5;stroke-linecap:round;stroke-linejoin:round;}
	.st2{fill:#FF3300;}
	.st3{fill:#FFFFFF;}
	.st4{fill:none;stroke:#1822CD;stroke-width:3;stroke-miterlimit:10;}
	.st5{fill:#339933;}
</style>
<path id="Shape_3_" class="st0" d="M226.7,168.4c-2,0-3.6,1.8-3.6,4.1v33.1c0,6.8-4.9,12.4-11,12.4H87.5c-6,0-11-5.6-11-12.4v-33.1
	c0-2.3-1.6-4.1-3.6-4.1s-3.6,1.8-3.6,4.1v33.1c0,11.4,8.2,20.7,18.3,20.7H212c10.1,0,18.3-9.3,18.3-20.7v-33.1
	C230.3,170.3,228.7,168.4,226.7,168.4L226.7,168.4z"/>
<path id="Shape_1_" class="st0" d="M75.9,152.5v-36.6c0-6,4.9-11,11-11h29.3c2,0,3.6-1.6,3.6-3.6c0-14.4,15.7-25.6,29.3-25.6
	c9.5,0,19.6,5.3,25.1,13.1c1.2,1.6,3.5,2,5.1,0.9c1.6-1.2,2-3.5,0.9-5.1c-6.2-8.8-16.7-14.8-27.5-16v-8.2c4.3-1.6,7.3-5.6,7.3-10.4
	c0-6-4.9-11-11-11s-11,4.9-11,11c0,4.8,3.1,8.8,7.3,10.3v8.2c-15.1,1.7-30.6,13.3-32.7,29.1H86.9c-10.1,0-18.3,8.2-18.3,18.3v33h-8
	c-1.5-4.2-5.5-7.3-10.3-7.3c-6,0-11,4.9-11,11s4.9,11,11,11c4.8,0,8.8-3.1,10.3-7.3h11.7C74.3,156.2,75.9,154.5,75.9,152.5
	L75.9,152.5z M149.2,46.3c2,0,3.6,1.6,3.6,3.6s-1.6,3.6-3.6,3.6s-3.6-1.6-3.6-3.6C145.5,47.9,147.2,46.3,149.2,46.3L149.2,46.3z
	 M50.3,156.2c-2,0-3.6-1.6-3.6-3.6s1.6-3.6,3.6-3.6s3.6,1.6,3.6,3.6S52.3,156.2,50.3,156.2L50.3,156.2z"/>
<path id="Shape_2_" class="st0" d="M248.1,141.5c-4.8,0-8.8,3.1-10.3,7.3h-8v-33c0-10.1-8.2-18.3-18.3-18.3h-80.6
	c-2,0-3.6,1.6-3.6,3.6s1.6,3.6,3.6,3.6h80.6c6,0,11,4.9,11,11v36.6c0,2,1.6,3.6,3.6,3.6h11.7c1.5,4.2,5.5,7.3,10.3,7.3
	c6,0,11-4.9,11-11C259.1,146.4,254.1,141.5,248.1,141.5L248.1,141.5z M248.1,156.2c-2,0-3.6-1.6-3.6-3.6s1.6-3.6,3.6-3.6
	s3.6,1.6,3.6,3.6S250.1,156.2,248.1,156.2L248.1,156.2z"/>
<path id="Shape_9_" class="st0" d="M43.1,200.2c-1.1,0-1.8-0.4-2.6-1.1c-24.6-24.6-24.6-64.8,0-89.4c1.5-1.5,3.7-1.5,5.2,0
	s1.5,3.7,0,5.2c-21.6,21.6-21.6,57.4,0,79c1.5,1.5,1.5,3.7,0,5.2C44.9,199.8,44.2,200.2,43.1,200.2L43.1,200.2z"/>
<path id="Shape_10_" class="st0" d="M257.9,200c-1.1,0-1.8-0.4-2.6-1.1c-1.5-1.5-1.5-3.7,0-5.2c21.6-21.6,21.6-57.4,0-79
	c-1.5-1.5-1.5-3.7,0-5.2s3.7-1.5,5.2,0c24.6,24.6,24.6,64.8,0,89.4C259.7,199.6,259,200,257.9,200L257.9,200z"/>
<ellipse class="st0" cx="104.7" cy="145.8" rx="8.7" ry="17.9"/>
<path class="st0" d="M204,143.4h-7.8v-7c-0.2-1.5-1.5-2.5-2.9-2.3c-1.2,0.2-2.1,1.1-2.3,2.3v7h-7.8c-1.3-0.2-2.4,0.8-2.6,2
	c-0.2,1.3,0.8,2.4,2,2.6c0.2,0,0.4,0,0.5,0h7.8v7c0.2,1.5,1.5,2.5,2.9,2.3c1.2-0.2,2.1-1.1,2.3-2.3v-7h7.8c1.3,0.2,2.4-0.8,2.6-2
	c0.2-1.3-0.8-2.4-2-2.6C204.4,143.4,204.2,143.4,204,143.4z"/>
<path class="st1" d="M108.4,179.2c0,0,11.9,24.6,40.9,24.3"/>
<path class="st1" d="M189.9,178.5c0,0-11.4,24.8-40.5,25.1"/>
<title>Layer 1</title>
<title>Canvas 4</title>
<title>Layer 1</title>
<g>
	<circle class="st2" cx="217.1" cy="101.2" r="36.2"/>
	<path class="st3" d="M230.2,98.1h-9.9v-9.9c0-1.8-1.5-3.3-3.3-3.3s-3.3,1.5-3.3,3.3v9.9h-9.9c-1.8,0-3.3,1.5-3.3,3.3
		s1.5,3.3,3.3,3.3h9.9v9.9c0,1.8,1.5,3.3,3.3,3.3s3.3-1.5,3.3-3.3v-9.9h9.9c1.8,0,3.3-1.5,3.3-3.3S232,98.1,230.2,98.1z"/>
</g>
<path id="Shape" class="st4" d="M149.1,289.3L149.1,289.3c-77.8,0-141-63.3-141-141c0-77.8,63.2-141,141-141s141,63.3,141,141
	C290.1,226.1,226.9,289.3,149.1,289.3L149.1,289.3z"/>
<g>
	<path class="st5" d="M466.5,165.2c-21.2,0-38.4,17.2-38.4,38.4s17.2,38.4,38.4,38.4s38.4-17.2,38.4-38.4S487.7,165.2,466.5,165.2z"
		/>
	<path class="st3" d="M488.6,195.4l-24.1,24.1c-1,1-2.5,1.6-3.9,1.6s-2.8-0.6-3.9-1.6l-12.3-12.3c-1-1-1.6-2.5-1.6-3.9
		c0-1.4,0.6-2.8,1.6-3.9c1-1,2.5-1.6,3.9-1.6s2.8,0.6,3.9,1.6l8.5,8.5l20.2-20.2c1-1,2.5-1.6,3.9-1.6c1.4,0,2.8,0.6,3.9,1.6
		C490.8,189.8,490.8,193.2,488.6,195.4z"/>
</g>
</svg>
