<?xml version="1.0" encoding="utf-8"?>
<!-- Generator: Adobe Illustrator 16.0.0, SVG Export Plug-In . SVG Version: 6.00 Build 0)  -->
<!DOCTYPE svg PUBLIC "-//W3C//DTD SVG 1.1//EN" "http://www.w3.org/Graphics/SVG/1.1/DTD/svg11.dtd">
<svg version="1.1" id="Layer_1" xmlns="http://www.w3.org/2000/svg" xmlns:xlink="http://www.w3.org/1999/xlink" x="0px" y="0px"
	 width="960px" height="560px" viewBox="0 0 960 560" enable-background="new 0 0 960 560" xml:space="preserve">
<g>
	<path d="M675.993,431.694c-5.161,0-9.333,4.726-9.333,10.547v84.379c0,17.445-12.562,31.644-27.999,31.644H321.338
		c-15.437,0-27.999-14.196-27.999-31.644v-84.379c0-5.821-4.171-10.547-9.333-10.547c-5.161,0-9.333,4.726-9.333,10.547v84.379
		c0,29.079,20.934,52.737,46.666,52.737h317.322c25.73,0,46.666-23.657,46.666-52.737v-84.379
		C685.326,436.42,681.154,431.694,675.993,431.694z"/>
	<path d="M293.349,290.98v-87.84c0-14.529,12.562-26.352,27.999-26.352h74.664c5.161,0,9.333-3.937,9.333-8.784
		c0-34.626,40.144-61.488,74.665-61.488c24.284,0,49.996,12.623,64.006,31.412c2.959,3.962,8.772,4.938,13.001,2.152
		c4.221-2.793,5.245-8.267,2.277-12.236c-15.81-21.222-42.53-35.592-69.951-38.325V69.763c10.836-3.646,18.667-13.298,18.667-24.736
		c0-14.529-12.562-26.352-27.999-26.352c-15.437,0-27.999,11.823-27.999,26.352c0,11.437,7.829,21.091,18.666,24.727v19.737
		c-38.462,4.004-77.959,32.018-83.372,69.728h-65.958c-25.731,0-46.666,19.703-46.666,43.92l-0.018,79.057h-20.382
		c-3.873-10.208-14.13-17.569-26.282-17.569c-15.437,0-27.999,11.823-27.999,26.353s12.562,26.352,27.999,26.352
		c12.151,0,22.409-7.361,26.282-17.568h29.734C289.177,299.764,293.349,295.828,293.349,290.98z M480.01,36.243
		c5.15,0,9.332,3.944,9.332,8.784s-4.182,8.784-9.332,8.784s-9.333-3.944-9.333-8.784C470.677,40.188,474.857,36.243,480.01,36.243z
		 M227.999,299.764c-5.151,0-9.333-3.942-9.333-8.783c0-4.842,4.181-8.784,9.333-8.784s9.333,3.942,9.333,8.784
		C237.332,295.821,233.15,299.764,227.999,299.764z"/>
	<path d="M732.001,264.628c-12.151,0-22.408,7.361-26.272,17.569h-20.393v-79.057c0-24.217-20.935-43.921-46.666-43.921H433.344
		c-5.161,0-9.333,3.936-9.333,8.784c0,4.849,4.172,8.784,9.333,8.784H638.67c15.438,0,27.999,11.823,27.999,26.353v87.841
		c0,4.847,4.172,8.782,9.333,8.782h29.727c3.863,10.208,14.12,17.569,26.271,17.569c15.438,0,27.999-11.822,27.999-26.352
		C760,276.451,747.438,264.628,732.001,264.628z M732.001,299.764c-5.151,0-9.333-3.942-9.333-8.783
		c0-4.842,4.182-8.784,9.333-8.784s9.333,3.942,9.333,8.784C741.334,295.821,737.153,299.764,732.001,299.764z"/>
	<g>
		<path d="M632.946,281.999c0-17.564-14.291-31.856-31.855-31.856c-17.563,0-31.856,14.292-31.856,31.856
			c0,17.564,14.293,31.857,31.856,31.857C618.655,313.856,632.946,299.56,632.946,281.999z M590.472,281.999
			c0-5.852,4.757-10.619,10.617-10.619c5.862,0,10.62,4.768,10.62,10.619c0,5.85-4.758,10.619-10.62,10.619
			C595.229,292.618,590.472,287.847,590.472,281.999z"/>
		<path d="M399.334,281.999c0-17.564-14.292-31.856-31.856-31.856c-17.563,0-31.856,14.292-31.856,31.856
			c0,17.564,14.292,31.857,31.856,31.857C385.042,313.856,399.334,299.56,399.334,281.999z M367.478,292.616
			c-5.861,0-10.619-4.768-10.619-10.619s4.757-10.618,10.619-10.618s10.619,4.767,10.619,10.618
			C378.098,287.847,373.34,292.616,367.478,292.616z"/>
	</g>
	<path d="M129.003,491.507c-2.847,0-4.746-0.949-6.645-2.847c-107.254-107.254-107.254-281.898,0-389.152
		c3.796-3.797,9.492-3.797,13.288,0c3.796,3.796,3.796,9.49,0,13.287c-99.661,99.662-99.661,262.916,0,362.576
		c3.796,3.797,3.796,9.491,0,13.288C133.75,490.559,131.851,491.507,129.003,491.507z"/>
	<path d="M837.678,490.98c-2.848,0-4.746-0.949-6.645-2.849c-3.797-3.797-3.797-9.491,0-13.288
		c48.406-48.405,74.98-112.947,74.98-181.287c0-68.337-26.574-132.883-74.98-181.288c-3.797-3.797-3.797-9.492,0-13.289
		c3.797-3.796,9.492-3.796,13.289,0C896.525,151.186,925,219.524,925,293.559c0,74.033-28.475,142.372-80.678,194.575
		C842.422,490.032,840.525,490.98,837.678,490.98z"/>
	<path d="M169.817,451.644c-2.847,0-4.746-0.947-6.645-2.848c-85.424-85.424-85.424-223.999,0-308.474
		c3.796-3.797,9.492-3.797,13.288,0c3.796,3.796,3.796,9.49,0,13.287c-77.83,76.882-77.83,204.067,0,280.949
		c3.796,3.799,3.796,9.492,0,13.288C174.562,450.694,171.716,451.644,169.817,451.644z"/>
	<path d="M797.812,451.117c-2.848,0-4.746-0.949-6.646-2.85c-3.795-3.796-3.795-9.489,0-13.286
		c37.967-37.968,57.898-87.321,57.898-140.476c0-53.153-20.883-103.458-57.898-140.476c-3.795-3.796-3.795-9.491,0-13.287
		c3.797-3.797,9.492-3.797,13.289,0c40.812,39.863,63.592,93.966,63.592,152.812c0,57.898-22.779,112.948-63.592,154.711
		C802.559,450.168,799.711,451.117,797.812,451.117z"/>
	<path d="M209.682,410.83c-2.847,0-4.746-0.949-6.645-2.847c-62.645-62.646-62.645-165.153,0-227.797
		c3.796-3.796,9.492-3.796,13.288,0c3.796,3.796,3.796,9.491,0,13.288c-55.05,55.051-55.05,146.168,0,201.221
		c3.796,3.796,3.796,9.489,0,13.288C214.428,409.881,212.529,410.83,209.682,410.83z"/>
	<path d="M757,410.304c-2.848,0-4.746-0.947-6.645-2.847c-3.799-3.797-3.799-9.492,0-13.288c55.051-55.051,55.051-146.17,0-201.221
		c-3.799-3.797-3.799-9.492,0-13.288c3.797-3.796,9.49-3.796,13.285,0c62.646,62.645,62.646,165.152,0,227.797
		C761.746,409.354,759.848,410.304,757,410.304z"/>
	<rect id="_x3C_Slice_x3E_" x="312.501" y="289.006" fill="none" width="362" height="67.994"/>
	<text transform="matrix(1 0 0 1 261.5 401)" font-family="'AvenirNext-BoldItalic'" font-size="100">Channels</text>
	<path fill="none" stroke="#000000" stroke-width="14" stroke-linecap="round" stroke-linejoin="round" d="M346.359,431.694
		c0,41.966,59.208,105.659,132.753,105.659c73.542,0,117.942-55.772,133.572-99.56"/>
	<g>
		
			<line fill="none" stroke="#000000" stroke-width="14" stroke-linecap="round" stroke-linejoin="round" x1="457.447" y1="459.446" x2="502.553" y2="459.446"/>
		
			<line fill="none" stroke="#000000" stroke-width="14" stroke-linecap="round" stroke-linejoin="round" x1="479.31" y1="437.984" x2="479.31" y2="482.269"/>
	</g>
</g>
</svg>
