<?xml version="1.0" encoding="utf-8"?>
<!-- Generator: Adobe Illustrator 21.0.2, SVG Export Plug-In . SVG Version: 6.00 Build 0)  -->
<svg version="1.1" id="Layer_1" xmlns="http://www.w3.org/2000/svg" xmlns:xlink="http://www.w3.org/1999/xlink" x="0px" y="0px"
	 viewBox="0 0 884 492" style="enable-background:new 0 0 884 492;" xml:space="preserve">
<style type="text/css">
	.st0{fill:#E6E6E6;}
	.st1{fill:none;stroke:#E6E6E6;stroke-width:11;stroke-linecap:round;stroke-linejoin:round;}
</style>
<title>Group</title>
<desc>Created with Sketch.</desc>
<path id="Shape" class="st0" d="M636.5,329.8c-5.2,0-9.3,4.7-9.3,10.5v84.4c0,17.4-12.6,31.6-28,31.6H281.8c-15.4,0-28-14.2-28-31.6
	v-84.4c0-5.8-4.2-10.5-9.3-10.5c-5.2,0-9.3,4.7-9.3,10.5v84.4c0,29.1,20.9,52.7,46.7,52.7h317.3c25.7,0,46.7-23.7,46.7-52.7v-84.4
	C645.8,334.6,641.7,329.8,636.5,329.8L636.5,329.8z"/>
<path id="Shape_1_" class="st0" d="M252.3,289.3V196c0-15.4,12.6-28,28-28H355c5.2,0,9.3-4.2,9.3-9.3c0-36.8,40.1-65.3,74.7-65.3
	c24.3,0,50,13.4,64,33.4c3,4.2,8.8,5.2,13,2.3c4.2-3,5.2-8.8,2.3-13c-15.8-22.5-42.5-37.8-70-40.7v-21C459.2,50.4,467,40.2,467,28
	c0-15.4-12.6-28-28-28c-15.4,0-28,12.6-28,28c0,12.2,7.8,22.4,18.7,26.3v21c-38.5,4.3-78,34-83.4,74.1h-66
	c-25.7,0-46.7,20.9-46.7,46.7l0,84h-20.4c-3.9-10.8-14.1-18.7-26.3-18.7c-15.4,0-28,12.6-28,28c0,15.4,12.6,28,28,28
	c12.2,0,22.4-7.8,26.3-18.7H243C248.2,298.7,252.3,294.5,252.3,289.3L252.3,289.3z M439,18.7c5.1,0,9.3,4.2,9.3,9.3
	s-4.2,9.3-9.3,9.3c-5.2,0-9.3-4.2-9.3-9.3C429.7,22.9,433.9,18.7,439,18.7L439,18.7z M187,298.7c-5.2,0-9.3-4.2-9.3-9.3
	c0-5.1,4.2-9.3,9.3-9.3c5.2,0,9.3,4.2,9.3,9.3C196.3,294.5,192.1,298.7,187,298.7L187,298.7z"/>
<path id="Shape_2_" class="st0" d="M691,261.3c-12.2,0-22.4,7.8-26.3,18.7h-20.4v-84c0-25.7-20.9-46.7-46.7-46.7H392.3
	c-5.2,0-9.3,4.2-9.3,9.3c0,5.2,4.2,9.3,9.3,9.3h205.3c15.4,0,28,12.6,28,28v93.3c0,5.1,4.2,9.3,9.3,9.3h29.7
	c3.9,10.8,14.1,18.7,26.3,18.7c15.4,0,28-12.6,28-28C719,273.9,706.4,261.3,691,261.3L691,261.3z M691,298.7c-5.2,0-9.3-4.2-9.3-9.3
	c0-5.1,4.2-9.3,9.3-9.3s9.3,4.2,9.3,9.3C700.3,294.5,696.2,298.7,691,298.7L691,298.7z"/>
<path id="Shape_5_" class="st0" d="M88,491.5c-2.8,0-4.7-0.9-6.6-2.8c-107.3-107.3-107.3-281.9,0-389.2c3.8-3.8,9.5-3.8,13.3,0
	c3.8,3.8,3.8,9.5,0,13.3C-5,212.5-5,375.7,94.6,475.4c3.8,3.8,3.8,9.5,0,13.3C92.8,490.6,90.9,491.5,88,491.5L88,491.5z"/>
<path id="Shape_6_" class="st0" d="M796.7,491c-2.8,0-4.7-0.9-6.6-2.8c-3.8-3.8-3.8-9.5,0-13.3c48.4-48.4,75-112.9,75-181.3
	c0-68.3-26.6-132.9-75-181.3c-3.8-3.8-3.8-9.5,0-13.3c3.8-3.8,9.5-3.8,13.3,0c52.2,52.2,80.7,120.5,80.7,194.6
	c0,74-28.5,142.4-80.7,194.6C801.4,490,799.5,491,796.7,491L796.7,491z"/>
<path id="Shape_7_" class="st0" d="M128.8,451.6c-2.8,0-4.7-0.9-6.6-2.8c-85.4-85.4-85.4-224,0-308.5c3.8-3.8,9.5-3.8,13.3,0
	c3.8,3.8,3.8,9.5,0,13.3c-77.8,76.9-77.8,204.1,0,280.9c3.8,3.8,3.8,9.5,0,13.3C133.6,450.7,130.7,451.6,128.8,451.6L128.8,451.6z"
	/>
<path id="Shape_8_" class="st0" d="M756.8,451.1c-2.8,0-4.7-0.9-6.6-2.8c-3.8-3.8-3.8-9.5,0-13.3c38-38,57.9-87.3,57.9-140.5
	c0-53.2-20.9-103.5-57.9-140.5c-3.8-3.8-3.8-9.5,0-13.3c3.8-3.8,9.5-3.8,13.3,0c40.8,39.9,63.6,94,63.6,152.8
	c0,57.9-22.8,112.9-63.6,154.7C761.6,450.2,758.7,451.1,756.8,451.1L756.8,451.1z"/>
<path id="Shape_9_" class="st0" d="M168.7,410.8c-2.8,0-4.7-0.9-6.6-2.8c-62.6-62.6-62.6-165.2,0-227.8c3.8-3.8,9.5-3.8,13.3,0
	c3.8,3.8,3.8,9.5,0,13.3c-55,55.1-55,146.2,0,201.2c3.8,3.8,3.8,9.5,0,13.3C173.4,409.9,171.5,410.8,168.7,410.8L168.7,410.8z"/>
<path id="Shape_10_" class="st0" d="M716,410.3c-2.8,0-4.7-0.9-6.6-2.8c-3.8-3.8-3.8-9.5,0-13.3c55.1-55.1,55.1-146.2,0-201.2
	c-3.8-3.8-3.8-9.5,0-13.3c3.8-3.8,9.5-3.8,13.3,0c62.6,62.6,62.6,165.2,0,227.8C720.7,409.4,718.8,410.3,716,410.3L716,410.3z"/>
<g>
	<ellipse class="st0" cx="325.7" cy="272.2" rx="22.1" ry="45.5"/>
	<path class="st0" d="M573.7,266.3h-20v-17.8c-0.5-3.7-3.8-6.3-7.5-5.8c-3,0.4-5.4,2.8-5.8,5.8v17.8h-20c-3.3-0.4-6.2,2-6.6,5.2
		c-0.4,3.3,2,6.2,5.2,6.6c0.4,0.1,0.9,0.1,1.4,0h20v17.8c0.5,3.7,3.8,6.3,7.5,5.8c3-0.4,5.4-2.8,5.8-5.8v-17.8h20
		c3.3,0.4,6.2-2,6.6-5.2s-2-6.2-5.2-6.6C574.6,266.3,574.2,266.3,573.7,266.3z"/>
	<path class="st1" d="M335.1,357.5c0,0,30.2,62.8,104.3,62"/>
	<path class="st1" d="M542.7,355.7c0,0-29.1,63.2-103.2,64"/>
</g>
</svg>
