<?xml version="1.0" encoding="utf-8"?>
<!-- Generator: Adobe Illustrator 16.0.0, SVG Export Plug-In . SVG Version: 6.00 Build 0)  -->
<!DOCTYPE svg PUBLIC "-//W3C//DTD SVG 1.1//EN" "http://www.w3.org/Graphics/SVG/1.1/DTD/svg11.dtd">
<svg version="1.1" id="Capa_1" xmlns="http://www.w3.org/2000/svg" xmlns:xlink="http://www.w3.org/1999/xlink" x="0px" y="0px"
	 width="337.484px" height="217.489px" viewBox="0 0 337.484 217.489" enable-background="new 0 0 337.484 217.489"
	 xml:space="preserve">
<title>Canvas 1</title>
<title>Layer 1</title>
<path opacity="0.6" fill="#E6E6E6" stroke="#E6E6E6" stroke-width="4" stroke-miterlimit="10" enable-background="new    " d="
	M39.76,136.891c-5.83-0.891-11.413-3.568-15.822-7.979c-6.688-6.687-9.317-15.896-7.961-24.594c-1.103-1.287-1.706-2.57-0.422-3.856
	c0.339,0.34,0.668,0.688,1.005,1.03c1.238-4.731,3.68-9.215,7.381-12.916c8.864-8.863,19.644-12.653,32.058-11.248
	c1.879,0.209,3.769,0.547,5.646,0.982L44.318,95.638c-7.229,7.229-7.224,18.979,0,26.202l12.466,12.466
	c-2.486,1.229-5.112,2.049-7.783,2.504c2.266,2.472,4.553,4.916,6.867,7.336c2.556-0.839,5.046-1.935,7.41-3.347l59.661,59.662
	c4.391,4.39,10.215,6.812,16.429,6.812h170.809c10.218-0.008,18.524-8.314,18.529-18.531l-0.017-159.998
	c0.007-5.108-2.066-9.741-5.42-13.094c-3.355-3.354-7.994-5.437-13.104-5.431l-170.801-0.007c-6.203,0.01-12.048,2.424-16.431,6.809
	L68.803,71.154c-3.879-1.248-7.844-2.14-11.817-2.586c-15.007-1.701-28.58,3.06-39.289,13.769
	C11.32,88.712,7.738,96.84,6.946,105.183c2.812-0.47,5.672-0.884,8.607-1.211c-2.937,0.327-5.795,0.741-8.607,1.211
	c-1.021,10.713,2.563,21.784,10.751,29.971c10.151,10.153,25.089,13.296,38.169,8.994c-2.315-2.421-4.603-4.866-6.867-7.336
	C45.94,137.334,42.814,137.357,39.76,136.891 M71.044,81.387c7.688,3.199,14.973,7.906,21.202,13.206
	c-7.018,9.098-6.354,22.246,1.981,30.582c9.057,9.06,23.8,9.058,32.856,0c9.062-9.062,9.062-23.804,0.004-32.862
	c-7.617-7.617-19.256-8.822-28.148-3.634c-6.231-5.442-13.444-10.349-21.19-13.994l51.424-51.424
	c2.723-2.724,6.34-4.213,10.19-4.222l170.799,0.009c5.362-0.003,9.713,4.347,9.709,9.707l0.004,159.985
	c0,5.354-4.354,9.711-9.706,9.705l-170.797,0.004c-3.852,0-7.476-1.498-10.199-4.223l-78.621-78.621
	c-3.78-3.781-3.782-9.943,0.003-13.728L71.044,81.387z M114.394,106.398c-2.33-3.707-5.279-7.496-8.708-11.174
	c5.111-1.872,11.072-0.77,15.166,3.325c5.62,5.619,5.614,14.767-0.004,20.385c-5.612,5.613-14.76,5.617-20.378-0.003
	c-4.949-4.949-5.544-12.633-1.768-18.234c3.278,3.443,6.08,6.981,8.216,10.39c1.297,2.065,4.018,2.688,6.086,1.404
	C115.068,111.191,115.692,108.469,114.394,106.398z"/>
<g>
	<title>Canvas 1</title>
	<g>
		<title>Layer 1</title>
		<path fill="#E6E6E6" stroke="#E6E6E6" stroke-width="3" stroke-miterlimit="10" d="M242.998,108.26l10.529,30.184
			c0.169,0.487,0.595,0.871,1.106,0.977c0.498,0.111,1.055-0.043,1.421-0.418l22.914-23.61v12.797l-35.971,38.693V108.26z
			 M290.493,99.146l-34.909,35.966l-12.721-36.46l36.89-31.729L290.493,99.146z M276.829,65.425l-35.32,30.384l-19.721-6.141V49.3
			L276.829,65.425z M239.914,98.816l-6.669,37.011l-63.347-25.511l4.487-32.203l65.616,20.405
			C239.964,98.62,239.931,98.72,239.914,98.816 M233.837,139.349c0.425,0.167,0.91,0.144,1.309-0.076
			c0.401-0.231,0.678-0.612,0.759-1.059l4.06-22.493v52.145l-59.637-27.397l-0.004-22.669L233.837,139.349z M176.226,75.497
			l42.516-26.6v39.826L176.226,75.497z M293.677,99.06L282.15,64.501c-0.157-0.474-0.533-0.843-1.017-0.983L219.48,45.455
			c-0.416-0.131-0.874-0.062-1.238,0.172l-45.853,28.685c-0.381,0.24-0.634,0.635-0.7,1.075l-4.968,35.692
			c-0.096,0.69,0.292,1.356,0.939,1.618l9.615,3.883l0.008,24.859c0,0.593,0.345,1.132,0.88,1.383l62.232,28.592h0.001
			c0.054,0.092,0.112,0.185,0.202,0.271c0.288,0.262,0.653,0.418,1.04,0.418c0.421,0,0.825-0.188,1.113-0.484l38.846-41.79
			c0.265-0.282,0.405-0.653,0.405-1.039v-16.53l11.32-11.661C293.717,100.189,293.85,99.605,293.677,99.06"/>
	</g>
</g>
</svg>
