<?xml version="1.0" encoding="utf-8"?>
<!-- Generator: Adobe Illustrator 16.0.0, SVG Export Plug-In . SVG Version: 6.00 Build 0)  -->
<!DOCTYPE svg PUBLIC "-//W3C//DTD SVG 1.1//EN" "http://www.w3.org/Graphics/SVG/1.1/DTD/svg11.dtd">
<svg version="1.1" id="Layer_1" xmlns:xl="http://www.w3.org/1999/xlink"
	 xmlns="http://www.w3.org/2000/svg" xmlns:xlink="http://www.w3.org/1999/xlink" x="0px" y="0px" width="204.746px"
	 height="206.9px" viewBox="0 0 204.746 206.9" enable-background="new 0 0 204.746 206.9" xml:space="preserve">
<title>Layer 1</title>
<title>Canvas 4</title>
<title>Layer 1</title>
<path opacity="0.6" fill="none" stroke="#E6E6E6" stroke-width="3" stroke-linecap="round" stroke-linejoin="round" enable-background="new    " d="
	M101.995,201.924L101.995,201.924c-53.267,0-96.631-43.36-96.631-96.629c0-53.271,43.364-96.632,96.631-96.632
	c53.269,0,96.629,43.362,96.629,96.632C198.625,158.561,155.264,201.924,101.995,201.924z"/>
<g>
	<path fill="#E6E6E6" d="M149.687,63.378H55.054c-5.228,0-9.463,4.235-9.463,9.462v61.532c0,5.228,4.235,9.462,9.463,9.462h66.413
		l18.742,18.743v-18.743h9.478c5.219,0,9.468-4.227,9.468-9.462V72.84C159.147,67.613,154.905,63.378,149.687,63.378z
		 M154.413,134.372c0,2.607-2.129,4.728-4.727,4.728h-9.478h-4.727v4.719v7.334l-10.677-10.68l-1.384-1.365h-1.955H55.054
		c-2.607,0-4.732-2.137-4.732-4.728V72.84c0-2.607,2.125-4.73,4.732-4.73h94.632c2.605,0,4.718,2.123,4.718,4.73v61.532H154.413z"/>
	<path fill="#E6E6E6" d="M102.128,98.995c2.835,0,5.136,2.3,5.136,5.137c0,2.841-2.301,5.142-5.136,5.142
		c-2.838,0-5.14-2.301-5.14-5.142C96.988,101.295,99.29,98.995,102.128,98.995z"/>
	<circle fill="#E6E6E6" cx="122.676" cy="104.134" r="5.139"/>
	<circle fill="#E6E6E6" cx="82.059" cy="104.134" r="5.139"/>
</g>
</svg>
