<?xml version="1.0" encoding="utf-8"?>
<!-- Generator: Adobe Illustrator 21.0.2, SVG Export Plug-In . SVG Version: 6.00 Build 0)  -->
<svg version="1.1" id="Layer_1" xmlns:xl="http://www.w3.org/1999/xlink"
	 xmlns="http://www.w3.org/2000/svg" xmlns:xlink="http://www.w3.org/1999/xlink" x="0px" y="0px" viewBox="0 0 291 292"
	 style="enable-background:new 0 0 291 292;" xml:space="preserve">
<style type="text/css">
	.st0{fill:none;stroke:#1822CD;stroke-width:3;stroke-miterlimit:10;}
	.st1{fill:#1822CD;}
</style>
<path id="Shape" class="st0" d="M145,287.3L145,287.3c-77.8,0-141-63.3-141-141c0-77.8,63.2-141,141-141s141,63.3,141,141
	C286,224.1,222.8,287.3,145,287.3L145,287.3z"/>
<g>
	<g>
		<path class="st1" d="M146,102.8c-27.5,0-49.8,22.4-49.8,49.8s22.4,49.8,49.8,49.8s49.8-22.4,49.8-49.8S173.5,102.8,146,102.8z
			 M146,194.5c-23.1,0-41.9-18.8-41.9-41.9s18.8-41.9,41.9-41.9s41.9,18.8,41.9,41.9S169.1,194.5,146,194.5z"/>
	</g>
</g>
<g>
	<g>
		<path class="st1" d="M146,121.5c-17.1,0-31.1,14-31.1,31.1s14,31.1,31.1,31.1s31.1-14,31.1-31.1S163.1,121.5,146,121.5z
			 M146,176.2c-13,0-23.6-10.6-23.6-23.6S133,129,146,129s23.6,10.6,23.6,23.6S159,176.2,146,176.2z"/>
	</g>
</g>
<g>
	<g>
		<path class="st1" d="M230.5,88.3h-51.1l-5.2-14.2c-1.5-4.2-5.6-7-10-7h-36.3c-4.5,0-8.5,2.8-10,7l-5.2,14.2H95.2v-5.6
			c0-4.5-3.7-8.1-8.1-8.1h-12c-4.5,0-8.1,3.7-8.1,8.1v5.6h-5.4c-6.9,0-12.5,5.6-12.5,12.5v103.5c0,6.9,5.6,12.5,12.5,12.5h169
			c6.9,0,12.5-5.6,12.5-12.5V100.8C243,93.9,237.4,88.3,230.5,88.3z M125.7,77c0.3-0.9,1.2-1.5,2.2-1.5h36.3c1,0,1.8,0.6,2.2,1.5
			l4.2,11.3h-49L125.7,77z M74.9,82.7c0-0.1,0.1-0.2,0.2-0.2h12c0.1,0,0.2,0.1,0.2,0.2v5.6H74.9V82.7z M57.3,119.9h12.4v65.4H57.3
			V119.9z M234.7,204.4c0,2.3-1.9,4.2-4.2,4.2h-169c-2.3,0-4.2-1.9-4.2-4.2v-10.7h16.5c2.3,0,4.2-1.9,4.2-4.2v-73.7
			c0-2.3-1.9-4.2-4.2-4.2H57.3v-10.7c0-2.3,1.9-4.2,4.2-4.2h115l0,0l0,0h54c2.3,0,4.2,1.9,4.2,4.2v10.7h-16.5
			c-2.3,0-4.2,1.9-4.2,4.2v73.7c0,2.3,1.9,4.2,4.2,4.2h16.5V204.4L234.7,204.4z M234.7,185.3h-12.4v-65.4h12.4V185.3z"/>
	</g>
</g>
<g>
	<g>
		<path class="st1" d="M146,137.2c-8.5,0-15.4,6.9-15.4,15.4c0,2.1,1.7,3.8,3.8,3.8s3.8-1.7,3.8-3.8c0-4.3,3.5-7.8,7.8-7.8
			c2.1,0,3.8-1.7,3.8-3.8S148.1,137.2,146,137.2z"/>
	</g>
</g>
</svg>
