<?xml version="1.0" encoding="utf-8"?>
<!-- Generator: Adobe Illustrator 16.0.0, SVG Export Plug-In . SVG Version: 6.00 Build 0)  -->
<!DOCTYPE svg PUBLIC "-//W3C//DTD SVG 1.1//EN" "http://www.w3.org/Graphics/SVG/1.1/DTD/svg11.dtd">
<svg version="1.1" id="Capa_1" xmlns="http://www.w3.org/2000/svg" xmlns:xlink="http://www.w3.org/1999/xlink" x="0px" y="0px"
	 width="960px" height="560px" viewBox="0 0 960 560" enable-background="new 0 0 960 560" xml:space="preserve">
<g>
	<path fill="#0C6BEB" d="M480,0.006c-154.39,0-280,125.608-280,280s125.598,279.988,280,279.988c154.39,0,280-125.598,280-280
		C760,125.591,634.39,0.006,480,0.006z M480,537.079c-141.752,0-257.085-115.32-257.085-257.073S338.235,22.921,480,22.921
		c141.753,0,257.085,115.32,257.085,257.085S621.753,537.079,480,537.079z"/>
	<path fill="#0C6BEB" d="M699.585,283.693c-59.556-59.569-138.682-92.372-222.814-92.372s-163.258,32.803-222.814,92.372
		c-4.472,4.482-4.472,11.734-0.002,16.213c4.48,4.48,11.721,4.48,16.201,0c40.25-40.249,90.149-67.244,144.434-78.976
		c-15.342,15.698-24.827,37.124-24.827,60.748c0,47.972,39.036,87.009,87.008,87.009s87.009-39.037,87.009-87.021
		c0-23.625-9.499-45.05-24.828-60.748c54.285,11.733,104.183,38.727,144.435,78.977c2.234,2.234,5.167,3.357,8.1,3.357
		c2.932,0,5.866-1.123,8.1-3.357C704.065,295.414,704.065,288.174,699.585,283.693z M540.861,281.666
		c0,35.335-28.747,64.094-64.093,64.094s-64.093-28.748-64.093-64.094c0-35.345,28.747-64.093,64.093-64.093
		S540.861,246.331,540.861,281.666z"/>
</g>
</svg>
