<?xml version="1.0" encoding="utf-8"?>
<!-- Generator: Adobe Illustrator 16.0.0, SVG Export Plug-In . SVG Version: 6.00 Build 0)  -->
<!DOCTYPE svg PUBLIC "-//W3C//DTD SVG 1.1//EN" "http://www.w3.org/Graphics/SVG/1.1/DTD/svg11.dtd">
<svg version="1.1" id="Layer_1" xmlns:xl="http://www.w3.org/1999/xlink"
	 xmlns="http://www.w3.org/2000/svg" xmlns:xlink="http://www.w3.org/1999/xlink" x="0px" y="0px" width="51px" height="51px"
	 viewBox="0 0 51 51" enable-background="new 0 0 51 51" xml:space="preserve">
<title>Canvas 4</title>
<title>Layer 1</title>
<path fill="#E6E6E6" stroke="#E6E6E6" stroke-width="2" stroke-miterlimit="10" d="M26,48C13.318,48,3,37.684,3,25
	C3,12.318,13.318,2,26,2c12.682,0,23,10.318,23,23C49,37.684,38.682,48,26,48 M26,0C12.191,0,1,11.192,1,25
	c0,13.811,11.191,25,25,25c13.809,0,25-11.189,25-25C51,11.192,39.809,0,26,0"/>
<rect x="13.066" y="24" fill="#E6E6E6" stroke="#E6E6E6" stroke-width="2" stroke-miterlimit="10" width="25.934" height="2"/>
</svg>
