<?xml version="1.0" encoding="utf-8"?>
<!-- Generator: Adobe Illustrator 21.0.2, SVG Export Plug-In . SVG Version: 6.00 Build 0)  -->
<svg version="1.1" id="Layer_1" xmlns="http://www.w3.org/2000/svg" xmlns:xlink="http://www.w3.org/1999/xlink" x="0px" y="0px"
	 viewBox="0 0 522 533.8" style="enable-background:new 0 0 522 533.8;" xml:space="preserve">
<style type="text/css">
	.st0{fill:#66FF00;}
	.st1{fill:none;stroke:#66FF00;stroke-width:3;stroke-miterlimit:10;}
</style>
<title>delete_button_green</title>
<path d="M450,551.5c-0.2,1.8-0.4,3.5-0.6,5.2C449.7,555,449.9,553.3,450,551.5z"/>
<path d="M449.4,557.3c-0.2,1.9-0.5,3.8-0.8,5.7C448.9,561.1,449.2,559.2,449.4,557.3z"/>
<path d="M433.2,620.2c-0.7,1.8-1.5,3.6-2.2,5.3C431.7,623.7,432.4,622,433.2,620.2z"/>
<path d="M448.6,563c-2.8,19.6-8,38.7-15.5,57.1C440.6,601.7,445.8,582.6,448.6,563z"/>
<path d="M451,517.7c0,1.3,0.1,2.7,0.1,4C451.1,520.4,451,519,451,517.7z"/>
<path d="M450.9,539.8c-0.1,1.3-0.1,2.7-0.2,4C450.7,542.5,450.8,541.1,450.9,539.8z"/>
<path d="M450.5,545.7c-0.1,1.6-0.2,3.1-0.4,4.7C450.3,548.8,450.4,547.3,450.5,545.7z"/>
<path d="M451.1,533.8c0,1-0.1,2-0.1,3C451,535.8,451.1,534.8,451.1,533.8z"/>
<g id="Page-1">
	<g id="Icon-Set-Filled">
		<path id="cross" class="st0" d="M319.8,270l59.1-59.8c16.3-16.6,16.3-43.2,0-59.8c-15.9-16.4-42.1-16.6-58.4-0.7
			c-0.2,0.2-0.4,0.4-0.7,0.7l-59.1,59.8l-59.1-59.8c-15.9-16.4-42-16.6-58.4-0.7c-0.2,0.2-0.4,0.4-0.7,0.7
			c-16.3,16.6-16.3,43.2,0,59.8l59.1,59.8l-59.1,59.9c-16.3,16.6-16.3,43.2,0,59.8c15.9,16.4,42,16.6,58.4,0.7
			c0.2-0.2,0.4-0.4,0.7-0.7l59.1-59.8l59.1,59.7c15.9,16.4,42.1,16.6,58.4,0.7c0.2-0.2,0.4-0.4,0.7-0.7c16.3-16.6,16.3-43.2,0-59.8
			L319.8,270"/>
	</g>
</g>
<path d="M237.1,402.6l-2.4-0.1L237.1,402.6z"/>
<path d="M219,401.5l-3.1-0.3L219,401.5z"/>
<path d="M249.2,402.6c1.1,0,2.2-0.1,3.3-0.1C251.4,402.5,250.3,402.5,249.2,402.6z"/>
<path d="M259.7,402.1c-1.5,0.1-3,0.2-4.5,0.3C256.7,402.3,258.2,402.2,259.7,402.1z"/>
<path d="M266.4,401.5c-1.8,0.2-3.6,0.3-5.4,0.5C262.8,401.9,264.6,401.7,266.4,401.5z"/>
<path d="M225,402c-1-0.1-2.1-0.2-3.1-0.3C222.9,401.8,223.9,401.9,225,402z"/>
<path d="M231,402.3c-1,0-2-0.1-3-0.2C229,402.2,230,402.3,231,402.3z"/>
<path id="Shape" class="st1" d="M261,513.6L261,513.6c-137.5,0-249.2-111.9-249.2-249.1C11.8,127,123.5,15.3,261,15.3
	s249.1,111.9,249.1,249.1C510.1,401.9,398.5,513.6,261,513.6L261,513.6z"/>
</svg>
