<?xml version="1.0"?>
<!DOCTYPE svg PUBLIC "-//W3C//DTD SVG 1.1//EN" "http://www.w3.org/Graphics/SVG/1.1/DTD/svg11.dtd">
<svg xmlns="http://www.w3.org/2000/svg" xmlns:xl="http://www.w3.org/1999/xlink" version="1.1" viewBox="120 1086 83 81" width="83pt" height="81pt"><metadata xmlns:dc="http://purl.org/dc/elements/1.1/"><dc:date>2016-12-21 01:39Z</dc:date><!-- Produced by OmniGraffle Professional 5.4.2 --></metadata><defs></defs><g stroke="none" stroke-opacity="1" stroke-dasharray="none" fill="none" fill-opacity="1"><title>03_like</title><g><title>Layer 1</title><path d="M 161.82958 1086.21884 C 139.201884 1086.21884 120.837374 1104.13884 120.837374 1126.21884 C 120.837374 1148.29884 139.201884 1166.21884 161.82958 1166.21884 C 184.45728 1166.21884 202.8218 1148.29884 202.8218 1126.21884 C 202.8218 1104.13884 184.45728 1086.21884 161.82958 1086.21884 Z" fill="#ccc"/><path d="M 191.51258 1098.57104 C 195.08895 1102.7008 197.75723 1106.68435 199.51932 1110.52355 C 201.89344 1115.6969 202.98751 1121.2359 202.80153 1127.1395 C 202.56146 1135.551 200.05259 1143.0366 195.27493 1149.59354 C 193.00613 1152.72815 191.33703 1154.42697 190.27143 1154.6881 L 166.81296 1154.6881 C 166.54537 1154.6359 166.18669 1154.45355 165.73217 1154.1402 C 165.27765 1153.8259 164.91707 1153.6559 164.65138 1153.63026 C 162.43478 1154.3358 161.36822 1154.6881 161.44793 1154.6881 C 161.52859 1154.5324 163.19579 1153.42135 166.45333 1151.3579 C 164.8516 1151.3826 162.47463 1151.9837 159.32716 1153.15926 C 156.36567 1154.257 153.84352 1154.766 151.76071 1154.6881 C 152.6669 1152.6503 154.93759 1149.95914 158.56615 1146.6156 C 157.63149 1146.0145 156.12465 1145.1257 154.04374 1143.9501 C 152.04158 1142.8011 150.53284 1141.89995 149.51943 1141.24663 C 146.10247 1139.0778 143.499666 1136.89656 141.712905 1134.70205 C 142.7007 1137.0542 142.40749 1139.733 140.832334 1142.7356 C 141.25839 1143.9653 142.31355 1144.9842 143.99499 1145.7933 C 146.66232 1147.0724 148.05149 1147.75134 148.15872 1147.8311 C 146.34254 1148.43124 144.62125 1147.9745 142.99391 1146.45894 C 140.51256 1144.13244 139.25718 1142.95875 139.23156 1142.93216 C 138.29595 1142.46116 137.043414 1142.2266 135.46826 1142.2266 C 133.86748 1142.2266 132.29137 1142.7622 130.74468 1143.8333 C 130.76935 1143.8333 129.52915 1144.8779 127.02123 1146.9679 C 122.37831 1140.54204 120.34958 1132.6528 120.936 1123.29935 C 121.23015 1118.596 122.563345 1113.8281 124.940316 1108.9966 C 127.02123 1104.7633 129.44944 1101.2888 132.2259 1098.57104 L 158.20652 1098.57104 C 154.60453 1105.5733 152.74755 1109.2568 152.64128 1109.6224 C 157.25858 1108.7079 162.1558 1108.3822 167.33295 1108.64336 C 172.88301 1108.9311 177.48703 1109.8313 181.14405 1111.34685 C 180.04903 1108.10874 179.4351 1106.2276 179.3032 1105.7044 C 178.68737 1103.1433 178.58205 1100.7665 178.98248 1098.57104 Z M 187.4295 1128.54965 C 190.68515 1127.6874 193.21963 1126.68275 195.03581 1125.53374 C 197.94226 1123.65165 198.50305 1121.6138 196.71629 1119.4203 C 194.84793 1117.12036 190.79142 1115.0835 184.54772 1113.3068 C 178.1949 1111.4779 173.05855 1110.4846 169.13394 1110.32793 C 159.52738 1109.9101 151.17334 1110.9556 144.07564 1113.4635 C 141.8059 1114.27254 139.41754 1115.3826 136.90962 1116.7937 C 134.87994 1117.94366 133.65113 1118.6758 133.22603 1118.98916 C 131.91846 1120.0071 131.4108 1121.026 131.70496 1122.04494 C 131.99816 1123.06386 133.45186 1123.79504 136.067955 1124.23945 L 141.55349 1125.2194 C 141.76604 1124.8529 142.13896 1124.4104 142.67318 1123.8862 C 143.2596 1123.31265 143.65908 1122.88153 143.87543 1122.5938 C 142.83449 1121.1827 142.41888 1120.1239 142.63333 1119.4203 C 142.98062 1119.576 143.448426 1119.9948 144.03484 1120.67373 C 144.56812 1121.2748 145.11563 1121.6138 145.67642 1121.6936 C 145.62233 1121.5094 145.4354 1120.9349 145.11563 1119.9682 C 144.84804 1119.2883 144.72848 1118.63496 144.756 1118.0092 C 144.355565 1118.11364 143.57937 1118.257 142.43311 1118.4403 C 141.44627 1118.596 140.67197 1118.75366 140.11118 1118.9094 C 139.950815 1118.9635 138.7239 1119.44496 136.42948 1120.3594 C 135.01374 1120.9349 133.852296 1121.158 132.946105 1121.026 C 135.24147 1118.8059 139.41754 1116.9893 145.47526 1115.5792 C 153.48199 1113.699 161.72785 1112.94026 170.21663 1113.3068 C 177.76695 1113.6192 184.8675 1115.30474 191.51258 1118.3615 C 192.92642 1119.01385 193.78043 1119.4336 194.07458 1119.61494 C 194.95515 1120.1904 195.47514 1120.8295 195.63646 1121.53596 C 191.31236 1119.62823 188.0292 1118.2836 185.78792 1117.5002 C 184.80013 1117.16025 184.22605 1116.977 184.06663 1116.9504 C 183.39956 1116.8716 182.90614 1117.108 182.58542 1117.6559 L 187.62972 1120.7516 C 187.56235 1123.3516 187.4295 1128.54965 187.4295 1128.54965 M 141.353275 1128.354 C 140.925326 1129.45176 140.91204 1130.5742 141.31342 1131.7251 C 141.712905 1132.8741 142.39326 1133.56634 143.354485 1133.80184 C 143.32792 1132.9662 143.02048 1132.0375 142.43311 1131.01953 C 141.79356 1129.9484 141.43298 1129.0596 141.353275 1128.354 M 143.5139 1129.4128 C 143.40857 1128.57624 143.53952 1127.5564 143.91528 1126.3561 C 144.28819 1125.1007 144.45994 1124.2537 144.43527 1123.80834 C 143.36872 1124.04383 142.72727 1124.8662 142.51377 1126.2773 C 142.32684 1127.6874 142.65895 1128.7339 143.5139 1129.4128 M 154.08359 1153.27796 C 154.34833 1153.2257 154.789565 1153.06905 155.4035 1152.8079 C 155.93867 1152.599 156.39034 1152.46796 156.76516 1152.4148 C 157.885795 1151.3968 159.74088 1149.81575 162.32945 1147.6735 C 164.78423 1145.6613 166.63836 1144.0821 167.89374 1142.93216 C 167.38609 1142.4355 167.13368 1142.2 167.13368 1142.2266 C 166.89361 1141.93984 166.83858 1141.6521 166.97332 1141.3644 C 168.27994 1141.6255 169.49547 1141.69104 170.61611 1141.56 C 171.97777 1141.4033 172.85834 1140.9209 173.25782 1140.11 C 172.56229 1139.8754 171.55077 1139.8887 170.21663 1140.14986 C 168.85402 1140.41194 167.89374 1140.4623 167.33295 1140.30654 C 167.38609 1140.04635 167.63944 1139.8498 168.09301 1139.7178 C 168.54848 1139.5877 168.77431 1139.3655 168.77431 1139.0531 C 166.90595 1137.0143 166.1326 1135.1474 166.45333 1133.4486 C 168.66804 1133.9984 170.64173 1133.9576 172.37725 1133.33084 C 174.19248 1132.6794 175.25903 1131.4896 175.58071 1129.7661 C 175.79326 1128.5886 175.66041 1127.3351 175.17933 1126.0038 C 174.43255 1123.8615 174.03212 1122.6593 173.97803 1122.39724 C 172.21689 1123.1569 170.12174 1123.69154 167.69353 1124.0049 C 168.06739 1124.0049 168.32074 1124.3439 168.45454 1125.02286 C 168.56081 1125.7028 168.42702 1126.1206 168.05316 1126.2773 C 167.81309 1124.8937 166.82624 1123.9916 165.09167 1123.57284 C 164.37051 1123.3905 162.60937 1123.2348 159.8073 1123.1028 C 159.56723 1122.9727 158.04521 1121.6015 155.243135 1118.98916 C 153.29601 1117.18683 151.60034 1116.5193 150.15993 1116.9893 C 151.30619 1117.0947 152.28165 1117.4736 153.08251 1118.126 C 153.96308 1118.88565 154.17658 1119.7327 153.72206 1120.67373 C 152.7077 1119.576 152.01406 1118.89705 151.6402 1118.63496 C 150.67992 1117.9826 149.63899 1117.7737 148.51835 1118.0092 C 148.27828 1118.4004 148.03821 1119.067 147.79814 1120.0071 C 147.53055 1121.026 147.30377 1121.70594 147.11684 1122.04494 C 148.5582 1121.88826 149.65322 1122.3194 150.4 1123.3383 C 150.6135 1123.626 150.86495 1124.1103 151.16101 1124.7883 C 151.5064 1125.49386 151.76071 1125.98955 151.92012 1126.2773 C 151.334655 1126.3817 150.89342 1126.1738 150.60021 1125.65054 C 150.25292 1124.9716 149.98533 1124.59175 149.79935 1124.5139 C 149.504245 1125.29825 148.90455 1125.6771 147.99836 1125.65054 C 147.11684 1125.62395 146.51714 1125.2451 146.19641 1124.5139 C 145.28927 1125.7939 144.92964 1127.85834 145.11563 1130.7052 C 145.16971 1131.69944 145.47526 1133.9063 146.03605 1137.3277 C 146.49057 1137.5641 148.144485 1138.67324 151.00159 1140.65884 C 153.241925 1142.2266 155.10934 1143.22084 156.60574 1143.6377 C 158.04521 1144.0299 159.70102 1143.9501 161.56844 1143.4022 C 164.61153 1142.48775 166.06618 1142.0443 165.93239 1142.0709 C 165.53101 1143.0632 164.58401 1143.8086 163.09046 1144.3034 C 162.68908 1144.4344 162.02201 1144.61674 161.0883 1144.8522 C 160.18021 1145.0621 159.51219 1145.24347 159.08614 1145.40015 C 160.528455 1146.0022 160.83305 1146.759 160.00751 1147.6735 C 159.74088 1147.9612 159.27212 1148.3401 158.606 1148.8101 C 157.83171 1149.38463 157.338285 1149.7645 157.12573 1149.9468 C 155.41773 1151.46234 154.40337 1152.5724 154.08359 1153.27796 M 146.03605 1117.5002 C 146.01043 1118.6226 146.18218 1119.26264 146.55699 1119.4203 C 146.55699 1119.44496 146.6775 1118.8059 146.91757 1117.5002 Z M 157.12573 1137.83855 C 157.338285 1137.96864 157.68653 1138.0342 158.16667 1138.0342 C 158.51206 1138.0598 158.76637 1138.2307 158.92673 1138.54315 C 158.84607 1138.9885 158.50068 1139.224 157.885795 1139.2487 L 157.08493 1139.2487 C 156.71012 1139.224 156.4302 1139.224 156.24421 1139.2487 C 153.92323 1139.5364 152.20099 1139.57535 151.0813 1139.3655 C 149.10571 1138.9999 148.37127 1137.96864 148.87798 1136.2708 C 148.82389 1136.0875 148.598054 1135.9042 148.19857 1135.72096 C 147.82376 1135.5652 147.63873 1135.343 147.63873 1135.0553 C 149.1579 1134.34975 149.87906 1133.9984 149.79935 1133.9984 C 150.03942 1133.9984 150.41328 1134.23295 150.91999 1134.70205 C 151.48078 1135.17305 151.93435 1135.4617 152.28165 1135.5652 C 152.65551 1135.6697 153.16222 1135.7086 153.80367 1135.682 C 154.41665 1135.6564 154.81613 1135.6697 155.00307 1135.72096 C 155.29722 1135.85295 155.64452 1136.191 156.044 1136.7408 C 156.49852 1137.3153 156.85815 1137.6809 157.12573 1137.83855 M 148.15872 1120.67373 C 148.66448 1120.07264 149.265125 1119.8248 149.95971 1119.92925 C 150.54518 1120.0071 151.09364 1120.3205 151.60034 1120.8684 C 152.10705 1121.4182 152.40121 1122.0193 152.480915 1122.6717 C 152.58719 1123.4038 152.40121 1124.0182 151.92012 1124.5139 C 151.73414 1121.77146 150.48065 1120.4914 148.15872 1120.67373 M 149.43972 1137.13205 C 149.4122 1137.60305 149.61337 1137.943 150.03942 1138.151 C 150.43985 1138.38647 150.77291 1138.3475 151.04145 1138.0342 C 150.95984 1137.40554 150.54518 1136.9355 149.79935 1136.6221 C 149.79935 1136.7 149.71964 1136.76646 149.55928 1136.8187 C 149.42549 1136.89656 149.38563 1137.00196 149.43972 1137.13205 M 152.84244 1132.58636 C 152.01406 1132.4287 151.30619 1131.9853 150.72072 1131.2541 C 150.13336 1130.5742 149.87906 1129.90946 149.95971 1129.2552 C 150.03942 1128.68164 150.6135 1128.1461 151.68005 1127.6485 C 152.82726 1127.1006 153.50761 1126.46055 153.72206 1125.72936 C 153.85491 1125.3106 153.86819 1124.7361 153.76192 1124.0049 C 153.65564 1123.32404 153.70878 1122.6717 153.92323 1122.04494 C 154.93759 1123.5339 155.05715 1125.02286 154.28286 1126.5128 C 153.61579 1127.7919 152.535 1128.7073 151.04145 1129.2552 C 151.12115 1129.67396 151.46655 1130.18294 152.08143 1130.78404 C 152.61566 1131.3329 152.86711 1131.93494 152.84244 1132.58636 M 168.05316 1121.53596 C 165.73217 1122.0848 163.10469 1121.4581 160.16788 1119.6539 C 156.7253 1117.5391 154.40337 1116.41577 153.20207 1116.2838 C 153.04266 1116.2838 152.97529 1116.33695 153.00186 1116.4414 C 154.09593 1116.7548 155.243135 1117.46127 156.44538 1118.5571 C 157.93893 1119.94255 158.88593 1120.76584 159.28731 1121.026 C 161.101585 1122.0972 163.650305 1122.647 166.93347 1122.6717 C 170.50889 1122.6717 172.79097 1121.88826 173.77971 1120.3205 C 173.51118 1120.2426 172.9779 1120.2293 172.17704 1120.28155 C 171.26895 1120.3338 170.61611 1120.348 170.21663 1120.3205 C 169.38825 1121.0004 168.66804 1121.4049 168.05316 1121.53596 M 164.65138 1119.61494 C 163.7433 1119.4592 162.20894 1118.6891 160.04737 1117.30363 C 158.28623 1116.1546 156.71012 1115.74915 155.32379 1116.08816 C 156.098085 1116.32366 157.150405 1116.8459 158.48644 1117.6559 C 160.35291 1118.7793 161.48873 1119.4336 161.88822 1119.61494 C 164.69124 1121.07826 166.9866 1121.13144 168.77431 1119.7726 C 168.32074 1119.5627 167.63944 1119.49814 166.73325 1119.576 C 165.66575 1119.6539 164.97116 1119.66907 164.65138 1119.61494 M 166.09275 1118.7147 C 163.93118 1117.27705 162.78302 1116.5335 162.64923 1116.48034 C 161.15472 1115.6969 159.79212 1115.4481 158.56615 1115.73586 C 159.125995 1115.8916 160.28839 1116.4936 162.04953 1117.5391 C 163.41024 1118.32255 164.75766 1118.7147 166.09275 1118.7147 M 170.21663 1128.354 C 169.20037 1129.9218 166.81296 1130.6929 163.05061 1130.6663 C 163.05061 1130.3007 163.38367 1130.1041 164.05169 1130.0785 C 164.77094 1130.05285 165.15714 1129.8952 165.21123 1129.60844 C 165.05087 1129.4261 164.75766 1129.26944 164.33066 1129.13744 C 163.85147 1129.00735 163.54308 1128.863 163.41024 1128.7073 C 162.42339 1129.5429 161.9423 1129.9617 161.96887 1129.9617 C 161.06173 1130.1706 160.34152 1129.975 159.8073 1129.37294 C 159.72759 1129.24285 159.3803 1128.5639 158.76637 1127.3351 C 159.62132 1126.57734 160.54174 1126.2773 161.52859 1126.43396 C 162.115 1126.5128 162.983235 1126.89166 164.13139 1127.5706 C 165.35736 1128.2505 166.29202 1128.6674 166.93347 1128.8241 C 168.05316 1129.1118 169.14818 1128.9561 170.21663 1128.354 M 166.45333 1127.3351 C 165.99786 1126.0038 164.95693 1125.17955 163.33053 1124.8662 C 161.674715 1124.5272 160.25992 1124.93265 159.08614 1126.08166 C 159.27212 1125.3239 159.82153 1124.7361 160.72867 1124.3173 C 161.55421 1123.9527 162.47463 1123.8216 163.48994 1123.92514 C 164.52993 1124.03054 165.33174 1124.35625 165.89253 1124.9051 C 166.53303 1125.53374 166.71807 1126.34185 166.45333 1127.3351 M 159.44767 1151.5136 C 159.58146 1151.4899 164.78423 1150.26016 175.05976 1147.8311 C 173.64307 1144.6946 172.8033 1142.9977 172.53761 1142.7356 C 171.87054 1143.33764 171.37617 1143.7156 171.0564 1143.87226 C 170.38933 1144.2122 169.69569 1144.25114 168.97453 1143.98906 C 163.58293 1148.2214 160.40795 1150.7302 159.44767 1151.5136 M 172.17704 1118.7147 C 167.90703 1116.7548 164.45022 1115.7102 161.80851 1115.5792 C 161.99544 1115.63235 163.55542 1116.3892 166.49318 1117.85155 C 168.41468 1118.7926 170.30962 1119.0803 172.17704 1118.7147 M 170.93494 1098.57104 C 169.81525 1099.35445 168.34731 1099.7998 166.53303 1099.9043 C 164.55744 1100.0087 163.15498 1099.5643 162.32945 1098.57104 Z M 177.74133 1117.3426 C 176.43376 1117.4736 174.45817 1117.05484 171.81646 1116.08816 C 169.36073 1115.1737 167.33295 1114.8879 165.73217 1115.2269 C 166.2664 1115.3826 167.49426 1115.84126 169.41576 1116.59714 C 171.25661 1117.3302 172.73688 1117.8392 173.85942 1118.126 C 177.56768 1119.067 180.16954 1118.4536 181.66404 1116.2838 C 180.9704 1116.2325 180.26443 1116.3768 179.54327 1116.71584 C 178.71584 1117.0814 178.11519 1117.29034 177.74133 1117.3426 M 179.54327 1126.2773 C 179.91619 1129.49164 178.76708 1131.8419 176.1007 1133.33084 C 173.80438 1134.6375 170.82961 1135.0942 167.17354 1134.70205 C 167.83966 1136.0609 169.40058 1136.6364 171.85631 1136.4265 C 173.91256 1136.24514 175.6329 1135.72096 177.02112 1134.8597 C 179.60875 1133.2663 181.06434 1130.9398 181.38412 1127.884 C 181.67828 1124.93265 180.82333 1122.176 178.82212 1119.61494 C 178.68737 1119.5893 178.54219 1119.62823 178.38183 1119.7327 C 178.24804 1119.8115 178.08862 1119.8248 177.90169 1119.7726 C 177.76695 1120.79053 177.96717 1121.91485 178.50234 1123.1417 C 179.11627 1124.6307 179.46357 1125.6771 179.54327 1126.2773 M 185.98814 1127.49275 C 186.25478 1124.9583 185.74807 1122.6593 184.46612 1120.5949 C 183.85218 1119.62823 183.18606 1119.0414 182.46491 1118.8315 C 181.66404 1118.596 180.86318 1118.8581 180.06421 1119.61494 C 181.5293 1124.21476 182.25046 1126.36843 182.22579 1126.08166 C 182.54556 1129.60844 181.13077 1132.5341 177.9814 1134.8597 C 174.93926 1137.0798 171.69595 1137.7854 168.25432 1136.9744 C 169.18803 1138.41305 171.26895 1138.9344 174.49802 1138.54315 C 177.83527 1138.1253 180.64968 1136.66106 182.94599 1134.15414 C 184.70714 1132.2217 185.72055 1130.0006 185.98814 1127.49275 M 171.65609 1115.0303 C 175.44407 1116.31036 178.00702 1116.4936 179.34306 1115.5792 C 175.95457 1114.8736 173.39162 1114.69226 171.65609 1115.0303 M 176.50113 1119.9682 C 175.6737 1120.2559 175.204 1120.72596 175.09962 1121.3793 C 175.04553 1121.8759 175.204 1122.57956 175.58071 1123.495 C 176.70135 1126.23834 177.23462 1127.9761 177.18054 1128.7073 C 177.12645 1129.5173 176.90156 1130.2874 176.50113 1131.01953 C 175.40421 1132.8741 174.80546 1133.63186 174.69919 1133.2919 C 177.23462 1132.3262 178.54219 1130.39185 178.6219 1127.49275 C 178.67599 1125.0618 177.96717 1122.5549 176.50113 1119.9682 M 177.74133 1140.11 C 177.82104 1140.0321 178.42263 1139.57535 179.54327 1138.7397 C 180.34319 1138.1899 180.63734 1137.71985 180.42289 1137.3277 C 179.91619 1137.7987 178.06111 1138.55644 174.85955 1139.601 C 175.52567 1140.04635 176.48595 1140.2144 177.74133 1140.11" fill="#141212"/></g></g></svg>
