<?xml version="1.0"?>
<!DOCTYPE svg PUBLIC "-//W3C//DTD SVG 1.1//EN" "http://www.w3.org/Graphics/SVG/1.1/DTD/svg11.dtd">
<svg xmlns="http://www.w3.org/2000/svg" xmlns:xl="http://www.w3.org/1999/xlink" version="1.1" viewBox="140 277 58 57" width="58pt" height="57pt"><metadata xmlns:dc="http://purl.org/dc/elements/1.1/"><dc:date>2016-12-26 05:52Z</dc:date><!-- Produced by OmniGraffle Professional 5.4.2 --></metadata><defs></defs><g stroke="none" stroke-opacity="1" stroke-dasharray="none" fill="none" fill-opacity="1"><title>Canvas 1</title><g><title>Layer 1</title><path d="M 163.08886 318.6897 C 152.680315 318.6897 144.251125 310.25299 144.251125 299.85197 C 144.251125 289.44342 152.680315 281.01423 163.08886 281.01423 C 173.48988 281.01423 181.9266 289.44342 181.9266 299.85197 C 181.9266 310.25299 173.48988 318.6897 163.08886 318.6897 M 180.33107 314.45253 C 183.66512 310.5164 185.69715 305.42125 185.69715 299.85197 C 185.69715 287.36623 175.5746 277.24367 163.08886 277.24367 C 150.60312 277.24367 140.48057 287.36623 140.48057 299.85197 C 140.48057 312.3377 150.60312 322.45273 163.08886 322.45273 C 168.65815 322.45273 173.74577 320.42822 177.68942 317.09418 L 194.35965 333.7644 L 197.00883 331.13029 Z" fill="#737373"/></g></g></svg>
