<?xml version="1.0"?>
<!DOCTYPE svg PUBLIC "-//W3C//DTD SVG 1.1//EN" "http://www.w3.org/Graphics/SVG/1.1/DTD/svg11.dtd">
<svg xmlns="http://www.w3.org/2000/svg" xmlns:xl="http://www.w3.org/1999/xlink" version="1.1" viewBox="10 1 457 872" width="457pt" height="872pt"><metadata xmlns:dc="http://purl.org/dc/elements/1.1/"><dc:date>2017-03-09 03:43Z</dc:date><!-- Produced by OmniGraffle Professional 5.4.4 --></metadata><defs></defs><g stroke="none" stroke-opacity="1" stroke-dasharray="none" fill="none" fill-opacity="1"><title>Canvas 1</title><g><title>Layer 1</title><path d="M 457.2143 241.98017 C 457.2143 243.28014 456.16383 244.3325 454.8662 244.3325 L 448.30785 244.3325 C 447.01021 244.3325 445.95974 243.28014 445.95974 241.98017 L 445.95974 161.85557 C 445.95974 160.5556 447.01021 159.50325 448.30785 159.50325 L 454.8662 159.50325 C 456.16383 159.50325 457.2143 160.5556 457.2143 161.85557 Z" fill="#d9d8d7"/><path d="M 31.25789 241.98017 C 31.25789 243.28014 30.20742 244.3325 28.909782 244.3325 L 22.349778 244.3325 C 21.052139 244.3325 20 243.28014 20 241.98017 L 20 161.85557 C 20 160.5556 21.052139 159.50325 22.349778 159.50325 L 28.909782 159.50325 C 30.20742 159.50325 31.25789 160.5556 31.25789 161.85557 Z" fill="#d9d8d7"/><path d="M 31.25789 311.30114 C 31.25789 312.60111 30.20742 313.65347 28.909782 313.65347 L 22.349778 313.65347 C 21.052139 313.65347 20 312.60111 20 311.30114 L 20 277.46347 C 20 276.1635 21.052139 275.11114 22.349778 275.11114 L 28.909782 275.11114 C 30.20742 275.11114 31.25789 276.1635 31.25789 277.46347 Z" fill="#d9d8d7"/><path d="M 449.91746 810.9535 L 449.91746 53.04817 C 449.91746 27.063847 428.89137 6 402.95364 6 L 74.261994 6 C 48.324257 6 27.299842 27.063847 27.299842 53.04817 L 27.299842 810.9535 C 27.299842 836.93615 48.324257 858 74.261994 858 L 402.95364 858 C 428.89137 858 449.91746 836.93615 449.91746 810.9535 Z M 423.14854 757.487 L 53.87565 757.487 L 53.87565 87.60208 L 423.14854 87.60208 Z" fill="white"/><path d="M 173.52549 56.383083 C 173.52549 59.891494 170.68805 62.732353 167.18593 62.732353 C 163.68381 62.732353 160.84637 59.891494 160.84637 56.383083 C 160.84637 52.874673 163.68381 50.033814 167.18593 50.033814 C 170.68805 50.033814 173.52549 52.874673 173.52549 56.383083 Z" fill="#c7c7c7"/><path d="M 286.78477 56.383083 C 286.78477 59.888148 283.949 62.732353 280.44688 62.732353 L 196.76841 62.732353 C 193.26796 62.732353 190.43053 59.888148 190.43053 56.383083 C 190.43053 52.876346 193.26796 50.033814 196.76841 50.033814 L 280.44688 50.033814 C 283.949 50.033814 286.78477 52.876346 286.78477 56.383083 Z" fill="#d9d8d7"/><path d="M 245.77355 26.95744 C 245.77355 30.922597 242.56536 34.134875 238.60731 34.134875 C 234.65094 34.134875 231.44275 30.922597 231.44275 26.95744 C 231.44275 22.992284 234.65094 19.780006 238.60731 19.780006 C 242.56536 19.780006 245.77355 22.992284 245.77355 26.95744 Z" fill="#d9d8d7"/><path d="M 272.90238 807.49144 C 272.90238 826.47065 257.5495 841.84274 238.60765 841.84274 C 219.66914 841.84274 204.31292 826.47065 204.31292 807.49144 C 204.31292 788.5139 219.66914 773.1418 238.60765 773.1418 C 257.5495 773.1418 272.90238 788.5139 272.90238 807.49144 Z" fill="#c7c7c7"/><path d="M 267.09624 807.49144 C 267.09624 823.2567 254.33863 836.0272 238.60665 836.0272 C 222.87633 836.0272 210.12039 823.2567 210.12039 807.49144 C 210.12039 791.7295 222.87633 778.95737 238.60665 778.95737 C 254.33863 778.95737 267.09624 791.7295 267.09624 807.49144 Z" fill="#d9d8d7"/></g></g></svg>
