<?xml version="1.0" encoding="utf-8"?>
<!-- Generator: Adobe Illustrator 21.0.2, SVG Export Plug-In . SVG Version: 6.00 Build 0)  -->
<svg version="1.1" id="Layer_1" xmlns="http://www.w3.org/2000/svg" xmlns:xlink="http://www.w3.org/1999/xlink" x="0px" y="0px"
	 viewBox="0 0 138 133" style="enable-background:new 0 0 138 133;" xml:space="preserve">
<style type="text/css">
	.st0{fill:#E6E6E6;}
	.st1{fill:#FEBB86;}
	.st2{fill:#E5BE35;}
	.st3{fill:#732F21;}
	.st4{fill:#EE9D66;}
	.st5{fill:#2D1B11;}
	.st6{fill:#B62122;}
	.st7{fill:#FFFFFF;}
	.st8{fill:#191919;}
	.st9{fill:#FB5847;}
	.st10{fill:#70301E;}
</style>
<title>button_17</title>
<path id="Shape" class="st0" d="M69.5,129.4L69.5,129.4c-34.7,0-62.9-28.2-62.9-62.9S34.8,3.6,69.5,3.6s62.9,28.2,62.9,62.9
	S104.2,129.4,69.5,129.4L69.5,129.4z"/>
<g>
	<path class="st1" d="M85.1,90.4c-2.7-0.7-3-8.3-5.7-10l-19.1-6.1c-0.3,0.8-0.6,1.8-1,2.7c-2.6,4.4-3.3,12-7.6,13
		c-2.1,0.6-3.3,2.5-7.1,2.2c2,3.3-0.6,0.8,6.2,5c3.3,2,9.1,5.5,16.8,5.3c7.8,0.3,13.5-3.3,16.8-5.3c6.7-4.1-2.6-2.7-0.6-6.1
		C80.2,91.2,87.3,90.8,85.1,90.4z"/>
	<path class="st2" d="M67.1,105.5h0.3c7.8,0.1,13.5-4.1,16.8-6.5c6.7-5,10.7-11.5,12.8-15.5l0.1-0.3c-3.2,0.3-6.2-0.1-9.3-0.8
		c-3.6-0.8-6.8-2.6-9.7-4.6c0,1.1,0.3,8.7-4.4,14.1c-1.7,2-4.1,3.4-6.5,4.1l0,0c-2.7-0.7-4.8-2.1-6.5-4.1c-4.7-5.4-4.4-13-4.4-14.1
		c-3,2.1-6.2,3.7-9.7,4.6c-3,0.8-6.2,1-9.3,0.8l0.1,0.3C39.7,87.6,43.7,94,50.4,99C53.6,101.5,59.4,105.6,67.1,105.5L67.1,105.5z"/>
	<path class="st3" d="M69.9,20c6.7,0.1,11.5,2.7,14.5,4.4c1.8,1,6.8,4.1,10.1,9.3c1.1,1.8,2.1,3.9,2.6,6c0.4,1.5,0.6,3.3,0.4,4.8
		c-0.1,1,0.3,2.1,1,3c1.5,1.8,3.3,3.6,4.7,5.5c4,5.3,4.4,11.5,1.5,17.5c-0.8,1.5-1.4,3.3-2,5.1c-0.3,1,0,1.5,0.8,2
		c1,0.6,3.9,5.1,4.4,9.5c1.1,7.3-3.3,15.2-8.7,18.4c-2.2,1.3-4.1,1.3-6.9,1.5c-2.7,0.1-9.3,0.6-13.7-4.6c-0.6-0.6-0.8-1.1-1.3-1.8
		c-0.4-0.7-0.8-1.4-1-2.2c-0.1-0.4-0.3-0.8-0.4-1.4c-0.1-0.8-0.3-1.5-0.3-2.6c1.3-0.8-2.7-2.1-0.8-3.9c0.8-0.8,0.8,0.8,0.8-9.7
		c0-2.2,17.5-14.8,12.7-26.4c-0.8-2.2-2.7-6.2-5.8-7.6c-2.1-0.8-3.6,0-6.5-0.8c-2.1-0.7-4.1-1.7-5.7-3.3h-0.3
		c-1.5,1.4-3.6,2.7-5.7,3.3c-3,0.8-4.4,0-6.5,0.8c-3.2,1.3-4.8,5.1-5.8,7.6C47.4,66,57,80.4,57.4,81.7C59.9,87.5,59,90,60,91
		c1.4,1.4,3,2.7,4.7,3.7c0,0.8,0,1.5-0.3,2.6c-0.1,0.6-0.3,0.8-0.4,1.4c-0.3,0.8-0.7,1.5-1,2.2c-0.4,0.7-0.8,1.3-1.3,1.8
		c-4.4,5.1-10.9,4.7-13.7,4.6c-2.9-0.1-4.7-0.3-6.9-1.5c-5.4-3-9.8-11.1-8.7-18.4c0.7-4.4,3.6-8.8,4.4-9.5c0.8-0.4,1-0.8,0.8-2
		c-0.6-1.7-1.1-3.4-2-5.1c-2.9-6.1-2.2-12.3,1.5-17.5c1.4-2,3.2-3.7,4.7-5.5c0.8-0.8,1.1-1.8,1-3c-0.1-1.5,0-3.3,0.4-4.8
		c0.6-2.1,1.3-4.1,2.6-6c3.3-5.1,8.3-8.1,10.1-9.3C58.3,22.8,63.3,20.1,69.9,20z"/>
	<path class="st1" d="M46,58.4c-1.7-0.3-4.1-2.5-4.6-5c-0.4-1.8-0.1-4.8,2-6c0.6-0.3,1-0.4,1.5-0.4c0,0.1,0,0.4,0,0.6
		C44.8,51.4,45.2,54.9,46,58.4z"/>
	<path class="st4" d="M94.9,47.7c0-0.1,0-0.4,0-0.6C93.7,34,83.7,20.8,70.1,20.7v60.1c2.6-0.6,5.7-0.8,7.8-2
		c8.3-4,13.5-11.8,16.1-20.3C94.8,54.9,95.2,51.4,94.9,47.7z"/>
	<path class="st1" d="M45,47.1c0,0.1,0,0.4,0,0.6c-0.3,3.6,0.1,7.3,1,10.7c2.6,8.7,8.7,15.9,16.8,19.9c2.2,1,4.6,1.8,7.1,2.5V20.7
		C56.3,20.8,46.3,34,45,47.1z"/>
	<path class="st5" d="M87.3,55.1c-0.4,0-0.8,0-1.3-0.1c0.3,0,0.4-0.1,0.7-0.3c0.3-0.1,0.4-0.3,0.6-0.6c-0.8,0.3-1.7,0.3-2.6,0.1
		c0.6-0.1,0.8-0.4,1.1-0.8c-0.8,0.3-1.5,0.4-2.6,0.4c-0.8-0.4-1.7-0.6-2.7-0.6h-0.1c-0.1,0-0.4,0-0.6,0c-0.3,0-0.6,0.1-0.7,0.1
		c-1.5,0.6-2.9,1.5-3.7,3c0.8-0.8,1.7-1.7,2.7-2.1h0.1c-0.6,1-0.1,2.5,0.8,2.9c1,0.6,2.5,0.1,2.9-0.8c0.4-0.7,0.4-1.4,0-2.1
		c1.3,0.3,2.7,0.8,3.7,1.7c0.4,0.1,0.8,0.1,1.3-0.1c0.6-0.3,0.8-0.7,1.1-1.1C88,54.9,87.7,54.9,87.3,55.1z"/>
	<path class="st5" d="M60.8,53.4c-0.3-0.1-0.6-0.1-0.7-0.1c-0.1,0-0.4,0-0.6,0h-0.1c-0.8,0-1.8,0.1-2.7,0.6c-0.8,0-1.7-0.1-2.6-0.4
		c0.3,0.4,0.7,0.7,1.1,0.8c-0.8,0.1-1.7,0.1-2.6-0.1c0.1,0.4,0.6,0.8,1,0.8c-0.8,0.3-1.7,0.1-2.6-0.3c0.1,0.6,0.7,0.8,1.1,1.1
		c0.4,0.1,0.8,0.1,1.3,0.1c1-0.8,2.5-1.4,3.7-1.7c-0.7,1-0.3,2.5,0.8,3c1,0.7,2.5,0.3,3-0.8c0.4-0.7,0.4-1.4,0-2.1h0.1
		c1,0.4,2.1,1.1,2.7,2.1C63.7,54.9,62.4,54,60.8,53.4z"/>
	<path class="st6" d="M69.9,69c0.4-0.4,0.8-0.6,1.4-0.7c0.8-0.1,1.4,0.6,2.7,0.8c0.8,0.3,1.4,0.4,2.2,0.6c-0.6,1-1.1,2-2,2.7
		c-0.8,0.8-2.5,2.2-4.4,2.2c-2.1,0-3.4-1.3-4.4-2.2c-0.8-0.8-1.4-1.7-2-2.7c0.8,0,1.5-0.3,2.2-0.6c1.1-0.4,1.7-1,2.7-0.8
		C68.9,68.5,69.5,68.7,69.9,69z"/>
	<path class="st7" d="M69.9,70.6c1.4,0,3,0,4.6-0.1c-0.6,0.8-1.3,1.7-2.5,2.2c-1.4,0.7-3,0.7-4.4,0c-1-0.6-1.8-1.1-2.5-2.2
		C67,70.4,68.5,70.6,69.9,70.6z"/>
	<path class="st8" d="M69.9,53.8L69.9,53.8c0.7-0.1,1.1-0.4,1.5-0.8c1.3-1.5,5.4-2.2,11.5-3.3c6.8-1.1,7.7-0.8,8.1-0.4
		c0.8,0.8,0.4,2.1-0.1,4.1c-0.8,2.7-1.5,5.7-4.7,7.8c-0.8,0.7-4.4,2.9-8,2.1c-2.6-0.6-4.7-2.2-5.8-4.6c-0.6-1-0.8-2.2-2.6-2.2l0,0
		c-1.8,0-2,1.1-2.6,2.2c-1,2.5-3.3,4.1-5.8,4.6c-3.6,0.7-6.9-1.4-8-2.1c-3.2-2.2-4-5-4.7-7.8c-0.6-2.1-0.8-3.3-0.1-4.1
		c0.4-0.4,1.1-0.8,8.1,0.4c6.1,1,10.1,1.7,11.5,3.3C68.7,53.3,69.4,53.7,69.9,53.8L69.9,53.8 M84.7,51.2c-1.3,0-2.6,0.1-3.9,0.4
		c-1.7,0.3-3.4,0.6-5,1c-1.4,0.6-2.6,0.8-2.9,1.7c-0.3,0.8-0.1,1.7,0,2.5c0.8,2.5,2.7,4.1,5.1,4.7c3.4,0.8,6.2-1,6.8-1.5
		c1.4-0.8,2.5-2.5,3-4c0.4-1,1.1-3,0-4.1C87.4,51.4,86.3,51.4,84.7,51.2 M51.8,52c-1.1,1-0.4,3,0,4.1c0.6,1.5,1.5,3,3,4
		c0.7,0.4,3.4,2.5,6.8,1.5c2.5-0.6,4.4-2.5,5.1-4.7c0.3-0.7,0.6-1.5,0-2.5c-0.6-0.8-1.3-1.1-2.9-1.7c-1.5-0.6-3.3-0.8-5-1
		c-1.3-0.3-2.6-0.4-3.9-0.4C53.7,51.4,52.6,51.4,51.8,52"/>
	<path class="st9" d="M70.3,69c0.4-0.4,0.8-0.6,1.3-0.7c0.8-0.1,1.3,0.4,2.6,0.8c0.7,0.3,1.4,0.4,2.1,0.6c-0.6,0.8-1,1.8-1.8,2.7
		c-0.8,0.8-2.2,2.1-4.1,2.1c-1.8,0-3.3-1.3-4.1-2.1s-1.4-1.5-1.8-2.7c0.8,0,1.4-0.3,2.1-0.6c1.1-0.4,1.5-0.8,2.6-0.8
		C69.5,68.5,69.9,68.7,70.3,69z"/>
	<path class="st10" d="M54.4,37.6c1.3-2.9,4.6-4.3,7.6-2.9c0.8,0.4,1.5,0.8,2.1,1.5c2.2,2.9,6.2,6.2,11.5,5.4
		c5.7-0.7,5.3,6.2,5.3,6.2C80.6,59.8,89.1,64,89.1,64C86.4,72,77.3,78,77.3,78c2-0.3-3.9,14.8-3.9,14.8c3.6,3.3,11.6,3.4,11.6,3.4
		c-0.8,0.8-1.4,1.8-1.7,2.9c-0.7,2.2,5.3-1,8,2.6c-0.8-8.7-2.7-3.3-2.7-3.3c0.7-0.1,1.3-0.4,2-0.8c1.4-0.8,9-1.7,9.3-4.4
		c0.1-1.4,0.7-7.6-3.2-6.5c-3.9,1,0-2.9-0.6-4.6c-0.8-2.2-5.3-2.1-3-2.7c1.7-0.6,3.7-1.8,4-5.1c-0.4-3.6-3.3-4-3.3-4
		c0.8,0.1,1.8-0.1,2.5-0.8c0.8-1,0.8-2.7-0.3-3.6c-0.1-0.1-0.3-0.3-0.6-0.3c-0.6-0.3-1-0.4-1.5-0.4c2.2,0.6,2.9-0.8,2.9-0.8
		c0.3-0.6,0.3-1,0.1-1.5c-0.3-0.8-0.8-1.3-1.7-1.5c-0.1,0-0.1-0.1-0.1-0.3c0,0,0-0.1,0.1-0.1c1-0.6,3.2-2.1,3.2-6.9
		c-2.1-45.7-27.9-33-27.9-33C49.7,8.7,49.3,48.3,49.3,48.3c0.7-0.1,1.1,0.1,1.5,0.7c0.8,1,1.1,2.5,1.5,3.7
		C51.7,43.4,54.4,37.6,54.4,37.6z"/>
	<path class="st4" d="M75.2,87.8c4.1-8.7,9.5-16.6,5.4-13.8c-4.1,2.7-7.6,6.5-10.7,7.3c-3-0.7-6-1.5-8.7-2.9c0,0.8,8.3,5.4,8,6.5
		l0.1,9.7C67.5,93.6,72.1,94.3,75.2,87.8z"/>
	<path class="st10" d="M82.9,37.6c-1.3-2.9-4.6-4.1-7.6-2.9c-0.8,0.4-1.5,0.8-2.1,1.5c-2.2,2.9-6.2,6.2-11.5,5.4
		c-5.7-0.7-5.3,6.2-5.3,6.2c0.3,11.8-6.2,16.5-6.2,16.5c2.7,8,10.1,12.8,10.1,12.8c-0.6,6.2-8,12.4-8,12.4c-3.6,3.3-0.3,6.5-0.3,6.5
		c0.8,0.8,1.4,1.8,1.8,2.9c0.7,2.2-2.9,0.4-5.7,3.9c0.8-8.7,0.1-4.6,0.1-4.6c-0.7-0.1-1.3-0.4-2-0.8c-1.4-0.8-10.2-1.7-10.5-4.4
		c-0.1-1.4,2.5-5,3.3-6.1c0.8-0.8,6.9-0.8,7.6-2.6c0.8-2.2-0.4-4.7-2.7-5.5l0,0c-1.7-0.6-3.7-1.8-4-5.1c0.4-3.4,3.2-3.9,3.2-3.9
		c-0.8,0.1-1.8-0.1-2.5-0.8c-0.8-1-0.8-2.7,0.3-3.6c0.1-0.1,0.3-0.3,0.6-0.3c0.6-0.3,1-0.4,1.5-0.4c-2.2,0.6-3-0.8-3-0.8
		c-0.3-0.6-0.3-1-0.1-1.5c0.3-0.8,0.8-1.3,1.7-1.5c0.1,0,0.1-0.1,0.1-0.3c0,0,0-0.1-0.1-0.1c-1-0.6-3.2-2.1-3.2-6.9
		c2.2-45.6,28-32.9,28-32.9c20.7-12,21.2,27.6,21.2,27.6c-0.7-0.1-1.1,0.1-1.5,0.7c-0.8,1-1.1,2.5-1.5,3.7
		C85.6,43.4,82.9,37.6,82.9,37.6z"/>
</g>
</svg>
