<?xml version="1.0" encoding="utf-8"?>
<!-- Generator: Adobe Illustrator 21.0.2, SVG Export Plug-In . SVG Version: 6.00 Build 0)  -->
<svg version="1.1" id="Layer_1" xmlns="http://www.w3.org/2000/svg" xmlns:xlink="http://www.w3.org/1999/xlink" x="0px" y="0px"
	 viewBox="0 0 138 133" style="enable-background:new 0 0 138 133;" xml:space="preserve">
<style type="text/css">
	.st0{fill:#6478A1;}
	.st1{fill:#FEBB86;}
	.st2{fill:#E5BE35;}
	.st3{fill:#732F21;}
	.st4{fill:#EE9D66;}
	.st5{fill:#2D1B11;}
	.st6{fill:#B62122;}
	.st7{fill:#FFFFFF;}
	.st8{fill:#191919;}
	.st9{fill:#FB5847;}
	.st10{fill:#70301E;}
	.st11{fill:#FCFCFC;}
	.st12{font-family:'AmericanPurposeCasual02';}
	.st13{font-size:12px;}
	.st14{font-size:20.2363px;}
</style>
<title>button_17</title>
<g id="Layer_2">
	<g id="Layer_1-2">
		<ellipse transform="matrix(1 -2.792490e-03 2.792490e-03 1 -0.1882 0.1879)" cx="67.2" cy="67.5" rx="59.9" ry="59.9"/>
		<path class="st0" d="M51.1,12.3c0,0,56.3-8.6,74.1,52c0,0-2.1-28.9-25.2-44.4C100,19.7,77.6,3.4,51.1,12.3z"/>
		<path class="st0" d="M20.5,101.7c0,0,31.6,29.6,67,18C87.6,119.7,51,140,20.5,101.7z"/>
	</g>
</g>
<g>
	<path class="st1" d="M77.8,81.8c-1.9-0.5-2.1-5.8-4-7l-13.4-4.3c-0.2,0.6-0.4,1.3-0.7,1.9c-1.8,3.1-2.3,8.4-5.3,9.1
		c-1.5,0.4-2.3,1.7-5,1.6c1.4,2.3-0.4,0.6,4.4,3.5c2.3,1.4,6.4,3.9,11.8,3.7c5.5,0.2,9.5-2.3,11.8-3.7c4.7-2.9-1.8-1.9-0.4-4.3
		C74.3,82.4,79.3,82.1,77.8,81.8z"/>
	<path class="st2" d="M65.1,92.4h0.2c5.5,0.1,9.5-2.9,11.8-4.6c4.7-3.5,7.5-8.1,9-10.9l0.1-0.2c-2.2,0.2-4.4-0.1-6.5-0.6
		c-2.5-0.6-4.8-1.8-6.8-3.2c0,0.8,0.2,6.1-3.1,9.9c-1.2,1.4-2.9,2.4-4.6,2.9l0,0c-1.9-0.5-3.4-1.5-4.6-2.9c-3.3-3.8-3.1-9.1-3.1-9.9
		c-2.1,1.5-4.4,2.6-6.8,3.2c-2.1,0.6-4.4,0.7-6.5,0.6l0.1,0.2c1.5,2.9,4.3,7.4,9,10.9C55.6,89.6,59.7,92.5,65.1,92.4L65.1,92.4z"/>
	<path class="st3" d="M67.1,32.3c4.7,0.1,8.1,1.9,10.2,3.1c1.3,0.7,4.8,2.9,7.1,6.5c0.8,1.3,1.5,2.7,1.8,4.2
		c0.3,1.1,0.4,2.3,0.3,3.4c-0.1,0.7,0.2,1.5,0.7,2.1c1.1,1.3,2.3,2.5,3.3,3.9c2.8,3.7,3.1,8.1,1.1,12.3c-0.6,1.1-1,2.3-1.4,3.6
		c-0.2,0.7,0,1.1,0.6,1.4c0.7,0.4,2.7,3.6,3.1,6.7c0.8,5.1-2.3,10.7-6.1,12.9c-1.6,0.9-2.9,0.9-4.9,1.1c-1.9,0.1-6.5,0.4-9.6-3.2
		c-0.4-0.4-0.6-0.8-0.9-1.3s-0.6-1-0.7-1.6c-0.1-0.3-0.2-0.6-0.3-1c-0.1-0.6-0.2-1.1-0.2-1.8c0.9-0.6-1.9-1.5-0.6-2.7
		c0.6-0.6,0.6,0.6,0.6-6.8c0-1.6,12.3-10.4,8.9-18.5c-0.6-1.6-1.9-4.4-4.1-5.3c-1.5-0.6-2.5,0-4.6-0.6c-1.5-0.5-2.9-1.2-4-2.3h-0.2
		c-1.1,1-2.5,1.9-4,2.3c-2.1,0.6-3.1,0-4.6,0.6c-2.2,0.9-3.4,3.6-4.1,5.3c-3.4,8.1,3.4,18.2,3.7,19.1c1.7,4.1,1.1,5.8,1.8,6.5
		c1,1,2.1,1.9,3.3,2.6c0,0.6,0,1.1-0.2,1.8c-0.1,0.4-0.2,0.6-0.3,1c-0.2,0.6-0.5,1.1-0.7,1.6c-0.3,0.5-0.6,0.9-0.9,1.3
		c-3.1,3.6-7.7,3.3-9.6,3.2c-2-0.1-3.3-0.2-4.9-1.1c-3.8-2.1-6.9-7.8-6.1-12.9c0.5-3.1,2.5-6.2,3.1-6.7c0.6-0.3,0.7-0.6,0.6-1.4
		c-0.4-1.2-0.8-2.4-1.4-3.6c-2-4.3-1.6-8.6,1.1-12.3c1-1.4,2.2-2.6,3.3-3.9c0.6-0.6,0.8-1.3,0.7-2.1c-0.1-1.1,0-2.3,0.3-3.4
		c0.4-1.5,0.9-2.9,1.8-4.2c2.3-3.6,5.8-5.7,7.1-6.5C58.9,34.3,62.4,32.4,67.1,32.3z"/>
	<path class="st1" d="M50.3,59.3c-1.2-0.2-2.9-1.7-3.2-3.5c-0.3-1.3-0.1-3.4,1.4-4.2c0.4-0.2,0.7-0.3,1.1-0.3c0,0.1,0,0.3,0,0.4
		C49.4,54.4,49.7,56.9,50.3,59.3z"/>
	<path class="st4" d="M84.7,51.8c0-0.1,0-0.3,0-0.4c-0.9-9.2-7.9-18.5-17.5-18.6V75c1.8-0.4,4-0.6,5.5-1.4
		c5.8-2.8,9.5-8.3,11.3-14.3C84.6,56.9,84.8,54.4,84.7,51.8z"/>
	<path class="st1" d="M49.6,51.4c0,0.1,0,0.3,0,0.4c-0.2,2.5,0.1,5.1,0.7,7.5c1.8,6.1,6.1,11.2,11.8,14c1.6,0.7,3.2,1.3,5,1.7V32.8
		C57.5,32.9,50.5,42.2,49.6,51.4z"/>
	<path class="st5" d="M79.3,57c-0.3,0-0.6,0-0.9-0.1c0.2,0,0.3-0.1,0.5-0.2c0.2-0.1,0.3-0.2,0.4-0.4c-0.6,0.2-1.2,0.2-1.8,0.1
		c0.4-0.1,0.6-0.3,0.8-0.6c-0.6,0.2-1.1,0.3-1.8,0.3c-0.6-0.3-1.2-0.4-1.9-0.4h-0.1c-0.1,0-0.3,0-0.4,0c-0.2,0-0.4,0.1-0.5,0.1
		c-1.1,0.4-2,1.1-2.6,2.1c0.6-0.6,1.2-1.2,1.9-1.5H73c-0.4,0.7-0.1,1.7,0.6,2c0.7,0.4,1.7,0.1,2-0.6c0.3-0.5,0.3-1,0-1.5
		c0.9,0.2,1.9,0.6,2.6,1.2c0.3,0.1,0.6,0.1,0.9-0.1c0.4-0.2,0.6-0.5,0.8-0.8C79.8,56.9,79.6,56.9,79.3,57z"/>
	<path class="st5" d="M60.7,55.8c-0.2-0.1-0.4-0.1-0.5-0.1s-0.3,0-0.4,0h-0.1c-0.6,0-1.3,0.1-1.9,0.4c-0.6,0-1.2-0.1-1.8-0.3
		c0.2,0.3,0.5,0.5,0.8,0.6c-0.6,0.1-1.2,0.1-1.8-0.1c0.1,0.3,0.4,0.6,0.7,0.6c-0.6,0.2-1.2,0.1-1.8-0.2c0.1,0.4,0.5,0.6,0.8,0.8
		c0.3,0.1,0.6,0.1,0.9,0.1c0.7-0.6,1.7-1,2.6-1.2c-0.5,0.7-0.2,1.7,0.6,2.1c0.7,0.5,1.7,0.2,2.1-0.6c0.3-0.5,0.3-1,0-1.5H61
		c0.7,0.3,1.5,0.8,1.9,1.5C62.7,56.9,61.8,56.2,60.7,55.8z"/>
	<path class="st6" d="M67.1,66.8c0.3-0.3,0.6-0.4,1-0.5c0.6-0.1,1,0.4,1.9,0.6c0.6,0.2,1,0.3,1.6,0.4c-0.4,0.7-0.8,1.4-1.4,1.9
		c-0.6,0.6-1.7,1.6-3.1,1.6c-1.5,0-2.4-0.9-3.1-1.6c-0.6-0.6-1-1.2-1.4-1.9c0.6,0,1.1-0.2,1.6-0.4c0.8-0.3,1.2-0.7,1.9-0.6
		C66.4,66.4,66.8,66.6,67.1,66.8z"/>
	<path class="st7" d="M67.1,67.9c1,0,2.1,0,3.2-0.1c-0.4,0.6-0.9,1.2-1.7,1.6c-1,0.5-2.1,0.5-3.1,0c-0.7-0.4-1.3-0.8-1.7-1.6
		C65,67.8,66.1,67.9,67.1,67.9z"/>
	<path class="st8" d="M67.1,56.1L67.1,56.1c0.5-0.1,0.8-0.3,1.1-0.6c0.9-1.1,3.8-1.6,8.1-2.3c4.8-0.8,5.4-0.6,5.7-0.3
		c0.6,0.6,0.3,1.5-0.1,2.9c-0.6,1.9-1.1,4-3.3,5.5c-0.6,0.5-3.1,2-5.6,1.5c-1.8-0.4-3.3-1.6-4.1-3.2c-0.4-0.7-0.6-1.6-1.8-1.6l0,0
		c-1.3,0-1.4,0.8-1.8,1.6c-0.7,1.7-2.3,2.9-4.1,3.2c-2.5,0.5-4.9-1-5.6-1.5c-2.2-1.6-2.8-3.5-3.3-5.5c-0.4-1.5-0.6-2.3-0.1-2.9
		c0.3-0.3,0.8-0.6,5.7,0.3c4.3,0.7,7.1,1.2,8.1,2.3C66.2,55.7,66.7,56,67.1,56.1L67.1,56.1 M77.5,54.3c-0.9,0-1.8,0.1-2.7,0.3
		c-1.2,0.2-2.4,0.4-3.5,0.7c-1,0.4-1.8,0.6-2,1.2s-0.1,1.2,0,1.7c0.6,1.7,1.9,2.9,3.6,3.3c2.4,0.6,4.4-0.7,4.8-1.1
		c1-0.6,1.7-1.7,2.1-2.8c0.3-0.7,0.8-2.1,0-2.9C79.4,54.4,78.6,54.4,77.5,54.3 M54.4,54.8c-0.8,0.7-0.3,2.1,0,2.9
		c0.4,1.1,1.1,2.1,2.1,2.8c0.5,0.3,2.4,1.7,4.8,1.1c1.7-0.4,3.1-1.7,3.6-3.3c0.2-0.5,0.4-1.1,0-1.7c-0.4-0.6-0.9-0.8-2-1.2
		s-2.3-0.6-3.5-0.7c-0.9-0.2-1.8-0.3-2.7-0.3C55.7,54.4,54.9,54.4,54.4,54.8"/>
	<path class="st9" d="M67.4,66.8c0.3-0.3,0.6-0.4,0.9-0.5c0.6-0.1,0.9,0.3,1.8,0.6c0.5,0.2,1,0.3,1.5,0.4c-0.4,0.6-0.7,1.3-1.3,1.9
		c-0.6,0.6-1.6,1.5-2.9,1.5s-2.3-0.9-2.9-1.5s-1-1.1-1.3-1.9c0.6,0,1-0.2,1.5-0.4c0.8-0.3,1.1-0.6,1.8-0.6
		C66.8,66.4,67.1,66.6,67.4,66.8z"/>
	<path class="st10" d="M56.2,44.7c0.9-2,3.2-3,5.3-2c0.6,0.3,1.1,0.6,1.5,1.1c1.6,2,4.4,4.4,8.1,3.8c4-0.5,3.7,4.4,3.7,4.4
		c-0.2,8.3,5.8,11.3,5.8,11.3c-1.9,5.6-8.3,9.8-8.3,9.8c1.4-0.2-2.7,10.4-2.7,10.4c2.5,2.3,8.2,2.4,8.2,2.4c-0.6,0.6-1,1.3-1.2,2
		c-0.5,1.6,3.7-0.7,5.6,1.8c-0.6-6.1-1.9-2.3-1.9-2.3c0.5-0.1,0.9-0.3,1.4-0.6c1-0.6,6.3-1.2,6.5-3.1c0.1-1,0.5-5.3-2.2-4.6
		s0-2-0.4-3.2c-0.6-1.6-3.7-1.5-2.1-1.9c1.2-0.4,2.6-1.3,2.8-3.6C86,67.9,84,67.6,84,67.6c0.6,0.1,1.3-0.1,1.7-0.6
		c0.6-0.7,0.6-1.9-0.2-2.5c-0.1-0.1-0.2-0.2-0.4-0.2C84.7,64.1,84.4,64,84,64c1.6,0.4,2-0.6,2-0.6c0.2-0.4,0.2-0.7,0.1-1.1
		c-0.2-0.6-0.6-0.9-1.2-1.1c-0.1,0-0.1-0.1-0.1-0.2c0,0,0-0.1,0.1-0.1c0.7-0.4,2.2-1.5,2.2-4.9c-1.5-32.1-19.6-23.2-19.6-23.2
		c-14.6-8.4-14.9,19.4-14.9,19.4c0.5-0.1,0.8,0.1,1.1,0.5c0.6,0.7,0.8,1.7,1.1,2.6C54.3,48.8,56.2,44.7,56.2,44.7z"/>
	<path class="st4" d="M70.8,80c2.9-6.1,6.7-11.7,3.8-9.7c-2.9,1.9-5.3,4.6-7.5,5.1c-2.1-0.5-4.2-1.1-6.1-2c0,0.6,5.8,3.8,5.6,4.6
		l0.1,6.8C65.4,84.1,68.6,84.6,70.8,80z"/>
	<path class="st10" d="M76.2,44.7c-0.9-2-3.2-2.9-5.3-2c-0.6,0.3-1.1,0.6-1.5,1.1c-1.6,2-4.4,4.4-8.1,3.8c-4-0.5-3.7,4.4-3.7,4.4
		c0.2,8.3-4.4,11.6-4.4,11.6c1.9,5.6,7.1,9,7.1,9c-0.4,4.4-5.6,8.7-5.6,8.7c-2.5,2.3-0.2,4.6-0.2,4.6c0.6,0.6,1,1.3,1.3,2
		c0.5,1.6-2,0.3-4,2.7c0.6-6.1,0.1-3.2,0.1-3.2c-0.5-0.1-0.9-0.3-1.4-0.6c-1-0.6-7.2-1.2-7.4-3.1c-0.1-1,1.7-3.5,2.3-4.3
		c0.6-0.6,4.9-0.6,5.3-1.8c0.6-1.6-0.3-3.3-1.9-3.9l0,0c-1.2-0.4-2.6-1.3-2.8-3.6c0.3-2.4,2.2-2.7,2.2-2.7c-0.6,0.1-1.3-0.1-1.7-0.6
		c-0.6-0.7-0.6-1.9,0.2-2.5c0.1-0.1,0.2-0.2,0.4-0.2c0.4-0.2,0.7-0.3,1.1-0.3c-1.6,0.4-2.1-0.6-2.1-0.6c-0.2-0.4-0.2-0.7-0.1-1.1
		c0.2-0.6,0.6-0.9,1.2-1.1c0.1,0,0.1-0.1,0.1-0.2c0,0,0-0.1-0.1-0.1c-0.7-0.4-2.2-1.5-2.2-4.9c1.6-32,19.7-23.1,19.7-23.1
		c14.6-8.4,14.9,19.4,14.9,19.4c-0.5-0.1-0.8,0.1-1.1,0.5c-0.6,0.7-0.8,1.7-1.1,2.6C78.1,48.8,76.2,44.7,76.2,44.7z"/>
</g>
<text transform="matrix(1 0 0 1 33.7782 105.1086)" class="st11 st12 st13">New York, NY</text>
<text transform="matrix(1 0 0 1 31.2385 42.9507)" class="st11 st12 st14">Manuela</text>
</svg>
