<?xml version="1.0"?>
<!DOCTYPE svg PUBLIC "-//W3C//DTD SVG 1.1//EN" "http://www.w3.org/Graphics/SVG/1.1/DTD/svg11.dtd">
<svg xmlns="http://www.w3.org/2000/svg" xmlns:xl="http://www.w3.org/1999/xlink" version="1.1" viewBox="632 573 62 62" width="62pt" height="62pt"><metadata xmlns:dc="http://purl.org/dc/elements/1.1/"><dc:date>2016-12-21 01:40Z</dc:date><!-- Produced by OmniGraffle Professional 5.4.2 --></metadata><defs></defs><g stroke="none" stroke-opacity="1" stroke-dasharray="none" fill="none" fill-opacity="1"><title>_All img buttons</title><g><title>Layer 1</title><circle cx="663.16933" cy="603.95684" r="21.78888" fill="red"/><path d="M 663.16933 575.3813 C 647.4242 575.3813 634.5938 588.21173 634.5938 603.95685 C 634.5938 619.70197 647.4242 632.5324 663.16933 632.5324 L 686.02976 632.5324 C 689.17307 632.5324 691.74486 629.9606 691.74486 626.81728 L 691.74486 603.95685 C 691.74486 588.21173 678.91445 575.3813 663.16933 575.3813 Z M 663.16933 626.81728 L 663.16933 626.81728 C 650.56752 626.81728 640.3089 616.55866 640.3089 603.95685 C 640.3089 591.35504 650.56752 581.09642 663.16933 581.09642 C 675.77114 581.09642 686.02976 591.35504 686.02976 603.95685 C 686.02976 616.55866 675.77114 626.81728 663.16933 626.81728 Z" stroke="black" stroke-linecap="round" stroke-linejoin="round" stroke-width=".25"/></g></g></svg>
