<?xml version="1.0"?>
<!DOCTYPE svg PUBLIC "-//W3C//DTD SVG 1.1//EN" "http://www.w3.org/Graphics/SVG/1.1/DTD/svg11.dtd">
<svg xmlns="http://www.w3.org/2000/svg" xmlns:xl="http://www.w3.org/1999/xlink" version="1.1" viewBox="632 430 62 62" width="62pt" height="62pt"><metadata xmlns:dc="http://purl.org/dc/elements/1.1/"><dc:date>2016-12-21 01:40Z</dc:date><!-- Produced by OmniGraffle Professional 5.4.2 --></metadata><defs></defs><g stroke="none" stroke-opacity="1" stroke-dasharray="none" fill="none" fill-opacity="1"><title>_All img buttons</title><g><title>Layer 1</title><circle cx="664.5565" cy="461.07918" r="21.78888" fill="#00ff80"/><path d="M 663.16933 432.50365 C 647.4242 432.50365 634.5938 445.33406 634.5938 461.07918 C 634.5938 476.8243 647.4242 489.65472 663.16933 489.65472 L 686.02976 489.65472 C 689.17307 489.65472 691.74486 487.08292 691.74486 483.9396 L 691.74486 461.07918 C 691.74486 445.33406 678.91445 432.50365 663.16933 432.50365 Z M 663.16933 483.9396 L 663.16933 483.9396 C 650.56752 483.9396 640.3089 473.681 640.3089 461.07918 C 640.3089 448.47737 650.56752 438.21876 663.16933 438.21876 C 675.77114 438.21876 686.02976 448.47737 686.02976 461.07918 C 686.02976 473.681 675.77114 483.9396 663.16933 483.9396 Z" stroke="black" stroke-linecap="round" stroke-linejoin="round" stroke-width=".25"/></g></g></svg>
