<?xml version="1.0" encoding="utf-8"?>
<!-- Generator: Adobe Illustrator 16.0.0, SVG Export Plug-In . SVG Version: 6.00 Build 0)  -->
<!DOCTYPE svg PUBLIC "-//W3C//DTD SVG 1.1//EN" "http://www.w3.org/Graphics/SVG/1.1/DTD/svg11.dtd">
<svg version="1.1" id="Layer_1" xmlns:xl="http://www.w3.org/1999/xlink"
	 xmlns="http://www.w3.org/2000/svg" xmlns:xlink="http://www.w3.org/1999/xlink" x="0px" y="0px" width="342px" height="344px"
	 viewBox="0 0 342 344" enable-background="new 0 0 342 344" xml:space="preserve">
<g>
	<path fill="#E6E6E6" stroke="#E6E6E6" stroke-miterlimit="10" d="M245.271,100.379c-6.425-6.428-16.848-6.428-23.264,0L171,151.393
		l-51.004-51.013c-6.428-6.428-16.836-6.428-23.264,0c-6.426,6.428-6.426,16.836,0,23.264l51.007,51.012L96.73,225.668
		c-6.428,6.425-6.428,16.837,0,23.266c3.213,3.211,7.422,4.814,11.632,4.814c4.21,0,8.424-1.605,11.632-4.814L171,197.922
		l51.007,51.012c3.215,3.211,7.423,4.814,11.631,4.814c4.212,0,8.42-1.605,11.633-4.814c6.426-6.429,6.426-16.841,0-23.266
		l-51.006-51.013l51.006-51.01C251.701,117.218,251.701,106.807,245.271,100.379z"/>
	<circle fill="none" stroke="#E6E6E6" stroke-width="11" stroke-miterlimit="10" cx="171" cy="174.654" r="163.25"/>
</g>
</svg>
