<?xml version="1.0"?>
<!DOCTYPE svg PUBLIC "-//W3C//DTD SVG 1.1//EN" "http://www.w3.org/Graphics/SVG/1.1/DTD/svg11.dtd">
<svg xmlns="http://www.w3.org/2000/svg" xmlns:xl="http://www.w3.org/1999/xlink" version="1.1" viewBox="632 501 62 63" width="62pt" height="63pt"><metadata xmlns:dc="http://purl.org/dc/elements/1.1/"><dc:date>2016-12-21 01:40Z</dc:date><!-- Produced by OmniGraffle Professional 5.4.2 --></metadata><defs></defs><g stroke="none" stroke-opacity="1" stroke-dasharray="none" fill="none" fill-opacity="1"><title>_All img buttons</title><g><title>Layer 1</title><circle cx="663.16933" cy="532.518" r="21.78888" fill="#ff6"/><path d="M 663.16933 503.94248 C 647.4242 503.94248 634.5938 516.7729 634.5938 532.518 C 634.5938 548.26313 647.4242 561.09355 663.16933 561.09355 L 686.02976 561.09355 C 689.17307 561.09355 691.74486 558.52175 691.74486 555.37844 L 691.74486 532.518 C 691.74486 516.7729 678.91445 503.94248 663.16933 503.94248 Z M 663.16933 555.37844 L 663.16933 555.37844 C 650.56752 555.37844 640.3089 545.11983 640.3089 532.518 C 640.3089 519.9162 650.56752 509.6576 663.16933 509.6576 C 675.77114 509.6576 686.02976 519.9162 686.02976 532.518 C 686.02976 545.11983 675.77114 555.37844 663.16933 555.37844 Z" stroke="black" stroke-linecap="round" stroke-linejoin="round" stroke-width=".25"/></g></g></svg>
