<?xml version="1.0"?>
<!DOCTYPE svg PUBLIC "-//W3C//DTD SVG 1.1//EN" "http://www.w3.org/Graphics/SVG/1.1/DTD/svg11.dtd">
<svg xmlns="http://www.w3.org/2000/svg" xmlns:xl="http://www.w3.org/1999/xlink" version="1.1" viewBox="632 716 62 62" width="62pt" height="62pt"><metadata xmlns:dc="http://purl.org/dc/elements/1.1/"><dc:date>2016-12-21 01:40Z</dc:date><!-- Produced by OmniGraffle Professional 5.4.2 --></metadata><defs></defs><g stroke="none" stroke-opacity="1" stroke-dasharray="none" fill="none" fill-opacity="1"><title>_All img buttons</title><g><title>Layer 1</title><circle cx="663.16933" cy="746.8345" r="21.78888" fill="#0080ff"/><path d="M 663.16933 718.259 C 647.4242 718.259 634.5938 731.0894 634.5938 746.8345 C 634.5938 762.57963 647.4242 775.41005 663.16933 775.41005 L 686.02976 775.41005 C 689.17307 775.41005 691.74486 772.83825 691.74486 769.69494 L 691.74486 746.8345 C 691.74486 731.0894 678.91445 718.259 663.16933 718.259 Z M 663.16933 769.69494 L 663.16933 769.69494 C 650.56752 769.69494 640.3089 759.43633 640.3089 746.8345 C 640.3089 734.2327 650.56752 723.9741 663.16933 723.9741 C 675.77114 723.9741 686.02976 734.2327 686.02976 746.8345 C 686.02976 759.43633 675.77114 769.69494 663.16933 769.69494 Z" stroke="black" stroke-linecap="round" stroke-linejoin="round" stroke-width=".25"/></g></g></svg>
