<?xml version="1.0"?>
<!DOCTYPE svg PUBLIC "-//W3C//DTD SVG 1.1//EN" "http://www.w3.org/Graphics/SVG/1.1/DTD/svg11.dtd">
<svg xmlns="http://www.w3.org/2000/svg" xmlns:xl="http://www.w3.org/1999/xlink" version="1.1" viewBox="632 644 62 62" width="62pt" height="62pt"><metadata xmlns:dc="http://purl.org/dc/elements/1.1/"><dc:date>2016-12-21 01:40Z</dc:date><!-- Produced by OmniGraffle Professional 5.4.2 --></metadata><defs></defs><g stroke="none" stroke-opacity="1" stroke-dasharray="none" fill="none" fill-opacity="1"><title>_All img buttons</title><g><title>Layer 1</title><path d="M 663.16933 646.82015 C 647.4242 646.82015 634.5938 659.65056 634.5938 675.3957 C 634.5938 691.1408 647.4242 703.9712 663.16933 703.9712 L 686.02976 703.9712 C 689.17307 703.9712 691.74486 701.3994 691.74486 698.2561 L 691.74486 675.3957 C 691.74486 659.65056 678.91445 646.82015 663.16933 646.82015 Z M 663.16933 698.2561 L 663.16933 698.2561 C 650.56752 698.2561 640.3089 687.9975 640.3089 675.3957 C 640.3089 662.79387 650.56752 652.53526 663.16933 652.53526 C 675.77114 652.53526 686.02976 662.79387 686.02976 675.3957 C 686.02976 687.9975 675.77114 698.2561 663.16933 698.2561 Z" stroke="black" stroke-linecap="round" stroke-linejoin="round" stroke-width=".25"/><circle cx="663.16933" cy="675.3956" r="21.78888" fill="#ff8000"/></g></g></svg>
