<?xml version="1.0"?>
<!DOCTYPE svg PUBLIC "-//W3C//DTD SVG 1.1//EN" "http://www.w3.org/Graphics/SVG/1.1/DTD/svg11.dtd">
<svg xmlns="http://www.w3.org/2000/svg" xmlns:xl="http://www.w3.org/1999/xlink" version="1.1" viewBox="632 859 62 62" width="62pt" height="62pt"><metadata xmlns:dc="http://purl.org/dc/elements/1.1/"><dc:date>2016-12-21 01:40Z</dc:date><!-- Produced by OmniGraffle Professional 5.4.2 --></metadata><defs></defs><g stroke="none" stroke-opacity="1" stroke-dasharray="none" fill="none" fill-opacity="1"><title>_All img buttons</title><g><title>Layer 1</title><path d="M 663.16933 861.13665 C 647.4242 861.13665 634.5938 873.96706 634.5938 889.7122 C 634.5938 905.4573 647.4242 918.2877 663.16933 918.2877 L 686.02976 918.2877 C 689.17307 918.2877 691.74486 915.7159 691.74486 912.5726 L 691.74486 889.7122 C 691.74486 873.96706 678.91445 861.13665 663.16933 861.13665 Z M 663.16933 912.5726 L 663.16933 912.5726 C 650.56752 912.5726 640.3089 902.314 640.3089 889.7122 C 640.3089 877.11037 650.56752 866.85176 663.16933 866.85176 C 675.77114 866.85176 686.02976 877.11037 686.02976 889.7122 C 686.02976 902.314 675.77114 912.5726 663.16933 912.5726 Z" stroke="black" stroke-linecap="round" stroke-linejoin="round" stroke-width=".25"/><circle cx="663.16933" cy="889.7121" r="21.78888" fill="black"/></g></g></svg>
