<?xml version="1.0"?>
<!DOCTYPE svg PUBLIC "-//W3C//DTD SVG 1.1//EN" "http://www.w3.org/Graphics/SVG/1.1/DTD/svg11.dtd">
<svg xmlns="http://www.w3.org/2000/svg" xmlns:xl="http://www.w3.org/1999/xlink" version="1.1" viewBox="632 787 62 62" width="62pt" height="62pt"><metadata xmlns:dc="http://purl.org/dc/elements/1.1/"><dc:date>2016-12-21 01:40Z</dc:date><!-- Produced by OmniGraffle Professional 5.4.2 --></metadata><defs></defs><g stroke="none" stroke-opacity="1" stroke-dasharray="none" fill="none" fill-opacity="1"><title>_All img buttons</title><g><title>Layer 1</title><path d="M 663.16933 789.6978 C 647.4242 789.6978 634.5938 802.52823 634.5938 818.27335 C 634.5938 834.01847 647.4242 846.8489 663.16933 846.8489 L 686.02976 846.8489 C 689.17307 846.8489 691.74486 844.2771 691.74486 841.1338 L 691.74486 818.27335 C 691.74486 802.52823 678.91445 789.6978 663.16933 789.6978 Z M 663.16933 841.1338 L 663.16933 841.1338 C 650.56752 841.1338 640.3089 830.87516 640.3089 818.27335 C 640.3089 805.67154 650.56752 795.4129 663.16933 795.4129 C 675.77114 795.4129 686.02976 805.67154 686.02976 818.27335 C 686.02976 830.87516 675.77114 841.1338 663.16933 841.1338 Z" stroke="black" stroke-linecap="round" stroke-linejoin="round" stroke-width=".25"/><circle cx="663.16933" cy="818.2733" r="21.78888" fill="#66f"/></g></g></svg>
