<?xml version="1.0"?>
<!DOCTYPE svg PUBLIC "-//W3C//DTD SVG 1.1//EN" "http://www.w3.org/Graphics/SVG/1.1/DTD/svg11.dtd">
<svg xmlns="http://www.w3.org/2000/svg" xmlns:xl="http://www.w3.org/1999/xlink" version="1.1" viewBox="632 930 62 62" width="62pt" height="62pt"><metadata xmlns:dc="http://purl.org/dc/elements/1.1/"><dc:date>2016-12-21 01:40Z</dc:date><!-- Produced by OmniGraffle Professional 5.4.2 --></metadata><defs></defs><g stroke="none" stroke-opacity="1" stroke-dasharray="none" fill="none" fill-opacity="1"><title>_All img buttons</title><g><title>Layer 1</title><path d="M 663.16933 932.5755 C 647.4242 932.5755 634.5938 945.4059 634.5938 961.151 C 634.5938 976.89614 647.4242 989.72655 663.16933 989.72655 L 686.02976 989.72655 C 689.17307 989.72655 691.74486 987.15475 691.74486 984.01144 L 691.74486 961.151 C 691.74486 945.4059 678.91445 932.5755 663.16933 932.5755 Z M 663.16933 984.01144 L 663.16933 984.01144 C 650.56752 984.01144 640.3089 973.7528 640.3089 961.151 C 640.3089 948.5492 650.56752 938.2906 663.16933 938.2906 C 675.77114 938.2906 686.02976 948.5492 686.02976 961.151 C 686.02976 973.7528 675.77114 984.01144 663.16933 984.01144 Z" stroke="black" stroke-linecap="round" stroke-linejoin="round" stroke-width=".25"/><circle cx="663.16933" cy="961.15094" r="21.78888" fill="white"/></g></g></svg>
