<?xml version="1.0"?>
<!DOCTYPE svg PUBLIC "-//W3C//DTD SVG 1.1//EN" "http://www.w3.org/Graphics/SVG/1.1/DTD/svg11.dtd">
<svg xmlns="http://www.w3.org/2000/svg" xmlns:xl="http://www.w3.org/1999/xlink" version="1.1" viewBox="105 87 370 240" width="370pt" height="20pc"><metadata xmlns:dc="http://purl.org/dc/elements/1.1/"><dc:date>2016-12-30 18:58Z</dc:date><!-- Produced by OmniGraffle Professional 5.4.2 --></metadata><defs></defs><g stroke="none" stroke-opacity="1" stroke-dasharray="none" fill="none" fill-opacity="1"><title>Canvas 36</title><g><title>Layer 1</title><rect x="105" y="87" width="370" height="240" fill="#f3f3f3"/><path d="M 340.23823 128.99999 C 332.6714 128.99999 326.53226 138.59416 326.53226 150.42031 C 326.53226 162.24647 332.66663 171.84064 340.23823 171.84064 C 347.80506 171.84064 353.9442 162.24647 353.93943 150.42031 C 353.93943 138.59416 347.80506 128.99999 340.23823 128.99999 Z" fill="#a7a7a9"/><path d="M 307.3482 159.00843 C 305.5017 154.83002 302.3084 154.6349 300.24775 158.55157 L 283.61975 190.23233 C 281.55433 194.149 277.99935 194.47737 275.71502 190.87004 L 268.78114 180.09563 C 266.50157 176.48354 263.10363 177.22594 261.24286 181.3758 L 226.95891 258.31004 C 225.09813 262.46942 226.22126 267 229.46691 267 L 348.05205 267 C 351.29294 267 352.43987 262.45514 350.59337 258.27197 Z" fill="#a7a7a9"/></g></g></svg>
