<?xml version="1.0"?>
<!DOCTYPE svg PUBLIC "-//W3C//DTD SVG 1.1//EN" "http://www.w3.org/Graphics/SVG/1.1/DTD/svg11.dtd">
<svg xmlns="http://www.w3.org/2000/svg" xmlns:xl="http://www.w3.org/1999/xlink" version="1.1" viewBox="345 292 185 240" width="185pt" height="20pc"><metadata xmlns:dc="http://purl.org/dc/elements/1.1/"><dc:date>2016-12-30 18:56Z</dc:date><!-- Produced by OmniGraffle Professional 5.4.2 --></metadata><defs></defs><g stroke="none" stroke-opacity="1" stroke-dasharray="none" fill="none" fill-opacity="1"><title>Canvas 36</title><g><title>Layer 1</title><rect x="345" y="292" width="185" height="240" fill="#f3f3f3"/><path d="M 470.35236 358.1563 C 465.40417 358.1563 461.3896 364.43022 461.3896 372.16372 C 461.3896 379.8972 465.40106 386.17114 470.35236 386.17114 C 475.30055 386.17114 479.31512 379.8972 479.312 372.16372 C 479.312 364.43022 475.30055 358.1563 470.35236 358.1563 Z" fill="#a7a7a9"/><path d="M 448.84453 377.77976 C 447.63705 375.04736 445.54885 374.91977 444.20132 377.481 L 433.32775 398.19805 C 431.97711 400.75928 429.6524 400.97402 428.1586 398.61507 L 423.62432 391.56934 C 422.13364 389.20728 419.91162 389.69276 418.6948 392.40649 L 396.27545 442.7162 C 395.05863 445.43616 395.79307 448.39885 397.9155 448.39885 L 475.46207 448.39885 C 477.5814 448.39885 478.3314 445.42682 477.1239 442.69131 Z" fill="#a7a7a9"/></g></g></svg>
