<?xml version="1.0" encoding="utf-8"?>
<!-- Generator: Adobe Illustrator 21.0.2, SVG Export Plug-In . SVG Version: 6.00 Build 0)  -->
<svg version="1.1" id="Layer_1" xmlns="http://www.w3.org/2000/svg" xmlns:xlink="http://www.w3.org/1999/xlink" x="0px" y="0px"
	 viewBox="0 0 520 524" style="enable-background:new 0 0 520 524;" xml:space="preserve">
<style type="text/css">
	.st0{fill:#0000FF;}
	.st1{fill:none;stroke:#0000FF;stroke-miterlimit:10;}
</style>
<title>play_button_blue</title>
<path class="st0" d="M386.8,252.6l-11.1-7.3l-168-110.4c-4.9-3.2-11.2-3.3-16.2-0.2c-5.2,3.4-8.2,9.2-8.1,15.3l2.1,237.8
	c0,0.5,0,1,0.1,1.5c0.4,5.6,3.5,10.7,8.2,13.7c5,3.1,11.4,2.9,16.2-0.5l177.1-120c8.2-6,10-17.5,4.1-25.7
	C389.9,255.2,388.4,253.8,386.8,252.6L386.8,252.6z"/>
<path id="Shape" class="st1" d="M260.7,514.6L260.7,514.6c-137.5,0-249.1-111.9-249.1-249.1C11.5,128,123.2,16.3,260.7,16.3
	s249.2,111.9,249.2,249.1C509.8,402.9,398.1,514.6,260.7,514.6L260.7,514.6z"/>
</svg>
