<?xml version="1.0"?>
<!DOCTYPE svg PUBLIC "-//W3C//DTD SVG 1.1//EN" "http://www.w3.org/Graphics/SVG/1.1/DTD/svg11.dtd">
<svg xmlns="http://www.w3.org/2000/svg" xmlns:xl="http://www.w3.org/1999/xlink" version="1.1" viewBox="16 37 84 84" width="7pc" height="7pc"><metadata xmlns:dc="http://purl.org/dc/elements/1.1/"><dc:date>2017-01-11 03:48Z</dc:date><!-- Produced by OmniGraffle Professional 5.4.2 --></metadata><defs></defs><g stroke="none" stroke-opacity="1" stroke-dasharray="none" fill="none" fill-opacity="1"><title>Canvas 1</title><g><title>Layer 1</title><path d="M 61.795458 66.384053 L 61.800402 74.75098 L 55.18774 74.747074 L 55.18275 66.38028 C 55.18124 63.826572 53.29726 61.70324 50.8469 61.32593 L 50.842882 54.680196 C 53.681663 54.866637 56.325717 56.06121 58.3568 58.09229 C 60.572393 60.307885 61.793608 63.2526 61.795458 66.384053 M 61.803057 79.244257 L 55.190394 79.24035 L 55.188658 76.303185 L 61.801367 76.307048 Z M 44.960952 66.374195 L 44.965896 74.741124 L 38.353188 74.73717 L 38.348244 66.370333 C 38.346483 63.23888 39.564218 60.295516 41.77715 58.082583 C 43.80588 56.053856 46.448478 54.862363 49.28704 54.679277 L 49.290923 61.325056 C 46.840827 61.69947 44.959533 63.820487 44.960952 66.374195 M 44.968551 79.23431 L 38.355843 79.230447 L 38.354107 76.293192 L 44.96686 76.2971 Z M 50.06398 53.097744 C 42.74156 53.093417 36.78794 59.047037 36.792357 66.36937 L 36.800416 80.00745 C 36.80067 80.437095 37.149194 80.78562 37.578886 80.78592 L 45.747481 80.790745 C 46.177218 80.791 46.52524 80.442886 46.525032 80.013194 L 46.517063 66.375205 C 46.515815 64.41506 48.109716 62.821157 50.069908 62.82236 C 52.0301 62.823474 53.625795 64.41917 53.626908 66.37936 L 53.634877 80.01735 C 53.63513 80.447 53.983655 80.79552 54.413302 80.795776 L 62.581942 80.80065 C 62.78823 80.800815 62.98611 80.71893 63.13192 80.57312 C 63.27773 80.42731 63.35957 80.229473 63.35945 80.02314 L 63.351345 66.385107 C 63.347018 59.062776 57.386313 53.10207 50.06398 53.097744" fill="#7f7f7f"/><path d="M 48.958473 80.051904 C 48.528826 80.05165 48.180713 80.399763 48.180922 80.829455 L 48.1847 87.22033 C 48.18484 87.534995 48.374623 87.81872 48.66541 87.939314 C 48.956196 88.059905 49.290726 87.9936 49.513146 87.77118 L 51.379403 85.904925 L 51.38207 90.41761 C 51.382323 90.84726 51.730848 91.195783 52.16054 91.19608 C 52.375408 91.19621 52.569826 91.109244 52.710517 90.968553 C 52.851208 90.82786 52.938218 90.6334 52.938046 90.418576 L 52.93427 84.0277 C 52.934084 83.71308 52.744345 83.42931 52.45356 83.308717 C 52.162773 83.188126 51.828198 83.254473 51.605822 83.47685 L 49.739565 85.343106 L 49.7369 80.83033 C 49.7366 80.400638 49.388075 80.052113 48.958473 80.051904 Z" fill="#7f7f7f"/><path d="M 29.03065 71.51953 C 29.03065 59.476935 38.82634 49.67996 50.870223 49.67996 C 62.911535 49.67996 72.709795 59.476935 72.709795 71.51953 C 72.709795 83.56213 62.911535 93.359104 50.870223 93.359104 C 38.82634 93.359104 29.03065 83.56213 29.03065 71.51953 M 81.125443 104.955204 L 84.30428 101.776365 L 69.643262 87.11427 C 73.162003 82.88382 75.279157 77.44962 75.279157 71.51953 C 75.279157 58.038092 64.351663 47.110598 50.870223 47.110598 C 37.391353 47.110598 26.461289 58.038092 26.461289 71.51953 C 26.461289 84.9984 37.391353 95.928466 50.870223 95.928466 C 56.801594 95.928466 62.23451 93.81131 66.464962 90.29257 Z" fill="#7f7e7e"/></g></g></svg>
