<?xml version="1.0" encoding="utf-8"?>
<!-- Generator: Adobe Illustrator 21.0.2, SVG Export Plug-In . SVG Version: 6.00 Build 0)  -->
<svg version="1.1" id="Layer_1" xmlns="http://www.w3.org/2000/svg" xmlns:xlink="http://www.w3.org/1999/xlink" x="0px" y="0px"
	 viewBox="0 0 162 160" style="enable-background:new 0 0 162 160;" xml:space="preserve">
<style type="text/css">
	.st0{fill:#FFFFFF;stroke:#000000;stroke-width:5;stroke-miterlimit:10;}
	.st1{fill:#23292A;}
	.st2{fill:none;stroke:#23292A;stroke-width:5;stroke-linecap:round;stroke-linejoin:round;}
</style>
<title>Plusser_Minimal_Logo_1</title>
<g id="Layer_2">
	<g id="Layer_1-2">
		<circle class="st0" cx="81.2" cy="80.2" r="75.2"/>
		<ellipse class="st1" cx="36.1" cy="72.9" rx="8.9" ry="18.4"/>
		<path d="M135.9,70.5h-8.1v-7.2c-0.2-1.5-1.5-2.5-3-2.4c-1.2,0.2-2.2,1.1-2.4,2.4v7.2h-8.1c-1.3-0.2-2.5,0.8-2.7,2.1
			c-0.2,1.3,0.8,2.5,2.1,2.7c0.2,0,0.4,0,0.5,0h8.1v7.2c0.2,1.5,1.5,2.5,3,2.4c1.2-0.2,2.2-1.1,2.4-2.4v-7.2h8.1
			c1.3,0.2,2.5-0.8,2.7-2.1c0.2-1.3-0.8-2.5-2.1-2.7C136.3,70.5,136.1,70.5,135.9,70.5z"/>
		<path class="st2" d="M39.5,107.4c0,0,12.2,25.4,42.2,25.1"/>
		<path class="st2" d="M123.4,106.6c0,0-11.8,25.5-41.7,25.9"/>
	</g>
</g>
</svg>
