<svg xmlns="http://www.w3.org/2000/svg" viewBox="0 0 138.19 138.19"><defs><style>.cls-1{fill:#5f4eff;}.cls-2{fill:none;stroke:#43fe6f;stroke-miterlimit:10;stroke-width:2px;}</style></defs><title>Plusser New Violet+Blue</title><g id="Layer_2" data-name="Layer 2"><g id="Layer_1-2" data-name="Layer 1"><circle class="cls-1" cx="69.1" cy="69.1" r="69.1" transform="translate(-0.5 0.5) rotate(-0.42)"/><path class="cls-2" d="M31.16,91.47s11.05,29.24,38.05,29"/><path class="cls-2" d="M106.76,90.81s-10.54,29.42-37.54,29.66"/><path class="cls-2" d="M74.59,96.85H70.78V93.28a1.27,1.27,0,0,0-2.54,0v3.57H64.43a1.19,1.19,0,1,0,0,2.38h3.81v3.57a1.27,1.27,0,0,0,2.54,0V99.23h3.81a1.19,1.19,0,1,0,0-2.38Z"/><path class="cls-2" d="M12.81,47.67S18,31.82,28.26,42.46"/><path class="cls-2" d="M28.43,81.6a6.84,6.84,0,0,0,2.8-3.48L28,78.62Z"/><path class="cls-2" d="M25.27,76.58,24.73,73a1.19,1.19,0,1,1,2.35-.35l.54,3.59,3.52-.53a1.17,1.17,0,0,1,.84.2,35.2,35.2,0,0,0,.37-13.79C30.8,51.78,26,43.93,21.64,44.59S15,54.16,16.57,64.49A35.2,35.2,0,0,0,21,77.55a1.17,1.17,0,0,1,.74-.44Z"/><path class="cls-2" d="M22.38,79.46a6.84,6.84,0,0,0,3.7,2.5l-.45-3Z"/><path class="cls-2" d="M109.1,43.72s10.65-12.82,16.29.85"/><path class="cls-2" d="M111.13,81a6.84,6.84,0,0,0,3.88-2.2l-3.2-.74Z"/><path class="cls-2" d="M110,75.19l.82-3.54a1.19,1.19,0,1,1,2.32.54l-.82,3.54,3.47.8a1.17,1.17,0,0,1,.71.5A35.2,35.2,0,0,0,122,64.35c2.35-10.18.78-19.24-3.51-20.23s-9.68,6.46-12,16.64a35.2,35.2,0,0,0-.69,13.77,1.17,1.17,0,0,1,.85-.14Z"/><path class="cls-2" d="M106.29,76.81a6.84,6.84,0,0,0,2.52,3.68l.68-2.94Z"/></g></g></svg>