<svg xmlns="http://www.w3.org/2000/svg" viewBox="0 0 232.78 232.78"><defs><style>.cls-1{fill:#fcfcfc;stroke:#000;stroke-miterlimit:10;}.cls-1,.cls-2{stroke-width:5px;}.cls-2{fill:none;stroke:#23292a;stroke-linecap:round;stroke-linejoin:round;}</style></defs><title>Plusser_logo_v3</title><g id="Layer_2" data-name="Layer 2"><g id="Layer_1-2" data-name="Layer 1"><circle class="cls-1" cx="116.39" cy="116.39" r="113.89" transform="translate(-0.84 0.85) rotate(-0.42)"/><path class="cls-2" d="M57.17,153.06s18.13,41,62.57,40.62"/><path class="cls-2" d="M181.6,152s-17.42,41.32-61.86,41.7"/><path d="M127,144.43h-6.27v-6.27a2.09,2.09,0,0,0-4.18,0v6.27h-6.27a2.09,2.09,0,0,0,0,4.18h6.27v6.27a2.09,2.09,0,1,0,4.18,0v-6.27H127a2.09,2.09,0,0,0,0-4.18Z"/><ellipse cx="53.22" cy="105.25" rx="13.14" ry="21.74"/><path class="cls-2" d="M40,70.13s12.17-9.24,26.4-1.61"/><ellipse cx="183.58" cy="108.3" rx="13.14" ry="21.74"/><path class="cls-2" d="M170.4,73.19s12.17-9.24,26.4-1.61"/></g></g></svg>