<?xml version="1.0"?>
<!DOCTYPE svg PUBLIC "-//W3C//DTD SVG 1.1//EN" "http://www.w3.org/Graphics/SVG/1.1/DTD/svg11.dtd">
<svg xmlns="http://www.w3.org/2000/svg" xmlns:xl="http://www.w3.org/1999/xlink" version="1.1" viewBox="46 252 84 84" width="7pc" height="7pc"><metadata xmlns:dc="http://purl.org/dc/elements/1.1/"><dc:date>2017-01-11 03:22Z</dc:date><!-- Produced by OmniGraffle Professional 5.4.2 --></metadata><defs></defs><g stroke="none" stroke-opacity="1" stroke-dasharray="none" fill="none" fill-opacity="1"><title>Canvas 1</title><g><title>Layer 1</title><path d="M 94.053047 294.36569 C 93.139105 296.53102 91.95345 297.72569 90.730743 297.72569 C 89.508037 297.72569 88.32238 296.53102 87.40844 294.36569 C 87.13673 293.73102 86.75386 293.88035 86.5439 294.70169 C 86.33394 295.52302 86.383343 296.68035 86.655055 297.31502 C 87.778957 300.00302 89.236324 301.45902 90.730743 301.45902 C 92.22516 301.45902 93.68253 300.00302 94.81878 297.35235 C 95.090495 296.71769 95.139897 295.56035 94.929937 294.73902 C 94.71998 293.88035 94.32476 293.76835 94.053047 294.36569 Z" fill="#7f7f7f"/><path d="M 87.6431 277.19235 C 87.6431 279.25427 87.090166 280.92569 86.408044 280.92569 C 85.72592 280.92569 85.172987 279.25427 85.172987 277.19235 C 85.172987 275.13043 85.72592 273.45902 86.408044 273.45902 C 87.090166 273.45902 87.6431 275.13043 87.6431 277.19235 Z" fill="#7f7f7f"/><path d="M 96.2885 277.19235 C 96.2885 279.25427 95.735565 280.92569 95.053443 280.92569 C 94.37132 280.92569 93.818386 279.25427 93.818386 277.19235 C 93.818386 275.13043 94.37132 273.45902 95.053443 273.45902 C 95.735565 273.45902 96.2885 275.13043 96.2885 277.19235 Z" fill="#7f7f7f"/><path d="M 58.678996 286.51953 C 58.678996 274.47693 68.474687 264.67996 80.51857 264.67996 C 92.55988 264.67996 102.35814 274.47693 102.35814 286.51953 C 102.35814 298.56213 92.55988 308.3591 80.51857 308.3591 C 68.474687 308.3591 58.678996 298.56213 58.678996 286.51953 M 110.77379 319.9552 L 113.95263 316.77637 L 99.29161 302.11427 C 102.81035 297.88382 104.9275 292.44962 104.9275 286.51953 C 104.9275 273.0381 94.00001 262.1106 80.51857 262.1106 C 67.0397 262.1106 56.109634 273.0381 56.109634 286.51953 C 56.109634 299.9984 67.0397 310.92847 80.51857 310.92847 C 86.44994 310.92847 91.882854 308.81131 96.11331 305.29257 Z" fill="#7f7e7e"/><path d="M 72.60371 285.78219 L 73.284756 286.13386 L 69.50503 295.2136 L 68.823985 294.86192 Z M 68.220695 285.6975 L 67.54054 285.34584 L 71.322946 276.2681 L 72.0031 276.61977 Z M 74.36889 275.93037 L 75.047256 276.28204 L 66.83983 295.98767 L 66.16057 295.636 Z M 70.92254 299.78833 C 66.64767 299.78833 63.17004 293.58275 63.17004 285.95852 C 63.17004 278.3333 66.64767 272.12872 70.92254 272.12872 C 75.194727 272.12872 78.673253 278.3333 78.673253 285.95852 C 78.673253 293.58374 75.194727 299.78833 70.92254 299.78833 M 70.92254 270.45902 C 65.821835 270.45902 61.672987 277.41178 61.672987 285.95852 C 61.672987 294.50527 65.821835 301.45902 70.92254 301.45902 C 76.02146 301.45902 80.172987 294.50726 80.172987 285.95852 C 80.172987 277.41078 76.02146 270.45902 70.92254 270.45902" fill="#7f7f7f"/></g></g></svg>
