<svg xmlns="http://www.w3.org/2000/svg" viewBox="0 0 140.19 140.19"><defs><style>.cls-1{fill:#fff;}.cls-1,.cls-2,.cls-3{stroke:#23292a;stroke-miterlimit:10;}.cls-1,.cls-3{stroke-width:2px;}.cls-2,.cls-3{fill:none;}.cls-2{stroke-width:3px;}</style></defs><title>Plusser New White and Black</title><g id="Layer_2" data-name="Layer 2"><g id="Layer_1-2" data-name="Layer 1"><circle class="cls-1" cx="70.1" cy="70.1" r="69.1" transform="translate(-0.51 0.51) rotate(-0.42)"/><path class="cls-2" d="M32.6,94.23s10.94,28.94,37.67,28.71"/><path class="cls-2" d="M107.44,93.57S97,122.7,70.28,122.94"/><path class="cls-3" d="M75.6,99.56H71.83V96a1.26,1.26,0,0,0-2.52,0v3.53H65.54a1.18,1.18,0,1,0,0,2.35h3.77v3.53a1.26,1.26,0,0,0,2.52,0v-3.53H75.6a1.18,1.18,0,1,0,0-2.35Z"/><path class="cls-2" d="M14.44,50.87s5.13-15.69,15.3-5.16"/><path class="cls-2" d="M29.9,84.46A6.77,6.77,0,0,0,32.67,81l-3.22.49Z"/><path class="cls-2" d="M26.77,79.49l-.54-3.55a1.18,1.18,0,1,1,2.33-.35l.54,3.55,3.49-.53a1.15,1.15,0,0,1,.83.2,34.85,34.85,0,0,0,.37-13.65c-1.54-10.23-6.29-18-10.61-17.34s-6.56,9.47-5,19.7a34.85,34.85,0,0,0,4.38,12.93,1.15,1.15,0,0,1,.73-.44Z"/><path class="cls-2" d="M23.91,82.34a6.77,6.77,0,0,0,3.66,2.47l-.45-3Z"/><path class="cls-2" d="M109.76,47s10.55-12.7,16.12.84"/><path class="cls-2" d="M111.77,83.89a6.77,6.77,0,0,0,3.84-2.18L112.44,81Z"/><path class="cls-2" d="M110.69,78.11l.81-3.5a1.18,1.18,0,1,1,2.29.53l-.81,3.5,3.44.79a1.15,1.15,0,0,1,.7.49,34.85,34.85,0,0,0,5.37-12.55c2.33-10.08.77-19-3.48-20s-9.59,6.39-11.92,16.47a34.85,34.85,0,0,0-.68,13.64,1.15,1.15,0,0,1,.84-.14Z"/><path class="cls-2" d="M107,79.71a6.77,6.77,0,0,0,2.5,3.65l.67-2.91Z"/></g></g></svg>