<?xml version="1.0"?>
<!DOCTYPE svg PUBLIC "-//W3C//DTD SVG 1.1//EN" "http://www.w3.org/Graphics/SVG/1.1/DTD/svg11.dtd">
<svg xmlns="http://www.w3.org/2000/svg" xmlns:xl="http://www.w3.org/1999/xlink" version="1.1" viewBox="126 119 84 84" width="7pc" height="7pc"><metadata xmlns:dc="http://purl.org/dc/elements/1.1/"><dc:date>2017-01-11 03:26Z</dc:date><!-- Produced by OmniGraffle Professional 5.4.2 --></metadata><defs></defs><g stroke="none" stroke-opacity="1" stroke-dasharray="none" fill="none" fill-opacity="1"><title>Canvas 1</title><g><title>Layer 1</title><path d="M 174.05305 161.36569 C 173.1391 163.53102 171.95345 164.72569 170.73074 164.72569 C 169.50804 164.72569 168.32238 163.53102 167.40844 161.36569 C 167.13673 160.73102 166.75386 160.88035 166.5439 161.70169 C 166.33394 162.52302 166.38334 163.68035 166.65506 164.31502 C 167.77896 167.00302 169.23632 168.45902 170.73074 168.45902 C 172.22516 168.45902 173.68253 167.00302 174.81878 164.35235 C 175.09049 163.71769 175.1399 162.56035 174.92994 161.73902 C 174.71998 160.88035 174.32476 160.76835 174.05305 161.36569 Z" fill="#7f7f7f"/><path d="M 167.6431 144.192355 C 167.6431 146.254275 167.09017 147.92569 166.40804 147.92569 C 165.72592 147.92569 165.17299 146.254275 165.17299 144.192355 C 165.17299 142.130435 165.72592 140.45902 166.40804 140.45902 C 167.09017 140.45902 167.6431 142.130435 167.6431 144.192355 Z" fill="#7f7f7f"/><path d="M 176.2885 144.192355 C 176.2885 146.254275 175.73556 147.92569 175.05344 147.92569 C 174.37132 147.92569 173.81839 146.254275 173.81839 144.192355 C 173.81839 142.130435 174.37132 140.45902 175.05344 140.45902 C 175.73556 140.45902 176.2885 142.130435 176.2885 144.192355 Z" fill="#7f7f7f"/><path d="M 138.679 153.51953 C 138.679 141.476935 148.47469 131.67996 160.51857 131.67996 C 172.55988 131.67996 182.35814 141.476935 182.35814 153.51953 C 182.35814 165.56213 172.55988 175.3591 160.51857 175.3591 C 148.47469 175.3591 138.679 165.56213 138.679 153.51953 M 190.77379 186.9552 L 193.95263 183.77637 L 179.29161 169.11427 C 182.81035 164.88382 184.9275 159.44962 184.9275 153.51953 C 184.9275 140.03809 174.00001 129.1106 160.51857 129.1106 C 147.0397 129.1106 136.109634 140.03809 136.109634 153.51953 C 136.109634 166.9984 147.0397 177.92847 160.51857 177.92847 C 166.44994 177.92847 171.88285 175.81131 176.11331 172.29257 Z" fill="#7f7e7e"/><path d="M 152.60371 152.78219 L 153.28476 153.13386 L 149.50503 162.21359 L 148.823985 161.86192 Z M 148.220695 152.69751 L 147.54054 152.34584 L 151.32295 143.2681 L 152.0031 143.61977 Z M 154.36889 142.93037 L 155.04726 143.28204 L 146.83983 162.98767 L 146.16057 162.636 Z M 150.92254 166.78833 C 146.64767 166.78833 143.17004 160.58275 143.17004 152.95852 C 143.17004 145.3333 146.64767 139.12872 150.92254 139.12872 C 155.19473 139.12872 158.67325 145.3333 158.67325 152.95852 C 158.67325 160.58374 155.19473 166.78833 150.92254 166.78833 M 150.92254 137.45902 C 145.821835 137.45902 141.67299 144.41178 141.67299 152.95852 C 141.67299 161.50527 145.821835 168.45902 150.92254 168.45902 C 156.02146 168.45902 160.17299 161.50726 160.17299 152.95852 C 160.17299 144.41078 156.02146 137.45902 150.92254 137.45902" fill="#7f7f7f"/></g></g></svg>
