<?xml version="1.0"?>
<!DOCTYPE svg PUBLIC "-//W3C//DTD SVG 1.1//EN" "http://www.w3.org/Graphics/SVG/1.1/DTD/svg11.dtd">
<svg xmlns="http://www.w3.org/2000/svg" xmlns:xl="http://www.w3.org/1999/xlink" version="1.1" viewBox="60 82 84 84" width="7pc" height="7pc"><metadata xmlns:dc="http://purl.org/dc/elements/1.1/"><dc:date>2017-01-11 03:22Z</dc:date><!-- Produced by OmniGraffle Professional 5.4.2 --></metadata><defs></defs><g stroke="none" stroke-opacity="1" stroke-dasharray="none" fill="none" fill-opacity="1"><title>Canvas 1</title><g><title>Layer 1</title><path d="M 105.79546 111.38405 L 105.8004 119.75098 L 99.18774 119.747074 L 99.18275 111.38028 C 99.18124 108.82657 97.29726 106.70324 94.8469 106.32593 L 94.84288 99.680196 C 97.68166 99.86664 100.325717 101.06121 102.3568 103.09229 C 104.57239 105.307885 105.79361 108.2526 105.79546 111.38405 M 105.80306 124.24426 L 99.190394 124.24035 L 99.18866 121.303185 L 105.801367 121.30705 Z M 88.96095 111.374195 L 88.965896 119.741124 L 82.35319 119.73717 L 82.348244 111.37033 C 82.346483 108.23888 83.56422 105.295516 85.77715 103.082583 C 87.80588 101.053856 90.44848 99.862363 93.28704 99.679277 L 93.29092 106.325056 C 90.840827 106.69947 88.959533 108.82049 88.96095 111.374195 M 88.96855 124.23431 L 82.355843 124.23045 L 82.354107 121.29319 L 88.96686 121.2971 Z M 94.06398 98.097744 C 86.74156 98.09342 80.78794 104.047037 80.792357 111.36937 L 80.800416 125.00745 C 80.80067 125.437095 81.149194 125.78562 81.578886 125.78592 L 89.74748 125.790745 C 90.17722 125.791 90.52524 125.44289 90.52503 125.013194 L 90.517063 111.375205 C 90.515815 109.41506 92.109716 107.82116 94.06991 107.82236 C 96.0301 107.823474 97.625795 109.41917 97.62691 111.37936 L 97.634877 125.01735 C 97.63513 125.447 97.983655 125.79552 98.4133 125.795776 L 106.58194 125.80065 C 106.78823 125.800815 106.98611 125.71893 107.13192 125.57312 C 107.27773 125.42731 107.35957 125.22947 107.35945 125.02314 L 107.351345 111.38511 C 107.34702 104.062776 101.38631 98.10207 94.06398 98.097744" fill="#7f7f7f"/><path d="M 92.958473 125.051904 C 92.528826 125.05165 92.180713 125.39976 92.18092 125.829455 L 92.1847 132.22033 C 92.18484 132.534995 92.374623 132.81872 92.66541 132.93931 C 92.956196 133.059905 93.290726 132.9936 93.513146 132.77118 L 95.379403 130.904925 L 95.38207 135.41761 C 95.382323 135.84726 95.73085 136.19578 96.16054 136.19608 C 96.37541 136.19621 96.569826 136.109244 96.710517 135.96855 C 96.85121 135.82786 96.93822 135.6334 96.938046 135.41858 L 96.93427 129.0277 C 96.934084 128.71308 96.744345 128.42931 96.45356 128.30872 C 96.16277 128.188126 95.8282 128.25447 95.60582 128.47685 L 93.739565 130.343106 L 93.7369 125.83033 C 93.7366 125.40064 93.388075 125.05211 92.958473 125.051904 Z" fill="#7f7f7f"/><path d="M 73.03065 116.51953 C 73.03065 104.476935 82.82634 94.67996 94.870223 94.67996 C 106.911535 94.67996 116.709795 104.476935 116.709795 116.51953 C 116.709795 128.56213 106.911535 138.359104 94.870223 138.359104 C 82.82634 138.359104 73.03065 128.56213 73.03065 116.51953 M 125.12544 149.9552 L 128.30428 146.776365 L 113.64326 132.11427 C 117.162 127.88382 119.27916 122.44962 119.27916 116.51953 C 119.27916 103.03809 108.35166 92.1106 94.870223 92.1106 C 81.391353 92.1106 70.46129 103.03809 70.46129 116.51953 C 70.46129 129.9984 81.391353 140.92847 94.870223 140.92847 C 100.801594 140.92847 106.23451 138.81131 110.46496 135.29257 Z" fill="#7f7e7e"/></g></g></svg>
