<svg xmlns="http://www.w3.org/2000/svg" viewBox="0 0 139.19 139.19"><defs><style>.cls-1{fill:#fffa49;}.cls-1,.cls-2,.cls-3{stroke:#5f4eff;stroke-miterlimit:10;}.cls-2,.cls-3{fill:none;}.cls-2{stroke-width:3px;}.cls-3{stroke-width:2px;}</style></defs><title>Plusser New Yellow+Purple</title><g id="Layer_2" data-name="Layer 2"><g id="Layer_1-2" data-name="Layer 1"><circle class="cls-1" cx="69.6" cy="69.6" r="69.1" transform="translate(-0.5 0.51) rotate(-0.42)"/><path class="cls-2" d="M30.66,90s11.05,29.24,38.05,29"/><path class="cls-2" d="M106.26,89.31S95.71,118.73,68.71,119"/><path class="cls-3" d="M74.09,97.35H70.28V93.78a1.27,1.27,0,0,0-2.54,0v3.57H63.93a1.19,1.19,0,1,0,0,2.38h3.81v3.57a1.27,1.27,0,0,0,2.54,0V99.73h3.81a1.19,1.19,0,1,0,0-2.38Z"/><path class="cls-2" d="M22.63,45s7.89-14.69,16.13-2.41"/><path class="cls-2" d="M32,81.21a6.84,6.84,0,0,0,3.37-2.93l-3.28-.09Z"/><path class="cls-2" d="M29.81,75.7l.1-3.63a1.19,1.19,0,1,1,2.38.06l-.1,3.63,3.56.1a1.17,1.17,0,0,1,.79.35,35.2,35.2,0,0,0,2.79-13.5c.28-10.45-3.06-19-7.47-19.13s-8.21,8.25-8.49,18.7a35.2,35.2,0,0,0,2.06,13.64,1.17,1.17,0,0,1,.81-.3Z"/><path class="cls-2" d="M26.46,78a6.84,6.84,0,0,0,3.2,3.11l.08-3Z"/><path class="cls-2" d="M99.76,45s7.89-14.69,16.13-2.41"/><path class="cls-2" d="M109.16,81.19a6.84,6.84,0,0,0,3.37-2.93l-3.28-.09Z"/><path class="cls-2" d="M106.93,75.68l.1-3.63a1.19,1.19,0,1,1,2.38.06l-.1,3.63,3.56.1a1.17,1.17,0,0,1,.79.35,35.2,35.2,0,0,0,2.79-13.5c.28-10.45-3.06-19-7.47-19.13s-8.21,8.25-8.49,18.7a35.2,35.2,0,0,0,2.06,13.64,1.17,1.17,0,0,1,.81-.3Z"/><path class="cls-2" d="M103.58,78a6.84,6.84,0,0,0,3.2,3.11l.08-3Z"/></g></g></svg>