<svg xmlns="http://www.w3.org/2000/svg" viewBox="0 0 258.94 258.94"><defs><style>.cls-1{fill:#fcfcfc;stroke:#000;stroke-miterlimit:10;}.cls-1,.cls-2{stroke-width:5px;}.cls-2{fill:none;stroke:#23292a;stroke-linecap:round;stroke-linejoin:round;}</style></defs><title>Plusser_logo_v2</title><g id="Layer_2" data-name="Layer 2"><g id="Layer_1-2" data-name="Layer 1"><circle cx="129.47" cy="129.47" r="129.47"/><circle class="cls-1" cx="129.47" cy="129.47" r="124.78" transform="translate(-0.93 0.94) rotate(-0.42)"/><path class="cls-2" d="M64.6,169.65s19.87,44.93,68.55,44.5"/><path class="cls-2" d="M200.92,168.46s-19.08,45.26-67.77,45.69"/><path d="M141.11,160.19h-6.87v-6.87a2.29,2.29,0,1,0-4.58,0v6.87h-6.87a2.29,2.29,0,0,0,0,4.58h6.87v6.87a2.29,2.29,0,0,0,4.58,0v-6.87h6.87a2.29,2.29,0,1,0,0-4.58Z"/><ellipse cx="60.26" cy="117.26" rx="14.39" ry="23.82"/><path class="cls-2" d="M45.82,78.79S59.16,68.67,74.74,77"/><ellipse cx="196.66" cy="121.38" rx="13.14" ry="21.74"/><path class="cls-2" d="M183.49,86.27s12.17-9.24,26.4-1.61"/></g></g></svg>