<?xml version="1.0" encoding="utf-8"?>
<!-- Generator: Adobe Illustrator 21.0.2, SVG Export Plug-In . SVG Version: 6.00 Build 0)  -->
<svg version="1.1" id="Layer_1" xmlns="http://www.w3.org/2000/svg" xmlns:xlink="http://www.w3.org/1999/xlink" x="0px" y="0px"
	 viewBox="0 0 159 161" style="enable-background:new 0 0 159 161;" xml:space="preserve">
<style type="text/css">
	.st0{fill:#F9DF1E;stroke:#000000;stroke-width:5;stroke-miterlimit:10;}
	.st1{fill:#23292A;}
	.st2{fill:none;stroke:#23292A;stroke-width:5;stroke-linecap:round;stroke-linejoin:round;}
</style>
<title>Plusser_Minimal_Logo</title>
<g id="Layer_2">
	<g id="Layer_1-2">
		<circle class="st0" cx="79.2" cy="81.2" r="72.7"/>
		<ellipse class="st1" cx="35.6" cy="74.1" rx="8.6" ry="17.8"/>
		<path d="M132.1,71.8h-7.8v-6.9c-0.2-1.4-1.5-2.5-2.9-2.3c-1.2,0.1-2.1,1.1-2.3,2.3v6.9h-7.8c-1.3-0.1-2.4,0.8-2.6,2.1
			c-0.1,1.3,0.8,2.4,2.1,2.6c0.2,0,0.4,0,0.5,0h7.8v6.9c0.2,1.4,1.5,2.5,2.9,2.3c1.2-0.1,2.1-1.1,2.3-2.3v-6.9h7.8
			c1.3,0.1,2.4-0.8,2.6-2.1c0.1-1.3-0.8-2.4-2.1-2.6C132.5,71.8,132.3,71.8,132.1,71.8z"/>
		<path class="st2" d="M38.8,107.5c0,0,11.8,24.5,40.8,24.2"/>
		<path class="st2" d="M120,106.8c0,0-11.4,24.7-40.4,25"/>
	</g>
</g>
</svg>
