<?xml version="1.0"?>
<!DOCTYPE svg PUBLIC "-//W3C//DTD SVG 1.1//EN" "http://www.w3.org/Graphics/SVG/1.1/DTD/svg11.dtd">
<svg xmlns="http://www.w3.org/2000/svg" xmlns:xl="http://www.w3.org/1999/xlink" version="1.1" viewBox="119 183 76 86" width="76pt" height="86pt"><metadata xmlns:dc="http://purl.org/dc/elements/1.1/"><dc:date>2016-12-30 04:13Z</dc:date><!-- Produced by OmniGraffle Professional 5.4.2 --></metadata><defs></defs><g stroke="none" stroke-opacity="1" stroke-dasharray="none" fill="none" fill-opacity="1"><title>Canvas 1</title><g><title>Layer 1</title><path d="M 184.79472 218.61432 L 184.79472 214.76764 L 179.67742 214.76764 L 179.67742 218.61432 L 174.61464 218.61432 L 174.61464 214.76764 L 174.5581 214.76764 L 174.5581 210.96497 L 164.55168 210.96497 L 164.55168 218.61432 L 159.48891 218.61432 L 159.48891 210.924 L 159.54545 210.924 L 159.48891 210.87848 L 149.36739 210.87848 L 149.36739 218.61432 L 144.30663 218.61432 L 144.30663 187.84546 L 134.18309 187.84546 L 134.18309 210.924 L 134.18309 237.84467 L 129.12435 237.84467 L 129.12435 226.30615 L 124.06359 226.30615 L 124.06359 241.68982 L 129.12435 241.68982 L 129.12435 249.38318 L 134.18309 249.38318 L 134.18309 257.07501 L 139.24587 257.07501 L 139.24587 264.76685 L 179.73396 264.76685 L 179.73396 257.07501 L 184.79472 257.07501 L 184.79472 245.5365 L 189.85548 245.5365 L 189.85548 218.61432 Z" fill="white"/><path d="M 129.12354 237.84436 L 134.1843 237.84436 L 134.1843 187.84516 L 129.12354 187.84516 L 129.12354 222.45766 L 124.06278 222.45766 L 124.06278 226.30585 L 129.12354 226.30585 Z M 129.12354 257.07471 L 134.1843 257.07471 L 134.1843 249.38439 L 129.12354 249.38439 Z M 124.06278 249.38287 L 129.12354 249.38287 L 129.12354 241.68952 L 124.06278 241.68952 Z M 179.73518 264.76654 L 139.24708 264.76654 L 139.24708 257.07471 L 134.1843 257.07471 L 134.1843 268.6117 L 184.79392 268.6117 L 184.79392 257.07471 L 179.73518 257.07471 Z M 184.79392 257.07471 L 189.85468 257.07471 L 189.85468 245.5362 L 184.79392 245.5362 Z M 189.85468 245.5362 L 194.91544 245.5362 L 194.91544 218.61402 L 189.85468 218.61402 Z M 184.79392 218.61402 L 189.85468 218.61402 L 189.85468 214.76734 L 184.79392 214.76734 Z M 164.32066 207.162 L 164.32066 210.9237 L 159.4881 210.9237 L 159.4881 218.61402 L 164.55088 218.61402 L 164.55088 210.96467 L 174.55729 210.96467 L 174.55729 207.162 Z M 174.55729 210.96467 L 174.55729 214.76734 L 174.61585 214.76734 L 174.61585 218.61402 L 179.67661 218.61402 L 179.67661 214.76734 L 184.79392 214.76734 L 184.79392 210.96467 Z M 119 241.68952 L 124.06278 241.68952 L 124.06278 226.30585 L 119 226.30585 Z M 149.36658 218.61402 L 149.36658 210.87818 L 159.4881 210.87818 L 159.4881 207.0755 L 149.36658 207.0755 L 149.36658 187.84516 L 144.30784 187.84516 L 144.30784 218.61402 Z M 144.30784 184 L 134.1843 184 L 134.1843 187.84516 L 144.30784 187.84516 Z" fill="#1a1718"/></g></g></svg>
