<?xml version="1.0"?>
<!DOCTYPE svg PUBLIC "-//W3C//DTD SVG 1.1//EN" "http://www.w3.org/Graphics/SVG/1.1/DTD/svg11.dtd">
<svg xmlns="http://www.w3.org/2000/svg" xmlns:xl="http://www.w3.org/1999/xlink" version="1.1" viewBox="476 779 111 69" width="111pt" height="69pt"><metadata xmlns:dc="http://purl.org/dc/elements/1.1/"><dc:date>2017-01-24 01:21Z</dc:date><!-- Produced by OmniGraffle Professional 5.4.2 --></metadata><defs></defs><g stroke="none" stroke-opacity="1" stroke-dasharray="none" fill="none" fill-opacity="1"><title>Canvas 1</title><g><title>Layer 1</title><path d="M 541.90215 808.1172 L 539.4044 809.5065 L 534.69338 781.9121 L 537.19064 780.52106 Z" fill="#656968"/><path d="M 541.90215 808.1172 L 541.7637 807.3052 L 539.7157 808.4437 L 535.2825 782.4741 L 536.87937 781.58474 L 541.45195 808.368 L 541.90215 808.1172 L 541.7637 807.3052 L 541.90215 808.1172 L 542.35234 807.8672 L 537.64084 780.2711 C 537.6041 780.0568 537.5203 779.874 537.41103 779.76943 C 537.3013 779.66485 537.1704 779.64274 537.05172 779.70906 L 534.55493 781.09924 C 534.3063 781.23783 534.1669 781.71313 534.24366 782.16207 L 538.9547 809.75735 C 539.03098 810.2063 539.2947 810.4571 539.54333 810.31937 L 542.0406 808.93004 C 542.16115 808.86287 542.25957 808.7158 542.31844 808.5151 C 542.3773 808.31445 542.38907 808.08403 542.35234 807.8672 Z" fill="#273034"/><path d="M 550.7304 808.1172 L 548.23265 809.5065 L 543.52162 781.9121 L 546.0189 780.52106 Z" fill="#656968"/><path d="M 550.7304 808.1172 L 550.59194 807.3052 L 548.54393 808.4437 L 544.11074 782.4741 L 545.7076 781.58474 L 550.2802 808.368 L 550.7304 808.1172 L 550.59194 807.3052 L 550.7304 808.1172 L 551.18058 807.8672 L 546.46908 780.2711 C 546.43235 780.0568 546.34852 779.874 546.23927 779.76943 C 546.12955 779.66485 545.99863 779.64274 545.88043 779.70906 L 543.38317 781.09924 C 543.13453 781.23783 542.99514 781.71313 543.0719 782.16207 L 547.78293 809.75735 C 547.85922 810.2063 548.12293 810.4571 548.37157 810.31937 L 550.86884 808.93004 C 550.9894 808.86287 551.0878 808.7158 551.14668 808.5151 C 551.20554 808.31445 551.2173 808.08403 551.18058 807.8672 Z" fill="#273034"/><path d="M 477.00773 821.64317 C 477.00773 807.95394 501.39452 796.8563 531.47703 796.8563 C 561.56 796.8563 585.94634 807.95394 585.94634 821.64317 C 585.94634 835.33326 561.56 846.43004 531.47703 846.43004 C 501.39452 846.43004 477.00773 835.33326 477.00773 821.64317 Z" fill="#fffffe"/><path d="M 477.00773 821.64317 L 477.47864 821.64317 C 477.4796 820.1671 477.8031 818.69276 478.48028 817.18355 C 479.6604 814.5452 481.92785 811.9255 485.07403 809.5754 C 489.79307 806.03915 496.47488 803.0624 504.43192 800.9818 C 512.3904 798.89864 521.62738 797.70657 531.47703 797.70657 C 546.48556 797.7057 560.07428 800.47843 569.8778 804.9406 C 574.77812 807.1683 578.73287 809.8262 581.4251 812.7256 C 582.77096 814.17276 583.79897 815.67943 584.47426 817.18355 C 585.15096 818.69276 585.47495 820.1671 585.47542 821.64317 C 585.47495 823.1201 585.15096 824.5936 584.47426 826.1028 C 583.29368 828.74117 581.0267 831.36083 577.8805 833.71096 C 573.16147 837.2472 566.47966 840.22397 558.52214 842.30456 C 550.56415 844.38686 541.32716 845.5798 531.47703 845.5798 C 516.4685 845.5806 502.8798 842.8079 493.07676 838.34574 C 488.17595 836.1172 484.2212 833.46013 481.52945 830.5616 C 480.1831 829.11443 479.15557 827.6069 478.48028 826.1028 C 477.8031 824.5936 477.4796 823.1201 477.47864 821.64317 L 476.53681 821.64317 C 476.53634 823.58943 476.97477 825.4566 477.74895 827.175 C 479.108 830.18406 481.49037 832.8624 484.7133 835.2814 C 489.54725 838.9001 496.2865 841.8905 504.29724 843.98723 C 512.30703 846.08313 521.585 847.2803 531.47703 847.2803 C 546.5515 847.27945 560.19766 844.50334 570.10806 839.9944 C 575.06444 837.7378 579.08652 835.05437 581.9073 832.02233 C 583.31722 830.50376 584.43 828.8976 585.2056 827.175 C 585.97977 825.4566 586.4182 823.58943 586.41725 821.64317 C 586.4182 819.6969 585.97977 817.82975 585.2056 816.1122 C 583.84653 813.1023 581.4637 810.4248 578.24123 808.00496 C 573.4073 804.38624 566.66803 801.39586 558.6573 799.2991 C 550.6475 797.2032 541.36954 796.00605 531.47703 796.00605 C 516.40258 796.0069 502.75688 798.783 492.84648 803.2911 C 487.88963 805.54855 483.86755 808.23283 481.04724 811.26487 C 479.63685 812.7826 478.52455 814.38873 477.74895 816.1122 C 476.97477 817.82975 476.53634 819.6969 476.53681 821.64317 Z" fill="#273034"/><path d="M 489.56514 821.64402 C 489.56514 811.1101 508.3297 802.57093 531.47703 802.57093 C 554.62485 802.57093 573.38892 811.1101 573.38892 821.64402 C 573.38892 832.1771 554.62485 840.7154 531.47703 840.7154 C 508.3297 840.7154 489.56514 832.1771 489.56514 821.64402 Z" fill="#c2c4bf"/><path d="M 489.56514 821.64402 L 490.03606 821.64402 C 490.037 820.56164 490.27293 819.4733 490.78246 818.33565 C 491.67013 816.3486 493.40122 814.3394 495.81324 812.5394 C 499.43128 809.8279 504.56614 807.53816 510.68285 805.93967 C 516.8005 804.33862 523.90284 803.4212 531.47703 803.4212 C 543.01774 803.42034 553.46734 805.55365 560.9982 808.9819 C 564.76224 810.69264 567.79775 812.73497 569.85424 814.9499 C 570.8827 816.05525 571.66396 817.2031 572.17208 818.33565 C 572.6816 819.4733 572.91754 820.56164 572.918 821.64402 C 572.91754 822.72556 572.6816 823.8139 572.17208 824.95155 C 571.2844 826.9386 569.55285 828.9478 567.14083 830.7478 C 563.52326 833.4593 558.3884 835.7482 552.2717 837.34753 C 546.15404 838.94857 539.05123 839.86516 531.47703 839.86516 C 519.93632 839.86686 509.48672 837.73355 501.95585 834.3053 C 498.19183 832.5937 495.1568 830.55223 493.09983 828.3373 C 492.07135 827.23195 491.29058 826.0841 490.78246 824.95155 C 490.27293 823.8139 490.037 822.72556 490.03606 821.64402 L 489.09423 821.64402 C 489.09376 823.1949 489.44412 824.67776 490.05113 826.02373 C 491.11775 828.3815 492.9642 830.4485 495.45252 832.31822 C 499.18546 835.1122 504.37777 837.4147 510.5477 839.0302 C 516.71668 840.644 523.86093 841.5657 531.47703 841.5657 C 543.08367 841.56483 553.59025 839.42897 561.2285 835.95395 C 565.04902 834.21346 568.1514 832.14647 570.33645 829.79805 C 571.42898 828.6213 572.295 827.37395 572.9034 826.02373 C 573.50995 824.67776 573.86078 823.1949 573.85984 821.64402 C 573.86078 820.0923 573.50995 818.60944 572.9034 817.2643 C 571.8368 814.9057 569.99033 812.8387 567.50202 810.9681 C 563.76908 808.17416 558.57677 805.8725 552.40684 804.25615 C 546.2374 802.64235 539.0936 801.72066 531.47703 801.72066 C 519.8704 801.7215 509.3643 803.85823 501.72605 807.3324 C 497.90552 809.0729 494.80313 811.14073 492.6176 813.48915 C 491.52556 814.6659 490.65955 815.91325 490.05113 817.2643 C 489.44412 818.60944 489.09376 820.0923 489.09423 821.64402 Z" fill="#273034"/><path d="M 537.30696 819.4648 L 534.6948 819.4648 L 534.6948 782.48007 C 534.6948 782.48007 534.5992 779.9293 536.0011 779.9293 C 537.40256 779.9293 537.30696 782.48007 537.30696 782.48007 Z" fill="#a7aaa7"/><path d="M 537.30696 819.4648 L 537.30696 818.61454 L 535.1657 818.61454 L 535.1657 782.48007 L 535.16477 782.42225 L 535.15676 782.4231 L 535.16477 782.4231 L 535.16477 782.42225 L 535.15676 782.4231 L 535.16477 782.4231 L 535.1643 782.3789 C 535.16194 782.2199 535.18502 781.731 535.29474 781.39343 C 535.34937 781.2217 535.41577 781.08564 535.51607 780.97765 C 535.61685 780.87137 535.76142 780.78124 536.0011 780.77954 C 536.2408 780.78124 536.3849 780.87137 536.48616 780.97765 C 536.63355 781.1358 536.71785 781.37557 536.7739 781.66807 C 536.8285 781.95375 536.8384 782.2607 536.83746 782.3789 L 536.837 782.4231 L 536.83887 782.4231 L 536.837 782.4231 L 536.83887 782.4231 L 536.837 782.4231 L 536.83604 782.48007 L 536.83604 819.4648 L 537.30696 819.4648 L 537.30696 818.61454 L 537.30696 819.4648 L 537.77787 819.4648 L 537.77787 782.48007 L 537.30696 782.48007 L 537.77693 782.53703 C 537.7774 782.5209 537.7793 782.46476 537.7793 782.3789 C 537.77693 782.0626 537.76328 781.3271 537.52735 780.55847 C 537.40915 780.17755 537.22596 779.7907 536.96508 779.5135 C 536.70513 779.2346 536.37784 779.0773 536.0011 779.079 C 535.6239 779.0773 535.29662 779.2346 535.03668 779.5135 C 534.643 779.9327 534.4358 780.58143 534.33596 781.12305 C 534.23424 781.66977 534.2234 782.1408 534.22247 782.3789 C 534.22247 782.4656 534.22435 782.5209 534.2253 782.5379 L 534.6948 782.48007 L 534.22388 782.48007 L 534.22388 819.4648 C 534.22388 819.6884 534.27427 819.9078 534.36186 820.06594 C 534.44945 820.22494 534.57094 820.31506 534.6948 820.31506 L 537.30696 820.31506 C 537.43128 820.31506 537.5523 820.22494 537.6399 820.06594 C 537.7275 819.9078 537.77787 819.6884 537.77787 819.4648 Z" fill="#273034"/><path d="M 546.1352 819.4648 L 543.52304 819.4648 L 543.52304 782.48007 C 543.52304 782.48007 543.42744 779.9293 544.82935 779.9293 C 546.2308 779.9293 546.1352 782.48007 546.1352 782.48007 Z" fill="#a7aaa7"/><path d="M 546.1352 819.4648 L 546.1352 818.61454 L 543.99395 818.61454 L 543.99395 782.48007 L 543.993 782.42225 L 543.985 782.4231 L 543.993 782.4231 L 543.993 782.42225 L 543.985 782.4231 L 543.993 782.4231 L 543.99254 782.3789 C 543.99018 782.2199 544.01373 781.731 544.12345 781.39343 C 544.1776 781.2217 544.244 781.08564 544.3443 780.97765 C 544.4451 780.87137 544.58966 780.78124 544.82935 780.77954 C 545.06905 780.78124 545.21362 780.87137 545.3144 780.97765 C 545.4618 781.1358 545.5461 781.37557 545.60212 781.66807 C 545.65675 781.95375 545.66664 782.2607 545.6657 782.3789 L 545.66523 782.4231 L 545.66664 782.4231 L 545.66523 782.4231 L 545.66664 782.4231 L 545.66523 782.4231 L 545.6643 782.48007 L 545.6643 819.4648 L 546.1352 819.4648 L 546.1352 818.61454 L 546.1352 819.4648 L 546.6061 819.4648 L 546.6061 782.48007 L 546.1352 782.48007 L 546.60517 782.53703 C 546.60564 782.5209 546.60753 782.46476 546.60753 782.3789 C 546.60517 782.0626 546.59152 781.3271 546.3556 780.55847 C 546.2374 780.17755 546.0542 779.7907 545.7933 779.5135 C 545.53384 779.2346 545.20656 779.0773 544.82935 779.079 C 544.45215 779.0773 544.12486 779.2346 543.86492 779.5135 C 543.47123 779.9327 543.26403 780.58143 543.1642 781.12305 C 543.06248 781.66977 543.05165 782.1408 543.05118 782.3789 C 543.05118 782.4656 543.0526 782.5209 543.05353 782.5379 L 543.5235 782.48007 L 543.05212 782.48007 L 543.05212 819.4648 C 543.05212 819.6884 543.1025 819.9078 543.1901 820.06594 C 543.27816 820.22494 543.3992 820.31506 543.5235 820.31506 L 546.1352 820.31506 C 546.25952 820.31506 546.38055 820.22494 546.46814 820.06594 C 546.5562 819.9078 546.6061 819.6884 546.6061 819.4648 Z" fill="#273034"/><rect x="534.6948" y="806.21686" width="11.4418175" height="3.684189" fill="#656968"/><path d="M 546.1366 809.90104 L 546.1366 809.0508 L 535.1657 809.0508 L 535.1657 807.0671 L 545.6657 807.0671 L 545.6657 809.90104 L 546.1366 809.90104 L 546.1366 809.0508 L 546.1366 809.90104 L 546.60753 809.90104 L 546.60753 806.21686 C 546.60753 805.9924 546.5576 805.77387 546.46955 805.61487 C 546.38196 805.4567 546.26093 805.3666 546.1366 805.3666 L 534.6948 805.3666 C 534.57094 805.3666 534.44945 805.4567 534.36186 805.61487 C 534.27427 805.77387 534.22388 805.9924 534.22388 806.21686 L 534.22388 809.90104 C 534.22388 810.12466 534.27427 810.34403 534.36186 810.5022 C 534.44945 810.66033 534.57094 810.7513 534.6948 810.7513 L 546.1366 810.7513 C 546.26093 810.7513 546.38196 810.66033 546.46955 810.5022 C 546.5576 810.34403 546.60753 810.12466 546.60753 809.90104 Z" fill="#273034"/><rect x="534.6948" y="795.0138" width="11.4418175" height="3.6850393" fill="#656968"/><path d="M 546.1366 798.69883 L 546.1366 797.84857 L 535.1657 797.84857 L 535.1657 795.86405 L 545.6657 795.86405 L 545.6657 798.69883 L 546.1366 798.69883 L 546.1366 797.84857 L 546.1366 798.69883 L 546.60753 798.69883 L 546.60753 795.0138 C 546.60753 794.79017 546.5576 794.5708 546.46955 794.41266 C 546.38196 794.2545 546.26093 794.16353 546.1366 794.16353 L 534.6948 794.16353 C 534.57094 794.16353 534.44945 794.2545 534.36186 794.41266 C 534.27427 794.5708 534.22388 794.79017 534.22388 795.0138 L 534.22388 798.69883 C 534.22388 798.92245 534.27427 799.1418 534.36186 799.29997 C 534.44945 799.4581 534.57094 799.5491 534.6948 799.5491 L 546.1366 799.5491 C 546.26093 799.5491 546.38196 799.4581 546.46955 799.29997 C 546.5576 799.1418 546.60753 798.92245 546.60753 798.69883 Z" fill="#273034"/><path d="M 543.4006 819.049 C 539.62056 818.5397 535.62014 818.26423 531.47703 818.26423 C 514.47607 818.26423 499.84003 822.87095 493.2656 829.4911 C 497.77884 834.03406 506.0919 837.6298 516.36067 839.43833 C 521.0505 840.26393 526.14722 840.7154 531.47703 840.7154 C 548.47847 840.7154 563.1145 836.1104 569.68895 829.4911 C 564.71656 824.4839 555.1311 820.6305 543.4006 819.049 Z" fill="#324e8e"/><path d="M 516.36067 839.43833 C 506.0919 837.6298 497.77884 834.03406 493.2656 829.4911 C 499.84003 822.87095 514.47607 818.26423 531.47703 818.26423 C 535.62014 818.26423 539.62056 818.5397 543.4006 819.049 C 536.94718 820.28786 520.97234 824.7917 516.36067 839.43833 Z" fill="#3f85ba"/><path d="M 494.2757 829.4911 C 501.31306 835.8196 515.72022 839.86686 531.47703 839.86686 C 547.23384 839.86686 561.64148 835.8196 568.67836 829.4911 C 561.64195 823.1609 547.2343 819.1145 531.47703 819.1145 C 515.71975 819.1145 501.31259 823.1609 494.2757 829.4911 Z M 531.47703 841.5657 C 514.96346 841.5657 499.8744 837.11796 493.0358 830.2334 C 492.88698 830.0829 492.79468 829.7989 492.79468 829.4911 C 492.79468 829.1816 492.88698 828.8976 493.0358 828.74797 C 499.87394 821.86254 514.963 817.41397 531.47703 817.41397 C 547.99155 817.41397 563.0806 821.86254 569.91828 828.74797 C 570.06756 828.8976 570.15986 829.1816 570.15986 829.4911 C 570.15986 829.7989 570.06756 830.0829 569.91828 830.2334 C 563.08013 837.11796 547.99108 841.5657 531.47703 841.5657" fill="#273034"/></g></g></svg>
