<?xml version="1.0"?>
<!DOCTYPE svg PUBLIC "-//W3C//DTD SVG 1.1//EN" "http://www.w3.org/Graphics/SVG/1.1/DTD/svg11.dtd">
<svg xmlns="http://www.w3.org/2000/svg" xmlns:xl="http://www.w3.org/1999/xlink" version="1.1" viewBox="864 654 107 60" width="107pt" height="5pc"><metadata xmlns:dc="http://purl.org/dc/elements/1.1/"><dc:date>2017-01-24 01:21Z</dc:date><!-- Produced by OmniGraffle Professional 5.4.2 --></metadata><defs></defs><g stroke="none" stroke-opacity="1" stroke-dasharray="none" fill="none" fill-opacity="1"><title>Canvas 1</title><g><title>Layer 1</title><path d="M 864.76296 678.42014 C 875.2874 692.11546 891.8239 700.95042 910.43126 700.95042 C 929.71926 700.95042 946.77764 691.45683 957.2269 676.89852 C 946.7009 663.2032 930.16595 654.3675 911.55936 654.3675 C 892.2706 654.3675 875.21146 663.86108 864.76296 678.42014 Z" fill="#ffe6e2"/><path d="M 933.90694 677.6597 C 933.90694 690.31353 923.64837 700.57135 910.9953 700.57135 C 898.3415 700.57135 888.0829 690.31353 888.0829 677.6597 C 888.0829 665.00514 898.3415 654.74732 910.9953 654.74732 C 923.64837 654.74732 933.90694 665.00514 933.90694 677.6597 Z" fill="#1a1718"/><path d="M 955.8224 702.13535 C 955.8224 708.39427 950.74783 713.4681 944.4889 713.4681 C 938.23075 713.4681 933.15616 708.39427 933.15616 702.13535 C 933.15616 695.87644 944.4889 680.07455 944.4889 680.07455 C 955.8224 695.87644 955.8224 702.13535 955.8224 702.13535 Z" fill="#6dc3fd"/><path d="M 951.28 701.30595 C 951.28 705.52363 947.8607 708.9429 943.64226 708.9429" stroke="#fff5df" stroke-linejoin="round" stroke-width="1"/><line x1="960.7187" y1="677.33663" x2="968.3443" y2="677.33663" stroke="#bee7ef" stroke-linecap="square" stroke-linejoin="round" stroke-width="1"/><line x1="960.7187" y1="680.20727" x2="966.11085" y2="685.5994" stroke="#bee7ef" stroke-linecap="square" stroke-linejoin="round" stroke-width="1"/><line x1="960.7187" y1="674.4656" x2="966.11085" y2="669.0727" stroke="#bee7ef" stroke-linecap="square" stroke-linejoin="round" stroke-width="1"/></g></g></svg>
