<?xml version="1.0"?>
<!DOCTYPE svg PUBLIC "-//W3C//DTD SVG 1.1//EN" "http://www.w3.org/Graphics/SVG/1.1/DTD/svg11.dtd">
<svg xmlns="http://www.w3.org/2000/svg" xmlns:xl="http://www.w3.org/1999/xlink" version="1.1" viewBox="362 768 85 86" width="85pt" height="86pt"><metadata xmlns:dc="http://purl.org/dc/elements/1.1/"><dc:date>2017-01-24 01:21Z</dc:date><!-- Produced by OmniGraffle Professional 5.4.2 --></metadata><defs></defs><g stroke="none" stroke-opacity="1" stroke-dasharray="none" fill="none" fill-opacity="1"><title>Canvas 1</title><g><title>Layer 1</title><rect x="426.88143" y="841.46425" width="19.748155" height="9.8740775" fill="#ffdd09"/><rect x="433.93434" y="838.6431" width="8.463495" height="5.64233" fill="#ffdd09"/><rect x="435.34492" y="782.2198" width="5.64233" height="56.4233" fill="#ffdd09"/><path d="M 443.80842 777.98803 C 443.80842 781.104 441.28206 783.63036 438.1661 783.63036 C 435.0501 783.63036 432.52376 781.104 432.52376 777.98803 C 432.52376 774.87206 435.0501 772.3457 438.1661 772.3457 C 441.28206 772.3457 443.80842 774.87206 443.80842 777.98803 Z" fill="#ffdd09"/><rect x="369.04754" y="844.2854" width="19.748155" height="7.0529125" fill="#ffdd09"/><rect x="374.68987" y="838.6431" width="8.463495" height="5.64233" fill="#ffdd09"/><rect x="376.10046" y="782.2198" width="5.64233" height="56.4233" fill="#ffdd09"/><path d="M 384.56395 777.98803 C 384.56395 781.104 382.0376 783.63036 378.92162 783.63036 C 375.80565 783.63036 373.2793 781.104 373.2793 777.98803 C 373.2793 774.87206 375.80565 772.3457 378.92162 772.3457 C 382.0376 772.3457 384.56395 774.87206 384.56395 777.98803 Z" fill="#ffdd09"/><rect x="364.8158" y="844.2854" width="19.748155" height="5.64233" fill="white"/><rect x="369.04754" y="844.2854" width="15.516408" height="5.64233" fill="#ffdd09"/><rect x="370.45813" y="838.6431" width="8.463495" height="5.64233" fill="white"/><rect x="374.68987" y="838.6431" width="4.2317475" height="5.64233" fill="#ffdd09"/><rect x="371.8687" y="782.2198" width="5.64233" height="56.4233" fill="white"/><rect x="374.68987" y="782.2198" width="2.821165" height="56.4233" fill="#ffdd09"/><path d="M 380.3322 776.57745 C 380.3322 779.69343 377.80585 782.2198 374.68987 782.2198 C 371.5739 782.2198 369.04754 779.69343 369.04754 776.57745 C 369.04754 773.46148 371.5739 770.9351 374.68987 770.9351 C 377.80585 770.9351 380.3322 773.46148 380.3322 776.57745 Z" fill="white"/><path d="M 380.3322 776.57745 C 380.3322 779.69343 378.75376 782.2198 376.80575 782.2198 C 374.85773 782.2198 373.2793 779.69343 373.2793 776.57745 C 373.2793 773.46148 374.85773 770.9351 376.80575 770.9351 C 378.75376 770.9351 380.3322 773.46148 380.3322 776.57745 Z" fill="#ffdd09"/><rect x="424.06026" y="844.2854" width="19.748155" height="5.64233" fill="#fd9808"/><rect x="429.7026" y="838.6431" width="8.463495" height="5.64233" fill="#fd9808"/><rect x="424.06026" y="844.2854" width="15.516408" height="5.64233" fill="#ffdd09"/><rect x="429.7026" y="838.6431" width="4.2317475" height="5.64233" fill="#ffdd09"/><rect x="431.11318" y="782.2198" width="5.64233" height="56.4233" fill="#fd9808"/><rect x="431.11318" y="782.2198" width="2.821165" height="56.4233" fill="#ffdd09"/><path d="M 439.57667 776.57745 C 439.57667 779.69343 437.05032 782.2198 433.93434 782.2198 C 430.81836 782.2198 428.292 779.69343 428.292 776.57745 C 428.292 773.46148 430.81836 770.9351 433.93434 770.9351 C 437.05032 770.9351 439.57667 773.46148 439.57667 776.57745 Z" fill="#fd9808"/><path d="M 435.34492 776.57745 C 435.34492 779.69343 433.76648 782.2198 431.81847 782.2198 C 429.87045 782.2198 428.292 779.69343 428.292 776.57745 C 428.292 773.46148 429.87045 770.9351 431.81847 770.9351 C 433.76648 770.9351 435.34492 773.46148 435.34492 776.57745 Z" fill="#ffdd09"/><path d="M 431.11318 789.2727 C 423.64414 793.5933 414.97188 797.7362 405.7227 797.7362 C 395.28015 797.7362 385.58098 794.67664 377.51104 789.2727 L 377.51104 783.63036 C 385.58098 789.0343 395.28015 792.09386 405.7227 792.09386 C 414.97188 792.09386 423.64414 787.951 431.11318 783.63036 Z" fill="#d32047"/><path d="M 426.88143 790.6833 C 419.4124 795.0039 413.5613 797.7362 404.3121 797.7362 C 393.87098 797.7362 385.58098 794.67664 377.51104 789.2727 L 377.51104 783.63036 C 385.58098 789.0343 393.87098 792.09386 404.3121 792.09386 C 413.5613 792.09386 419.4124 789.36156 426.88143 785.04095 Z" fill="#db4d6c"/><rect x="364.8158" y="844.2854" width="19.748155" height="5.64233" stroke="black" stroke-linecap="butt" stroke-linejoin="miter" stroke-width="1"/><rect x="370.45813" y="838.6431" width="8.463495" height="5.64233" stroke="black" stroke-linecap="butt" stroke-linejoin="miter" stroke-width="1"/><rect x="371.8687" y="782.2198" width="5.64233" height="56.4233" stroke="black" stroke-linecap="butt" stroke-linejoin="miter" stroke-width="1"/><path d="M 374.68987 770.9351 C 377.80585 770.9351 380.3322 773.46148 380.3322 776.57745 C 380.3322 779.69343 377.80585 782.2198 374.68987 782.2198 C 371.5739 782.2198 369.04754 779.69343 369.04754 776.57745" stroke="black" stroke-linecap="round" stroke-linejoin="round" stroke-width="1"/><path d="M 371.89692 771.81265 C 371.89692 771.034 371.26498 770.40206 370.48634 770.40206 C 369.7077 770.40206 369.07576 771.034 369.07576 771.81265 C 369.07576 772.5927 369.7077 773.22323 370.48634 773.22323 C 371.26498 773.22323 371.89692 772.5927 371.89692 771.81265 Z" fill="black"/><rect x="424.06026" y="844.2854" width="19.748155" height="5.64233" stroke="black" stroke-linecap="butt" stroke-linejoin="miter" stroke-width="1"/><rect x="429.7026" y="838.6431" width="8.463495" height="5.64233" stroke="black" stroke-linecap="butt" stroke-linejoin="miter" stroke-width="1"/><line x1="436.7555" y1="828.769" x2="436.7555" y2="827.3584" stroke="black" stroke-linecap="round" stroke-linejoin="round" stroke-width="1"/><path d="M 436.7555 821.7161 L 436.7555 782.2198 L 431.11318 782.2198 L 431.11318 838.6431 L 436.7555 838.6431 L 436.7555 834.41133" stroke="black" stroke-linecap="round" stroke-linejoin="round" stroke-width="1"/><path d="M 439.57667 776.57745 C 439.57667 779.69343 437.05032 782.2198 433.93434 782.2198 C 430.81836 782.2198 428.292 779.69343 428.292 776.57745 C 428.292 773.46148 430.81836 770.9351 433.93434 770.9351 C 437.05032 770.9351 439.57667 773.46148 439.57667 776.57745 Z" stroke="black" stroke-linecap="butt" stroke-linejoin="miter" stroke-width="1"/><path d="M 431.11318 789.2727 C 423.64414 793.5933 414.97188 797.7362 405.7227 797.7362 C 395.28015 797.7362 385.58098 794.67664 377.51104 789.2727 L 377.51104 783.63036 C 385.58098 789.0343 395.28015 792.09386 405.7227 792.09386 C 414.97188 792.09386 423.64414 787.951 431.11318 783.63036 L 431.11318 789.2727 Z" stroke="black" stroke-linecap="butt" stroke-linejoin="miter" stroke-width="1"/></g></g></svg>
