<?xml version="1.0"?>
<!DOCTYPE svg PUBLIC "-//W3C//DTD SVG 1.1//EN" "http://www.w3.org/Graphics/SVG/1.1/DTD/svg11.dtd">
<svg xmlns="http://www.w3.org/2000/svg" xmlns:xl="http://www.w3.org/1999/xlink" version="1.1" viewBox="630 888 57 105" width="57pt" height="105pt"><metadata xmlns:dc="http://purl.org/dc/elements/1.1/"><dc:date>2017-01-24 01:21Z</dc:date><!-- Produced by OmniGraffle Professional 5.4.2 --></metadata><defs></defs><g stroke="none" stroke-opacity="1" stroke-dasharray="none" fill="none" fill-opacity="1"><title>Canvas 1</title><g><title>Layer 1</title><rect x="658.3119" y="892.12356" width=".51367888" height="8.4789256" fill="#474749"/><path d="M 651.12336 892.12377 L 658.82553 892.12377 L 658.82553 888.093 L 651.12336 888.093 L 653.3122 890.1086 Z" fill="#f3ad50"/><rect x="647.64156" y="920.0045" width="21.298115" height="34.07432" fill="#98999d"/><rect x="678.10766" y="913.2592" width=".51367888" height="8.4789256" fill="#474749"/><path d="M 638.7154 918.05497 L 632.82336 940.0512 L 644.30828 940.0512 Z" fill="#e3564f"/><path d="M 678.37516 918.05497 L 672.4831 940.0512 L 683.96803 940.0512 Z" fill="#e3564f"/><path d="M 658.5606 896.92734 L 647.92982 918.92397 L 668.65193 918.92397 Z" fill="#e3564f"/><rect x="631.99864" y="941.03224" width="12.87808" height="51.06054" fill="#98999d"/><rect x="644.83244" y="954.0788" width="26.954171" height="38.013957" fill="#98999d"/><rect x="671.78705" y="941.03224" width="12.87808" height="51.06054" fill="#98999d"/><path d="M 670.18733 950.17925 L 670.18733 952.1291 L 667.38897 952.1291 L 667.38897 950.17925 L 664.94824 950.17925 L 664.94824 952.1291 L 662.14987 952.1291 L 662.14987 950.17925 L 659.70914 950.17925 L 659.70914 952.1291 L 656.91035 952.1291 L 656.91035 950.17925 L 654.46962 950.17925 L 654.46962 952.1291 L 651.67125 952.1291 L 651.67125 950.17925 L 649.23052 950.17925 L 649.23052 952.1291 L 646.43173 952.1291 L 646.43173 950.17925 L 644.83266 950.17925 L 644.83266 954.0789 L 671.78683 954.0789 L 671.78683 950.17925 Z" fill="#474749"/><path d="M 670.18733 916.1051 L 670.18733 918.05493 L 667.38897 918.05493 L 667.38897 916.1051 L 664.94824 916.1051 L 664.94824 918.05493 L 662.14987 918.05493 L 662.14987 916.1051 L 659.70914 916.1051 L 659.70914 918.05493 L 656.91035 918.05493 L 656.91035 916.1051 L 654.46962 916.1051 L 654.46962 918.05493 L 651.67125 918.05493 L 651.67125 916.1051 L 649.23052 916.1051 L 649.23052 918.05493 L 646.43173 918.05493 L 646.43173 916.1051 L 644.83266 916.1051 L 644.83266 920.00476 L 671.78683 920.00476 L 671.78683 916.1051 Z" fill="#474749"/><path d="M 630.65224 937.1324 L 630.65224 941.03206 L 646.43186 941.03206 L 646.43186 937.1324 L 645.35378 937.1324 L 645.35378 939.08223 L 642.5554 939.08223 L 642.5554 937.1324 L 640.11468 937.1324 L 640.11468 939.08223 L 637.3163 939.08223 L 637.3163 937.1324 L 634.8756 937.1324 L 634.8756 939.08223 L 632.0772 939.08223 L 632.0772 937.1324 Z" fill="#474749"/><path d="M 670.33594 937.1324 L 670.33594 941.03206 L 686.11555 941.03206 L 686.11555 937.1324 L 685.03747 937.1324 L 685.03747 939.08223 L 682.2391 939.08223 L 682.2391 937.1324 L 679.79837 937.1324 L 679.79837 939.08223 L 677 939.08223 L 677 937.1324 L 674.55885 937.1324 L 674.55885 939.08223 L 671.7605 939.08223 L 671.7605 937.1324 Z" fill="#474749"/><path d="M 658.30957 960.5684 C 649.20865 960.5684 650.41353 992.0928 650.41353 992.0928 L 658.30957 992.0928 L 666.2056 992.0928 C 667.41093 960.5684 658.30957 960.5684 658.30957 960.5684 Z" fill="#e3564f"/><path d="M 670.919 913.2594 L 678.62117 913.2594 L 678.62117 909.22864 L 670.919 909.22864 L 673.10825 911.24423 Z" fill="#f3ad50"/></g></g></svg>
