<?xml version="1.0"?>
<!DOCTYPE svg PUBLIC "-//W3C//DTD SVG 1.1//EN" "http://www.w3.org/Graphics/SVG/1.1/DTD/svg11.dtd">
<svg xmlns="http://www.w3.org/2000/svg" xmlns:xl="http://www.w3.org/1999/xlink" version="1.1" viewBox="351 538 109 39" width="109pt" height="39pt"><metadata xmlns:dc="http://purl.org/dc/elements/1.1/"><dc:date>2017-01-24 01:09Z</dc:date><!-- Produced by OmniGraffle Professional 5.4.2 --></metadata><defs></defs><g stroke="none" stroke-opacity="1" stroke-dasharray="none" fill="none" fill-opacity="1"><title>Canvas 1</title><g><title>Layer 1</title><path d="M 368.78927 550.2028 C 368.69735 551.5761 368.67032 552.8683 368.70817 554.0448 C 368.7352 554.86988 368.08856 555.55978 367.2635 555.5868 C 367.24727 555.5868 367.23105 555.5868 367.21375 555.5868 C 366.4114 555.5868 365.74745 554.9499 365.7215 554.14214 C 365.6804 552.86723 365.7096 551.47446 365.808 550.00167 C 365.86315 549.17877 366.57468 548.55484 367.39866 548.61215 C 368.22156 548.6673 368.84441 549.37882 368.78927 550.2028 M 392.09113 547.27453 C 386.7255 545.78444 381.4345 545.05994 375.91315 545.05994 C 372.11764 545.05994 368.18155 545.41894 364.21627 546.1294 C 363.58584 546.24184 363.09816 546.7425 363.00192 547.3751 C 362.92947 547.85413 361.27934 559.18228 366.96504 565.799 C 369.57108 568.83326 373.25521 570.37093 377.91256 570.37093 L 377.93418 570.37093 C 389.58674 570.37093 393.89048 560.62803 395.51466 556.93416 C 395.73958 556.45405 397.22318 553.09 395.92124 550.27093 C 395.44545 549.24257 394.3933 547.88765 392.09113 547.27453" fill="black"/><path d="M 456.00467 547.40602 C 455.1569 547.38764 454.3567 547.6104 453.67113 548.06456 C 452.4665 548.86475 451.70633 550.3224 451.64253 551.96496 C 451.3311 559.7647 449.89508 564.95513 447.1236 568.3019 C 444.3175 571.68866 440.02999 573.26958 433.62735 573.27607 L 433.59816 573.27607 C 427.99788 573.27607 423.44435 571.5654 419.67803 568.04453 C 416.37452 564.9562 414.2378 561.0558 412.353 557.6139 C 411.82748 556.65583 411.33114 555.75074 410.83805 554.91595 C 409.05383 551.37455 406.67055 551.02635 405.7287 551.0404 L 405.72654 551.0404 C 404.78577 551.02744 402.396 551.36806 400.60746 554.91595 C 400.11329 555.75074 399.61695 556.65583 399.0925 557.6139 C 397.20772 561.0558 395.07098 564.9562 391.76856 568.04453 C 387.99576 571.5708 383.42816 573.28256 377.81924 573.27607 C 371.4166 573.26958 367.128 571.68758 364.32191 568.3019 C 361.55043 564.95513 360.11549 559.7647 359.80406 551.96496 C 359.7381 550.3224 358.98008 548.86475 357.77546 548.06456 C 357.0888 547.6104 356.29078 547.38655 355.44084 547.40602 L 354.83745 543.45155 C 368.56186 540.5157 382.03972 540.91255 398.31177 544.7059 L 398.66861 544.78917 C 400.82373 545.292 403.99963 545.88673 405.72221 545.88673 C 407.53995 545.88673 410.62178 545.292 412.7769 544.78917 L 413.13374 544.7059 C 429.4058 540.91255 442.88365 540.5157 456.60914 543.45155 Z M 458.63017 540.8401 C 443.96824 537.47388 429.72695 537.7691 412.45574 541.796 L 412.09781 541.87927 C 410.08435 542.34966 407.43939 542.91196 405.72221 542.91196 C 403.978 542.91196 401.36008 542.34966 399.3477 541.87927 L 398.99085 541.796 C 381.71748 537.7691 367.47727 537.47496 352.81534 540.8401 C 352.053 541.01528 351.5545 541.74843 351.67344 542.5216 L 352.72018 549.38596 C 352.7883 549.8304 353.05324 550.22184 353.44252 550.44892 C 353.83072 550.67708 354.30219 550.7171 354.72283 550.5592 C 355.31865 550.33538 355.78903 550.3343 356.12317 550.5549 C 356.51894 550.81766 356.79144 551.4178 356.8174 552.085 C 357.15585 560.57245 358.80923 566.3317 362.02082 570.2083 C 365.39028 574.27523 370.55586 576.25625 377.816 576.26382 L 377.84735 576.26382 C 392.28436 576.26382 397.95817 565.90564 401.71368 559.04992 C 402.23488 558.09726 402.72798 557.19758 403.20377 556.39522 C 403.22215 556.36386 403.24053 556.33142 403.25567 556.299 C 404.09155 554.6229 405.03989 554.02816 405.65517 554.02816 C 405.66058 554.02816 405.66707 554.02816 405.67247 554.02816 C 405.68112 554.02816 405.71356 554.02924 405.72221 554.02924 C 405.73195 554.02924 405.76439 554.02816 405.77304 554.02816 C 405.77844 554.02816 405.78385 554.02816 405.78926 554.02816 C 406.40562 554.02816 407.35396 554.6229 408.18876 556.299 C 408.20606 556.33142 408.22228 556.36386 408.24174 556.39522 C 408.71753 557.19758 409.21063 558.09726 409.73183 559.04992 C 413.48734 565.90564 419.15898 576.2649 433.59816 576.26382 L 433.6306 576.26382 C 440.88857 576.25625 446.05523 574.27523 449.4247 570.2083 C 452.63628 566.3317 454.28858 560.57245 454.62812 552.085 C 454.65407 551.4178 454.92657 550.81766 455.32234 550.5549 C 455.65647 550.3343 456.12686 550.3343 456.72268 550.5592 C 457.1444 550.7171 457.6148 550.67708 458.003 550.44892 C 458.39227 550.22184 458.65612 549.83147 458.72533 549.38596 L 459.77207 542.5216 C 459.89101 541.74843 459.39251 541.01528 458.63017 540.8401" fill="black"/><path d="M 433.51197 568.87663 Z M 419.3691 547.2703 C 417.05177 547.88776 416.0007 549.24268 415.52491 550.27104 C 414.22298 553.0901 415.7055 556.45524 415.93042 556.93427 C 417.55568 560.62922 421.85942 570.37104 433.51197 570.37104 L 433.53252 570.37104 C 438.19095 570.37104 441.87508 568.83337 444.48112 565.79912 C 450.16574 559.1824 448.5167 547.85423 448.44424 547.3752 C 448.348 546.7426 447.86032 546.24195 447.23097 546.1295 C 443.26353 545.42013 439.32852 545.06004 435.53192 545.06004 C 430.01167 545.06004 424.71957 545.78346 419.3691 547.2703" fill="black"/></g></g></svg>
