<?xml version="1.0" encoding="utf-8"?>
<!-- Generator: Adobe Illustrator 16.0.0, SVG Export Plug-In . SVG Version: 6.00 Build 0)  -->
<!DOCTYPE svg PUBLIC "-//W3C//DTD SVG 1.1//EN" "http://www.w3.org/Graphics/SVG/1.1/DTD/svg11.dtd">
<svg version="1.1" id="Capa_1" xmlns="http://www.w3.org/2000/svg" xmlns:xlink="http://www.w3.org/1999/xlink" x="0px" y="0px"
	 width="416.5px" height="514px" viewBox="0 22.5 416.5 514" enable-background="new 0 22.5 416.5 514" xml:space="preserve">
<g>
	<path fill="#FF0000" stroke="#000000" stroke-width="6" stroke-miterlimit="10" d="M88.773,148.291
		c-3.494-0.223-7.92-0.43-12.826-0.43c-24.943,0-42.527,5.203-52.272,15.461c-6.145,6.476-9.011,14.635-8.523,23.853v63.199
		c0,8.375,3.064,16.419,8.565,22.614l76.059,87.258c1.619,1.851,3.898,2.842,6.244,2.842c1.09,0,2.189-0.215,3.238-0.661
		c3.295-1.403,5.311-4.766,4.989-8.333L96.479,155.798C96.107,151.743,92.837,148.546,88.773,148.291z"/>
	<path fill="#FF0000" stroke="#000000" stroke-width="6" stroke-miterlimit="10" d="M257.239,280.495
		c-31.848,0-57.765,24.043-57.765,53.602l-0.05,168.405c0,3.774,4.601,8.069,8.26,8.994c20.954,5.343,34.821,7.524,49.555,7.524
		c14.627,0,26.223-2.883,49.556-8.26c3.749-0.859,8.259-4.41,8.259-8.259V335.047C315.054,304.967,289.12,280.495,257.239,280.495z
		 M287.855,471.885c3.23,3.229,3.23,8.449,0,11.679c-1.61,1.611-3.725,2.42-5.839,2.42s-4.229-0.809-5.839-2.42l-18.938-18.938
		l-18.938,18.938c-1.61,1.611-3.726,2.42-5.839,2.42c-2.114,0-4.229-0.809-5.839-2.42c-3.229-3.229-3.229-8.449,0-11.679
		l18.938-18.938l-18.938-18.939c-3.229-3.229-3.229-8.448,0-11.678c3.229-3.229,8.448-3.229,11.678,0l18.938,18.938l18.938-18.938
		c3.229-3.229,8.448-3.229,11.678,0c3.23,3.229,3.23,8.448,0,11.678l-18.938,18.939L287.855,471.885z M287.855,373.767
		c3.23,3.229,3.23,8.448,0,11.678c-1.61,1.611-3.725,2.42-5.839,2.42s-4.229-0.809-5.839-2.42l-18.938-18.938l-18.938,18.938
		c-1.61,1.611-3.726,2.42-5.839,2.42c-2.114,0-4.229-0.809-5.839-2.42c-3.229-3.229-3.229-8.449,0-11.678l18.938-18.938
		l-18.938-18.939c-3.229-3.229-3.229-8.448,0-11.678c3.229-3.229,8.448-3.229,11.678,0l18.938,18.938l18.938-18.938
		c3.229-3.229,8.448-3.229,11.678,0c3.23,3.229,3.23,8.449,0,11.678l-18.938,18.939L287.855,373.767z"/>
	<path fill="#FF0000" stroke="#000000" stroke-width="6" stroke-miterlimit="10" d="M377.18,381.562
		c-2.445-1.495-5.519-1.61-8.07-0.297c-6.896,3.534-19.558,9.085-37.529,13.826v120.972c0,1.008-0.133,1.982-0.247,2.957
		c30.22-8.582,45.847-20.607,46.64-21.235c1.998-1.561,3.162-3.955,3.162-6.499v-102.67
		C381.127,385.734,379.632,383.066,377.18,381.562z"/>
	<path fill="#FF0000" stroke="#000000" stroke-width="6" stroke-miterlimit="10" d="M182.948,394.868
		c-17.65-4.79-30.525-10.341-37.67-13.875c-2.561-1.256-5.591-1.115-8.02,0.388c-2.428,1.511-3.906,4.163-3.906,7.021v102.885
		c0,2.857,1.479,5.509,3.898,7.02c0.9,0.562,18.261,11.191,45.831,19.831c-0.058-0.694-0.173-1.372-0.173-2.073L182.948,394.868z"/>
	<path fill="#FF0000" stroke="#000000" stroke-width="6" stroke-miterlimit="10" d="M373.471,58.984
		c-15.891-11.778-35.672-18.005-57.187-18.005H183.46c-4.006,0-7.896,0.496-11.572,1.461c-15.8,4.155-67.354,22.416-67.32,83.492
		l20.565,229.63c0.231,2.552,1.627,4.848,3.782,6.228c0.95,0.603,19.938,12.513,54.032,21.119l0.017-48.812
		c0-38.661,33.327-70.112,74.283-70.112c40.982,0,74.333,31.88,74.333,71.071v48.026c35.209-8.614,53.347-20.829,54.238-21.448
		c2.064-1.421,3.369-3.701,3.551-6.212l16.535-230.216C405.904,97.604,394.688,74.709,373.471,58.984z M356.35,181.385
		c-4.56,0-8.259-3.692-8.259-8.259c0-40.99-33.351-74.333-74.333-74.333c-4.56,0-8.259-3.692-8.259-8.259
		c0-4.567,3.699-8.259,8.259-8.259c50.091,0,90.851,40.759,90.851,90.851C364.608,177.693,360.908,181.385,356.35,181.385z"/>
</g>
</svg>
