<?xml version="1.0"?>
<!DOCTYPE svg PUBLIC "-//W3C//DTD SVG 1.1//EN" "http://www.w3.org/Graphics/SVG/1.1/DTD/svg11.dtd">
<svg xmlns="http://www.w3.org/2000/svg" xmlns:xl="http://www.w3.org/1999/xlink" version="1.1" viewBox="507 638 57 88" width="57pt" height="88pt"><metadata xmlns:dc="http://purl.org/dc/elements/1.1/"><dc:date>2017-01-24 01:21Z</dc:date><!-- Produced by OmniGraffle Professional 5.4.2 --></metadata><defs></defs><g stroke="none" stroke-opacity="1" stroke-dasharray="none" fill="none" fill-opacity="1"><title>Canvas 1</title><g><title>Layer 1</title><path d="M 512.8034 680.4145 C 510.46783 676.50355 509.10402 671.9484 509.1109 667.06875 C 509.13153 652.63015 520.90864 640.9432 535.42124 640.96275 C 549.93186 640.9833 561.67753 652.7015 561.65886 667.13913 C 561.651 672.01977 560.2764 676.57197 557.93 680.4761 L 558.02924 680.4761 C 547.2288 697.07594 548.33715 704.6916 548.33715 704.6916 L 535.3338 704.675 L 522.32846 704.65545 C 523.46235 697.04173 512.70613 680.4145 512.70613 680.4145 Z" fill="#fffffe"/><path d="M 512.8034 679.523 C 510.46783 675.61205 509.10402 671.05692 509.1109 666.17726 C 509.13153 651.73866 520.90864 640.0517 535.42124 640.07126 C 549.93186 640.0918 561.67753 651.81 561.65886 666.24764 C 561.651 671.12828 560.2764 675.68048 557.93 679.5846 L 558.02924 679.5846 C 547.2288 696.18444 548.33715 703.8001 548.33715 703.8001 L 535.3338 703.7835 L 522.32846 703.76395 C 523.46235 696.15023 512.70613 679.523 512.70613 679.523 L 512.8034 679.523 Z" stroke="black" stroke-linecap="round" stroke-linejoin="round" stroke-width="1"/><path d="M 542.0301 704.7799 L 548.7234 672.90665 L 548.03854 672.7649 L 541.3158 704.7799 Z" fill="#0c1419"/><path d="M 546.36827 672.83315 C 546.3663 673.93967 547.26732 674.838 548.3786 674.83995 C 549.49285 674.84092 550.39682 673.94554 550.3978 672.83803 C 550.39976 671.7315 549.49973 670.8332 548.38353 670.83123 C 547.27224 670.83026 546.37024 671.72564 546.36827 672.83315 Z" fill="#0c1419"/><path d="M 529.34884 704.7799 L 522.71157 672.72875 L 522.0277 672.8705 L 528.6355 704.7799 Z" fill="#0c1419"/><path d="M 524.38508 672.80265 C 524.38312 673.91113 523.48112 674.80554 522.3659 674.80456 C 521.2546 674.8026 520.35457 673.9043 520.35654 672.7968 C 520.35752 671.69026 521.2605 670.7939 522.3718 670.79585 C 523.48603 670.7978 524.38606 671.69514 524.38508 672.80265 Z" fill="#0c1419"/><path d="M 522.0054 707.9414 L 548.6606 707.97757 C 549.24426 707.97757 549.2413 710.2092 548.65766 710.20723 L 522.00244 710.17107 C 521.41192 710.17107 521.41388 707.93944 522.0054 707.9414 M 521.99655 714.55514 L 548.65177 714.5913 C 549.2354 714.5913 549.23836 712.3626 548.6547 712.36066 L 521.9995 712.3245 C 521.408 712.3245 521.40504 714.5532 521.99655 714.55514 M 523.3348 715.20224 L 524.17982 716.6724 L 524.36062 716.64894 L 546.27394 716.67826 L 546.45867 716.7027 L 547.3086 715.2345 Z M 522.32276 710.81817 L 522.32178 711.67934 L 548.33047 711.71356 L 548.33145 710.85336 Z M 548.33636 707.33046 L 548.33735 706.79186 L 535.333 706.77524 L 522.32866 706.75765 L 522.32767 707.2943 Z M 526.16855 719.77595 C 527.82025 721.903 531.18753 725.44445 535.30745 725.4503 C 539.4264 725.4562 542.80448 721.92253 544.46208 719.80136 Z M 525.24886 719.12884 L 545.3798 719.1562 C 545.86225 719.1562 546.7554 717.32536 546.27296 717.32536 L 524.36062 717.2941 C 523.8821 717.2941 524.76937 719.12884 525.24886 719.12884" fill="#0c1419"/><path d="M 544.81954 672.36062 C 543.4459 672.2883 542.06932 672.24528 540.6947 672.19347 L 540.84307 672.29318 C 540.1248 670.36164 539.34366 668.4575 538.592 666.53963 L 538.22746 665.60808 L 537.98673 666.59535 C 537.48955 668.63148 537.03265 670.67542 536.5797 672.72132 L 535.21293 678.85707 L 536.0766 678.83556 L 534.38266 672.6998 C 533.8285 670.651 533.25073 668.609 532.64547 666.57385 L 532.42046 665.8163 L 532.07656 666.51226 C 531.1657 668.3519 530.24308 670.18765 529.36564 672.04685 L 529.4924 671.9706 C 528.30545 672.00873 527.1185 672.04783 525.93155 672.10745 C 527.1185 672.171 528.30545 672.214 529.4924 672.25505 L 529.57395 672.258 L 529.62013 672.17783 C 530.64692 670.39683 531.6295 668.59335 532.6219 666.79476 L 532.052 666.73122 C 532.5482 668.7957 533.06798 670.85235 533.6133 672.9041 L 535.6944 680.89417 L 537.36476 672.88847 C 537.7971 670.83866 538.22353 668.78787 538.61067 666.7273 L 538.00442 666.784 C 538.8514 668.66178 539.66595 670.55226 540.5434 672.4183 L 540.59153 672.51996 L 540.69372 672.51605 C 542.06834 672.46913 543.44492 672.43003 544.81954 672.36062 Z" fill="#d15e1b"/><path d="M 537.1768 684.43994 C 533.38702 684.2542 533.38702 684.43994 533.38702 684.43994 C 533.38702 694.89035 528.94677 704.69367 528.94677 704.69367 L 541.61704 704.69367 C 537.1768 694.35175 537.1768 684.43994 537.1768 684.43994 Z" fill="#0c1419"/></g></g></svg>
