<?xml version="1.0"?>
<!DOCTYPE svg PUBLIC "-//W3C//DTD SVG 1.1//EN" "http://www.w3.org/Graphics/SVG/1.1/DTD/svg11.dtd">
<svg xmlns="http://www.w3.org/2000/svg" xmlns:xl="http://www.w3.org/1999/xlink" version="1.1" viewBox="740 898 98 84" width="98pt" height="7pc"><metadata xmlns:dc="http://purl.org/dc/elements/1.1/"><dc:date>2017-01-24 01:21Z</dc:date><!-- Produced by OmniGraffle Professional 5.4.2 --></metadata><defs></defs><g stroke="none" stroke-opacity="1" stroke-dasharray="none" fill="none" fill-opacity="1"><title>Canvas 1</title><g><title>Layer 1</title><path d="M 813.5759 962.8339 C 805.5433 965.2848 797.30763 959.40404 795.5225 954.4103 C 803.0328 935.9993 821.64284 940.9809 821.64284 940.9809 C 825.8233 949.3014 822.05907 960.2456 813.5759 962.8339 M 764.70746 962.8339 C 756.2243 960.2456 752.46004 949.3014 756.6405 940.9809 C 775.25056 935.9993 782.76086 954.4103 782.76086 954.4103 C 780.9757 959.40404 772.73905 965.2848 764.70746 962.8339 M 820.7053 900.5653 C 820.55277 900.75727 815.00946 907.77355 811.11085 915.6324 C 804.4502 911.7368 796.8924 909.6415 789.14168 909.6415 C 781.38993 909.6415 773.83316 911.7368 767.1725 915.6324 C 763.21833 907.6634 757.57096 900.55623 757.57096 900.55623 C 734.7845 923.3417 744.5123 972.72436 746.2247 978.8142 C 771.26507 983.4766 775.92845 966.6375 789.14168 966.6375 C 802.3539 966.6375 807.01727 983.4766 832.05764 978.8142 L 832.0415 978.8142 C 833.7539 972.7254 843.4797 923.35483 820.7053 900.5653" fill="#232323"/><path d="M 813.5759 962.8339 C 805.5433 965.2848 797.30763 959.40404 795.5225 954.4103 C 803.0328 935.9993 821.64284 940.9809 821.64284 940.9809 C 825.8233 949.3014 822.05907 960.2456 813.5759 962.8339 Z M 764.70746 962.8339 C 756.2243 960.2456 752.46004 949.3014 756.6405 940.9809 C 775.25056 935.9993 782.76086 954.4103 782.76086 954.4103 C 780.9757 959.40404 772.73905 965.2848 764.70746 962.8339 Z M 820.7053 900.5653 C 820.55277 900.75727 815.00946 907.77355 811.11085 915.6324 C 804.4502 911.7368 796.8924 909.6415 789.14168 909.6415 C 781.38993 909.6415 773.83316 911.7368 767.1725 915.6324 C 763.21833 907.6634 757.57096 900.55623 757.57096 900.55623 C 734.7845 923.3417 744.5123 972.72436 746.2247 978.8142 C 771.26507 983.4766 775.92845 966.6375 789.14168 966.6375 C 802.3539 966.6375 807.01727 983.4766 832.05764 978.8142 L 832.0415 978.8142 C 833.7539 972.7254 843.4797 923.35483 820.7053 900.5653 Z" stroke="black" stroke-linecap="round" stroke-linejoin="round" stroke-width="1"/><path d="M 804.86814 924.7711 C 803.26384 923.8326 801.5888 923.04256 799.8643 922.4061 M 791.662 920.58156 C 790.82447 920.51286 789.9829 920.4775 789.14036 920.4775 C 783.65362 920.4775 778.2154 921.9626 773.4116 924.7711" stroke="#535353" stroke-linecap="round" stroke-linejoin="round" stroke-width="1"/><path d="M 764.9956 911.58446 C 765.9634 913.2605 766.91104 915.0345 767.7546 916.8358" stroke="black" stroke-linecap="round" stroke-linejoin="round" stroke-width="1"/><path d="M 813.28736 911.58446 C 812.31953 913.2605 811.3719 915.0345 810.52834 916.8358" stroke="black" stroke-linecap="round" stroke-linejoin="round" stroke-width="1"/></g></g></svg>
