<?xml version="1.0" encoding="utf-8"?>
<!-- Generator: Adobe Illustrator 16.0.0, SVG Export Plug-In . SVG Version: 6.00 Build 0)  -->
<!DOCTYPE svg PUBLIC "-//W3C//DTD SVG 1.1//EN" "http://www.w3.org/Graphics/SVG/1.1/DTD/svg11.dtd">
<svg version="1.1" id="Capa_1" xmlns="http://www.w3.org/2000/svg" xmlns:xlink="http://www.w3.org/1999/xlink" x="0px" y="0px"
	 width="960px" height="560px" viewBox="0 0 960 560" enable-background="new 0 0 960 560" xml:space="preserve">
<g>
	<path fill="#FF0000" d="M692.479,471.194c7.028,0,12.747-5.719,12.747-12.746V340.14c-21.769,13.203-48.505,20.351-77.142,20.351
		c-19.982,0-39.042-3.479-56.136-10.062V458.45c0,7.028,5.718,12.746,12.746,12.746h107.783L692.479,471.194L692.479,471.194z
		 M606.639,401.92c-4.978-4.978-4.978-13.049,0-18.027c4.978-4.977,13.048-4.977,18.027,0l13.921,13.923l13.922-13.923
		c4.979-4.977,13.048-4.977,18.027,0c4.978,4.979,4.978,13.049,0,18.027l-13.922,13.921l13.922,13.922
		c4.978,4.979,4.978,13.05,0,18.027c-2.489,2.488-5.751,3.733-9.015,3.733c-3.262,0-6.523-1.245-9.013-3.733l-13.922-13.922
		l-13.921,13.922c-2.489,2.488-5.751,3.733-9.014,3.733s-6.524-1.245-9.014-3.733c-4.978-4.978-4.978-13.049,0-18.027l13.922-13.922
		L606.639,401.92z"/>
	<path fill="#FF0000" d="M654.417,88.804c-38.442,0-70.986,27.705-78.44,64.188h33.387c22.891,0,42.194,15.621,47.834,36.76h39.072
		c7.04,0,12.746,5.708,12.746,12.747c0,7.04-5.706,12.746-12.746,12.746h-39.072c-5.64,21.14-24.943,36.759-47.834,36.759h-33.521
		v19.209c0,7.039-5.706,12.746-12.746,12.746s-12.746-5.707-12.746-12.746v-31.955c0-7.039,5.706-12.747,12.746-12.747h46.267
		c13.24,0,24.013-10.772,24.013-24.013c0-13.242-10.771-24.014-24.013-24.014H575.88c-3.808,0-7.602,0.407-11.288,1.195
		c-0.082,0.02-0.16,0.046-0.242,0.064c-24.733,5.42-42.687,27.691-42.687,52.956v9c0,54.931,43.763,93.295,106.422,93.295
		c62.66,0,106.422-38.366,106.422-93.295v-72.806C734.507,124.733,698.579,88.804,654.417,88.804z"/>
	<path fill="#FFFFFF" d="M606.639,447.79c2.489,2.488,5.751,3.733,9.014,3.733c3.262,0,6.523-1.245,9.013-3.733l13.922-13.922
		l13.922,13.922c2.489,2.488,5.751,3.733,9.013,3.733c3.263,0,6.524-1.245,9.014-3.733c4.978-4.978,4.978-13.049,0-18.027
		l-13.922-13.922l13.922-13.921c4.978-4.978,4.978-13.049,0-18.027c-4.979-4.977-13.049-4.977-18.027,0l-13.921,13.923
		l-13.922-13.923c-4.979-4.977-13.049-4.977-18.027,0c-4.978,4.979-4.978,13.049,0,18.027l13.922,13.921l-13.922,13.922
		C601.661,434.741,601.661,442.812,606.639,447.79z"/>
	<path fill="#FF0000" d="M395.65,179.744c-0.077-0.017-0.149-0.042-0.226-0.06c-3.691-0.792-7.492-1.198-11.305-1.198h-33.482
		c-13.241,0-24.013,10.772-24.013,24.014c0,13.241,10.772,24.013,24.013,24.013h46.266c7.04,0,12.746,5.708,12.746,12.746v31.955
		c0,7.039-5.706,12.747-12.746,12.747c-7.041,0-12.748-5.708-12.748-12.747v-19.208h-33.519c-22.891,0-42.195-15.62-47.834-36.759
		h-39.071c-7.04,0-12.747-5.707-12.747-12.747c0-7.038,5.707-12.746,12.747-12.746h39.073c5.639-21.139,24.943-36.761,47.834-36.761
		h33.385c-7.454-36.484-39.998-64.188-78.44-64.188c-44.164-0.001-80.092,35.928-80.092,80.089V241.7
		c0,54.931,43.762,93.295,106.422,93.295c62.66-0.002,106.422-38.366,106.422-93.295v-9
		C438.337,207.436,420.385,185.164,395.65,179.744z"/>
	<path fill="#FF0000" d="M254.773,340.14v118.31c0,7.027,5.718,12.746,12.747,12.746h107.785c7.028,0,12.746-5.719,12.746-12.746
		V350.426c-17.094,6.583-36.154,10.062-56.136,10.063C303.279,360.489,276.543,353.343,254.773,340.14z M353.362,383.893
		c4.978,4.979,4.978,13.049,0,18.027l-13.922,13.921l13.922,13.922c4.978,4.979,4.978,13.05,0,18.027
		c-2.49,2.488-5.751,3.733-9.013,3.733c-3.262,0-6.525-1.245-9.013-3.733l-13.922-13.922l-13.921,13.922
		c-2.489,2.488-5.751,3.733-9.013,3.733s-6.524-1.245-9.013-3.733c-4.978-4.978-4.978-13.049,0-18.027l13.921-13.922l-13.921-13.921
		c-4.978-4.978-4.978-13.049,0-18.027c4.978-4.977,13.048-4.977,18.027,0l13.921,13.923l13.921-13.923
		C340.313,378.916,348.384,378.916,353.362,383.893z"/>
	<path fill="#FFFFFF" d="M307.491,383.893c-4.978-4.977-13.048-4.977-18.027,0c-4.978,4.979-4.978,13.049,0,18.027l13.921,13.921
		l-13.921,13.922c-4.978,4.979-4.978,13.05,0,18.027c2.489,2.488,5.751,3.733,9.013,3.733c3.262,0,6.525-1.245,9.013-3.733
		l13.921-13.922l13.921,13.922c2.49,2.488,5.751,3.733,9.013,3.733c3.262,0,6.525-1.245,9.013-3.733
		c4.977-4.978,4.977-13.049,0-18.027l-13.922-13.922l13.922-13.921c4.977-4.978,4.977-13.049,0-18.027
		c-4.978-4.977-13.049-4.977-18.027,0l-13.922,13.923L307.491,383.893z"/>
	<path d="M654.417,63.311c-27.884,0-54.18,10.772-74.045,30.333c-17.552,17.283-28.33,39.687-30.909,63.891
		c-31.389,11.119-53.294,41.313-53.294,75.167v9c0,34.831,13.995,65.879,39.407,87.423c3.438,2.915,7.084,5.619,10.879,8.15V458.45
		c0,21.085,17.154,38.238,38.239,38.238h107.784c21.085,0,38.238-17.153,38.238-38.238V319.374
		c18.974-20.701,29.281-47.792,29.281-77.674v-72.806C760,110.677,712.636,63.311,654.417,63.311z M734.507,241.7
		c0,54.931-43.762,93.295-106.422,93.295c-62.659,0-106.422-38.366-106.422-93.295v-9c0-25.265,17.952-47.536,42.687-52.956
		c0.083-0.018,0.161-0.044,0.242-0.064c3.688-0.789,7.48-1.195,11.288-1.195h33.482c13.241,0,24.013,10.772,24.013,24.014
		c0,13.241-10.771,24.013-24.013,24.013h-46.267c-7.04,0-12.746,5.708-12.746,12.747v31.955c0,7.039,5.706,12.746,12.746,12.746
		s12.746-5.707,12.746-12.746v-19.209h33.521c22.892,0,42.194-15.619,47.834-36.759h39.073c7.039,0,12.745-5.707,12.745-12.746
		s-5.706-12.747-12.745-12.747h-39.073c-5.64-21.139-24.943-36.76-47.834-36.76h-33.386c7.453-36.484,39.997-64.188,78.439-64.188
		c44.162,0,80.09,35.93,80.09,80.091L734.507,241.7L734.507,241.7z M571.949,458.448V350.426
		c17.094,6.585,36.152,10.062,56.136,10.062c28.637,0,55.373-7.146,77.142-20.351v118.311c0,7.027-5.719,12.746-12.747,12.746
		H584.695C577.666,471.194,571.949,465.477,571.949,458.448z"/>
	<path d="M410.537,157.534c-2.579-24.204-13.357-46.607-30.909-63.89c-19.865-19.559-46.162-30.333-74.045-30.333
		C247.364,63.311,200,110.677,200,168.895V241.7c0,29.881,10.308,56.973,29.281,77.674v139.074
		c0,21.085,17.154,38.239,38.239,38.239h107.785c21.084,0,38.239-17.154,38.239-38.239V337.273
		c3.794-2.531,7.439-5.234,10.879-8.149c25.412-21.545,39.407-52.593,39.407-87.424v-9
		C463.829,198.847,441.925,168.652,410.537,157.534z M438.337,241.7c0,54.929-43.764,93.293-106.422,93.295
		c-62.66,0.001-106.422-38.364-106.422-93.295v-72.806c0-44.161,35.928-80.091,80.09-80.091c38.443,0,70.986,27.705,78.44,64.188
		h-33.385c-22.891,0-42.195,15.621-47.834,36.76h-39.071c-7.04,0-12.747,5.708-12.747,12.747c0,7.04,5.707,12.746,12.747,12.746
		h39.073c5.639,21.14,24.943,36.759,47.834,36.759h33.519v19.209c0,7.039,5.707,12.746,12.746,12.746
		c7.04,0,12.747-5.707,12.747-12.746v-31.955c0-7.039-5.707-12.747-12.747-12.747H350.64c-13.241,0-24.013-10.772-24.013-24.013
		c0-13.242,10.772-24.014,24.013-24.014h33.482c3.812,0,7.613,0.407,11.305,1.198c0.077,0.018,0.149,0.043,0.226,0.06
		c24.734,5.42,42.687,27.692,42.687,52.958L438.337,241.7L438.337,241.7z M388.051,458.448c0,7.027-5.718,12.746-12.746,12.746
		H267.52c-7.028,0-12.747-5.719-12.747-12.746V340.14c21.769,13.203,48.505,20.351,77.141,20.351
		c19.982,0,39.042-3.479,56.136-10.063L388.051,458.448L388.051,458.448z"/>
</g>
</svg>
