<?xml version="1.0"?>
<!DOCTYPE svg PUBLIC "-//W3C//DTD SVG 1.1//EN" "http://www.w3.org/Graphics/SVG/1.1/DTD/svg11.dtd">
<svg xmlns="http://www.w3.org/2000/svg" xmlns:xl="http://www.w3.org/1999/xlink" version="1.1" viewBox="626 635 52 95" width="52pt" height="95pt"><metadata xmlns:dc="http://purl.org/dc/elements/1.1/"><dc:date>2017-01-24 01:21Z</dc:date><!-- Produced by OmniGraffle Professional 5.4.2 --></metadata><defs></defs><g stroke="none" stroke-opacity="1" stroke-dasharray="none" fill="none" fill-opacity="1"><title>Canvas 1</title><g><title>Layer 1</title><path d="M 677.82218 729.1969 L 626.5703 729.6662 L 626.53754 643.33057 L 677.79013 642.86196 Z" fill="#eee855"/><path d="M 669.7064 650.15276 C 669.73315 650.086 669.72037 650.00595 669.6673 649.95153 L 669.383 649.66298 C 669.31283 649.5918 669.31283 649.4741 669.383 649.4026 L 669.6673 649.1137 C 669.73773 649.0419 669.73773 648.9242 669.6673 648.8527 L 669.383 648.5638 C 669.31283 648.49262 669.31283 648.37524 669.383 648.3031 L 669.6673 648.0136 C 669.73773 647.94273 669.73773 647.82598 669.6673 647.75384 L 669.383 647.46434 C 669.31283 647.3925 669.31283 647.27576 669.383 647.20394 L 669.6673 646.9154 C 669.73773 646.84325 669.73773 646.7265 669.6673 646.65468 L 669.383 646.3658 C 669.31283 646.2943 669.31283 646.17755 669.383 646.1054 L 669.6673 645.81686 C 669.73773 645.74472 669.73773 645.62734 669.6673 645.5555 L 669.383 645.2676 C 669.31283 645.19577 669.31283 645.07902 669.383 645.0069 L 669.6673 644.718 C 669.73773 644.6465 669.73773 644.52976 669.6673 644.45762 L 669.383 644.16907 C 669.31283 644.09693 669.31283 643.97955 669.383 643.90867 L 669.6673 643.61917 C 669.73773 643.548 669.73773 643.4303 669.6673 643.35846 L 669.383 643.07054 C 669.31283 642.9987 669.31283 642.88133 669.383 642.8092 L 669.6673 642.52064 C 669.73773 642.44945 669.73773 642.33112 669.6673 642.26025 L 669.383 641.97138 C 669.31283 641.89956 669.31234 641.78186 669.383 641.71067 L 669.6673 641.42117 C 669.73773 641.34966 669.73773 641.23196 669.6673 641.16014 L 669.383 640.87064 C 669.31234 640.7988 669.31283 640.6811 669.383 640.6096 L 669.6673 640.32074 C 669.73773 640.2486 669.73773 640.1312 669.6673 640.0597 L 669.383 639.77116 C 669.31283 639.69965 669.31283 639.58195 669.383 639.51013 L 669.6673 639.22126 C 669.73773 639.14976 669.73773 639.03237 669.6673 638.96087 L 669.383 638.6723 C 669.31283 638.60018 669.31283 638.4828 669.383 638.41097 L 669.6673 638.1224 C 669.73773 638.05028 669.73773 637.9329 669.6673 637.86076 L 669.383 637.5722 C 669.31283 637.5004 669.31283 637.38363 669.383 637.3118 L 669.6673 637.02294 C 669.73773 636.9511 669.73773 636.83437 669.6673 636.76255 L 669.383 636.474 C 669.31283 636.40185 669.31283 636.2851 669.383 636.21328 L 669.6673 635.9244 C 669.68685 635.90416 669.70035 635.88106 669.70904 635.85607 L 634.6508 635.85607 C 634.6597 635.88106 634.67297 635.90416 634.69227 635.9244 L 634.9761 636.21328 C 635.04676 636.2851 635.04676 636.40185 634.9761 636.474 L 634.69227 636.76255 C 634.6221 636.83437 634.6221 636.9511 634.69227 637.02294 L 634.9761 637.3118 C 635.04676 637.38363 635.04676 637.5004 634.9761 637.5722 L 634.69227 637.86076 C 634.6221 637.9329 634.6221 638.05028 634.69227 638.1224 L 634.9761 638.41097 C 635.04676 638.4828 635.04676 638.60018 634.9761 638.6723 L 634.69227 638.96087 C 634.6221 639.03237 634.6221 639.14976 634.69227 639.22126 L 634.9761 639.51013 C 635.04676 639.58195 635.04676 639.69965 634.9761 639.77116 L 634.69227 640.0597 C 634.6221 640.1312 634.6221 640.2486 634.69227 640.32074 L 634.9761 640.6096 C 635.04676 640.6811 635.04676 640.7988 634.9761 640.87064 L 634.69227 641.16014 C 634.6221 641.23196 634.6221 641.34966 634.69227 641.42117 L 634.9761 641.71067 C 635.04676 641.78186 635.04676 641.89956 634.9761 641.97138 L 634.69227 642.26025 C 634.6221 642.33112 634.6221 642.44945 634.69227 642.52064 L 634.9761 642.8092 C 635.04676 642.88133 635.04676 642.9987 634.9761 643.07054 L 634.69227 643.35846 C 634.6221 643.4303 634.6221 643.548 634.69227 643.61917 L 634.9761 643.90867 C 635.04676 643.97955 635.04676 644.09693 634.9761 644.16907 L 634.69227 644.45762 C 634.6221 644.52976 634.6221 644.6465 634.69227 644.718 L 634.9761 645.0069 C 635.04676 645.07902 635.04676 645.19577 634.9761 645.2676 L 634.69227 645.5555 C 634.6221 645.62734 634.6221 645.74472 634.69227 645.81686 L 634.9761 646.1054 C 635.04676 646.17755 635.04676 646.2943 634.9761 646.3658 L 634.69227 646.65468 C 634.6221 646.7265 634.6221 646.84325 634.69227 646.9154 L 634.9761 647.20394 C 635.04676 647.27576 635.04676 647.3925 634.9761 647.46434 L 634.69227 647.75384 C 634.6221 647.82598 634.6221 647.94273 634.69227 648.0136 L 634.9761 648.3031 C 635.04676 648.37524 635.04676 648.49262 634.9761 648.5638 L 634.69227 648.8527 C 634.6221 648.9242 634.6221 649.0419 634.69227 649.1137 L 634.9761 649.4026 C 635.04676 649.4741 635.04676 649.5918 634.9761 649.66298 L 634.69227 649.95153 C 634.63945 650.00595 634.6262 650.086 634.6532 650.15276 Z" fill="#8154d1"/></g></g></svg>
