<?xml version="1.0" encoding="utf-8"?>
<!-- Generator: Adobe Illustrator 16.0.0, SVG Export Plug-In . SVG Version: 6.00 Build 0)  -->
<!DOCTYPE svg PUBLIC "-//W3C//DTD SVG 1.1//EN" "http://www.w3.org/Graphics/SVG/1.1/DTD/svg11.dtd">
<svg version="1.1" id="Layer_1" xmlns="http://www.w3.org/2000/svg" xmlns:xlink="http://www.w3.org/1999/xlink" x="0px" y="0px"
	 width="334px" height="495.5px" viewBox="20.5 64.5 334 495.5" enable-background="new 20.5 64.5 334 495.5" xml:space="preserve">
<path fill="#666666" d="M262.03,84.239l72.025,124.758L262.03,526.523H117.978L45.952,208.998l72.026-124.758H262.03L262.03,84.239z
	 M289.968,215.67l-51.913-89.918h-96.114L90.029,215.67l61.097,269.339h77.744L289.968,215.67z"/>
<path fill="#808080" d="M238.056,125.752l51.913,89.918L228.871,485.01h-77.745L90.03,215.67l51.913-89.918H238.056L238.056,125.752
	z M247.77,237.351v-26.049h-44.741v-46.733h-26.049v46.734h-44.752v26.049h44.752V351.13h26.049V237.351H247.77z"/>
<polygon fill="#666666" points="247.77,211.301 247.77,237.351 203.028,237.351 203.028,351.129 176.979,351.129 176.979,237.351 
	132.227,237.351 132.227,211.301 176.979,211.301 176.979,164.568 203.028,164.568 203.028,211.301 "/>
<g>
	<path fill="#FFFFFF" d="M254.86,472.113c-0.571,0-1.149-0.063-1.729-0.195c-4.193-0.95-6.819-5.12-5.869-9.312l52.144-229.871
		c0.951-4.193,5.121-6.823,9.312-5.869c4.193,0.95,6.819,5.12,5.869,9.312L262.443,466.05
		C261.625,469.663,258.415,472.113,254.86,472.113z"/>
	<path fill="#FFFFFF" d="M300.708,200.526c-2.689,0-5.306-1.396-6.748-3.893l-39.259-68.002c-2.15-3.723-0.875-8.484,2.849-10.633
		c3.722-2.15,8.483-0.874,10.633,2.849l39.259,68.002c2.149,3.723,0.874,8.484-2.849,10.633
		C303.367,200.189,302.029,200.526,300.708,200.526z"/>
	<circle fill="#FFFFFF" cx="250.042" cy="104.996" r="7.783"/>
</g>
<g>
	<path fill="#333333" d="M340.791,205.103L268.766,80.352c-1.391-2.407-3.959-3.892-6.741-3.892H117.974
		c-2.781,0-5.35,1.484-6.741,3.892L39.209,205.103c-0.98,1.698-1.284,3.703-0.851,5.614l72.025,317.526
		c0.804,3.545,3.955,6.062,7.591,6.062h144.049c3.636,0,6.787-2.517,7.591-6.062l72.025-317.526
		C342.075,208.806,341.771,206.801,340.791,205.103z M255.809,518.737H124.19l-69.976-308.49l68.254-118.219h135.062l68.255,118.219
		L255.809,518.737z"/>
	<path fill="#333333" d="M238.058,117.974h-96.114c-2.781,0-5.351,1.484-6.74,3.892l-51.911,89.912
		c-0.98,1.698-1.285,3.702-0.851,5.614l61.095,269.339c0.803,3.546,3.955,6.062,7.59,6.062h77.749c3.636,0,6.787-2.516,7.591-6.062
		l61.094-269.339c0.434-1.912,0.129-3.916-0.851-5.614l-51.912-89.912C243.408,119.458,240.839,117.974,238.058,117.974z
		 M222.657,477.224h-65.315L98.297,216.921l48.14-83.379h87.126l48.139,83.379L222.657,477.224z"/>
	<path fill="#333333" d="M210.808,164.565c0-4.298-3.484-7.783-7.783-7.783h-26.05c-4.299,0-7.783,3.485-7.783,7.783v38.956h-36.963
		c-4.298,0-7.784,3.485-7.784,7.783v26.05c0,4.298,3.485,7.784,7.784,7.784h36.963v105.989c0,4.299,3.484,7.783,7.783,7.783h26.05
		c4.299,0,7.783-3.484,7.783-7.783V245.138h36.964c4.298,0,7.783-3.484,7.783-7.783v-26.05c0-4.298-3.485-7.783-7.783-7.783h-36.964
		V164.565L210.808,164.565z M239.988,219.088v10.482h-36.963c-4.299,0-7.784,3.485-7.784,7.783v105.989H184.76V237.354
		c0-4.299-3.485-7.783-7.784-7.783h-36.963v-10.482h36.963c4.299,0,7.784-3.485,7.784-7.783v-38.955h10.482v38.955
		c0,4.298,3.485,7.783,7.784,7.783L239.988,219.088L239.988,219.088z"/>
</g>
</svg>
