<?xml version="1.0"?>
<!DOCTYPE svg PUBLIC "-//W3C//DTD SVG 1.1//EN" "http://www.w3.org/Graphics/SVG/1.1/DTD/svg11.dtd">
<svg xmlns="http://www.w3.org/2000/svg" xmlns:xl="http://www.w3.org/1999/xlink" version="1.1" viewBox="749 776 76 76" width="76pt" height="76pt"><metadata xmlns:dc="http://purl.org/dc/elements/1.1/"><dc:date>2017-01-24 01:21Z</dc:date><!-- Produced by OmniGraffle Professional 5.4.2 --></metadata><defs></defs><g stroke="none" stroke-opacity="1" stroke-dasharray="none" fill="none" fill-opacity="1"><title>Canvas 1</title><g><title>Layer 1</title><path d="M 749.97476 813.70463 C 749.97476 793.30264 766.51485 776.76477 786.91683 776.76477 C 807.3188 776.76477 823.8589 793.30264 823.8589 813.70463 C 823.8589 834.1066 807.3188 850.6467 786.91683 850.6467 C 766.51485 850.6467 749.97476 834.1066 749.97476 813.70463 Z" fill="#d0493c"/><path d="M 749.97476 813.70463 L 750.66878 813.70463 C 750.66878 803.6929 754.7244 794.6342 761.28595 788.07375 C 767.8464 781.51217 776.9051 777.45657 786.91683 777.45657 C 796.92854 777.45657 805.98724 781.51217 812.5477 788.07375 C 819.1093 794.6342 823.1649 803.6929 823.1649 813.70463 C 823.1649 823.71855 819.1093 832.77503 812.5477 839.3377 C 805.98724 845.8971 796.92854 849.9549 786.91683 849.9549 C 776.9051 849.9549 767.8464 845.8971 761.28595 839.3377 C 754.7244 832.77503 750.66878 823.71855 750.66878 813.70463 L 749.28296 813.70463 C 749.28296 834.4907 766.13297 851.3385 786.91683 851.3385 C 807.7007 851.3385 824.5507 834.4907 824.5507 813.70463 C 824.5507 792.92077 807.7007 776.07297 786.91683 776.07076 C 766.13297 776.07297 749.28296 792.92077 749.28296 813.70463 Z" fill="#1d2427"/><path d="M 749.97476 813.70463 C 749.97476 802.03923 766.51485 792.58096 786.91683 792.58096 C 807.3188 792.58096 823.8589 802.03923 823.8589 813.70463 C 823.8589 825.37444 807.3188 834.8327 786.91683 834.8327 C 766.51485 834.8327 749.97476 825.37444 749.97476 813.70463 Z" fill="#d0493c"/><path d="M 749.97476 813.70463 L 750.66878 813.70463 C 750.66878 810.95514 751.6373 808.3285 753.43597 805.8934 C 756.1301 802.24843 760.70595 799.075 766.51263 796.8336 C 772.3182 794.59105 779.3458 793.27276 786.91683 793.27276 C 797.01045 793.27054 806.14 795.61823 812.6949 799.36944 C 815.9724 801.2434 818.6012 803.4638 820.3977 805.8934 C 822.19636 808.3285 823.1649 810.95514 823.1649 813.70463 C 823.1649 816.45633 822.19636 819.08295 820.3977 821.5181 C 817.70576 825.16524 813.1299 828.33645 807.32103 830.5779 C 801.51545 832.8215 794.4879 834.1409 786.91683 834.1387 C 776.8232 834.1409 767.69367 831.79323 761.13874 828.042 C 757.8635 826.1703 755.23244 823.9477 753.43597 821.5181 C 751.6373 819.08295 750.66878 816.45633 750.66878 813.70463 L 749.28296 813.70463 C 749.28296 816.7895 750.381 819.7194 752.32245 822.3416 C 755.23686 826.27544 760.02965 829.5551 766.01343 831.8707 C 771.99943 834.1819 779.1864 835.5245 786.91683 835.5245 C 797.2252 835.5223 806.56613 833.1425 813.3823 829.2463 C 816.78926 827.296 819.56974 824.966 821.5112 822.3416 C 823.45267 819.7194 824.5529 816.7895 824.5507 813.70463 C 824.5529 810.62197 823.45267 807.69206 821.5112 805.06987 C 818.5968 801.136 813.804 797.85634 807.82023 795.54297 C 801.83644 793.2296 794.64727 791.88695 786.91683 791.88695 C 776.60847 791.88916 767.26974 794.27116 760.45137 798.16737 C 757.0444 800.1155 754.2639 802.44546 752.32245 805.06987 C 750.381 807.69206 749.28296 810.62197 749.28296 813.70463 Z" fill="#1d2427"/><path d="M 749.97476 814.39864 L 823.8589 814.39864 C 824.2419 814.39864 824.5507 814.0876 824.5507 813.70463 C 824.5507 813.32386 824.2419 813.01283 823.8589 813.01283 L 749.97476 813.01283 C 749.594 813.01283 749.28296 813.32386 749.28296 813.70463 C 749.28296 814.0876 749.594 814.39864 749.97476 814.39864 Z" fill="#1d2427"/></g></g></svg>
