<?xml version="1.0"?>
<!DOCTYPE svg PUBLIC "-//W3C//DTD SVG 1.1//EN" "http://www.w3.org/Graphics/SVG/1.1/DTD/svg11.dtd">
<svg xmlns="http://www.w3.org/2000/svg" xmlns:xl="http://www.w3.org/1999/xlink" version="1.1" viewBox="610 788 105 55" width="105pt" height="55pt"><metadata xmlns:dc="http://purl.org/dc/elements/1.1/"><dc:date>2017-01-24 01:21Z</dc:date><!-- Produced by OmniGraffle Professional 5.4.2 --></metadata><defs></defs><g stroke="none" stroke-opacity="1" stroke-dasharray="none" fill="none" fill-opacity="1"><title>Canvas 1</title><g><title>Layer 1</title><path d="M 687.592 818.95625 C 685.5143 818.95625 683.4236 818.64915 681.35808 818.1243 L 681.36155 818.1278 C 675.9266 821.97257 670.496 821.5692 670.496 821.5692 C 665.06714 821.1658 646.82605 810.8303 644.33717 804.3986 C 644.01012 803.55104 644.05523 802.8345 644.36927 802.22115 L 618.40996 805.6825 C 612.7781 822.1721 612.7781 832.22825 612.7781 832.22825 L 712.126 832.22825 C 703.67993 818.95625 687.592 818.95625 687.592 818.95625 Z" fill="white"/><path d="M 613.65896 831.36057 L 710.40953 831.36057 C 707.78706 828.0684 699.9812 819.8236 687.59234 819.8236 C 685.67167 819.8236 683.63303 819.5668 681.52932 819.06017 C 680.2272 819.9086 675.36308 822.8078 670.4313 822.4339 C 664.90613 822.0236 646.2417 811.7228 643.52813 804.7116 C 643.33294 804.20583 643.2384 803.71656 643.2436 803.24637 L 619.06267 806.4709 C 618.15786 809.22263 613.92963 822.5146 613.65896 831.36057 M 712.12633 833.0956 L 612.77757 833.0956 C 612.2987 833.0956 611.91007 832.7078 611.91007 832.2281 C 611.91007 822.14417 617.35715 806.0805 617.58877 805.40213 C 617.69548 805.0907 617.96874 804.866 618.2958 804.82263 L 644.2551 801.36127 C 644.57348 801.31963 644.89186 801.45583 645.0775 801.7204 C 645.264 801.98415 645.2883 802.32855 645.1417 802.6157 C 644.9231 803.04337 644.92395 803.51096 645.14604 804.0861 C 647.55164 810.30355 665.5958 820.3354 670.56055 820.7041 C 675.3596 821.06325 680.26363 817.82398 680.81103 817.45355 C 681.0201 817.2818 681.30377 817.2124 681.57183 817.2835 C 683.67294 817.8179 685.69857 818.08857 687.59234 818.08857 C 703.9683 818.08857 712.50196 831.20355 712.8585 831.76223 C 713.02854 832.0294 713.0398 832.36775 712.88714 832.64535 C 712.73446 832.92295 712.44297 833.0956 712.12633 833.0956" fill="#0f223b"/><path d="M 644.3369 804.3984 C 646.8258 810.83012 665.0669 821.1656 670.49575 821.569 C 675.92635 821.9724 681.36215 818.1276 681.36215 818.1276 L 681.3587 818.12413 C 667.4239 814.5795 654.60994 800.8555 654.60994 800.8555 L 644.369 802.22097 C 644.05584 802.8343 644.00986 803.55086 644.3369 804.3984 Z" fill="#d31a1c"/><path d="M 645.00446 803.01153 C 644.94373 803.3325 644.99058 803.6821 645.14586 804.0855 C 647.55233 810.3038 665.59563 820.33567 670.56038 820.70436 C 673.8864 820.95594 677.27055 819.46556 679.21464 818.41154 C 667.01054 814.51816 656.2734 803.83046 654.28593 801.7736 Z M 671.3073 822.46627 L 671.3073 822.46627 C 671.0158 822.46627 670.72347 822.45586 670.432 822.43417 C 664.90596 822.02384 646.24152 811.72305 643.52796 804.71185 C 643.1263 803.6717 643.14973 802.70097 643.5965 801.8265 C 643.72575 801.5732 643.97212 801.39884 644.25493 801.36153 L 654.495 799.9952 C 654.77173 799.95704 655.05194 800.05854 655.24366 800.26327 C 655.3703 800.3986 668.05154 813.8441 681.57166 817.2838 C 681.72347 817.32195 681.8614 817.4009 681.97158 817.51106 C 682.15202 817.6915 682.24658 817.9448 682.22402 818.19987 C 682.2032 818.4549 682.0722 818.68827 681.86227 818.83575 C 681.6532 818.9841 676.66937 822.46627 671.3073 822.46627" fill="#0f223b"/><path d="M 641.8496 797.96663 C 639.82656 793.4634 640.58043 791.65377 640.58043 791.65377 C 641.3343 789.84415 647.6697 790.74896 648.8764 792.5586 C 650.08398 794.3682 651.5969 796.2212 651.5969 796.2212 Z" fill="#d31a1c"/><path d="M 643.2906 791.53484 C 642.00323 791.53484 641.4402 791.8454 641.38122 791.9868 C 641.0082 792.88294 641.67878 795.2599 642.37712 796.9906 L 650.02074 795.62253 C 649.48115 794.91985 648.78107 793.9786 648.15386 793.03996 C 647.68974 792.3442 645.4646 791.53484 643.2906 791.53484 M 641.84968 798.83405 C 641.5122 798.83405 641.1999 798.638 641.0585 798.3222 C 640.69503 797.51283 638.92444 793.3722 639.7798 791.3197 C 640.19447 790.32466 641.4081 789.7998 643.2906 789.7998 C 645.27894 789.7998 648.5503 790.50597 649.59826 792.07703 C 650.76853 793.83113 652.25457 795.65463 652.2693 795.67285 C 652.46364 795.9114 652.51742 796.23413 652.41072 796.52214 C 652.304 796.811 652.0533 797.02096 651.74968 797.0756 L 642.00236 798.82017 C 641.95118 798.8297 641.89913 798.83405 641.84968 798.83405" fill="#0f223b"/><path d="M 618.40987 805.6827 C 615.3918 802.3636 616.29662 798.4407 616.29662 798.4407 C 617.20143 794.5187 628.6647 798.4407 637.4135 798.4407 C 646.16145 798.4407 655.809 791.51627 655.809 802.0721 C 644.35183 804.47598 637.515 805.6827 637.515 805.6827 C 630.6773 806.88765 618.40987 805.6827 618.40987 805.6827 Z" fill="#fc1c1b"/><path d="M 618.8496 804.85247 C 620.14654 804.96785 624.78857 805.3504 629.52343 805.3504 C 632.75923 805.3504 635.39733 805.1752 637.36484 804.82905 C 643.13723 803.80973 652.32588 801.91075 654.9258 801.3703 C 654.7384 797.424 652.94007 797.07873 651.24843 797.07873 C 649.68345 797.07873 647.6986 797.5446 645.5975 798.03907 C 643.0635 798.63418 640.1929 799.30823 637.4134 799.30823 C 634.21578 799.30823 630.6191 798.7886 627.4466 798.3297 C 624.72785 797.93583 622.1609 797.5654 620.2298 797.5654 C 617.38873 797.5654 617.20395 798.3713 617.14235 798.6359 C 616.48305 801.48914 618.2363 804.06217 618.8496 804.85247 M 629.52343 807.08544 C 623.88463 807.08544 618.3803 806.55105 618.32564 806.54585 C 618.1105 806.52503 617.9127 806.42527 617.76783 806.2665 C 617.6325 806.1173 614.4557 802.5614 615.45158 798.2464 C 616.0094 795.8304 619.1862 795.8304 620.2298 795.8304 C 622.2858 795.8304 624.9135 796.21036 627.69472 796.6129 C 630.96176 797.0848 634.33983 797.5732 637.4134 797.5732 C 639.99165 797.5732 642.6393 796.9521 645.20017 796.34916 C 647.40277 795.833 649.48306 795.3437 651.24843 795.3437 C 654.9015 795.3437 656.67643 797.5446 656.67643 802.0721 C 656.67643 802.48244 656.3884 802.83725 655.98763 802.92053 C 655.87312 802.9457 644.4385 805.34175 637.66586 806.5363 C 635.60032 806.90066 632.85987 807.08544 629.52343 807.08544" fill="#0f223b"/><path d="M 612.77792 832.2281 C 609.6601 841.57895 614.78794 841.57895 614.78794 841.57895 L 712.1258 841.57895 C 715.64703 832.2281 712.1258 832.2281 712.1258 832.2281 L 662.7646 832.2281 Z" fill="#fc1c1b"/><path d="M 613.4192 833.0956 C 612.89347 834.9399 612.1821 838.53313 613.27084 840.0417 C 613.47817 840.32974 613.8616 840.71144 614.7881 840.71144 L 711.51786 840.71144 C 712.4383 838.07855 713.2893 834.34653 712.55627 833.28817 C 712.4886 833.19015 712.4001 833.0956 712.126 833.0956 Z M 712.126 842.44646 L 614.7881 842.44646 C 613.53022 842.44646 612.5187 841.96586 611.86287 841.05584 C 609.9075 838.3423 611.73882 832.60024 611.9557 831.95395 C 612.0728 831.59914 612.4042 831.36057 612.7781 831.36057 L 712.126 831.36057 C 712.91455 831.36057 713.55737 831.6859 713.9833 832.30095 C 715.56305 834.58423 713.38995 840.6854 712.93797 841.8852 C 712.81045 842.22264 712.48687 842.44646 712.126 842.44646" fill="#0f223b"/><path d="M 655.81023 810.01684 C 655.53956 810.01684 655.2741 809.89105 655.10494 809.6551 C 654.82474 809.26557 654.91496 808.7234 655.3036 808.4449 L 660.5442 804.68773 C 660.93546 804.40666 661.47592 804.4986 661.75526 804.88726 C 662.0346 805.27677 661.94437 805.81896 661.55573 806.09743 L 656.3151 809.8546 C 656.16157 809.9639 655.9846 810.01684 655.81023 810.01684 Z" fill="#0f223b"/><path d="M 660.14603 813.28864 C 659.87537 813.28864 659.6099 813.16285 659.44075 812.9269 C 659.16054 812.5374 659.25076 811.99606 659.6394 811.7167 L 664.8783 807.9578 C 665.26953 807.6776 665.81 807.7687 666.08933 808.15733 C 666.36867 808.54684 666.27845 809.08817 665.8898 809.3675 L 660.65092 813.1264 C 660.49737 813.23572 660.3204 813.28864 660.14603 813.28864 Z" fill="#0f223b"/><path d="M 664.6903 815.85386 C 664.41964 815.85386 664.15418 815.72808 663.985 815.4921 C 663.7048 815.1026 663.79503 814.5604 664.18367 814.28194 L 669.4243 810.52303 C 669.81554 810.2428 670.356 810.3339 670.63533 810.72255 C 670.91467 811.11207 670.82445 811.65426 670.4358 811.93273 L 665.1952 815.69164 C 665.04164 815.80095 664.86467 815.85386 664.6903 815.85386 Z" fill="#0f223b"/><path d="M 669.9309 818.43097 C 669.66025 818.43097 669.3948 818.3052 669.22563 818.0692 C 668.94543 817.6797 669.03565 817.1375 669.4243 816.85905 L 674.6649 813.10013 C 675.0553 812.81993 675.5966 812.91015 675.87595 813.29966 C 676.1553 813.68917 676.06506 814.23136 675.67642 814.50983 L 670.4358 818.26875 C 670.28226 818.37805 670.1053 818.43097 669.9309 818.43097 Z" fill="#0f223b"/><line x1="613.43957" y1="825.13386" x2="625.27932" y2="825.13386" stroke="#0f223b" stroke-linecap="round" stroke-linejoin="round" stroke-width="1"/></g></g></svg>
