<?xml version="1.0"?>
<!DOCTYPE svg PUBLIC "-//W3C//DTD SVG 1.1//EN" "http://www.w3.org/Graphics/SVG/1.1/DTD/svg11.dtd">
<svg xmlns="http://www.w3.org/2000/svg" xmlns:xl="http://www.w3.org/1999/xlink" version="1.1" viewBox="613 514 93 88" width="93pt" height="88pt"><metadata xmlns:dc="http://purl.org/dc/elements/1.1/"><dc:date>2017-01-24 01:09Z</dc:date><!-- Produced by OmniGraffle Professional 5.4.2 --></metadata><defs></defs><g stroke="none" stroke-opacity="1" stroke-dasharray="none" fill="none" fill-opacity="1"><title>Canvas 1</title><g><title>Layer 1</title><path d="M 698.6412 572.10442 L 694.18734 572.10442 C 691.88065 541.1665 673.8427 526.49257 665.80837 521.44303 C 665.7975 518.46528 663.78758 515.84015 660.94382 515.0633 C 660.36227 514.9011 659.7612 514.8181 659.15793 514.8181 C 656.83117 514.8181 654.6433 516.0615 653.446 518.0698 L 621.31677 572.10442 L 619.6779 572.10442 C 617.1553 572.10442 614.88116 573.5035 613.73812 575.7657 C 612.60377 578.02303 612.83433 580.6856 614.3289 582.6977 C 614.4732 582.89355 616.41805 585.49535 620.16777 588.78124 C 619.175 590.1006 618.71334 591.7183 618.8636 593.37454 C 619.02473 595.14524 619.8667 596.74614 621.22943 597.8794 C 623.96577 600.16006 627.27824 601.31612 631.0757 601.31612 C 635.6576 601.31612 640.12505 599.64198 644.0782 598.16043 C 644.31257 598.07254 644.63752 597.9684 644.85723 597.9684 C 645.21474 597.9684 645.9726 598.2407 646.74186 598.53692 C 649.3442 599.53674 652.9073 600.90653 659.16064 600.90653 C 665.4129 600.90653 668.97708 599.5362 671.58377 598.5342 C 672.34814 598.23963 673.1049 597.9673 673.4608 597.9673 C 673.6805 597.9673 674.00655 598.072 674.25013 598.1637 C 678.19243 599.64144 682.6604 601.31612 687.24395 601.31612 C 691.04087 601.31612 694.3539 600.16006 697.0859 597.8832 C 698.45243 596.74614 699.2944 595.14524 699.4555 593.37454 C 699.60577 591.72265 699.14682 590.10873 698.166 588.7997 C 701.7188 585.6874 703.62945 583.18704 703.97882 582.714 C 705.4848 580.6856 705.71535 578.02303 704.57557 575.7554 C 703.4385 573.5035 701.1638 572.10442 698.6412 572.10442 Z" fill="white"/><path d="M 660.3829 527.35362 L 660.3829 577.52947 L 686.56963 577.52947 C 686.0944 544.53604 666.37745 530.77784 660.3829 527.35362 Z" fill="#f0b614"/><path d="M 657.9377 577.52958 L 657.9377 525.91503 L 627.2466 577.52958 Z" fill="#e64745"/><path d="M 695.9654 579.9747 L 622.3538 579.9747 C 624.9914 582.77073 630.68977 587.96783 639.35287 591.5152 C 640.00115 591.28247 640.6543 591.0389 641.31344 590.7915 C 642.61977 590.30218 643.80132 590.06348 644.92863 590.06348 C 646.63477 590.06348 647.9921 590.58536 649.5637 591.18916 C 651.7044 592.01212 654.3664 593.03635 659.16043 593.03635 C 663.95282 593.03635 666.61647 592.0132 668.75607 591.19024 C 670.32713 590.58536 671.68445 590.06348 673.3917 590.06348 C 674.5179 590.06348 675.7011 590.30218 677.00687 590.7915 C 677.6649 591.0389 678.31916 591.28247 678.96636 591.5152 C 687.62945 587.96783 693.3278 582.77073 695.9654 579.9747 Z" fill="white"/><path d="M 642.16445 552.4416 C 636.6945 562.36762 641.57693 569.01318 641.57693 569.01318 C 646.4594 575.65873 658.8402 567.06345 659.15972 552.4416 L 659.15972 578.64245 L 625.57335 578.64245 Z" fill="#e21e36"/><path d="M 659.15967 551.72225 C 663.88913 574.59707 675.0759 573.0819 675.0759 573.0819 C 686.2627 571.5667 686.56974 562.43814 686.56974 562.43814 L 688.09578 578.64245 L 659.15967 578.64245 Z" fill="#f08b18"/><path d="M 622.3539 579.9747 C 634.76347 589.221 659.15945 589.221 659.15945 589.221 C 683.55542 589.221 695.96553 579.9747 695.96553 579.9747 L 696.91164 579.9747 C 692.1648 587.051 687.5536 589.221 687.5536 589.221 C 682.9424 591.39097 679.28057 592.47595 679.28057 592.47595 C 677.4312 591.06927 673.4764 590.9841 673.4764 590.9841 C 669.5211 590.89892 664.80736 594.64593 659.15945 594.23906 C 653.5121 593.8322 647.68027 591.79784 645.6459 591.39097 C 643.61156 590.9841 638.45786 593.03635 638.45786 593.03635 C 621.4398 582.41973 622.3539 579.9747 622.3539 579.9747 Z" fill="#e0e2e3"/><path d="M 640.85373 554.5115 L 659.15967 528.507 L 657.93797 522.17773 Z" fill="white"/><path d="M 659.15967 528.5069 C 678.87337 538.7899 685.96323 565.18224 685.96323 565.18224 C 688.15925 554.56563 676.839 541.18012 676.839 541.18012 C 665.51933 527.7946 659.15967 525.91487 659.15967 525.91487 Z" fill="white"/><path d="M 657.9377 577.52958 L 627.2466 577.52958 L 657.9377 525.91503 Z M 660.3827 577.52958 L 660.3827 527.35373 C 666.3773 530.77795 686.09424 544.53615 686.56947 577.52958 Z M 678.9664 591.5151 C 678.3192 591.28236 677.66497 591.03878 677.0069 590.79194 C 675.70114 590.30207 674.51795 590.06337 673.39174 590.06337 C 671.6845 590.06337 670.3272 590.58525 668.75558 591.19068 C 666.61652 592.0131 663.95288 593.03624 659.16048 593.03624 C 654.36646 593.03624 651.70444 592.012 649.5632 591.18905 C 647.99215 590.58525 646.63482 590.06337 644.92868 590.06337 C 643.80138 590.06337 642.61982 590.30207 641.3135 590.79194 C 640.65437 591.03878 640.0012 591.28236 639.35292 591.5151 C 630.68983 587.96826 624.99147 582.77062 622.35386 579.9746 L 695.96547 579.9746 C 693.32786 582.77062 687.6295 587.96826 678.9664 591.5151 M 698.64106 577.52958 L 688.9982 577.52958 C 688.47634 540.80488 664.8713 526.88555 660.3827 524.5756 L 660.3827 521.46658 C 660.3827 520.91594 660.0149 520.43367 659.4838 520.28774 C 658.9527 520.13964 658.39122 520.3691 658.10967 520.84217 L 624.4023 577.52958 L 619.67828 577.52958 C 619.21607 577.52958 618.79347 577.78998 618.5857 578.20173 C 618.3779 578.61457 618.4213 579.10932 618.6958 579.4793 C 618.9497 579.8238 624.6193 587.32866 635.87824 592.64402 C 631.9267 593.7632 628.75095 593.90206 626.26633 591.833 C 625.74825 591.4017 624.97682 591.47223 624.545 591.9903 C 624.11263 592.5084 624.18315 593.27982 624.7023 593.7122 C 626.6081 595.30007 628.78296 595.89085 631.07554 595.89085 C 634.6777 595.89085 638.5712 594.431 642.17172 593.0818 C 644.75074 592.11346 646.3614 592.57783 648.686 593.47187 C 651.01547 594.36752 653.91293 595.48126 659.16048 595.48126 C 664.4064 595.48126 667.30386 594.36752 669.63333 593.47187 C 671.95684 592.57675 673.5675 592.11237 676.1487 593.0818 C 679.74814 594.431 683.64163 595.89085 687.2438 595.89085 C 689.53637 595.89085 691.71123 595.30007 693.617 593.7122 C 694.1362 593.27982 694.2067 592.5084 693.77434 591.9903 C 693.3425 591.47006 692.5711 591.4017 692.053 591.833 C 689.57 593.90098 686.3937 593.76264 682.44217 592.64402 C 693.7 587.3281 699.36963 579.82325 699.6235 579.4793 C 699.898 579.10932 699.9414 578.61457 699.73364 578.20173 C 699.52586 577.78998 699.10326 577.52958 698.64106 577.52958" fill="#111b25"/></g></g></svg>
