<?xml version="1.0"?>
<!DOCTYPE svg PUBLIC "-//W3C//DTD SVG 1.1//EN" "http://www.w3.org/Graphics/SVG/1.1/DTD/svg11.dtd">
<svg xmlns="http://www.w3.org/2000/svg" xmlns:xl="http://www.w3.org/1999/xlink" version="1.1" viewBox="883 893 67 96" width="67pt" height="8pc"><metadata xmlns:dc="http://purl.org/dc/elements/1.1/"><dc:date>2017-01-24 01:21Z</dc:date><!-- Produced by OmniGraffle Professional 5.4.2 --></metadata><defs></defs><g stroke="none" stroke-opacity="1" stroke-dasharray="none" fill="none" fill-opacity="1"><title>Canvas 1</title><g><title>Layer 1</title><path d="M 940.5386 895.6839 C 936.81664 895.6839 933.79855 898.7011 933.79855 902.42394 C 933.79855 898.7011 930.7813 895.6839 927.05933 895.6839 C 923.3365 895.6839 920.31927 898.7011 920.31927 902.42394 C 920.31927 898.7011 917.302 895.6839 913.5792 895.6839 C 909.85724 895.6839 906.84 898.7011 906.84 902.42394 C 906.84 898.7011 903.8219 895.6839 900.09993 895.6839 C 896.37796 895.6839 893.35987 898.7011 893.35987 902.42394 L 893.35987 916.2121 L 893.35987 916.21296 C 889.22856 916.5826 885.98935 920.05224 885.98935 924.2806 L 885.98935 950.93196 C 885.98935 958.77426 890.87686 965.47466 897.7714 968.1543 L 897.7714 986.4122 L 941.50413 986.4122 L 941.50413 964.3471 C 945.05984 960.98044 947.27867 956.2153 947.27867 950.93196 L 947.27867 902.42394 C 947.27867 898.7011 944.2606 895.6839 940.5386 895.6839 Z" fill="#7bc93b"/><line x1="897.77154" y1="986.4122" x2="897.77154" y2="968.2159" stroke="black" stroke-linecap="round" stroke-linejoin="round" stroke-width="1"/><line x1="904.8683" y1="977.84376" x2="904.8683" y2="986.4119" stroke="black" stroke-linecap="round" stroke-linejoin="round" stroke-width="1"/><path d="M 947.11755 916.178 C 947.11755 916.178 947.11755 950.93246 947.11755 950.93246 C 947.11755 961.1337 938.84735 969.4039 928.6461 969.4039" stroke="black" stroke-linecap="round" stroke-linejoin="round" stroke-width="1"/><path d="M 906.6788 916.1496 C 906.6788 916.1496 906.6788 902.42385 906.6788 902.42385 C 906.6788 898.70104 903.66154 895.6838 899.93873 895.6838 C 896.21676 895.6838 893.1995 898.70104 893.1995 902.42385 C 893.1995 902.42385 893.1995 916.21203 893.1995 916.21203" stroke="black" stroke-linecap="round" stroke-linejoin="round" stroke-width="1"/><path d="M 920.1583 916.21245 C 920.1583 916.21245 920.1583 902.42343 920.1583 902.42343 C 920.1583 898.70146 917.1411 895.6842 913.41826 895.6842 C 909.6963 895.6842 906.67904 898.70146 906.67904 902.42343" stroke="black" stroke-linecap="round" stroke-linejoin="round" stroke-width="1"/><path d="M 926.5998 926.37293 C 926.6985 926.37715 926.7981 926.3797 926.89855 926.3797 C 930.6205 926.3797 933.63777 923.3616 933.63777 919.6396 C 933.63777 919.6396 933.63777 902.4232 933.63777 902.4232 C 933.63777 898.7012 930.6205 895.68396 926.89855 895.68396 C 923.17574 895.68396 920.1585 898.7012 920.1585 902.4232" stroke="black" stroke-linecap="round" stroke-linejoin="round" stroke-width="1"/><path d="M 940.37775 895.6839 C 936.6558 895.6839 933.6377 898.7011 933.6377 902.42394 L 933.6377 919.63954 C 933.6377 923.36235 936.6558 926.3796 940.37775 926.3796 C 944.0997 926.3796 947.1178 923.36235 947.1178 919.63954 L 947.1178 902.42394 C 947.1178 898.7011 944.0997 895.6839 940.37775 895.6839 Z" stroke="black" stroke-linecap="round" stroke-linejoin="round" stroke-width="1"/><path d="M 920.1583 916.2664 C 919.7718 916.20815 919.37595 916.17776 918.97337 916.17776 L 911.5539 916.17776 C 911.1361 916.93735 910.8981 917.8092 910.8981 918.73757 C 910.8981 921.67126 913.27647 924.04876 916.2093 924.04876 L 920.1583 924.04876 Z" fill="#3aa32c"/><path d="M 920.1583 916.2664 C 919.7718 916.20815 919.37595 916.17776 918.97337 916.17776 L 911.5539 916.17776 C 911.1361 916.93735 910.8981 917.8092 910.8981 918.73757 C 910.8981 921.67126 913.27647 924.04876 916.2093 924.04876 L 920.1583 924.04876 L 920.1583 916.2664 Z" stroke="black" stroke-linecap="round" stroke-linejoin="round" stroke-width="1"/><path d="M 900.3067 932.07616 C 900.3067 932.07616 918.9731 932.07616 918.9731 932.07616 C 923.3635 932.07616 926.9226 928.5171 926.9226 924.12666 C 926.9226 919.7371 923.3635 916.178 918.9731 916.178 C 918.9731 916.178 893.93125 916.178 893.93125 916.178 C 889.45644 916.178 885.829 919.80546 885.829 924.28027 C 885.829 924.28027 885.829 950.93246 885.829 950.93246 C 885.829 961.1337 894.09835 969.4039 904.30044 969.4039" stroke="black" stroke-linecap="round" stroke-linejoin="round" stroke-width="1"/><path d="M 928.53563 963.14323 C 928.53563 947.6097 917.58577 942.45464 906.63676 941.37856 C 906.63676 941.37856 906.63676 932.07616 906.63676 932.07616" stroke="black" stroke-linecap="round" stroke-linejoin="round" stroke-width="1"/><line x1="899.3281" y1="905.38995" x2="900.5502" y2="905.38995" stroke="black" stroke-linecap="round" stroke-linejoin="round" stroke-width="1"/><line x1="912.8077" y1="905.38995" x2="914.0298" y2="905.38995" stroke="black" stroke-linecap="round" stroke-linejoin="round" stroke-width="1"/><line x1="926.28725" y1="905.38995" x2="927.50934" y2="905.38995" stroke="black" stroke-linecap="round" stroke-linejoin="round" stroke-width="1"/></g></g></svg>
