<?xml version="1.0"?>
<!DOCTYPE svg PUBLIC "-//W3C//DTD SVG 1.1//EN" "http://www.w3.org/Graphics/SVG/1.1/DTD/svg11.dtd">
<svg xmlns="http://www.w3.org/2000/svg" xmlns:xl="http://www.w3.org/1999/xlink" version="1.1" viewBox="352 665 97 36" width="97pt" height="3pc"><metadata xmlns:dc="http://purl.org/dc/elements/1.1/"><dc:date>2017-01-24 01:21Z</dc:date><!-- Produced by OmniGraffle Professional 5.4.2 --></metadata><defs></defs><g stroke="none" stroke-opacity="1" stroke-dasharray="none" fill="none" fill-opacity="1"><title>Canvas 1</title><g><title>Layer 1</title><path d="M 359.35833 685.50064 C 359.35833 686.8193 358.42126 687.8879 357.26564 687.8879 L 355.67454 687.8879 C 354.51893 687.8879 353.58185 686.8193 353.58185 685.50064 L 353.58185 685.1503 C 353.58185 683.83165 354.51893 682.7627 355.67454 682.7627 L 357.26564 682.7627 C 358.42126 682.7627 359.35833 683.83165 359.35833 685.1503 Z" fill="#e6001c"/><path d="M 352.74163 680.54204 C 360.28956 675.64344 379.62824 660.9824 398.08922 666.73766 C 401.98032 667.7938 408.2048 673.6706 408.2048 673.6706 C 442.24332 671.50483 448.4678 683.38177 448.4678 683.38177 C 445.15403 689.7868 419.71635 691.2563 419.71635 691.2563 C 378.46075 691.72744 367.75437 691.4009 367.75437 691.4009 C 364.45376 691.76112 359.94586 688.5469 359.94586 688.5469 C 355.43796 685.333 350.5286 681.97856 352.74163 680.54204 Z" fill="#f9a12e"/><path d="M 369.70817 691.62757 L 388.04303 691.73886 C 388.04303 688.0659 386.36207 684.22714 383.82973 682.7628 L 373.92083 682.7628 C 371.38913 684.22714 369.70817 687.95463 369.70817 691.62757 Z" fill="#262626"/><path d="M 371.1523 691.16283 C 371.1523 696.0292 374.61015 699.97233 378.87544 699.97233 C 383.14008 699.97233 386.59827 696.0292 386.59827 691.16283 C 386.59827 686.29644 383.14008 682.45986 378.87544 682.45986 C 374.61015 682.45986 371.1523 686.29644 371.1523 691.16283 Z" fill="#262626"/><path d="M 372.98186 691.16283 C 372.98186 694.87567 375.62075 697.88637 378.87547 697.88637 C 382.12987 697.88637 384.76876 694.87567 384.76876 691.16283 C 384.76876 687.44998 382.12987 684.44 378.87547 684.44 C 375.62075 684.44 372.98186 687.44998 372.98186 691.16283 Z" fill="#c1c1c1"/><path d="M 374.18719 691.16283 C 374.18719 694.11568 376.28758 696.5095 378.87544 696.5095 C 381.46298 696.5095 383.56337 694.11568 383.56337 691.16283 C 383.56337 688.20924 381.46298 685.81614 378.87544 685.81614 C 376.28758 685.81614 374.18719 688.20924 374.18719 691.16283 Z" fill="#535353"/><path d="M 433.48195 689.69204 C 433.79356 689.54597 434.92222 689.5112 434.91548 689.4109 C 434.609 684.9816 430.4339 680.79834 425.88652 680.79834 C 420.82408 680.79834 416.71926 685.37917 416.71926 691.25596 L 433.60903 691.29257 Z" fill="#262626"/><path d="M 418.16325 691.2926 C 418.16325 696.159 421.6211 700.10247 425.8864 700.10247 C 430.15168 700.10247 433.60922 696.159 433.60922 691.2926 C 433.60922 686.4266 430.15168 682.48237 425.8864 682.48237 C 421.6211 682.48237 418.16325 686.4266 418.16325 691.2926 Z" fill="#262626"/><path d="M 419.99285 691.2926 C 419.99285 695.00545 422.63174 698.0154 425.88646 698.0154 C 429.14086 698.0154 431.77975 695.00545 431.77975 691.2926 C 431.77975 687.57976 429.14086 684.5698 425.88646 684.5698 C 422.63174 684.5698 419.99285 687.57976 419.99285 691.2926 Z" fill="#c1c1c1"/><path d="M 421.19879 691.2926 C 421.19879 694.24546 423.29853 696.6393 425.8864 696.6393 C 428.47458 696.6393 430.57433 694.24546 430.57433 691.2926 C 430.57433 688.339 428.47458 685.9459 425.8864 685.9459 C 423.29853 685.9459 421.19879 688.339 421.19879 691.2926 Z" fill="#535353"/><path d="M 379.73552 674.78833 L 376.75518 667.5658 C 370.88019 669.4812 365.48431 672.39083 361.0653 675.10903 C 373.82876 676.30393 379.73552 674.78833 379.73552 674.78833 Z" fill="#535353"/><path d="M 382.08658 668.28957 C 385.92056 675.7636 390.7683 675.7636 390.7683 675.7636 C 402.34693 676.64073 408.14716 673.61796 408.14716 673.61796 C 403.1027 668.86835 399.60214 667.2905 398.4783 666.86952 C 392.93448 667.0606 382.24447 667.52445 382.08658 668.28957 Z" fill="#535353"/><path d="M 393.94543 679.83417 C 393.94543 680.23833 393.6579 680.56635 393.3036 680.56635 L 390.09445 680.56635 C 389.73984 680.56635 389.45262 680.23833 389.45262 679.83417 C 389.45262 679.43 389.73984 679.102 390.09445 679.102 L 393.3036 679.102 C 393.6579 679.102 393.94543 679.43 393.94543 679.83417 Z" fill="#262626"/><path d="M 443.8879 683.59655 C 443.8879 684.68603 443.11448 685.56756 442.1604 685.56756 C 441.20664 685.56756 440.4329 684.68603 440.4329 683.59655 C 440.4329 682.5089 441.20664 681.62664 442.1604 681.62664 C 443.11448 681.62664 443.8879 682.5089 443.8879 683.59655 Z" fill="#fcf56b"/></g></g></svg>
