<?xml version="1.0"?>
<!DOCTYPE svg PUBLIC "-//W3C//DTD SVG 1.1//EN" "http://www.w3.org/Graphics/SVG/1.1/DTD/svg11.dtd">
<svg xmlns="http://www.w3.org/2000/svg" xmlns:xl="http://www.w3.org/1999/xlink" version="1.1" viewBox="520 1114 34 48" width="34pt" height="4pc"><metadata xmlns:dc="http://purl.org/dc/elements/1.1/"><dc:date>2017-01-24 01:31Z</dc:date><!-- Produced by OmniGraffle Professional 5.4.2 --></metadata><defs></defs><g stroke="none" stroke-opacity="1" stroke-dasharray="none" fill="none" fill-opacity="1"><title>Canvas 1</title><g><title>Layer 1</title><path d="M 541.06637 1155.9076 C 541.06637 1156.6697 538.34605 1157.2878 534.99114 1157.2878 C 531.6355 1157.2878 528.9152 1156.6697 528.9152 1155.9076 C 528.9152 1155.1455 531.6355 1154.5281 534.99114 1154.5281 C 538.34605 1154.5281 541.06637 1155.1455 541.06637 1155.9076 Z" fill="#f4f5f8"/><path d="M 541.06637 1155.9076 C 541.06637 1156.6697 538.34605 1157.2878 534.99114 1157.2878 C 531.6355 1157.2878 528.9152 1156.6697 528.9152 1155.9076 C 528.9152 1155.1455 531.6355 1154.5281 534.99114 1154.5281 C 538.34605 1154.5281 541.06637 1155.1455 541.06637 1155.9076 Z" stroke="#f4f5f8" stroke-linecap="round" stroke-linejoin="miter" stroke-width="1"/><path d="M 540.57187 1155.5599 C 540.57187 1156.26686 538.04566 1156.8406 534.92997 1156.8406 C 531.81356 1156.8406 529.28807 1156.26686 529.28807 1155.5599 C 529.28807 1154.8523 531.81356 1154.27784 534.92997 1154.27784 C 538.04566 1154.27784 540.57187 1154.8523 540.57187 1155.5599 Z" fill="#9ee568"/><path d="M 540.57187 1155.5599 C 540.57187 1156.26686 538.04566 1156.8406 534.92997 1156.8406 C 531.81356 1156.8406 529.28807 1156.26686 529.28807 1155.5599 C 529.28807 1154.8523 531.81356 1154.27784 534.92997 1154.27784 C 538.04566 1154.27784 540.57187 1154.8523 540.57187 1155.5599 Z" stroke="black" stroke-linecap="round" stroke-linejoin="round" stroke-width=".25"/><path d="M 540.74183 1155.532 L 529.23026 1155.5205 L 527.72327 1127.6656 L 542.25814 1127.6656 Z" fill="#f4f5f8"/><path d="M 540.74183 1155.532 L 529.23026 1155.5205 L 527.72327 1127.6656 L 542.25814 1127.6656 Z" stroke="black" stroke-linecap="round" stroke-linejoin="round" stroke-width=".25"/><path d="M 540.74183 1155.532 L 529.23026 1155.5205 L 527.72327 1127.6656 L 542.25814 1127.6656 L 540.74183 1155.532 Z" stroke="black" stroke-linecap="square" stroke-linejoin="miter" stroke-width=".25"/><path d="M 542.2582 1127.51215 C 542.2582 1128.4239 539.0043 1129.1631 534.99114 1129.1631 C 530.97727 1129.1631 527.72335 1128.4239 527.72335 1127.51215 C 527.72335 1126.6011 530.97727 1125.8612 534.99114 1125.8612 C 539.0043 1125.8612 542.2582 1126.6011 542.2582 1127.51215 Z" fill="#e5e7e9"/><path d="M 542.2582 1127.51215 C 542.2582 1128.4239 539.0043 1129.1631 534.99114 1129.1631 C 530.97727 1129.1631 527.72335 1128.4239 527.72335 1127.51215 C 527.72335 1126.6011 530.97727 1125.8612 534.99114 1125.8612 C 539.0043 1125.8612 542.2582 1126.6011 542.2582 1127.51215 Z" stroke="black" stroke-linecap="round" stroke-linejoin="miter" stroke-width=".25"/><path d="M 540.57187 1155.5991 L 529.28807 1155.5991 L 528.1392 1134.82785 L 541.8425 1134.82785 Z" fill="#9ee568"/><path d="M 541.84278 1134.9198 C 541.84278 1135.7793 538.7751 1136.4762 534.99114 1136.4762 C 531.20647 1136.4762 528.13877 1135.7793 528.13877 1134.9198 C 528.13877 1134.06104 531.20647 1133.3641 534.99114 1133.3641 C 538.7751 1133.3641 541.84278 1134.06104 541.84278 1134.9198 Z" fill="#d2e1c5"/><path d="M 541.84278 1134.9198 C 541.84278 1135.7793 538.7751 1136.4762 534.99114 1136.4762 C 531.20647 1136.4762 528.13877 1135.7793 528.13877 1134.9198 C 528.13877 1134.06104 531.20647 1133.3641 534.99114 1133.3641 C 538.7751 1133.3641 541.84278 1134.06104 541.84278 1134.9198 Z" stroke="black" stroke-linecap="round" stroke-linejoin="round" stroke-width=".25"/><path d="M 551.29284 1116.8387 C 551.19113 1116.3309 550.69477 1116.0007 550.18767 1116.10314 L 541.6908 1118.2834 C 541.36204 1118.3486 541.09344 1118.34286 540.9853 1118.66016 L 537.3976 1134.8281 L 539.31786 1134.8281 L 542.5904 1119.7768 L 550.55654 1117.8236 C 551.06507 1117.72115 551.39455 1117.3473 551.29284 1116.8387 Z" fill="#d04144"/><path d="M 551.29284 1116.8387 C 551.19113 1116.3309 550.69477 1116.0007 550.18767 1116.10314 L 541.6908 1118.2834 C 541.36204 1118.3486 541.09344 1118.34286 540.9853 1118.66016 L 537.3976 1134.8281 L 539.31786 1134.8281 L 542.5904 1119.7768 L 550.55654 1117.8236 C 551.06507 1117.72115 551.39455 1117.3473 551.29284 1116.8387 Z" stroke="black" stroke-linecap="round" stroke-linejoin="round" stroke-width=".25"/><path d="M 525.34103 1133.025 L 531.1935 1122.8313 C 528.37864 1121.21545 524.78665 1122.1874 523.1708 1125.00155 C 521.55493 1127.8171 522.52616 1131.4091 525.34103 1133.025 Z" fill="#79ad50"/><path d="M 525.34103 1133.025 L 531.1935 1122.8313 C 528.37864 1121.21545 524.78665 1122.1874 523.1708 1125.00155 C 521.55493 1127.8171 522.52616 1131.4091 525.34103 1133.025 Z" stroke="black" stroke-linecap="round" stroke-linejoin="round" stroke-width=".25"/><path d="M 525.14728 1133.3639 L 525.5011 1132.74793 C 522.84024 1131.21874 521.9213 1127.823 523.44977 1125.1621 C 524.9768 1122.50126 528.37256 1121.5816 531.03414 1123.1108 L 531.38797 1122.4941 C 528.38616 1120.7701 524.55638 1121.8065 522.83308 1124.8083 C 521.10978 1127.8101 522.1462 1131.6399 525.14728 1133.3639 Z" fill="#5b823e"/><path d="M 525.14728 1133.3639 L 525.5011 1132.74793 C 522.84024 1131.21874 521.9213 1127.823 523.44977 1125.1621 C 524.9768 1122.50126 528.37256 1121.5816 531.03414 1123.1108 L 531.38797 1122.4941 C 528.38616 1120.7701 524.55638 1121.8065 522.83308 1124.8083 C 521.10978 1127.8101 522.1462 1131.6399 525.14728 1133.3639 Z" stroke="black" stroke-linecap="round" stroke-linejoin="round" stroke-width=".25"/><path d="M 525.74077 1132.329 L 530.7939 1123.527 C 528.36367 1122.13246 525.2623 1122.9719 523.86706 1125.40215 C 522.4718 1127.8324 523.31053 1130.93374 525.74077 1132.329 Z" fill="#9ee568"/><path d="M 525.74077 1132.329 L 530.7939 1123.527 C 528.36367 1122.13246 525.2623 1122.9719 523.86706 1125.40215 C 522.4718 1127.8324 523.31053 1130.93374 525.74077 1132.329 Z" stroke="black" stroke-linecap="round" stroke-linejoin="round" stroke-width=".25"/></g></g></svg>
