<?xml version="1.0"?>
<!DOCTYPE svg PUBLIC "-//W3C//DTD SVG 1.1//EN" "http://www.w3.org/Graphics/SVG/1.1/DTD/svg11.dtd">
<svg xmlns="http://www.w3.org/2000/svg" xmlns:xl="http://www.w3.org/1999/xlink" version="1.1" viewBox="742 517 90 89" width="90pt" height="89pt"><metadata xmlns:dc="http://purl.org/dc/elements/1.1/"><dc:date>2017-01-24 01:21Z</dc:date><!-- Produced by OmniGraffle Professional 5.4.2 --></metadata><defs></defs><g stroke="none" stroke-opacity="1" stroke-dasharray="none" fill="none" fill-opacity="1"><title>Canvas 1</title><g><title>Layer 1</title><path d="M 830.19 591.9445 L 812.5897 574.3436 L 825.1459 567.0907 C 826.12743 566.5242 826.69785 565.44696 826.61653 564.3172 C 826.5349 563.18657 825.81506 562.20235 824.76273 561.78286 L 768.7712 539.44782 C 767.67355 539.00942 766.42017 539.26778 765.5845 540.10316 C 764.7485 540.93944 764.49046 542.1925 764.92825 543.29015 L 787.26 599.288 C 787.6798 600.34033 788.664 601.0608 789.79434 601.1421 C 790.9247 601.22432 792.0019 600.6533 792.56845 599.67178 L 799.8204 587.11556 L 817.41924 604.71618 C 817.97376 605.271 818.7266 605.58276 819.5104 605.58276 C 820.29506 605.58276 821.0476 605.271 821.60214 604.71618 L 830.1903 596.1268 C 831.34496 594.97186 831.34496 593.09946 830.19 591.9445 Z" fill="#020302"/><path d="M 755.6065 525.9428 C 754.45127 524.78874 752.57946 524.78814 751.4236 525.9428 C 750.26866 527.09804 750.26866 528.97075 751.4236 530.1257 L 757.99534 536.69742 C 758.57266 537.27475 759.32943 537.5634 760.0865 537.5634 C 760.84325 537.5634 761.6 537.27475 762.17734 536.69742 C 763.3326 535.54217 763.3326 533.66976 762.17734 532.5148 Z" fill="#020302"/><path d="M 757.83357 546.38898 C 757.83357 544.75603 756.5094 543.43154 754.87583 543.43154 L 745.5822 543.43154 C 743.94896 543.43154 742.62417 544.75573 742.62417 546.38898 C 742.62417 548.02224 743.94866 549.34673 745.5822 549.34673 L 754.87583 549.34673 C 756.5094 549.34643 757.83357 548.02224 757.83357 546.38898 Z" fill="#020302"/><path d="M 756.6348 555.51723 L 750.06216 562.08926 C 748.9075 563.2445 748.9075 565.1172 750.06216 566.27217 C 750.6398 566.8495 751.39685 567.13815 752.1533 567.13815 C 752.91007 567.13815 753.66744 566.8495 754.24476 566.27217 L 760.8171 559.69984 C 761.97204 558.5449 761.97204 556.6722 760.8171 555.51723 C 759.66214 554.36288 757.79033 554.36258 756.6348 555.51723 Z" fill="#020302"/><path d="M 771.86867 532.35272 C 773.5019 532.35272 774.8264 531.02853 774.8264 529.39498 L 774.8264 520.10046 C 774.8264 518.4672 773.5022 517.14302 771.86867 517.14302 C 770.2357 517.14302 768.91122 518.4669 768.91122 520.10046 L 768.91122 529.39528 C 768.91122 531.02853 770.2354 532.35272 771.86867 532.35272 Z" fill="#020302"/><path d="M 783.08666 536.20228 C 783.84372 536.20228 784.6005 535.91362 785.1778 535.3363 L 791.74924 528.76457 C 792.9042 527.60932 792.9042 525.7369 791.74924 524.58166 C 790.594 523.427 788.7213 523.427 787.56663 524.58166 L 780.9952 531.1537 C 779.84026 532.30864 779.84026 534.18135 780.9952 535.3363 C 781.57313 535.91362 782.3296 536.20228 783.08666 536.20228 Z" fill="#020302"/></g></g></svg>
