<?xml version="1.0" encoding="utf-8"?>
<!-- Generator: Adobe Illustrator 21.0.2, SVG Export Plug-In . SVG Version: 6.00 Build 0)  -->
<svg version="1.1" id="Layer_1" xmlns="http://www.w3.org/2000/svg" xmlns:xlink="http://www.w3.org/1999/xlink" x="0px" y="0px"
	 viewBox="0 0 523 519" style="enable-background:new 0 0 523 519;" xml:space="preserve">
<style type="text/css">
	.st0{fill:#FF3300;}
	.st1{fill:none;stroke:#FF3300;stroke-width:2;stroke-miterlimit:10;}
</style>
<title>stop_button_red</title>
<path d="M266.1,358.6l-2.4-0.1L266.1,358.6z"/>
<path d="M248,357.5l-3.1-0.3L248,357.5z"/>
<path d="M241.9,356.8l-3-0.4L241.9,356.8z"/>
<path d="M229.7,354.9l-2.1-0.4L229.7,354.9z"/>
<path d="M223.4,353.8l-1.3-0.3L223.4,353.8z"/>
<path d="M235.8,355.9l-2.6-0.4L235.8,355.9z"/>
<path d="M278.2,358.6c1.1,0,2.2-0.1,3.3-0.1C280.4,358.5,279.3,358.5,278.2,358.6z"/>
<path d="M288.7,358.1c-1.5,0.1-3,0.2-4.5,0.3C285.7,358.3,287.2,358.2,288.7,358.1z"/>
<path d="M217,352.4l-0.4-0.1L217,352.4z"/>
<path d="M295.4,357.5c-1.8,0.2-3.6,0.3-5.4,0.5C291.8,357.9,293.6,357.7,295.4,357.5z"/>
<path d="M254,358c-1-0.1-2.1-0.2-3.1-0.3C251.9,357.8,252.9,357.9,254,358z"/>
<path d="M260,358.3c-1,0-2-0.1-3-0.2C258,358.2,259,358.3,260,358.3z"/>
<path class="st0" d="M341.5,162.3H178.5c-10.6,0-16.3,4.9-16.3,16.3v163.1c0,10.6,4.9,16.3,16.3,16.3h163.1
	c10.6,0,16.3-4.9,16.3-16.3V178.6C357.9,168,353,162.3,341.5,162.3z"/>
<path id="Shape" class="st1" d="M259.8,508.3L259.8,508.3c-137.5,0-249.1-111.9-249.1-249.1C10.7,121.7,122.4,10,259.8,10
	S509,121.9,509,259.1C509,396.6,397.3,508.3,259.8,508.3L259.8,508.3z"/>
</svg>
