<?xml version="1.0" encoding="utf-8"?>
<!-- Generator: Adobe Illustrator 16.0.0, SVG Export Plug-In . SVG Version: 6.00 Build 0)  -->
<!DOCTYPE svg PUBLIC "-//W3C//DTD SVG 1.1//EN" "http://www.w3.org/Graphics/SVG/1.1/DTD/svg11.dtd">
<svg version="1.1" id="Layer_1" xmlns:xl="http://www.w3.org/1999/xlink"
	 xmlns="http://www.w3.org/2000/svg" xmlns:xlink="http://www.w3.org/1999/xlink" x="0px" y="0px" width="50px" height="50px"
	 viewBox="0 0 50 50" enable-background="new 0 0 50 50" xml:space="preserve">
<g>
	<title>Canvas 1</title>
	<g>
		<title>Layer 1</title>
		<path d="M46.084,11.307c-0.246,0.196-0.508,0.379-0.78,0.549V7.779c0-1.7-1.383-3.082-3.082-3.082h-2.933
			c0.641-1.891,2.443-3.229,4.498-3.229c2.615,0,4.744,2.13,4.744,4.745C48.531,8.298,47.709,10.012,46.084,11.307 M35.795,14.757
			c0.71,0.162,1.503,0.261,2.339,0.29c-0.381,0.821-1.212,1.393-2.175,1.393c-1.322,0-2.397-1.076-2.397-2.398
			c0-1.32,1.075-2.396,2.397-2.396c1.164,0,2.138,0.834,2.353,1.938c-0.791-0.02-1.536-0.106-2.188-0.256
			c-0.396-0.091-0.789,0.156-0.881,0.551C35.152,14.272,35.398,14.666,35.795,14.757 M43.836,26.274c0,0.641-0.25,1.241-0.702,1.695
			L23.042,48.06c-0.63,0.631-1.653,0.631-2.283,0L1.939,29.241c-0.63-0.63-0.63-1.654,0-2.283l20.09-20.091
			c0.453-0.453,1.056-0.703,1.696-0.703h18.496c0.89,0,1.614,0.725,1.614,1.615v4.82c-1.28,0.528-2.69,0.831-4.047,0.94
			c-0.245-1.896-1.869-3.364-3.83-3.364c-2.131,0-3.865,1.734-3.865,3.865c0,2.132,1.734,3.866,3.865,3.866
			c1.792,0,3.303-1.228,3.738-2.884c1.373-0.093,2.799-0.364,4.139-0.847V26.274z M43.787,0c-2.855,0-5.342,1.979-6.025,4.697
			H23.726c-1.032,0-2.003,0.4-2.733,1.131L0.9,25.92c-1.201,1.202-1.201,3.157,0,4.359l18.821,18.818
			C20.322,49.699,21.111,50,21.9,50s1.579-0.301,2.18-0.902l20.092-20.09c0.729-0.73,1.132-1.702,1.132-2.733V13.54
			c0.603-0.31,1.174-0.671,1.694-1.086C48.963,10.889,50,8.732,50,6.213C50,2.787,47.213,0,43.787,0"/>
	</g>
</g>
</svg>
