<?xml version="1.0"?>
<!DOCTYPE svg PUBLIC "-//W3C//DTD SVG 1.1//EN" "http://www.w3.org/Graphics/SVG/1.1/DTD/svg11.dtd">
<svg xmlns="http://www.w3.org/2000/svg" xmlns:xl="http://www.w3.org/1999/xlink" version="1.1" viewBox="240 47 19 36" width="19pt" height="3pc"><metadata xmlns:dc="http://purl.org/dc/elements/1.1/"><dc:date>2017-01-21 20:37Z</dc:date><!-- Produced by OmniGraffle Professional 5.4.2 --></metadata><defs></defs><g stroke="none" stroke-opacity="1" stroke-dasharray="none" fill="none" fill-opacity="1"><title>Canvas 1</title><g><title>Layer 1</title><path d="M 249.51747 82.838153 C 244.79177 82.838153 240.94684 79.683904 240.94684 75.807095 L 240.94684 52.397364 C 240.94684 49.42177 243.89647 47.000004 247.52362 47.000004 C 251.15077 47.000004 254.1004 49.42177 254.1004 52.397364 L 254.10766 67.71205 C 254.10766 69.788414 252.04849 71.477694 249.51747 71.477694 C 246.98645 71.477694 244.92727 69.788414 244.92727 67.71205 L 244.93453 59.543555 C 244.93453 58.993695 245.47654 58.55103 246.14439 58.55103 C 246.81465 58.55103 247.35424 58.99568 247.35424 59.543555 L 247.34698 67.71205 C 247.34698 68.69465 248.31971 69.49264 249.51747 69.49264 C 250.71523 69.49264 251.68795 68.69465 251.68795 67.71205 L 251.68069 52.397364 C 251.68069 50.517518 249.81509 48.985057 247.52362 48.985057 C 245.23215 48.985057 243.36655 50.517518 243.36655 52.397364 L 243.36655 75.807095 C 243.36655 78.588155 246.12745 80.8531 249.51747 80.8531 C 252.9099 80.8531 255.6708 78.588155 255.6708 75.807095 L 255.6708 61.899813 C 255.6708 61.35194 256.21282 60.907286 256.88066 60.907286 C 257.5485 60.907286 258.09051 61.35194 258.09051 61.899813 L 258.09051 75.807095 C 258.09051 79.683904 254.24317 82.838153 249.51747 82.838153 Z" fill="#242121"/></g></g></svg>
