<?xml version="1.0"?>
<!DOCTYPE svg PUBLIC "-//W3C//DTD SVG 1.1//EN" "http://www.w3.org/Graphics/SVG/1.1/DTD/svg11.dtd">
<svg xmlns="http://www.w3.org/2000/svg" xmlns:xl="http://www.w3.org/1999/xlink" version="1.1" viewBox="154 377 55 50" width="55pt" height="50pt"><metadata xmlns:dc="http://purl.org/dc/elements/1.1/"><dc:date>2017-01-18 05:49Z</dc:date><!-- Produced by OmniGraffle Professional 5.4.2 --></metadata><defs></defs><g stroke="none" stroke-opacity="1" stroke-dasharray="none" fill="none" fill-opacity="1"><title>Canvas 1</title><g><title>Layer 1</title><path d="M 179.3134 380.47814 C 178.5769 380.17414 177.7289 380.34364 177.15741 380.91364 L 165.19445 392.9526 L 155.97949 392.9526 C 154.8825 392.9526 154 393.83808 154 394.93208 L 154 409.21952 C 154 410.31402 154.8825 411.19901 155.97949 411.19901 L 165.15045 411.19901 L 177.16391 423.23847 C 177.5424 423.61846 178.0524 423.81946 178.5639 423.81946 C 178.8164 423.81946 179.0789 423.77096 179.3199 423.66896 C 180.06289 423.36396 180.54339 422.64097 180.54339 421.84147 L 180.54339 382.30713 C 180.54189 381.50613 180.05639 380.78264 179.3134 380.47814 Z" fill="#aaa"/><path d="M 199.91461 402.02005 C 199.91461 394.60358 195.50763 387.9236 188.68316 384.99562 C 187.67816 384.56512 186.51117 385.02962 186.08417 386.03662 C 185.65217 387.04011 186.11617 388.2036 187.12117 388.6346 C 192.49514 390.9361 195.95763 396.19008 195.95763 402.02005 C 195.95763 407.82403 192.50814 413.0655 187.16517 415.3685 C 186.16317 415.8025 185.69867 416.9665 186.13067 417.96799 C 186.45267 418.71798 187.18267 419.16398 187.95466 419.16398 C 188.21066 419.16398 188.47966 419.11248 188.73516 419.00098 C 195.52963 416.0725 199.91461 409.40702 199.91461 402.02005 Z" fill="#aaa"/><path d="M 191.1583 402.0169 C 191.1583 398.09842 188.82931 394.57793 185.21782 393.04694 C 184.21583 392.62744 183.05233 393.08894 182.62833 394.09693 C 182.19434 395.10393 182.66583 396.26592 183.67033 396.69342 C 185.81382 397.59992 187.19582 399.6909 187.19582 402.0169 C 187.19582 404.3154 185.82682 406.39688 183.71283 407.31788 C 182.70783 407.75138 182.24984 408.91687 182.68183 409.92037 C 183.00683 410.66687 183.73383 411.11036 184.49983 411.11036 C 184.76182 411.11036 185.03382 411.05836 185.28932 410.94537 C 188.85331 409.39787 191.1583 405.89189 191.1583 402.0169 Z" fill="#aaa"/><path d="M 192.047 377.1632 C 191.0415 376.7277 189.8715 377.1942 189.44751 378.2007 C 189.01401 379.2057 189.47801 380.3697 190.485 380.79869 C 198.98897 384.44867 204.48244 392.77764 204.48244 402.0231 C 204.48244 411.23506 199.00997 419.54803 190.532 423.20402 C 189.527 423.63801 189.06201 424.8 189.49151 425.8035 C 189.8165 426.553 190.543 427 191.3085 427 C 191.571 427 191.843 426.948 192.099 426.8365 C 202.02545 422.55702 208.44343 412.81456 208.44343 402.0216 C 208.44493 391.19465 202.01095 381.43619 192.047 377.1632 Z" fill="#aaa"/></g></g></svg>
