<?xml version="1.0"?>
<!DOCTYPE svg PUBLIC "-//W3C//DTD SVG 1.1//EN" "http://www.w3.org/Graphics/SVG/1.1/DTD/svg11.dtd">
<svg xmlns="http://www.w3.org/2000/svg" xmlns:xl="http://www.w3.org/1999/xlink" version="1.1" viewBox="578 510 81 81" width="81pt" height="81pt"><metadata xmlns:dc="http://purl.org/dc/elements/1.1/"><dc:date>2016-12-18 17:11Z</dc:date><!-- Produced by OmniGraffle Professional 5.4.2 --></metadata><defs></defs><g stroke="none" stroke-opacity="1" stroke-dasharray="none" fill="none" fill-opacity="1"><title>Canvas 1</title><g><title>Layer 1</title><path d="M 618.5505 510.87057 C 596.4705 510.87057 578.5505 528.79057 578.5505 550.87057 C 578.5505 572.95057 596.4705 590.87057 618.5505 590.87057 C 640.6305 590.87057 658.5505 572.95057 658.5505 550.87057 C 658.5505 528.79057 640.6305 510.87057 618.5505 510.87057 Z" fill="#ccc"/><path d="M 622.80802 567.18504 C 617.55027 569.84722 614.4046 567.25814 614.3705 567.23052 C 614.1913 567.0811 613.9433 567.1374 613.81662 567.35992 C 613.691 567.58245 613.74137 567.8824 613.92058 568.0367 C 614.00937 568.119 615.52427 569.37943 618.19944 569.37943 C 619.54704 569.37943 621.19783 569.05458 623.10797 568.09626 C 623.30992 567.98473 623.4101 567.7032 623.32346 567.45576 C 623.23954 567.20345 623.0078 567.0784 622.80802 567.18504 M 618.5519 572.79743 C 608.58973 572.79743 600.17278 565.29115 597.4267 554.9749 L 604.025 554.9749 C 604.025 558.5813 606.9503 561.51365 610.55943 561.51365 C 614.17288 561.51365 617.0982 558.5813 617.0982 554.9749 L 620.10795 554.9749 C 620.29853 558.4113 623.12638 561.14873 626.6099 561.14873 C 630.0945 561.14873 632.9153 558.4113 633.10804 554.9749 L 639.6717 554.9749 C 636.92615 565.29115 628.51137 572.79743 618.5519 572.79743 M 604.09322 547.6776 L 614.0906 540.24116 L 610.09164 547.74365 C 629.89903 551.86117 640.62136 547.67976 640.62136 547.67976 C 640.62136 548.98838 640.5331 550.2759 640.36527 551.52928 L 596.73637 551.52928 C 596.5707 550.27372 596.47757 548.98838 596.47757 547.67976 Z M 618.5519 522.60758 C 604.463 522.60758 593.0049 531.64663 593.0049 547.6776 C 593.0049 563.70587 604.463 576.7498 618.5519 576.7498 C 632.64025 576.7498 644.0962 563.70587 644.0962 547.6776 C 644.0962 531.64663 632.64025 522.60758 618.5519 522.60758" fill="#060506"/></g></g></svg>
