<?xml version="1.0"?>
<!DOCTYPE svg PUBLIC "-//W3C//DTD SVG 1.1//EN" "http://www.w3.org/Graphics/SVG/1.1/DTD/svg11.dtd">
<svg xmlns="http://www.w3.org/2000/svg" xmlns:xl="http://www.w3.org/1999/xlink" version="1.1" viewBox="34 160 80 80" width="80pt" height="80pt"><metadata xmlns:dc="http://purl.org/dc/elements/1.1/"><dc:date>2016-12-18 16:11Z</dc:date><!-- Produced by OmniGraffle Professional 5.4.2 --></metadata><defs></defs><g stroke="none" stroke-opacity="1" stroke-dasharray="none" fill="none" fill-opacity="1"><title>Canvas 1</title><g><title>Layer 1</title><path d="M 74 160 C 51.92 160 34 177.92 34 200 C 34 222.08 51.92 240 74 240 C 96.08 240 114 222.08 114 200 C 114 177.92 96.08 160 74 160 Z" fill="#ccc"/><path d="M 49.72837 195.78434 L 97.31375 195.78434 L 91.4928 189.11168 L 55.373125 189.11168 L 49.72837 195.78434 Z" stroke="#0a0a0a" stroke-linecap="round" stroke-linejoin="round" stroke-width="2"/><rect x="55.105922" y="177.99997" width="37.029699" height="10.962487" stroke="#0a0a0a" stroke-linecap="round" stroke-linejoin="round" stroke-width="2"/><path d="M 90.22749 202.66136 C 87.92854 202.66136 85.891066 201.57309 84.595856 199.96406 C 83.300646 201.57309 81.26505 202.61643 78.96516 202.61643 C 76.66621 202.61643 74.6278 201.57675 73.334464 199.96772 C 72.04019 201.57675 70.00178 202.6256 67.70377 202.6256 C 65.40388 202.6256 63.367345 201.59417 62.072135 199.98514 C 60.776925 201.59417 58.739453 202.65952 56.440502 202.65952 C 55.96253 202.65952 55.505176 202.6091 55.06938 202.51558 L 55.06938 221.99997 L 92.099077 221.99997 L 92.099077 202.39273 C 91.501144 202.56234 90.87697 202.66136 90.22749 202.66136 Z" stroke="#0a0a0a" stroke-linecap="round" stroke-linejoin="round" stroke-width="2"/><path d="M 50.883798 196.2706 C 50.883798 199.60785 53.482653 203.04594 57.397336 203.04594 C 59.696287 203.04594 61.73376 202.02918 63.02897 200.42107 C 64.323242 202.02918 66.36165 203.08629 68.659666 203.08629 C 70.958616 203.08629 72.99609 202.05027 74.2913 200.44124 C 75.584634 202.05027 77.623044 203.09637 79.921058 203.09637 C 82.221883 203.09637 84.25748 202.05669 85.55269 200.44766 C 86.8479 202.05669 88.885373 203.04503 91.184324 203.04503 C 95.09807 203.04503 98.27143 199.60785 98.27143 196.2706 L 50.883798 196.2706 Z" stroke="#0a0a0a" stroke-linecap="round" stroke-linejoin="round" stroke-width="2"/><rect x="59.454536" y="206.2709" width="7.7956274" height="15.729065" stroke="#0a0a0a" stroke-linecap="round" stroke-linejoin="round" stroke-width="2"/><rect x="76.507822" y="204.84065" width="10.7196905" height="8.5796565" stroke="#0a0a0a" stroke-linecap="round" stroke-linejoin="round" stroke-width="2"/></g></g></svg>
