<?xml version="1.0"?>
<!DOCTYPE svg PUBLIC "-//W3C//DTD SVG 1.1//EN" "http://www.w3.org/Graphics/SVG/1.1/DTD/svg11.dtd">
<svg xmlns="http://www.w3.org/2000/svg" xmlns:xl="http://www.w3.org/1999/xlink" version="1.1" viewBox="143 417 81 81" width="81pt" height="81pt"><metadata xmlns:dc="http://purl.org/dc/elements/1.1/"><dc:date>2016-12-18 17:11Z</dc:date><!-- Produced by OmniGraffle Professional 5.4.2 --></metadata><defs></defs><g stroke="none" stroke-opacity="1" stroke-dasharray="none" fill="none" fill-opacity="1"><title>Canvas 1</title><g><title>Layer 1</title><path d="M 184 417 C 161.92 417 144 434.92 144 457 C 144 479.08 161.92 497 184 497 C 206.08 497 224 479.08 224 457 C 224 434.92 206.08 417 184 417 Z" fill="#ccc"/><path d="M 200.24923 461.16153 C 202.4076 459.91308 203.86006 457.5155 203.86006 454.84257 C 203.86006 452.16965 202.4076 449.77206 200.24923 448.52362" stroke="#ffdd09" stroke-linecap="round" stroke-linejoin="round" stroke-width="3"/><path d="M 194.83298 432.4102 L 174.0707 443.10728 L 174.0707 467.4804 L 195.00088 475.52893 C 196.15815 475.87196 197.31994 475.00536 197.5411 473.79844 L 197.5411 434.082 C 197.31994 432.80016 196.01914 431.92634 194.83298 432.4102 Z" fill="#ffdd09"/><path d="M 171.36258 443.10737 L 162.3355 443.10737 C 160.34142 443.10737 158.72467 444.72412 158.72467 445.8155 L 158.72467 462.96694 C 158.72467 465.86373 160.34142 467.48048 162.3355 467.48048 L 171.36258 467.48048 Z" fill="white"/><path d="M 174.0707 443.10737 L 165.04362 443.10737 C 163.04954 443.10737 161.43279 444.72412 161.43279 446.7182 L 161.43279 463.86965 C 161.43279 465.86373 163.04954 467.48048 165.04362 467.48048 L 174.0707 467.48048 Z" fill="black"/><path d="M 192.12486 432.4102 L 171.36258 443.10728 L 171.36258 467.4804 L 192.29276 475.52893 C 193.45003 475.87196 194.61182 475.00536 194.83298 473.79844 L 194.83298 434.082 C 194.61182 432.80016 193.31101 431.92634 192.12486 432.4102 Z" fill="#fd9808"/><path d="M 189.7288 433.17759 L 171.36231 443.10737 L 171.36231 467.48048 L 189.87775 474.70214 C 190.90232 475.04517 191.9296 475.00545 192.12459 473.79853 L 192.12459 434.0821 C 191.9296 432.80025 190.77955 432.69373 189.7288 433.17759 Z" fill="#191919"/><path d="M 158.72467 453.0367 C 158.72467 453.0367 158.72467 463.8692 158.72467 463.8692 C 158.72467 465.86418 160.34142 467.48003 162.3355 467.48003 C 162.3355 467.48003 171.36258 467.48003 171.36258 467.48003 C 171.36258 467.48003 171.36258 443.10692 171.36258 443.10692 C 171.36258 443.10692 162.3355 443.10692 162.3355 443.10692 C 160.34142 443.10692 158.72467 444.72367 158.72467 446.71775 C 158.72467 446.71775 158.72467 449.42678 158.72467 449.42678" stroke="black" stroke-linecap="round" stroke-linejoin="round" stroke-width="3"/><path d="M 190.14314 474.7026 C 190.14314 474.7026 192.29339 475.52947 192.29339 475.52947 C 193.45066 475.8725 194.61064 475.005 194.83271 473.79808 C 194.83271 473.79808 194.83271 434.08255 194.83271 434.08255 C 194.61064 432.7998 193.31255 431.92688 192.12459 432.41074 C 192.12459 432.41074 171.36231 443.10782 171.36231 443.10782 C 171.36231 443.10782 171.36231 467.48093 171.36231 467.48093 C 171.36231 467.48093 183.0957 471.99266 183.0957 471.99266" stroke="black" stroke-linecap="round" stroke-linejoin="round" stroke-width="3"/><path d="M 202.05997 442.336 C 206.51122 444.91053 209.27531 449.703 209.27531 454.84212 C 209.27531 459.98214 206.51122 464.9055 202.05997 467.48003" stroke="black" stroke-linecap="round" stroke-linejoin="round" stroke-width="3"/><path d="M 198.44381 461.16153 C 200.60218 459.91308 202.05464 457.5155 202.05464 454.84257 C 202.05464 452.16965 200.60218 449.77206 198.44381 448.52362" stroke="black" stroke-linecap="round" stroke-linejoin="round" stroke-width="3"/><path d="M 187.2728 473.34763 C 187.2728 472.84933 186.86839 472.44492 186.3701 472.44492 C 185.8718 472.44492 185.46739 472.84933 185.46739 473.34763 C 185.46739 473.84592 185.8718 474.25034 186.3701 474.25034 C 186.86839 474.25034 187.2728 473.84592 187.2728 473.34763 Z" fill="black"/></g></g></svg>
