<?xml version="1.0"?>
<!DOCTYPE svg PUBLIC "-//W3C//DTD SVG 1.1//EN" "http://www.w3.org/Graphics/SVG/1.1/DTD/svg11.dtd">
<svg xmlns="http://www.w3.org/2000/svg" xmlns:xl="http://www.w3.org/1999/xlink" version="1.1" viewBox="291 471 119 120" width="119pt" height="10pc"><metadata xmlns:dc="http://purl.org/dc/elements/1.1/"><dc:date>2016-12-18 17:11Z</dc:date><!-- Produced by OmniGraffle Professional 5.4.2 --></metadata><defs></defs><g stroke="none" stroke-opacity="1" stroke-dasharray="none" fill="none" fill-opacity="1"><title>Canvas 1</title><g><title>Layer 1</title><path d="M 350.50733 471 C 317.80273 471 291.25987 497.88 291.25987 531 C 291.25987 564.12 317.80273 591 350.50733 591 C 383.21193 591 409.7548 564.12 409.7548 531 C 409.7548 497.88 383.21193 471 350.50733 471 Z" fill="red"/><path d="M 359.83475 514.79712 L 374.50965 493.43035 L 338.94582 493.43035 L 327.65465 519.6227 L 336.4599 519.6227 L 327.65465 540.9887 L 342.52557 540.9887 L 330.8954 579.05934 L 374.50965 536.1639 L 359.83475 536.1639 L 374.50965 514.79712 Z" fill="#fff300"/><path d="M 359.83475 514.79712 L 374.50965 493.43035 L 338.94582 493.43035 L 327.65465 519.6227 L 336.4599 519.6227 L 327.65465 540.9887 L 342.52557 540.9887 L 330.8954 579.05934 L 374.50965 536.1639 L 359.83475 536.1639 L 374.50965 514.79712 L 359.83475 514.79712 Z" stroke="black" stroke-linecap="round" stroke-linejoin="round" stroke-width="0"/></g></g></svg>
