<?xml version="1.0" encoding="UTF-8" standalone="no"?>
<!DOCTYPE svg PUBLIC "-//W3C//DTD SVG 1.1//EN" "http://www.w3.org/Graphics/SVG/1.1/DTD/svg11.dtd">
<svg xmlns:dc="http://purl.org/dc/elements/1.1/" xmlns:xl="http://www.w3.org/1999/xlink" version="1.1" xmlns="http://www.w3.org/2000/svg" viewBox="9.95 29.5 437.1 853" width="437.1" height="853">
  <defs/>
  <metadata> Produced by OmniGraffle 7.7.1 
    <dc:date>2018-03-16 02:05:50 +0000</dc:date>
  </metadata>
  <g id="Canvas_1" fill-opacity="1" stroke-dasharray="none" stroke="none" stroke-opacity="1" fill="none">
    <title>Canvas 1</title>
    <g id="Canvas_1: Layer 1">
      <title>Layer 1</title>
      <g id="Group_25">
        <title>Graphic_13</title>
        <g id="Graphic_26">
          <rect x="38" y="99" width="387" height="684" fill="white"/>
        </g>
      </g>
      <g id="Group_5">
        <title>Group_3</title>
        <g id="Group_23">
          <title>Graphic_12</title>
          <g id="Graphic_24">
            <path d="M 447.05 266 C 447.05 267.3 445.95 268.4 444.75 268.4 L 438.15 268.4 C 436.85 268.4 435.85 267.3 435.85 266 L 435.85 185.9 C 435.85 184.6 436.95 183.5 438.15 183.5 L 444.75 183.5 C 446.05 183.5 447.05 184.6 447.05 185.9 Z" fill="#d9d8d7"/>
          </g>
        </g>
        <g id="Group_21">
          <title>Graphic_11</title>
          <g id="Graphic_22">
            <path d="M 21.15 266 C 21.15 267.3 20.05 268.4 18.85 268.4 L 12.25 268.4 C 10.95 268.4 9.95 267.3 9.95 266 L 9.95 185.9 C 9.95 184.6 11.05 183.5 12.25 183.5 L 18.85 183.5 C 20.15 183.5 21.15 184.6 21.15 185.9 Z" fill="#d9d8d7"/>
          </g>
        </g>
        <g id="Group_19">
          <title>Graphic_10</title>
          <g id="Graphic_20">
            <path d="M 21.15 335.3 C 21.15 336.6 20.05 337.7 18.85 337.7 L 12.25 337.7 C 10.95 337.7 9.95 336.6 9.95 335.3 L 9.95 301.5 C 9.95 300.2 11.05 299.1 12.25 299.1 L 18.85 299.1 C 20.15 299.1 21.15 300.2 21.15 301.5 Z" fill="#d9d8d7"/>
          </g>
        </g>
        <g id="Group_16">
          <title>Graphic_9</title>
          <g id="Graphic_18">
            <path d="M 439.75 835 L 439.75 77 C 439.75 51 418.75 30 392.75 30 L 64.15 30 C 38.25 30 17.15 51.1 17.15 77 L 17.15 835 C 17.15 861 38.15 882 64.15 882 L 392.85 882 C 418.75 882 439.75 860.9 439.75 835 Z M 412.95 781.5 L 43.75 781.5 L 43.75 111.6 L 413.05 111.6 L 413.05 781.5 Z" fill="#cbcbcb"/>
          </g>
          <g id="Graphic_17">
            <path d="M 439.75 835 L 439.75 77 C 439.75 51 418.75 30 392.75 30 L 64.15 30 C 38.25 30 17.15 51.1 17.15 77 L 17.15 835 C 17.15 861 38.15 882 64.15 882 L 392.85 882 C 418.75 882 439.75 860.9 439.75 835 Z M 412.95 781.5 L 43.75 781.5 L 43.75 111.6 L 413.05 111.6 L 413.05 781.5 Z" stroke="white" stroke-linecap="butt" stroke-linejoin="round" stroke-width="1"/>
          </g>
        </g>
        <g id="Group_14">
          <title>Graphic_8</title>
          <g id="Graphic_15">
            <path d="M 163.35 80.4 C 163.35 83.9 160.55 86.7 157.05 86.7 C 153.55 86.7 150.75 83.9 150.75 80.4 C 150.75 76.9 153.55 74.1 157.05 74.1 C 160.55 74.1 163.35 76.9 163.35 80.4 Z" fill="#c7c7c7"/>
          </g>
        </g>
        <g id="Group_12">
          <title>Graphic_7</title>
          <g id="Graphic_13">
            <path d="M 276.65 80.4 C 276.65 83.9 273.85 86.7 270.35 86.7 L 186.65 86.7 C 183.15 86.7 180.35 83.9 180.35 80.4 C 180.35 76.9 183.15 74.1 186.65 74.1 L 270.35 74.1 C 273.75 74 276.65 76.9 276.65 80.4 Z" fill="#d9d8d7"/>
          </g>
        </g>
        <g id="Group_10">
          <title>Graphic_6</title>
          <g id="Graphic_11">
            <path d="M 235.65 51 C 235.65 55 232.45 58.2 228.45 58.2 C 224.45 58.2 221.25 55 221.25 51 C 221.25 47 224.45 43.8 228.45 43.8 C 232.45 43.8 235.65 47 235.65 51 Z" fill="#d9d8d7"/>
          </g>
        </g>
        <g id="Group_8">
          <title>Graphic_5</title>
          <g id="Graphic_9">
            <path d="M 262.75 831.5 C 262.75 850.5 247.35 865.9 228.45 865.9 C 209.55 865.9 194.15 850.5 194.15 831.5 C 194.15 812.5 209.55 797.2 228.45 797.2 C 247.35 797.1 262.75 812.5 262.75 831.5 Z" fill="#c7c7c7"/>
          </g>
        </g>
        <g id="Group_6">
          <title>Graphic_4</title>
          <g id="Graphic_7">
            <path d="M 256.95 831.5 C 256.95 847.3 244.15 860 228.45 860 C 212.75 860 199.95 847.2 199.95 831.5 C 199.95 815.7 212.75 803 228.45 803 C 244.15 803 256.95 815.7 256.95 831.5 Z" fill="#d9d8d7"/>
          </g>
        </g>
      </g>
    </g>
  </g>
</svg>
