<?xml version="1.0" encoding="UTF-8" standalone="no"?>
<!DOCTYPE svg PUBLIC "-//W3C//DTD SVG 1.1//EN" "http://www.w3.org/Graphics/SVG/1.1/DTD/svg11.dtd">
<svg xmlns:dc="http://purl.org/dc/elements/1.1/" xmlns:xl="http://www.w3.org/1999/xlink" version="1.1" xmlns="http://www.w3.org/2000/svg" viewBox="375.42877 285.21324 161.30601 161.30601" width="161.30601" height="161.30601">
  <defs/>
  <metadata> Produced by OmniGraffle 7.7.1 
    <dc:date>2018-03-15 18:54:35 +0000</dc:date>
  </metadata>
  <g id="Canvas_1" fill-opacity="1" stroke-dasharray="none" stroke="none" stroke-opacity="1" fill="none">
    <title>5. MARKET SIZE</title>
    <g id="Canvas_1: Layer 1">
      <title>Layer 1</title>
      <g id="Group_30">
        <g id="Graphic_38">
          <circle cx="456.0818" cy="365.86625" r="80.6531341407202" fill="#f5ed31"/>
        </g>
        <g id="Group_31">
          <g id="Graphic_37">
            <path d="M 458.44014 294.5792 C 498.1808 296.04783 529.34023 329.20097 528.0387 368.62917 C 526.73457 408.0591 493.46296 438.83136 453.72433 437.3633 C 413.98307 435.8969 382.8222 402.74096 384.12576 363.3133 C 385.42727 323.8851 418.6995 293.11058 458.44014 294.5792 Z" stroke="black" stroke-linecap="round" stroke-linejoin="round" stroke-width="2"/>
          </g>
          <g id="Graphic_36">
            <path d="M 413.37795 337.43913 C 418.1276 337.617 421.723 345.62177 421.40514 355.31894 C 421.0873 365.0161 416.9791 372.73676 412.22943 372.5589 C 407.47756 372.38044 403.8844 364.37626 404.20224 354.6791 C 404.5179 344.98132 408.6283 337.26126 413.37795 337.43913 Z" fill="#1a2425"/>
          </g>
          <g id="Graphic_35">
            <path d="M 509.00705 356.3008 L 501.2413 356.01054 L 501.466 349.16587 C 501.33474 347.74185 500.06465 346.6874 498.63046 346.80983 C 497.43777 346.91294 496.47403 347.80202 496.2879 348.97297 L 496.0654 355.81823 L 488.29904 355.5304 C 487.03194 355.3379 485.85307 356.20085 485.6651 357.45795 C 485.48 358.7132 486.357 359.88545 487.62407 360.07794 C 487.7991 360.10383 487.97497 360.10895 488.15037 360.0982 L 495.91675 360.386 L 495.6914 367.23314 C 495.8233 368.6547 497.0934 369.70915 498.5276 369.58673 C 499.71744 369.48548 500.68183 368.59395 500.8673 367.42545 L 501.09265 360.57833 L 508.8584 360.8686 C 510.1261 361.05865 511.305 360.1957 511.4923 358.94106 C 511.6774 357.6858 510.8011 356.5111 509.53334 356.32107 C 509.3583 356.29517 509.1831 356.2876 509.00705 356.3008 Z" fill="black"/>
          </g>
          <g id="Group_32">
            <g id="Line_34">
              <path d="M 415.00237 388.0111 C 425.96625 412.65854 454.8271 413.44753 454.8271 413.44753" stroke="#1a2425" stroke-linecap="round" stroke-linejoin="round" stroke-width="2"/>
            </g>
            <g id="Line_33">
              <path d="M 495.813 390.31986 C 483.6874 414.265 454.82613 413.4864 454.82613 413.4864" stroke="#1a2425" stroke-linecap="round" stroke-linejoin="round" stroke-width="2"/>
            </g>
          </g>
        </g>
      </g>
    </g>
  </g>
</svg>
